<svg width="300" height="124" fill="none" xmlns="http://www.w3.org/2000/svg"><rect x=".5" y=".5" width="299" height="123" rx="3.5" fill="#fff"/><path d="M25.321 33V22.09h1.321v9.738h5.071V33h-6.392Zm11.59.17c-.738 0-1.386-.175-1.943-.527a3.583 3.583 0 0 1-1.3-1.475c-.309-.633-.463-1.371-.463-2.216 0-.853.154-1.597.463-2.232.313-.636.746-1.13 1.3-1.481.557-.352 1.205-.527 1.944-.527.739 0 1.385.175 1.939.527.557.352.99.845 1.3 1.48.312.636.468 1.38.468 2.233 0 .845-.156 1.583-.468 2.216a3.534 3.534 0 0 1-1.3 1.475c-.554.352-1.2.527-1.94.527Zm0-1.129c.562 0 1.024-.144 1.386-.431.362-.288.63-.666.804-1.135.174-.469.261-.976.261-1.523 0-.547-.087-1.057-.26-1.53a2.577 2.577 0 0 0-.805-1.144c-.362-.291-.824-.437-1.385-.437s-1.023.145-1.385.437c-.362.29-.63.673-.804 1.145a4.388 4.388 0 0 0-.261 1.529c0 .547.087 1.054.26 1.523.175.469.443.847.805 1.135.362.287.824.431 1.385.431Zm5.627.959v-8.182h1.215v1.236h.085c.15-.405.419-.733.81-.985.39-.253.83-.379 1.32-.379.093 0 .208.002.347.006.138.003.243.008.314.016v1.278a3.694 3.694 0 0 0-.293-.048 2.89 2.89 0 0 0-.474-.037c-.398 0-.753.083-1.065.25a1.837 1.837 0 0 0-1.001 1.667V33h-1.258Zm8.763.17c-.789 0-1.469-.174-2.04-.522a3.503 3.503 0 0 1-1.316-1.47c-.306-.632-.458-1.367-.458-2.205 0-.838.152-1.577.458-2.216.309-.643.739-1.143 1.289-1.502.554-.362 1.2-.543 1.939-.543.426 0 .847.07 1.262.213.416.142.794.373 1.135.692.34.316.612.735.815 1.257.202.522.303 1.165.303 1.929v.532h-6.306V28.25h5.028c0-.462-.092-.874-.277-1.236a2.088 2.088 0 0 0-.778-.858c-.333-.21-.728-.314-1.182-.314-.5 0-.934.124-1.3.373-.362.245-.64.564-.836.959a2.817 2.817 0 0 0-.293 1.267v.725c0 .618.106 1.142.32 1.571.216.426.516.751.9.975.383.22.829.33 1.337.33.33 0 .628-.046.895-.138.27-.096.502-.238.697-.426.196-.192.347-.43.453-.714l1.215.34a2.692 2.692 0 0 1-.645 1.087 3.14 3.14 0 0 1-1.118.725 4.15 4.15 0 0 1-1.497.255Zm5.3-.17v-8.182h1.214v1.279h.107c.17-.437.446-.776.825-1.018.38-.245.837-.367 1.37-.367.54 0 .988.122 1.347.367.362.242.645.58.847 1.018h.085c.21-.423.524-.759.943-1.007.42-.252.922-.378 1.508-.378.731 0 1.33.229 1.795.687.465.454.697 1.163.697 2.125V33h-1.257v-5.476c0-.604-.165-1.035-.495-1.294-.33-.26-.72-.39-1.167-.39-.575 0-1.02.175-1.337.523-.316.344-.474.781-.474 1.31V33h-1.278v-5.604c0-.465-.151-.84-.453-1.124-.302-.287-.69-.431-1.166-.431-.327 0-.633.087-.917.26-.28.175-.507.416-.681.725a2.14 2.14 0 0 0-.256 1.06V33H56.6Zm17.256 0v-8.182h1.257V33h-1.257Zm.639-9.546a.894.894 0 0 1-.634-.25.804.804 0 0 1-.261-.602c0-.234.087-.435.26-.602a.894.894 0 0 1 .635-.25c.245 0 .454.084.628.25a.797.797 0 0 1 .267.602.797.797 0 0 1-.267.602.875.875 0 0 1-.628.25Zm2.92 12.614v-11.25h1.215v1.3h.149c.092-.142.22-.323.383-.543.167-.224.405-.423.714-.597.313-.178.735-.266 1.268-.266.689 0 1.296.172 1.822.516.525.345.935.833 1.23 1.465.295.632.442 1.378.442 2.237 0 .867-.147 1.618-.442 2.254-.295.632-.703 1.122-1.225 1.47-.522.344-1.124.516-1.806.516-.525 0-.946-.087-1.262-.26a2.34 2.34 0 0 1-.73-.602 8.102 8.102 0 0 1-.394-.565h-.107v4.325h-1.257Zm1.236-7.159c0 .618.09 1.163.272 1.635.18.47.445.837.793 1.103.348.263.775.394 1.279.394.525 0 .964-.138 1.315-.415a2.54 2.54 0 0 0 .8-1.13 4.431 4.431 0 0 0 .271-1.587c0-.575-.089-1.094-.266-1.555a2.404 2.404 0 0 0-.794-1.103c-.352-.273-.794-.41-1.326-.41-.512 0-.941.13-1.29.389-.347.255-.61.614-.788 1.076-.177.458-.266.992-.266 1.603Zm13.7-2.258-1.129.32a2.098 2.098 0 0 0-.314-.55 1.525 1.525 0 0 0-.554-.447c-.235-.117-.535-.176-.9-.176-.501 0-.918.116-1.252.347-.33.227-.496.516-.496.868 0 .312.114.56.341.74.228.181.583.332 1.066.453l1.214.298c.732.178 1.277.45 1.635.815.36.363.538.83.538 1.401 0 .469-.135.888-.404 1.257-.267.37-.64.66-1.119.874-.48.213-1.037.32-1.673.32-.834 0-1.525-.182-2.072-.544-.547-.362-.893-.891-1.038-1.587l1.193-.299c.113.44.328.771.644.991.32.22.737.33 1.252.33.586 0 1.051-.124 1.396-.372.348-.253.522-.554.522-.906 0-.284-.1-.522-.299-.714-.199-.195-.504-.34-.916-.436l-1.363-.32c-.75-.178-1.3-.453-1.652-.826-.348-.376-.522-.847-.522-1.411 0-.462.13-.87.39-1.225.262-.356.619-.634 1.07-.837.454-.202.97-.303 1.544-.303.81 0 1.446.177 1.908.532.465.355.795.824.99 1.407Zm7.198 3.004v-4.837h1.257V33H99.55v-1.385h-.085c-.192.416-.49.769-.895 1.06-.405.288-.916.431-1.534.431-.512 0-.966-.111-1.364-.335-.398-.227-.71-.568-.937-1.023-.228-.458-.341-1.035-.341-1.731v-5.199h1.257v5.114c0 .596.167 1.072.5 1.427.338.355.768.533 1.29.533.312 0 .63-.08.953-.24.327-.16.6-.405.82-.735.224-.33.336-.75.336-1.262ZM103.11 33v-8.182h1.214v1.279h.107c.17-.437.445-.776.825-1.018.38-.245.837-.367 1.369-.367.54 0 .989.122 1.348.367.362.242.644.58.847 1.018h.085c.21-.423.524-.759.943-1.007.419-.252.921-.378 1.507-.378.732 0 1.33.229 1.795.687.466.454.698 1.163.698 2.125V33h-1.257v-5.476c0-.604-.165-1.035-.495-1.294a1.835 1.835 0 0 0-1.167-.39c-.575 0-1.021.175-1.337.523-.316.344-.474.781-.474 1.31V33h-1.278v-5.604c0-.465-.151-.84-.453-1.124-.302-.287-.691-.431-1.167-.431-.326 0-.632.087-.916.26-.28.175-.508.416-.682.725-.17.306-.255.66-.255 1.06V33h-1.257Zm20.345.17c-.682 0-1.284-.172-1.806-.516-.522-.348-.93-.838-1.225-1.47-.295-.636-.442-1.387-.442-2.254 0-.859.147-1.605.442-2.237.295-.632.705-1.12 1.23-1.465.526-.344 1.133-.516 1.822-.516.533 0 .954.088 1.263.266.312.174.55.373.713.597.167.22.297.4.389.543h.107V22.09h1.257V33h-1.215v-1.257h-.149c-.092.149-.223.337-.394.564-.17.224-.414.425-.73.602-.316.175-.737.261-1.262.261Zm.17-1.129c.505 0 .931-.131 1.279-.394.348-.266.612-.634.793-1.103.182-.472.272-1.017.272-1.635 0-.61-.089-1.145-.266-1.603-.178-.462-.441-.82-.789-1.076-.348-.26-.777-.39-1.289-.39-.532 0-.976.138-1.331.411-.352.27-.616.637-.794 1.103-.174.461-.261.98-.261 1.555 0 .582.089 1.112.266 1.587a2.6 2.6 0 0 0 .799 1.13c.355.277.796.415 1.321.415Zm9.381 1.13c-.739 0-1.387-.176-1.945-.528a3.578 3.578 0 0 1-1.299-1.475c-.309-.633-.464-1.371-.464-2.216 0-.853.155-1.597.464-2.232.312-.636.745-1.13 1.299-1.481.558-.352 1.206-.527 1.945-.527.738 0 1.385.175 1.939.527.557.352.99.845 1.299 1.48.313.636.469 1.38.469 2.233 0 .845-.156 1.583-.469 2.216a3.536 3.536 0 0 1-1.299 1.475c-.554.352-1.201.527-1.939.527Zm0-1.13c.561 0 1.022-.144 1.385-.431.362-.288.63-.666.804-1.135.174-.469.261-.976.261-1.523 0-.547-.087-1.057-.261-1.53a2.578 2.578 0 0 0-.804-1.144c-.363-.291-.824-.437-1.385-.437s-1.023.145-1.385.437a2.58 2.58 0 0 0-.805 1.145 4.388 4.388 0 0 0-.261 1.529c0 .547.087 1.054.261 1.523.174.469.443.847.805 1.135.362.287.824.431 1.385.431Zm6.883-9.95V33h-1.257V22.09h1.257Zm5.626 11.08c-.738 0-1.386-.176-1.944-.528-.554-.352-.987-.843-1.3-1.475-.308-.633-.463-1.371-.463-2.216 0-.853.155-1.597.463-2.232.313-.636.746-1.13 1.3-1.481.558-.352 1.206-.527 1.944-.527.739 0 1.385.175 1.939.527.558.352.991.845 1.3 1.48.313.636.469 1.38.469 2.233 0 .845-.156 1.583-.469 2.216a3.531 3.531 0 0 1-1.3 1.475c-.554.352-1.2.527-1.939.527Zm0-1.13c.562 0 1.023-.144 1.385-.431.363-.288.631-.666.805-1.135.174-.469.261-.976.261-1.523 0-.547-.087-1.057-.261-1.53a2.572 2.572 0 0 0-.805-1.144c-.362-.291-.823-.437-1.385-.437-.561 0-1.022.145-1.384.437a2.572 2.572 0 0 0-.805 1.145 4.388 4.388 0 0 0-.261 1.529c0 .547.087 1.054.261 1.523.174.469.442.847.805 1.135.362.287.823.431 1.384.431Zm5.627.959v-8.182h1.214v1.236h.085c.15-.405.42-.733.81-.985a2.384 2.384 0 0 1 1.321-.379c.093 0 .208.002.346.006a4.6 4.6 0 0 1 .315.016v1.278a3.792 3.792 0 0 0-.293-.048 2.886 2.886 0 0 0-.474-.037 2.23 2.23 0 0 0-1.066.25c-.309.163-.554.39-.735.682a1.842 1.842 0 0 0-.266.985V33h-1.257Zm15.595-6.35-1.129.32a2.111 2.111 0 0 0-.314-.548 1.53 1.53 0 0 0-.554-.448c-.235-.117-.535-.176-.901-.176-.5 0-.918.116-1.251.347-.331.227-.496.516-.496.868 0 .312.114.56.341.74.227.181.582.332 1.065.453l1.215.298c.731.178 1.277.45 1.635.815.359.363.538.83.538 1.401 0 .469-.135.888-.405 1.257-.266.37-.639.66-1.118.874-.48.213-1.037.32-1.673.32-.834 0-1.525-.182-2.072-.544-.547-.362-.893-.891-1.039-1.587l1.194-.299c.113.44.328.771.644.991.32.22.737.33 1.252.33.586 0 1.051-.124 1.395-.372.348-.253.522-.554.522-.906a.95.95 0 0 0-.298-.714c-.199-.195-.504-.34-.916-.436l-1.364-.32c-.749-.178-1.299-.453-1.651-.826-.348-.376-.522-.847-.522-1.411 0-.462.13-.87.389-1.225.263-.356.62-.634 1.071-.837.454-.202.969-.303 1.544-.303.81 0 1.446.177 1.907.532.465.355.796.824.991 1.407Zm2.041 6.35v-8.182h1.258V33h-1.258Zm.64-9.546a.893.893 0 0 1-.634-.25.804.804 0 0 1-.261-.602c0-.234.087-.435.261-.602a.893.893 0 0 1 .634-.25c.245 0 .454.084.628.25a.796.796 0 0 1 .267.602.796.796 0 0 1-.267.602.874.874 0 0 1-.628.25Zm6.478 1.364v1.066h-4.24v-1.066h4.24Zm-3.004-1.96h1.257v7.798c0 .355.052.622.155.8a.798.798 0 0 0 .404.35c.167.058.343.086.528.086.138 0 .252-.007.341-.021l.213-.043.255 1.13a2.573 2.573 0 0 1-.356.095 2.637 2.637 0 0 1-.581.053 2.53 2.53 0 0 1-1.044-.229 2.08 2.08 0 0 1-.842-.697c-.22-.313-.33-.707-.33-1.183v-8.139Zm11.522 10.334c-.519 0-.989-.098-1.412-.293a2.43 2.43 0 0 1-1.007-.858c-.248-.376-.372-.83-.372-1.363 0-.47.092-.85.277-1.14.184-.295.431-.526.74-.693.309-.167.65-.291 1.023-.373.376-.085.754-.152 1.134-.202.497-.064.9-.112 1.209-.144.313-.035.54-.094.682-.176.146-.081.219-.223.219-.426v-.043c0-.525-.144-.933-.432-1.225-.284-.29-.715-.436-1.294-.436-.6 0-1.071.131-1.412.394-.341.263-.58.543-.719.841l-1.193-.426c.213-.497.497-.884.852-1.161.359-.28.749-.476 1.172-.586.426-.114.845-.17 1.257-.17.263 0 .565.032.906.096.344.06.676.186.996.378.323.192.591.48.804.868.213.387.32.905.32 1.555V33h-1.257v-1.108h-.064a2.25 2.25 0 0 1-.426.57 2.466 2.466 0 0 1-.794.517c-.33.142-.733.213-1.209.213Zm.191-1.13c.498 0 .917-.097 1.258-.292a1.995 1.995 0 0 0 1.044-1.732v-1.15c-.054.064-.171.122-.352.176-.178.05-.383.094-.618.133a28.329 28.329 0 0 1-1.204.16 4.809 4.809 0 0 0-.916.207c-.28.093-.508.233-.682.421-.17.185-.255.437-.255.756 0 .437.161.768.484.991.327.22.741.33 1.241.33Zm5.853.938v-8.182h1.215v1.279h.106a2.06 2.06 0 0 1 .826-1.018c.38-.245.836-.367 1.369-.367.54 0 .989.122 1.347.367.363.242.645.58.847 1.018h.086c.209-.423.523-.759.942-1.007.42-.252.922-.378 1.508-.378.731 0 1.33.229 1.795.687.465.454.698 1.163.698 2.125V33h-1.257v-5.476c0-.604-.165-1.035-.496-1.294a1.832 1.832 0 0 0-1.166-.39c-.575 0-1.021.175-1.337.523-.316.344-.474.781-.474 1.31V33h-1.279v-5.604c0-.465-.151-.84-.452-1.124-.302-.287-.691-.431-1.167-.431-.327 0-.632.087-.916.26a1.968 1.968 0 0 0-.682.725c-.17.306-.256.66-.256 1.06V33h-1.257Zm16.468.17c-.789 0-1.469-.174-2.04-.522a3.5 3.5 0 0 1-1.316-1.47c-.306-.632-.458-1.367-.458-2.205 0-.838.152-1.577.458-2.216.309-.643.739-1.143 1.289-1.502.554-.362 1.2-.543 1.939-.543.426 0 .847.07 1.262.213.416.142.794.373 1.135.692.341.316.612.735.815 1.257.202.522.303 1.165.303 1.929v.532h-6.306V28.25h5.028c0-.462-.092-.874-.277-1.236a2.083 2.083 0 0 0-.778-.858c-.333-.21-.728-.314-1.182-.314-.501 0-.934.124-1.3.373a2.45 2.45 0 0 0-.836.959 2.82 2.82 0 0 0-.293 1.267v.725c0 .618.106 1.142.319 1.571.217.426.517.751.901.975.383.22.829.33 1.337.33.33 0 .628-.046.895-.138.269-.096.502-.238.697-.426.196-.192.347-.43.453-.714l1.215.34a2.694 2.694 0 0 1-.645 1.087c-.302.31-.675.55-1.119.725-.443.17-.942.255-1.496.255Zm8.858-8.352v1.066h-4.24v-1.066h4.24Zm-3.004-1.96h1.257v7.798c0 .355.051.622.154.8a.804.804 0 0 0 .405.35c.167.058.343.086.527.086.139 0 .253-.007.341-.021l.213-.043.256 1.13a2.553 2.553 0 0 1-.357.095 2.62 2.62 0 0 1-.58.053 2.53 2.53 0 0 1-1.044-.229 2.073 2.073 0 0 1-.842-.697c-.22-.313-.33-.707-.33-1.183v-8.139Zm6.77 8.65-.085.576c-.061.405-.153.838-.277 1.3-.121.461-.247.896-.378 1.305-.132.408-.24.733-.325.974h-.959l.181-.9c.075-.373.149-.79.224-1.252.078-.458.142-.927.191-1.406l.064-.596h1.364ZM28.474 56.17c-.767 0-1.427-.18-1.981-.543a3.54 3.54 0 0 1-1.278-1.497c-.299-.635-.448-1.361-.448-2.178 0-.831.153-1.565.458-2.2.31-.64.739-1.138 1.29-1.497.553-.362 1.2-.543 1.938-.543a3.67 3.67 0 0 1 1.556.32c.461.212.84.51 1.134.894.295.384.478.831.549 1.343h-1.257c-.096-.373-.31-.704-.64-.991-.326-.291-.767-.437-1.32-.437-.49 0-.92.128-1.29.383-.365.253-.651.61-.857 1.071-.203.458-.304.996-.304 1.614 0 .632.1 1.183.298 1.651.203.47.487.833.853 1.092.369.26.802.39 1.3.39.326 0 .623-.058.889-.171.266-.114.492-.277.677-.49a1.88 1.88 0 0 0 .394-.767h1.257a2.913 2.913 0 0 1-.528 1.305 2.947 2.947 0 0 1-1.102.916c-.455.224-.984.335-1.588.335Zm8.38 0c-.74 0-1.387-.175-1.945-.527a3.583 3.583 0 0 1-1.3-1.475c-.309-.633-.463-1.371-.463-2.216 0-.853.154-1.596.463-2.232.313-.636.746-1.13 1.3-1.481.558-.352 1.206-.527 1.944-.527.739 0 1.385.175 1.94.527.557.352.99.845 1.299 1.48.313.636.469 1.38.469 2.233 0 .845-.157 1.584-.469 2.216a3.534 3.534 0 0 1-1.3 1.475c-.554.352-1.2.527-1.939.527Zm0-1.129c.56 0 1.022-.144 1.384-.431.362-.288.63-.666.805-1.135.174-.469.26-.976.26-1.523 0-.547-.086-1.057-.26-1.53a2.577 2.577 0 0 0-.805-1.144c-.362-.291-.824-.437-1.385-.437-.56 0-1.022.145-1.385.437-.362.29-.63.673-.804 1.145a4.388 4.388 0 0 0-.26 1.529c0 .547.086 1.054.26 1.523.174.469.442.847.804 1.135.363.287.824.431 1.385.431Zm6.883-3.963V56H42.48v-8.182h1.214v1.279h.107c.191-.416.483-.75.873-1.002.39-.255.895-.383 1.513-.383.554 0 1.039.113 1.454.34.416.224.739.565.97 1.023.23.455.346 1.03.346 1.726V56H47.7v-5.114c0-.642-.167-1.143-.5-1.502-.335-.362-.793-.543-1.375-.543-.401 0-.76.087-1.076.26-.313.175-.56.429-.74.763-.182.333-.272.738-.272 1.214Zm13.313-1.427-1.13.32a2.098 2.098 0 0 0-.314-.55 1.525 1.525 0 0 0-.554-.447c-.234-.117-.534-.176-.9-.176-.5 0-.918.116-1.252.346-.33.228-.495.517-.495.869 0 .312.113.56.34.74.228.181.583.332 1.066.453l1.214.298c.732.178 1.277.45 1.636.815.358.362.538.83.538 1.401 0 .469-.135.888-.405 1.257-.266.37-.64.66-1.119.874-.48.213-1.037.32-1.672.32-.835 0-1.526-.182-2.072-.544-.547-.362-.893-.891-1.04-1.587l1.194-.298c.114.44.328.77.645.99.32.22.736.33 1.251.33.586 0 1.051-.124 1.396-.372.348-.252.522-.554.522-.906 0-.284-.1-.522-.298-.714-.2-.195-.505-.34-.916-.437l-1.364-.32c-.75-.177-1.3-.452-1.651-.825-.348-.376-.523-.847-.523-1.411 0-.462.13-.87.39-1.225.262-.356.62-.634 1.07-.837.455-.202.97-.303 1.545-.303.81 0 1.445.177 1.907.532.465.355.795.824.99 1.407Zm5.471 6.52c-.788 0-1.468-.175-2.04-.523a3.503 3.503 0 0 1-1.315-1.47c-.306-.632-.458-1.367-.458-2.205 0-.838.152-1.577.458-2.216.309-.643.738-1.143 1.289-1.502.554-.362 1.2-.543 1.939-.543.426 0 .846.07 1.262.213.416.142.794.373 1.135.692.34.316.612.735.815 1.257.202.522.303 1.165.303 1.929v.532h-6.307V51.25h5.029c0-.462-.093-.874-.277-1.236a2.088 2.088 0 0 0-.778-.858c-.334-.21-.728-.314-1.182-.314-.501 0-.934.124-1.3.373-.362.245-.641.564-.837.959a2.817 2.817 0 0 0-.292 1.267v.725c0 .618.106 1.142.32 1.571.216.426.516.751.9.975.383.22.829.33 1.336.33.33 0 .629-.046.895-.138.27-.096.503-.238.698-.426.195-.192.346-.43.453-.714l1.214.34a2.692 2.692 0 0 1-.644 1.087 3.14 3.14 0 0 1-1.119.725 4.15 4.15 0 0 1-1.497.255Zm8.624 0c-.767 0-1.427-.182-1.981-.544a3.54 3.54 0 0 1-1.279-1.497c-.298-.635-.447-1.361-.447-2.178 0-.831.153-1.565.458-2.2.309-.64.739-1.138 1.29-1.497.553-.362 1.2-.543 1.938-.543a3.67 3.67 0 0 1 1.555.32c.462.212.84.51 1.135.894.295.384.478.831.549 1.343h-1.257c-.096-.373-.31-.704-.64-.991-.326-.291-.767-.437-1.32-.437-.49 0-.92.128-1.29.383-.365.253-.651.61-.857 1.071-.203.458-.304.996-.304 1.614 0 .632.1 1.183.298 1.651.203.47.487.833.853 1.092.369.26.802.39 1.3.39.326 0 .623-.058.889-.171.266-.114.492-.277.676-.49a1.88 1.88 0 0 0 .395-.767h1.257a2.913 2.913 0 0 1-.528 1.305 2.947 2.947 0 0 1-1.102.916c-.455.224-.984.335-1.588.335Zm8.614-8.353v1.066h-4.24v-1.066h4.24Zm-3.005-1.96h1.257v7.798c0 .355.052.622.155.8a.8.8 0 0 0 .405.35c.167.058.342.086.527.086.139 0 .252-.007.341-.021l.213-.043.256 1.13a2.575 2.575 0 0 1-.357.095 2.63 2.63 0 0 1-.58.053 2.53 2.53 0 0 1-1.045-.229 2.074 2.074 0 0 1-.841-.697c-.22-.313-.33-.707-.33-1.183v-8.139Zm8.238 10.313c-.788 0-1.468-.175-2.04-.523a3.503 3.503 0 0 1-1.316-1.47c-.305-.632-.458-1.367-.458-2.205 0-.838.153-1.577.458-2.216.31-.643.739-1.143 1.29-1.502.553-.362 1.2-.543 1.938-.543.426 0 .847.07 1.263.213.415.142.793.373 1.134.692.341.316.613.735.815 1.257.203.522.304 1.165.304 1.929v.532h-6.307V51.25h5.029c0-.462-.093-.874-.278-1.236a2.088 2.088 0 0 0-.777-.858c-.334-.21-.728-.314-1.183-.314-.5 0-.934.124-1.3.373-.362.245-.64.564-.836.959a2.817 2.817 0 0 0-.293 1.267v.725c0 .618.107 1.142.32 1.571.217.426.517.751.9.975.384.22.83.33 1.337.33.33 0 .629-.046.895-.138.27-.096.502-.238.698-.426.195-.192.346-.43.453-.714l1.214.34a2.692 2.692 0 0 1-.644 1.087 3.14 3.14 0 0 1-1.12.725 4.15 4.15 0 0 1-1.496.255Zm8.858-8.353v1.066h-4.24v-1.066h4.24Zm-3.004-1.96h1.257v7.798c0 .355.052.622.155.8a.8.8 0 0 0 .405.35c.166.058.342.086.527.086.138 0 .252-.007.34-.021l.214-.043.256 1.13a2.575 2.575 0 0 1-.357.095 2.63 2.63 0 0 1-.58.053 2.53 2.53 0 0 1-1.045-.229 2.074 2.074 0 0 1-.842-.697c-.22-.313-.33-.707-.33-1.183v-8.139Zm10.052 6.797v-4.837h1.257V56h-1.257v-1.385h-.086a2.68 2.68 0 0 1-.894 1.06c-.405.288-.917.431-1.535.431-.51 0-.965-.111-1.363-.335-.398-.227-.71-.568-.938-1.023-.227-.458-.34-1.035-.34-1.731v-5.199h1.257v5.114c0 .596.166 1.072.5 1.427.338.355.767.533 1.29.533.312 0 .63-.08.953-.24.326-.16.6-.404.82-.735.224-.33.336-.75.336-1.262ZM104.457 56v-8.182h1.215v1.236h.085c.149-.405.419-.733.81-.986.39-.252.831-.378 1.321-.378.092 0 .207.002.346.006a4.6 4.6 0 0 1 .314.016v1.278a3.618 3.618 0 0 0-.293-.048 2.886 2.886 0 0 0-.474-.037c-.398 0-.753.083-1.065.25a1.834 1.834 0 0 0-1.002 1.667V56h-1.257Zm12.208.192c-.519 0-.989-.098-1.412-.293a2.43 2.43 0 0 1-1.007-.858c-.248-.376-.373-.83-.373-1.363 0-.47.093-.85.277-1.14.185-.295.432-.526.741-.693.309-.167.65-.291 1.023-.373.376-.085.754-.152 1.134-.202.497-.064.9-.112 1.209-.144.313-.035.54-.094.682-.176.146-.081.219-.223.219-.426v-.043c0-.525-.144-.933-.432-1.225-.284-.29-.715-.436-1.294-.436-.6 0-1.071.131-1.412.394-.341.263-.58.543-.719.841l-1.193-.426c.213-.497.497-.884.852-1.161.359-.28.749-.476 1.172-.586.426-.113.845-.17 1.257-.17.263 0 .565.032.906.095.344.06.676.187.996.379.323.191.591.48.804.868.213.387.32.905.32 1.555V56h-1.257v-1.108h-.064a2.25 2.25 0 0 1-.426.57 2.466 2.466 0 0 1-.794.517c-.33.142-.733.213-1.209.213Zm.191-1.13c.498 0 .917-.097 1.258-.292a1.995 1.995 0 0 0 1.044-1.732v-1.15c-.054.064-.171.122-.352.176-.178.05-.384.094-.618.133a28.329 28.329 0 0 1-1.204.16 4.809 4.809 0 0 0-.916.207c-.28.093-.508.233-.682.421-.17.185-.255.437-.255.757 0 .436.161.767.484.99.327.22.741.33 1.241.33Zm8.943 1.108c-.682 0-1.284-.172-1.806-.516-.522-.348-.93-.838-1.225-1.47-.295-.636-.442-1.387-.442-2.254 0-.859.147-1.605.442-2.237.295-.632.705-1.12 1.23-1.465.526-.344 1.133-.516 1.822-.516.533 0 .953.088 1.262.266.313.174.551.373.714.597.167.22.297.4.389.543h.107V45.09h1.257V56h-1.215v-1.257h-.149c-.092.149-.224.337-.394.564a2.347 2.347 0 0 1-.73.602c-.316.175-.737.261-1.262.261Zm.17-1.129c.504 0 .931-.131 1.279-.394.348-.266.612-.634.793-1.103.181-.472.272-1.017.272-1.635 0-.61-.089-1.145-.266-1.603-.178-.462-.441-.82-.789-1.076-.348-.26-.778-.39-1.289-.39-.533 0-.976.138-1.332.411-.351.27-.616.638-.793 1.103-.174.461-.261.98-.261 1.555 0 .583.089 1.112.266 1.587a2.6 2.6 0 0 0 .799 1.13c.355.277.796.415 1.321.415Zm6.057.959v-8.182h1.257V56h-1.257Zm.639-9.545a.893.893 0 0 1-.634-.25.804.804 0 0 1-.261-.603c0-.234.087-.435.261-.602a.893.893 0 0 1 .634-.25c.245 0 .454.084.628.25a.796.796 0 0 1 .267.602.796.796 0 0 1-.267.602.874.874 0 0 1-.628.25Zm2.92 12.613v-11.25h1.215v1.3h.149c.092-.142.22-.323.383-.543a2.25 2.25 0 0 1 .714-.597c.313-.178.735-.266 1.268-.266.689 0 1.296.172 1.822.516.525.345.935.833 1.23 1.465.295.632.442 1.378.442 2.237 0 .867-.147 1.618-.442 2.254-.295.632-.703 1.122-1.225 1.47-.522.344-1.124.516-1.806.516-.525 0-.946-.087-1.262-.26-.316-.178-.56-.379-.73-.602a7.757 7.757 0 0 1-.394-.565h-.107v4.325h-1.257Zm1.236-7.159c0 .618.09 1.163.272 1.635.181.47.445.837.793 1.103.348.263.774.394 1.279.394.525 0 .964-.138 1.315-.415.355-.28.622-.657.799-1.13a4.433 4.433 0 0 0 .272-1.587c0-.575-.089-1.094-.266-1.555a2.405 2.405 0 0 0-.794-1.103c-.352-.273-.794-.41-1.326-.41-.512 0-.941.13-1.289.389-.348.255-.611.614-.789 1.076-.177.458-.266.992-.266 1.603ZM144.726 56v-8.182h1.257V56h-1.257Zm.639-9.545a.895.895 0 0 1-.634-.25.804.804 0 0 1-.261-.603c0-.234.087-.435.261-.602a.895.895 0 0 1 .634-.25c.245 0 .455.084.629.25a.798.798 0 0 1 .266.602.799.799 0 0 1-.266.602.876.876 0 0 1-.629.25Zm8.716 3.196-1.129.32a2.087 2.087 0 0 0-.315-.55 1.52 1.52 0 0 0-.554-.447c-.234-.117-.534-.176-.9-.176-.501 0-.918.116-1.252.346-.33.228-.495.517-.495.869 0 .312.114.56.341.74.227.181.582.332 1.065.453l1.215.298c.731.178 1.276.45 1.635.815.359.362.538.83.538 1.401 0 .469-.135.888-.405 1.257-.266.37-.639.66-1.119.874-.479.213-1.036.32-1.672.32-.835 0-1.525-.182-2.072-.544-.547-.362-.893-.891-1.039-1.587l1.193-.298c.114.44.329.77.645.99.319.22.737.33 1.252.33.586 0 1.051-.124 1.395-.372.348-.252.522-.554.522-.906a.95.95 0 0 0-.298-.714c-.199-.195-.504-.34-.916-.437l-1.364-.32c-.749-.177-1.3-.452-1.651-.825-.348-.376-.522-.847-.522-1.411 0-.462.129-.87.389-1.225a2.638 2.638 0 0 1 1.07-.837c.455-.202.97-.303 1.545-.303.81 0 1.445.177 1.907.532.465.355.795.824.991 1.407Zm5.365 6.52c-.767 0-1.427-.182-1.981-.544a3.54 3.54 0 0 1-1.279-1.497c-.298-.635-.447-1.361-.447-2.178 0-.831.152-1.565.458-2.2.309-.64.738-1.138 1.289-1.497.554-.362 1.2-.543 1.939-.543.575 0 1.094.106 1.555.32.462.212.84.51 1.135.894.295.384.477.831.548 1.343h-1.257c-.096-.373-.309-.704-.639-.991-.327-.291-.767-.437-1.321-.437-.49 0-.92.128-1.289.383-.366.253-.652.61-.858 1.071-.202.458-.303.996-.303 1.614 0 .632.099 1.183.298 1.651.203.47.487.833.852 1.092.37.26.803.39 1.3.39.327 0 .623-.058.89-.171a1.83 1.83 0 0 0 .676-.49c.185-.213.316-.47.394-.767h1.257a2.906 2.906 0 0 1-1.63 2.22c-.454.225-.983.336-1.587.336Zm5.055-.171v-8.182h1.257V56h-1.257Zm.639-9.545a.895.895 0 0 1-.634-.25.804.804 0 0 1-.261-.603c0-.234.087-.435.261-.602a.895.895 0 0 1 .634-.25c.245 0 .455.084.629.25a.798.798 0 0 1 .266.602.799.799 0 0 1-.266.602.876.876 0 0 1-.629.25Zm4.178 4.623V56h-1.257v-8.182h1.214v1.279h.107a2.34 2.34 0 0 1 .873-1.002c.391-.255.895-.383 1.513-.383.554 0 1.039.113 1.454.34.416.224.739.565.97 1.023.231.455.346 1.03.346 1.726V56h-1.257v-5.114c0-.642-.167-1.143-.501-1.502-.334-.362-.792-.543-1.374-.543-.401 0-.76.087-1.076.26a1.871 1.871 0 0 0-.741.763c-.181.333-.271.738-.271 1.214Zm10.82 8.16c-.608 0-1.13-.078-1.566-.234a3.32 3.32 0 0 1-1.092-.607 3.304 3.304 0 0 1-.687-.799l1.001-.703c.114.149.257.32.431.511.174.196.412.364.714.506.306.146.705.219 1.199.219.66 0 1.205-.16 1.635-.48.43-.32.645-.82.645-1.502v-1.662h-.107c-.092.15-.224.334-.394.554-.167.217-.409.41-.725.58-.312.168-.735.251-1.267.251a3.411 3.411 0 0 1-1.779-.469c-.523-.312-.936-.767-1.242-1.363-.301-.597-.452-1.321-.452-2.173 0-.839.147-1.568.442-2.19.294-.625.705-1.108 1.23-1.449.526-.344 1.133-.516 1.822-.516.533 0 .955.088 1.268.266.316.174.557.373.724.597.171.22.302.4.394.543h.128v-1.3h1.215v8.416c0 .703-.16 1.275-.48 1.716a2.73 2.73 0 0 1-1.278.974 4.826 4.826 0 0 1-1.779.315Zm-.043-4.495c.504 0 .93-.116 1.278-.346.349-.231.613-.563.794-.996.181-.434.272-.952.272-1.556 0-.59-.089-1.11-.267-1.56-.177-.451-.44-.805-.788-1.06-.348-.256-.778-.384-1.289-.384-.533 0-.976.135-1.332.405-.351.27-.616.632-.793 1.086a4.2 4.2 0 0 0-.261 1.513c0 .568.088 1.07.266 1.508.181.433.447.774.799 1.022.355.245.796.368 1.321.368Zm13.53 1.427c-.788 0-1.468-.174-2.04-.522a3.506 3.506 0 0 1-1.316-1.47c-.305-.632-.458-1.367-.458-2.205 0-.838.153-1.577.458-2.216.309-.643.739-1.143 1.289-1.502.554-.362 1.2-.543 1.939-.543.426 0 .847.07 1.262.213.416.142.794.373 1.135.692.341.316.613.735.815 1.257.202.522.304 1.165.304 1.929v.532h-6.307V51.25h5.028c0-.462-.092-.874-.277-1.236a2.087 2.087 0 0 0-.777-.858c-.334-.21-.728-.314-1.183-.314-.501 0-.934.124-1.3.373a2.45 2.45 0 0 0-.836.959 2.82 2.82 0 0 0-.293 1.267v.725c0 .618.107 1.142.32 1.571.216.426.516.751.9.975.383.22.829.33 1.337.33.33 0 .628-.046.895-.138.27-.096.502-.238.698-.426.195-.192.346-.43.452-.714l1.215.34a2.694 2.694 0 0 1-.645 1.087c-.302.31-.674.55-1.118.725-.444.17-.943.255-1.497.255Zm6.557-11.08V56h-1.257V45.09h1.257ZM202.485 56v-8.182h1.257V56h-1.257Zm.639-9.545a.893.893 0 0 1-.634-.25.804.804 0 0 1-.261-.603c0-.234.087-.435.261-.602a.893.893 0 0 1 .634-.25c.245 0 .454.084.628.25a.796.796 0 0 1 .267.602.796.796 0 0 1-.267.602.874.874 0 0 1-.628.25Zm6.478 1.363v1.066h-4.24v-1.066h4.24Zm-3.004-1.96h1.257v7.798c0 .355.052.622.155.8a.796.796 0 0 0 .405.35c.166.058.342.086.527.086.138 0 .252-.007.341-.021l.213-.043.256 1.13a2.634 2.634 0 0 1-.357.095 2.637 2.637 0 0 1-.581.053 2.53 2.53 0 0 1-1.044-.229 2.08 2.08 0 0 1-.842-.697c-.22-.313-.33-.707-.33-1.183v-8.139Zm6.77 8.65-.085.576c-.06.405-.153.838-.277 1.3-.121.461-.247.896-.378 1.305-.131.408-.24.733-.325.974h-.959l.181-.9c.075-.373.149-.79.224-1.252.078-.458.142-.927.192-1.406l.064-.596h1.363Zm12.344-4.857-1.13.32a2.083 2.083 0 0 0-.314-.55 1.52 1.52 0 0 0-.554-.447c-.234-.117-.534-.176-.9-.176-.501 0-.918.116-1.252.346-.33.228-.495.517-.495.869 0 .312.113.56.341.74.227.181.582.332 1.065.453l1.215.298c.731.178 1.276.45 1.635.815.358.362.538.83.538 1.401 0 .469-.135.888-.405 1.257-.266.37-.639.66-1.119.874-.479.213-1.037.32-1.672.32-.835 0-1.525-.182-2.072-.544-.547-.362-.893-.891-1.039-1.587l1.193-.298c.114.44.329.77.645.99.319.22.737.33 1.251.33.586 0 1.052-.124 1.396-.372.348-.252.522-.554.522-.906a.95.95 0 0 0-.298-.714c-.199-.195-.504-.34-.916-.437l-1.364-.32c-.749-.177-1.3-.452-1.651-.825-.348-.376-.522-.847-.522-1.411 0-.462.129-.87.389-1.225a2.638 2.638 0 0 1 1.07-.837c.455-.202.97-.303 1.545-.303.81 0 1.445.177 1.907.532.465.355.795.824.991 1.407Zm5.472 6.52c-.789 0-1.469-.175-2.041-.523a3.504 3.504 0 0 1-1.315-1.47c-.306-.632-.458-1.367-.458-2.205 0-.838.152-1.577.458-2.216.309-.643.738-1.143 1.289-1.502.554-.362 1.2-.543 1.939-.543.426 0 .847.07 1.262.213.416.142.794.373 1.135.692.341.316.612.735.815 1.257.202.522.303 1.165.303 1.929v.532h-6.307V51.25h5.029c0-.462-.092-.874-.277-1.236a2.083 2.083 0 0 0-.778-.858c-.334-.21-.728-.314-1.182-.314-.501 0-.934.124-1.3.373a2.45 2.45 0 0 0-.836.959 2.808 2.808 0 0 0-.293 1.267v.725c0 .618.106 1.142.319 1.571.217.426.517.751.901.975.383.22.829.33 1.337.33.33 0 .628-.046.894-.138.27-.096.503-.238.698-.426.196-.192.346-.43.453-.714l1.214.34a2.68 2.68 0 0 1-.644 1.087c-.302.31-.675.55-1.119.725a4.15 4.15 0 0 1-1.496.255Zm8.389 0c-.682 0-1.284-.173-1.806-.517-.522-.348-.93-.838-1.225-1.47-.295-.636-.442-1.387-.442-2.254 0-.859.147-1.605.442-2.237.295-.632.705-1.12 1.231-1.465.525-.344 1.132-.516 1.821-.516.533 0 .954.088 1.263.266.312.174.55.373.714.597.166.22.296.4.388.543h.107V45.09h1.257V56h-1.214v-1.257h-.15c-.092.149-.223.337-.394.564-.17.224-.413.425-.73.602-.316.175-.736.261-1.262.261Zm.171-1.13c.504 0 .93-.131 1.278-.394.348-.266.612-.634.794-1.103.181-.472.271-1.017.271-1.635 0-.61-.089-1.145-.266-1.603-.178-.462-.44-.82-.788-1.076-.348-.26-.778-.39-1.289-.39-.533 0-.977.138-1.332.411-.352.27-.616.638-.794 1.103-.174.461-.261.98-.261 1.555 0 .583.089 1.112.266 1.587.182.473.448.85.799 1.13.356.277.796.415 1.322.415Zm13.364 1.13c-.682 0-1.284-.173-1.806-.517-.522-.348-.93-.838-1.225-1.47-.294-.636-.442-1.387-.442-2.254 0-.859.148-1.605.442-2.237.295-.632.705-1.12 1.231-1.465.525-.344 1.133-.516 1.822-.516.532 0 .953.088 1.262.266.312.174.55.373.714.597.167.22.296.4.389.543h.106V45.09h1.257V56h-1.214v-1.257h-.149c-.093.149-.224.337-.395.564-.17.224-.413.425-.729.602-.316.175-.737.261-1.263.261Zm.171-1.13c.504 0 .93-.131 1.278-.394.348-.266.613-.634.794-1.103.181-.472.271-1.017.271-1.635 0-.61-.088-1.145-.266-1.603-.177-.462-.44-.82-.788-1.076-.348-.26-.778-.39-1.289-.39-.533 0-.977.138-1.332.411-.352.27-.616.638-.794 1.103-.174.461-.261.98-.261 1.555a4.5 4.5 0 0 0 .267 1.587c.181.473.447.85.799 1.13.355.277.795.415 1.321.415Zm9.38 1.13c-.739 0-1.387-.176-1.944-.528-.554-.352-.987-.843-1.3-1.475-.309-.633-.463-1.371-.463-2.216 0-.853.154-1.596.463-2.232.313-.636.746-1.13 1.3-1.481.557-.352 1.205-.527 1.944-.527.739 0 1.385.175 1.939.527.557.352.991.845 1.3 1.48.312.636.468 1.38.468 2.233 0 .845-.156 1.584-.468 2.216a3.538 3.538 0 0 1-1.3 1.475c-.554.352-1.2.527-1.939.527Zm0-1.13c.561 0 1.023-.144 1.385-.431.362-.288.63-.666.804-1.135.174-.469.261-.976.261-1.523 0-.547-.087-1.057-.261-1.53a2.578 2.578 0 0 0-.804-1.144c-.362-.291-.824-.437-1.385-.437s-1.023.145-1.385.437c-.362.29-.63.673-.804 1.145a4.388 4.388 0 0 0-.261 1.529c0 .547.087 1.054.261 1.523.174.469.442.847.804 1.135.362.287.824.431 1.385.431ZM28.581 79.171c-.788 0-1.468-.175-2.04-.523a3.504 3.504 0 0 1-1.316-1.47c-.305-.632-.458-1.367-.458-2.205 0-.838.153-1.577.458-2.216.31-.643.739-1.143 1.29-1.502.553-.362 1.2-.543 1.938-.543.426 0 .847.07 1.263.213.415.142.793.373 1.134.692.341.316.613.735.815 1.257.203.522.304 1.165.304 1.929v.532h-6.307V74.25h5.028c0-.462-.092-.874-.277-1.236a2.088 2.088 0 0 0-.777-.858c-.334-.21-.728-.314-1.183-.314-.5 0-.934.124-1.3.373a2.452 2.452 0 0 0-.836.959 2.817 2.817 0 0 0-.293 1.267v.725c0 .618.107 1.141.32 1.571.216.426.516.751.9.975.384.22.83.33 1.337.33.33 0 .628-.046.895-.138.27-.096.502-.238.698-.426.195-.192.346-.43.452-.714l1.215.34a2.693 2.693 0 0 1-.645 1.087c-.302.31-.674.55-1.118.725a4.15 4.15 0 0 1-1.497.255Zm5.3-.171v-8.182h1.257V79h-1.257Zm.64-9.546a.894.894 0 0 1-.635-.25.804.804 0 0 1-.26-.602c0-.234.086-.435.26-.602a.894.894 0 0 1 .634-.25c.245 0 .455.084.629.25a.797.797 0 0 1 .266.602.797.797 0 0 1-.266.602.875.875 0 0 1-.629.25Zm8.076 6.2v-4.836h1.257V79h-1.257v-1.385h-.085c-.192.416-.49.769-.895 1.06-.405.288-.916.431-1.534.431-.512 0-.966-.111-1.364-.335-.398-.227-.71-.568-.938-1.023-.227-.458-.34-1.035-.34-1.731v-5.199h1.257v5.114c0 .596.167 1.072.5 1.427.338.356.767.533 1.29.533.312 0 .63-.08.953-.24.327-.16.6-.404.82-.735.224-.33.336-.75.336-1.262Zm9.355-3.003-1.13.32a2.098 2.098 0 0 0-.314-.55 1.525 1.525 0 0 0-.554-.447c-.234-.117-.534-.176-.9-.176-.5 0-.918.116-1.252.346-.33.228-.495.517-.495.869 0 .312.114.56.34.74.228.181.583.332 1.066.453l1.215.298c.731.178 1.276.45 1.635.815.359.362.538.83.538 1.401 0 .469-.135.888-.405 1.257-.266.37-.639.66-1.118.874-.48.213-1.037.32-1.673.32-.834 0-1.525-.182-2.072-.544-.547-.362-.893-.891-1.039-1.587l1.193-.299c.114.44.329.771.645.991.32.22.737.33 1.252.33.586 0 1.05-.124 1.395-.372.348-.252.522-.554.522-.906 0-.284-.1-.522-.298-.714-.199-.195-.504-.34-.916-.436l-1.364-.32c-.75-.178-1.3-.453-1.651-.826-.348-.376-.522-.847-.522-1.411 0-.462.13-.87.389-1.225.263-.356.62-.634 1.07-.837.455-.202.97-.303 1.545-.303.81 0 1.445.177 1.907.532.465.355.796.824.99 1.407ZM53.993 79v-8.182h1.215v1.279h.106c.17-.437.446-.776.826-1.018.38-.245.836-.367 1.369-.367.54 0 .989.122 1.348.367.362.242.644.58.847 1.018h.085c.21-.423.524-.759.943-1.007.419-.252.921-.378 1.507-.378.732 0 1.33.229 1.795.687.465.454.698 1.163.698 2.125V79h-1.257v-5.476c0-.603-.165-1.035-.495-1.294-.33-.26-.72-.39-1.167-.39-.575 0-1.021.175-1.337.523-.316.344-.474.781-.474 1.31V79h-1.279v-5.604c0-.465-.15-.84-.452-1.124-.302-.287-.691-.431-1.167-.431-.327 0-.632.087-.916.26-.28.175-.508.416-.682.725a2.14 2.14 0 0 0-.256 1.06V79h-1.257Zm16.361.17c-.738 0-1.386-.175-1.944-.527a3.583 3.583 0 0 1-1.3-1.475c-.309-.633-.463-1.371-.463-2.216 0-.853.154-1.596.463-2.232.313-.636.746-1.13 1.3-1.481.558-.352 1.206-.527 1.944-.527.739 0 1.385.175 1.94.527.557.352.99.845 1.299 1.48.313.637.469 1.38.469 2.233 0 .845-.156 1.584-.469 2.216a3.534 3.534 0 0 1-1.3 1.475c-.554.352-1.2.528-1.939.528Zm0-1.129c.561 0 1.023-.144 1.385-.431.362-.288.63-.666.805-1.135.174-.469.26-.976.26-1.523 0-.547-.086-1.057-.26-1.53a2.577 2.577 0 0 0-.805-1.144c-.362-.291-.824-.437-1.385-.437-.56 0-1.022.146-1.385.437-.362.29-.63.673-.804 1.145a4.388 4.388 0 0 0-.261 1.529c0 .547.087 1.054.261 1.523.174.469.442.847.804 1.135.363.287.824.431 1.385.431Zm8.716 1.13c-.682 0-1.284-.173-1.806-.517-.522-.348-.93-.838-1.225-1.47-.294-.636-.442-1.387-.442-2.254 0-.859.148-1.605.442-2.237.295-.632.705-1.12 1.23-1.465.526-.344 1.133-.516 1.822-.516.533 0 .954.088 1.263.266.312.174.55.373.714.597a9.6 9.6 0 0 1 .389.543h.106V68.09h1.257V79h-1.214v-1.257h-.15c-.092.149-.223.337-.394.565-.17.223-.413.424-.73.601-.316.174-.736.261-1.262.261Zm.17-1.13c.505 0 .931-.131 1.279-.394.348-.266.613-.634.794-1.103.18-.472.271-1.017.271-1.635 0-.61-.088-1.145-.266-1.603-.178-.462-.44-.82-.788-1.076-.348-.26-.778-.39-1.29-.39-.532 0-.976.138-1.331.411-.352.27-.616.637-.794 1.103-.174.461-.26.98-.26 1.555 0 .582.088 1.112.266 1.587.18.473.447.85.799 1.13.355.277.795.415 1.32.415Zm13.834-7.223v1.066h-4.24v-1.066h4.24Zm-3.004-1.96h1.257v7.798c0 .355.051.622.154.8a.8.8 0 0 0 .405.35c.167.058.343.086.528.086.138 0 .252-.007.34-.021l.213-.043.256 1.13a2.571 2.571 0 0 1-.357.095 2.628 2.628 0 0 1-.58.053 2.53 2.53 0 0 1-1.044-.228 2.074 2.074 0 0 1-.842-.698c-.22-.313-.33-.707-.33-1.183v-8.139Zm8.238 10.313c-.789 0-1.469-.175-2.04-.523a3.504 3.504 0 0 1-1.316-1.47c-.306-.632-.458-1.367-.458-2.205 0-.838.152-1.577.458-2.216.309-.643.738-1.143 1.289-1.502.554-.362 1.2-.543 1.939-.543.426 0 .847.07 1.262.213a3.13 3.13 0 0 1 1.135.692c.341.316.612.735.815 1.257.202.522.303 1.165.303 1.929v.532h-6.306V74.25h5.028c0-.462-.092-.874-.277-1.236a2.088 2.088 0 0 0-.778-.858c-.334-.21-.728-.314-1.182-.314-.501 0-.934.124-1.3.373a2.452 2.452 0 0 0-.836.959 2.817 2.817 0 0 0-.293 1.267v.725c0 .618.106 1.141.32 1.571.216.426.516.751.9.975.383.22.829.33 1.337.33.33 0 .628-.046.894-.138.27-.096.503-.238.698-.426.196-.192.346-.43.453-.714l1.214.34a2.68 2.68 0 0 1-.644 1.087c-.302.31-.675.55-1.119.725a4.15 4.15 0 0 1-1.496.255Zm5.3-.171v-8.182h1.214v1.279h.107c.17-.437.445-.776.825-1.018.38-.245.837-.367 1.369-.367.54 0 .989.122 1.348.367.362.242.644.58.847 1.018h.085c.21-.423.524-.759.943-1.007.419-.252.921-.378 1.507-.378.732 0 1.33.229 1.795.687.466.454.698 1.163.698 2.125V79h-1.257v-5.476c0-.603-.165-1.035-.495-1.294a1.835 1.835 0 0 0-1.167-.39c-.575 0-1.021.175-1.337.523-.316.344-.474.781-.474 1.31V79h-1.278v-5.604c0-.465-.151-.84-.453-1.124-.302-.287-.691-.431-1.167-.431-.326 0-.632.087-.916.26-.28.175-.508.416-.682.725-.17.306-.255.66-.255 1.06V79h-1.257Zm13.037 3.068v-11.25h1.214v1.3h.149c.093-.142.221-.323.384-.543a2.25 2.25 0 0 1 .714-.597c.312-.178.735-.266 1.267-.266.689 0 1.297.172 1.822.516.526.345.936.833 1.231 1.465.294.632.442 1.378.442 2.237 0 .867-.148 1.618-.442 2.254-.295.632-.704 1.122-1.226 1.47-.522.344-1.123.517-1.805.517-.526 0-.947-.088-1.263-.262a2.331 2.331 0 0 1-.729-.602 8.156 8.156 0 0 1-.395-.564h-.106v4.325h-1.257Zm1.236-7.159c0 .618.09 1.163.271 1.635.181.47.446.837.794 1.103.348.263.774.394 1.278.394.526 0 .964-.138 1.316-.415.355-.28.621-.657.799-1.13a4.433 4.433 0 0 0 .272-1.587c0-.575-.089-1.094-.267-1.555-.174-.466-.438-.833-.793-1.103-.352-.273-.794-.41-1.327-.41-.511 0-.941.13-1.289.389-.348.255-.611.614-.788 1.076-.178.458-.266.992-.266 1.603Zm11.228 4.261c-.738 0-1.387-.175-1.944-.527-.554-.352-.987-.843-1.3-1.475-.309-.633-.463-1.371-.463-2.216 0-.853.154-1.596.463-2.232.313-.636.746-1.13 1.3-1.481.557-.352 1.206-.527 1.944-.527.739 0 1.385.175 1.939.527.558.352.991.845 1.3 1.48.312.637.469 1.38.469 2.233 0 .845-.157 1.584-.469 2.216a3.531 3.531 0 0 1-1.3 1.475c-.554.352-1.2.528-1.939.528Zm0-1.129c.561 0 1.023-.144 1.385-.431.362-.288.63-.666.804-1.135.174-.469.261-.976.261-1.523 0-.547-.087-1.057-.261-1.53a2.578 2.578 0 0 0-.804-1.144c-.362-.291-.824-.437-1.385-.437s-1.023.146-1.385.437c-.362.29-.63.673-.804 1.145a4.388 4.388 0 0 0-.261 1.529c0 .547.087 1.054.261 1.523.174.469.442.847.804 1.135.362.287.824.431 1.385.431Zm5.627.959v-8.182h1.214v1.236h.085c.149-.405.419-.733.81-.986a2.384 2.384 0 0 1 1.321-.378c.092 0 .208.002.346.006.139.003.243.008.314.016v1.278a3.618 3.618 0 0 0-.293-.048 2.886 2.886 0 0 0-.474-.037c-.397 0-.752.083-1.065.25a1.833 1.833 0 0 0-1.001 1.667V79h-1.257Zm9.799 0v-8.182h1.257V79h-1.257Zm.64-9.546a.893.893 0 0 1-.634-.25.804.804 0 0 1-.261-.602c0-.234.087-.435.261-.602a.893.893 0 0 1 .634-.25c.245 0 .454.084.628.25a.795.795 0 0 1 .266.602.795.795 0 0 1-.266.602.874.874 0 0 1-.628.25Zm4.177 4.624V79h-1.257v-8.182h1.214v1.279h.107c.192-.416.483-.75.874-1.002.39-.255.894-.383 1.512-.383.554 0 1.039.113 1.454.34.416.224.739.565.97 1.023.231.455.346 1.03.346 1.726V79h-1.257v-5.114c0-.642-.167-1.143-.501-1.502-.333-.362-.792-.543-1.374-.543-.401 0-.76.087-1.076.26a1.869 1.869 0 0 0-.74.763c-.181.333-.272.738-.272 1.214Zm10.841 5.093c-.767 0-1.427-.182-1.981-.544a3.546 3.546 0 0 1-1.279-1.497c-.298-.635-.447-1.361-.447-2.178 0-.831.152-1.565.458-2.2.309-.64.739-1.138 1.289-1.497.554-.362 1.2-.543 1.939-.543.575 0 1.094.106 1.555.32.462.212.84.51 1.135.894.295.384.477.831.549 1.343h-1.258c-.095-.373-.309-.704-.639-.991-.326-.291-.767-.437-1.321-.437-.49 0-.92.128-1.289.383-.366.253-.652.61-.857 1.071-.203.458-.304.996-.304 1.614 0 .632.099 1.183.298 1.651.203.47.487.833.852 1.092.37.26.803.39 1.3.39.327 0 .623-.058.89-.171a1.83 1.83 0 0 0 .676-.49c.185-.213.316-.47.394-.767h1.258a2.92 2.92 0 0 1-.528 1.305 2.946 2.946 0 0 1-1.102.916c-.455.224-.984.336-1.588.336Zm5.055-.171v-8.182h1.257V79h-1.257Zm.639-9.546a.89.89 0 0 1-.633-.25.804.804 0 0 1-.261-.602c0-.234.087-.435.261-.602a.89.89 0 0 1 .633-.25c.245 0 .455.084.629.25a.795.795 0 0 1 .266.602.795.795 0 0 1-.266.602.876.876 0 0 1-.629.25Zm6.01 9.717c-.682 0-1.283-.173-1.805-.517-.522-.348-.931-.838-1.226-1.47-.294-.636-.442-1.387-.442-2.254 0-.859.148-1.605.442-2.237.295-.632.705-1.12 1.231-1.465.525-.344 1.133-.516 1.822-.516.532 0 .953.088 1.262.266.313.174.55.373.714.597.167.22.296.4.389.543h.106V68.09h1.257V79h-1.214v-1.257h-.149c-.093.149-.224.337-.395.565-.17.223-.413.424-.729.601-.316.174-.737.261-1.263.261Zm.171-1.13c.504 0 .93-.131 1.278-.394.348-.266.613-.634.794-1.103.181-.472.271-1.017.271-1.635 0-.61-.088-1.145-.266-1.603-.177-.462-.44-.82-.788-1.076-.348-.26-.778-.39-1.289-.39-.533 0-.977.138-1.332.411-.352.27-.616.637-.794 1.103-.174.461-.261.98-.261 1.555a4.5 4.5 0 0 0 .267 1.587c.181.473.447.85.799 1.13.355.277.795.415 1.321.415Zm6.056.959v-8.182h1.257V79h-1.257Zm.639-9.546a.89.89 0 0 1-.633-.25.804.804 0 0 1-.261-.602c0-.234.087-.435.261-.602a.89.89 0 0 1 .633-.25c.245 0 .455.084.629.25a.795.795 0 0 1 .266.602.795.795 0 0 1-.266.602.876.876 0 0 1-.629.25Zm6.01 9.717c-.682 0-1.283-.173-1.805-.517-.523-.348-.931-.838-1.226-1.47-.294-.636-.442-1.387-.442-2.254 0-.859.148-1.605.442-2.237.295-.632.705-1.12 1.231-1.465.525-.344 1.133-.516 1.822-.516.532 0 .953.088 1.262.266.312.174.55.373.714.597.167.22.296.4.389.543h.106V68.09h1.257V79h-1.214v-1.257h-.149c-.093.149-.224.337-.395.565-.17.223-.413.424-.729.601-.316.174-.737.261-1.263.261Zm.171-1.13c.504 0 .93-.131 1.278-.394.348-.266.613-.634.794-1.103.181-.472.271-1.017.271-1.635 0-.61-.088-1.145-.266-1.603-.177-.462-.44-.82-.788-1.076-.348-.26-.778-.39-1.289-.39-.533 0-.977.138-1.332.411-.352.27-.616.637-.794 1.103-.174.461-.261.98-.261 1.555a4.5 4.5 0 0 0 .267 1.587c.181.473.447.85.799 1.13.355.277.795.415 1.321.415Zm11.212-2.386v-4.837h1.258V79h-1.258v-1.385h-.085c-.192.416-.49.769-.895 1.06-.405.288-.916.431-1.534.431a2.73 2.73 0 0 1-1.363-.335c-.398-.227-.711-.568-.938-1.023-.227-.458-.341-1.035-.341-1.731v-5.199h1.257v5.114c0 .596.167 1.072.501 1.427.337.356.767.533 1.289.533.313 0 .63-.08.954-.24.326-.16.6-.404.82-.735.224-.33.335-.75.335-1.262Zm4.817-1.577V79h-1.257v-8.182h1.214v1.279h.107c.192-.416.483-.75.874-1.002.39-.255.894-.383 1.512-.383.554 0 1.039.113 1.455.34.415.224.738.565.969 1.023.231.455.346 1.03.346 1.726V79h-1.257v-5.114c0-.642-.167-1.143-.501-1.502-.333-.362-.791-.543-1.374-.543-.401 0-.76.087-1.076.26a1.869 1.869 0 0 0-.74.763c-.181.333-.272.738-.272 1.214Zm11.076-3.26v1.066h-4.24v-1.066h4.24Zm-3.005-1.96h1.257v7.798c0 .355.052.622.155.8a.8.8 0 0 0 .405.35c.167.058.342.086.527.086.139 0 .252-.007.341-.021l.213-.043.256 1.13a2.553 2.553 0 0 1-.357.095 2.63 2.63 0 0 1-.581.053 2.53 2.53 0 0 1-1.044-.228 2.07 2.07 0 0 1-.841-.698c-.221-.313-.331-.707-.331-1.183v-8.139Zm14.271 6.797v-4.837h1.257V79h-1.257v-1.385h-.086c-.191.416-.49.769-.894 1.06-.405.288-.917.431-1.535.431-.511 0-.965-.111-1.363-.335-.398-.227-.71-.568-.938-1.023-.227-.458-.341-1.035-.341-1.731v-5.199h1.257v5.114c0 .596.167 1.072.501 1.427.338.356.767.533 1.289.533.313 0 .631-.08.954-.24.326-.16.6-.404.82-.735.224-.33.336-.75.336-1.262Zm7.117-4.837v1.066h-4.24v-1.066h4.24Zm-3.004-1.96h1.257v7.798c0 .355.052.622.155.8a.796.796 0 0 0 .405.35c.166.058.342.086.527.086.138 0 .252-.007.341-.021l.213-.043.256 1.13a2.634 2.634 0 0 1-.357.095 2.637 2.637 0 0 1-.581.053 2.53 2.53 0 0 1-1.044-.228 2.08 2.08 0 0 1-.842-.698c-.22-.313-.33-.707-.33-1.183v-8.139ZM26.408 91.091V102H25.15V91.09h1.257Zm4.71 11.101a3.33 3.33 0 0 1-1.412-.293 2.423 2.423 0 0 1-1.006-.858c-.25-.376-.373-.831-.373-1.363 0-.47.092-.85.277-1.14.184-.295.431-.526.74-.693.309-.167.65-.291 1.023-.373.376-.085.754-.152 1.134-.202.497-.064.9-.112 1.21-.144.312-.035.54-.094.681-.176.146-.081.219-.223.219-.426v-.043c0-.525-.144-.933-.432-1.225-.284-.29-.715-.436-1.294-.436-.6 0-1.07.131-1.412.394-.34.263-.58.543-.719.841l-1.193-.426c.213-.497.497-.884.852-1.161.359-.28.75-.476 1.172-.586.426-.114.845-.17 1.257-.17.263 0 .565.032.906.096a2.9 2.9 0 0 1 .996.378c.323.191.591.48.804.868.213.387.32.906.32 1.555V102H33.61v-1.108h-.064a2.2 2.2 0 0 1-.426.57 2.467 2.467 0 0 1-.794.517c-.33.142-.733.213-1.21.213Zm.192-1.13c.497 0 .916-.097 1.257-.292a2 2 0 0 0 1.044-1.732v-1.15c-.054.064-.17.122-.352.176-.177.05-.383.094-.618.133a28.14 28.14 0 0 1-1.204.16 4.8 4.8 0 0 0-.916.207 1.58 1.58 0 0 0-.682.421c-.17.185-.255.437-.255.757 0 .436.161.767.484.99.327.22.74.33 1.242.33Zm6.023.938V91.09h1.257v4.028h.106c.093-.142.22-.323.384-.543.167-.224.405-.423.714-.597.312-.178.735-.266 1.267-.266.69 0 1.297.172 1.822.516.526.345.936.833 1.23 1.465.295.632.443 1.378.443 2.237 0 .867-.148 1.618-.442 2.254-.295.632-.703 1.122-1.225 1.47-.523.344-1.124.516-1.806.516-.526 0-.947-.087-1.263-.261a2.34 2.34 0 0 1-.73-.601 8.242 8.242 0 0 1-.394-.565h-.149V102h-1.214Zm1.236-4.09c0 .617.09 1.162.271 1.634.181.469.446.837.794 1.103.348.263.774.394 1.278.394.526 0 .964-.138 1.316-.415.355-.281.621-.657.799-1.13a4.431 4.431 0 0 0 .272-1.587c0-.575-.09-1.094-.267-1.555a2.403 2.403 0 0 0-.793-1.103c-.352-.273-.794-.41-1.327-.41-.511 0-.94.13-1.289.389-.348.255-.61.614-.788 1.076-.178.458-.267.992-.267 1.603Zm11.234 4.26c-.74 0-1.387-.175-1.945-.527-.554-.351-.987-.843-1.3-1.475-.308-.633-.463-1.371-.463-2.216 0-.853.155-1.596.464-2.232.312-.636.745-1.13 1.3-1.481.557-.352 1.205-.527 1.944-.527.738 0 1.385.175 1.939.527.557.352.99.845 1.3 1.48.312.637.468 1.38.468 2.233 0 .845-.156 1.584-.469 2.216a3.53 3.53 0 0 1-1.3 1.475c-.553.352-1.2.527-1.938.527Zm0-1.129c.56 0 1.022-.144 1.385-.431.362-.288.63-.666.804-1.135.174-.469.26-.976.26-1.523 0-.547-.086-1.057-.26-1.53a2.577 2.577 0 0 0-.804-1.144c-.363-.291-.824-.437-1.385-.437s-1.023.146-1.385.437c-.363.29-.63.673-.805 1.145a4.388 4.388 0 0 0-.26 1.529c0 .547.086 1.054.26 1.523.174.469.442.847.805 1.135.362.287.824.431 1.385.431Zm5.626.959v-8.182h1.214v1.236h.086c.149-.405.419-.733.81-.986.39-.252.83-.378 1.32-.378.093 0 .208.002.346.006.139.003.244.008.315.016v1.278a3.694 3.694 0 0 0-.293-.048 2.888 2.888 0 0 0-.474-.037c-.398 0-.753.083-1.066.25-.308.163-.554.39-.735.682a1.838 1.838 0 0 0-.266.985V102h-1.257Zm8.762.17c-.788 0-1.468-.174-2.04-.522a3.497 3.497 0 0 1-1.316-1.47c-.305-.632-.458-1.367-.458-2.205 0-.838.153-1.577.459-2.216.308-.643.738-1.143 1.289-1.502.553-.362 1.2-.543 1.939-.543.426 0 .846.07 1.262.213.415.142.794.373 1.135.692.34.316.612.735.814 1.257.203.522.304 1.165.304 1.929v.532h-6.307V97.25h5.029c0-.462-.093-.874-.277-1.236a2.087 2.087 0 0 0-.778-.858c-.334-.21-.728-.314-1.182-.314-.501 0-.934.124-1.3.373a2.452 2.452 0 0 0-.837.959 2.817 2.817 0 0 0-.292 1.267v.725c0 .618.106 1.141.32 1.571.216.426.516.751.9.975.383.22.829.33 1.336.33.33 0 .629-.046.895-.138a1.92 1.92 0 0 0 .698-.426 1.94 1.94 0 0 0 .453-.714l1.214.341a2.687 2.687 0 0 1-.644 1.086 3.142 3.142 0 0 1-1.119.725c-.444.17-.943.255-1.497.255Zm12.95 0c-.789 0-1.469-.174-2.04-.522a3.498 3.498 0 0 1-1.316-1.47c-.306-.632-.458-1.367-.458-2.205 0-.838.152-1.577.458-2.216.309-.643.738-1.143 1.289-1.502.554-.362 1.2-.543 1.939-.543.426 0 .847.07 1.262.213.416.142.794.373 1.135.692.34.316.612.735.815 1.257.202.522.303 1.165.303 1.929v.532h-6.306V97.25h5.028c0-.462-.092-.874-.277-1.236a2.087 2.087 0 0 0-.778-.858c-.334-.21-.728-.314-1.182-.314-.501 0-.934.124-1.3.373a2.452 2.452 0 0 0-.836.959 2.817 2.817 0 0 0-.293 1.267v.725c0 .618.106 1.141.32 1.571.216.426.516.751.9.975.383.22.829.33 1.337.33.33 0 .628-.046.894-.138a1.92 1.92 0 0 0 .698-.426c.195-.192.346-.43.453-.714l1.214.341a2.687 2.687 0 0 1-.644 1.086 3.142 3.142 0 0 1-1.119.725c-.444.17-.942.255-1.496.255Zm8.858-8.352v1.066h-4.24v-1.066h4.24Zm-3.004-1.96h1.257v7.798c0 .355.051.622.154.799a.804.804 0 0 0 .405.352c.167.057.343.085.527.085.139 0 .253-.007.341-.021l.213-.043.256 1.129a2.555 2.555 0 0 1-.357.096 2.593 2.593 0 0 1-.58.054c-.356 0-.704-.077-1.044-.23a2.07 2.07 0 0 1-.842-.697c-.22-.313-.33-.707-.33-1.183v-8.139Zm12.203 10.312c-.682 0-1.284-.172-1.806-.516-.522-.348-.93-.838-1.225-1.47-.295-.636-.442-1.387-.442-2.254 0-.859.147-1.605.442-2.237.295-.632.705-1.12 1.23-1.465.526-.344 1.133-.516 1.822-.516.533 0 .954.088 1.263.266.312.174.55.373.714.597.166.22.296.4.388.543h.107V91.09h1.257V102h-1.214v-1.257h-.15a8.271 8.271 0 0 1-.394.565c-.17.223-.413.424-.73.601-.316.174-.736.261-1.262.261Zm.17-1.129c.505 0 .93-.131 1.279-.394.348-.266.612-.634.794-1.103.18-.472.271-1.017.271-1.635 0-.61-.088-1.145-.266-1.603-.178-.462-.44-.82-.788-1.076-.348-.26-.778-.39-1.29-.39-.532 0-.976.138-1.331.411-.352.27-.616.637-.794 1.103-.174.461-.26.98-.26 1.555 0 .582.088 1.112.266 1.587a2.6 2.6 0 0 0 .799 1.13c.355.277.795.415 1.32.415Zm9.381 1.129c-.739 0-1.387-.175-1.944-.527a3.575 3.575 0 0 1-1.3-1.475c-.309-.633-.464-1.371-.464-2.216 0-.853.155-1.596.464-2.232.312-.636.746-1.13 1.3-1.481.557-.352 1.205-.527 1.944-.527.738 0 1.385.175 1.939.527.557.352.991.845 1.299 1.48.313.637.469 1.38.469 2.233 0 .845-.156 1.584-.469 2.216a3.525 3.525 0 0 1-1.299 1.475c-.554.352-1.201.527-1.939.527Zm0-1.129c.561 0 1.023-.144 1.385-.431.362-.288.63-.666.804-1.135.174-.469.261-.976.261-1.523 0-.547-.087-1.057-.261-1.53a2.578 2.578 0 0 0-.804-1.144c-.362-.291-.824-.437-1.385-.437s-1.023.146-1.385.437c-.362.29-.63.673-.804 1.145a4.388 4.388 0 0 0-.261 1.529c0 .547.087 1.054.261 1.523.174.469.442.847.804 1.135.362.287.824.431 1.385.431Zm6.883-9.95V102h-1.257V91.09h1.257Zm5.627 11.079c-.739 0-1.387-.175-1.945-.527-.554-.351-.987-.843-1.299-1.475-.309-.633-.464-1.371-.464-2.216 0-.853.155-1.596.464-2.232.312-.636.745-1.13 1.299-1.481.558-.352 1.206-.527 1.945-.527.738 0 1.385.175 1.939.527.557.352.99.845 1.299 1.48.313.637.469 1.38.469 2.233 0 .845-.156 1.584-.469 2.216a3.532 3.532 0 0 1-1.299 1.475c-.554.352-1.201.527-1.939.527Zm0-1.129c.561 0 1.022-.144 1.385-.431.362-.288.63-.666.804-1.135.174-.469.261-.976.261-1.523 0-.547-.087-1.057-.261-1.53a2.578 2.578 0 0 0-.804-1.144c-.363-.291-.824-.437-1.385-.437s-1.023.146-1.385.437a2.572 2.572 0 0 0-.805 1.145 4.388 4.388 0 0 0-.261 1.529c0 .547.087 1.054.261 1.523.174.469.442.847.805 1.135.362.287.824.431 1.385.431Zm5.626.959v-8.182h1.214v1.236h.086c.149-.405.419-.733.809-.986a2.384 2.384 0 0 1 1.321-.378c.093 0 .208.002.347.006a4.6 4.6 0 0 1 .314.016v1.278a3.703 3.703 0 0 0-.293-.048 2.886 2.886 0 0 0-.474-.037 2.23 2.23 0 0 0-1.066.25c-.308.163-.554.39-.735.682a1.842 1.842 0 0 0-.266.985V102h-1.257Zm8.762.17c-.788 0-1.468-.174-2.04-.522a3.49 3.49 0 0 1-1.315-1.47c-.306-.632-.459-1.367-.459-2.205 0-.838.153-1.577.459-2.216.308-.643.738-1.143 1.289-1.502.554-.362 1.2-.543 1.939-.543.426 0 .846.07 1.262.213.415.142.794.373 1.135.692.34.316.612.735.815 1.257.202.522.303 1.165.303 1.929v.532h-6.307V97.25h5.029a2.69 2.69 0 0 0-.277-1.236 2.09 2.09 0 0 0-.778-.858c-.334-.21-.728-.314-1.182-.314-.501 0-.934.124-1.3.373a2.45 2.45 0 0 0-.836.959 2.808 2.808 0 0 0-.293 1.267v.725c0 .618.106 1.141.319 1.571.217.426.517.751.9.975.384.22.83.33 1.337.33.331 0 .629-.046.895-.138.27-.096.503-.238.698-.426a1.95 1.95 0 0 0 .453-.714l1.214.341a2.686 2.686 0 0 1-.644 1.086 3.144 3.144 0 0 1-1.119.725 4.16 4.16 0 0 1-1.497.255Zm9.519-.17v-8.182h1.215v1.279h.106a2.06 2.06 0 0 1 .826-1.018c.38-.245.836-.367 1.369-.367.54 0 .989.122 1.347.367.363.242.645.58.847 1.018h.086c.209-.423.523-.759.942-1.007.42-.252.922-.378 1.508-.378.731 0 1.33.229 1.795.687.465.454.698 1.163.698 2.125V102h-1.257v-5.476c0-.603-.165-1.035-.496-1.294a1.832 1.832 0 0 0-1.166-.39c-.575 0-1.021.175-1.337.523-.316.344-.474.781-.474 1.31V102h-1.279v-5.604c0-.465-.151-.84-.452-1.124-.302-.287-.691-.431-1.167-.431-.327 0-.632.087-.916.26a1.968 1.968 0 0 0-.682.725c-.17.306-.256.66-.256 1.06V102h-1.257Zm15.445.192c-.518 0-.989-.098-1.412-.293a2.421 2.421 0 0 1-1.006-.858c-.249-.376-.373-.831-.373-1.363 0-.47.092-.85.277-1.14.184-.295.431-.526.74-.693.309-.167.65-.291 1.023-.373.376-.085.755-.152 1.134-.202.498-.064.901-.112 1.21-.144.312-.035.539-.094.681-.176.146-.081.219-.223.219-.426v-.043c0-.525-.144-.933-.432-1.225-.284-.29-.715-.436-1.294-.436-.6 0-1.071.131-1.412.394-.34.263-.58.543-.719.841l-1.193-.426c.213-.497.497-.884.852-1.161.359-.28.75-.476 1.172-.586.426-.114.845-.17 1.257-.17.263 0 .565.032.906.096.344.06.676.186.996.378.323.191.591.48.804.868.213.387.32.906.32 1.555V102h-1.257v-1.108h-.064a2.19 2.19 0 0 1-.426.57 2.471 2.471 0 0 1-.794.517c-.33.142-.733.213-1.209.213Zm.192-1.13c.497 0 .916-.097 1.257-.292.344-.196.604-.448.778-.757.177-.309.266-.634.266-.975v-1.15c-.053.064-.171.122-.352.176-.177.05-.383.094-.618.133a27.622 27.622 0 0 1-1.203.16 4.802 4.802 0 0 0-.917.207 1.58 1.58 0 0 0-.681.421c-.171.185-.256.437-.256.757 0 .436.161.767.485.99.326.22.74.33 1.241.33Zm9.155 4.177c-.607 0-1.129-.078-1.566-.235a3.308 3.308 0 0 1-1.092-.607 3.313 3.313 0 0 1-.687-.799l1.001-.703c.114.149.258.319.432.511.174.196.412.364.713.506.306.146.705.219 1.199.219.661 0 1.206-.16 1.635-.48.43-.319.645-.82.645-1.502v-1.662h-.107a6.55 6.55 0 0 1-.394.554c-.167.217-.408.41-.724.581-.313.167-.735.25-1.268.25a3.407 3.407 0 0 1-1.779-.469c-.522-.312-.936-.767-1.241-1.363-.302-.597-.453-1.321-.453-2.174 0-.838.147-1.567.442-2.189.295-.625.705-1.108 1.231-1.449.525-.344 1.132-.516 1.821-.516.533 0 .956.088 1.268.266.316.174.558.373.724.597.171.22.302.4.395.543h.127v-1.3h1.215v8.416c0 .704-.16 1.275-.479 1.716a2.742 2.742 0 0 1-1.279.974 4.816 4.816 0 0 1-1.779.315Zm-.043-4.496c.505 0 .931-.116 1.279-.346.348-.231.612-.563.793-.996.182-.434.272-.952.272-1.556 0-.59-.089-1.11-.266-1.56-.178-.451-.441-.805-.789-1.06-.348-.256-.777-.384-1.289-.384-.532 0-.976.135-1.331.405-.352.27-.616.632-.794 1.086a4.2 4.2 0 0 0-.261 1.513c0 .568.089 1.07.266 1.508.181.433.448.774.799 1.022.355.245.796.368 1.321.368Zm7.138-3.665V102h-1.257v-8.182h1.215v1.279h.106c.192-.416.483-.75.874-1.002.39-.255.895-.383 1.512-.383.554 0 1.039.113 1.455.34.415.224.738.565.969 1.023.231.455.346 1.03.346 1.726V102h-1.257v-5.114c0-.642-.167-1.143-.5-1.502-.334-.362-.792-.543-1.375-.543-.401 0-.76.087-1.076.26a1.869 1.869 0 0 0-.74.763c-.181.333-.272.738-.272 1.214Zm9.925 5.114c-.518 0-.989-.098-1.411-.293a2.418 2.418 0 0 1-1.007-.858c-.249-.376-.373-.831-.373-1.363 0-.47.092-.85.277-1.14.185-.295.431-.526.74-.693.309-.167.65-.291 1.023-.373.377-.085.755-.152 1.135-.202.497-.064.9-.112 1.209-.144.312-.035.54-.094.682-.176.145-.081.218-.223.218-.426v-.043c0-.525-.144-.933-.431-1.225-.284-.29-.716-.436-1.295-.436-.6 0-1.07.131-1.411.394-.341.263-.581.543-.719.841l-1.194-.426c.213-.497.498-.884.853-1.161a3.19 3.19 0 0 1 1.171-.586c.427-.114.846-.17 1.258-.17.262 0 .564.032.905.096.345.06.677.186.996.378.323.191.591.48.805.868.213.387.319.906.319 1.555V102h-1.257v-1.108h-.064a2.19 2.19 0 0 1-.426.57 2.46 2.46 0 0 1-.794.517c-.33.142-.733.213-1.209.213Zm.192-1.13c.497 0 .916-.097 1.257-.292.344-.196.604-.448.778-.757.177-.309.266-.634.266-.975v-1.15c-.053.064-.17.122-.352.176-.177.05-.383.094-.617.133a28.398 28.398 0 0 1-1.204.16 4.791 4.791 0 0 0-.916.207 1.577 1.577 0 0 0-.682.421c-.171.185-.256.437-.256.757 0 .436.162.767.485.99.327.22.74.33 1.241.33Zm12.479 1.13c-.518 0-.989-.098-1.412-.293a2.421 2.421 0 0 1-1.006-.858c-.249-.376-.373-.831-.373-1.363 0-.47.092-.85.277-1.14.185-.295.431-.526.74-.693.309-.167.65-.291 1.023-.373.376-.085.755-.152 1.135-.202.497-.064.9-.112 1.209-.144.312-.035.54-.094.682-.176.145-.081.218-.223.218-.426v-.043c0-.525-.144-.933-.432-1.225-.284-.29-.715-.436-1.294-.436-.6 0-1.071.131-1.411.394-.341.263-.581.543-.72.841l-1.193-.426c.213-.497.497-.884.853-1.161a3.19 3.19 0 0 1 1.171-.586c.427-.114.846-.17 1.257-.17.263 0 .565.032.906.096.344.06.677.186.996.378.323.191.591.48.804.868.214.387.32.906.32 1.555V102h-1.257v-1.108h-.064a2.19 2.19 0 0 1-.426.57 2.471 2.471 0 0 1-.794.517c-.33.142-.733.213-1.209.213Zm.192-1.13c.497 0 .916-.097 1.257-.292.344-.196.604-.448.778-.757.177-.309.266-.634.266-.975v-1.15c-.053.064-.17.122-.352.176-.177.05-.383.094-.618.133a27.622 27.622 0 0 1-1.203.16 4.819 4.819 0 0 0-.917.207 1.58 1.58 0 0 0-.681.421c-.171.185-.256.437-.256.757 0 .436.162.767.485.99.326.22.74.33 1.241.33Zm7.11-9.971V102h-1.257V91.09h1.257ZM205.253 102v-8.182h1.257V102h-1.257Zm.639-9.546a.895.895 0 0 1-.634-.25.804.804 0 0 1-.261-.602c0-.234.087-.435.261-.602a.895.895 0 0 1 .634-.25c.245 0 .455.084.629.25a.798.798 0 0 1 .266.602.799.799 0 0 1-.266.602.876.876 0 0 1-.629.25Zm8.503 12.614v-4.325h-.106a8.372 8.372 0 0 1-.395.565c-.17.223-.413.424-.729.601-.316.174-.737.261-1.263.261-.682 0-1.284-.172-1.806-.516-.522-.348-.93-.838-1.225-1.47-.294-.636-.442-1.387-.442-2.254 0-.859.148-1.605.442-2.237.295-.632.705-1.12 1.231-1.465.525-.344 1.133-.516 1.821-.516.533 0 .954.088 1.263.266.312.174.55.373.714.597.167.22.296.4.389.543h.149v-1.3h1.214v11.25h-1.257Zm-2.322-4.027c.504 0 .93-.131 1.278-.394.348-.266.613-.634.794-1.103.181-.472.271-1.017.271-1.635 0-.61-.088-1.145-.266-1.603-.178-.462-.44-.82-.788-1.076-.348-.26-.778-.39-1.289-.39-.533 0-.977.138-1.332.411-.352.27-.616.637-.794 1.103-.174.461-.261.98-.261 1.555a4.5 4.5 0 0 0 .267 1.587c.181.473.447.849.799 1.13.355.277.795.415 1.321.415Zm11.037-2.386v-4.837h1.257V102h-1.257v-1.385h-.086c-.191.416-.49.769-.895 1.06-.404.288-.916.432-1.534.432-.511 0-.966-.112-1.363-.336-.398-.227-.711-.568-.938-1.023-.227-.458-.341-1.035-.341-1.731v-5.199h1.257v5.114c0 .596.167 1.072.501 1.427.337.355.767.533 1.289.533.313 0 .631-.08.954-.24.326-.159.6-.404.82-.735.224-.33.336-.75.336-1.262Zm5.967 3.537c-.519 0-.989-.098-1.412-.293a2.43 2.43 0 0 1-1.007-.858c-.248-.376-.372-.831-.372-1.363 0-.47.092-.85.277-1.14.184-.295.431-.526.74-.693.309-.167.65-.291 1.023-.373.376-.085.754-.152 1.134-.202.497-.064.901-.112 1.209-.144.313-.035.54-.094.682-.176.146-.081.219-.223.219-.426v-.043c0-.525-.144-.933-.432-1.225-.284-.29-.715-.436-1.294-.436-.6 0-1.071.131-1.412.394-.341.263-.58.543-.719.841l-1.193-.426c.213-.497.497-.884.852-1.161.359-.28.75-.476 1.172-.586.426-.114.845-.17 1.257-.17.263 0 .565.032.906.096.344.06.676.186.996.378.323.191.591.48.804.868.213.387.32.906.32 1.555V102h-1.257v-1.108h-.064a2.213 2.213 0 0 1-.426.57 2.471 2.471 0 0 1-.794.517c-.33.142-.733.213-1.209.213Zm.192-1.13c.497 0 .916-.097 1.257-.292a2.001 2.001 0 0 0 1.044-1.732v-1.15c-.054.064-.171.122-.352.176-.177.05-.383.094-.618.133a28.329 28.329 0 0 1-1.204.16 4.809 4.809 0 0 0-.916.207c-.28.093-.508.233-.682.421-.17.185-.255.437-.255.757 0 .436.161.767.484.99.327.22.741.33 1.242.33Zm6.768 1.023a.923.923 0 0 1-.676-.282.924.924 0 0 1-.282-.677c0-.262.094-.488.282-.676a.923.923 0 0 1 .676-.282c.263 0 .489.094.677.282a.923.923 0 0 1 .282.676.994.994 0 0 1-.479.831.908.908 0 0 1-.48.128Z" fill="#4D5C6C"/><rect x=".5" y=".5" width="299" height="123" rx="3.5" stroke="#EBF2F7"/></svg>