<svg width="176" height="19" viewBox="0 0 176 19" fill="none" xmlns="http://www.w3.org/2000/svg">
<path opacity="0.886277" d="M10.7227 18.376H16.0477V0.375977H10.7227V18.376Z" fill="#0E1114"/>
<path opacity="0.898345" d="M3.07724 18.376H8.40191V0.375977H3.07724V18.376Z" fill="#0E1114"/>
<path opacity="0.881278" d="M0 8.09094H19.125V3.0791H0V8.09094Z" fill="#0E1114"/>
<path opacity="0.855632" d="M0 15.4153H19.125V10.4038H0V15.4153Z" fill="#0E1114"/>
<path d="M27.6561 0.298342H32.4793V6.81215H38.6699V0.298342H43.4931V17.7017H38.6699V11.0884H32.4793V17.7017H27.6561V0.298342Z" fill="#0E1114"/>
<path d="M58.7152 10.8398L56.7759 5.89227L54.8119 10.8398H58.7152ZM54.4887 0.174032H59.1378L66.5467 17.7017H61.3754L60.1074 14.5939H53.3947L52.1516 17.7017H47.0798L54.4887 0.174032Z" fill="#0E1114"/>
<path d="M76.9748 18C75.4168 18 73.9334 17.7597 72.5245 17.279C71.1323 16.7983 69.8975 16.0773 68.8201 15.116L71.5052 11.9088C73.2455 13.3011 75.1268 13.9972 77.1489 13.9972C77.7953 13.9972 78.2842 13.8978 78.6157 13.6989C78.9638 13.4834 79.1378 13.1851 79.1378 12.8039V12.7541C79.1378 12.5718 79.0964 12.4144 79.0135 12.2818C78.9306 12.1326 78.7732 11.9917 78.5411 11.8591C78.3257 11.7265 78.0273 11.6022 77.6461 11.4862C77.2815 11.3536 76.8008 11.221 76.2041 11.0884C75.2759 10.8729 74.4141 10.6409 73.6185 10.3923C72.8229 10.1271 72.1268 9.79558 71.5301 9.39779C70.95 8.98343 70.4859 8.4779 70.1378 7.88122C69.8063 7.26796 69.6406 6.51381 69.6406 5.61878V5.56906C69.6406 4.75691 69.7897 4.01105 70.0881 3.33149C70.403 2.65193 70.8505 2.06354 71.4306 1.5663C72.0273 1.06906 72.74 0.687845 73.5687 0.422651C74.3975 0.140884 75.3339 0 76.3781 0C77.8699 0 79.1958 0.198895 80.356 0.596685C81.5328 0.977901 82.5936 1.54972 83.5384 2.31215L81.1268 5.71823C80.3312 5.1547 79.5107 4.73204 78.6654 4.45028C77.8367 4.15193 77.0328 4.00276 76.2538 4.00276C75.6737 4.00276 75.2345 4.1105 74.9362 4.32597C74.6544 4.54144 74.5135 4.80663 74.5135 5.12155V5.17127C74.5135 5.37017 74.5549 5.5442 74.6378 5.69337C74.7373 5.84254 74.8947 5.98343 75.1102 6.11602C75.3422 6.23204 75.6489 6.35635 76.0301 6.48895C76.4279 6.60497 76.9251 6.72928 77.5218 6.86188C78.5163 7.07735 79.4113 7.33425 80.2069 7.6326C81.019 7.91436 81.7069 8.26243 82.2704 8.6768C82.8339 9.09116 83.2649 9.59668 83.5632 10.1934C83.8616 10.7735 84.0107 11.4696 84.0107 12.2818V12.3315C84.0107 13.2265 83.8367 14.0221 83.4886 14.7182C83.1571 15.4144 82.6848 16.011 82.0715 16.5083C81.4582 16.989 80.7207 17.3619 79.8588 17.6271C78.9969 17.8757 78.0356 18 76.9748 18Z" fill="#0E1114"/>
<path d="M88.2588 0.298342H93.082V6.81215H99.2726V0.298342H104.096V17.7017H99.2726V11.0884H93.082V17.7017H88.2588V0.298342Z" fill="#0E1114"/>
<path d="M109.683 12.8536H114.606V17.7017H109.683V12.8536Z" fill="#34BDF8"/>
<path d="M126.992 13.4254C128.434 13.4254 129.594 13.0442 130.472 12.2818C131.351 11.5193 131.79 10.4337 131.79 9.02486V8.97514C131.79 7.58287 131.351 6.50552 130.472 5.74309C129.594 4.96409 128.434 4.57459 126.992 4.57459H125.028V13.4254H126.992ZM120.204 0.298342H126.917C128.475 0.298342 129.859 0.513811 131.069 0.944751C132.295 1.35912 133.323 1.94751 134.152 2.70994C134.997 3.47238 135.635 4.38398 136.066 5.44475C136.514 6.48895 136.737 7.64088 136.737 8.90055V8.95028C136.737 10.2099 136.514 11.3785 136.066 12.4558C135.619 13.5166 134.972 14.4365 134.127 15.2155C133.282 15.9945 132.237 16.6077 130.994 17.0552C129.768 17.4862 128.376 17.7017 126.818 17.7017H120.204V0.298342Z" fill="url(#paint0_linear_92_854)"/>
<path d="M140.036 0.298342H154.034V4.40055H144.81V7.03591H153.164V10.8398H144.81V13.5994H154.158V17.7017H140.036V0.298342Z" fill="url(#paint1_linear_92_854)"/>
<path d="M157.129 0.298342H162.524L166.477 11.3122L170.43 0.298342H175.726L168.665 17.826H164.19L157.129 0.298342Z" fill="url(#paint2_linear_92_854)"/>
<defs>
<linearGradient id="paint0_linear_92_854" x1="176" y1="-5.81201" x2="159" y2="16.188" gradientUnits="userSpaceOnUse">
<stop stop-color="#7A97FF"/>
<stop offset="1" stop-color="#34BDF8"/>
</linearGradient>
<linearGradient id="paint1_linear_92_854" x1="176" y1="-5.81201" x2="159" y2="16.188" gradientUnits="userSpaceOnUse">
<stop stop-color="#7A97FF"/>
<stop offset="1" stop-color="#34BDF8"/>
</linearGradient>
<linearGradient id="paint2_linear_92_854" x1="176" y1="-5.81201" x2="159" y2="16.188" gradientUnits="userSpaceOnUse">
<stop stop-color="#7A97FF"/>
<stop offset="1" stop-color="#34BDF8"/>
</linearGradient>
</defs>
</svg>
