<?xml version="1.0" encoding="iso-8859-1"?>
<svg version="1.1" id="Capa_1" xmlns="http://www.w3.org/2000/svg" xmlns:xlink="http://www.w3.org/1999/xlink" x="0px" y="0px"
	 width="47.001px" height="47.001px" viewBox="0 0 47.001 47.001" style="enable-background:new 0 0 47.001 47.001;"
	 xml:space="preserve">
<g>
	<g id="Layer_1_64_">
		<g>
			<path d="M22.432,22.429c0,0.591,0.479,1.067,1.068,1.067s1.068-0.479,1.068-1.067c0.001-1.25,0.445-2.465,1.251-3.421
				c1.793-2.126,3.137-4.431,3.988-6.851c0.115-0.327,0.065-0.689-0.135-0.972c-0.201-0.283-0.525-0.451-0.872-0.451H18.199
				c-0.347,0-0.672,0.168-0.873,0.451c-0.2,0.283-0.25,0.645-0.135,0.972c0.853,2.42,2.195,4.725,3.988,6.851
				C21.986,19.964,22.431,21.18,22.432,22.429z"/>
			<path d="M24.568,26.71c0-0.59-0.479-1.067-1.068-1.067s-1.068,0.479-1.068,1.067c-0.001,1.542-0.922,3.067-2.593,4.304
				c-3.574,2.639-6.249,5.506-7.951,8.52c-0.187,0.332-0.184,0.736,0.009,1.062c0.19,0.329,0.542,0.53,0.922,0.53h21.364
				c0.379,0,0.73-0.201,0.922-0.53c0.191-0.326,0.194-0.73,0.008-1.062c-1.701-3.014-4.377-5.881-7.95-8.52
				C25.49,29.777,24.569,28.252,24.568,26.71z"/>
			<path d="M42.192,42.729h-0.639c-0.734-8.313-5.602-14.695-9.386-19.228c3.785-4.532,8.651-10.915,9.388-19.228h0.639
				c1.18,0,2.136-0.957,2.136-2.137C44.33,0.956,43.374,0,42.194,0H4.807c-1.18,0-2.136,0.957-2.136,2.136
				c0,1.18,0.956,2.137,2.136,2.137h0.639c0.735,8.314,5.601,14.697,9.386,19.228c-3.784,4.532-8.651,10.914-9.387,19.228H4.807
				c-1.18,0-2.136,0.955-2.136,2.135c0,1.181,0.956,2.138,2.136,2.138h2.671h32.044h2.672c1.18,0,2.136-0.957,2.136-2.138
				C44.33,43.684,43.373,42.729,42.192,42.729z M9.728,42.729c0.803-7.511,5.686-13.295,9.335-17.617l0.195-0.231
				c0.672-0.795,0.672-1.959,0-2.755l-0.194-0.23c-3.648-4.323-8.533-10.107-9.336-17.619h27.544
				c-0.803,7.512-5.688,13.296-9.336,17.619l-0.193,0.23c-0.672,0.795-0.672,1.959,0,2.755l0.195,0.231
				c3.648,4.322,8.531,10.106,9.334,17.617H9.728z"/>
		</g>
	</g>
</g>
<g>
</g>
<g>
</g>
<g>
</g>
<g>
</g>
<g>
</g>
<g>
</g>
<g>
</g>
<g>
</g>
<g>
</g>
<g>
</g>
<g>
</g>
<g>
</g>
<g>
</g>
<g>
</g>
<g>
</g>
</svg>
