<svg width="312" height="231" viewBox="0 0 312 231" fill="none" xmlns="http://www.w3.org/2000/svg">
<rect width="311.93" height="230.778" rx="4.12773" fill="white"/>
<path d="M89.835 29.3415V27.5181H99.4154V29.3415H95.7039V39.526H93.5465V29.3415H89.835ZM103.291 34.249V39.526H101.168V27.5181H103.244V32.0503H103.35C103.56 31.5422 103.887 31.1415 104.329 30.8484C104.775 30.5513 105.341 30.4027 106.029 30.4027C106.655 30.4027 107.2 30.5337 107.665 30.7956C108.13 31.0575 108.49 31.4406 108.744 31.9448C109.002 32.449 109.131 33.0647 109.131 33.7917V39.526H107.008V34.12C107.008 33.5142 106.852 33.0432 106.539 32.707C106.23 32.3669 105.796 32.1969 105.238 32.1969C104.862 32.1969 104.526 32.279 104.229 32.4431C103.936 32.6034 103.705 32.836 103.537 33.1409C103.373 33.4458 103.291 33.8152 103.291 34.249ZM115.281 39.7019C114.378 39.7019 113.598 39.5143 112.942 39.139C112.289 38.7599 111.787 38.2244 111.435 37.5325C111.083 36.8367 110.907 36.0178 110.907 35.0757C110.907 34.1494 111.083 33.3363 111.435 32.6367C111.791 31.9331 112.287 31.3858 112.924 30.9949C113.561 30.6002 114.31 30.4027 115.17 30.4027C115.725 30.4027 116.249 30.4926 116.742 30.6725C117.238 30.8484 117.675 31.122 118.055 31.4933C118.437 31.8646 118.739 32.3376 118.957 32.9122C119.176 33.4829 119.286 34.163 119.286 34.9527V35.6035H111.904V34.1729H117.251C117.247 33.7663 117.159 33.4048 116.987 33.0881C116.815 32.7676 116.575 32.5155 116.266 32.3318C115.961 32.1481 115.606 32.0562 115.199 32.0562C114.765 32.0562 114.384 32.1618 114.056 32.3728C113.728 32.58 113.472 32.8536 113.288 33.1937C113.108 33.5298 113.016 33.8992 113.012 34.3018V35.5507C113.012 36.0745 113.108 36.524 113.3 36.8992C113.491 37.2706 113.759 37.5559 114.103 37.7552C114.447 37.9507 114.85 38.0484 115.311 38.0484C115.619 38.0484 115.899 38.0054 116.149 37.9195C116.399 37.8295 116.616 37.6986 116.8 37.5266C116.984 37.3546 117.123 37.1416 117.216 36.8875L119.198 37.1103C119.073 37.6341 118.834 38.0914 118.483 38.4823C118.135 38.8693 117.689 39.1703 117.146 39.3853C116.603 39.5963 115.981 39.7019 115.281 39.7019ZM125.271 39.526V27.5181H129.868C130.735 27.5181 131.456 27.6548 132.031 27.9284C132.61 28.1982 133.041 28.5675 133.327 29.0366C133.616 29.5057 133.761 30.0373 133.761 30.6314C133.761 31.12 133.667 31.5383 133.479 31.8862C133.292 32.2301 133.04 32.5096 132.723 32.7246C132.406 32.9396 132.053 33.094 131.662 33.1878V33.3051C132.088 33.3285 132.496 33.4594 132.887 33.6979C133.282 33.9324 133.605 34.2647 133.854 34.6947C134.105 35.1246 134.23 35.6445 134.23 36.2543C134.23 36.8758 134.079 37.4347 133.778 37.9311C133.477 38.4237 133.024 38.8126 132.418 39.0979C131.812 39.3833 131.05 39.526 130.131 39.526H125.271ZM127.446 37.7084H129.785C130.575 37.7084 131.144 37.5579 131.492 37.2569C131.843 36.952 132.02 36.5611 132.02 36.0843C132.02 35.7285 131.932 35.408 131.755 35.1226C131.579 34.8334 131.33 34.6067 131.005 34.4425C130.681 34.2745 130.294 34.1904 129.844 34.1904H127.446V37.7084ZM127.446 32.625H129.598C129.973 32.625 130.311 32.5565 130.612 32.4197C130.913 32.279 131.149 32.0816 131.321 31.8275C131.497 31.5696 131.586 31.2647 131.586 30.9128C131.586 30.4477 131.421 30.0647 131.093 29.7637C130.768 29.4627 130.286 29.3122 129.645 29.3122H127.446V32.625ZM140.015 39.7019C139.112 39.7019 138.332 39.5143 137.676 39.139C137.023 38.7599 136.521 38.2244 136.169 37.5325C135.817 36.8367 135.642 36.0178 135.642 35.0757C135.642 34.1494 135.817 33.3363 136.169 32.6367C136.525 31.9331 137.021 31.3858 137.658 30.9949C138.295 30.6002 139.044 30.4027 139.904 30.4027C140.459 30.4027 140.983 30.4926 141.476 30.6725C141.972 30.8484 142.41 31.122 142.789 31.4933C143.172 31.8646 143.473 32.3376 143.691 32.9122C143.91 33.4829 144.02 34.163 144.02 34.9527V35.6035H136.638V34.1729H141.985C141.981 33.7663 141.894 33.4048 141.722 33.0881C141.55 32.7676 141.309 32.5155 141 32.3318C140.695 32.1481 140.34 32.0562 139.933 32.0562C139.499 32.0562 139.119 32.1618 138.79 32.3728C138.462 32.58 138.206 32.8536 138.022 33.1937C137.842 33.5298 137.75 33.8992 137.746 34.3018V35.5507C137.746 36.0745 137.842 36.524 138.034 36.8992C138.225 37.2706 138.493 37.5559 138.837 37.7552C139.181 37.9507 139.584 38.0484 140.045 38.0484C140.353 38.0484 140.633 38.0054 140.883 37.9195C141.133 37.8295 141.35 37.6986 141.534 37.5266C141.718 37.3546 141.857 37.1416 141.95 36.8875L143.932 37.1103C143.807 37.6341 143.568 38.0914 143.217 38.4823C142.869 38.8693 142.423 39.1703 141.88 39.3853C141.337 39.5963 140.715 39.7019 140.015 39.7019ZM150.313 30.52V32.1618H145.135V30.52H150.313ZM146.414 28.3623H148.536V36.8171C148.536 37.1025 148.579 37.3214 148.665 37.4738C148.755 37.6224 148.872 37.724 149.017 37.7787C149.161 37.8335 149.322 37.8608 149.498 37.8608C149.631 37.8608 149.752 37.851 149.861 37.8315C149.975 37.8119 150.061 37.7944 150.119 37.7787L150.477 39.438C150.363 39.4771 150.202 39.5201 149.99 39.567C149.783 39.6139 149.529 39.6413 149.228 39.6491C148.696 39.6647 148.217 39.5846 147.792 39.4087C147.365 39.2289 147.027 38.9514 146.777 38.5761C146.531 38.2009 146.41 37.7318 146.414 37.169V28.3623ZM154.679 39.7077C154.108 39.7077 153.595 39.6061 153.137 39.4028C152.684 39.1957 152.325 38.8908 152.058 38.4882C151.796 38.0855 151.666 37.5892 151.666 36.9989C151.666 36.4908 151.76 36.0706 151.947 35.7383C152.135 35.4061 152.391 35.1403 152.715 34.9409C153.039 34.7416 153.405 34.5911 153.811 34.4895C154.222 34.3839 154.646 34.3077 155.084 34.2608C155.612 34.206 156.04 34.1572 156.368 34.1142C156.697 34.0673 156.935 33.9969 157.083 33.9031C157.236 33.8054 157.312 33.6549 157.312 33.4517V33.4164C157.312 32.9748 157.181 32.6327 156.919 32.3904C156.657 32.1481 156.28 32.0269 155.788 32.0269C155.268 32.0269 154.856 32.1402 154.55 32.367C154.249 32.5937 154.046 32.8614 153.941 33.1702L151.959 32.8888C152.115 32.3415 152.373 31.8842 152.733 31.5168C153.092 31.1454 153.532 30.8679 154.052 30.6842C154.572 30.4966 155.147 30.4027 155.776 30.4027C156.209 30.4027 156.641 30.4536 157.071 30.5552C157.501 30.6569 157.894 30.8249 158.25 31.0594C158.606 31.29 158.891 31.6047 159.106 32.0034C159.325 32.4021 159.435 32.9005 159.435 33.4985V39.526H157.394V38.2888H157.324C157.195 38.539 157.013 38.7735 156.778 38.9924C156.548 39.2074 156.256 39.3814 155.905 39.5143C155.557 39.6433 155.149 39.7077 154.679 39.7077ZM155.231 38.1481C155.656 38.1481 156.026 38.0641 156.339 37.896C156.651 37.724 156.892 37.4973 157.06 37.2158C157.232 36.9344 157.318 36.6275 157.318 36.2953V35.2341C157.251 35.2888 157.138 35.3396 156.978 35.3865C156.821 35.4334 156.646 35.4745 156.45 35.5096C156.255 35.5448 156.061 35.5761 155.87 35.6035C155.678 35.6308 155.512 35.6543 155.372 35.6738C155.054 35.7168 154.771 35.7871 154.521 35.8849C154.271 35.9826 154.073 36.1194 153.929 36.2953C153.784 36.4673 153.712 36.6901 153.712 36.9637C153.712 37.3546 153.855 37.6497 154.14 37.8491C154.426 38.0484 154.789 38.1481 155.231 38.1481ZM165.758 39.526V27.5181H167.933V37.7025H173.222V39.526H165.758ZM177.608 39.7077C177.037 39.7077 176.523 39.6061 176.065 39.4028C175.612 39.1957 175.253 38.8908 174.986 38.4882C174.725 38.0855 174.594 37.5892 174.594 36.9989C174.594 36.4908 174.688 36.0706 174.875 35.7383C175.063 35.4061 175.319 35.1403 175.643 34.9409C175.968 34.7416 176.333 34.5911 176.74 34.4895C177.15 34.3839 177.575 34.3077 178.012 34.2608C178.54 34.206 178.968 34.1572 179.297 34.1142C179.625 34.0673 179.863 33.9969 180.011 33.9031C180.164 33.8054 180.24 33.6549 180.24 33.4517V33.4164C180.24 32.9748 180.109 32.6327 179.848 32.3904C179.585 32.1481 179.208 32.0269 178.716 32.0269C178.196 32.0269 177.784 32.1402 177.478 32.367C177.178 32.5937 176.975 32.8614 176.869 33.1702L174.887 32.8888C175.044 32.3415 175.302 31.8842 175.661 31.5168C176.02 31.1454 176.46 30.8679 176.98 30.6842C177.5 30.4966 178.075 30.4027 178.704 30.4027C179.138 30.4027 179.57 30.4536 180 30.5552C180.43 30.6569 180.822 30.8249 181.178 31.0594C181.534 31.29 181.819 31.6047 182.035 32.0034C182.253 32.4021 182.363 32.9005 182.363 33.4985V39.526H180.322V38.2888H180.252C180.123 38.539 179.941 38.7735 179.707 38.9924C179.476 39.2074 179.185 39.3814 178.833 39.5143C178.485 39.6433 178.077 39.7077 177.608 39.7077ZM178.159 38.1481C178.584 38.1481 178.954 38.0641 179.267 37.896C179.579 37.724 179.82 37.4973 179.988 37.2158C180.16 36.9344 180.246 36.6275 180.246 36.2953V35.2341C180.18 35.2888 180.066 35.3396 179.906 35.3865C179.75 35.4334 179.574 35.4745 179.378 35.5096C179.183 35.5448 178.989 35.5761 178.798 35.6035C178.606 35.6308 178.44 35.6543 178.3 35.6738C177.983 35.7168 177.699 35.7871 177.449 35.8849C177.199 35.9826 177.002 36.1194 176.857 36.2953C176.713 36.4673 176.64 36.6901 176.64 36.9637C176.64 37.3546 176.783 37.6497 177.068 37.8491C177.354 38.0484 177.717 38.1481 178.159 38.1481ZM190.237 35.7383V30.52H192.359V39.526H190.302V37.9253H190.207C190.005 38.4295 189.67 38.8419 189.205 39.1624C188.744 39.483 188.175 39.6433 187.499 39.6433C186.909 39.6433 186.387 39.5123 185.933 39.2504C185.484 38.9846 185.132 38.5996 184.878 38.0954C184.624 37.5872 184.497 36.9735 184.497 36.2543V30.52H186.619V35.9259C186.619 36.4966 186.776 36.9501 187.088 37.2862C187.401 37.6224 187.811 37.7905 188.32 37.7905C188.633 37.7905 188.935 37.7142 189.229 37.5618C189.522 37.4093 189.762 37.1827 189.949 36.8816C190.141 36.5768 190.237 36.1956 190.237 35.7383ZM196.665 34.249V39.526H194.542V30.52H196.571V32.0503H196.676C196.883 31.5461 197.214 31.1454 197.667 30.8484C198.124 30.5513 198.689 30.4027 199.361 30.4027C199.983 30.4027 200.525 30.5356 200.986 30.8015C201.451 31.0672 201.811 31.4523 202.064 31.9565C202.322 32.4607 202.45 33.0725 202.445 33.7917V39.526H200.323V34.12C200.323 33.5181 200.167 33.0471 199.854 32.707C199.545 32.3669 199.117 32.1969 198.57 32.1969C198.199 32.1969 197.869 32.279 197.58 32.4431C197.294 32.6034 197.069 32.836 196.905 33.1409C196.744 33.4458 196.665 33.8152 196.665 34.249ZM208.532 39.7019C207.633 39.7019 206.861 39.5045 206.215 39.1097C205.575 38.7149 205.08 38.1696 204.732 37.4738C204.388 36.7741 204.216 35.9689 204.216 35.0582C204.216 34.1435 204.392 33.3363 204.744 32.6367C205.096 31.9331 205.592 31.3858 206.233 30.9949C206.879 30.6002 207.641 30.4027 208.52 30.4027C209.251 30.4027 209.898 30.5376 210.461 30.8073C211.028 31.0731 211.479 31.4503 211.815 31.9389C212.151 32.4236 212.343 32.9904 212.39 33.6393H210.361C210.279 33.2054 210.084 32.8438 209.775 32.5546C209.47 32.2614 209.062 32.1148 208.55 32.1148C208.116 32.1148 207.734 32.2321 207.406 32.4666C207.077 32.6973 206.822 33.0295 206.638 33.4634C206.458 33.8973 206.368 34.4171 206.368 35.023C206.368 35.6367 206.458 36.1643 206.638 36.6061C206.817 37.0438 207.07 37.382 207.395 37.6204C207.723 37.8549 208.107 37.9722 208.55 37.9722C208.862 37.9722 209.141 37.9135 209.388 37.7963C209.638 37.6752 209.847 37.5012 210.015 37.2745C210.184 37.0477 210.298 36.7722 210.361 36.4478H212.39C212.339 37.0849 212.151 37.6497 211.827 38.1422C211.502 38.6309 211.061 39.0139 210.502 39.2914C209.943 39.565 209.287 39.7019 208.532 39.7019ZM216.255 34.249V39.526H214.132V27.5181H216.208V32.0503H216.314C216.525 31.5422 216.851 31.1415 217.293 30.8484C217.739 30.5513 218.306 30.4027 218.994 30.4027C219.619 30.4027 220.164 30.5337 220.629 30.7956C221.095 31.0575 221.454 31.4406 221.708 31.9448C221.966 32.449 222.095 33.0647 222.095 33.7917V39.526H219.973V34.12C219.973 33.5142 219.816 33.0432 219.503 32.707C219.194 32.3669 218.761 32.1969 218.202 32.1969C217.827 32.1969 217.49 32.279 217.193 32.4431C216.9 32.6034 216.67 32.836 216.501 33.1409C216.337 33.4458 216.255 33.8152 216.255 34.249Z" fill="#37434F"/>
<g filter="url(#filter0_ddd_638_2490)">
<path d="M210.18 56.2104H101.872C99.7819 56.2104 98.0879 57.9045 98.0879 59.9942V168.687C98.0879 170.777 99.7819 172.471 101.872 172.471H210.18C212.27 172.471 213.964 170.777 213.964 168.687V59.9942C213.964 57.9045 212.27 56.2104 210.18 56.2104Z" fill="white"/>
<path d="M147.873 89.3718V121.393H142.072V95.0158H141.885L134.396 99.8005V94.484L142.354 89.3718H147.873ZM155.123 121.393V117.202L166.24 106.304C167.303 105.231 168.189 104.277 168.898 103.443C169.606 102.609 170.138 101.802 170.492 101.02C170.847 100.238 171.024 99.4043 171.024 98.5182C171.024 97.5069 170.795 96.6421 170.336 95.9225C169.877 95.1933 169.247 94.6299 168.444 94.2343C167.642 93.838 166.73 93.6399 165.708 93.6399C164.655 93.6399 163.733 93.8587 162.941 94.2969C162.148 94.7241 161.534 95.3336 161.096 96.1262C160.668 96.918 160.455 97.8612 160.455 98.9557H154.936C154.936 96.9235 155.399 95.1568 156.327 93.6557C157.255 92.1546 158.532 90.9926 160.158 90.1692C161.794 89.3457 163.671 88.9336 165.786 88.9336C167.934 88.9336 169.82 89.3354 171.447 90.1375C173.072 90.9404 174.334 92.0397 175.23 93.4369C176.137 94.8335 176.59 96.4282 176.59 98.221C176.59 99.4201 176.361 100.598 175.903 101.755C175.444 102.911 174.636 104.194 173.479 105.601C172.333 107.008 170.722 108.712 168.647 110.714L163.129 116.327V116.546H177.075V121.393H155.123Z" fill="#37434F"/>
<path d="M145.831 142.719H143.563V135.714H145.903C146.589 135.714 147.179 135.854 147.671 136.135C148.163 136.413 148.541 136.813 148.803 137.335C149.068 137.855 149.2 138.479 149.2 139.206C149.2 139.936 149.066 140.562 148.799 141.087C148.535 141.612 148.152 142.015 147.651 142.298C147.149 142.578 146.542 142.719 145.831 142.719ZM144.62 141.795H145.772C146.306 141.795 146.75 141.695 147.103 141.494C147.457 141.291 147.721 140.998 147.897 140.615C148.072 140.23 148.16 139.76 148.16 139.206C148.16 138.656 148.072 138.19 147.897 137.807C147.724 137.424 147.465 137.133 147.12 136.935C146.776 136.737 146.348 136.638 145.838 136.638H144.62V141.795ZM150.95 142.719H149.829L152.349 135.714H153.57L156.091 142.719H154.969L152.989 136.987H152.934L150.95 142.719ZM151.139 139.976H154.778V140.864H151.139V139.976ZM156.04 135.714H157.241L159.07 138.898H159.146L160.976 135.714H162.176L159.635 139.969V142.719H158.581V139.969L156.04 135.714ZM167.186 137.554C167.15 137.23 167 136.98 166.735 136.801C166.471 136.621 166.138 136.531 165.736 136.531C165.449 136.531 165.2 136.577 164.991 136.668C164.781 136.757 164.618 136.88 164.502 137.037C164.388 137.193 164.331 137.369 164.331 137.568C164.331 137.734 164.369 137.878 164.447 137.998C164.527 138.12 164.631 138.221 164.758 138.303C164.888 138.383 165.028 138.45 165.176 138.505C165.323 138.557 165.467 138.6 165.603 138.635L166.287 138.812C166.511 138.867 166.74 138.942 166.975 139.035C167.209 139.128 167.427 139.251 167.628 139.405C167.828 139.557 167.991 139.747 168.114 139.972C168.239 140.198 168.302 140.468 168.302 140.783C168.302 141.18 168.199 141.532 167.994 141.839C167.791 142.148 167.495 142.39 167.108 142.568C166.723 142.746 166.256 142.835 165.709 142.835C165.184 142.835 164.731 142.752 164.348 142.585C163.965 142.419 163.665 142.183 163.448 141.877C163.231 141.57 163.112 141.204 163.089 140.783H164.15C164.17 141.036 164.252 141.247 164.395 141.416C164.542 141.582 164.728 141.706 164.953 141.788C165.181 141.868 165.431 141.908 165.703 141.908C166.001 141.908 166.267 141.861 166.499 141.768C166.734 141.672 166.919 141.539 167.053 141.371C167.188 141.2 167.255 141.001 167.255 140.772C167.255 140.565 167.196 140.395 167.077 140.263C166.961 140.13 166.803 140.021 166.602 139.934C166.404 139.848 166.179 139.771 165.928 139.705L165.101 139.48C164.539 139.327 164.095 139.102 163.767 138.805C163.441 138.51 163.277 138.118 163.277 137.629C163.277 137.226 163.387 136.874 163.606 136.572C163.824 136.272 164.121 136.038 164.495 135.871C164.869 135.703 165.29 135.618 165.76 135.618C166.235 135.618 166.653 135.701 167.016 135.868C167.38 136.034 167.668 136.263 167.878 136.555C168.087 136.845 168.197 137.178 168.206 137.554H167.186Z" fill="#64778C"/>
<path d="M210.18 56.2104H101.872C99.7819 56.2104 98.0879 57.9045 98.0879 59.9942V168.687C98.0879 170.777 99.7819 172.471 101.872 172.471H210.18C212.27 172.471 213.964 170.777 213.964 168.687V59.9942C213.964 57.9045 212.27 56.2104 210.18 56.2104Z" stroke="#DDE7F0" stroke-width="0.687954"/>
</g>
<path d="M206.444 181.933H105.315C103.225 181.933 101.531 183.627 101.531 185.717V204.98C101.531 207.069 103.225 208.763 105.315 208.763H206.444C208.534 208.763 210.228 207.069 210.228 204.98V185.717C210.228 183.627 208.534 181.933 206.444 181.933Z" fill="white"/>
<path d="M115.725 192.471H116.572V197.478C116.572 197.925 116.49 198.305 116.327 198.617C116.162 198.93 115.93 199.167 115.632 199.329C115.333 199.49 114.981 199.572 114.575 199.572C114.192 199.572 113.851 199.502 113.553 199.363C113.254 199.221 113.019 199.021 112.848 198.761C112.677 198.501 112.592 198.192 112.592 197.834H113.426C113.426 198.033 113.475 198.206 113.573 198.354C113.673 198.5 113.81 198.614 113.984 198.696C114.157 198.778 114.354 198.819 114.575 198.819C114.819 198.819 115.026 198.768 115.198 198.665C115.368 198.562 115.498 198.412 115.588 198.213C115.679 198.013 115.725 197.768 115.725 197.478V192.471ZM121.474 197.328V194.222H122.281V199.476H121.474V198.586H121.419C121.296 198.853 121.105 199.08 120.844 199.267C120.584 199.452 120.256 199.544 119.859 199.544C119.531 199.544 119.239 199.472 118.984 199.329C118.728 199.183 118.528 198.964 118.382 198.672C118.236 198.378 118.163 198.007 118.163 197.561V194.222H118.971V197.506C118.971 197.889 119.077 198.194 119.292 198.422C119.508 198.65 119.784 198.765 120.119 198.765C120.32 198.765 120.524 198.713 120.732 198.61C120.941 198.508 121.117 198.35 121.259 198.138C121.402 197.927 121.474 197.656 121.474 197.328ZM124.566 196.315V199.476H123.759V194.222H124.54V195.043H124.608C124.731 194.776 124.918 194.562 125.168 194.4C125.419 194.236 125.743 194.154 126.14 194.154C126.495 194.154 126.807 194.227 127.073 194.373C127.34 194.516 127.548 194.735 127.696 195.03C127.844 195.321 127.918 195.691 127.918 196.137V199.476H127.111V196.192C127.111 195.779 127.004 195.458 126.79 195.228C126.575 194.995 126.281 194.879 125.907 194.879C125.65 194.879 125.419 194.935 125.216 195.047C125.016 195.158 124.857 195.321 124.741 195.535C124.625 195.75 124.566 196.01 124.566 196.315ZM132.088 199.476V198.86L134.401 196.329C134.672 196.033 134.895 195.775 135.071 195.556C135.247 195.335 135.376 195.127 135.461 194.933C135.547 194.737 135.591 194.532 135.591 194.318C135.591 194.072 135.532 193.859 135.413 193.678C135.296 193.498 135.137 193.359 134.934 193.261C134.731 193.163 134.503 193.114 134.25 193.114C133.981 193.114 133.746 193.17 133.546 193.282C133.347 193.391 133.193 193.545 133.084 193.743C132.977 193.942 132.923 194.175 132.923 194.441H132.116C132.116 194.031 132.21 193.67 132.399 193.361C132.589 193.05 132.847 192.808 133.173 192.636C133.501 192.462 133.87 192.375 134.277 192.375C134.688 192.375 135.051 192.462 135.369 192.636C135.686 192.808 135.934 193.042 136.114 193.337C136.294 193.63 136.384 193.958 136.384 194.318C136.384 194.576 136.337 194.827 136.244 195.074C136.153 195.318 135.993 195.59 135.766 195.892C135.539 196.19 135.226 196.555 134.824 196.985L133.251 198.668V198.723H136.507V199.476H132.088ZM140.287 199.572C139.835 199.572 139.433 199.494 139.079 199.339C138.729 199.183 138.449 198.968 138.241 198.692C138.036 198.414 137.924 198.092 137.906 197.724H138.768C138.786 197.95 138.864 198.145 139.001 198.309C139.138 198.471 139.317 198.597 139.538 198.685C139.759 198.775 140.004 198.819 140.273 198.819C140.574 198.819 140.841 198.767 141.073 198.661C141.306 198.557 141.489 198.411 141.621 198.224C141.753 198.037 141.819 197.82 141.819 197.574C141.819 197.316 141.755 197.089 141.628 196.893C141.5 196.695 141.313 196.54 141.067 196.428C140.821 196.317 140.519 196.26 140.164 196.26H139.603V195.508H140.164C140.442 195.508 140.686 195.458 140.896 195.358C141.107 195.257 141.273 195.116 141.392 194.933C141.512 194.751 141.573 194.537 141.573 194.291C141.573 194.053 141.52 193.847 141.416 193.672C141.31 193.496 141.163 193.359 140.971 193.261C140.781 193.163 140.558 193.114 140.301 193.114C140.059 193.114 139.831 193.158 139.617 193.247C139.404 193.334 139.231 193.46 139.097 193.627C138.962 193.791 138.889 193.989 138.878 194.222H138.057C138.07 193.855 138.181 193.533 138.389 193.257C138.596 192.98 138.868 192.763 139.203 192.608C139.54 192.453 139.91 192.375 140.314 192.375C140.747 192.375 141.119 192.463 141.429 192.639C141.739 192.812 141.978 193.041 142.144 193.326C142.311 193.611 142.393 193.919 142.393 194.249C142.393 194.644 142.29 194.98 142.082 195.259C141.877 195.537 141.598 195.729 141.244 195.837V195.892C141.687 195.965 142.032 196.152 142.28 196.456C142.529 196.756 142.653 197.129 142.653 197.574C142.653 197.955 142.55 198.297 142.342 198.6C142.137 198.901 141.857 199.138 141.501 199.311C141.145 199.485 140.741 199.572 140.287 199.572ZM144.066 199.476V194.222H144.846V195.016H144.901C144.996 194.756 145.17 194.545 145.42 194.383C145.671 194.221 145.954 194.14 146.269 194.14C146.328 194.14 146.402 194.141 146.491 194.144C146.58 194.146 146.647 194.149 146.693 194.154V194.975C146.665 194.968 146.603 194.957 146.505 194.944C146.409 194.928 146.308 194.92 146.2 194.92C145.945 194.92 145.717 194.973 145.517 195.081C145.318 195.186 145.16 195.332 145.044 195.519C144.93 195.703 144.873 195.914 144.873 196.151V199.476H144.066ZM149.474 199.585C149.035 199.585 148.65 199.474 148.314 199.254C147.979 199.03 147.717 198.715 147.527 198.309C147.338 197.901 147.243 197.419 147.243 196.862C147.243 196.311 147.338 195.832 147.527 195.426C147.717 195.02 147.98 194.707 148.317 194.485C148.655 194.265 149.045 194.154 149.487 194.154C149.829 194.154 150.099 194.211 150.298 194.325C150.498 194.437 150.651 194.565 150.756 194.708C150.863 194.849 150.947 194.966 151.006 195.056H151.074V192.471H151.882V199.476H151.101V198.668H151.006C150.947 198.765 150.862 198.885 150.753 199.031C150.643 199.175 150.487 199.303 150.284 199.417C150.081 199.53 149.811 199.585 149.474 199.585ZM149.583 198.86C149.906 198.86 150.18 198.776 150.404 198.607C150.627 198.436 150.797 198.2 150.914 197.899C151.03 197.596 151.088 197.246 151.088 196.849C151.088 196.456 151.031 196.114 150.917 195.819C150.803 195.523 150.634 195.292 150.411 195.129C150.187 194.962 149.911 194.879 149.583 194.879C149.241 194.879 148.956 194.967 148.728 195.142C148.502 195.316 148.332 195.552 148.218 195.85C148.107 196.147 148.05 196.48 148.05 196.849C148.05 197.223 148.107 197.563 148.222 197.868C148.338 198.172 148.509 198.413 148.735 198.593C148.963 198.771 149.245 198.86 149.583 198.86ZM154.675 198.518L154.621 198.888C154.582 199.147 154.523 199.426 154.443 199.722C154.366 200.019 154.285 200.298 154.2 200.56C154.116 200.822 154.047 201.031 153.992 201.186H153.376C153.405 201.04 153.445 200.847 153.492 200.608C153.54 200.368 153.588 200.101 153.636 199.804C153.686 199.51 153.727 199.209 153.759 198.901L153.8 198.518H154.675ZM158.866 199.476V198.86L161.179 196.329C161.45 196.033 161.673 195.775 161.849 195.556C162.024 195.335 162.154 195.127 162.239 194.933C162.325 194.737 162.369 194.532 162.369 194.318C162.369 194.072 162.31 193.859 162.191 193.678C162.074 193.498 161.915 193.359 161.712 193.261C161.509 193.163 161.281 193.114 161.028 193.114C160.759 193.114 160.524 193.17 160.323 193.282C160.125 193.391 159.971 193.545 159.862 193.743C159.754 193.942 159.701 194.175 159.701 194.441H158.894C158.894 194.031 158.988 193.67 159.177 193.361C159.366 193.05 159.624 192.808 159.951 192.636C160.279 192.462 160.647 192.375 161.055 192.375C161.465 192.375 161.829 192.462 162.147 192.636C162.463 192.808 162.712 193.042 162.892 193.337C163.072 193.63 163.162 193.958 163.162 194.318C163.162 194.576 163.115 194.827 163.022 195.074C162.931 195.318 162.771 195.59 162.543 195.892C162.317 196.19 162.004 196.555 161.602 196.985L160.029 198.668V198.723H163.285V199.476H158.866ZM166.982 199.572C166.467 199.572 166.028 199.431 165.665 199.15C165.303 198.868 165.026 198.459 164.834 197.923C164.643 197.384 164.547 196.735 164.547 195.973C164.547 195.216 164.643 194.57 164.834 194.034C165.028 193.496 165.306 193.085 165.669 192.803C166.034 192.518 166.472 192.375 166.982 192.375C167.493 192.375 167.93 192.518 168.293 192.803C168.657 193.085 168.935 193.496 169.127 194.034C169.32 194.57 169.418 195.216 169.418 195.973C169.418 196.735 169.322 197.384 169.131 197.923C168.939 198.459 168.662 198.868 168.3 199.15C167.937 199.431 167.498 199.572 166.982 199.572ZM166.982 198.819C167.493 198.819 167.89 198.573 168.173 198.08C168.456 197.587 168.597 196.886 168.597 195.973C168.597 195.367 168.532 194.85 168.402 194.424C168.274 193.998 168.09 193.673 167.848 193.449C167.608 193.226 167.32 193.114 166.982 193.114C166.476 193.114 166.081 193.363 165.795 193.863C165.511 194.36 165.368 195.063 165.368 195.973C165.368 196.58 165.432 197.096 165.559 197.519C165.687 197.943 165.871 198.266 166.111 198.487C166.352 198.708 166.643 198.819 166.982 198.819ZM170.717 199.476V198.86L173.029 196.329C173.301 196.033 173.524 195.775 173.7 195.556C173.875 195.335 174.005 195.127 174.089 194.933C174.176 194.737 174.219 194.532 174.219 194.318C174.219 194.072 174.16 193.859 174.042 193.678C173.926 193.498 173.766 193.359 173.563 193.261C173.36 193.163 173.132 193.114 172.879 193.114C172.61 193.114 172.375 193.17 172.174 193.282C171.976 193.391 171.822 193.545 171.713 193.743C171.605 193.942 171.552 194.175 171.552 194.441H170.745C170.745 194.031 170.839 193.67 171.029 193.361C171.218 193.05 171.476 192.808 171.801 192.636C172.13 192.462 172.498 192.375 172.906 192.375C173.317 192.375 173.681 192.462 173.997 192.636C174.314 192.808 174.563 193.042 174.743 193.337C174.923 193.63 175.013 193.958 175.013 194.318C175.013 194.576 174.967 194.827 174.873 195.074C174.781 195.318 174.622 195.59 174.394 195.892C174.169 196.19 173.855 196.555 173.454 196.985L171.88 198.668V198.723H175.136V199.476H170.717ZM176.549 199.476V198.86L178.861 196.329C179.132 196.033 179.356 195.775 179.531 195.556C179.707 195.335 179.837 195.127 179.921 194.933C180.008 194.737 180.051 194.532 180.051 194.318C180.051 194.072 179.992 193.859 179.873 193.678C179.757 193.498 179.597 193.359 179.394 193.261C179.191 193.163 178.964 193.114 178.71 193.114C178.441 193.114 178.207 193.17 178.006 193.282C177.808 193.391 177.654 193.545 177.544 193.743C177.437 193.942 177.383 194.175 177.383 194.441H176.576C176.576 194.031 176.671 193.67 176.86 193.361C177.05 193.05 177.307 192.808 177.633 192.636C177.961 192.462 178.33 192.375 178.738 192.375C179.148 192.375 179.512 192.462 179.829 192.636C180.145 192.808 180.394 193.042 180.575 193.337C180.754 193.63 180.844 193.958 180.844 194.318C180.844 194.576 180.798 194.827 180.705 195.074C180.613 195.318 180.454 195.59 180.225 195.892C180 196.19 179.687 196.555 179.285 196.985L177.711 198.668V198.723H180.968V199.476H176.549Z" fill="#64778C"/>
<path d="M192.514 191.221H195.61V190.361C195.61 190.081 195.824 189.845 196.126 189.845C196.405 189.845 196.642 190.081 196.642 190.361V191.221H197.502C198.254 191.221 198.877 191.844 198.877 192.597V199.476C198.877 200.25 198.254 200.852 197.502 200.852H190.622C189.848 200.852 189.246 200.25 189.246 199.476V192.597C189.246 191.844 189.848 191.221 190.622 191.221H191.482V190.361C191.482 190.081 191.697 189.845 191.998 189.845C192.277 189.845 192.514 190.081 192.514 190.361V191.221ZM190.278 199.476C190.278 199.669 190.429 199.82 190.622 199.82H197.502C197.674 199.82 197.846 199.669 197.846 199.476V193.972H190.278V199.476Z" fill="#C1CFDE"/>
<path d="M206.444 181.933H105.315C103.225 181.933 101.531 183.627 101.531 185.717V204.98C101.531 207.069 103.225 208.763 105.315 208.763H206.444C208.534 208.763 210.228 207.069 210.228 204.98V185.717C210.228 183.627 208.534 181.933 206.444 181.933Z" stroke="#EBF2F7" stroke-width="0.687954"/>
<defs>
<filter id="filter0_ddd_638_2490" x="90.1766" y="51.051" width="131.699" height="132.083" filterUnits="userSpaceOnUse" color-interpolation-filters="sRGB">
<feFlood flood-opacity="0" result="BackgroundImageFix"/>
<feColorMatrix in="SourceAlpha" type="matrix" values="0 0 0 0 0 0 0 0 0 0 0 0 0 0 0 0 0 0 127 0" result="hardAlpha"/>
<feOffset dy="0.343977"/>
<feGaussianBlur stdDeviation="0.343977"/>
<feColorMatrix type="matrix" values="0 0 0 0 0.152941 0 0 0 0 0.196078 0 0 0 0 0.337255 0 0 0 0.15 0"/>
<feBlend mode="normal" in2="BackgroundImageFix" result="effect1_dropShadow_638_2490"/>
<feColorMatrix in="SourceAlpha" type="matrix" values="0 0 0 0 0 0 0 0 0 0 0 0 0 0 0 0 0 0 127 0" result="hardAlpha"/>
<feOffset dy="1.78358"/>
<feGaussianBlur stdDeviation="2.21594"/>
<feColorMatrix type="matrix" values="0 0 0 0 0.152941 0 0 0 0 0.196078 0 0 0 0 0.337255 0 0 0 0.08 0"/>
<feBlend mode="normal" in2="effect1_dropShadow_638_2490" result="effect2_dropShadow_638_2490"/>
<feColorMatrix in="SourceAlpha" type="matrix" values="0 0 0 0 0 0 0 0 0 0 0 0 0 0 0 0 0 0 127 0" result="hardAlpha"/>
<feOffset dy="2.75182"/>
<feGaussianBlur stdDeviation="3.78375"/>
<feColorMatrix type="matrix" values="0 0 0 0 0.152941 0 0 0 0 0.196078 0 0 0 0 0.337255 0 0 0 0.04 0"/>
<feBlend mode="normal" in2="effect2_dropShadow_638_2490" result="effect3_dropShadow_638_2490"/>
<feBlend mode="normal" in="SourceGraphic" in2="effect3_dropShadow_638_2490" result="shape"/>
</filter>
</defs>
</svg>
