<svg width="300" height="124" viewBox="0 0 300 124" fill="none" xmlns="http://www.w3.org/2000/svg">
<path d="M296 0.5H4C2.067 0.5 0.5 2.067 0.5 4V120C0.5 121.933 2.067 123.5 4 123.5H296C297.933 123.5 299.5 121.933 299.5 120V4C299.5 2.067 297.933 0.5 296 0.5Z" fill="#E8ECF2"/>
<path d="M55.321 33V22.09H56.642V31.828H61.713V33H55.321ZM66.911 33.17C66.173 33.17 65.525 32.995 64.968 32.643C64.4056 32.2822 63.9553 31.7713 63.668 31.168C63.359 30.535 63.205 29.797 63.205 28.952C63.205 28.099 63.359 27.355 63.668 26.72C63.981 26.084 64.414 25.59 64.968 25.239C65.525 24.887 66.173 24.712 66.912 24.712C67.651 24.712 68.297 24.887 68.851 25.239C69.408 25.591 69.841 26.084 70.151 26.719C70.463 27.355 70.619 28.099 70.619 28.952C70.619 29.797 70.463 30.535 70.151 31.168C69.8659 31.7727 69.4151 32.2842 68.851 32.643C68.297 32.995 67.651 33.17 66.911 33.17ZM66.911 32.041C67.473 32.041 67.935 31.897 68.297 31.61C68.659 31.322 68.927 30.944 69.101 30.475C69.275 30.006 69.362 29.499 69.362 28.952C69.362 28.405 69.275 27.895 69.102 27.422C68.9443 26.9737 68.6657 26.5778 68.297 26.278C67.935 25.987 67.473 25.841 66.912 25.841C66.351 25.841 65.889 25.986 65.527 26.278C65.165 26.568 64.897 26.951 64.723 27.423C64.5459 27.9131 64.4575 28.4309 64.462 28.952C64.462 29.499 64.549 30.006 64.722 30.475C64.897 30.944 65.165 31.322 65.527 31.61C65.889 31.897 66.35 32.041 66.911 32.041ZM72.538 33V24.818H73.753V26.054H73.838C73.988 25.649 74.257 25.321 74.648 25.069C75.038 24.816 75.478 24.69 75.968 24.69C76.061 24.69 76.176 24.692 76.315 24.696C76.453 24.699 76.558 24.704 76.629 24.712V25.99C76.532 25.9701 76.4343 25.9541 76.336 25.942C76.1793 25.9167 76.0207 25.9043 75.862 25.905C75.464 25.905 75.109 25.988 74.797 26.155C74.4909 26.3114 74.2348 26.5505 74.0579 26.8452C73.8809 27.1399 73.7902 27.4783 73.796 27.822V33H72.538ZM81.301 33.17C80.512 33.17 79.832 32.996 79.261 32.648C78.6906 32.2942 78.2338 31.784 77.945 31.178C77.639 30.546 77.487 29.811 77.487 28.973C77.487 28.135 77.639 27.396 77.945 26.757C78.254 26.114 78.684 25.614 79.234 25.255C79.788 24.893 80.434 24.712 81.173 24.712C81.599 24.712 82.02 24.782 82.435 24.925C82.851 25.067 83.229 25.298 83.57 25.617C83.91 25.933 84.182 26.352 84.385 26.874C84.587 27.396 84.688 28.039 84.688 28.803V29.335H78.382V28.25H83.41C83.41 27.788 83.318 27.376 83.133 27.014C82.9598 26.6604 82.6901 26.3629 82.355 26.156C82.022 25.946 81.627 25.842 81.173 25.842C80.673 25.842 80.239 25.966 79.873 26.215C79.511 26.46 79.233 26.779 79.037 27.174C78.8418 27.5677 78.7415 28.0016 78.744 28.441V29.166C78.744 29.784 78.85 30.308 79.064 30.737C79.28 31.163 79.58 31.488 79.964 31.712C80.347 31.932 80.793 32.042 81.301 32.042C81.631 32.042 81.929 31.996 82.196 31.904C82.466 31.808 82.698 31.666 82.893 31.478C83.089 31.286 83.24 31.048 83.346 30.764L84.561 31.104C84.4353 31.5124 84.2142 31.885 83.916 32.191C83.5995 32.5099 83.2182 32.7571 82.798 32.916C82.3189 33.0924 81.8114 33.1788 81.301 33.171V33.17ZM86.601 33V24.818H87.815V26.097H87.922C88.092 25.66 88.368 25.321 88.747 25.079C89.127 24.834 89.584 24.712 90.117 24.712C90.657 24.712 91.105 24.834 91.464 25.079C91.826 25.321 92.109 25.659 92.311 26.097H92.396C92.606 25.674 92.92 25.338 93.339 25.09C93.759 24.838 94.261 24.712 94.847 24.712C95.578 24.712 96.177 24.941 96.642 25.399C97.107 25.853 97.339 26.562 97.339 27.524V33H96.082V27.524C96.082 26.92 95.917 26.489 95.587 26.23C95.257 25.97 94.867 25.84 94.42 25.84C93.845 25.84 93.4 26.015 93.083 26.363C92.767 26.707 92.609 27.144 92.609 27.673V33H91.331V27.396C91.331 26.931 91.18 26.556 90.878 26.272C90.576 25.985 90.188 25.841 89.712 25.841C89.385 25.841 89.079 25.928 88.795 26.101C88.515 26.276 88.288 26.517 88.114 26.826C87.9386 27.1513 87.8504 27.5165 87.858 27.886V33H86.6H86.601ZM103.857 33V24.818H105.114V33H103.857ZM104.496 23.454C104.26 23.4576 104.032 23.3678 103.862 23.204C103.779 23.1276 103.712 23.0346 103.667 22.9308C103.622 22.8271 103.6 22.7151 103.601 22.602C103.601 22.368 103.688 22.167 103.861 22C104.031 21.836 104.26 21.7461 104.496 21.75C104.741 21.75 104.95 21.834 105.124 22C105.209 22.0755 105.277 22.1683 105.323 22.2721C105.369 22.376 105.392 22.4884 105.391 22.602C105.392 22.7156 105.369 22.828 105.323 22.9319C105.277 23.0357 105.209 23.1285 105.124 23.204C105.041 23.2852 104.943 23.3492 104.835 23.3921C104.727 23.435 104.612 23.4561 104.496 23.454ZM107.416 36.068V24.818H108.631V26.118H108.78C108.872 25.976 109 25.795 109.163 25.575C109.33 25.351 109.568 25.152 109.877 24.978C110.19 24.8 110.612 24.712 111.145 24.712C111.834 24.712 112.441 24.884 112.967 25.228C113.492 25.573 113.902 26.061 114.197 26.693C114.492 27.325 114.639 28.071 114.639 28.93C114.639 29.797 114.492 30.548 114.197 31.184C113.902 31.816 113.494 32.306 112.972 32.654C112.45 32.998 111.848 33.17 111.166 33.17C110.641 33.17 110.22 33.083 109.904 32.91C109.622 32.7611 109.374 32.5563 109.174 32.308C109.035 32.1253 108.903 31.9368 108.78 31.743H108.673V36.068H107.416ZM108.652 28.909C108.652 29.527 108.742 30.072 108.924 30.544C109.104 31.014 109.369 31.381 109.717 31.647C110.065 31.91 110.492 32.041 110.996 32.041C111.521 32.041 111.96 31.903 112.311 31.626C112.677 31.3307 112.954 30.9395 113.111 30.496C113.297 29.988 113.389 29.4501 113.382 28.909C113.382 28.334 113.293 27.815 113.116 27.354C112.963 26.9176 112.687 26.5346 112.322 26.251C111.97 25.978 111.528 25.841 110.996 25.841C110.484 25.841 110.055 25.971 109.706 26.23C109.359 26.485 109.096 26.844 108.918 27.306C108.741 27.764 108.652 28.298 108.652 28.909ZM122.352 26.651L121.223 26.971C121.147 26.7728 121.041 26.5874 120.909 26.421C120.762 26.2304 120.572 26.0772 120.355 25.974C120.12 25.857 119.82 25.798 119.455 25.798C118.954 25.798 118.537 25.914 118.203 26.145C117.873 26.372 117.707 26.661 117.707 27.013C117.707 27.325 117.821 27.573 118.048 27.753C118.276 27.934 118.631 28.085 119.114 28.206L120.328 28.504C121.06 28.682 121.605 28.954 121.963 29.319C122.323 29.682 122.501 30.149 122.501 30.72C122.501 31.189 122.366 31.608 122.097 31.977C121.83 32.347 121.457 32.637 120.978 32.851C120.498 33.064 119.941 33.171 119.305 33.171C118.471 33.171 117.78 32.989 117.233 32.627C116.686 32.265 116.34 31.736 116.195 31.04L117.388 30.741C117.501 31.181 117.716 31.512 118.032 31.732C118.352 31.952 118.769 32.062 119.284 32.062C119.87 32.062 120.335 31.938 120.68 31.69C121.028 31.437 121.202 31.136 121.202 30.784C121.202 30.5 121.102 30.262 120.903 30.07C120.704 29.875 120.399 29.73 119.987 29.634L118.624 29.314C117.874 29.136 117.324 28.861 116.972 28.488C116.624 28.112 116.45 27.641 116.45 27.077C116.45 26.615 116.58 26.207 116.84 25.852C117.102 25.496 117.459 25.218 117.91 25.015C118.364 24.813 118.88 24.712 119.454 24.712C120.264 24.712 120.9 24.889 121.362 25.244C121.827 25.599 122.157 26.068 122.352 26.651ZM129.55 29.655V24.818H130.807V33H129.55V31.615H129.465C129.273 32.031 128.975 32.384 128.57 32.675C128.165 32.963 127.654 33.106 127.036 33.106C126.524 33.106 126.07 32.995 125.672 32.771C125.274 32.544 124.962 32.203 124.735 31.748C124.507 31.29 124.394 30.713 124.394 30.017V24.818H125.651V29.932C125.651 30.528 125.818 31.004 126.151 31.359C126.489 31.714 126.919 31.892 127.441 31.892C127.753 31.892 128.071 31.812 128.394 31.652C128.721 31.492 128.994 31.247 129.214 30.917C129.438 30.587 129.55 30.167 129.55 29.655ZM133.11 33V24.818H134.324V26.097H134.431C134.601 25.66 134.876 25.321 135.256 25.079C135.636 24.834 136.093 24.712 136.625 24.712C137.165 24.712 137.614 24.834 137.973 25.079C138.335 25.321 138.617 25.659 138.82 26.097H138.905C139.115 25.674 139.429 25.338 139.848 25.09C140.267 24.838 140.769 24.712 141.355 24.712C142.087 24.712 142.685 24.941 143.15 25.399C143.616 25.853 143.848 26.562 143.848 27.524V33H142.591V27.524C142.591 26.92 142.426 26.489 142.096 26.23C141.763 25.9696 141.351 25.8318 140.929 25.84C140.354 25.84 139.908 26.015 139.592 26.363C139.276 26.707 139.118 27.144 139.118 27.673V33H137.84V27.396C137.84 26.931 137.689 26.556 137.387 26.272C137.085 25.985 136.696 25.841 136.22 25.841C135.894 25.841 135.588 25.928 135.304 26.101C135.024 26.276 134.796 26.517 134.622 26.826C134.452 27.132 134.367 27.486 134.367 27.886V33H133.11ZM153.455 33.17C152.773 33.17 152.171 32.998 151.649 32.654C151.127 32.306 150.719 31.816 150.424 31.184C150.129 30.548 149.982 29.797 149.982 28.93C149.982 28.071 150.129 27.325 150.424 26.693C150.719 26.061 151.129 25.573 151.654 25.228C152.18 24.884 152.787 24.712 153.476 24.712C154.009 24.712 154.43 24.8 154.739 24.978C155.051 25.152 155.289 25.351 155.452 25.575C155.619 25.795 155.749 25.975 155.841 26.118H155.948V22.09H157.205V33H155.99V31.743H155.841C155.749 31.892 155.618 32.08 155.447 32.307C155.277 32.531 155.033 32.732 154.717 32.909C154.401 33.084 153.98 33.17 153.455 33.17ZM153.625 32.041C154.13 32.041 154.556 31.91 154.904 31.647C155.252 31.381 155.516 31.013 155.697 30.544C155.879 30.072 155.969 29.527 155.969 28.909C155.969 28.299 155.88 27.764 155.703 27.306C155.525 26.844 155.262 26.486 154.914 26.23C154.566 25.97 154.137 25.84 153.625 25.84C153.093 25.84 152.649 25.978 152.294 26.251C151.942 26.521 151.678 26.888 151.5 27.354C151.326 27.815 151.239 28.334 151.239 28.909C151.239 29.491 151.328 30.021 151.505 30.496C151.664 30.9379 151.94 31.3284 152.304 31.626C152.659 31.903 153.1 32.041 153.625 32.041ZM163.006 33.171C162.267 33.171 161.619 32.995 161.061 32.643C160.499 32.2822 160.049 31.7713 159.762 31.168C159.453 30.535 159.298 29.797 159.298 28.952C159.298 28.099 159.453 27.355 159.762 26.72C160.074 26.084 160.507 25.59 161.061 25.239C161.619 24.887 162.267 24.712 163.006 24.712C163.744 24.712 164.391 24.887 164.945 25.239C165.502 25.591 165.935 26.084 166.244 26.719C166.557 27.355 166.713 28.099 166.713 28.952C166.713 29.797 166.557 30.535 166.244 31.168C165.959 31.7725 165.509 32.284 164.945 32.643C164.391 32.995 163.744 33.17 163.006 33.17V33.171ZM163.006 32.041C163.567 32.041 164.028 31.897 164.391 31.61C164.753 31.322 165.021 30.944 165.195 30.475C165.369 30.006 165.456 29.499 165.456 28.952C165.456 28.405 165.369 27.895 165.195 27.422C165.038 26.9739 164.759 26.578 164.391 26.278C164.028 25.987 163.567 25.841 163.006 25.841C162.445 25.841 161.983 25.986 161.621 26.278C161.252 26.5782 160.974 26.9744 160.816 27.423C160.639 27.9131 160.551 28.4309 160.555 28.952C160.555 29.499 160.642 30.006 160.816 30.475C160.99 30.944 161.259 31.322 161.621 31.61C161.983 31.897 162.445 32.041 163.006 32.041ZM169.889 22.091V33H168.632V22.09L169.889 22.091ZM175.515 33.171C174.777 33.171 174.129 32.995 173.571 32.643C173.017 32.291 172.584 31.8 172.271 31.168C171.963 30.535 171.808 29.797 171.808 28.952C171.808 28.099 171.963 27.355 172.271 26.72C172.584 26.084 173.017 25.59 173.571 25.239C174.129 24.887 174.777 24.712 175.515 24.712C176.254 24.712 176.9 24.887 177.454 25.239C178.012 25.591 178.445 26.084 178.754 26.719C179.067 27.355 179.223 28.099 179.223 28.952C179.223 29.797 179.067 30.535 178.754 31.168C178.469 31.7728 178.018 32.2843 177.454 32.643C176.9 32.995 176.254 33.17 175.515 33.17V33.171ZM175.515 32.041C176.077 32.041 176.538 31.897 176.9 31.61C177.263 31.322 177.531 30.944 177.705 30.475C177.879 30.006 177.966 29.499 177.966 28.952C177.966 28.405 177.879 27.895 177.705 27.422C177.548 26.9736 177.269 26.5776 176.9 26.278C176.538 25.987 176.077 25.841 175.515 25.841C174.954 25.841 174.493 25.986 174.131 26.278C173.762 26.5779 173.483 26.9743 173.326 27.423C173.149 27.9131 173.061 28.4309 173.065 28.952C173.065 29.499 173.152 30.006 173.326 30.475C173.5 30.944 173.768 31.322 174.131 31.61C174.493 31.897 174.954 32.041 175.515 32.041ZM181.142 33V24.818H182.356V26.054H182.441C182.591 25.649 182.861 25.321 183.251 25.069C183.645 24.8157 184.104 24.6839 184.572 24.69C184.665 24.69 184.78 24.692 184.918 24.696C185.023 24.6977 185.128 24.7031 185.233 24.712V25.99C185.136 25.9702 185.038 25.9542 184.94 25.942C184.783 25.9167 184.625 25.9043 184.466 25.905C184.095 25.8985 183.729 25.9844 183.4 26.155C183.091 26.318 182.846 26.545 182.665 26.837C182.485 27.1337 182.393 27.4752 182.399 27.822V33H181.142ZM196.737 26.65L195.608 26.97C195.531 26.7726 195.426 26.5879 195.294 26.422C195.147 26.2312 194.957 26.0777 194.74 25.974C194.505 25.857 194.205 25.798 193.839 25.798C193.339 25.798 192.921 25.914 192.588 26.145C192.257 26.372 192.092 26.661 192.092 27.013C192.092 27.325 192.206 27.573 192.433 27.753C192.66 27.934 193.015 28.085 193.498 28.206L194.713 28.504C195.444 28.682 195.99 28.954 196.348 29.319C196.707 29.682 196.886 30.149 196.886 30.72C196.886 31.189 196.751 31.608 196.481 31.977C196.215 32.347 195.842 32.637 195.363 32.851C194.883 33.064 194.326 33.171 193.69 33.171C192.856 33.171 192.165 32.989 191.618 32.627C191.071 32.265 190.725 31.736 190.579 31.04L191.773 30.741C191.886 31.181 192.101 31.512 192.417 31.732C192.737 31.952 193.154 32.062 193.669 32.062C194.255 32.062 194.72 31.938 195.064 31.69C195.412 31.437 195.586 31.136 195.586 30.784C195.589 30.6507 195.564 30.5183 195.513 30.3953C195.462 30.2723 195.385 30.1614 195.288 30.07C195.089 29.875 194.784 29.73 194.372 29.634L193.008 29.314C192.259 29.136 191.709 28.861 191.357 28.488C191.009 28.112 190.835 27.641 190.835 27.077C190.835 26.615 190.965 26.207 191.224 25.852C191.487 25.496 191.844 25.218 192.295 25.015C192.749 24.813 193.264 24.712 193.839 24.712C194.649 24.712 195.285 24.889 195.746 25.244C196.211 25.599 196.542 26.067 196.737 26.65ZM198.778 33V24.818H200.036V33H198.778ZM199.418 23.454C199.182 23.4578 198.954 23.3679 198.784 23.204C198.701 23.1276 198.634 23.0346 198.589 22.9308C198.544 22.8271 198.522 22.7151 198.523 22.602C198.523 22.368 198.61 22.167 198.784 22C198.954 21.8361 199.182 21.7462 199.418 21.75C199.663 21.75 199.872 21.834 200.046 22C200.131 22.0755 200.199 22.1683 200.245 22.2721C200.291 22.3759 200.314 22.4884 200.313 22.602C200.314 22.7156 200.291 22.8281 200.245 22.9319C200.199 23.0357 200.131 23.1285 200.046 23.204C199.963 23.2853 199.865 23.3492 199.757 23.3922C199.649 23.4351 199.534 23.4561 199.418 23.454ZM205.896 24.818V25.884H201.656V24.818H205.896ZM202.892 22.858H204.149V30.656C204.149 31.011 204.201 31.278 204.304 31.456C204.394 31.6156 204.537 31.7392 204.708 31.806C204.875 31.864 205.051 31.892 205.236 31.892C205.374 31.892 205.488 31.885 205.577 31.871L205.79 31.828L206.045 32.958C205.929 32.9981 205.81 33.0299 205.689 33.053C205.498 33.0921 205.303 33.1099 205.108 33.106C204.748 33.1049 204.392 33.0268 204.064 32.877C203.726 32.7239 203.436 32.4832 203.222 32.18C203.002 31.867 202.892 31.473 202.892 30.997V22.858ZM214.414 33.192C213.895 33.192 213.425 33.094 213.002 32.899C212.593 32.7116 212.245 32.4146 211.995 32.041C211.747 31.665 211.623 31.211 211.623 30.678C211.623 30.208 211.715 29.828 211.9 29.538C212.084 29.243 212.331 29.012 212.64 28.845C212.949 28.678 213.29 28.554 213.663 28.472C214.039 28.387 214.417 28.32 214.797 28.27C215.294 28.206 215.697 28.158 216.006 28.126C216.319 28.091 216.546 28.032 216.688 27.95C216.834 27.869 216.907 27.727 216.907 27.524V27.481C216.907 26.956 216.763 26.548 216.475 26.256C216.191 25.966 215.76 25.82 215.181 25.82C214.581 25.82 214.11 25.951 213.769 26.214C213.428 26.477 213.189 26.757 213.05 27.055L211.857 26.629C212.07 26.132 212.354 25.745 212.709 25.468C213.068 25.188 213.458 24.992 213.881 24.882C214.307 24.768 214.726 24.712 215.138 24.712C215.401 24.712 215.703 24.744 216.044 24.808C216.388 24.868 216.72 24.994 217.04 25.186C217.363 25.378 217.631 25.666 217.844 26.054C218.057 26.441 218.164 26.959 218.164 27.609V33H216.907V31.892H216.843C216.732 32.1034 216.588 32.2958 216.417 32.462C216.188 32.684 215.919 32.8596 215.623 32.979C215.293 33.121 214.89 33.192 214.414 33.192ZM214.605 32.062C215.103 32.062 215.522 31.965 215.863 31.77C216.176 31.6005 216.437 31.3506 216.621 31.0461C216.804 30.7416 216.903 30.3935 216.907 30.038V28.888C216.853 28.952 216.736 29.01 216.555 29.064C216.377 29.114 216.172 29.158 215.937 29.197C215.537 29.2589 215.135 29.3123 214.733 29.357C214.422 29.396 214.115 29.4653 213.817 29.564C213.537 29.657 213.309 29.797 213.135 29.985C212.965 30.17 212.88 30.422 212.88 30.741C212.88 31.178 213.041 31.509 213.364 31.732C213.691 31.952 214.105 32.062 214.605 32.062ZM220.458 33V24.818H221.673V26.097H221.779C221.936 25.6768 222.226 25.3193 222.605 25.079C222.985 24.834 223.441 24.712 223.974 24.712C224.514 24.712 224.963 24.834 225.321 25.079C225.684 25.321 225.966 25.659 226.168 26.097H226.254C226.463 25.674 226.777 25.338 227.196 25.09C227.616 24.838 228.118 24.712 228.704 24.712C229.435 24.712 230.034 24.941 230.499 25.399C230.964 25.853 231.197 26.562 231.197 27.524V33H229.94V27.524C229.94 26.92 229.775 26.489 229.444 26.23C229.112 25.9696 228.7 25.8318 228.278 25.84C227.703 25.84 227.257 26.015 226.941 26.363C226.625 26.707 226.467 27.144 226.467 27.673V33H225.188V27.396C225.188 26.931 225.037 26.556 224.736 26.272C224.434 25.985 224.045 25.841 223.569 25.841C223.242 25.841 222.937 25.928 222.653 26.101C222.367 26.2802 222.132 26.5299 221.971 26.826C221.801 27.132 221.715 27.486 221.715 27.886V33H220.458ZM236.926 33.17C236.137 33.17 235.457 32.996 234.886 32.648C234.315 32.2943 233.859 31.7841 233.57 31.178C233.264 30.546 233.112 29.811 233.112 28.973C233.112 28.135 233.264 27.396 233.57 26.757C233.879 26.114 234.309 25.614 234.859 25.255C235.413 24.893 236.059 24.712 236.798 24.712C237.224 24.712 237.645 24.782 238.06 24.925C238.476 25.067 238.854 25.298 239.195 25.617C239.536 25.933 239.807 26.352 240.01 26.874C240.212 27.396 240.313 28.039 240.313 28.803V29.335H234.007V28.25H239.035C239.035 27.788 238.943 27.376 238.758 27.014C238.585 26.6602 238.315 26.3627 237.98 26.156C237.647 25.946 237.252 25.842 236.798 25.842C236.297 25.842 235.864 25.966 235.498 26.215C235.14 26.4555 234.851 26.7863 234.662 27.174C234.467 27.5677 234.367 28.0016 234.369 28.441V29.166C234.369 29.784 234.475 30.308 234.688 30.737C234.905 31.163 235.205 31.488 235.589 31.712C235.972 31.932 236.418 32.042 236.926 32.042C237.256 32.042 237.554 31.996 237.821 31.904C238.09 31.808 238.323 31.666 238.518 31.478C238.714 31.286 238.865 31.048 238.971 30.764L240.186 31.104C240.06 31.5124 239.839 31.8849 239.541 32.191C239.239 32.501 238.866 32.741 238.422 32.916C237.979 33.086 237.48 33.171 236.926 33.171V33.17ZM245.784 24.818V25.884H241.544V24.818H245.784ZM242.78 22.858H244.037V30.656C244.037 31.011 244.088 31.278 244.191 31.456C244.282 31.6155 244.425 31.739 244.596 31.806C244.763 31.864 244.939 31.892 245.123 31.892C245.262 31.892 245.376 31.885 245.464 31.871L245.677 31.828L245.933 32.958C245.816 32.9982 245.697 33.03 245.576 33.053C245.385 33.0922 245.191 33.1099 244.996 33.106C244.636 33.1049 244.28 33.0268 243.952 32.877C243.614 32.7242 243.323 32.4835 243.11 32.18C242.89 31.867 242.78 31.473 242.78 30.997V22.858ZM249.55 31.508L249.465 32.084C249.404 32.489 249.312 32.922 249.188 33.384C249.067 33.845 248.941 34.28 248.81 34.689C248.678 35.097 248.57 35.422 248.485 35.663H247.526L247.707 34.763C247.782 34.39 247.856 33.973 247.931 33.511C248.009 33.053 248.073 32.584 248.122 32.105L248.186 31.509H249.55V31.508ZM58.474 56.17C57.707 56.17 57.047 55.99 56.493 55.627C55.934 55.2588 55.4909 54.7398 55.215 54.13C54.916 53.495 54.767 52.769 54.767 51.952C54.767 51.121 54.92 50.387 55.225 49.752C55.535 49.112 55.964 48.614 56.515 48.255C57.068 47.893 57.715 47.712 58.453 47.712C58.9888 47.7038 59.5199 47.813 60.009 48.032C60.47 48.244 60.849 48.542 61.143 48.926C61.438 49.31 61.621 49.757 61.692 50.269H60.435C60.339 49.896 60.125 49.565 59.795 49.278C59.469 48.987 59.028 48.841 58.475 48.841C57.985 48.841 57.555 48.969 57.185 49.224C56.82 49.477 56.534 49.834 56.328 50.295C56.125 50.753 56.024 51.291 56.024 51.909C56.024 52.541 56.124 53.092 56.322 53.56C56.525 54.03 56.809 54.393 57.175 54.652C57.544 54.912 57.977 55.042 58.475 55.042C58.801 55.042 59.098 54.984 59.364 54.871C59.63 54.757 59.856 54.594 60.041 54.381C60.23 54.1593 60.3649 53.8967 60.435 53.614H61.692C61.6253 54.0856 61.444 54.5337 61.164 54.919C60.8776 55.3104 60.4991 55.625 60.062 55.835C59.607 56.059 59.078 56.17 58.474 56.17ZM66.854 56.17C66.114 56.17 65.467 55.995 64.909 55.643C64.3466 55.2822 63.8963 54.7713 63.609 54.168C63.3 53.535 63.146 52.797 63.146 51.952C63.146 51.099 63.3 50.356 63.609 49.72C63.922 49.084 64.355 48.59 64.909 48.239C65.467 47.887 66.115 47.712 66.853 47.712C67.592 47.712 68.238 47.887 68.793 48.239C69.35 48.591 69.783 49.084 70.092 49.719C70.405 50.355 70.561 51.099 70.561 51.952C70.561 52.797 70.404 53.536 70.092 54.168C69.8069 54.7727 69.3561 55.2842 68.792 55.643C68.238 55.995 67.593 56.17 66.854 56.17ZM66.854 55.041C67.414 55.041 67.876 54.897 68.238 54.61C68.6 54.322 68.868 53.944 69.043 53.475C69.217 53.006 69.303 52.499 69.303 51.952C69.303 51.405 69.217 50.895 69.043 50.422C68.8853 49.9737 68.6067 49.5778 68.238 49.278C67.876 48.987 67.414 48.841 66.853 48.841C66.293 48.841 65.831 48.986 65.468 49.278C65.106 49.568 64.838 49.951 64.664 50.423C64.4872 50.9132 64.3992 51.4309 64.404 51.952C64.404 52.499 64.49 53.006 64.664 53.475C64.838 53.944 65.106 54.322 65.468 54.61C65.831 54.897 66.293 55.041 66.854 55.041ZM73.737 51.078V56H72.48V47.818H73.694V49.097H73.801C73.992 48.681 74.284 48.347 74.674 48.095C75.064 47.84 75.569 47.712 76.187 47.712C76.741 47.712 77.226 47.825 77.641 48.052C78.057 48.276 78.38 48.617 78.611 49.075C78.841 49.53 78.957 50.105 78.957 50.801V56H77.7V50.886C77.7 50.244 77.533 49.743 77.2 49.384C76.865 49.022 76.407 48.841 75.825 48.841C75.424 48.841 75.065 48.928 74.749 49.101C74.436 49.276 74.189 49.53 74.009 49.864C73.827 50.197 73.737 50.602 73.737 51.078ZM87.05 49.651L85.92 49.971C85.8438 49.7728 85.7379 49.5874 85.606 49.421C85.4592 49.2304 85.2693 49.0772 85.052 48.974C84.818 48.857 84.518 48.798 84.152 48.798C83.652 48.798 83.234 48.914 82.9 49.144C82.57 49.372 82.405 49.661 82.405 50.013C82.405 50.325 82.518 50.573 82.745 50.753C82.973 50.934 83.328 51.085 83.811 51.206L85.025 51.504C85.757 51.682 86.302 51.954 86.661 52.319C87.019 52.681 87.199 53.149 87.199 53.72C87.199 54.189 87.064 54.608 86.794 54.977C86.528 55.347 86.154 55.637 85.675 55.851C85.195 56.064 84.638 56.171 84.003 56.171C83.168 56.171 82.477 55.989 81.931 55.627C81.384 55.265 81.038 54.736 80.891 54.04L82.085 53.742C82.199 54.182 82.413 54.512 82.73 54.732C83.05 54.952 83.466 55.062 83.981 55.062C84.567 55.062 85.032 54.938 85.377 54.69C85.725 54.438 85.899 54.136 85.899 53.784C85.899 53.5 85.799 53.262 85.601 53.07C85.401 52.875 85.096 52.73 84.685 52.633L83.321 52.313C82.571 52.136 82.021 51.861 81.67 51.488C81.322 51.112 81.147 50.641 81.147 50.077C81.147 49.615 81.277 49.207 81.537 48.852C81.799 48.496 82.157 48.218 82.607 48.015C83.062 47.813 83.577 47.712 84.152 47.712C84.962 47.712 85.597 47.889 86.059 48.244C86.524 48.599 86.855 49.068 87.05 49.651ZM92.521 56.171C91.733 56.171 91.053 55.996 90.481 55.648C89.9109 55.2941 89.4545 54.7838 89.166 54.178C88.86 53.546 88.708 52.811 88.708 51.973C88.708 51.135 88.86 50.396 89.166 49.757C89.475 49.114 89.904 48.614 90.455 48.255C91.009 47.893 91.655 47.712 92.394 47.712C92.82 47.712 93.24 47.782 93.656 47.925C94.072 48.067 94.45 48.298 94.791 48.617C95.131 48.933 95.403 49.352 95.606 49.874C95.808 50.396 95.909 51.039 95.909 51.803V52.335H89.602V51.25H94.631C94.631 50.788 94.538 50.376 94.354 50.014C94.1808 49.6604 93.911 49.3629 93.576 49.156C93.242 48.946 92.848 48.842 92.394 48.842C91.893 48.842 91.46 48.966 91.094 49.215C90.732 49.46 90.453 49.779 90.257 50.174C90.0622 50.5678 89.9622 51.0017 89.965 51.441V52.166C89.965 52.784 90.071 53.308 90.285 53.737C90.501 54.163 90.801 54.488 91.185 54.712C91.568 54.932 92.014 55.042 92.521 55.042C92.851 55.042 93.15 54.996 93.416 54.904C93.686 54.808 93.919 54.666 94.114 54.478C94.309 54.286 94.46 54.048 94.567 53.764L95.781 54.104C95.6556 54.5123 95.4349 54.8849 95.137 55.191C94.8202 55.51 94.4386 55.7572 94.018 55.916C93.5389 56.0924 93.0314 56.1788 92.521 56.171ZM101.145 56.171C100.378 56.171 99.718 55.989 99.164 55.627C98.6047 55.259 98.1612 54.7399 97.885 54.13C97.587 53.495 97.438 52.769 97.438 51.952C97.438 51.121 97.591 50.387 97.896 49.752C98.205 49.112 98.635 48.614 99.186 48.255C99.739 47.893 100.386 47.712 101.124 47.712C101.659 47.7039 102.19 47.8132 102.679 48.032C103.141 48.244 103.519 48.542 103.814 48.926C104.109 49.31 104.292 49.757 104.363 50.269H103.106C103.01 49.896 102.796 49.565 102.466 49.278C102.14 48.987 101.699 48.841 101.146 48.841C100.656 48.841 100.226 48.969 99.856 49.224C99.491 49.477 99.205 49.834 98.999 50.295C98.796 50.753 98.695 51.291 98.695 51.909C98.695 52.541 98.795 53.092 98.993 53.56C99.196 54.03 99.48 54.393 99.846 54.652C100.215 54.912 100.648 55.042 101.146 55.042C101.472 55.042 101.769 54.984 102.035 54.871C102.301 54.757 102.527 54.594 102.711 54.381C102.9 54.1594 103.036 53.8968 103.106 53.614H104.363C104.296 54.0856 104.115 54.5337 103.835 54.919C103.549 55.3104 103.17 55.625 102.733 55.835C102.278 56.059 101.749 56.17 101.145 56.17V56.171ZM109.759 47.818V48.884H105.519V47.818H109.759ZM106.754 45.858H108.011V53.656C108.011 54.011 108.063 54.278 108.166 54.456C108.257 54.6157 108.4 54.7393 108.571 54.806C108.738 54.864 108.913 54.892 109.098 54.892C109.237 54.892 109.35 54.885 109.439 54.871L109.652 54.828L109.908 55.958C109.791 55.9982 109.672 56.0299 109.551 56.053C109.36 56.0921 109.166 56.1099 108.971 56.106C108.61 56.105 108.254 56.0269 107.926 55.877C107.588 55.724 107.298 55.4833 107.085 55.18C106.865 54.867 106.755 54.473 106.755 53.997L106.754 45.858ZM114.992 56.171C114.204 56.171 113.524 55.996 112.952 55.648C112.382 55.2942 111.925 54.784 111.636 54.178C111.331 53.546 111.178 52.811 111.178 51.973C111.178 51.135 111.331 50.396 111.636 49.757C111.946 49.114 112.375 48.614 112.926 48.255C113.479 47.893 114.126 47.712 114.864 47.712C115.29 47.712 115.711 47.782 116.127 47.925C116.542 48.067 116.92 48.298 117.261 48.617C117.602 48.933 117.874 49.352 118.076 49.874C118.279 50.396 118.38 51.039 118.38 51.803V52.335H112.073V51.25H117.102C117.102 50.788 117.009 50.376 116.824 50.014C116.651 49.6605 116.382 49.3631 116.047 49.156C115.713 48.946 115.319 48.842 114.864 48.842C114.364 48.842 113.93 48.966 113.564 49.215C113.202 49.46 112.924 49.779 112.728 50.174C112.533 50.5677 112.433 51.0016 112.435 51.441V52.166C112.435 52.784 112.542 53.308 112.755 53.737C112.972 54.163 113.272 54.488 113.655 54.712C114.039 54.932 114.485 55.042 114.992 55.042C115.322 55.042 115.621 54.996 115.887 54.904C116.157 54.808 116.389 54.666 116.585 54.478C116.78 54.286 116.931 54.048 117.038 53.764L118.252 54.104C118.127 54.5123 117.906 54.8849 117.608 55.191C117.291 55.5101 116.909 55.7574 116.488 55.916C116.009 56.0922 115.502 56.1787 114.992 56.171ZM123.85 47.818V48.884H119.61V47.818H123.85ZM120.846 45.858H122.103V53.656C122.103 54.011 122.155 54.278 122.258 54.456C122.349 54.6157 122.492 54.7393 122.663 54.806C122.829 54.864 123.005 54.892 123.19 54.892C123.328 54.892 123.442 54.885 123.53 54.871L123.744 54.828L124 55.958C123.883 55.9982 123.764 56.0299 123.643 56.053C123.452 56.0921 123.258 56.1099 123.063 56.106C122.702 56.105 122.346 56.0269 122.018 55.877C121.68 55.7241 121.389 55.4834 121.176 55.18C120.956 54.867 120.846 54.473 120.846 53.997V45.858ZM130.898 52.655V47.818H132.155V56H130.898V54.615H130.812C130.612 55.0406 130.304 55.4062 129.918 55.675C129.513 55.963 129.001 56.106 128.383 56.106C127.873 56.106 127.418 55.995 127.02 55.771C126.622 55.544 126.31 55.203 126.082 54.748C125.855 54.29 125.742 53.713 125.742 53.017V47.818H126.999V52.932C126.999 53.528 127.165 54.004 127.499 54.359C127.837 54.714 128.266 54.892 128.789 54.892C129.101 54.892 129.419 54.812 129.742 54.652C130.068 54.492 130.342 54.248 130.562 53.917C130.786 53.587 130.898 53.167 130.898 52.655ZM134.457 56V47.818H135.672V49.054H135.757C135.906 48.649 136.176 48.321 136.567 48.068C136.957 47.816 137.398 47.69 137.888 47.69C137.98 47.69 138.095 47.692 138.234 47.696C138.339 47.6978 138.444 47.7031 138.548 47.712V48.99C138.451 48.97 138.353 48.954 138.255 48.942C138.098 48.9167 137.94 48.9043 137.781 48.905C137.383 48.905 137.028 48.988 136.716 49.155C136.409 49.311 136.153 49.55 135.976 49.8447C135.799 50.1395 135.708 50.4781 135.714 50.822V56H134.457ZM146.665 56.192C146.146 56.192 145.676 56.094 145.253 55.899C144.844 55.7116 144.496 55.4146 144.246 55.041C143.998 54.665 143.873 54.211 143.873 53.678C143.873 53.208 143.966 52.828 144.15 52.538C144.335 52.243 144.582 52.012 144.891 51.845C145.2 51.678 145.541 51.554 145.914 51.472C146.29 51.387 146.668 51.32 147.048 51.27C147.545 51.206 147.948 51.158 148.257 51.126C148.57 51.091 148.797 51.032 148.939 50.95C149.085 50.869 149.158 50.727 149.158 50.524V50.481C149.158 49.956 149.014 49.548 148.726 49.256C148.442 48.966 148.011 48.82 147.432 48.82C146.832 48.82 146.361 48.951 146.02 49.214C145.679 49.477 145.44 49.757 145.301 50.055L144.108 49.629C144.321 49.132 144.605 48.745 144.96 48.468C145.319 48.188 145.709 47.992 146.132 47.882C146.558 47.769 146.977 47.712 147.389 47.712C147.652 47.712 147.954 47.744 148.295 47.807C148.639 47.867 148.971 47.994 149.291 48.186C149.614 48.377 149.882 48.666 150.095 49.054C150.308 49.441 150.415 49.959 150.415 50.609V56H149.158V54.892H149.094C148.983 55.1034 148.839 55.2958 148.668 55.462C148.439 55.684 148.17 55.8596 147.874 55.979C147.544 56.121 147.141 56.192 146.665 56.192ZM146.856 55.062C147.354 55.062 147.773 54.965 148.114 54.77C148.427 54.6005 148.688 54.3506 148.872 54.0461C149.055 53.7416 149.154 53.3935 149.158 53.038V51.888C149.104 51.952 148.987 52.01 148.806 52.064C148.628 52.114 148.422 52.158 148.188 52.197C147.788 52.2589 147.386 52.3123 146.984 52.357C146.673 52.3959 146.366 52.4653 146.068 52.564C145.788 52.657 145.56 52.797 145.386 52.985C145.216 53.17 145.131 53.422 145.131 53.742C145.131 54.178 145.292 54.509 145.615 54.732C145.942 54.952 146.356 55.062 146.856 55.062ZM155.799 56.17C155.117 56.17 154.515 55.998 153.993 55.654C153.471 55.306 153.063 54.816 152.768 54.184C152.473 53.548 152.326 52.797 152.326 51.93C152.326 51.071 152.473 50.325 152.768 49.693C153.063 49.061 153.473 48.573 153.998 48.228C154.524 47.884 155.131 47.712 155.82 47.712C156.353 47.712 156.773 47.8 157.082 47.978C157.395 48.152 157.633 48.351 157.796 48.575C157.963 48.795 158.093 48.975 158.185 49.118H158.292V45.09H159.549V56H158.334V54.743H158.185C158.093 54.892 157.961 55.08 157.791 55.307C157.591 55.5551 157.343 55.76 157.061 55.909C156.745 56.084 156.324 56.17 155.799 56.17ZM155.969 55.041C156.473 55.041 156.9 54.91 157.248 54.647C157.596 54.381 157.86 54.013 158.041 53.544C158.222 53.072 158.313 52.527 158.313 51.909C158.313 51.299 158.224 50.764 158.047 50.306C157.869 49.844 157.606 49.486 157.258 49.23C156.91 48.97 156.48 48.84 155.969 48.84C155.436 48.84 154.993 48.978 154.637 49.251C154.286 49.521 154.021 49.889 153.844 50.354C153.67 50.815 153.583 51.334 153.583 51.909C153.583 52.492 153.672 53.021 153.849 53.496C154.008 53.9379 154.284 54.3284 154.648 54.626C155.003 54.903 155.444 55.041 155.969 55.041ZM162.026 56V47.818H163.283V56H162.026ZM162.665 46.455C162.429 46.4588 162.201 46.3689 162.031 46.205C161.947 46.1285 161.881 46.0353 161.836 45.9314C161.791 45.8275 161.769 45.7152 161.77 45.602C161.77 45.368 161.857 45.167 162.031 45C162.201 44.8361 162.429 44.7462 162.665 44.75C162.91 44.75 163.119 44.834 163.293 45C163.378 45.0755 163.446 45.1683 163.492 45.2721C163.538 45.3759 163.561 45.4884 163.56 45.602C163.561 45.7156 163.538 45.8281 163.492 45.9319C163.446 46.0357 163.378 46.1285 163.293 46.204C163.21 46.2853 163.112 46.3492 163.004 46.3922C162.896 46.4351 162.781 46.4561 162.665 46.454V46.455ZM165.585 59.068V47.818H166.8V49.118H166.949C167.041 48.976 167.169 48.795 167.332 48.575C167.526 48.3284 167.769 48.1251 168.046 47.978C168.359 47.8 168.781 47.712 169.314 47.712C170.003 47.712 170.61 47.884 171.136 48.228C171.661 48.573 172.071 49.061 172.366 49.693C172.661 50.325 172.808 51.071 172.808 51.93C172.808 52.797 172.661 53.548 172.366 54.184C172.071 54.816 171.663 55.306 171.141 55.654C170.619 55.998 170.017 56.17 169.335 56.17C168.81 56.17 168.389 56.083 168.073 55.91C167.757 55.732 167.513 55.531 167.343 55.308C167.203 55.1256 167.072 54.9371 166.949 54.743H166.842V59.068H165.585ZM166.821 51.909C166.821 52.527 166.911 53.072 167.093 53.544C167.274 54.014 167.538 54.381 167.886 54.647C168.234 54.91 168.66 55.041 169.165 55.041C169.69 55.041 170.129 54.903 170.48 54.626C170.835 54.346 171.102 53.969 171.279 53.496C171.466 52.988 171.558 52.4502 171.551 51.909C171.551 51.334 171.462 50.815 171.285 50.354C171.132 49.9176 170.856 49.5347 170.491 49.251C170.139 48.978 169.697 48.841 169.165 48.841C168.653 48.841 168.224 48.971 167.876 49.23C167.528 49.485 167.265 49.844 167.087 50.306C166.91 50.764 166.821 51.298 166.821 51.909ZM174.726 56V47.818H175.983V56H174.726ZM175.365 46.455C175.129 46.4585 174.901 46.3687 174.731 46.205C174.647 46.1285 174.581 46.0353 174.536 45.9314C174.491 45.8275 174.469 45.7152 174.47 45.602C174.47 45.368 174.557 45.167 174.731 45C174.901 44.8363 175.129 44.7465 175.365 44.75C175.61 44.75 175.82 44.834 175.994 45C176.079 45.0757 176.146 45.1685 176.192 45.2723C176.238 45.3761 176.261 45.4885 176.26 45.602C176.261 45.7155 176.238 45.8279 176.192 45.9317C176.146 46.0355 176.079 46.1283 175.994 46.204C175.911 46.2853 175.813 46.3493 175.705 46.3922C175.597 46.4351 175.481 46.4561 175.365 46.454V46.455ZM184.081 49.651L182.952 49.971C182.876 49.7727 182.769 49.5872 182.637 49.421C182.49 49.2303 182.3 49.077 182.083 48.974C181.849 48.857 181.549 48.798 181.183 48.798C180.682 48.798 180.265 48.914 179.931 49.144C179.601 49.372 179.436 49.661 179.436 50.013C179.436 50.325 179.55 50.573 179.777 50.753C180.004 50.934 180.359 51.085 180.842 51.206L182.057 51.504C182.788 51.682 183.333 51.954 183.692 52.319C184.051 52.681 184.23 53.149 184.23 53.72C184.23 54.189 184.095 54.608 183.825 54.977C183.559 55.347 183.186 55.637 182.706 55.851C182.227 56.064 181.67 56.171 181.034 56.171C180.199 56.171 179.509 55.989 178.962 55.627C178.415 55.265 178.069 54.736 177.923 54.04L179.116 53.742C179.23 54.182 179.445 54.512 179.761 54.732C180.08 54.952 180.498 55.062 181.013 55.062C181.599 55.062 182.064 54.938 182.408 54.69C182.756 54.438 182.93 54.136 182.93 53.784C182.933 53.6507 182.908 53.5183 182.857 53.3953C182.806 53.2723 182.729 53.1614 182.632 53.07C182.433 52.875 182.128 52.73 181.716 52.633L180.352 52.313C179.603 52.136 179.052 51.861 178.701 51.488C178.353 51.112 178.179 50.641 178.179 50.077C178.179 49.615 178.308 49.207 178.568 48.852C178.845 48.4844 179.214 48.1958 179.638 48.015C180.093 47.813 180.608 47.712 181.183 47.712C181.993 47.712 182.628 47.889 183.09 48.244C183.555 48.599 183.885 49.068 184.081 49.651ZM189.446 56.171C188.679 56.171 188.019 55.989 187.465 55.627C186.906 55.259 186.462 54.7399 186.186 54.13C185.888 53.495 185.739 52.769 185.739 51.952C185.739 51.121 185.891 50.387 186.197 49.752C186.506 49.112 186.935 48.614 187.486 48.255C188.04 47.893 188.686 47.712 189.425 47.712C190 47.712 190.519 47.818 190.98 48.032C191.442 48.244 191.82 48.542 192.115 48.926C192.41 49.31 192.592 49.757 192.663 50.269H191.406C191.31 49.896 191.097 49.565 190.767 49.278C190.44 48.987 190 48.841 189.446 48.841C188.956 48.841 188.526 48.969 188.157 49.224C187.791 49.477 187.505 49.834 187.299 50.295C187.097 50.753 186.996 51.291 186.996 51.909C186.996 52.541 187.095 53.092 187.294 53.56C187.497 54.03 187.781 54.393 188.146 54.652C188.516 54.912 188.949 55.042 189.446 55.042C189.773 55.042 190.069 54.984 190.336 54.871C190.596 54.7619 190.827 54.5942 191.012 54.381C191.197 54.168 191.328 53.911 191.406 53.614H192.663C192.596 54.09 192.412 54.5419 192.128 54.9294C191.843 55.3168 191.467 55.6276 191.033 55.834C190.579 56.059 190.05 56.17 189.446 56.17V56.171ZM194.501 56V47.818H195.758V56H194.501ZM195.14 46.455C194.904 46.4585 194.676 46.3687 194.506 46.205C194.422 46.1285 194.356 46.0353 194.311 45.9314C194.266 45.8275 194.244 45.7152 194.245 45.602C194.245 45.368 194.332 45.167 194.506 45C194.676 44.8363 194.904 44.7465 195.14 44.75C195.385 44.75 195.595 44.834 195.769 45C195.854 45.0757 195.921 45.1685 195.967 45.2723C196.013 45.3761 196.036 45.4885 196.035 45.602C196.036 45.7155 196.013 45.8279 195.967 45.9317C195.921 46.0355 195.854 46.1283 195.769 46.204C195.686 46.2853 195.588 46.3493 195.48 46.3922C195.372 46.4351 195.256 46.4561 195.14 46.454V46.455ZM199.318 51.078V56H198.061V47.818H199.275V49.097H199.382C199.57 48.6856 199.873 48.3376 200.255 48.095C200.646 47.84 201.15 47.712 201.768 47.712C202.322 47.712 202.807 47.825 203.222 48.052C203.638 48.276 203.961 48.617 204.192 49.075C204.423 49.53 204.538 50.105 204.538 50.801V56H203.281V50.886C203.281 50.244 203.114 49.743 202.78 49.384C202.446 49.022 201.988 48.841 201.406 48.841C201.005 48.841 200.646 48.928 200.33 49.101C200.014 49.2783 199.757 49.5433 199.589 49.864C199.408 50.197 199.318 50.602 199.318 51.078ZM210.138 59.238C209.53 59.238 209.008 59.16 208.572 59.004C208.173 58.8726 207.802 58.6666 207.48 58.397C207.21 58.1691 206.978 57.8994 206.793 57.598L207.794 56.895C207.908 57.044 208.051 57.215 208.225 57.406C208.399 57.602 208.637 57.77 208.939 57.912C209.245 58.058 209.644 58.131 210.138 58.131C210.798 58.131 211.343 57.971 211.773 57.651C212.203 57.331 212.418 56.831 212.418 56.149V54.487H212.311C212.219 54.637 212.087 54.821 211.917 55.041C211.75 55.258 211.508 55.451 211.192 55.621C210.88 55.789 210.457 55.872 209.925 55.872C209.3 55.8816 208.685 55.7193 208.146 55.403C207.623 55.091 207.21 54.636 206.904 54.04C206.603 53.443 206.452 52.719 206.452 51.867C206.452 51.028 206.599 50.299 206.894 49.677C207.188 49.052 207.599 48.569 208.124 48.228C208.65 47.884 209.257 47.712 209.946 47.712C210.479 47.712 210.901 47.8 211.214 47.978C211.53 48.152 211.771 48.351 211.938 48.575C212.109 48.795 212.24 48.975 212.332 49.118H212.46V47.818H213.675V56.234C213.675 56.937 213.515 57.509 213.195 57.95C212.876 58.3955 212.431 58.7349 211.917 58.924C211.349 59.1401 210.746 59.2459 210.138 59.238ZM210.095 54.743C210.599 54.743 211.025 54.627 211.373 54.397C211.722 54.166 211.986 53.834 212.167 53.401C212.348 52.967 212.439 52.449 212.439 51.845C212.439 51.255 212.35 50.735 212.172 50.285C211.995 49.834 211.732 49.48 211.384 49.225C211.036 48.969 210.606 48.841 210.095 48.841C209.562 48.841 209.119 48.976 208.763 49.246C208.412 49.516 208.147 49.878 207.97 50.332C207.791 50.816 207.702 51.3289 207.709 51.845C207.709 52.413 207.797 52.915 207.975 53.353C208.156 53.786 208.422 54.127 208.774 54.375C209.129 54.62 209.57 54.743 210.095 54.743ZM223.625 56.17C222.837 56.17 222.157 55.996 221.585 55.648C221.015 55.2941 220.558 54.7839 220.269 54.178C219.964 53.546 219.811 52.811 219.811 51.973C219.811 51.135 219.964 50.396 220.269 49.757C220.578 49.114 221.008 48.614 221.558 48.255C222.112 47.893 222.758 47.712 223.497 47.712C223.923 47.712 224.344 47.782 224.759 47.925C225.175 48.067 225.553 48.298 225.894 48.617C226.235 48.933 226.507 49.352 226.709 49.874C226.911 50.396 227.013 51.039 227.013 51.803V52.335H220.706V51.25H225.734C225.734 50.788 225.642 50.376 225.457 50.014C225.284 49.6605 225.015 49.363 224.68 49.156C224.346 48.946 223.952 48.842 223.497 48.842C222.996 48.842 222.563 48.966 222.197 49.215C221.839 49.4555 221.55 49.7863 221.361 50.174C221.166 50.5677 221.066 51.0016 221.068 51.441V52.166C221.068 52.784 221.175 53.308 221.388 53.737C221.604 54.163 221.904 54.488 222.288 54.712C222.671 54.932 223.117 55.042 223.625 55.042C223.955 55.042 224.253 54.996 224.52 54.904C224.79 54.808 225.022 54.666 225.218 54.478C225.413 54.286 225.564 54.048 225.67 53.764L226.885 54.104C226.759 54.5124 226.538 54.8849 226.24 55.191C225.938 55.501 225.566 55.741 225.122 55.916C224.678 56.086 224.179 56.171 223.625 56.171V56.17ZM230.182 45.09V56H228.925V45.09H230.182ZM232.485 56V47.818H233.742V56H232.485ZM233.124 46.455C232.888 46.4588 232.66 46.3689 232.49 46.205C232.406 46.1285 232.34 46.0353 232.295 45.9314C232.25 45.8275 232.228 45.7152 232.229 45.602C232.229 45.368 232.316 45.167 232.49 45C232.66 44.8361 232.888 44.7462 233.124 44.75C233.369 44.75 233.578 44.834 233.752 45C233.837 45.0755 233.905 45.1683 233.951 45.2721C233.997 45.3759 234.02 45.4884 234.019 45.602C234.02 45.7156 233.997 45.8281 233.951 45.9319C233.905 46.0357 233.837 46.1285 233.752 46.204C233.669 46.2853 233.571 46.3492 233.463 46.3922C233.355 46.4351 233.24 46.4561 233.124 46.454V46.455ZM239.602 47.818V48.884H235.362V47.818H239.602ZM236.598 45.858H237.855V53.656C237.855 54.011 237.907 54.278 238.01 54.456C238.101 54.6159 238.244 54.7396 238.415 54.806C238.581 54.864 238.757 54.892 238.942 54.892C239.08 54.892 239.194 54.885 239.283 54.871L239.496 54.828L239.752 55.958C239.635 55.998 239.516 56.0297 239.395 56.053C239.204 56.0921 239.009 56.1099 238.814 56.106C238.454 56.1049 238.098 56.0268 237.77 55.877C237.432 55.7239 237.142 55.4832 236.928 55.18C236.708 54.867 236.598 54.473 236.598 53.997V45.858ZM243.368 54.508L243.283 55.084C243.223 55.489 243.13 55.922 243.006 56.384C242.885 56.845 242.759 57.28 242.628 57.689C242.497 58.097 242.388 58.422 242.303 58.663H241.344L241.525 57.763C241.6 57.39 241.674 56.973 241.749 56.511C241.827 56.053 241.891 55.584 241.941 55.105L242.005 54.509L243.368 54.508ZM255.712 49.651L254.582 49.971C254.506 49.7727 254.4 49.5873 254.268 49.421C254.121 49.2303 253.931 49.077 253.714 48.974C253.48 48.857 253.18 48.798 252.814 48.798C252.313 48.798 251.896 48.914 251.562 49.144C251.232 49.372 251.067 49.661 251.067 50.013C251.067 50.325 251.18 50.573 251.408 50.753C251.635 50.934 251.99 51.085 252.473 51.206L253.688 51.504C254.419 51.682 254.964 51.954 255.323 52.319C255.681 52.681 255.861 53.149 255.861 53.72C255.861 54.189 255.726 54.608 255.456 54.977C255.19 55.347 254.817 55.637 254.337 55.851C253.858 56.064 253.3 56.171 252.665 56.171C251.83 56.171 251.14 55.989 250.593 55.627C250.046 55.265 249.7 54.736 249.554 54.04L250.747 53.742C250.861 54.182 251.076 54.512 251.392 54.732C251.711 54.952 252.129 55.062 252.643 55.062C253.229 55.062 253.695 54.938 254.039 54.69C254.387 54.438 254.561 54.136 254.561 53.784C254.564 53.6507 254.539 53.5183 254.488 53.3953C254.437 53.2723 254.36 53.1614 254.263 53.07C254.064 52.875 253.759 52.73 253.347 52.633L251.983 52.313C251.234 52.136 250.683 51.861 250.332 51.488C249.984 51.112 249.81 50.641 249.81 50.077C249.81 49.615 249.939 49.207 250.199 48.852C250.476 48.4844 250.845 48.1958 251.269 48.015C251.724 47.813 252.239 47.712 252.814 47.712C253.624 47.712 254.259 47.889 254.721 48.244C255.186 48.599 255.516 49.068 255.712 49.651ZM261.184 56.171C260.395 56.171 259.715 55.996 259.143 55.648C258.573 55.294 258.117 54.7838 257.828 54.178C257.522 53.546 257.37 52.811 257.37 51.973C257.37 51.135 257.522 50.396 257.828 49.757C258.137 49.114 258.566 48.614 259.117 48.255C259.671 47.893 260.317 47.712 261.056 47.712C261.482 47.712 261.903 47.782 262.318 47.925C262.734 48.067 263.112 48.298 263.453 48.617C263.794 48.933 264.065 49.352 264.268 49.874C264.47 50.396 264.571 51.039 264.571 51.803V52.335H258.264V51.25H263.293C263.293 50.788 263.201 50.376 263.016 50.014C262.843 49.6602 262.573 49.3627 262.238 49.156C261.904 48.946 261.51 48.842 261.056 48.842C260.555 48.842 260.122 48.966 259.756 49.215C259.398 49.4555 259.109 49.7863 258.92 50.174C258.725 50.5676 258.624 51.0016 258.627 51.441V52.166C258.627 52.784 258.733 53.308 258.946 53.737C259.163 54.163 259.463 54.488 259.847 54.712C260.23 54.932 260.676 55.042 261.184 55.042C261.514 55.042 261.812 54.996 262.078 54.904C262.348 54.808 262.581 54.666 262.776 54.478C262.972 54.286 263.122 54.048 263.229 53.764L264.443 54.104C264.318 54.5125 264.097 54.8852 263.799 55.191C263.497 55.501 263.124 55.741 262.68 55.916C262.201 56.0922 261.694 56.1787 261.184 56.171ZM269.573 56.171C268.891 56.171 268.289 55.998 267.767 55.654C267.245 55.306 266.837 54.816 266.542 54.184C266.247 53.548 266.1 52.797 266.1 51.93C266.1 51.071 266.247 50.325 266.542 49.693C266.837 49.061 267.247 48.573 267.773 48.228C268.298 47.884 268.905 47.712 269.594 47.712C270.127 47.712 270.548 47.8 270.857 47.978C271.169 48.152 271.407 48.351 271.571 48.575C271.737 48.795 271.867 48.975 271.959 49.118H272.066V45.09H273.323V56H272.109V54.743H271.959C271.867 54.892 271.736 55.08 271.565 55.307C271.395 55.531 271.152 55.732 270.835 55.909C270.519 56.084 270.099 56.17 269.573 56.17V56.171ZM269.744 55.041C270.248 55.041 270.674 54.91 271.022 54.647C271.37 54.381 271.634 54.013 271.816 53.544C271.997 53.072 272.087 52.527 272.087 51.909C272.087 51.299 271.998 50.764 271.821 50.306C271.643 49.844 271.381 49.486 271.033 49.23C270.685 48.97 270.255 48.84 269.744 48.84C269.211 48.84 268.767 48.978 268.412 49.251C268.06 49.521 267.796 49.889 267.618 50.354C267.444 50.815 267.357 51.334 267.357 51.909C267.357 52.492 267.446 53.021 267.623 53.496C267.805 53.969 268.071 54.346 268.422 54.626C268.778 54.903 269.218 55.041 269.744 55.041ZM58.581 79.171C57.793 79.171 57.113 78.996 56.541 78.648C55.9706 78.2942 55.5138 77.7839 55.225 77.178C54.92 76.546 54.767 75.811 54.767 74.973C54.767 74.135 54.92 73.396 55.225 72.757C55.535 72.114 55.964 71.614 56.515 71.255C57.068 70.893 57.715 70.712 58.453 70.712C58.879 70.712 59.3 70.782 59.716 70.925C60.131 71.067 60.509 71.298 60.85 71.617C61.191 71.933 61.463 72.352 61.665 72.874C61.868 73.396 61.969 74.039 61.969 74.803V75.335H55.662V74.25H60.69C60.69 73.788 60.598 73.376 60.413 73.014C60.24 72.6605 59.9707 72.3631 59.636 72.156C59.302 71.946 58.908 71.842 58.453 71.842C57.953 71.842 57.519 71.966 57.153 72.215C56.7948 72.4555 56.5064 72.7864 56.317 73.174C56.1219 73.5677 56.0215 74.0016 56.024 74.441V75.166C56.024 75.784 56.131 76.307 56.344 76.737C56.56 77.163 56.86 77.488 57.244 77.712C57.628 77.932 58.074 78.042 58.581 78.042C58.911 78.042 59.209 77.996 59.476 77.904C59.746 77.808 59.978 77.666 60.174 77.478C60.369 77.286 60.52 77.048 60.626 76.764L61.841 77.104C61.7153 77.5124 61.4942 77.885 61.196 78.191C60.894 78.501 60.522 78.741 60.078 78.916C59.5989 79.0924 59.0914 79.1788 58.581 79.171ZM63.881 79V70.818H65.138V79H63.881ZM64.521 69.454C64.2846 69.4579 64.0563 69.368 63.886 69.204C63.8028 69.1276 63.7366 69.0344 63.6918 68.9307C63.647 68.827 63.6246 68.715 63.626 68.602C63.626 68.368 63.712 68.167 63.886 68C64.056 67.8362 64.2839 67.7464 64.52 67.75C64.765 67.75 64.975 67.834 65.149 68C65.2336 68.0756 65.3012 68.1684 65.347 68.2723C65.3929 68.3761 65.4161 68.4885 65.415 68.602C65.4161 68.7155 65.3929 68.8279 65.347 68.9317C65.3012 69.0356 65.2336 69.1284 65.149 69.204C65.066 69.2854 64.9676 69.3494 64.8597 69.3923C64.7517 69.4352 64.6372 69.4562 64.521 69.454ZM72.597 75.654V70.818H73.854V79H72.597V77.615H72.512C72.32 78.031 72.022 78.384 71.617 78.675C71.212 78.963 70.701 79.106 70.083 79.106C69.571 79.106 69.117 78.995 68.719 78.771C68.321 78.544 68.009 78.203 67.781 77.748C67.554 77.29 67.441 76.713 67.441 76.017V70.818H68.698V75.932C68.698 76.528 68.865 77.004 69.198 77.359C69.536 77.715 69.965 77.892 70.488 77.892C70.8 77.892 71.118 77.812 71.441 77.652C71.768 77.492 72.041 77.248 72.261 76.917C72.485 76.587 72.597 76.166 72.597 75.654ZM81.952 72.651L80.822 72.971C80.7458 72.7728 80.6399 72.5874 80.508 72.421C80.3612 72.2304 80.1713 72.0772 79.954 71.974C79.72 71.857 79.42 71.798 79.054 71.798C78.554 71.798 78.136 71.914 77.802 72.144C77.472 72.372 77.307 72.661 77.307 73.013C77.307 73.325 77.421 73.573 77.647 73.753C77.875 73.934 78.23 74.085 78.713 74.206L79.928 74.504C80.659 74.682 81.204 74.954 81.563 75.319C81.922 75.681 82.101 76.149 82.101 76.72C82.101 77.189 81.966 77.608 81.696 77.977C81.43 78.347 81.057 78.637 80.578 78.851C80.098 79.064 79.541 79.171 78.905 79.171C78.071 79.171 77.38 78.989 76.833 78.627C76.286 78.265 75.94 77.736 75.794 77.04L76.987 76.741C77.101 77.181 77.316 77.512 77.632 77.732C77.952 77.952 78.369 78.062 78.884 78.062C79.47 78.062 79.934 77.938 80.279 77.69C80.627 77.438 80.801 77.136 80.801 76.784C80.801 76.5 80.701 76.262 80.503 76.07C80.304 75.875 79.999 75.73 79.587 75.634L78.223 75.314C77.473 75.136 76.923 74.861 76.572 74.488C76.224 74.112 76.05 73.641 76.05 73.077C76.05 72.615 76.18 72.207 76.439 71.852C76.702 71.496 77.059 71.218 77.509 71.015C77.964 70.813 78.479 70.712 79.054 70.712C79.864 70.712 80.499 70.889 80.961 71.244C81.426 71.599 81.758 72.068 81.952 72.651ZM83.993 79V70.818H85.208V72.097H85.314C85.484 71.66 85.76 71.321 86.14 71.079C86.52 70.834 86.976 70.712 87.509 70.712C88.049 70.712 88.498 70.834 88.857 71.079C89.219 71.321 89.501 71.659 89.704 72.097H89.789C89.999 71.674 90.313 71.338 90.732 71.09C91.151 70.838 91.653 70.712 92.239 70.712C92.971 70.712 93.569 70.941 94.034 71.399C94.499 71.853 94.732 72.562 94.732 73.524V79H93.475V73.524C93.475 72.921 93.31 72.489 92.98 72.23C92.65 71.97 92.26 71.84 91.813 71.84C91.238 71.84 90.792 72.015 90.476 72.363C90.16 72.707 90.002 73.144 90.002 73.673V79H88.723V73.396C88.723 72.931 88.573 72.556 88.271 72.272C87.969 71.985 87.58 71.841 87.104 71.841C86.777 71.841 86.472 71.928 86.188 72.101C85.908 72.276 85.68 72.517 85.506 72.826C85.3306 73.1513 85.2424 73.5165 85.25 73.886V79H83.993ZM100.354 79.17C99.616 79.17 98.968 78.995 98.41 78.643C97.8476 78.2822 97.3973 77.7713 97.11 77.168C96.801 76.535 96.647 75.797 96.647 74.952C96.647 74.099 96.801 73.356 97.11 72.72C97.423 72.084 97.856 71.59 98.41 71.239C98.968 70.887 99.616 70.712 100.354 70.712C101.093 70.712 101.739 70.887 102.294 71.239C102.851 71.591 103.284 72.084 103.593 72.719C103.906 73.356 104.062 74.099 104.062 74.952C104.062 75.797 103.906 76.536 103.593 77.168C103.308 77.7727 102.857 78.2842 102.293 78.643C101.739 78.995 101.093 79.17 100.354 79.17ZM100.354 78.041C100.915 78.041 101.377 77.897 101.739 77.61C102.101 77.322 102.369 76.944 102.544 76.475C102.718 76.006 102.804 75.499 102.804 74.952C102.804 74.405 102.718 73.895 102.544 73.422C102.386 72.9737 102.108 72.5778 101.739 72.278C101.377 71.987 100.915 71.841 100.354 71.841C99.794 71.841 99.332 71.987 98.969 72.278C98.607 72.568 98.339 72.951 98.165 73.423C97.9879 73.9131 97.8995 74.4309 97.904 74.952C97.904 75.499 97.991 76.006 98.165 76.475C98.339 76.944 98.607 77.322 98.969 77.61C99.332 77.897 99.793 78.041 100.354 78.041ZM109.07 79.171C108.388 79.171 107.786 78.998 107.264 78.654C106.742 78.306 106.334 77.816 106.039 77.184C105.745 76.548 105.597 75.797 105.597 74.93C105.597 74.071 105.745 73.325 106.039 72.693C106.334 72.061 106.744 71.573 107.269 71.228C107.795 70.884 108.402 70.712 109.091 70.712C109.624 70.712 110.045 70.8 110.354 70.978C110.666 71.152 110.904 71.351 111.068 71.575C111.204 71.7514 111.334 71.9325 111.457 72.118H111.563V68.09H112.82V79H111.606V77.743H111.456C111.364 77.892 111.233 78.08 111.062 78.308C110.892 78.531 110.649 78.732 110.332 78.909C110.016 79.083 109.596 79.171 109.07 79.171ZM109.24 78.041C109.745 78.041 110.171 77.91 110.519 77.647C110.867 77.381 111.132 77.013 111.313 76.544C111.493 76.072 111.584 75.527 111.584 74.909C111.584 74.299 111.496 73.764 111.318 73.306C111.14 72.844 110.878 72.486 110.53 72.23C110.182 71.97 109.752 71.84 109.24 71.84C108.708 71.84 108.264 71.978 107.909 72.251C107.557 72.521 107.293 72.888 107.115 73.354C106.941 73.815 106.855 74.334 106.855 74.909C106.855 75.491 106.943 76.021 107.121 76.496C107.301 76.969 107.568 77.346 107.92 77.626C108.275 77.903 108.715 78.041 109.24 78.041ZM123.074 70.818V71.884H118.834V70.818H123.074ZM120.07 68.858H121.327V76.656C121.327 77.011 121.378 77.278 121.481 77.456C121.572 77.6157 121.715 77.7393 121.886 77.806C122.053 77.864 122.229 77.892 122.414 77.892C122.552 77.892 122.666 77.885 122.754 77.871L122.967 77.828L123.223 78.958C123.106 78.9982 122.987 79.0299 122.866 79.053C122.675 79.0921 122.481 79.1099 122.286 79.106C121.926 79.1052 121.57 79.0275 121.242 78.878C120.904 78.7249 120.613 78.4838 120.4 78.18C120.18 77.867 120.07 77.473 120.07 76.997V68.858ZM128.308 79.171C127.519 79.171 126.839 78.996 126.268 78.648C125.698 78.2942 125.241 77.7839 124.952 77.178C124.646 76.546 124.494 75.811 124.494 74.973C124.494 74.135 124.646 73.396 124.952 72.757C125.261 72.114 125.69 71.614 126.241 71.255C126.795 70.893 127.441 70.712 128.18 70.712C128.606 70.712 129.027 70.782 129.442 70.925C129.866 71.0717 130.253 71.3077 130.577 71.617C130.918 71.933 131.189 72.352 131.392 72.874C131.594 73.396 131.695 74.039 131.695 74.803V75.335H125.389V74.25H130.417C130.417 73.788 130.325 73.376 130.14 73.014C129.967 72.6604 129.697 72.3629 129.362 72.156C129.028 71.946 128.634 71.842 128.18 71.842C127.679 71.842 127.246 71.966 126.88 72.215C126.522 72.4555 126.233 72.7864 126.044 73.174C125.849 73.5677 125.749 74.0016 125.751 74.441V75.166C125.751 75.784 125.857 76.307 126.071 76.737C126.287 77.163 126.587 77.488 126.971 77.712C127.354 77.932 127.8 78.042 128.308 78.042C128.638 78.042 128.936 77.996 129.202 77.904C129.472 77.808 129.705 77.666 129.9 77.478C130.096 77.286 130.246 77.048 130.353 76.764L131.567 77.104C131.442 77.5125 131.221 77.8852 130.923 78.191C130.621 78.501 130.248 78.741 129.804 78.916C129.325 79.0922 128.818 79.1787 128.308 79.171ZM133.608 79V70.818H134.822V72.097H134.929C135.099 71.66 135.374 71.321 135.754 71.079C136.134 70.834 136.591 70.712 137.123 70.712C137.663 70.712 138.112 70.834 138.471 71.079C138.833 71.321 139.115 71.659 139.318 72.097H139.403C139.613 71.674 139.927 71.338 140.346 71.09C140.765 70.838 141.267 70.712 141.853 70.712C142.585 70.712 143.183 70.941 143.648 71.399C144.114 71.853 144.346 72.562 144.346 73.524V79H143.089V73.524C143.089 72.921 142.924 72.489 142.594 72.23C142.261 71.9696 141.849 71.8318 141.427 71.84C140.852 71.84 140.406 72.015 140.09 72.363C139.774 72.707 139.616 73.144 139.616 73.673V79H138.338V73.396C138.338 72.931 138.187 72.556 137.885 72.272C137.583 71.985 137.194 71.841 136.718 71.841C136.392 71.841 136.086 71.928 135.802 72.101C135.522 72.276 135.294 72.517 135.12 72.826C134.95 73.132 134.865 73.486 134.865 73.886V79H133.608ZM146.645 82.068V70.818H147.859V72.118H148.008C148.101 71.976 148.229 71.795 148.392 71.575C148.586 71.3284 148.829 71.1251 149.106 70.978C149.418 70.8 149.841 70.712 150.373 70.712C151.062 70.712 151.67 70.884 152.195 71.228C152.721 71.573 153.131 72.061 153.426 72.693C153.72 73.325 153.868 74.071 153.868 74.93C153.868 75.797 153.72 76.548 153.426 77.184C153.131 77.816 152.722 78.306 152.2 78.654C151.678 78.998 151.077 79.171 150.395 79.171C149.869 79.171 149.448 79.083 149.132 78.909C148.85 78.7602 148.602 78.5554 148.403 78.307C148.263 78.1246 148.132 77.9365 148.008 77.743H147.902V82.068H146.645ZM147.881 74.909C147.881 75.527 147.971 76.072 148.152 76.544C148.333 77.014 148.598 77.381 148.946 77.647C149.294 77.91 149.72 78.041 150.224 78.041C150.75 78.041 151.188 77.903 151.54 77.626C151.895 77.346 152.161 76.969 152.339 76.496C152.526 75.988 152.618 75.4502 152.611 74.909C152.611 74.334 152.522 73.815 152.344 73.354C152.17 72.888 151.906 72.521 151.551 72.251C151.199 71.978 150.757 71.841 150.224 71.841C149.713 71.841 149.283 71.971 148.935 72.23C148.587 72.485 148.324 72.844 148.147 73.306C147.969 73.764 147.881 74.298 147.881 74.909ZM159.109 79.17C158.371 79.17 157.722 78.995 157.165 78.643C156.611 78.291 156.178 77.8 155.865 77.168C155.556 76.535 155.402 75.797 155.402 74.952C155.402 74.099 155.556 73.356 155.865 72.72C156.178 72.084 156.611 71.59 157.165 71.239C157.722 70.887 158.371 70.712 159.109 70.712C159.848 70.712 160.494 70.887 161.048 71.239C161.606 71.591 162.039 72.084 162.348 72.719C162.66 73.356 162.817 74.099 162.817 74.952C162.817 75.797 162.66 76.536 162.348 77.168C162.063 77.7728 161.612 78.2843 161.048 78.643C160.494 78.995 159.848 79.17 159.109 79.17ZM159.109 78.041C159.67 78.041 160.132 77.897 160.494 77.61C160.856 77.322 161.124 76.944 161.298 76.475C161.472 76.006 161.559 75.499 161.559 74.952C161.559 74.405 161.472 73.895 161.298 73.422C161.141 72.9739 160.862 72.578 160.494 72.278C160.132 71.987 159.67 71.841 159.109 71.841C158.548 71.841 158.086 71.987 157.724 72.278C157.362 72.568 157.094 72.951 156.92 73.423C156.743 73.9131 156.655 74.4309 156.659 74.952C156.659 75.499 156.746 76.006 156.92 76.475C157.094 76.944 157.362 77.322 157.724 77.61C158.086 77.897 158.548 78.041 159.109 78.041ZM164.736 79V70.818H165.95V72.054H166.035C166.184 71.649 166.454 71.321 166.845 71.068C167.239 70.8151 167.698 70.6836 168.166 70.69C168.258 70.69 168.374 70.692 168.512 70.696C168.651 70.699 168.755 70.704 168.826 70.712V71.99C168.729 71.97 168.631 71.954 168.533 71.942C168.376 71.9167 168.218 71.9043 168.059 71.905C167.662 71.905 167.307 71.988 166.994 72.155C166.688 72.311 166.431 72.5501 166.254 72.8448C166.077 73.1396 165.987 73.4782 165.993 73.822V79H164.736ZM174.535 79V70.818H175.792V79H174.535ZM175.175 69.454C174.939 69.4578 174.711 69.3679 174.541 69.204C174.458 69.1277 174.391 69.0346 174.346 68.9308C174.301 68.8271 174.279 68.7151 174.28 68.602C174.28 68.368 174.367 68.167 174.541 68C174.711 67.8361 174.939 67.7462 175.175 67.75C175.42 67.75 175.629 67.834 175.803 68C175.888 68.0755 175.955 68.1683 176.001 68.2722C176.047 68.376 176.07 68.4885 176.069 68.602C176.07 68.7155 176.047 68.828 176.001 68.9318C175.955 69.0357 175.888 69.1285 175.803 69.204C175.72 69.2853 175.622 69.3492 175.514 69.3922C175.406 69.4351 175.291 69.4561 175.175 69.454ZM179.352 74.078V79H178.095V70.818H179.309V72.097H179.416C179.608 71.681 179.899 71.347 180.29 71.095C180.68 70.84 181.184 70.712 181.802 70.712C182.356 70.712 182.841 70.825 183.256 71.052C183.672 71.276 183.995 71.617 184.226 72.075C184.457 72.53 184.572 73.105 184.572 73.801V79H183.315V73.886C183.315 73.244 183.148 72.743 182.814 72.384C182.481 72.022 182.022 71.841 181.44 71.841C181.039 71.841 180.68 71.928 180.364 72.101C180.049 72.2784 179.792 72.5434 179.624 72.864C179.443 73.197 179.352 73.602 179.352 74.078ZM190.193 79.171C189.426 79.171 188.766 78.989 188.212 78.627C187.653 78.2587 187.209 77.7397 186.933 77.13C186.635 76.495 186.486 75.769 186.486 74.952C186.486 74.121 186.638 73.387 186.944 72.752C187.253 72.112 187.683 71.614 188.233 71.255C188.787 70.893 189.433 70.712 190.172 70.712C190.747 70.712 191.266 70.818 191.727 71.032C192.189 71.244 192.567 71.542 192.862 71.926C193.157 72.31 193.339 72.757 193.411 73.269H192.153C192.058 72.896 191.844 72.565 191.514 72.278C191.188 71.987 190.747 71.841 190.193 71.841C189.703 71.841 189.273 71.969 188.904 72.224C188.538 72.477 188.252 72.834 188.047 73.295C187.844 73.753 187.743 74.291 187.743 74.909C187.743 75.541 187.842 76.092 188.041 76.56C188.244 77.03 188.528 77.393 188.893 77.652C189.263 77.912 189.696 78.042 190.193 78.042C190.52 78.042 190.816 77.984 191.083 77.871C191.343 77.7619 191.574 77.5942 191.759 77.381C191.944 77.168 192.075 76.911 192.153 76.614H193.411C193.344 77.0855 193.163 77.5336 192.883 77.919C192.597 78.3104 192.218 78.625 191.781 78.835C191.326 79.059 190.797 79.171 190.193 79.171ZM195.248 79V70.818H196.505V79H195.248ZM195.887 69.454C195.651 69.4578 195.424 69.3679 195.254 69.204C195.171 69.1277 195.104 69.0346 195.059 68.9308C195.014 68.8271 194.992 68.7151 194.993 68.602C194.993 68.368 195.08 68.167 195.254 68C195.424 67.8361 195.651 67.7462 195.887 67.75C196.132 67.75 196.342 67.834 196.516 68C196.601 68.0755 196.668 68.1683 196.714 68.2722C196.76 68.376 196.783 68.4885 196.782 68.602C196.783 68.7155 196.76 68.828 196.714 68.9318C196.668 69.0357 196.601 69.1285 196.516 69.204C196.433 69.2853 196.335 69.3493 196.227 69.3922C196.119 69.4351 196.003 69.4561 195.887 69.454ZM201.897 79.171C201.215 79.171 200.614 78.998 200.092 78.654C199.57 78.306 199.161 77.816 198.866 77.184C198.572 76.548 198.424 75.797 198.424 74.93C198.424 74.071 198.572 73.325 198.866 72.693C199.161 72.061 199.571 71.573 200.097 71.228C200.622 70.884 201.23 70.712 201.919 70.712C202.451 70.712 202.872 70.8 203.181 70.978C203.494 71.152 203.731 71.351 203.895 71.575C204.062 71.795 204.191 71.975 204.284 72.118H204.39V68.09H205.647V79H204.433V77.743H204.284C204.191 77.892 204.06 78.08 203.889 78.308C203.719 78.531 203.476 78.732 203.16 78.909C202.844 79.083 202.423 79.171 201.897 79.171ZM202.068 78.041C202.572 78.041 202.998 77.91 203.346 77.647C203.694 77.381 203.959 77.013 204.14 76.544C204.321 76.072 204.411 75.527 204.411 74.909C204.411 74.299 204.323 73.764 204.145 73.306C203.968 72.844 203.705 72.486 203.357 72.23C203.009 71.97 202.579 71.84 202.068 71.84C201.535 71.84 201.091 71.978 200.736 72.251C200.384 72.521 200.12 72.888 199.942 73.354C199.768 73.815 199.681 74.334 199.681 74.909C199.674 75.4497 199.764 75.9873 199.948 76.496C200.129 76.969 200.395 77.346 200.747 77.626C201.102 77.903 201.542 78.041 202.068 78.041ZM208.124 79V70.818H209.381V79H208.124ZM208.763 69.454C208.527 69.4578 208.3 69.3679 208.13 69.204C208.047 69.1277 207.98 69.0346 207.935 68.9308C207.89 68.8271 207.868 68.7151 207.869 68.602C207.869 68.368 207.956 68.167 208.13 68C208.3 67.8361 208.527 67.7462 208.763 67.75C209.008 67.75 209.218 67.834 209.392 68C209.477 68.0755 209.544 68.1683 209.59 68.2722C209.636 68.376 209.659 68.4885 209.658 68.602C209.659 68.7155 209.636 68.828 209.59 68.9318C209.544 69.0357 209.477 69.1285 209.392 69.204C209.309 69.2853 209.211 69.3493 209.103 69.3922C208.995 69.4351 208.879 69.4561 208.763 69.454ZM214.773 79.171C214.091 79.171 213.49 78.998 212.968 78.654C212.445 78.306 212.037 77.816 211.742 77.184C211.448 76.548 211.3 75.797 211.3 74.93C211.3 74.071 211.448 73.325 211.742 72.693C212.037 72.061 212.447 71.573 212.973 71.228C213.498 70.884 214.106 70.712 214.795 70.712C215.327 70.712 215.748 70.8 216.057 70.978C216.369 71.152 216.607 71.351 216.771 71.575C216.938 71.795 217.067 71.975 217.16 72.118H217.266V68.09H218.523V79H217.309V77.743H217.16C217.067 77.892 216.936 78.08 216.765 78.308C216.595 78.531 216.352 78.732 216.036 78.909C215.72 79.083 215.299 79.171 214.773 79.171ZM214.944 78.041C215.448 78.041 215.874 77.91 216.222 77.647C216.57 77.381 216.835 77.013 217.016 76.544C217.197 76.072 217.287 75.527 217.287 74.909C217.287 74.299 217.199 73.764 217.021 73.306C216.844 72.844 216.581 72.486 216.233 72.23C215.885 71.97 215.455 71.84 214.944 71.84C214.411 71.84 213.967 71.978 213.612 72.251C213.26 72.521 212.996 72.888 212.818 73.354C212.644 73.815 212.557 74.334 212.557 74.909C212.55 75.4497 212.64 75.9873 212.824 76.496C213.005 76.969 213.271 77.346 213.623 77.626C213.978 77.903 214.418 78.041 214.944 78.041ZM226.156 75.655V70.818H227.414V79H226.156V77.615H226.071C225.879 78.031 225.581 78.384 225.176 78.675C224.771 78.963 224.26 79.106 223.642 79.106C223.166 79.115 222.696 78.9996 222.279 78.771C221.881 78.544 221.568 78.203 221.341 77.748C221.114 77.29 221 76.713 221 76.017V70.818H222.257V75.932C222.257 76.528 222.424 77.004 222.758 77.359C223.095 77.715 223.525 77.892 224.047 77.892C224.36 77.892 224.677 77.812 225.001 77.652C225.327 77.492 225.601 77.248 225.821 76.917C226.045 76.587 226.156 76.167 226.156 75.655ZM230.973 74.078V79H229.716V70.818H230.93V72.097H231.037C231.229 71.681 231.52 71.347 231.911 71.095C232.301 70.84 232.805 70.712 233.423 70.712C233.977 70.712 234.462 70.825 234.878 71.052C235.293 71.276 235.616 71.617 235.847 72.075C236.078 72.53 236.193 73.105 236.193 73.801V79H234.936V73.886C234.936 73.244 234.769 72.743 234.435 72.384C234.102 72.022 233.644 71.841 233.061 71.841C232.66 71.841 232.301 71.928 231.985 72.101C231.67 72.2784 231.413 72.5434 231.245 72.864C231.064 73.197 230.973 73.602 230.973 74.078ZM242.049 70.818V71.884H237.809V70.818H242.049ZM239.044 68.858H240.301V76.656C240.301 77.011 240.353 77.278 240.456 77.456C240.547 77.6157 240.69 77.7393 240.861 77.806C241.028 77.864 241.203 77.892 241.388 77.892C241.527 77.892 241.64 77.885 241.729 77.871L241.942 77.828L242.198 78.958C242.081 78.9982 241.962 79.03 241.841 79.053C241.65 79.0922 241.455 79.1099 241.26 79.106C240.9 79.1052 240.544 79.0275 240.216 78.878C239.878 78.7249 239.588 78.4838 239.375 78.18C239.154 77.867 239.044 77.473 239.044 76.997V68.858ZM253.315 75.655V70.818H254.572V79H253.315V77.615H253.229C253.038 78.031 252.739 78.384 252.335 78.675C251.93 78.963 251.418 79.106 250.8 79.106C250.289 79.106 249.835 78.995 249.437 78.771C249.039 78.544 248.727 78.203 248.499 77.748C248.272 77.29 248.158 76.713 248.158 76.017V70.818H249.415V75.932C249.415 76.528 249.582 77.004 249.916 77.359C250.254 77.715 250.683 77.892 251.205 77.892C251.518 77.892 251.836 77.812 252.159 77.652C252.485 77.492 252.759 77.248 252.979 76.917C253.203 76.587 253.315 76.167 253.315 75.655ZM260.432 70.818V71.884H256.192V70.818H260.432ZM257.428 68.858H258.685V76.656C258.685 77.011 258.737 77.278 258.84 77.456C258.931 77.6159 259.074 77.7396 259.245 77.806C259.411 77.864 259.587 77.892 259.772 77.892C259.91 77.892 260.024 77.885 260.113 77.871L260.326 77.828L260.582 78.958C260.465 78.998 260.346 79.0297 260.225 79.053C260.034 79.0921 259.839 79.1099 259.644 79.106C259.284 79.1052 258.928 79.0275 258.6 78.878C258.262 78.7246 257.971 78.4836 257.758 78.18C257.538 77.867 257.428 77.473 257.428 76.997V68.858ZM56.408 91.091V102H55.15V91.09H56.407L56.408 91.091ZM61.118 102.192C60.6316 102.199 60.1496 102.099 59.706 101.899C59.2976 101.712 58.9493 101.415 58.7 101.041C58.45 100.665 58.327 100.21 58.327 99.678C58.327 99.208 58.419 98.828 58.604 98.538C58.788 98.243 59.035 98.012 59.344 97.845C59.653 97.678 59.994 97.554 60.367 97.472C60.743 97.387 61.121 97.32 61.501 97.27C61.998 97.206 62.401 97.158 62.711 97.126C63.023 97.091 63.251 97.032 63.392 96.95C63.538 96.869 63.611 96.727 63.611 96.524V96.481C63.611 95.956 63.467 95.548 63.179 95.256C62.895 94.966 62.464 94.82 61.885 94.82C61.285 94.82 60.815 94.951 60.473 95.214C60.133 95.477 59.893 95.757 59.754 96.055L58.561 95.629C58.774 95.132 59.058 94.745 59.413 94.468C59.772 94.188 60.163 93.992 60.585 93.882C61.011 93.768 61.43 93.712 61.842 93.712C62.105 93.712 62.407 93.744 62.748 93.808C63.1005 93.8714 63.4382 93.9996 63.744 94.186C64.067 94.377 64.335 94.666 64.548 95.054C64.761 95.441 64.868 95.96 64.868 96.609V102H63.61V100.892H63.546C63.4359 101.104 63.292 101.296 63.12 101.462C62.8912 101.684 62.6216 101.86 62.326 101.979C61.996 102.121 61.593 102.192 61.116 102.192H61.118ZM61.31 101.062C61.807 101.062 62.226 100.965 62.567 100.77C62.8792 100.6 63.1405 100.35 63.324 100.046C63.5075 99.7413 63.6066 99.3934 63.611 99.038V97.888C63.557 97.952 63.441 98.01 63.259 98.064C63.082 98.114 62.876 98.158 62.641 98.197C62.2409 98.259 61.8394 98.3123 61.437 98.357C61.1256 98.3959 60.8188 98.4652 60.521 98.564C60.2613 98.6434 60.0264 98.7884 59.839 98.985C59.669 99.17 59.584 99.422 59.584 99.742C59.584 100.178 59.745 100.509 60.068 100.732C60.395 100.952 60.808 101.062 61.31 101.062ZM67.333 102V91.09H68.59V95.118H68.696C68.789 94.976 68.916 94.795 69.08 94.575C69.247 94.351 69.485 94.152 69.794 93.978C70.106 93.8 70.529 93.712 71.061 93.712C71.751 93.712 72.358 93.884 72.883 94.228C73.409 94.573 73.819 95.061 74.113 95.693C74.408 96.325 74.556 97.071 74.556 97.93C74.556 98.797 74.408 99.548 74.114 100.184C73.819 100.816 73.411 101.306 72.889 101.654C72.366 101.998 71.765 102.17 71.083 102.17C70.557 102.17 70.136 102.083 69.82 101.909C69.5383 101.76 69.2899 101.556 69.09 101.308C68.9508 101.125 68.8194 100.937 68.696 100.743H68.547V102H67.333ZM68.569 97.91C68.569 98.527 68.659 99.072 68.84 99.544C69.021 100.013 69.286 100.381 69.634 100.647C69.982 100.91 70.408 101.041 70.912 101.041C71.438 101.041 71.876 100.903 72.228 100.626C72.583 100.345 72.849 99.969 73.027 99.496C73.2138 98.9881 73.306 98.4502 73.299 97.909C73.299 97.334 73.209 96.815 73.032 96.354C72.8793 95.9177 72.6039 95.5347 72.239 95.251C71.887 94.978 71.445 94.841 70.912 94.841C70.401 94.841 69.972 94.971 69.623 95.23C69.275 95.485 69.013 95.844 68.835 96.306C68.657 96.764 68.568 97.298 68.568 97.909L68.569 97.91ZM79.803 102.17C79.063 102.17 78.416 101.995 77.858 101.643C77.304 101.292 76.871 100.8 76.558 100.168C76.25 99.535 76.095 98.797 76.095 97.952C76.095 97.099 76.25 96.356 76.559 95.72C76.871 95.084 77.304 94.59 77.859 94.239C78.416 93.887 79.064 93.712 79.803 93.712C80.541 93.712 81.188 93.887 81.742 94.239C82.299 94.591 82.732 95.084 83.042 95.719C83.354 96.356 83.51 97.099 83.51 97.952C83.51 98.797 83.354 99.536 83.041 100.168C82.7561 100.773 82.3053 101.284 81.741 101.643C81.188 101.995 80.541 102.17 79.803 102.17ZM79.803 101.041C80.363 101.041 80.825 100.897 81.188 100.61C81.55 100.322 81.818 99.944 81.992 99.475C82.166 99.006 82.252 98.499 82.252 97.952C82.252 97.405 82.166 96.895 81.992 96.422C81.8346 95.9739 81.5563 95.5779 81.188 95.278C80.825 94.987 80.364 94.841 79.803 94.841C79.242 94.841 78.78 94.987 78.418 95.278C78.055 95.568 77.788 95.951 77.613 96.423C77.4362 96.9132 77.3482 97.4309 77.353 97.952C77.353 98.499 77.439 99.006 77.613 99.475C77.787 99.944 78.055 100.322 78.418 100.61C78.78 100.897 79.242 101.041 79.803 101.041ZM85.429 102V93.818H86.643V95.054H86.729C86.878 94.649 87.148 94.321 87.539 94.068C87.929 93.816 88.369 93.69 88.859 93.69C88.952 93.69 89.067 93.692 89.205 93.696C89.344 93.699 89.449 93.704 89.52 93.712V94.99C89.423 94.9701 89.3253 94.9541 89.227 94.942C89.0703 94.9167 88.9117 94.9043 88.753 94.905C88.355 94.905 88 94.988 87.687 95.155C87.379 95.318 87.133 95.545 86.952 95.837C86.7721 96.1336 86.6799 96.4751 86.686 96.822V102H85.429ZM94.191 102.17C93.403 102.17 92.723 101.996 92.151 101.648C91.5803 101.294 91.1235 100.784 90.835 100.178C90.53 99.546 90.377 98.811 90.377 97.973C90.377 97.135 90.53 96.396 90.836 95.757C91.144 95.114 91.574 94.614 92.125 94.255C92.678 93.893 93.325 93.712 94.064 93.712C94.49 93.712 94.91 93.782 95.326 93.925C95.741 94.067 96.12 94.298 96.461 94.617C96.801 94.933 97.073 95.352 97.275 95.874C97.478 96.396 97.579 97.039 97.579 97.803V98.335H91.272V97.25H96.301C96.301 96.788 96.208 96.376 96.024 96.014C95.8508 95.6603 95.5811 95.3629 95.246 95.156C94.912 94.946 94.518 94.842 94.064 94.842C93.563 94.842 93.13 94.966 92.764 95.215C92.4054 95.4554 92.1167 95.7862 91.927 96.174C91.7322 96.5678 91.6322 97.0017 91.635 97.441V98.166C91.635 98.784 91.741 99.307 91.955 99.737C92.171 100.163 92.471 100.488 92.855 100.712C93.238 100.932 93.684 101.042 94.191 101.042C94.521 101.042 94.82 100.996 95.086 100.904C95.3466 100.814 95.5846 100.668 95.784 100.478C95.9857 100.276 96.1403 100.032 96.237 99.764L97.451 100.105C97.3256 100.513 97.1049 100.885 96.807 101.191C96.4902 101.51 96.1086 101.757 95.688 101.916C95.244 102.086 94.745 102.17 94.191 102.17ZM107.141 102.17C106.352 102.17 105.672 101.996 105.101 101.648C104.53 101.294 104.074 100.784 103.785 100.178C103.479 99.546 103.327 98.811 103.327 97.973C103.327 97.135 103.479 96.396 103.785 95.757C104.094 95.114 104.523 94.614 105.074 94.255C105.628 93.893 106.274 93.712 107.013 93.712C107.439 93.712 107.86 93.782 108.275 93.925C108.691 94.067 109.069 94.298 109.41 94.617C109.75 94.933 110.022 95.352 110.225 95.874C110.427 96.396 110.528 97.039 110.528 97.803V98.335H104.222V97.25H109.25C109.25 96.788 109.158 96.376 108.973 96.014C108.8 95.6603 108.53 95.3629 108.195 95.156C107.861 94.946 107.467 94.842 107.013 94.842C106.512 94.842 106.079 94.966 105.713 95.215C105.355 95.4555 105.066 95.7864 104.877 96.174C104.682 96.5677 104.582 97.0016 104.584 97.441V98.166C104.584 98.784 104.69 99.307 104.904 99.737C105.12 100.163 105.42 100.488 105.804 100.712C106.187 100.932 106.633 101.042 107.141 101.042C107.471 101.042 107.769 100.996 108.035 100.904C108.296 100.814 108.534 100.668 108.733 100.478C108.928 100.286 109.079 100.048 109.186 99.764L110.4 100.105C110.275 100.513 110.054 100.885 109.756 101.191C109.439 101.51 109.058 101.757 108.637 101.916C108.193 102.086 107.695 102.17 107.141 102.17ZM115.999 93.818V94.884H111.759V93.818H115.999ZM112.995 91.858H114.252V99.656C114.252 100.011 114.303 100.278 114.406 100.455C114.497 100.615 114.64 100.74 114.811 100.807C114.978 100.864 115.154 100.892 115.338 100.892C115.477 100.892 115.591 100.885 115.679 100.871L115.892 100.828L116.148 101.957C116.031 101.998 115.912 102.03 115.791 102.053C115.6 102.093 115.406 102.111 115.211 102.107C114.855 102.107 114.507 102.03 114.167 101.877C113.829 101.724 113.538 101.484 113.325 101.18C113.105 100.867 112.995 100.473 112.995 99.997V91.858ZM125.198 102.17C124.516 102.17 123.914 101.998 123.392 101.654C122.87 101.306 122.462 100.816 122.167 100.184C121.872 99.548 121.725 98.797 121.725 97.93C121.725 97.071 121.872 96.325 122.167 95.693C122.462 95.061 122.872 94.573 123.397 94.228C123.923 93.884 124.53 93.712 125.219 93.712C125.752 93.712 126.173 93.8 126.482 93.978C126.794 94.152 127.032 94.351 127.196 94.575C127.362 94.795 127.492 94.975 127.584 95.118H127.691V91.09H128.948V102H127.734V100.743H127.584C127.461 100.937 127.329 101.125 127.19 101.308C127.02 101.531 126.777 101.732 126.46 101.909C126.144 102.083 125.724 102.17 125.198 102.17ZM125.368 101.041C125.873 101.041 126.298 100.91 126.647 100.647C126.995 100.381 127.259 100.013 127.441 99.544C127.621 99.072 127.712 98.527 127.712 97.909C127.712 97.299 127.624 96.764 127.446 96.306C127.268 95.844 127.006 95.486 126.658 95.23C126.31 94.97 125.88 94.84 125.368 94.84C124.836 94.84 124.392 94.978 124.037 95.251C123.685 95.521 123.421 95.888 123.243 96.354C123.069 96.815 122.983 97.334 122.983 97.909C122.983 98.491 123.071 99.021 123.249 99.496C123.408 99.9379 123.684 100.328 124.048 100.626C124.403 100.903 124.843 101.041 125.368 101.041ZM134.749 102.17C134.01 102.17 133.362 101.995 132.805 101.643C132.242 101.282 131.792 100.772 131.505 100.168C131.196 99.535 131.041 98.797 131.041 97.952C131.041 97.099 131.196 96.356 131.505 95.72C131.817 95.084 132.251 94.59 132.805 94.239C133.362 93.887 134.01 93.712 134.749 93.712C135.487 93.712 136.134 93.887 136.688 94.239C137.245 94.591 137.679 95.084 137.987 95.719C138.3 96.356 138.456 97.099 138.456 97.952C138.456 98.797 138.3 99.536 137.987 100.168C137.703 100.773 137.252 101.284 136.688 101.643C136.134 101.995 135.487 102.17 134.749 102.17ZM134.749 101.041C135.31 101.041 135.772 100.897 136.134 100.61C136.496 100.322 136.764 99.944 136.938 99.475C137.112 99.006 137.199 98.499 137.199 97.952C137.199 97.405 137.112 96.895 136.938 96.422C136.781 95.9739 136.502 95.578 136.134 95.278C135.772 94.987 135.31 94.841 134.749 94.841C134.188 94.841 133.726 94.987 133.364 95.278C133.002 95.568 132.734 95.951 132.56 96.423C132.383 96.9131 132.295 97.4309 132.299 97.952C132.299 98.499 132.386 99.006 132.56 99.475C132.734 99.944 133.002 100.322 133.364 100.61C133.726 100.897 134.188 101.041 134.749 101.041ZM141.632 91.091V102H140.375V91.09H141.632V91.091ZM147.259 102.17C146.52 102.17 145.872 101.995 145.314 101.643C144.76 101.292 144.327 100.8 144.015 100.168C143.706 99.535 143.551 98.797 143.551 97.952C143.551 97.099 143.706 96.356 144.015 95.72C144.327 95.084 144.76 94.59 145.314 94.239C145.872 93.887 146.52 93.712 147.259 93.712C147.997 93.712 148.644 93.887 149.198 94.239C149.755 94.591 150.188 95.084 150.497 95.719C150.81 96.356 150.966 97.099 150.966 97.952C150.966 98.797 150.81 99.536 150.497 100.168C150.212 100.773 149.762 101.284 149.198 101.643C148.644 101.995 147.997 102.17 147.259 102.17ZM147.259 101.041C147.82 101.041 148.281 100.897 148.644 100.61C149.006 100.322 149.274 99.944 149.448 99.475C149.622 99.006 149.709 98.499 149.709 97.952C149.709 97.405 149.622 96.895 149.448 96.422C149.291 95.9739 149.012 95.578 148.644 95.278C148.281 94.987 147.82 94.841 147.259 94.841C146.698 94.841 146.236 94.987 145.874 95.278C145.505 95.5779 145.226 95.9743 145.069 96.423C144.892 96.9131 144.804 97.4309 144.808 97.952C144.808 98.499 144.895 99.006 145.069 99.475C145.243 99.944 145.511 100.322 145.874 100.61C146.236 100.897 146.698 101.041 147.259 101.041ZM152.885 102V93.818H154.099V95.054H154.185C154.334 94.649 154.604 94.321 154.994 94.068C155.388 93.8151 155.847 93.6836 156.315 93.69C156.408 93.69 156.523 93.692 156.662 93.696C156.767 93.6978 156.872 93.7031 156.976 93.712V94.99C156.879 94.9701 156.781 94.9541 156.683 94.942C156.526 94.9167 156.368 94.9043 156.209 94.905C155.838 94.8984 155.472 94.9844 155.143 95.155C154.835 95.318 154.589 95.545 154.408 95.837C154.228 96.1337 154.136 96.4752 154.142 96.822V102H152.885ZM161.647 102.17C160.859 102.17 160.179 101.996 159.607 101.648C159.036 101.295 158.58 100.784 158.292 100.178C157.986 99.546 157.833 98.811 157.833 97.973C157.833 97.135 157.986 96.396 158.292 95.757C158.6 95.114 159.03 94.614 159.581 94.255C160.135 93.893 160.781 93.712 161.52 93.712C161.946 93.712 162.366 93.782 162.782 93.925C163.197 94.067 163.576 94.298 163.917 94.617C164.257 94.933 164.529 95.352 164.732 95.874C164.934 96.396 165.035 97.039 165.035 97.803V98.335H158.728V97.25H163.757C163.764 96.8218 163.669 96.3981 163.48 96.014C163.307 95.6604 163.037 95.363 162.702 95.156C162.368 94.946 161.974 94.842 161.52 94.842C161.019 94.842 160.586 94.966 160.22 95.215C159.862 95.4555 159.573 95.7863 159.384 96.174C159.189 96.5676 159.088 97.0016 159.091 97.441V98.166C159.091 98.784 159.197 99.307 159.41 99.737C159.627 100.163 159.927 100.488 160.31 100.712C160.694 100.932 161.14 101.042 161.647 101.042C161.978 101.042 162.276 100.996 162.542 100.904C162.812 100.808 163.045 100.666 163.24 100.478C163.441 100.276 163.596 100.032 163.693 99.764L164.907 100.105C164.782 100.513 164.561 100.885 164.263 101.191C163.946 101.51 163.565 101.757 163.144 101.916C162.665 102.092 162.157 102.178 161.647 102.17ZM171.166 102V93.818H172.381V95.097H172.487C172.644 94.6768 172.934 94.3193 173.313 94.079C173.693 93.834 174.149 93.712 174.682 93.712C175.222 93.712 175.671 93.834 176.029 94.079C176.392 94.321 176.674 94.659 176.876 95.097H176.962C177.171 94.674 177.485 94.338 177.904 94.09C178.324 93.838 178.826 93.712 179.412 93.712C180.143 93.712 180.742 93.941 181.207 94.399C181.672 94.853 181.905 95.562 181.905 96.524V102H180.648V96.524C180.648 95.921 180.483 95.489 180.152 95.23C179.82 94.9696 179.408 94.8318 178.986 94.84C178.411 94.84 177.965 95.015 177.649 95.363C177.333 95.707 177.175 96.144 177.175 96.673V102H175.896V96.396C175.896 95.931 175.745 95.556 175.444 95.272C175.142 94.985 174.753 94.841 174.277 94.841C173.95 94.841 173.645 94.928 173.361 95.101C173.075 95.2802 172.84 95.5299 172.679 95.826C172.509 96.132 172.423 96.486 172.423 96.886V102H171.166ZM186.611 102.192C186.093 102.192 185.622 102.094 185.199 101.899C184.791 101.712 184.442 101.415 184.193 101.041C183.944 100.665 183.82 100.21 183.82 99.678C183.82 99.208 183.912 98.828 184.097 98.538C184.281 98.243 184.528 98.012 184.837 97.845C185.146 97.678 185.487 97.554 185.86 97.472C186.236 97.387 186.615 97.32 186.994 97.27C187.492 97.206 187.895 97.158 188.204 97.126C188.516 97.091 188.743 97.032 188.885 96.95C189.031 96.869 189.104 96.727 189.104 96.524V96.481C189.104 95.956 188.96 95.548 188.672 95.256C188.388 94.966 187.957 94.82 187.378 94.82C186.778 94.82 186.307 94.951 185.966 95.214C185.626 95.477 185.386 95.757 185.247 96.055L184.054 95.629C184.267 95.132 184.551 94.745 184.906 94.468C185.265 94.188 185.656 93.992 186.078 93.882C186.504 93.768 186.923 93.712 187.335 93.712C187.598 93.712 187.9 93.744 188.241 93.808C188.585 93.868 188.917 93.994 189.237 94.186C189.56 94.377 189.828 94.666 190.041 95.054C190.254 95.441 190.361 95.96 190.361 96.609V102H189.104V100.892H189.04C188.93 101.104 188.786 101.296 188.614 101.462C188.385 101.684 188.116 101.859 187.82 101.979C187.49 102.121 187.087 102.192 186.611 102.192ZM186.803 101.062C187.3 101.062 187.719 100.965 188.06 100.77C188.404 100.574 188.664 100.322 188.838 100.013C189.015 99.704 189.104 99.379 189.104 99.038V97.888C189.051 97.952 188.933 98.01 188.752 98.064C188.575 98.114 188.369 98.158 188.134 98.197C187.734 98.2591 187.333 98.3125 186.931 98.357C186.619 98.3958 186.312 98.4652 186.014 98.564C185.755 98.6435 185.52 98.7885 185.333 98.985C185.162 99.17 185.077 99.422 185.077 99.742C185.077 100.178 185.238 100.509 185.562 100.732C185.888 100.952 186.302 101.062 186.803 101.062ZM195.958 105.239C195.351 105.239 194.829 105.161 194.392 105.004C193.993 104.873 193.622 104.667 193.3 104.397C193.03 104.169 192.798 103.899 192.613 103.598L193.614 102.895C193.728 103.044 193.872 103.214 194.046 103.406C194.22 103.602 194.458 103.77 194.759 103.912C195.065 104.058 195.464 104.131 195.958 104.131C196.619 104.131 197.164 103.971 197.593 103.651C198.023 103.332 198.238 102.831 198.238 102.149V100.487H198.131C198.009 100.678 197.878 100.863 197.737 101.041C197.57 101.258 197.329 101.451 197.013 101.622C196.7 101.789 196.278 101.872 195.745 101.872C195.12 101.882 194.505 101.72 193.966 101.403C193.444 101.091 193.03 100.636 192.725 100.04C192.423 99.443 192.272 98.719 192.272 97.866C192.272 97.028 192.419 96.299 192.714 95.677C193.009 95.052 193.419 94.569 193.945 94.228C194.47 93.884 195.077 93.712 195.766 93.712C196.299 93.712 196.722 93.8 197.034 93.978C197.35 94.152 197.592 94.351 197.758 94.575C197.929 94.795 198.06 94.975 198.153 95.118H198.28V93.818H199.495V102.234C199.495 102.938 199.335 103.509 199.016 103.95C198.697 104.395 198.251 104.734 197.737 104.924C197.169 105.14 196.566 105.247 195.958 105.239ZM195.915 100.743C196.42 100.743 196.846 100.627 197.194 100.397C197.542 100.166 197.806 99.834 197.987 99.401C198.169 98.967 198.259 98.449 198.259 97.845C198.259 97.255 198.17 96.735 197.993 96.285C197.815 95.834 197.552 95.48 197.204 95.225C196.856 94.969 196.427 94.841 195.915 94.841C195.383 94.841 194.939 94.976 194.584 95.246C194.232 95.516 193.968 95.878 193.79 96.332C193.611 96.816 193.522 97.3289 193.529 97.845C193.529 98.413 193.618 98.915 193.795 99.353C193.976 99.786 194.243 100.127 194.594 100.375C194.949 100.62 195.39 100.743 195.915 100.743ZM203.053 97.078V102H201.796V93.818H203.011V95.097H203.117C203.309 94.681 203.6 94.347 203.991 94.095C204.381 93.84 204.886 93.712 205.503 93.712C206.057 93.712 206.542 93.825 206.958 94.052C207.373 94.276 207.696 94.617 207.927 95.075C208.158 95.53 208.273 96.105 208.273 96.801V102H207.016V96.886C207.016 96.244 206.849 95.743 206.516 95.384C206.182 95.022 205.724 94.841 205.141 94.841C204.74 94.841 204.381 94.928 204.065 95.101C203.75 95.2784 203.493 95.5434 203.325 95.864C203.144 96.197 203.053 96.602 203.053 97.078ZM212.978 102.192C212.46 102.192 211.989 102.094 211.567 101.899C211.158 101.712 210.809 101.415 210.56 101.041C210.311 100.665 210.187 100.21 210.187 99.678C210.187 99.208 210.279 98.828 210.464 98.538C210.649 98.243 210.895 98.012 211.204 97.845C211.513 97.678 211.854 97.554 212.227 97.472C212.604 97.387 212.982 97.32 213.362 97.27C213.859 97.206 214.262 97.158 214.571 97.126C214.883 97.091 215.111 97.032 215.253 96.95C215.398 96.869 215.471 96.727 215.471 96.524V96.481C215.471 95.956 215.327 95.548 215.04 95.256C214.756 94.966 214.324 94.82 213.745 94.82C213.145 94.82 212.675 94.951 212.334 95.214C211.993 95.477 211.753 95.757 211.615 96.055L210.421 95.629C210.634 95.132 210.919 94.745 211.274 94.468C211.62 94.1938 212.018 93.9943 212.445 93.882C212.872 93.768 213.291 93.712 213.703 93.712C213.965 93.712 214.267 93.744 214.608 93.808C214.953 93.868 215.285 93.994 215.604 94.186C215.927 94.377 216.195 94.666 216.409 95.054C216.622 95.441 216.728 95.96 216.728 96.609V102H215.471V100.892H215.407C215.297 101.104 215.153 101.296 214.981 101.462C214.752 101.684 214.483 101.86 214.187 101.979C213.857 102.121 213.454 102.192 212.978 102.192ZM213.17 101.062C213.667 101.062 214.086 100.965 214.427 100.77C214.771 100.574 215.031 100.322 215.205 100.013C215.382 99.704 215.471 99.379 215.471 99.038V97.888C215.418 97.952 215.301 98.01 215.119 98.064C214.942 98.114 214.736 98.158 214.502 98.197C214.102 98.2589 213.7 98.3123 213.298 98.357C212.987 98.3958 212.68 98.4652 212.382 98.564C212.122 98.6433 211.887 98.7883 211.7 98.985C211.529 99.17 211.444 99.422 211.444 99.742C211.444 100.178 211.606 100.509 211.929 100.732C212.256 100.952 212.669 101.062 213.17 101.062ZM225.649 102.192C225.131 102.192 224.66 102.094 224.237 101.899C223.829 101.712 223.48 101.415 223.231 101.041C222.982 100.665 222.858 100.21 222.858 99.678C222.858 99.208 222.95 98.828 223.135 98.538C223.32 98.243 223.566 98.012 223.875 97.845C224.184 97.678 224.525 97.554 224.898 97.472C225.274 97.387 225.653 97.32 226.033 97.27C226.53 97.206 226.933 97.158 227.242 97.126C227.554 97.091 227.782 97.032 227.924 96.95C228.069 96.869 228.142 96.727 228.142 96.524V96.481C228.142 95.956 227.998 95.548 227.71 95.256C227.426 94.966 226.995 94.82 226.416 94.82C225.816 94.82 225.345 94.951 225.005 95.214C224.664 95.477 224.424 95.757 224.285 96.055L223.092 95.629C223.305 95.132 223.589 94.745 223.945 94.468C224.291 94.1938 224.689 93.9943 225.116 93.882C225.543 93.768 225.962 93.712 226.373 93.712C226.636 93.712 226.938 93.744 227.279 93.808C227.623 93.868 227.956 93.994 228.275 94.186C228.598 94.377 228.866 94.666 229.079 95.054C229.293 95.441 229.399 95.96 229.399 96.609V102H228.142V100.892H228.078C227.968 101.104 227.824 101.296 227.652 101.462C227.423 101.684 227.154 101.859 226.858 101.979C226.528 102.121 226.125 102.192 225.649 102.192ZM225.841 101.062C226.338 101.062 226.757 100.965 227.098 100.77C227.442 100.574 227.702 100.322 227.876 100.013C228.053 99.704 228.142 99.379 228.142 99.038V97.888C228.089 97.952 227.972 98.01 227.79 98.064C227.613 98.114 227.407 98.158 227.172 98.197C226.772 98.2591 226.371 98.3125 225.969 98.357C225.657 98.396 225.35 98.4653 225.052 98.564C224.793 98.6435 224.558 98.7885 224.371 98.985C224.2 99.17 224.115 99.422 224.115 99.742C224.115 100.178 224.277 100.509 224.6 100.732C224.926 100.952 225.34 101.062 225.841 101.062ZM232.951 91.091V102H231.694V91.09H232.951V91.091ZM235.253 102V93.818H236.51V102H235.253ZM235.892 92.454C235.656 92.4575 235.428 92.3677 235.258 92.204C235.175 92.1277 235.108 92.0346 235.063 91.9308C235.018 91.8271 234.996 91.7151 234.997 91.602C234.997 91.368 235.084 91.167 235.258 91C235.428 90.8363 235.656 90.7465 235.892 90.75C236.137 90.75 236.347 90.834 236.521 91C236.606 91.0757 236.673 91.1685 236.719 91.2723C236.765 91.3761 236.788 91.4885 236.787 91.602C236.788 91.7155 236.765 91.8279 236.719 91.9317C236.673 92.0355 236.606 92.1283 236.521 92.204C236.438 92.2853 236.34 92.3493 236.232 92.3922C236.124 92.4351 236.008 92.4561 235.892 92.454ZM244.395 105.068V100.743H244.289C244.165 100.937 244.033 101.125 243.894 101.308C243.724 101.531 243.481 101.732 243.165 101.909C242.849 102.083 242.428 102.17 241.902 102.17C241.22 102.17 240.618 101.998 240.096 101.654C239.574 101.306 239.166 100.816 238.871 100.184C238.577 99.548 238.429 98.797 238.429 97.93C238.429 97.071 238.577 96.325 238.871 95.693C239.166 95.061 239.576 94.573 240.102 94.228C240.627 93.884 241.235 93.712 241.923 93.712C242.456 93.712 242.877 93.8 243.186 93.978C243.498 94.152 243.736 94.351 243.9 94.575C244.067 94.795 244.196 94.975 244.289 95.118H244.438V93.818H245.652V105.068H244.395ZM242.073 101.041C242.577 101.041 243.003 100.91 243.351 100.647C243.699 100.381 243.964 100.013 244.145 99.544C244.326 99.072 244.416 98.527 244.416 97.909C244.416 97.299 244.328 96.764 244.15 96.306C243.972 95.844 243.71 95.486 243.362 95.23C243.014 94.97 242.584 94.84 242.073 94.84C241.54 94.84 241.096 94.978 240.741 95.251C240.389 95.521 240.125 95.888 239.947 96.354C239.773 96.815 239.686 97.334 239.686 97.909C239.679 98.4497 239.769 98.9873 239.953 99.496C240.134 99.969 240.4 100.345 240.752 100.626C241.107 100.903 241.547 101.041 242.073 101.041ZM253.11 98.655V93.818H254.367V102H253.11V100.615H253.024C252.833 101.031 252.534 101.384 252.129 101.675C251.725 101.963 251.213 102.107 250.595 102.107C250.084 102.107 249.629 101.995 249.232 101.771C248.834 101.544 248.521 101.203 248.294 100.748C248.067 100.29 247.953 99.713 247.953 99.017V93.818H249.21V98.932C249.21 99.528 249.377 100.004 249.711 100.359C250.048 100.714 250.478 100.892 251 100.892C251.313 100.892 251.631 100.812 251.954 100.652C252.28 100.493 252.554 100.248 252.774 99.917C252.998 99.587 253.11 99.167 253.11 98.655ZM259.077 102.192C258.558 102.192 258.088 102.094 257.665 101.899C257.256 101.712 256.908 101.415 256.658 101.041C256.41 100.665 256.286 100.21 256.286 99.678C256.286 99.208 256.378 98.828 256.563 98.538C256.747 98.243 256.994 98.012 257.303 97.845C257.612 97.678 257.953 97.554 258.326 97.472C258.702 97.387 259.08 97.32 259.46 97.27C259.957 97.206 260.361 97.158 260.669 97.126C260.982 97.091 261.209 97.032 261.351 96.95C261.497 96.869 261.57 96.727 261.57 96.524V96.481C261.57 95.956 261.426 95.548 261.138 95.256C260.854 94.966 260.423 94.82 259.844 94.82C259.244 94.82 258.773 94.951 258.432 95.214C258.091 95.477 257.852 95.757 257.713 96.055L256.52 95.629C256.733 95.132 257.017 94.745 257.372 94.468C257.731 94.188 258.122 93.992 258.544 93.882C258.97 93.768 259.389 93.712 259.801 93.712C260.064 93.712 260.366 93.744 260.707 93.808C261.051 93.868 261.383 93.994 261.703 94.186C262.026 94.377 262.294 94.666 262.507 95.054C262.72 95.441 262.827 95.96 262.827 96.609V102H261.57V100.892H261.506C261.396 101.104 261.252 101.296 261.08 101.462C260.851 101.684 260.582 101.859 260.286 101.979C259.956 102.121 259.553 102.192 259.077 102.192ZM259.269 101.062C259.766 101.062 260.185 100.965 260.526 100.77C260.838 100.6 261.099 100.35 261.283 100.046C261.466 99.7412 261.565 99.3934 261.57 99.038V97.888C261.516 97.952 261.399 98.01 261.218 98.064C261.041 98.114 260.835 98.158 260.6 98.197C260.2 98.2589 259.798 98.3123 259.396 98.357C259.085 98.396 258.778 98.4653 258.48 98.564C258.2 98.657 257.972 98.797 257.798 98.985C257.628 99.17 257.543 99.422 257.543 99.742C257.543 100.178 257.704 100.509 258.027 100.732C258.354 100.952 258.768 101.062 259.269 101.062ZM266.037 102.085C265.911 102.087 265.786 102.062 265.67 102.014C265.554 101.965 265.448 101.894 265.361 101.803C265.27 101.715 265.198 101.61 265.15 101.494C265.101 101.377 265.077 101.252 265.079 101.126C265.079 100.864 265.173 100.638 265.361 100.45C265.448 100.359 265.554 100.288 265.67 100.239C265.786 100.191 265.911 100.166 266.037 100.168C266.3 100.168 266.526 100.262 266.714 100.45C266.805 100.537 266.876 100.643 266.925 100.759C266.973 100.875 266.998 101 266.996 101.126C266.993 101.294 266.947 101.458 266.863 101.603C266.78 101.748 266.66 101.87 266.517 101.957C266.372 102.043 266.206 102.088 266.037 102.085Z" fill="#4D5C6C"/>
<path d="M296 0.5H4C2.067 0.5 0.5 2.067 0.5 4V120C0.5 121.933 2.067 123.5 4 123.5H296C297.933 123.5 299.5 121.933 299.5 120V4C299.5 2.067 297.933 0.5 296 0.5Z" stroke="#DEE7F3"/>
<path d="M35 19V21L19 25V23H17V35H19V33L21 33.5V35.5C21 37.4 22.6 39 24.5 39C26.4 39 28 37.4 28 35.5V35.3L35 37V39H37V19H35ZM26 35.5C26 36.3 25.3 37 24.5 37C23.7 37 23 36.3 23 35.5V34L26 34.8V35.5ZM35 35L19 31V27L35 23V35Z" fill="#4D5C6C"/>
</svg>
