<svg
  class="railroad"
  viewBox="0 0 723 1456"
  xmlns="http://www.w3.org/2000/svg"
  xmlns:xlink="http://www.w3.org/1999/xlink"
>
  <style type="text/css">
    svg.railroad {
      background-color: hsl(30, 20%, 95%);
      background-size: 15px 15px;
      background-image: linear-gradient(
          to right,
          rgba(30, 30, 30, 0.05) 1px,
          transparent 1px
        ),
        linear-gradient(to bottom, rgba(30, 30, 30, 0.05) 1px, transparent 1px);
    }

    svg.railroad rect.railroad_canvas {
      stroke-width: 0px;
      fill: none;
    }

    svg.railroad path {
      stroke-width: 3px;
      stroke: black;
      fill: none;
    }

    svg.railroad .debug {
      stroke-width: 1px;
      stroke: red;
    }

    svg.railroad text {
      font: 14px monospace;
      text-anchor: middle;
    }

    svg.railroad .nonterminal text {
      font-weight: bold;
    }

    svg.railroad text.comment {
      font: italic 12px monospace;
    }

    svg.railroad rect {
      stroke-width: 3px;
      stroke: black;
      fill: hsl(-290, 70%, 90%);
    }

    svg.railroad g.labeledbox > rect {
      stroke-width: 1px;
      stroke: grey;
      stroke-dasharray: 5px;
      fill: rgba(90, 90, 150, 0.1);
    }
  </style>
  <rect class="railroad_canvas" height="100%" width="100%" />
  <g class="verticalgrid">
    <g class="sequence">
      <path
        d=" M 10 21 a 5 5 0 0 1 5 -5 a 5 5 0 0 1 5 5 a 5 5 0 0 1 -5 5 a 5 5 0 0 1 -5 -5 m 10 0 h 5"
      />
      <g class="sequence">
        <text class="comment" x="54" y="26">expr</text>
        <g class="choice">
          <path
            d=" M 83 21 h 24 m 100 0 h 298 m -146 0 l -5 -5 m 0 10 l 5 -5 m 146 0"
          />
          <g class="nonterminal">
            <rect height="22" width="100" x="107" y="10" />
            <text x="157" y="26">underscore</text>
          </g>
          <path
            d=" M 83 21 a 12 12 0 0 1 12 12 v 9 m 398 0 v -9 a 12 12 0 0 1 12 -12"
          />
          <path
            d=" M 95 42 v 0 a 12 12 0 0 0 12 12 m 374 0 h 0 a 12 12 0 0 0 12 -12 v 0"
          />
          <g class="sequence">
            <g class="nonterminal">
              <rect height="22" width="52" x="107" y="43" />
              <text x="133" y="59">path</text>
            </g>
            <g class="repeat">
              <path
                d=" M 169 54 h 12 m 288 0 h 12 m -12 0 a 12 12 0 0 1 12 12 v 319 m 0 -156 l -5 -5 m 10 0 l -5 5 m 0 156 a 12 12 0 0 1 -12 12 m 0 0 h -288 m 147 0 l 5 -5 m 0 10 l -5 -5 m -147 0 a 12 12 0 0 1 -12 -12 v -319 m 0 162 l -5 5 m 10 0 l -5 -5 m 0 -162 a 12 12 0 0 1 12 -12"
              />
              <g />
              <g class="choice">
                <path
                  d=" M 181 54 h 24 m 0 0 h 264 m -129 0 l -5 -5 m 0 10 l 5 -5 m 129 0"
                />
                <g />
                <path
                  d=" M 181 54 a 12 12 0 0 1 12 12 v 0 m 264 0 v 0 a 12 12 0 0 1 12 -12"
                />
                <path
                  d=" M 193 101 v 87 m 0 -40 l -5 -5 m 10 0 l -5 5 m 0 40 m 264 0 v -87 m 0 46 l -5 5 m 10 0 l -5 -5 m 0 -46"
                />
                <path
                  d=" M 193 66 v 35 a 12 12 0 0 0 12 12 m 240 0 h 0 a 12 12 0 0 0 12 -12 v -35"
                />
                <g class="labeledbox">
                  <rect height="112" width="240" x="205" y="66" />
                  <path d=" M 205 113 h 8 m 224 0 h 8" />
                  <text class="comment" x="260" y="89">index access</text>
                  <g class="sequence">
                    <g class="terminal">
                      <rect
                        height="22"
                        rx="10"
                        ry="10"
                        width="28"
                        x="213"
                        y="102"
                      />
                      <text x="227" y="118">[</text>
                    </g>
                    <g class="choice">
                      <path d=" M 251 113 h 24 m 100 0 h 24" />
                      <g class="repeat">
                        <path
                          d=" M 275 113 h 12 m 76 0 h 12 m -12 0 a 12 12 0 0 1 12 12 v 0 a 12 12 0 0 1 -12 12 m 0 0 h -76 m 41 0 l 5 -5 m 0 10 l -5 -5 m -41 0 a 12 12 0 0 1 -12 -12 v 0 a 12 12 0 0 1 12 -12"
                        />
                        <g />
                        <g class="nonterminal">
                          <rect height="22" width="76" x="287" y="102" />
                          <text x="325" y="118">/[0-9]/</text>
                        </g>
                      </g>
                      <path
                        d=" M 251 113 a 12 12 0 0 1 12 12 v 22 m 124 0 v -22 a 12 12 0 0 1 12 -12"
                      />
                      <path
                        d=" M 263 147 v 0 a 12 12 0 0 0 12 12 m 52 0 h 48 a 12 12 0 0 0 12 -12 v 0"
                      />
                      <g class="nonterminal">
                        <rect height="22" width="52" x="275" y="148" />
                        <text x="301" y="164">expr</text>
                      </g>
                    </g>
                    <g class="terminal">
                      <rect
                        height="22"
                        rx="10"
                        ry="10"
                        width="28"
                        x="409"
                        y="102"
                      />
                      <text x="423" y="118">]</text>
                    </g>
                    <path d=" M 241 113 h 10" />
                    <path d=" M 399 113 h 10" />
                  </g>
                </g>
                <path
                  d=" M 193 188 v 71 m 0 -32 l -5 -5 m 10 0 l -5 5 m 0 32 a 12 12 0 0 0 12 12 m 218 0 h 22 a 12 12 0 0 0 12 -12 v -71 m 0 38 l -5 5 m 10 0 l -5 -5 m 0 -38"
                />
                <g class="labeledbox">
                  <rect height="199" width="218" x="205" y="188" />
                  <path d=" M 205 271 h 8 m 202 0 h 8" />
                  <text class="comment" x="260" y="211">field access</text>
                  <g class="sequence">
                    <g class="terminal">
                      <rect
                        height="22"
                        rx="10"
                        ry="10"
                        width="28"
                        x="213"
                        y="260"
                      />
                      <text x="227" y="276">.</text>
                    </g>
                    <g class="choice">
                      <path d=" M 251 271 h 24 m 116 0 h 24" />
                      <g class="labeledbox">
                        <rect height="79" width="116" x="275" y="224" />
                        <path d=" M 275 271 h 8 m 100 0 h 8" />
                        <text class="comment" x="305" y="247">tuple</text>
                        <g class="sequence">
                          <g class="repeat">
                            <path
                              d=" M 283 271 h 12 m 76 0 h 12 m -12 0 a 12 12 0 0 1 12 12 v 0 a 12 12 0 0 1 -12 12 m 0 0 h -76 m 41 0 l 5 -5 m 0 10 l -5 -5 m -41 0 a 12 12 0 0 1 -12 -12 v 0 a 12 12 0 0 1 12 -12"
                            />
                            <g />
                            <g class="nonterminal">
                              <rect height="22" width="76" x="295" y="260" />
                              <text x="333" y="276">/[0-9]/</text>
                            </g>
                          </g>
                        </g>
                      </g>
                      <path
                        d=" M 251 271 a 12 12 0 0 1 12 12 v 30 m 140 0 v -30 a 12 12 0 0 1 12 -12"
                      />
                      <path
                        d=" M 263 313 v 35 a 12 12 0 0 0 12 12 m 76 0 h 40 a 12 12 0 0 0 12 -12 v -35"
                      />
                      <g class="labeledbox">
                        <rect height="66" width="76" x="275" y="313" />
                        <path d=" M 275 360 h 8 m 60 0 h 8" />
                        <text class="comment" x="309" y="336">struct</text>
                        <g class="nonterminal">
                          <rect height="22" width="60" x="283" y="349" />
                          <text x="313" y="365">ident</text>
                        </g>
                      </g>
                    </g>
                    <path d=" M 241 271 h 10" />
                  </g>
                </g>
              </g>
            </g>
            <path d=" M 159 54 h 10" />
          </g>
        </g>
        <path d=" M 73 21 h 10" />
      </g>
      <path
        d=" M 515 21 h 5 a 5 5 0 0 1 5 -5 a 5 5 0 0 1 5 5 a 5 5 0 0 1 -5 5 a 5 5 0 0 1 -5 -5"
      />
      <path d=" M 25 21 h 10" />
      <path d=" M 505 21 h 10" />
    </g>
    <g class="sequence">
      <path
        d=" M 10 420 a 5 5 0 0 1 5 -5 a 5 5 0 0 1 5 5 a 5 5 0 0 1 -5 5 a 5 5 0 0 1 -5 -5 m 10 0 h 5"
      />
      <g class="sequence">
        <text class="comment" x="75" y="425">underscore</text>
        <g class="terminal">
          <rect height="22" rx="10" ry="10" width="28" x="125" y="409" />
          <text x="139" y="425">_</text>
        </g>
        <path d=" M 115 420 h 10" />
      </g>
      <path
        d=" M 163 420 h 5 a 5 5 0 0 1 5 -5 a 5 5 0 0 1 5 5 a 5 5 0 0 1 -5 5 a 5 5 0 0 1 -5 -5"
      />
      <path d=" M 25 420 h 10" />
      <path d=" M 153 420 h 10" />
    </g>
    <g class="sequence">
      <path
        d=" M 10 479 a 5 5 0 0 1 5 -5 a 5 5 0 0 1 5 5 a 5 5 0 0 1 -5 5 a 5 5 0 0 1 -5 -5 m 10 0 h 5"
      />
      <g class="sequence">
        <text class="comment" x="54" y="484">path</text>
        <g class="choice">
          <path d=" M 83 479 h 24 m 117 0 h 24" />
          <g class="labeledbox">
            <rect height="44" width="117" x="107" y="443" />
            <path
              d=" M 107 479 h 8 m 0 0 h 109 m -51 0 l -5 -5 m 0 10 l 5 -5 m 51 0"
            />
            <text class="comment" x="165" y="466">relative path</text>
            <g />
          </g>
          <path
            d=" M 83 479 a 12 12 0 0 1 12 12 v 6 m 141 0 v -6 a 12 12 0 0 1 12 -12"
          />
          <path
            d=" M 95 497 v 35 a 12 12 0 0 0 12 12 m 117 0 h 0 a 12 12 0 0 0 12 -12 v -35"
          />
          <g class="labeledbox">
            <rect height="66" width="117" x="107" y="497" />
            <path
              d=" M 107 544 h 8 m 36 0 h 73 m -33 0 l -5 -5 m 0 10 l 5 -5 m 33 0"
            />
            <text class="comment" x="165" y="520">absolute path</text>
            <g class="terminal">
              <rect height="22" rx="10" ry="10" width="36" x="115" y="533" />
              <text x="133" y="549">::</text>
            </g>
          </g>
        </g>
        <g class="repeat">
          <path
            d=" M 258 479 h 12 m 202 0 h 12 m -12 0 a 12 12 0 0 1 12 12 v 8 a 12 12 0 0 1 -12 12 m -36 0 h -166 m 86 0 l 5 -5 m 0 10 l -5 -5 m -86 0 a 12 12 0 0 1 -12 -12 v -8 a 12 12 0 0 1 12 -12"
          />
          <g class="terminal">
            <rect height="22" rx="10" ry="10" width="36" x="436" y="500" />
            <text x="454" y="516">::</text>
          </g>
          <g class="sequence">
            <g class="nonterminal">
              <rect height="22" width="60" x="270" y="468" />
              <text x="300" y="484">ident</text>
            </g>
            <g class="optional">
              <path
                d=" M 340 479 h 24 m -24 0 a 12 12 0 0 0 12 -12 v 0 a 12 12 0 0 1 12 -12 h 84 m -39 0 l -5 -5 m 0 10 l 5 -5 m 39 0 a 12 12 0 0 1 12 12 v 0 a 12 12 0 0 0 12 12 h -24"
              />
              <g class="nonterminal">
                <rect height="22" width="84" x="364" y="468" />
                <text x="406" y="484">generics</text>
              </g>
            </g>
            <path d=" M 330 479 h 10" />
          </g>
        </g>
        <path d=" M 73 479 h 10" />
        <path d=" M 248 479 h 10" />
      </g>
      <path
        d=" M 494 479 h 5 a 5 5 0 0 1 5 -5 a 5 5 0 0 1 5 5 a 5 5 0 0 1 -5 5 a 5 5 0 0 1 -5 -5"
      />
      <path d=" M 25 479 h 10" />
      <path d=" M 484 479 h 10" />
    </g>
    <g class="sequence">
      <path
        d=" M 10 622 a 5 5 0 0 1 5 -5 a 5 5 0 0 1 5 5 a 5 5 0 0 1 -5 5 a 5 5 0 0 1 -5 -5 m 10 0 h 5"
      />
      <g class="sequence">
        <text class="comment" x="68" y="627">generics</text>
        <g class="terminal">
          <rect height="22" rx="10" ry="10" width="28" x="111" y="611" />
          <text x="125" y="627">&lt;</text>
        </g>
        <g class="repeat">
          <path
            d=" M 149 622 h 12 m 224 0 h 12 m -12 0 a 12 12 0 0 1 12 12 v 92 m 0 -43 l -5 -5 m 10 0 l -5 5 m 0 43 a 12 12 0 0 1 -12 12 m -28 0 h -196 m 101 0 l 5 -5 m 0 10 l -5 -5 m -101 0 a 12 12 0 0 1 -12 -12 v -92 m 0 49 l -5 5 m 10 0 l -5 -5 m 0 -49 a 12 12 0 0 1 12 -12"
          />
          <g class="terminal">
            <rect height="22" rx="10" ry="10" width="28" x="357" y="727" />
            <text x="371" y="743">,</text>
          </g>
          <g class="choice">
            <path
              d=" M 161 622 h 24 m 138 0 h 62 m -28 0 l -5 -5 m 0 10 l 5 -5 m 28 0"
            />
            <g class="labeledbox">
              <rect height="66" width="138" x="185" y="575" />
              <path
                d=" M 185 622 h 8 m 52 0 h 78 m -36 0 l -5 -5 m 0 10 l 5 -5 m 36 0"
              />
              <text class="comment" x="254" y="598">generic argument</text>
              <g class="nonterminal">
                <rect height="22" width="52" x="193" y="611" />
                <text x="219" y="627">type</text>
              </g>
            </g>
            <path
              d=" M 161 622 a 12 12 0 0 1 12 12 v 17 m 200 0 v -17 a 12 12 0 0 1 12 -12"
            />
            <path
              d=" M 173 651 v 35 a 12 12 0 0 0 12 12 m 176 0 h 0 a 12 12 0 0 0 12 -12 v -35"
            />
            <g class="labeledbox">
              <rect height="66" width="176" x="185" y="651" />
              <path d=" M 185 698 h 8 m 160 0 h 8" />
              <text class="comment" x="261" y="674">generic constraint</text>
              <g class="sequence">
                <g class="nonterminal">
                  <rect height="22" width="60" x="193" y="687" />
                  <text x="223" y="703">ident</text>
                </g>
                <g class="terminal">
                  <rect
                    height="22"
                    rx="10"
                    ry="10"
                    width="28"
                    x="263"
                    y="687"
                  />
                  <text x="277" y="703">:</text>
                </g>
                <g class="nonterminal">
                  <rect height="22" width="52" x="301" y="687" />
                  <text x="327" y="703">type</text>
                </g>
                <path d=" M 253 698 h 10" />
                <path d=" M 291 698 h 10" />
              </g>
            </g>
          </g>
        </g>
        <g class="terminal">
          <rect height="22" rx="10" ry="10" width="28" x="407" y="611" />
          <text x="421" y="627">&gt;</text>
        </g>
        <path d=" M 101 622 h 10" />
        <path d=" M 139 622 h 10" />
        <path d=" M 397 622 h 10" />
      </g>
      <path
        d=" M 445 622 h 5 a 5 5 0 0 1 5 -5 a 5 5 0 0 1 5 5 a 5 5 0 0 1 -5 5 a 5 5 0 0 1 -5 -5"
      />
      <path d=" M 25 622 h 10" />
      <path d=" M 435 622 h 10" />
    </g>
    <g class="sequence">
      <path
        d=" M 10 772 a 5 5 0 0 1 5 -5 a 5 5 0 0 1 5 5 a 5 5 0 0 1 -5 5 a 5 5 0 0 1 -5 -5 m 10 0 h 5"
      />
      <g class="sequence">
        <text class="comment" x="54" y="777">type</text>
        <g class="nonterminal">
          <rect height="22" width="156" x="83" y="761" />
          <text x="161" y="777">type-intersection</text>
        </g>
        <path d=" M 73 772 h 10" />
      </g>
      <path
        d=" M 249 772 h 5 a 5 5 0 0 1 5 -5 a 5 5 0 0 1 5 5 a 5 5 0 0 1 -5 5 a 5 5 0 0 1 -5 -5"
      />
      <path d=" M 25 772 h 10" />
      <path d=" M 239 772 h 10" />
    </g>
    <g class="sequence">
      <path
        d=" M 10 806 a 5 5 0 0 1 5 -5 a 5 5 0 0 1 5 5 a 5 5 0 0 1 -5 5 a 5 5 0 0 1 -5 -5 m 10 0 h 5"
      />
      <g class="sequence">
        <text class="comment" x="99" y="811">type-intersection</text>
        <g class="repeat">
          <path
            d=" M 174 806 h 12 m 100 0 h 12 m -12 0 a 12 12 0 0 1 12 12 v 8 a 12 12 0 0 1 -12 12 m -28 0 h -72 m 39 0 l 5 -5 m 0 10 l -5 -5 m -39 0 a 12 12 0 0 1 -12 -12 v -8 a 12 12 0 0 1 12 -12"
          />
          <g class="terminal">
            <rect height="22" rx="10" ry="10" width="28" x="258" y="827" />
            <text x="272" y="843">&amp;</text>
          </g>
          <g class="nonterminal">
            <rect height="22" width="100" x="186" y="795" />
            <text x="236" y="811">type-union</text>
          </g>
        </g>
        <path d=" M 164 806 h 10" />
      </g>
      <path
        d=" M 308 806 h 5 a 5 5 0 0 1 5 -5 a 5 5 0 0 1 5 5 a 5 5 0 0 1 -5 5 a 5 5 0 0 1 -5 -5"
      />
      <path d=" M 25 806 h 10" />
      <path d=" M 298 806 h 10" />
    </g>
    <g class="sequence">
      <path
        d=" M 10 872 a 5 5 0 0 1 5 -5 a 5 5 0 0 1 5 5 a 5 5 0 0 1 -5 5 a 5 5 0 0 1 -5 -5 m 10 0 h 5"
      />
      <g class="sequence">
        <text class="comment" x="75" y="877">type-union</text>
        <g class="repeat">
          <path
            d=" M 125 872 h 12 m 92 0 h 12 m -12 0 a 12 12 0 0 1 12 12 v 8 a 12 12 0 0 1 -12 12 m -28 0 h -64 m 35 0 l 5 -5 m 0 10 l -5 -5 m -35 0 a 12 12 0 0 1 -12 -12 v -8 a 12 12 0 0 1 12 -12"
          />
          <g class="terminal">
            <rect height="22" rx="10" ry="10" width="28" x="201" y="893" />
            <text x="215" y="909">|</text>
          </g>
          <g class="nonterminal">
            <rect height="22" width="92" x="137" y="861" />
            <text x="183" y="877">type-atom</text>
          </g>
        </g>
        <path d=" M 115 872 h 10" />
      </g>
      <path
        d=" M 251 872 h 5 a 5 5 0 0 1 5 -5 a 5 5 0 0 1 5 5 a 5 5 0 0 1 -5 5 a 5 5 0 0 1 -5 -5"
      />
      <path d=" M 25 872 h 10" />
      <path d=" M 241 872 h 10" />
    </g>
    <g class="sequence">
      <path
        d=" M 10 1010 a 5 5 0 0 1 5 -5 a 5 5 0 0 1 5 5 a 5 5 0 0 1 -5 5 a 5 5 0 0 1 -5 -5 m 10 0 h 5"
      />
      <g class="sequence">
        <text class="comment" x="71" y="1015">type-atom</text>
        <g class="choice">
          <path
            d=" M 118 1010 h 24 m 364 0 h 182 m -88 0 l -5 -5 m 0 10 l 5 -5 m 88 0"
          />
          <g class="labeledbox">
            <rect height="168" width="364" x="142" y="927" />
            <path d=" M 142 1010 h 8 m 348 0 h 8" />
            <text class="comment" x="172" y="950">tuple</text>
            <g class="sequence">
              <g class="choice">
                <path
                  d=" M 150 1010 h 24 m 103 0 h 221 m -107 0 l -5 -5 m 0 10 l 5 -5 m 107 0"
                />
                <g class="labeledbox">
                  <rect height="66" width="103" x="174" y="963" />
                  <path
                    d=" M 174 1010 h 8 m 36 0 h 59 m -26 0 l -5 -5 m 0 10 l 5 -5 m 26 0"
                  />
                  <text class="comment" x="225" y="986">empty tuple</text>
                  <g class="terminal">
                    <rect
                      height="22"
                      rx="10"
                      ry="10"
                      width="36"
                      x="182"
                      y="999"
                    />
                    <text x="200" y="1015">()</text>
                  </g>
                </g>
                <path
                  d=" M 150 1010 a 12 12 0 0 1 12 12 v 17 m 324 0 v -17 a 12 12 0 0 1 12 -12"
                />
                <path
                  d=" M 162 1039 v 12 a 12 12 0 0 0 12 12 m 300 0 h 0 a 12 12 0 0 0 12 -12 v -12"
                />
                <g class="sequence">
                  <g class="terminal">
                    <rect
                      height="22"
                      rx="10"
                      ry="10"
                      width="28"
                      x="174"
                      y="1052"
                    />
                    <text x="188" y="1068">(</text>
                  </g>
                  <g class="repeat">
                    <path
                      d=" M 212 1063 h 12 m 90 0 h 12 m -12 0 a 12 12 0 0 1 12 12 v 0 a 12 12 0 0 1 -12 12 m 0 0 h -90 m 48 0 l 5 -5 m 0 10 l -5 -5 m -48 0 a 12 12 0 0 1 -12 -12 v 0 a 12 12 0 0 1 12 -12"
                    />
                    <g />
                    <g class="sequence">
                      <g class="nonterminal">
                        <rect height="22" width="52" x="224" y="1052" />
                        <text x="250" y="1068">type</text>
                      </g>
                      <g class="terminal">
                        <rect
                          height="22"
                          rx="10"
                          ry="10"
                          width="28"
                          x="286"
                          y="1052"
                        />
                        <text x="300" y="1068">,</text>
                      </g>
                      <path d=" M 276 1063 h 10" />
                    </g>
                  </g>
                  <g class="optional">
                    <path
                      d=" M 336 1063 h 24 m -24 0 a 12 12 0 0 0 12 -12 v 0 a 12 12 0 0 1 12 -12 h 52 m -23 0 l -5 -5 m 0 10 l 5 -5 m 23 0 a 12 12 0 0 1 12 12 v 0 a 12 12 0 0 0 12 12 h -24"
                    />
                    <g class="nonterminal">
                      <rect height="22" width="52" x="360" y="1052" />
                      <text x="386" y="1068">type</text>
                    </g>
                  </g>
                  <g class="terminal">
                    <rect
                      height="22"
                      rx="10"
                      ry="10"
                      width="28"
                      x="446"
                      y="1052"
                    />
                    <text x="460" y="1068">)</text>
                  </g>
                  <path d=" M 202 1063 h 10" />
                  <path d=" M 326 1063 h 10" />
                  <path d=" M 436 1063 h 10" />
                </g>
              </g>
            </g>
          </g>
          <path
            d=" M 118 1010 a 12 12 0 0 1 12 12 v 83 m 0 -38 l -5 -5 m 10 0 l -5 5 m 0 38 m 546 0 v -83 m 0 44 l -5 5 m 10 0 l -5 -5 m 0 -44 a 12 12 0 0 1 12 -12"
          />
          <path
            d=" M 130 1188 v 126 m 0 -60 l -5 -5 m 10 0 l -5 5 m 0 60 m 546 0 v -126 m 0 66 l -5 5 m 10 0 l -5 -5 m 0 -66"
          />
          <path d=" M 130 1349 v 41 m 546 0 v -41" />
          <path d=" M 130 1390 v 33 m 546 0 v -33" />
          <path
            d=" M 130 1105 v 83 m 0 -38 l -5 -5 m 10 0 l -5 5 m 0 38 a 12 12 0 0 0 12 12 m 522 0 h 0 a 12 12 0 0 0 12 -12 v -83 m 0 44 l -5 5 m 10 0 l -5 -5 m 0 -44"
          />
          <g class="labeledbox">
            <rect height="199" width="522" x="142" y="1105" />
            <path d=" M 142 1200 h 8 m 506 0 h 8" />
            <text class="comment" x="176" y="1128">struct</text>
            <g class="sequence">
              <g class="optional">
                <path
                  d=" M 150 1200 h 24 m -24 0 a 12 12 0 0 0 12 -12 v -35 a 12 12 0 0 1 12 -12 h 54 m -24 0 l -5 -5 m 0 10 l 5 -5 m 24 0 a 12 12 0 0 1 12 12 v 35 a 12 12 0 0 0 12 12 h -24"
                />
                <g class="sequence">
                  <g class="labeledbox">
                    <rect height="66" width="54" x="174" y="1153" />
                    <path d=" M 174 1200 h 8 m 28 0 h 18" />
                    <text class="comment" x="201" y="1176">open</text>
                    <g class="terminal">
                      <rect
                        height="22"
                        rx="10"
                        ry="10"
                        width="28"
                        x="182"
                        y="1189"
                      />
                      <text x="196" y="1205">#</text>
                    </g>
                  </g>
                </g>
              </g>
              <g class="choice">
                <path
                  d=" M 262 1200 h 24 m 110 0 h 260 m -127 0 l -5 -5 m 0 10 l 5 -5 m 127 0"
                />
                <g class="labeledbox">
                  <rect height="66" width="110" x="286" y="1153" />
                  <path
                    d=" M 286 1200 h 8 m 44 0 h 58 m -26 0 l -5 -5 m 0 10 l 5 -5 m 26 0"
                  />
                  <text class="comment" x="341" y="1176">empty struct</text>
                  <g class="terminal">
                    <rect
                      height="22"
                      rx="10"
                      ry="10"
                      width="44"
                      x="294"
                      y="1189"
                    />
                    <text x="316" y="1205">(:)</text>
                  </g>
                </g>
                <path
                  d=" M 262 1200 a 12 12 0 0 1 12 12 v 17 m 370 0 v -17 a 12 12 0 0 1 12 -12"
                />
                <path
                  d=" M 274 1229 v 12 a 12 12 0 0 0 12 12 m 346 0 h 0 a 12 12 0 0 0 12 -12 v -12"
                />
                <g class="sequence">
                  <g class="terminal">
                    <rect
                      height="22"
                      rx="10"
                      ry="10"
                      width="28"
                      x="286"
                      y="1242"
                    />
                    <text x="300" y="1258">(</text>
                  </g>
                  <g class="repeat">
                    <path
                      d=" M 324 1253 h 12 m 160 0 h 12 m -12 0 a 12 12 0 0 1 12 12 v 8 a 12 12 0 0 1 -12 12 m -28 0 h -132 m 69 0 l 5 -5 m 0 10 l -5 -5 m -69 0 a 12 12 0 0 1 -12 -12 v -8 a 12 12 0 0 1 12 -12"
                    />
                    <g class="terminal">
                      <rect
                        height="22"
                        rx="10"
                        ry="10"
                        width="28"
                        x="468"
                        y="1274"
                      />
                      <text x="482" y="1290">,</text>
                    </g>
                    <g class="sequence">
                      <g class="nonterminal">
                        <rect height="22" width="60" x="336" y="1242" />
                        <text x="366" y="1258">ident</text>
                      </g>
                      <g class="terminal">
                        <rect
                          height="22"
                          rx="10"
                          ry="10"
                          width="28"
                          x="406"
                          y="1242"
                        />
                        <text x="420" y="1258">:</text>
                      </g>
                      <g class="nonterminal">
                        <rect height="22" width="52" x="444" y="1242" />
                        <text x="470" y="1258">type</text>
                      </g>
                      <path d=" M 396 1253 h 10" />
                      <path d=" M 434 1253 h 10" />
                    </g>
                  </g>
                  <g class="optional">
                    <path
                      d=" M 518 1253 h 24 m -24 0 a 12 12 0 0 0 12 -12 v 0 a 12 12 0 0 1 12 -12 h 28 a 12 12 0 0 1 12 12 v 0 a 12 12 0 0 0 12 12 h -24"
                    />
                    <g class="terminal">
                      <rect
                        height="22"
                        rx="10"
                        ry="10"
                        width="28"
                        x="542"
                        y="1242"
                      />
                      <text x="556" y="1258">,</text>
                    </g>
                  </g>
                  <g class="terminal">
                    <rect
                      height="22"
                      rx="10"
                      ry="10"
                      width="28"
                      x="604"
                      y="1242"
                    />
                    <text x="618" y="1258">)</text>
                  </g>
                  <path d=" M 314 1253 h 10" />
                  <path d=" M 508 1253 h 10" />
                  <path d=" M 594 1253 h 10" />
                </g>
              </g>
              <path d=" M 252 1200 h 10" />
            </g>
          </g>
          <path
            d=" M 130 1314 v 35 a 12 12 0 0 0 12 12 m 144 0 h 378 m -186 0 l -5 -5 m 0 10 l 5 -5 m 186 0 a 12 12 0 0 0 12 -12 v -35"
          />
          <g class="labeledbox">
            <rect height="66" width="144" x="142" y="1314" />
            <path d=" M 142 1361 h 8 m 128 0 h 8" />
            <text class="comment" x="172" y="1337">paren</text>
            <g class="sequence">
              <g class="terminal">
                <rect height="22" rx="10" ry="10" width="28" x="150" y="1350" />
                <text x="164" y="1366">(</text>
              </g>

              <g class="nonterminal">
                <rect height="22" width="52" x="188" y="1350" />
                <text x="214" y="1366">type</text>
              </g>
              <g class="terminal">
                <rect height="22" rx="10" ry="10" width="28" x="250" y="1350" />
                <text x="264" y="1366">)</text>
              </g>
              <path d=" M 178 1361 h 10" />
              <path d=" M 240 1361 h 10" />
            </g>
          </g>
          <path
            d=" M 130 1390 v 0 a 12 12 0 0 0 12 12 m 52 0 h 470 m -232 0 l -5 -5 m 0 10 l 5 -5 m 232 0 a 12 12 0 0 0 12 -12 v 0"
          />
          <g class="nonterminal">
            <rect height="22" width="52" x="142" y="1391" />
            <text x="168" y="1407">path</text>
          </g>
          <path
            d=" M 130 1423 v 0 a 12 12 0 0 0 12 12 m 100 0 h 422 m -208 0 l -5 -5 m 0 10 l 5 -5 m 208 0 a 12 12 0 0 0 12 -12 v 0"
          />
          <g class="nonterminal">
            <rect height="22" width="100" x="142" y="1424" />
            <text x="192" y="1440">underscore</text>
          </g>
        </g>
        <path d=" M 108 1010 h 10" />
      </g>
      <path
        d=" M 698 1010 h 5 a 5 5 0 0 1 5 -5 a 5 5 0 0 1 5 5 a 5 5 0 0 1 -5 5 a 5 5 0 0 1 -5 -5"
      />
      <path d=" M 25 1010 h 10" />
      <path d=" M 688 1010 h 10" />
    </g>
  </g>
</svg>
