<svg width="640" height="640" viewBox="0 0 640 640" xmlns="http://www.w3.org/2000/svg"><path d="M470.6 278.6L342.6 406.6C330.1 419.1 309.8 419.1 297.3 406.6L169.3 278.6C156.8 266.1 156.8 245.8 169.3 233.3C181.8 220.8 202.1 220.8 214.6 233.3L288 306.7L288 96C288 78.3 302.3 64 320 64C337.7 64 352 78.3 352 96L352 306.7L425.4 233.3C437.9 220.8 458.2 220.8 470.7 233.3C483.2 245.8 483.2 266.1 470.7 278.6zM160 416L160 480C160 497.7 174.3 512 192 512L448 512C465.7 512 480 497.7 480 480L480 416C480 398.3 494.3 384 512 384C529.7 384 544 398.3 544 416L544 480C544 533 501 576 448 576L192 576C139 576 96 533 96 480L96 416C96 398.3 110.3 384 128 384C145.7 384 160 398.3 160 416z"/></svg>
