<svg width="640" height="512" viewBox="0 0 640 512" xmlns="http://www.w3.org/2000/svg"><path transform="translate(352 24) scale(.55)" d="M0 188.6C0 84.4 86 0 192 0S384 84.4 384 188.6c0 119.3-120.2 262.3-170.4 316.8c-11.8 12.8-31.5 12.8-43.3 0C120.2 450.9 0 307.9 0 188.6zM192 256a64 64 0 1 0 0-128a64 64 0 1 0 0 128z"/><path transform="translate(56 104) scale(.78)" d="M50.7 58.5L0 160l208 0 0-128L93.7 32C75.5 32 58.9 42.3 50.7 58.5zM240 160l208 0L397.3 58.5C389.1 42.3 372.5 32 354.3 32L240 32l0 128zm208 32L0 192 0 416c0 35.3 28.7 64 64 64l320 0c35.3 0 64-28.7 64-64l0-224z"/></svg>
