<svg xmlns="http://www.w3.org/2000/svg" viewBox="0 0 576 512"><!--! Font Awesome Pro 6.2.0 by @fontawesome - https://fontawesome.com License - https://fontawesome.com/license (Commercial License) Copyright 2022 Fonticons, Inc. --><path d="M96 32V64H48C21.5 64 0 85.5 0 112v48H448V112c0-26.5-21.5-48-48-48H352V32c0-17.7-14.3-32-32-32s-32 14.3-32 32V64H160V32c0-17.7-14.3-32-32-32S96 14.3 96 32zM448 192H432 0V464c0 26.5 21.5 48 48 48H330.8C285.6 480.1 256 427.5 256 368c0-97.2 78.8-176 176-176c5.4 0 10.7 .2 16 .7V192zM576 368c0-79.5-64.5-144-144-144s-144 64.5-144 144s64.5 144 144 144s144-64.5 144-144zM432 288c8.8 0 16 7.2 16 16v48h32c8.8 0 16 7.2 16 16s-7.2 16-16 16H432c-8.8 0-16-7.2-16-16V304c0-8.8 7.2-16 16-16z"/></svg>