<svg xmlns="http://www.w3.org/2000/svg" viewBox="0 0 512 512"><!--! Font Awesome Pro 6.2.0 by @fontawesome - https://fontawesome.com License - https://fontawesome.com/license (Commercial License) Copyright 2022 Fonticons, Inc. --><path d="M512 240c0 114.9-114.6 208-256 208c-37.1 0-72.3-6.4-104.1-17.9c-11.9 8.7-31.3 20.6-54.3 30.6C73.6 471.1 44.7 480 16 480c-6.5 0-12.3-3.9-14.8-9.9c-2.5-6-1.1-12.8 3.4-17.4l0 0 0 0 0 0 0 0 .3-.3c.3-.3 .7-.7 1.3-1.4c1.1-1.2 2.8-3.1 4.9-5.7c4.1-5 9.6-12.4 15.2-21.6c10-16.6 19.5-38.4 21.4-62.9C17.7 326.8 0 285.1 0 240C0 125.1 114.6 32 256 32s256 93.1 256 208zM239.8 204.8c.1-1.6 .2-3.2 .2-4.8c0-30.9-25.1-56-56-56s-56 25.1-56 56s25.1 56 56 56c2.7 0 5.4-.2 8-.6V264c0 13.3-10.7 24-24 24s-24 10.7-24 24s10.7 24 24 24c39.8 0 72-32.2 72-72V208c0-1.1-.1-2.1-.2-3.2zM384 200c0-30.9-25.1-56-56-56s-56 25.1-56 56s25.1 56 56 56c2.7 0 5.4-.2 8-.6V264c0 13.3-10.7 24-24 24s-24 10.7-24 24s10.7 24 24 24c39.8 0 72-32.2 72-72V208c0-1.1-.1-2.1-.2-3.2c.1-1.6 .2-3.2 .2-4.8z"/></svg>