<svg xmlns="http://www.w3.org/2000/svg" viewBox="0 0 512 512"><!--! Font Awesome Pro 6.2.0 by @fontawesome - https://fontawesome.com License - https://fontawesome.com/license (Commercial License) Copyright 2022 Fonticons, Inc. --><path d="M61.5 308.8L.8 39C-3.7 19 11.5 0 32 0h76.9c17.3 0 33.9 7 46 19.5L384 256H488h24v24 24V464v24 24H488 267.7c-10.7 0-21.2-1.9-31.2-5.7L40.4 431.9C16.1 422.7 0 399.4 0 373.4c0-28.2 18.8-52.8 45.9-60.3l15.5-4.3zM216 352c-13.3 0-24 10.7-24 24s10.7 24 24 24H360c13.3 0 24-10.7 24-24s-10.7-24-24-24H216z"/></svg>