<svg xmlns="http://www.w3.org/2000/svg" viewBox="0 0 512 512"><!--! Font Awesome Pro 6.2.0 by @fontawesome - https://fontawesome.com License - https://fontawesome.com/license (Commercial License) Copyright 2022 Fonticons, Inc. --><path d="M216 0c-13.3 0-24 10.7-24 24s10.7 24 24 24h16V96H192c-17.7 0-32 14.3-32 32H74.6c-26.6 0-45.8 25.4-38.5 51L76.5 320.2C60.5 321.9 48 335.5 48 352c0 17.7 14.3 32 32 32h32v96c0 17.7 14.3 32 32 32H368c17.7 0 32-14.3 32-32V384l32 0c17.7 0 32-14.3 32-32c0-16.5-12.5-30.1-28.5-31.8L475.9 179c7.3-25.6-11.9-51-38.5-51H352c0-17.7-14.3-32-32-32H280V48h16c13.3 0 24-10.7 24-24s-10.7-24-24-24H256 216zM160 192V320H143c-.1-.3-.1-.5-.2-.8L106.4 192H160zm48 128V192h96V320l-96 0zM352 192h53.6L369.2 319.2l-.1 .3-.1 .5H352V192z"/></svg>