<svg width="50" height="50" xmlns="http://www.w3.org/2000/svg">
 <g>
    <path d="m10.6579,7.43189l26.35216,0l0.69961,8.83588l-0.98464,0c-0.12095,-1.74469 -0.41461,-3.07914 -0.881,-4.00335c-0.46644,-0.92415 -1.10559,-1.59354 -1.91746,-2.00815c-0.81192,-0.41455 -2.09887,-0.62185 -3.86084,-0.62188l-11.9971,0l10.70152,13.73318l-12.17848,14.38097l13.34451,0c2.4184,0 4.26676,-0.38867 5.5451,-1.16602c1.27828,-0.77734 2.23701,-2.40114 2.87619,-4.87139l0.98464,0.2332l-1.50288,10.62378l-27.18133,0l0,-0.93282l13.52589,-15.96158l-13.52589,-17.30899l0,-0.93282z" id="svg_3" fill="#000000" fill-rule="nonzero" stroke-width="3" stroke-linejoin="round" stroke-miterlimit="2" stroke-dashoffset="0"/>
 </g>

</svg>