<svg width="24" height="24" viewBox="0 0 24 24" fill="none" xmlns="http://www.w3.org/2000/svg">
<path fill-rule="evenodd" clip-rule="evenodd" d="M6 4.5H18C18.8285 4.5 19.5 5.17155 19.5 6V18C19.5 18.8285 18.8285 19.5 18 19.5H6C5.17155 19.5 4.5 18.8285 4.5 18V6C4.5 5.17155 5.17155 4.5 6 4.5ZM8.25 6C7.21448 6 6.375 6.83948 6.375 7.875C6.375 8.91052 7.21448 9.75 8.25 9.75C9.28552 9.75 10.125 8.91052 10.125 7.875C10.125 6.83948 9.28552 6 8.25 6ZM6 18V16.5L9 13.5L11.25 15.75L15.75 11.25L18 13.5V18H6Z" fill="black"/>
</svg>
