<svg width="228" height="219" viewBox="0 0 228 219" fill="none" xmlns="http://www.w3.org/2000/svg">
<path d="M69.875 143.5C81.6328 143.5 91.375 134.094 91.375 122C91.375 110.242 81.6328 100.5 69.875 100.5C57.7812 100.5 48.375 110.242 48.375 122C48.375 134.094 57.7812 143.5 69.875 143.5ZM155.875 135.438H123.625C118.922 135.438 115.562 139.133 115.562 143.5C115.562 148.203 118.922 151.562 123.625 151.562H155.875C160.242 151.562 163.938 148.203 163.938 143.5C163.938 139.133 160.242 135.438 155.875 135.438ZM80.625 154.25H59.125C44.0078 154.25 32.25 166.344 32.25 181.125C32.25 184.148 34.6016 186.5 37.625 186.5H102.125C104.812 186.5 107.5 184.148 107.5 181.125C107.5 166.344 95.4062 154.25 80.625 154.25ZM155.875 108.562H123.625C118.922 108.562 115.562 112.258 115.562 116.625C115.562 121.328 118.922 124.688 123.625 124.688H155.875C160.242 124.688 163.938 121.328 163.938 116.625C163.938 112.258 160.242 108.562 155.875 108.562ZM172 68.25H21.5C9.40625 68.25 0 77.9922 0 89.75V197.25C0 209.344 9.40625 218.75 21.5 218.75H172C183.758 218.75 193.5 209.344 193.5 197.25V89.75C193.5 77.9922 183.758 68.25 172 68.25ZM177.375 197.25C177.375 200.273 174.688 202.625 172 202.625H21.5C18.4766 202.625 16.125 200.273 16.125 197.25V89.75C16.125 87.0625 18.4766 84.375 21.5 84.375H172C174.688 84.375 177.375 87.0625 177.375 89.75V197.25Z" fill="black"/>
<path d="M171.917 43.6716L165.171 29.793L158.426 43.6716L154.432 51.8893L146.214 55.8834L132.335 62.6289L146.214 69.3743L154.432 73.3684L158.426 81.5861L165.171 95.4647L171.917 81.5861L175.911 73.3684L184.128 69.3743L198.007 62.6289L184.128 55.8834L175.911 51.8893L171.917 43.6716Z" fill="black" stroke="white" stroke-width="15"/>
<path d="M181.708 33.6492L175.412 20.6958L169.116 33.6492L165.047 42.0224L156.673 46.0921L143.72 52.3879L156.673 58.6836L165.047 62.7533L169.116 71.1265L175.412 84.0799L181.708 71.1265L185.778 62.7533L194.151 58.6836L207.104 52.3879L194.151 46.0921L185.778 42.0224L181.708 33.6492Z" fill="black" stroke="white" stroke-width="14"/>
<path d="M169.4 3C138.802 3 114 27.8023 114 58.4C114 88.9977 138.802 113.8 169.4 113.8C199.998 113.8 224.8 88.9977 224.8 58.4C224.8 27.8023 199.998 3 169.4 3ZM192.152 69.1282C183.929 77.3512 172.299 80.292 162.355 81.0789C157.428 81.4688 153.029 81.3201 149.864 81.0731C148.74 80.9854 147.775 80.8855 147.001 80.7938C146.908 80.0223 146.807 79.0604 146.718 77.9401C146.467 74.7802 146.313 70.3878 146.699 65.4647C147.479 55.5324 150.418 43.9009 158.672 35.6475C167.367 26.9525 181.973 27.1716 191.333 36.4787C200.673 45.7653 200.858 60.4226 192.152 69.1282Z" fill="black" stroke="white" stroke-width="6"/>
</svg>
