<svg width="300" height="300" viewBox="0 0 300 300" fill="none" xmlns="http://www.w3.org/2000/svg">
<path d="M106.688 174.75C116.395 174.75 124.438 166.984 124.438 157C124.438 147.293 116.395 139.25 106.688 139.25C96.7031 139.25 88.9375 147.293 88.9375 157C88.9375 166.984 96.7031 174.75 106.688 174.75ZM177.688 168.094H151.062C147.18 168.094 144.406 171.145 144.406 174.75C144.406 178.633 147.18 181.406 151.062 181.406H177.688C181.293 181.406 184.344 178.633 184.344 174.75C184.344 171.145 181.293 168.094 177.688 168.094ZM115.562 183.625H97.8125C85.332 183.625 75.625 193.609 75.625 205.812C75.625 208.309 77.5664 210.25 80.0625 210.25H133.312C135.531 210.25 137.75 208.309 137.75 205.812C137.75 193.609 127.766 183.625 115.562 183.625ZM177.688 145.906H151.062C147.18 145.906 144.406 148.957 144.406 152.562C144.406 156.445 147.18 159.219 151.062 159.219H177.688C181.293 159.219 184.344 156.445 184.344 152.562C184.344 148.957 181.293 145.906 177.688 145.906ZM191 112.625H66.75C56.7656 112.625 49 120.668 49 130.375V219.125C49 229.109 56.7656 236.875 66.75 236.875H191C200.707 236.875 208.75 229.109 208.75 219.125V130.375C208.75 120.668 200.707 112.625 191 112.625ZM195.438 219.125C195.438 221.621 193.219 223.562 191 223.562H66.75C64.2539 223.562 62.3125 221.621 62.3125 219.125V130.375C62.3125 128.156 64.2539 125.938 66.75 125.938H191C193.219 125.938 195.438 128.156 195.438 130.375V219.125Z" fill="black"/>
<path d="M214.539 84.0494L206.445 67.395L198.35 84.0494L193.702 93.6126L184.139 98.2607L167.485 106.355L184.139 114.45L193.702 119.098L198.35 128.661L206.445 145.315L214.539 128.661L219.187 119.098L228.751 114.45L245.405 106.355L228.751 98.2607L219.187 93.6126L214.539 84.0494Z" fill="black" stroke="white" stroke-width="18"/>
<path d="M226.539 72.0494L218.445 55.395L210.35 72.0494L205.702 81.6126L196.139 86.2607L179.485 94.3552L196.139 102.45L205.702 107.098L210.35 116.661L218.445 133.315L226.539 116.661L231.187 107.098L240.751 102.45L257.405 94.3552L240.751 86.2607L231.187 81.6126L226.539 72.0494Z" fill="black" stroke="white" stroke-width="18"/>
<path d="M211.4 37C175.832 37 147 65.8316 147 101.4C147 136.968 175.832 165.8 211.4 165.8C246.968 165.8 275.8 136.968 275.8 101.4C275.8 65.8316 246.968 37 211.4 37ZM238.425 114.335C228.663 124.097 214.889 127.562 203.186 128.488C197.379 128.947 192.197 128.772 188.468 128.481C186.942 128.362 185.664 128.224 184.692 128.103C184.57 127.133 184.43 125.859 184.309 124.337C184.013 120.615 183.831 115.44 184.286 109.638C185.204 97.9478 188.668 84.1726 198.465 74.3753C208.871 63.9693 226.312 64.2593 237.464 75.3482C248.595 86.4166 248.841 103.919 238.425 114.335Z" fill="black" stroke="white" stroke-width="6"/>
</svg>
