<svg width="300" height="118" fill="none" xmlns="http://www.w3.org/2000/svg"><rect x=".5" y=".5" width="299" height="117" rx="3.5" fill="#fff"/><path d="M34.812 29.394h4.57v20.388h10.44V54h-15.01V29.394ZM60.944 54.28c-1.852 0-3.457-.398-4.816-1.195a8.076 8.076 0 0 1-3.129-3.27c-.703-1.382-1.054-2.94-1.054-4.674 0-1.735.351-3.293 1.054-4.675a8.077 8.077 0 0 1 3.129-3.27c1.36-.796 2.965-1.195 4.816-1.195s3.456.399 4.816 1.195a7.843 7.843 0 0 1 3.093 3.27c.727 1.382 1.09 2.94 1.09 4.675 0 1.734-.364 3.292-1.09 4.675a7.843 7.843 0 0 1-3.093 3.269c-1.36.797-2.965 1.195-4.816 1.195Zm0-3.726c1.359 0 2.437-.516 3.234-1.547.797-1.054 1.195-2.343 1.195-3.866 0-1.524-.398-2.8-1.195-3.832-.797-1.054-1.875-1.582-3.234-1.582-1.36 0-2.437.528-3.234 1.582-.797 1.031-1.195 2.308-1.195 3.832 0 1.523.398 2.812 1.195 3.866.797 1.031 1.875 1.547 3.234 1.547Zm12.925-14.272h4.36v2.883c.632-1.008 1.405-1.781 2.32-2.32.913-.563 1.886-.844 2.917-.844.656 0 1.37.117 2.144.352l-.808 4.042a3.445 3.445 0 0 0-1.828-.492c-1.383 0-2.52.633-3.41 1.898-.89 1.242-1.336 3.21-1.336 5.906V54H73.87V36.283Zm21.357 17.998c-1.922 0-3.527-.445-4.816-1.336-1.265-.913-2.203-2.062-2.812-3.444a11.227 11.227 0 0 1-.879-4.36c0-1.5.293-2.94.88-4.323a8.057 8.057 0 0 1 2.811-3.445c1.29-.914 2.894-1.37 4.816-1.37 1.851 0 3.398.444 4.64 1.335 1.242.867 2.156 1.968 2.742 3.304a10.14 10.14 0 0 1 .879 4.113v1.793H91.289a4.331 4.331 0 0 0 1.16 2.812c.75.797 1.758 1.195 3.023 1.195.984 0 1.805-.222 2.46-.668.68-.445 1.29-1.136 1.829-2.074l3.515 1.3c-.727 1.665-1.746 2.942-3.058 3.832-1.29.891-2.953 1.336-4.992 1.336Zm3.796-11.178c-.21-.984-.632-1.793-1.265-2.426-.61-.632-1.453-.949-2.53-.949-1.032 0-1.887.328-2.567.984a4.263 4.263 0 0 0-1.266 2.39h7.628Zm8.386-6.82h4.359v2.848c.679-1.031 1.418-1.805 2.214-2.32.821-.54 1.781-.809 2.883-.809 1.148 0 2.168.305 3.058.914.891.61 1.523 1.523 1.898 2.742.633-1.148 1.418-2.039 2.355-2.672.961-.656 1.981-.984 3.059-.984 1.64 0 2.929.48 3.866 1.441.938.961 1.406 2.297 1.406 4.008V54h-4.358V42.189c0-1.64-.727-2.46-2.18-2.46-1.125 0-2.05.632-2.777 1.898-.703 1.265-1.054 3.093-1.054 5.483V54h-4.359V42.189c0-1.64-.727-2.46-2.18-2.46-1.125 0-2.05.667-2.777 2.003-.703 1.312-1.054 3.234-1.054 5.765V54h-4.359V36.283Zm40.901-2.285c-.796 0-1.464-.269-2.003-.808-.539-.539-.809-1.207-.809-2.004 0-.796.27-1.464.809-2.003.539-.54 1.207-.809 2.003-.809.797 0 1.465.27 2.004.809.539.539.809 1.207.809 2.003 0 .797-.27 1.465-.809 2.004-.539.539-1.207.809-2.004.809Zm-2.179 2.285h4.359V54h-4.359V36.283Zm9.269 0h4.358v1.828c.282-.515.809-.996 1.582-1.44.797-.446 1.699-.669 2.707-.669 2.601 0 4.593.832 5.976 2.496 1.406 1.64 2.109 3.855 2.109 6.644 0 2.788-.703 5.015-2.109 6.679-1.383 1.64-3.375 2.46-5.976 2.46a5.797 5.797 0 0 1-2.496-.562c-.797-.375-1.394-.82-1.793-1.336v8.788h-4.358V36.283Zm8.049 14.272c1.196 0 2.18-.48 2.953-1.441.774-.96 1.16-2.285 1.16-3.972 0-1.711-.386-3.035-1.16-3.973-.773-.96-1.757-1.44-2.953-1.44-1.195 0-2.179.48-2.952 1.44-.75.938-1.125 2.262-1.125 3.973 0 1.71.375 3.046 1.125 4.007.773.937 1.757 1.406 2.952 1.406Zm17.969 3.726c-1.828 0-3.363-.468-4.605-1.406-1.218-.937-2.027-2.062-2.425-3.374l3.48-1.863c.328.913.785 1.628 1.371 2.144a3.216 3.216 0 0 0 2.144.773c.633 0 1.16-.129 1.582-.387.422-.28.633-.726.633-1.335 0-.54-.258-.973-.774-1.301-.492-.351-1.265-.715-2.32-1.09a6.888 6.888 0 0 1-.738-.28c-1.359-.54-2.414-1.22-3.164-2.04-.75-.82-1.125-1.874-1.125-3.163 0-.914.247-1.746.739-2.496s1.16-1.348 2.003-1.793c.867-.445 1.84-.668 2.918-.668 1.195 0 2.285.258 3.269.773.984.493 1.746 1.196 2.285 2.11l-2.601 2.39c-.703-1.031-1.652-1.547-2.848-1.547-.468 0-.878.13-1.23.387-.328.234-.492.55-.492.95 0 .42.246.82.738 1.194.492.352 1.453.785 2.883 1.3 1.359.493 2.402 1.137 3.128 1.934.75.797 1.125 1.816 1.125 3.058 0 1.735-.551 3.129-1.652 4.183-1.102 1.032-2.543 1.547-4.324 1.547Zm14.822 0c-1.64 0-2.964-.457-3.972-1.37-.984-.915-1.476-2.239-1.476-3.973V36.283h4.359v11.355c0 1.007.222 1.745.668 2.214.468.469 1.089.703 1.863.703.726 0 1.394-.281 2.003-.843.61-.563 1.102-1.383 1.477-2.461.375-1.102.562-2.402.562-3.902v-7.066h4.359V54h-4.359v-2.847c-.679.96-1.488 1.722-2.425 2.285a5.84 5.84 0 0 1-3.059.843Zm14.771-17.998h4.359v2.848c.68-1.031 1.418-1.805 2.215-2.32.82-.54 1.781-.809 2.882-.809 1.148 0 2.168.305 3.058.914.891.61 1.524 1.523 1.899 2.742.632-1.148 1.417-2.039 2.355-2.672.961-.656 1.98-.984 3.058-.984 1.64 0 2.929.48 3.867 1.441.937.961 1.406 2.297 1.406 4.008V54h-4.359V42.189c0-1.64-.727-2.46-2.18-2.46-1.124 0-2.05.632-2.777 1.898-.703 1.265-1.054 3.093-1.054 5.483V54h-4.359V42.189c0-1.64-.726-2.46-2.179-2.46-1.125 0-2.051.667-2.777 2.003-.703 1.312-1.055 3.234-1.055 5.765V54h-4.359V36.283Z" fill="#37434F"/><path d="M33.321 88V77.09h1.321v9.738h5.071V88h-6.392Zm11.59.17c-.738 0-1.386-.175-1.943-.527a3.583 3.583 0 0 1-1.3-1.475c-.309-.633-.463-1.371-.463-2.216 0-.853.154-1.596.463-2.232.313-.636.746-1.13 1.3-1.481.557-.352 1.205-.527 1.944-.527.739 0 1.385.175 1.939.527.557.352.99.845 1.3 1.48.312.637.468 1.38.468 2.233 0 .845-.156 1.584-.468 2.216a3.534 3.534 0 0 1-1.3 1.475c-.554.352-1.2.528-1.94.528Zm0-1.129c.562 0 1.024-.144 1.386-.431.362-.288.63-.666.804-1.135.174-.469.261-.976.261-1.523 0-.547-.087-1.057-.26-1.53a2.577 2.577 0 0 0-.805-1.144c-.362-.291-.824-.437-1.385-.437s-1.023.146-1.385.437c-.362.29-.63.673-.804 1.145a4.388 4.388 0 0 0-.261 1.529c0 .547.087 1.054.26 1.523.175.469.443.847.805 1.135.362.287.824.431 1.385.431Zm5.627.959v-8.182h1.215v1.236h.085c.15-.405.419-.733.81-.986.39-.252.83-.378 1.32-.378.093 0 .208.002.347.006.138.003.243.008.314.016v1.278a3.694 3.694 0 0 0-.293-.048 2.89 2.89 0 0 0-.474-.037c-.398 0-.753.083-1.065.25a1.837 1.837 0 0 0-1.001 1.667V88h-1.258Zm8.763.17c-.789 0-1.469-.174-2.04-.522a3.503 3.503 0 0 1-1.316-1.47c-.306-.632-.458-1.367-.458-2.205 0-.838.152-1.577.458-2.216.309-.643.739-1.143 1.289-1.502.554-.362 1.2-.543 1.939-.543.426 0 .847.07 1.262.213.416.142.794.373 1.135.692.34.316.612.735.815 1.257.202.522.303 1.165.303 1.929v.532h-6.306V83.25h5.028c0-.462-.092-.874-.277-1.236a2.088 2.088 0 0 0-.778-.858c-.333-.21-.728-.314-1.182-.314-.5 0-.934.124-1.3.373-.362.245-.64.564-.836.959a2.817 2.817 0 0 0-.293 1.267v.725c0 .618.106 1.141.32 1.571.216.426.516.751.9.975.383.22.829.33 1.337.33.33 0 .628-.046.895-.138.27-.096.502-.238.697-.426.196-.192.347-.43.453-.714l1.215.34a2.692 2.692 0 0 1-.645 1.087 3.14 3.14 0 0 1-1.118.725 4.15 4.15 0 0 1-1.497.255Zm5.3-.17v-8.182h1.214v1.279h.107c.17-.437.446-.776.825-1.018.38-.245.837-.367 1.37-.367.54 0 .988.122 1.347.367.362.242.645.58.847 1.018h.085c.21-.423.524-.759.943-1.007.42-.252.922-.378 1.508-.378.731 0 1.33.229 1.795.687.465.454.697 1.163.697 2.125V88h-1.257v-5.476c0-.603-.165-1.035-.495-1.294-.33-.26-.72-.39-1.167-.39-.575 0-1.02.175-1.337.523-.316.344-.474.781-.474 1.31V88h-1.278v-5.604c0-.465-.151-.84-.453-1.124-.302-.287-.69-.431-1.166-.431-.327 0-.633.087-.917.26-.28.175-.507.416-.681.725a2.14 2.14 0 0 0-.256 1.06V88H64.6Zm17.256 0v-8.182h1.257V88h-1.257Zm.639-9.546a.894.894 0 0 1-.634-.25.804.804 0 0 1-.261-.602c0-.234.087-.435.26-.602a.894.894 0 0 1 .635-.25c.245 0 .454.084.628.25a.797.797 0 0 1 .267.602.797.797 0 0 1-.267.602.875.875 0 0 1-.628.25Zm2.92 12.614v-11.25h1.215v1.3h.149c.092-.142.22-.323.383-.543.167-.224.405-.423.714-.597.313-.178.735-.266 1.268-.266.689 0 1.296.172 1.822.516.525.345.935.833 1.23 1.465.295.632.442 1.378.442 2.237 0 .867-.147 1.618-.442 2.254-.295.632-.703 1.122-1.225 1.47-.522.344-1.124.517-1.806.517-.525 0-.946-.088-1.262-.262a2.34 2.34 0 0 1-.73-.602 8.102 8.102 0 0 1-.394-.564h-.107v4.325h-1.257Zm1.236-7.159c0 .618.09 1.163.272 1.635.18.47.445.837.793 1.103.348.263.775.394 1.279.394.525 0 .964-.138 1.315-.415a2.54 2.54 0 0 0 .8-1.13 4.431 4.431 0 0 0 .271-1.587c0-.575-.089-1.094-.266-1.555a2.404 2.404 0 0 0-.794-1.103c-.352-.273-.794-.41-1.326-.41-.512 0-.941.13-1.29.389-.347.255-.61.614-.788 1.076-.177.458-.266.992-.266 1.603Zm13.7-2.258-1.129.32a2.098 2.098 0 0 0-.314-.55 1.525 1.525 0 0 0-.554-.447c-.235-.117-.535-.176-.9-.176-.501 0-.918.116-1.252.346-.33.228-.496.517-.496.869 0 .312.114.56.341.74.228.181.583.332 1.066.453l1.214.298c.732.178 1.277.45 1.635.815.359.362.538.83.538 1.401 0 .469-.135.888-.404 1.257-.267.37-.64.66-1.119.874-.48.213-1.037.32-1.673.32-.834 0-1.525-.182-2.072-.544-.547-.362-.893-.891-1.038-1.587l1.193-.299c.113.44.328.771.644.991.32.22.737.33 1.252.33.586 0 1.051-.124 1.396-.372.348-.252.522-.554.522-.906 0-.284-.1-.522-.299-.714-.199-.195-.504-.34-.916-.436l-1.363-.32c-.75-.178-1.3-.453-1.652-.826-.348-.376-.522-.847-.522-1.411 0-.462.13-.87.39-1.225.262-.356.619-.634 1.07-.837.454-.202.97-.303 1.544-.303.81 0 1.446.177 1.908.532.465.355.795.824.99 1.407Zm7.198 3.004v-4.837h1.257V88h-1.257v-1.385h-.085c-.192.416-.49.769-.895 1.06-.405.288-.916.431-1.534.431-.512 0-.966-.111-1.364-.335-.398-.227-.71-.568-.937-1.023-.228-.458-.341-1.035-.341-1.731v-5.199h1.257v5.114c0 .596.167 1.072.501 1.427.337.356.767.533 1.289.533.312 0 .63-.08.953-.24.327-.16.6-.404.82-.735.224-.33.336-.75.336-1.262ZM111.11 88v-8.182h1.214v1.279h.107c.17-.437.445-.776.825-1.018.38-.245.837-.367 1.369-.367.54 0 .989.122 1.348.367.362.242.644.58.847 1.018h.085c.21-.423.524-.759.943-1.007.419-.252.921-.378 1.507-.378.732 0 1.33.229 1.795.687.466.454.698 1.163.698 2.125V88h-1.257v-5.476c0-.603-.165-1.035-.495-1.294a1.835 1.835 0 0 0-1.167-.39c-.575 0-1.021.175-1.337.523-.316.344-.474.781-.474 1.31V88h-1.278v-5.604c0-.465-.151-.84-.453-1.124-.302-.287-.691-.431-1.167-.431-.326 0-.632.087-.916.26-.28.175-.508.416-.682.725-.17.306-.255.66-.255 1.06V88h-1.257Zm20.345.17c-.682 0-1.284-.172-1.806-.516-.522-.348-.93-.838-1.225-1.47-.295-.636-.442-1.387-.442-2.254 0-.859.147-1.605.442-2.237.295-.632.705-1.12 1.23-1.465.526-.344 1.133-.516 1.822-.516.533 0 .954.088 1.263.266.312.174.55.373.713.597.167.22.297.4.389.543h.107V77.09h1.257V88h-1.215v-1.257h-.149c-.092.149-.223.337-.394.565-.17.223-.414.424-.73.601-.316.174-.737.261-1.262.261Zm.17-1.129c.505 0 .931-.131 1.279-.394.348-.266.612-.634.793-1.103.182-.472.272-1.017.272-1.635 0-.61-.089-1.145-.266-1.603-.178-.462-.441-.82-.789-1.076-.348-.26-.777-.39-1.289-.39-.532 0-.976.138-1.331.411-.352.27-.616.637-.794 1.103-.174.461-.261.98-.261 1.555 0 .582.089 1.112.266 1.587a2.6 2.6 0 0 0 .799 1.13c.355.277.796.415 1.321.415Zm9.381 1.13c-.739 0-1.387-.176-1.945-.528a3.578 3.578 0 0 1-1.299-1.475c-.309-.633-.464-1.371-.464-2.216 0-.853.155-1.596.464-2.232.312-.636.745-1.13 1.299-1.481.558-.352 1.206-.527 1.945-.527.738 0 1.385.175 1.939.527.557.352.99.845 1.299 1.48.313.637.469 1.38.469 2.233 0 .845-.156 1.584-.469 2.216a3.536 3.536 0 0 1-1.299 1.475c-.554.352-1.201.528-1.939.528Zm0-1.13c.561 0 1.022-.144 1.385-.431.362-.288.63-.666.804-1.135.174-.469.261-.976.261-1.523 0-.547-.087-1.057-.261-1.53a2.578 2.578 0 0 0-.804-1.144c-.363-.291-.824-.437-1.385-.437s-1.023.146-1.385.437a2.58 2.58 0 0 0-.805 1.145 4.388 4.388 0 0 0-.261 1.529c0 .547.087 1.054.261 1.523.174.469.443.847.805 1.135.362.287.824.431 1.385.431Zm6.883-9.95V88h-1.257V77.09h1.257Zm5.626 11.08c-.738 0-1.386-.176-1.944-.528-.554-.352-.987-.843-1.3-1.475-.308-.633-.463-1.371-.463-2.216 0-.853.155-1.596.463-2.232.313-.636.746-1.13 1.3-1.481.558-.352 1.206-.527 1.944-.527.739 0 1.385.175 1.939.527.558.352.991.845 1.3 1.48.313.637.469 1.38.469 2.233 0 .845-.156 1.584-.469 2.216a3.531 3.531 0 0 1-1.3 1.475c-.554.352-1.2.528-1.939.528Zm0-1.13c.562 0 1.023-.144 1.385-.431.363-.288.631-.666.805-1.135.174-.469.261-.976.261-1.523 0-.547-.087-1.057-.261-1.53a2.572 2.572 0 0 0-.805-1.144c-.362-.291-.823-.437-1.385-.437-.561 0-1.022.146-1.384.437a2.572 2.572 0 0 0-.805 1.145 4.388 4.388 0 0 0-.261 1.529c0 .547.087 1.054.261 1.523.174.469.442.847.805 1.135.362.287.823.431 1.384.431Zm5.627.959v-8.182h1.214v1.236h.085c.15-.405.42-.733.81-.986a2.384 2.384 0 0 1 1.321-.378c.093 0 .208.002.346.006a4.6 4.6 0 0 1 .315.016v1.278a3.792 3.792 0 0 0-.293-.048 2.886 2.886 0 0 0-.474-.037 2.23 2.23 0 0 0-1.066.25c-.309.163-.554.39-.735.682a1.842 1.842 0 0 0-.266.985V88h-1.257Zm15.595-6.35-1.129.32a2.111 2.111 0 0 0-.314-.549 1.53 1.53 0 0 0-.554-.447c-.235-.117-.535-.176-.901-.176-.5 0-.918.116-1.251.346-.331.228-.496.517-.496.869 0 .312.114.56.341.74.227.181.582.332 1.065.453l1.215.298c.731.178 1.277.45 1.635.815.359.362.538.83.538 1.401 0 .469-.135.888-.405 1.257-.266.37-.639.66-1.118.874-.48.213-1.037.32-1.673.32-.834 0-1.525-.182-2.072-.544-.547-.362-.893-.891-1.039-1.587l1.194-.299c.113.44.328.771.644.991.32.22.737.33 1.252.33.586 0 1.051-.124 1.395-.372.348-.252.522-.554.522-.906a.95.95 0 0 0-.298-.714c-.199-.195-.504-.34-.916-.436l-1.364-.32c-.749-.178-1.299-.453-1.651-.826-.348-.376-.522-.847-.522-1.411 0-.462.13-.87.389-1.225.263-.356.62-.634 1.071-.837.454-.202.969-.303 1.544-.303.81 0 1.446.177 1.907.532.465.355.796.824.991 1.407Zm2.041 6.35v-8.182h1.258V88h-1.258Zm.64-9.546a.893.893 0 0 1-.634-.25.804.804 0 0 1-.261-.602c0-.234.087-.435.261-.602a.893.893 0 0 1 .634-.25c.245 0 .454.084.628.25a.796.796 0 0 1 .267.602.796.796 0 0 1-.267.602.874.874 0 0 1-.628.25Zm6.478 1.364v1.066h-4.24v-1.066h4.24Zm-3.004-1.96h1.257v7.798c0 .355.052.622.155.8a.798.798 0 0 0 .404.35c.167.058.343.086.528.086.138 0 .252-.007.341-.021l.213-.043.255 1.13a2.573 2.573 0 0 1-.356.095 2.637 2.637 0 0 1-.581.053 2.53 2.53 0 0 1-1.044-.228 2.08 2.08 0 0 1-.842-.698c-.22-.313-.33-.707-.33-1.183v-8.139Zm11.522 10.334c-.519 0-.989-.098-1.412-.293a2.43 2.43 0 0 1-1.007-.858c-.248-.376-.372-.83-.372-1.363 0-.47.092-.85.277-1.14.184-.295.431-.526.74-.693.309-.167.65-.291 1.023-.373.376-.085.754-.152 1.134-.202.497-.064.9-.112 1.209-.144.313-.035.54-.094.682-.176.146-.081.219-.223.219-.426v-.043c0-.525-.144-.933-.432-1.225-.284-.29-.715-.436-1.294-.436-.6 0-1.071.131-1.412.394-.341.263-.58.543-.719.841l-1.193-.426c.213-.497.497-.884.852-1.161.359-.28.749-.476 1.172-.586.426-.114.845-.17 1.257-.17.263 0 .565.032.906.096.344.06.676.186.996.378.323.191.591.48.804.868.213.387.32.906.32 1.555V88h-1.257v-1.108h-.064a2.25 2.25 0 0 1-.426.57 2.466 2.466 0 0 1-.794.517c-.33.142-.733.213-1.209.213Zm.191-1.13c.498 0 .917-.097 1.258-.293a1.995 1.995 0 0 0 1.044-1.73v-1.151c-.054.064-.171.122-.352.176-.178.05-.383.094-.618.133a28.329 28.329 0 0 1-1.204.16 4.809 4.809 0 0 0-.916.207c-.28.093-.508.233-.682.421-.17.185-.255.437-.255.757 0 .436.161.766.484.99.327.22.741.33 1.241.33Zm5.853.938v-8.182h1.215v1.279h.106a2.06 2.06 0 0 1 .826-1.018c.38-.245.836-.367 1.369-.367.54 0 .989.122 1.347.367.363.242.645.58.847 1.018h.086c.209-.423.523-.759.942-1.007.42-.252.922-.378 1.508-.378.731 0 1.33.229 1.795.687.465.454.698 1.163.698 2.125V88h-1.257v-5.476c0-.603-.165-1.035-.496-1.294a1.832 1.832 0 0 0-1.166-.39c-.575 0-1.021.175-1.337.523-.316.344-.474.781-.474 1.31V88h-1.279v-5.604c0-.465-.151-.84-.452-1.124-.302-.287-.691-.431-1.167-.431-.327 0-.632.087-.916.26a1.968 1.968 0 0 0-.682.725c-.17.306-.256.66-.256 1.06V88h-1.257Zm16.468.17c-.789 0-1.469-.174-2.04-.522a3.5 3.5 0 0 1-1.316-1.47c-.306-.632-.458-1.367-.458-2.205 0-.838.152-1.577.458-2.216.309-.643.739-1.143 1.289-1.502.554-.362 1.2-.543 1.939-.543.426 0 .847.07 1.262.213.416.142.794.373 1.135.692.341.316.612.735.815 1.257.202.522.303 1.165.303 1.929v.532h-6.306V83.25h5.028c0-.462-.092-.874-.277-1.236a2.083 2.083 0 0 0-.778-.858c-.333-.21-.728-.314-1.182-.314-.501 0-.934.124-1.3.373a2.45 2.45 0 0 0-.836.959 2.82 2.82 0 0 0-.293 1.267v.725c0 .618.106 1.141.319 1.571.217.426.517.751.901.975.383.22.829.33 1.337.33.33 0 .628-.046.895-.138.269-.096.502-.238.697-.426.196-.192.347-.43.453-.714l1.215.34a2.694 2.694 0 0 1-.645 1.087c-.302.31-.675.55-1.119.725-.443.17-.942.255-1.496.255Zm8.858-8.352v1.066h-4.24v-1.066h4.24Zm-3.004-1.96h1.257v7.798c0 .355.051.622.154.8a.804.804 0 0 0 .405.35c.167.058.343.086.527.086.139 0 .253-.007.341-.021l.213-.043.256 1.13a2.553 2.553 0 0 1-.357.095 2.62 2.62 0 0 1-.58.053 2.53 2.53 0 0 1-1.044-.228 2.073 2.073 0 0 1-.842-.698c-.22-.313-.33-.707-.33-1.183v-8.139Zm5.811 10.227a.921.921 0 0 1-.676-.282.92.92 0 0 1-.283-.677.92.92 0 0 1 .283-.676.921.921 0 0 1 .676-.282c.263 0 .488.094.677.282a.923.923 0 0 1 .282.676.997.997 0 0 1-.479.831.915.915 0 0 1-.48.128Z" fill="#4D5C6C"/><rect x=".5" y=".5" width="299" height="117" rx="3.5" stroke="#EBF2F7"/></svg>