<svg width="24" height="24" viewBox="0 0 24 24" fill="none" xmlns="http://www.w3.org/2000/svg">
<path fill-rule="evenodd" clip-rule="evenodd" d="M11.25 5.25H9.75V6.75H11.25V5.25ZM14.25 5.25H12.75V6.75H14.25V5.25ZM9.75 8.25H11.25V9.75H9.75V8.25ZM14.25 8.25H12.75V9.75H14.25V8.25ZM9.75 11.25H11.25V12.75H9.75V11.25ZM14.25 11.25H12.75V12.75H14.25V11.25ZM9.75 14.25H11.25V15.75H9.75V14.25ZM14.25 14.25H12.75V15.75H14.25V14.25ZM9.75 17.25H11.25V18.75H9.75V17.25ZM14.25 17.25H12.75V18.75H14.25V17.25Z" fill="black"/>
</svg>
