<svg width="25" height="24" viewBox="0 0 25 24" fill="none" xmlns="http://www.w3.org/2000/svg">
<g clip-path="url(#clip0)">
<path d="M20.7562 12.1497C20.7562 11.4942 20.7018 11.0158 20.584 10.5198H12.924V13.4784H17.4202C17.3296 14.2137 16.8401 15.321 15.7523 16.065L15.737 16.1641L18.159 17.9976L18.3268 18.0139C19.8678 16.6232 20.7562 14.5769 20.7562 12.1497Z" fill="#4285F4"/>
<path d="M12.924 19.9451C15.1268 19.9451 16.9761 19.2364 18.3268 18.0139L15.7523 16.0651C15.0634 16.5346 14.1387 16.8623 12.924 16.8623C10.7666 16.8623 8.93544 15.4716 8.28269 13.5493L8.18702 13.5573L5.66865 15.4618L5.63571 15.5513C6.97733 18.1556 9.73311 19.9451 12.924 19.9451Z" fill="#34A853"/>
<path d="M8.28267 13.5493C8.11044 13.0532 8.01076 12.5217 8.01076 11.9725C8.01076 11.4233 8.11044 10.8918 8.27361 10.3957L8.26905 10.2901L5.71912 8.35492L5.6357 8.3937C5.08275 9.47443 4.76547 10.688 4.76547 11.9725C4.76547 13.257 5.08275 14.4705 5.6357 15.5513L8.28267 13.5493Z" fill="#FBBC05"/>
<path d="M12.924 7.08269C14.456 7.08269 15.4894 7.72934 16.0786 8.26974L18.3811 6.07285C16.967 4.7884 15.1268 4 12.924 4C9.7331 4 6.97732 5.78937 5.63571 8.39371L8.27363 10.3957C8.93543 8.47347 10.7666 7.08269 12.924 7.08269Z" fill="#EB4335"/>
</g>
<defs>
<clipPath id="clip0">
<rect width="16" height="16" fill="white" transform="translate(4.76465 4)"/>
</clipPath>
</defs>
</svg>
