<svg width="24" height="24" viewBox="0 0 24 24" fill="none"
  xmlns="http://www.w3.org/2000/svg">
  <g opacity="0.5">
    <path fill-rule="evenodd" clip-rule="evenodd" d="M15.1875 10.3125C15.1875 7.62007 13.0049 5.4375 10.3125 5.4375C7.62007 5.4375 5.4375 7.62007 5.4375 10.3125C5.4375 13.0049 7.62007 15.1875 10.3125 15.1875C11.4523 15.1875 12.5008 14.7963 13.331 14.1408C13.419 14.0714 13.5455 14.0758 13.6247 14.155V14.155C13.6649 14.1952 13.6875 14.2498 13.6875 14.3066V14.5152C13.6875 14.7055 13.7631 14.8881 13.8977 15.0227L16.875 18C17.1857 18.3107 17.6893 18.3107 18 18V18C18.3107 17.6893 18.3107 17.1857 18 16.875L15.0227 13.8977C14.8881 13.7631 14.7055 13.6875 14.5152 13.6875H14.3066C14.2498 13.6875 14.1952 13.6649 14.155 13.6247V13.6247C14.0758 13.5455 14.0714 13.419 14.1408 13.331C14.7963 12.5008 15.1875 11.4523 15.1875 10.3125ZM6.9375 10.3125C6.9375 8.44852 8.44852 6.9375 10.3125 6.9375C12.1765 6.9375 13.6875 8.44852 13.6875 10.3125C13.6875 12.1765 12.1765 13.6875 10.3125 13.6875C8.44852 13.6875 6.9375 12.1765 6.9375 10.3125Z" fill="black"/>
    <mask id="mask0_260332:1375" style="mask-type:alpha" maskUnits="userSpaceOnUse" x="5" y="5" width="14" height="14">
      <path fill-rule="evenodd" clip-rule="evenodd" d="M15.1875 10.3125C15.1875 7.62007 13.0049 5.4375 10.3125 5.4375C7.62007 5.4375 5.4375 7.62007 5.4375 10.3125C5.4375 13.0049 7.62007 15.1875 10.3125 15.1875C11.4523 15.1875 12.5008 14.7963 13.331 14.1408C13.419 14.0714 13.5455 14.0758 13.6247 14.155V14.155C13.6649 14.1952 13.6875 14.2498 13.6875 14.3066V14.5152C13.6875 14.7055 13.7631 14.8881 13.8977 15.0227L16.875 18C17.1857 18.3107 17.6893 18.3107 18 18V18C18.3107 17.6893 18.3107 17.1857 18 16.875L15.0227 13.8977C14.8881 13.7631 14.7055 13.6875 14.5152 13.6875H14.3066C14.2498 13.6875 14.1952 13.6649 14.155 13.6247V13.6247C14.0758 13.5455 14.0714 13.419 14.1408 13.331C14.7963 12.5008 15.1875 11.4523 15.1875 10.3125ZM6.9375 10.3125C6.9375 8.44852 8.44852 6.9375 10.3125 6.9375C12.1765 6.9375 13.6875 8.44852 13.6875 10.3125C13.6875 12.1765 12.1765 13.6875 10.3125 13.6875C8.44852 13.6875 6.9375 12.1765 6.9375 10.3125Z" fill="white"/>
    </mask>
    <g mask="url(#mask0_260332:1375)">
      <rect width="24" height="24" fill="#1B1D24"/>
    </g>
  </g>
</svg>
