<svg width="45" height="45" viewBox="0 0 45 45" fill="none" xmlns="http://www.w3.org/2000/svg">
	<path fill-rule="evenodd" clip-rule="evenodd" d="M4.75 0.3125H40.25C42.7008 0.3125 44.6875 2.29917 44.6875 4.75V40.25C44.6875 42.7008 42.7008 44.6875 40.25 44.6875H4.75C2.29917 44.6875 0.3125 42.7008 0.3125 40.25V4.75C0.3125 2.29917 2.29917 0.3125 4.75 0.3125ZM11.4062 4.75C8.34282 4.75 5.85938 7.23345 5.85938 10.2969C5.85938 13.3603 8.34282 15.8438 11.4062 15.8438C14.4697 15.8438 16.9531 13.3603 16.9531 10.2969C16.9531 7.23345 14.4697 4.75 11.4062 4.75ZM4.75 40.25V35.8125L13.625 26.9375L20.2812 33.5938L33.5938 20.2812L40.25 26.9375V40.25H4.75Z" fill="#DFDFDF" />
</svg>
