<svg width="192" height="152" viewBox="0 0 192 152" fill="none" xmlns="http://www.w3.org/2000/svg">
<path d="M68.3906 71.25C68.3906 74.5156 66.0156 77.1875 62.4531 77.1875C59.1875 77.1875 56.5156 74.5156 56.5156 71.25C56.5156 67.9844 59.1875 65.3125 62.4531 65.3125C66.0156 65.3125 68.3906 67.9844 68.3906 71.25ZM80.8594 40.375C80.8594 45.7188 77.8906 50.4688 72.8438 52.8438L67.2031 55.8125V57C67.2031 59.6719 65.125 61.75 62.4531 61.75C60.0781 61.75 57.7031 59.6719 57.7031 57V52.8438C57.7031 51.0625 58.8906 49.2812 60.375 48.6875L68.6875 44.5312C70.1719 43.6406 71.3594 42.1562 71.3594 40.375C71.3594 37.7031 69.2812 35.625 66.6094 35.625H57.7031C55.625 35.625 53.8438 37.4062 53.8438 39.4844C53.8438 42.1562 51.7656 44.2344 49.0938 44.2344C46.4219 44.2344 44.3438 42.1562 44.3438 39.4844C44.3438 32.0625 50.2812 26.125 57.7031 26.125H66.6094C74.3281 26.125 80.8594 32.6562 80.8594 40.375ZM62.75 0C96.5938 0 124.5 23.4531 124.5 52.25C124.5 81.3438 96.5938 104.5 62.75 104.5C57.1094 104.5 51.7656 103.906 46.4219 102.719C37.5156 108.359 24.4531 114 8.125 114C5.15625 114 2.48438 112.516 1.59375 109.547C0.40625 106.875 0.703125 103.906 2.78125 101.531C3.07812 101.531 9.60938 94.4062 14.3594 84.9062C6.04688 76 1 64.7188 1 52.25C1 23.4531 28.6094 0 62.75 0ZM49.6875 88.7656C54.1406 89.9531 58.2969 90.25 62.75 90.25C88.875 90.25 110.25 73.3281 110.25 52.25C110.25 31.4688 88.875 14.25 62.75 14.25C36.3281 14.25 15.25 31.4688 15.25 52.25C15.25 62.9375 20.2969 70.6562 24.75 75.1094L31.875 82.5312L27.125 91.7344C25.9375 93.5156 24.75 95.5938 23.5625 97.6719C28.9062 96.1875 33.9531 93.8125 39 90.5469L44.0469 87.5781L49.6875 88.7656ZM131.922 38.2969C164.875 39.4844 191 62.3438 191 90.25C191 102.719 185.656 114 177.344 122.906C182.094 132.406 188.625 139.531 188.922 139.531C191 141.906 191.297 144.875 190.109 147.547C189.219 150.516 186.547 152 183.578 152C167.25 152 154.188 146.359 145.281 140.719C139.938 141.906 134.594 142.5 129.25 142.5C104.906 142.5 83.8281 130.625 73.7344 113.406C78.7812 112.812 83.8281 111.625 88.2812 109.844C96.5938 121.125 111.734 128.25 129.25 128.25C133.406 128.25 137.562 127.953 142.016 126.766L147.656 125.578L152.703 128.547C157.75 131.812 162.797 134.188 168.141 135.672C166.953 133.594 165.766 131.516 164.578 129.734L159.828 120.531L166.953 113.109C171.406 108.656 176.75 100.938 176.75 90.25C176.75 70.6562 157.75 54.625 133.703 52.5469L134 52.25C134 47.5 133.109 42.75 131.922 38.2969ZM134.891 110.438C133.109 112.219 129.844 112.219 128.062 110.438L116.188 98.5625C114.406 96.7812 114.406 93.5156 116.188 91.7344C117.969 89.9531 121.234 89.9531 123.016 91.7344L131.625 100.344L154.188 77.4844C155.969 75.7031 159.234 75.7031 161.016 77.4844C162.797 79.2656 162.797 82.5312 161.016 84.3125L134.891 110.438Z" fill="black"/>
</svg>
