<svg width="191" height="152" viewBox="0 0 191 152" fill="none" xmlns="http://www.w3.org/2000/svg">
<path d="M125.875 85.5C121.719 85.5 118.75 88.7656 118.75 92.625V104.5H23.75C20.1875 104.5 16.9219 105.391 14.25 106.578V23.75C14.25 18.7031 18.4062 14.25 23.75 14.25H118.75V30.875C118.75 35.0312 121.719 38 125.875 38C129.734 38 133 35.0312 133 30.875V14.25C133 6.53125 126.469 0 118.75 0H23.75C10.3906 0 0 10.6875 0 23.75V128.25C0 141.609 10.3906 152 23.75 152H125.875C129.734 152 133 149.031 133 144.875C133 141.016 129.734 137.75 125.875 137.75H123.5V118.156C128.844 116.078 133 110.734 133 104.5V92.625C133 88.7656 129.734 85.5 125.875 85.5ZM109.25 137.75H23.75C18.4062 137.75 14.25 133.594 14.25 128.25C14.25 123.203 18.4062 118.75 23.75 118.75H109.25V137.75ZM187.625 56.7031L163.875 32.9531C160.906 30.2812 156.453 30.2812 153.781 32.9531C150.812 35.9219 150.812 40.375 153.781 43.0469L165.656 54.625H83.125C78.9688 54.625 76 57.8906 76 61.75C76 65.9062 78.9688 68.875 83.125 68.875H165.656L154.078 80.75C152.594 81.9375 152 83.7188 152 85.5C152 87.5781 152.594 89.3594 154.078 90.5469C156.75 93.5156 161.203 93.5156 163.875 90.5469L187.625 66.7969C190.594 64.125 190.594 59.6719 187.625 56.7031Z" fill="black"/>
</svg>
