<svg width="14" height="15" viewBox="0 0 14 15" fill="none" xmlns="http://www.w3.org/2000/svg">
<path d="M9.1875 4.25C9.1875 3.48438 8.75 2.77344 8.09375 2.36328C7.41016 1.98047 6.5625 1.98047 5.90625 2.36328C5.22266 2.77344 4.8125 3.48438 4.8125 4.25C4.8125 5.04297 5.22266 5.75391 5.90625 6.16406C6.5625 6.54688 7.41016 6.54688 8.09375 6.16406C8.75 5.75391 9.1875 5.04297 9.1875 4.25ZM3.5 4.25C3.5 3.01953 4.15625 1.87109 5.25 1.24219C6.31641 0.613281 7.65625 0.613281 8.75 1.24219C9.81641 1.87109 10.5 3.01953 10.5 4.25C10.5 5.50781 9.81641 6.65625 8.75 7.28516C7.65625 7.91406 6.31641 7.91406 5.25 7.28516C4.15625 6.65625 3.5 5.50781 3.5 4.25ZM2.21484 13.4375H11.7578C11.5117 11.7148 10.0352 10.375 8.23047 10.375H5.74219C3.9375 10.375 2.46094 11.7148 2.21484 13.4375ZM0.875 13.957C0.875 11.25 3.03516 9.0625 5.74219 9.0625H8.23047C10.9375 9.0625 13.125 11.25 13.125 13.957C13.125 14.3945 12.7422 14.75 12.3047 14.75H1.66797C1.23047 14.75 0.875 14.3945 0.875 13.957Z" fill="#91A5BA"/>
</svg>
