<svg width="16" height="13" viewBox="0 0 16 13" fill="none" xmlns="http://www.w3.org/2000/svg">
<path d="M8 1.9375C6.19531 1.9375 4.74609 2.75781 3.625 3.79688C2.55859 4.78125 1.84766 5.92969 1.46484 6.75C1.84766 7.57031 2.55859 8.74609 3.625 9.73047C4.74609 10.7695 6.19531 11.5625 8 11.5625C9.77734 11.5625 11.2266 10.7695 12.3477 9.73047C13.4141 8.74609 14.1523 7.57031 14.5078 6.75C14.1523 5.92969 13.4141 4.78125 12.375 3.79688C11.2266 2.75781 9.77734 1.9375 8 1.9375ZM2.72266 2.83984C4.00781 1.63672 5.78516 0.625 8 0.625C10.1875 0.625 11.9648 1.63672 13.25 2.83984C14.5352 4.04297 15.3828 5.4375 15.793 6.42188C15.875 6.64062 15.875 6.88672 15.793 7.10547C15.3828 8.0625 14.5352 9.48438 13.25 10.6875C11.9648 11.8906 10.1875 12.875 8 12.875C5.78516 12.875 4.00781 11.8906 2.72266 10.6875C1.4375 9.48438 0.589844 8.0625 0.179688 7.10547C0.0976562 6.88672 0.0976562 6.64062 0.179688 6.42188C0.589844 5.4375 1.4375 4.01562 2.72266 2.83984ZM8 8.9375C9.20312 8.9375 10.1875 7.98047 10.1875 6.75C10.1875 5.54688 9.20312 4.5625 8 4.5625C7.97266 4.5625 7.94531 4.5625 7.94531 4.5625C7.97266 4.72656 8 4.86328 8 5C8 5.98438 7.20703 6.75 6.25 6.75C6.08594 6.75 5.94922 6.75 5.8125 6.69531C5.8125 6.72266 5.8125 6.75 5.8125 6.75C5.8125 7.98047 6.76953 8.9375 8 8.9375ZM8 3.25C9.23047 3.25 10.3789 3.93359 11.0078 5C11.6367 6.09375 11.6367 7.43359 11.0078 8.5C10.3789 9.59375 9.23047 10.25 8 10.25C6.74219 10.25 5.59375 9.59375 4.96484 8.5C4.33594 7.43359 4.33594 6.09375 4.96484 5C5.59375 3.93359 6.74219 3.25 8 3.25Z" fill="#91A5BA"/>
</svg>
