<svg width="17" height="13" viewBox="0 0 17 13" fill="none" xmlns="http://www.w3.org/2000/svg">
<path d="M15.9766 0.405273C16.332 0.405273 16.6328 0.706055 16.6328 1.06152V11.999C16.6328 12.3818 16.332 12.6553 15.9766 12.6553C15.5938 12.6553 15.3203 12.3818 15.3203 11.999V11.8623L10.4531 10.5225C10.2344 11.7529 9.14062 12.6553 7.88281 12.6553C6.43359 12.6553 5.25781 11.4795 5.25781 10.0303C5.25781 9.72949 5.3125 9.42871 5.39453 9.15527L2.19531 8.28027V8.49902C2.19531 8.88184 1.89453 9.15527 1.53906 9.15527C1.15625 9.15527 0.882812 8.88184 0.882812 8.49902V4.56152C0.882812 4.20605 1.15625 3.90527 1.53906 3.90527C1.89453 3.90527 2.19531 4.20605 2.19531 4.56152V4.80762L15.3203 1.22559V1.06152C15.3203 0.706055 15.5938 0.405273 15.9766 0.405273ZM15.3203 10.4951V2.59277L2.19531 6.1748V6.91309L15.3203 10.4951ZM6.57031 10.0303C6.57031 10.7686 7.14453 11.3428 7.88281 11.3428C8.53906 11.3428 9.11328 10.8506 9.16797 10.1943L6.67969 9.51074C6.59766 9.6748 6.57031 9.83887 6.57031 10.0303Z" fill="#91A5BA"/>
</svg>
