<svg width="14" height="15" viewBox="0 0 14 15" fill="none" xmlns="http://www.w3.org/2000/svg">
<path d="M4.80371 3.77832V5.52832H9.17871V3.77832C9.17871 2.5752 8.19434 1.59082 6.99121 1.59082C5.76074 1.59082 4.80371 2.5752 4.80371 3.77832ZM3.49121 5.52832V3.77832C3.49121 1.86426 5.0498 0.27832 6.99121 0.27832C8.90527 0.27832 10.4912 1.86426 10.4912 3.77832V5.52832H11.3662C12.3232 5.52832 13.1162 6.32129 13.1162 7.27832V12.5283C13.1162 13.5127 12.3232 14.2783 11.3662 14.2783H2.61621C1.63184 14.2783 0.866211 13.5127 0.866211 12.5283V7.27832C0.866211 6.32129 1.63184 5.52832 2.61621 5.52832H3.49121ZM2.17871 7.27832V12.5283C2.17871 12.7744 2.37012 12.9658 2.61621 12.9658H11.3662C11.585 12.9658 11.8037 12.7744 11.8037 12.5283V7.27832C11.8037 7.05957 11.585 6.84082 11.3662 6.84082H2.61621C2.37012 6.84082 2.17871 7.05957 2.17871 7.27832Z" fill="#91A5BA"/>
</svg>
