<svg width="16" height="13" viewBox="0 0 16 13" fill="none" xmlns="http://www.w3.org/2000/svg">
<path d="M14.1162 1.64551H1.86621C1.62012 1.64551 1.42871 1.86426 1.42871 2.08301V2.95801H14.5537V2.08301C14.5537 1.86426 14.335 1.64551 14.1162 1.64551ZM14.5537 5.58301H1.42871V10.833C1.42871 11.0791 1.62012 11.2705 1.86621 11.2705H14.1162C14.335 11.2705 14.5537 11.0791 14.5537 10.833V5.58301ZM1.86621 0.333008H14.1162C15.0732 0.333008 15.8662 1.12598 15.8662 2.08301V10.833C15.8662 11.8174 15.0732 12.583 14.1162 12.583H1.86621C0.881836 12.583 0.116211 11.8174 0.116211 10.833V2.08301C0.116211 1.12598 0.881836 0.333008 1.86621 0.333008ZM3.39746 8.64551H4.70996C5.06543 8.64551 5.36621 8.94629 5.36621 9.30176C5.36621 9.68457 5.06543 9.95801 4.70996 9.95801H3.39746C3.01465 9.95801 2.74121 9.68457 2.74121 9.30176C2.74121 8.94629 3.01465 8.64551 3.39746 8.64551ZM6.89746 8.64551H9.95996C10.3154 8.64551 10.6162 8.94629 10.6162 9.30176C10.6162 9.68457 10.3154 9.95801 9.95996 9.95801H6.89746C6.51465 9.95801 6.24121 9.68457 6.24121 9.30176C6.24121 8.94629 6.51465 8.64551 6.89746 8.64551Z" fill="#91A5BA"/>
</svg>
