<svg width="15" height="15" viewBox="0 0 15 15" fill="none" xmlns="http://www.w3.org/2000/svg">
<path d="M13.6641 1.09668L13.8828 1.78027L14.5664 1.99902C14.6758 2.02637 14.7578 2.1084 14.7578 2.21777C14.7578 2.32715 14.6758 2.43652 14.5664 2.46387L13.8828 2.65527L13.6641 3.36621C13.6367 3.47559 13.5547 3.53027 13.4453 3.53027C13.3359 3.53027 13.2266 3.47559 13.1992 3.36621L13.0078 2.65527L12.2969 2.46387C12.1875 2.43652 12.1328 2.32715 12.1328 2.21777C12.1328 2.1084 12.1875 2.02637 12.2969 1.99902L13.0078 1.78027L13.1992 1.09668C13.2266 0.987305 13.3086 0.905273 13.4453 0.905273C13.5547 0.905273 13.6367 0.987305 13.6641 1.09668ZM2.28906 2.84668L2.50781 3.53027L3.19141 3.74902C3.30078 3.77637 3.38281 3.8584 3.38281 3.96777C3.38281 4.07715 3.30078 4.18652 3.19141 4.21387L2.50781 4.40527L2.28906 5.11621C2.26172 5.22559 2.17969 5.28027 2.07031 5.28027C1.96094 5.28027 1.85156 5.22559 1.82422 5.11621L1.63281 4.40527L0.921875 4.21387C0.8125 4.18652 0.757812 4.10449 0.757812 3.96777C0.757812 3.8584 0.8125 3.77637 0.921875 3.74902L1.63281 3.53027L1.82422 2.84668C1.85156 2.7373 1.93359 2.65527 2.07031 2.65527C2.17969 2.65527 2.26172 2.7373 2.28906 2.84668ZM3.38281 14.249C3.38281 13.8936 3.65625 13.5928 4.03906 13.5928H11.4766C11.832 13.5928 12.1328 13.8936 12.1328 14.249C12.1328 14.6318 11.832 14.9053 11.4766 14.9053H4.03906C3.65625 14.9053 3.38281 14.6318 3.38281 14.249ZM6.44531 2.21777C6.44531 1.75293 6.69141 1.34277 7.10156 1.09668C7.48438 0.850586 8.00391 0.850586 8.41406 1.09668C8.79688 1.34277 9.07031 1.75293 9.07031 2.21777C9.07031 2.70996 8.79688 3.12012 8.41406 3.36621C8.00391 3.6123 7.48438 3.6123 7.10156 3.36621C6.69141 3.12012 6.44531 2.70996 6.44531 2.21777ZM7.32031 9.65527V12.7178H6.00781V6.62012L4.55859 8.53418C4.33984 8.83496 3.92969 8.88965 3.62891 8.6709C3.35547 8.45215 3.27344 8.01465 3.49219 7.74121L5.29688 5.3623C5.76172 4.76074 6.47266 4.40527 7.21094 4.40527H8.27734C9.01562 4.40527 9.72656 4.76074 10.1914 5.3623L11.9961 7.74121C12.2148 8.04199 12.1602 8.45215 11.8594 8.6709C11.5859 8.88965 11.1484 8.80762 10.9297 8.53418L9.50781 6.62012V12.7178H8.19531V9.65527H7.32031ZM7.32031 8.34277H8.19531V5.71777H7.32031V8.34277Z" fill="#91A5BA"/>
</svg>
