<svg width="14" height="15" viewBox="0 0 14 15" fill="none" xmlns="http://www.w3.org/2000/svg">
<path d="M6.99236 1.7002L1.98845 3.80566C1.82439 3.8877 1.71501 4.02441 1.74236 4.16113C1.74236 6.67676 2.78142 10.9971 6.8283 12.9111C6.93767 12.9658 7.04705 12.9658 7.12908 12.9111C11.176 10.9697 12.215 6.67676 12.2424 4.16113C12.2424 4.02441 12.133 3.8877 11.9963 3.80566L6.99236 1.7002ZM7.34783 0.415039L12.4885 2.60254C13.09 2.87598 13.5549 3.4502 13.5549 4.16113C13.5275 6.89551 12.4064 11.8447 7.7033 14.1143C7.23845 14.333 6.71892 14.333 6.25408 14.1143C1.55095 11.8447 0.429858 6.89551 0.429858 4.16113C0.402514 3.4502 0.867358 2.87598 1.46892 2.60254L6.60955 0.415039C6.71892 0.360352 6.85564 0.333008 6.99236 0.333008C7.10173 0.333008 7.23845 0.360352 7.34783 0.415039Z" fill="#91A5BA"/>
</svg>
