<svg width="15" height="15" viewBox="0 0 15 15" fill="none" xmlns="http://www.w3.org/2000/svg">
<path d="M11.2852 12.3896L9.07031 10.1748C8.6875 10.4209 8.22266 10.5303 7.75781 10.5303C7.26562 10.5303 6.80078 10.4209 6.41797 10.1748L4.20312 12.3896C5.1875 13.1553 6.41797 13.5928 7.75781 13.5928C9.07031 13.5928 10.3008 13.1553 11.2852 12.3896ZM13.1445 12.3896L13.4453 12.7178C13.7188 12.9639 13.7188 13.374 13.4453 13.6201C13.1992 13.8936 12.7891 13.8936 12.543 13.6201L12.2148 13.3193C10.9844 14.3037 9.45312 14.9053 7.75781 14.9053C6.03516 14.9053 4.50391 14.3037 3.27344 13.3193L2.94531 13.6201C2.69922 13.8936 2.28906 13.8936 2.04297 13.6201C1.76953 13.374 1.76953 12.9639 2.04297 12.6904L2.34375 12.3896C1.35938 11.1592 0.757812 9.62793 0.757812 7.90527C0.757812 6.20996 1.35938 4.67871 2.34375 3.44824L2.04297 3.12012C1.76953 2.87402 1.76953 2.46387 2.04297 2.19043C2.28906 1.94434 2.69922 1.94434 2.97266 2.19043L3.27344 2.51855C4.50391 1.53418 6.03516 0.905273 7.75781 0.905273C9.45312 0.905273 10.9844 1.53418 12.2148 2.51855L12.543 2.21777C12.7891 1.94434 13.1992 1.94434 13.4727 2.21777C13.7188 2.46387 13.7188 2.87402 13.4727 3.12012L13.1445 3.44824C14.1289 4.67871 14.7578 6.20996 14.7578 7.90527C14.7578 9.62793 14.1289 11.1592 13.1445 12.3896ZM12.2148 11.46C12.9805 10.4756 13.4453 9.24512 13.4453 7.90527C13.4453 6.59277 12.9805 5.3623 12.2148 4.37793L10 6.59277C10.2461 6.97559 10.3828 7.44043 10.3828 7.90527C10.3828 8.39746 10.2461 8.8623 10 9.24512L12.2148 11.46ZM11.2852 3.44824C10.3008 2.68262 9.07031 2.21777 7.75781 2.21777C6.41797 2.21777 5.1875 2.68262 4.20312 3.44824L6.41797 5.66309C6.80078 5.41699 7.26562 5.28027 7.73047 5.28027C8.22266 5.28027 8.6875 5.41699 9.07031 5.66309L11.2852 3.44824ZM5.48828 9.24512C5.24219 8.8623 5.13281 8.39746 5.13281 7.93262C5.13281 7.44043 5.24219 6.97559 5.48828 6.59277L3.27344 4.37793C2.50781 5.3623 2.07031 6.59277 2.07031 7.90527C2.07031 9.24512 2.50781 10.4756 3.27344 11.46L5.48828 9.24512ZM6.44531 7.90527C6.44531 8.39746 6.69141 8.80762 7.10156 9.05371C7.48438 9.2998 8.00391 9.2998 8.41406 9.05371C8.79688 8.80762 9.07031 8.39746 9.07031 7.90527C9.07031 7.44043 8.79688 7.03027 8.41406 6.78418C8.00391 6.53809 7.48438 6.53809 7.10156 6.78418C6.69141 7.03027 6.44531 7.44043 6.44531 7.90527Z" fill="#91A5BA"/>
</svg>
