<svg width="15" height="13" viewBox="0 0 15 13" fill="none" xmlns="http://www.w3.org/2000/svg">
<path d="M4.36372 10.4688C4.71918 10.1953 5.18403 10.1406 5.59418 10.2773C6.30512 10.5508 7.12543 10.6875 8.00043 10.6875C11.3911 10.6875 13.6879 8.5 13.6879 6.3125C13.6879 4.15234 11.3911 1.9375 8.00043 1.9375C4.58247 1.9375 2.31293 4.15234 2.31293 6.3125C2.31293 7.1875 2.64106 8.03516 3.26997 8.77344C3.51606 9.01953 3.62543 9.375 3.59809 9.73047C3.57075 10.2227 3.43403 10.6875 3.29731 11.0977C3.76215 10.8789 4.14497 10.6328 4.36372 10.4688ZM1.57465 11.5625C1.62934 11.5078 1.65668 11.4258 1.71137 11.3438C1.98481 10.9062 2.2309 10.3047 2.28559 9.62109C1.46528 8.69141 1.00043 7.57031 1.00043 6.3125C1.00043 3.19531 4.11762 0.625 8.00043 0.625C11.8559 0.625 15.0004 3.19531 15.0004 6.3125C15.0004 9.45703 11.8559 12 8.00043 12C6.96137 12 6.00434 11.8359 5.12934 11.5352C4.82856 11.7539 4.28168 12.082 3.65278 12.3555C3.24262 12.5469 2.77778 12.7109 2.28559 12.793C2.25825 12.793 2.2309 12.8203 2.2309 12.8203C2.09418 12.8477 1.98481 12.8477 1.84809 12.875C1.71137 12.875 1.57465 12.9023 1.41059 12.9023C1.24653 12.9023 1.08247 12.793 1.02778 12.6289C0.945747 12.4648 1.00043 12.2734 1.10981 12.1367C1.21918 12.0273 1.32856 11.918 1.41059 11.7812C1.46528 11.6992 1.51997 11.6445 1.54731 11.5898C1.54731 11.5898 1.54731 11.5898 1.54731 11.5625H1.57465Z" fill="#91A5BA"/>
</svg>
