<svg width="12" height="15" viewBox="0 0 12 15" fill="none" xmlns="http://www.w3.org/2000/svg">
<path d="M8.65234 0.75C9.17188 0.75 9.55469 1.26953 9.41797 1.76172L7.94141 6.875H10.293C10.8125 6.875 11.2227 7.3125 11.2227 7.83203C11.2227 8.13281 11.1133 8.37891 10.8945 8.57031L3.8125 14.5859C3.67578 14.6953 3.51172 14.75 3.32031 14.75C2.80078 14.75 2.41797 14.2578 2.55469 13.7656L4.03125 8.625H1.65234C1.16016 8.625 0.75 8.21484 0.75 7.72266C0.75 7.44922 0.859375 7.20312 1.05078 7.01172L8.16016 0.941406C8.29688 0.832031 8.46094 0.75 8.65234 0.75ZM7.66797 3.07422L2.71875 7.3125H4.90625C5.09766 7.3125 5.28906 7.42188 5.42578 7.58594C5.53516 7.75 5.58984 7.96875 5.53516 8.16016L4.30469 12.4531L9.30859 8.1875H7.09375C6.875 8.1875 6.68359 8.10547 6.54688 7.94141C6.4375 7.77734 6.38281 7.55859 6.4375 7.36719L7.66797 3.07422Z" fill="#91A5BA"/>
</svg>
