<svg width="14" height="15" viewBox="0 0 14 15" fill="none" xmlns="http://www.w3.org/2000/svg">
<path d="M7.875 1.625C7.875 2.11719 7.46484 2.5 7 2.5C6.50781 2.5 6.125 2.11719 6.125 1.625C6.125 1.16016 6.50781 0.75 7 0.75C7.46484 0.75 7.875 1.16016 7.875 1.625ZM7.875 13.875C7.875 14.3672 7.46484 14.75 7 14.75C6.50781 14.75 6.125 14.3672 6.125 13.875C6.125 13.4102 6.50781 13 7 13C7.46484 13 7.875 13.4102 7.875 13.875ZM12.25 7.75C12.25 7.28516 12.6328 6.875 13.125 6.875C13.5898 6.875 14 7.28516 14 7.75C14 8.24219 13.5898 8.625 13.125 8.625C12.6328 8.625 12.25 8.24219 12.25 7.75ZM0.875 8.625C0.382812 8.625 0 8.24219 0 7.75C0 7.28516 0.382812 6.875 0.875 6.875C1.33984 6.875 1.75 7.28516 1.75 7.75C1.75 8.24219 1.33984 8.625 0.875 8.625ZM2.05078 12.6992C1.69531 12.3711 1.69531 11.8242 2.05078 11.4688C2.37891 11.1406 2.92578 11.1406 3.28125 11.4688C3.60938 11.8242 3.60938 12.3711 3.28125 12.6992C2.92578 13.0547 2.37891 13.0547 2.05078 12.6992ZM10.6914 12.6992C10.4727 12.5078 10.3633 12.1523 10.4453 11.8516C10.5273 11.5508 10.7734 11.3047 11.0742 11.2227C11.375 11.1406 11.7305 11.25 11.9492 11.4688C12.168 11.6875 12.2773 12.0156 12.1953 12.3438C12.1133 12.6445 11.8672 12.8906 11.5664 12.9727C11.2383 13.0547 10.9102 12.9453 10.6914 12.6992ZM2.05078 2.80078C2.37891 2.47266 2.92578 2.47266 3.28125 2.80078C3.60938 3.15625 3.60938 3.70312 3.28125 4.05859C2.92578 4.38672 2.37891 4.38672 2.05078 4.05859C1.69531 3.70312 1.69531 3.15625 2.05078 2.80078Z" fill="#91A5BA"/>
</svg>
