<svg width="14" height="13" viewBox="0 0 14 13" fill="none" xmlns="http://www.w3.org/2000/svg">
<path d="M0 2.21094C0.0273438 1.96484 0.0820312 1.74609 0.191406 1.55469C0.355469 1.28125 0.574219 1.03516 0.875 0.871094C1.06641 0.761719 1.3125 0.679688 1.55859 0.652344C1.61328 0.652344 1.66797 0.625 1.75 0.625H12.25C13.207 0.625 14 1.41797 14 2.375V4.125V11.125C14 12.1094 13.207 12.875 12.25 12.875H1.75C0.765625 12.875 0 12.1094 0 11.125V4.125V2.375C0 2.32031 0 2.26562 0 2.21094ZM1.3125 4.125V11.125C1.3125 11.3711 1.50391 11.5625 1.75 11.5625H12.25C12.4688 11.5625 12.6875 11.3711 12.6875 11.125V4.125H1.3125Z" fill="#91A5BA"/>
</svg>
