<svg width="12" height="13" viewBox="0 0 12 13" fill="none" xmlns="http://www.w3.org/2000/svg">
<path d="M6 0.625C6.35547 0.625 6.65625 0.925781 6.65625 1.28125V5.57422L10.2383 3.35938C10.5391 3.16797 10.9492 3.27734 11.1406 3.57812C11.332 3.87891 11.2227 4.28906 10.9219 4.48047L7.23047 6.75L10.9219 9.04688C11.2227 9.23828 11.332 9.64844 11.1406 9.94922C10.9492 10.25 10.5391 10.3594 10.2383 10.168L6.65625 7.95312V12.2188C6.65625 12.6016 6.35547 12.875 6 12.875C5.61719 12.875 5.34375 12.6016 5.34375 12.2188V7.95312L1.73438 10.168C1.43359 10.3594 1.02344 10.25 0.832031 9.94922C0.640625 9.64844 0.75 9.23828 1.05078 9.04688L4.74219 6.75L1.05078 4.48047C0.75 4.28906 0.640625 3.87891 0.832031 3.57812C1.02344 3.27734 1.43359 3.16797 1.73438 3.35938L5.34375 5.57422V1.28125C5.34375 0.925781 5.61719 0.625 6 0.625Z" fill="#91A5BA"/>
</svg>
