<svg width="14" height="13" viewBox="0 0 14 13" fill="none" xmlns="http://www.w3.org/2000/svg">
<path d="M0.65625 0.625C1.01172 0.625 1.3125 0.925781 1.3125 1.28125V12.2188C1.3125 12.6016 1.01172 12.875 0.65625 12.875C0.273438 12.875 0 12.6016 0 12.2188V1.28125C0 0.925781 0.273438 0.625 0.65625 0.625ZM3.0625 0.625C3.28125 0.625 3.5 0.84375 3.5 1.0625V12.4375C3.5 12.6836 3.28125 12.875 3.0625 12.875C2.81641 12.875 2.625 12.6836 2.625 12.4375V1.0625C2.625 0.84375 2.81641 0.625 3.0625 0.625ZM5.03125 0.625C5.38672 0.625 5.6875 0.925781 5.6875 1.28125V12.2188C5.6875 12.6016 5.38672 12.875 5.03125 12.875C4.64844 12.875 4.375 12.6016 4.375 12.2188V1.28125C4.375 0.925781 4.64844 0.625 5.03125 0.625ZM8.09375 0.625C8.44922 0.625 8.75 0.925781 8.75 1.28125V12.2188C8.75 12.6016 8.44922 12.875 8.09375 12.875C7.71094 12.875 7.4375 12.6016 7.4375 12.2188V1.28125C7.4375 0.925781 7.71094 0.625 8.09375 0.625ZM12.6875 1.28125C12.6875 0.925781 12.9609 0.625 13.3438 0.625C13.6992 0.625 14 0.925781 14 1.28125V12.2188C14 12.6016 13.6992 12.875 13.3438 12.875C12.9609 12.875 12.6875 12.6016 12.6875 12.2188V1.28125ZM10.9375 1.0625C10.9375 0.84375 11.1289 0.625 11.375 0.625C11.5938 0.625 11.8125 0.84375 11.8125 1.0625V12.4375C11.8125 12.6836 11.5938 12.875 11.375 12.875C11.1289 12.875 10.9375 12.6836 10.9375 12.4375V1.0625Z" fill="#91A5BA"/>
</svg>
