<svg width="14" height="15" viewBox="0 0 14 15" fill="none" xmlns="http://www.w3.org/2000/svg">
<path d="M11.8125 0.859375C12.1133 0.859375 12.3594 1.10547 12.3594 1.40625V2.39062H13.3438C13.6445 2.39062 13.8906 2.63672 13.8906 2.9375C13.8906 3.23828 13.6445 3.48438 13.3438 3.48438H12.3594V4.46875C12.3594 4.76953 12.1133 5.01562 11.8125 5.01562C11.5117 5.01562 11.2656 4.76953 11.2656 4.46875V3.48438H10.2812C9.98047 3.48438 9.73438 3.23828 9.73438 2.9375C9.73438 2.63672 9.98047 2.39062 10.2812 2.39062H11.2656V1.40625C11.2656 1.10547 11.5117 0.859375 11.8125 0.859375ZM7 4.25C7.21875 4.25 7.46484 4.30469 7.65625 4.41406L13.3984 6.84766C13.7539 7.01172 14 7.36719 14 7.75C14 8.16016 13.7539 8.51562 13.3984 8.67969L7.65625 11.1133C7.46484 11.2227 7.21875 11.25 7 11.25C6.75391 11.25 6.53516 11.2227 6.31641 11.1133L0.574219 8.67969C0.21875 8.51562 0 8.16016 0 7.75C0 7.36719 0.21875 7.01172 0.574219 6.84766L6.31641 4.41406C6.53516 4.30469 6.75391 4.25 7 4.25ZM6.83594 5.61719L1.80469 7.75L6.83594 9.91016C6.89062 9.9375 6.94531 9.9375 7 9.9375C7.05469 9.9375 7.10938 9.9375 7.13672 9.91016L12.168 7.75L7.13672 5.61719C7.10938 5.58984 7.05469 5.5625 7 5.5625C6.94531 5.5625 6.89062 5.58984 6.83594 5.61719ZM1.44922 9.99219L3.11719 10.7031L1.80469 11.25L6.83594 13.4102C6.89062 13.4375 6.94531 13.4375 7 13.4375C7.05469 13.4375 7.10938 13.4375 7.13672 13.4102L12.168 11.25L10.8828 10.7031L12.5234 9.99219L13.3984 10.3477C13.7539 10.5117 14 10.8672 14 11.25C14 11.6602 13.7539 12.0156 13.3984 12.1797L7.65625 14.6133C7.46484 14.7227 7.21875 14.75 7 14.75C6.75391 14.75 6.53516 14.7227 6.31641 14.6133L0.574219 12.1797C0.21875 12.0156 0 11.6602 0 11.25C0 10.8672 0.21875 10.5117 0.574219 10.3477L1.44922 9.99219Z" fill="#91A5BA"/>
</svg>
