<svg width="14" height="14" viewBox="0 0 14 14" fill="none" xmlns="http://www.w3.org/2000/svg">
<path d="M11.5092 0.301738C11.6687 0.115705 11.9565 0.115543 12.1162 0.301394L13.4322 1.83261C13.6551 2.09197 13.4708 2.49332 13.1288 2.49332H12.36L12.3594 3.94332C12.3594 4.2441 12.1133 4.49332 11.8125 4.49332C11.5117 4.49332 11.2656 4.2441 11.2656 3.94332V2.49332H10.4999C10.1581 2.49332 9.97377 2.0924 10.1962 1.83295L11.5092 0.301738ZM7 3.33863C7.21875 3.33863 7.46484 3.39332 7.65625 3.5027L13.3984 5.93629C13.7539 6.10035 14 6.45582 14 6.83863C14 7.24879 13.7539 7.60426 13.3984 7.76832L7.65625 10.2019C7.46484 10.3113 7.21875 10.3386 7 10.3386C6.75391 10.3386 6.53516 10.3113 6.31641 10.2019L0.574219 7.76832C0.21875 7.60426 0 7.24879 0 6.83863C0 6.45582 0.21875 6.10035 0.574219 5.93629L6.31641 3.5027C6.53516 3.39332 6.75391 3.33863 7 3.33863ZM6.83594 4.70582L1.80469 6.83863L6.83594 8.99879C6.89062 9.02613 6.94531 9.02613 7 9.02613C7.05469 9.02613 7.10938 9.02613 7.13672 8.99879L12.168 6.83863L7.13672 4.70582C7.10938 4.67848 7.05469 4.65113 7 4.65113C6.94531 4.65113 6.89062 4.67848 6.83594 4.70582ZM1.44922 9.08082L3.11719 9.79176L1.80469 10.3386L6.83594 12.4988C6.89062 12.5261 6.94531 12.5261 7 12.5261C7.05469 12.5261 7.10938 12.5261 7.13672 12.4988L12.168 10.3386L10.8828 9.79176L12.5234 9.08082L13.3984 9.43629C13.7539 9.60035 14 9.95582 14 10.3386C14 10.7488 13.7539 11.1043 13.3984 11.2683L7.65625 13.7019C7.46484 13.8113 7.21875 13.8386 7 13.8386C6.75391 13.8386 6.53516 13.8113 6.31641 13.7019L0.574219 11.2683C0.21875 11.1043 0 10.7488 0 10.3386C0 9.95582 0.21875 9.60035 0.574219 9.43629L1.44922 9.08082Z" fill="#91A5BA"/>
</svg>
