<svg width="14" height="15" viewBox="0 0 14 15" fill="none" xmlns="http://www.w3.org/2000/svg">
<path d="M11.8125 3.10156H11.7852C11.6484 2.96484 11.3477 2.80078 10.8828 2.63672C9.95312 2.30859 8.55859 2.0625 7 2.0625C5.41406 2.0625 4.01953 2.30859 3.08984 2.63672C2.625 2.80078 2.32422 2.96484 2.1875 3.10156V5.53516C2.54297 5.72656 3.03516 5.91797 3.66406 6.08203C4.59375 6.30078 5.74219 6.4375 7 6.4375C8.23047 6.4375 9.37891 6.30078 10.3086 6.08203C10.9375 5.91797 11.4297 5.72656 11.8125 5.53516V3.10156ZM11.8125 6.98438C11.4297 7.12109 11.0469 7.25781 10.6094 7.36719C9.57031 7.61328 8.3125 7.75 7 7.75C5.66016 7.75 4.40234 7.61328 3.36328 7.36719C2.92578 7.25781 2.54297 7.12109 2.1875 6.98438V9.03516C2.54297 9.22656 3.03516 9.41797 3.66406 9.58203C4.59375 9.80078 5.74219 9.9375 7 9.9375C8.23047 9.9375 9.37891 9.80078 10.3086 9.58203C10.9375 9.41797 11.4297 9.22656 11.8125 9.03516V6.98438ZM2.1875 12.3984V12.4258C2.35156 12.5352 2.625 12.7266 3.08984 12.8906C4.01953 13.2188 5.41406 13.4375 7 13.4375C8.55859 13.4375 9.95312 13.2188 10.8828 12.8906C11.3477 12.7266 11.6484 12.5352 11.7852 12.4258L11.8125 12.3984V10.4844C11.4297 10.6211 11.0469 10.7578 10.6094 10.8672C9.57031 11.1133 8.3125 11.25 7 11.25C5.66016 11.25 4.40234 11.1133 3.36328 10.8672C2.92578 10.7578 2.54297 10.6211 2.1875 10.4844V12.3984ZM11.8672 12.3438L11.8398 12.3711C11.8672 12.3438 11.8672 12.3438 11.8672 12.3438ZM2.13281 12.3438C2.10547 12.3438 2.13281 12.3438 2.13281 12.3438V12.3711C2.13281 12.3711 2.13281 12.3711 2.13281 12.3438ZM2.13281 3.18359C2.10547 3.15625 2.13281 3.15625 2.13281 3.15625C2.13281 3.18359 2.13281 3.18359 2.13281 3.18359C2.13281 3.18359 2.13281 3.18359 2.10547 3.18359C2.10547 3.18359 2.10547 3.18359 2.13281 3.18359ZM11.8672 3.15625V3.18359C11.8672 3.18359 11.8672 3.18359 11.8398 3.18359C11.8398 3.15625 11.8398 3.15625 11.8672 3.15625ZM13.125 12.5625C13.125 13.793 10.3633 14.75 7 14.75C3.60938 14.75 0.875 13.793 0.875 12.5625V2.9375C0.875 1.73438 3.60938 0.75 7 0.75C10.3633 0.75 13.125 1.73438 13.125 2.9375V12.5625Z" fill="#91A5BA"/>
</svg>
