<svg width="14" height="13" viewBox="0 0 14 13" fill="none" xmlns="http://www.w3.org/2000/svg">
<path d="M2.43388 11.3167C2.65263 11.5354 3.30888 11.7815 4.64873 11.3167C5.0042 11.2073 5.38701 11.0433 5.76982 10.8519C5.25029 10.4417 4.73076 10.0042 4.23857 9.51201C3.74638 9.01982 3.30888 8.50029 2.89873 7.98076C2.70732 8.36357 2.54326 8.74638 2.43388 9.10185C1.96904 10.4417 2.21513 11.0979 2.43388 11.3167ZM2.07842 6.75029C0.738572 4.5081 0.437791 2.34795 1.5042 1.28154C2.5706 0.215134 4.73076 0.515916 7.00029 1.85576C9.24248 0.515916 11.4026 0.215134 12.469 1.28154C13.5354 2.34795 13.2347 4.5081 11.8948 6.75029C13.2347 9.01982 13.5354 11.18 12.469 12.2464C11.4026 13.3128 9.24248 13.012 7.00029 11.6722C4.73076 13.012 2.5706 13.3128 1.5042 12.2464C0.437791 11.18 0.738572 9.01982 2.07842 6.75029ZM2.92607 5.54717C3.30888 5.02763 3.74638 4.5081 4.23857 4.01592C4.7581 3.52373 5.25029 3.08623 5.76982 2.67607C5.38701 2.48467 5.0042 2.3206 4.64873 2.18388C3.30888 1.74638 2.65263 1.99248 2.43388 2.21123C2.21513 2.42998 1.96904 3.05888 2.43388 4.39873C2.54326 4.78154 2.70732 5.16435 2.92607 5.54717ZM7.00029 3.41435C6.37138 3.85185 5.76982 4.37138 5.16826 4.9456C4.59404 5.54717 4.07451 6.14873 3.66435 6.75029C4.07451 7.3792 4.59404 7.98076 5.16826 8.58232C5.76982 9.15654 6.37138 9.67607 7.00029 10.0862C7.60185 9.67607 8.20342 9.15654 8.80498 8.58232C9.3792 7.98076 9.89873 7.3792 10.3362 6.75029C9.89873 6.14873 9.3792 5.54717 8.80498 4.9456C8.20342 4.37138 7.60185 3.85185 7.00029 3.41435ZM11.0745 5.54717C11.2659 5.16435 11.43 4.78154 11.5394 4.42607C12.0042 3.08623 11.7581 2.42998 11.5394 2.21123C11.3206 1.99248 10.6644 1.74638 9.32451 2.21123C8.96904 2.3206 8.58623 2.48467 8.20342 2.67607C8.72295 3.08623 9.24248 3.52373 9.73467 4.01592C10.2269 4.5081 10.6644 5.02763 11.0745 5.54717ZM11.0745 7.98076C10.6644 8.50029 10.2269 9.01982 9.73467 9.51201C9.24248 10.0042 8.72295 10.4417 8.20342 10.8519C8.58623 11.0433 8.96904 11.2073 9.32451 11.3167C10.6644 11.7815 11.3206 11.5354 11.5394 11.3167C11.7581 11.0979 12.0042 10.4417 11.5394 9.10185C11.43 8.74638 11.2659 8.36357 11.0745 7.98076ZM6.12529 6.75029C6.12529 6.28545 6.5081 5.87529 7.00029 5.87529C7.46513 5.87529 7.87529 6.28545 7.87529 6.75029C7.87529 7.24248 7.46513 7.62529 7.00029 7.62529C6.5081 7.62529 6.12529 7.24248 6.12529 6.75029Z" fill="#91A5BA"/>
</svg>
