<svg width="18" height="12" viewBox="0 0 18 12" fill="none" xmlns="http://www.w3.org/2000/svg">
<path d="M0.625 3.28809C0.625 1.6123 1.97852 0.237305 3.6543 0.237305C4.49219 0.237305 5.28711 0.602539 5.86719 1.2041L7.5 2.92285L9.11133 1.2041C9.69141 0.602539 10.4863 0.237305 11.3242 0.237305C13 0.237305 14.375 1.6123 14.375 3.28809V4.08301C12.7952 5.45801 12.7952 5.45801 11.3242 7.1123C10.4863 7.1123 9.69141 6.76855 9.11133 6.16699L7.5 4.42676L5.86719 6.16699C5.28711 6.76855 4.49219 7.1123 3.6543 7.1123C1.97852 7.1123 0.625 5.75879 0.625 4.08301V3.28809ZM6.79102 3.6748L5.11523 1.91309C4.72852 1.50488 4.21289 1.26855 3.6543 1.26855C2.53711 1.26855 1.65625 2.1709 1.65625 3.28809V4.08301C1.65625 5.2002 2.53711 6.08105 3.6543 6.08105C4.21289 6.08105 4.72852 5.86621 5.11523 5.45801L6.79102 3.6748ZM8.1875 3.6748L9.86328 5.45801C10.25 5.86621 10.7656 6.08105 11.3242 6.08105C12.4414 6.08105 13.3438 5.2002 13.3438 4.08301V3.28809C13.3438 2.1709 12.4414 1.26855 11.3242 1.26855C10.7871 1.26855 10.25 1.50488 9.86328 1.91309L8.20898 3.6748H8.1875Z" fill="#91A5BA"/>
<path fill-rule="evenodd" clip-rule="evenodd" d="M5.97477 1.10008L5.97555 1.10088L7.49889 2.7044L9.00151 1.10161L9.00296 1.10008C9.60899 0.471604 10.442 0.0874023 11.3238 0.0874023C13.0825 0.0874023 14.5246 1.52956 14.5246 3.28818V4.08311C14.5 5.5 15 4.5 11.3238 7.2624C10.4445 7.2624 9.61084 6.9016 9.00296 6.27121L9.00085 6.26902L7.49888 4.64685L5.97478 6.27122C5.3669 6.90161 4.5332 7.2624 3.65391 7.2624C1.89528 7.2624 0.474609 5.84173 0.474609 4.08311V3.28818C0.474609 1.53094 1.89391 0.0874023 3.65391 0.0874023C4.53575 0.0874023 5.36874 0.471604 5.97477 1.10008ZM7.49961 4.42686L9.11094 6.16709C9.69102 6.76865 10.4859 7.1124 11.3238 7.1124C12.9996 7.1124 12.8381 5.41135 14.3746 4.08311V3.28818C14.3746 1.6124 12.9996 0.237402 11.3238 0.237402C10.4859 0.237402 9.69102 0.602637 9.11094 1.2042L7.49961 2.92295L5.8668 1.2042C5.28672 0.602637 4.4918 0.237402 3.65391 0.237402C1.97813 0.237402 0.624609 1.6124 0.624609 3.28818V4.08311C0.624609 5.75889 1.97813 7.1124 3.65391 7.1124C4.4918 7.1124 5.28672 6.76865 5.8668 6.16709L7.49961 4.42686ZM5.11484 1.91318C4.72813 1.50498 4.2125 1.26865 3.65391 1.26865C2.53672 1.26865 1.65586 2.171 1.65586 3.28818V4.08311C1.65586 5.20029 2.53672 6.08115 3.65391 6.08115C4.2125 6.08115 4.72813 5.86631 5.11484 5.45811L6.79063 3.6749L5.11484 1.91318ZM6.5842 3.67553L5.00616 2.01657C4.64579 1.63617 4.16852 1.41865 3.65391 1.41865C2.62165 1.41865 1.80586 2.25174 1.80586 3.28818V4.08311C1.80586 5.11745 2.61956 5.93115 3.65391 5.93115C4.17239 5.93115 4.64821 5.73247 5.0058 5.3551L6.5842 3.67553ZM8.18711 3.6749H8.20859L9.86289 1.91318C10.2496 1.50498 10.7867 1.26865 11.3238 1.26865C12.441 1.26865 13.3434 2.171 13.3434 3.28818V4.08311C13.3434 5.20029 12.441 6.08115 11.3238 6.08115C10.7652 6.08115 10.2496 5.86631 9.86289 5.45811L8.18711 3.6749ZM8.40366 3.6863L9.97178 5.35494C10.3294 5.73228 10.8054 5.93115 11.3238 5.93115C12.3603 5.93115 13.1934 5.11536 13.1934 4.08311V3.28818C13.1934 2.25384 12.3582 1.41865 11.3238 1.41865C10.83 1.41865 10.3318 1.6365 9.97203 2.01609L8.40366 3.6863Z" fill="#91A5BA"/>
<path d="M13.5117 4.0625C14.9062 4.0625 16.1914 4.82914 16.9023 6.03121C17.6133 7.2606 17.6133 8.76656 16.9023 9.96863C16.1914 11.198 14.9062 11.9373 13.5117 11.9373C12.0898 11.9373 10.8047 11.198 10.0938 9.96863C9.38281 8.76656 9.38281 7.2606 10.0938 6.03121C10.8047 4.82914 12.0898 4.0625 13.5117 4.0625ZM13.9492 6.24995C13.9492 6.03139 13.7305 5.81246 13.5117 5.81246C13.2656 5.81246 13.0742 6.03139 13.0742 6.24995V7.56243H11.7617C11.5156 7.56243 11.3242 7.78136 11.3242 7.99992C11.3242 8.24579 11.5156 8.43741 11.7617 8.43741H13.0742V9.74988C13.0742 9.99576 13.2656 10.1874 13.5117 10.1874C13.7305 10.1874 13.9492 9.99576 13.9492 9.74988V8.43741H15.2617C15.4805 8.43741 15.6992 8.24579 15.6992 7.99992C15.6992 7.78136 15.4805 7.56243 15.2617 7.56243H13.9492V6.24995Z" fill="#91A5BA"/>
</svg>
