<svg width="12" height="15" viewBox="0 0 12 15" fill="none" xmlns="http://www.w3.org/2000/svg">
<path d="M1.40625 0.75H10.5938C10.9492 0.75 11.25 1.05078 11.25 1.40625C11.25 1.78906 10.9492 2.0625 10.5938 2.0625H10.375V2.58203C10.375 3.70312 9.9375 4.74219 9.14453 5.53516L6.90234 7.75L9.14453 9.99219C9.9375 10.7578 10.375 11.8242 10.375 12.918V13.4375H10.5938C10.9492 13.4375 11.25 13.7383 11.25 14.0938C11.25 14.4766 10.9492 14.75 10.5938 14.75H1.40625C1.02344 14.75 0.75 14.4766 0.75 14.0938C0.75 13.7383 1.02344 13.4375 1.40625 13.4375H1.625V12.918C1.625 11.8242 2.0625 10.7578 2.82812 9.99219L5.07031 7.75L2.82812 5.53516C2.0625 4.74219 1.625 3.70312 1.625 2.58203V2.0625H1.40625C1.02344 2.0625 0.75 1.78906 0.75 1.40625C0.75 1.05078 1.02344 0.75 1.40625 0.75ZM6 8.67969L3.75781 10.9219C3.23828 11.4414 2.9375 12.1797 2.9375 12.918V13.4375H9.0625V12.918C9.0625 12.1797 8.76172 11.4414 8.21484 10.9219L6 8.67969ZM6 6.82031V6.84766L8.21484 4.60547C8.76172 4.05859 9.0625 3.34766 9.0625 2.58203V2.0625H2.9375V2.58203C2.9375 3.34766 3.23828 4.05859 3.75781 4.60547L6 6.82031Z" fill="#91A5BA"/>
</svg>
