<svg width="14" height="13" viewBox="0 0 14 13" fill="none" xmlns="http://www.w3.org/2000/svg">
<path d="M0 1.77344C0 1.14453 0.492188 0.625 1.12109 0.625H12.8516C13.4805 0.625 14 1.14453 14 1.77344C14 2.04688 13.8906 2.29297 13.7266 2.48438L9.1875 8.08984V12C9.1875 12.4922 8.77734 12.875 8.28516 12.875C8.09375 12.875 7.90234 12.8203 7.73828 12.6836L5.22266 10.6875C4.94922 10.4688 4.8125 10.168 4.8125 9.83984V8.08984L0.246094 2.48438C0.0820312 2.29297 0 2.04688 0 1.77344ZM1.50391 1.9375L5.96094 7.43359C6.07031 7.57031 6.125 7.70703 6.125 7.84375V9.73047L7.875 11.125V7.84375C7.875 7.70703 7.90234 7.57031 8.01172 7.43359L12.4961 1.9375H1.50391Z" fill="#91A5BA"/>
</svg>
