<svg width="18" height="10" viewBox="0 0 18 10" fill="none" xmlns="http://www.w3.org/2000/svg">
<path d="M0.25 4.25781C0.25 2.125 1.97266 0.375 4.10547 0.375C5.17188 0.375 6.18359 0.839844 6.92188 1.60547L9 3.79297L11.0508 1.60547C11.7891 0.839844 12.8008 0.375 13.8672 0.375C16 0.375 17.75 2.125 17.75 4.25781V5.26953C17.75 7.40234 16 9.125 13.8672 9.125C12.8008 9.125 11.7891 8.6875 11.0508 7.92188L9 5.70703L6.92188 7.92188C6.18359 8.6875 5.17188 9.125 4.10547 9.125C1.97266 9.125 0.25 7.40234 0.25 5.26953V4.25781ZM8.09766 4.75L5.96484 2.50781C5.47266 1.98828 4.81641 1.6875 4.10547 1.6875C2.68359 1.6875 1.5625 2.83594 1.5625 4.25781V5.26953C1.5625 6.69141 2.68359 7.8125 4.10547 7.8125C4.81641 7.8125 5.47266 7.53906 5.96484 7.01953L8.09766 4.75ZM9.875 4.75L12.0078 7.01953C12.5 7.53906 13.1562 7.8125 13.8672 7.8125C15.2891 7.8125 16.4375 6.69141 16.4375 5.26953V4.25781C16.4375 2.83594 15.2891 1.6875 13.8672 1.6875C13.1836 1.6875 12.5 1.98828 12.0078 2.50781L9.90234 4.75H9.875Z" fill="#91A5BA"/>
</svg>
