<svg width="14" height="13" viewBox="0 0 14 13" fill="none" xmlns="http://www.w3.org/2000/svg">
<path d="M10.0898 1.96484L5.71484 6.33984C5.44141 6.61328 5.03125 6.61328 4.78516 6.33984L2.59766 4.15234C2.32422 3.90625 2.32422 3.49609 2.59766 3.22266C2.84375 2.97656 3.25391 2.97656 3.52734 3.22266L5.25 4.97266L9.16016 1.0625C9.40625 0.789062 9.81641 0.789062 10.0898 1.0625C10.3359 1.30859 10.3359 1.71875 10.0898 1.96484ZM12.9336 5.24609L5.6875 12.4648C5.44141 12.7383 5.03125 12.7383 4.78516 12.4648L1.06641 8.74609C0.792969 8.5 0.792969 8.08984 1.06641 7.81641C1.3125 7.57031 1.72266 7.57031 1.99609 7.81641L5.25 11.0977L12.0039 4.34375C12.25 4.07031 12.6602 4.07031 12.9336 4.34375C13.1797 4.58984 13.1797 5 12.9336 5.24609Z" fill="#91A5BA"/>
</svg>
