<svg width="14" height="15" viewBox="0 0 14 15" fill="none" xmlns="http://www.w3.org/2000/svg">
<path d="M5.25 1.40625C5.25 1.05078 5.52344 0.75 5.90625 0.75C10.3633 0.75 14 4.38672 14 8.84375C14 9.22656 13.6992 9.5 13.3438 9.5C12.9609 9.5 12.6875 9.22656 12.6875 8.84375C12.6875 5.09766 9.65234 2.0625 5.90625 2.0625C5.52344 2.0625 5.25 1.78906 5.25 1.40625ZM5.90625 3.59375C8.80469 3.59375 11.1562 5.94531 11.1562 8.84375C11.1562 9.22656 10.8555 9.5 10.5 9.5C10.1172 9.5 9.84375 9.22656 9.84375 8.84375C9.84375 6.68359 8.06641 4.90625 5.90625 4.90625C5.52344 4.90625 5.25 4.63281 5.25 4.25C5.25 3.89453 5.52344 3.59375 5.90625 3.59375ZM5.71484 9.96484L8.55859 12.8086C8.91406 13.1914 8.88672 13.793 8.42188 14.0664C7.60156 14.5039 6.67188 14.75 5.6875 14.75C2.54297 14.75 0 12.207 0 9.0625C0 8.07812 0.246094 7.14844 0.683594 6.32812C0.957031 5.86328 1.55859 5.83594 1.94141 6.19141L4.78516 9.0625L5.87891 7.96875C6.125 7.69531 6.53516 7.69531 6.80859 7.96875C7.05469 8.21484 7.05469 8.625 6.80859 8.87109L5.71484 9.96484ZM1.3125 9.0625C1.3125 11.4961 3.25391 13.4375 5.6875 13.4375C6.17969 13.4375 6.64453 13.3555 7.08203 13.2188L1.53125 7.66797C1.39453 8.10547 1.3125 8.57031 1.3125 9.0625Z" fill="#91A5BA"/>
</svg>
