<svg width="14" height="13" viewBox="0 0 14 13" fill="none" xmlns="http://www.w3.org/2000/svg">
<path d="M2.625 1.9375C2.37891 1.9375 2.1875 2.15625 2.1875 2.375V11.125C2.1875 11.3711 2.37891 11.5625 2.625 11.5625H11.375C11.5938 11.5625 11.8125 11.3711 11.8125 11.125V2.375C11.8125 2.15625 11.5938 1.9375 11.375 1.9375H2.625ZM0.875 2.375C0.875 1.41797 1.64062 0.625 2.625 0.625H11.375C12.332 0.625 13.125 1.41797 13.125 2.375V11.125C13.125 12.1094 12.332 12.875 11.375 12.875H2.625C1.64062 12.875 0.875 12.1094 0.875 11.125V2.375ZM10.0898 5.46484L6.58984 8.96484C6.31641 9.23828 5.90625 9.23828 5.66016 8.96484L3.91016 7.21484C3.63672 6.96875 3.63672 6.55859 3.91016 6.3125C4.15625 6.03906 4.56641 6.03906 4.83984 6.3125L6.125 7.59766L9.16016 4.53516C9.40625 4.28906 9.81641 4.28906 10.0625 4.53516C10.3359 4.80859 10.3359 5.21875 10.0625 5.46484H10.0898Z" fill="#91A5BA"/>
</svg>
