<svg width="13" height="13" viewBox="0 0 13 13" fill="none" xmlns="http://www.w3.org/2000/svg">
<path d="M11.1328 1.54297H2.38281C2.13672 1.54297 1.94531 1.76172 1.94531 1.98047V10.7305C1.94531 10.9766 2.13672 11.168 2.38281 11.168H8.50781V8.98047C8.50781 8.51562 8.89062 8.10547 9.38281 8.10547H11.5703V1.98047C11.5703 1.76172 11.3516 1.54297 11.1328 1.54297ZM2.38281 12.4805C1.39844 12.4805 0.632812 11.7148 0.632812 10.7305V1.98047C0.632812 1.02344 1.39844 0.230469 2.38281 0.230469H11.1328C12.0898 0.230469 12.8828 1.02344 12.8828 1.98047V8.26953C12.8828 8.73438 12.6914 9.17188 12.3633 9.5L9.875 11.9883C9.54688 12.3164 9.10938 12.4805 8.64453 12.4805H2.38281ZM4.13281 9.19922C4.13281 9.58203 3.83203 9.85547 3.47656 9.85547C3.09375 9.85547 2.82031 9.58203 2.82031 9.19922C2.82031 8.84375 3.09375 8.54297 3.47656 8.54297C3.83203 8.54297 4.13281 8.84375 4.13281 9.19922ZM3.47656 2.85547C3.83203 2.85547 4.13281 3.15625 4.13281 3.51172C4.13281 3.89453 3.83203 4.16797 3.47656 4.16797C3.09375 4.16797 2.82031 3.89453 2.82031 3.51172C2.82031 3.15625 3.09375 2.85547 3.47656 2.85547ZM4.13281 6.35547C4.13281 6.73828 3.83203 7.01172 3.47656 7.01172C3.09375 7.01172 2.82031 6.73828 2.82031 6.35547C2.82031 6 3.09375 5.69922 3.47656 5.69922C3.83203 5.69922 4.13281 6 4.13281 6.35547Z" fill="#91A5BA"/>
</svg>
