<svg width="14" height="11" viewBox="0 0 14 11" fill="none" xmlns="http://www.w3.org/2000/svg">
<path d="M1.75 1.8125C1.50391 1.8125 1.3125 2.03125 1.3125 2.25V2.87891L6.01562 6.73438C6.58984 7.19922 7.38281 7.19922 7.95703 6.73438L12.6875 2.87891V2.25C12.6875 2.03125 12.4688 1.8125 12.25 1.8125H1.75ZM1.3125 4.57422V9.25C1.3125 9.49609 1.50391 9.6875 1.75 9.6875H12.25C12.4688 9.6875 12.6875 9.49609 12.6875 9.25V4.57422L8.80469 7.74609C7.73828 8.62109 6.23438 8.62109 5.19531 7.74609L1.3125 4.57422ZM0 2.25C0 1.29297 0.765625 0.5 1.75 0.5H12.25C13.207 0.5 14 1.29297 14 2.25V9.25C14 10.2344 13.207 11 12.25 11H1.75C0.765625 11 0 10.2344 0 9.25V2.25Z" fill="#91A5BA"/>
</svg>
