<svg width="14" height="15" viewBox="0 0 14 15" fill="none" xmlns="http://www.w3.org/2000/svg">
<path d="M7.0002 0.75C7.46504 0.75 7.8752 1.16016 7.8752 1.625V2.11719C9.84395 2.44531 11.3752 4.16797 11.3752 6.21875V7.14844C11.3752 8.37891 11.7854 9.58203 12.551 10.5664L12.9611 11.0586C13.1252 11.2773 13.1525 11.5508 13.0432 11.7695C12.9338 11.9883 12.715 12.125 12.4689 12.125H1.53145C1.25801 12.125 1.03926 11.9883 0.929883 11.7695C0.820508 11.5508 0.847852 11.2773 1.01191 11.0586L1.42207 10.5664C2.1877 9.58203 2.6252 8.37891 2.6252 7.14844V6.21875C2.6252 4.16797 4.1291 2.44531 6.1252 2.11719V1.625C6.1252 1.16016 6.50801 0.75 7.0002 0.75ZM7.0002 3.375H6.78145C5.19551 3.375 3.9377 4.66016 3.9377 6.21875V7.14844C3.9377 8.46094 3.55488 9.71875 2.84395 10.8125H11.1291C10.4182 9.71875 10.0627 8.46094 10.0627 7.14844V6.21875C10.0627 4.66016 8.77754 3.375 7.21895 3.375H7.0002ZM8.7502 13C8.7502 13.4648 8.55879 13.9297 8.23066 14.2578C7.90254 14.5859 7.46504 14.75 7.0002 14.75C6.53535 14.75 6.07051 14.5859 5.74238 14.2578C5.41426 13.9297 5.2502 13.4648 5.2502 13H7.0002H8.7502Z" fill="#91A5BA"/>
</svg>
