<svg width="14" height="13" viewBox="0 0 14 13" fill="none" xmlns="http://www.w3.org/2000/svg">
<path d="M1.3125 8.9375V11.125C1.3125 11.3711 1.50391 11.5625 1.75 11.5625H12.25C12.4688 11.5625 12.6875 11.3711 12.6875 11.125V8.9375H10.4453L9.87109 10.0859C9.70703 10.4688 9.32422 10.6875 8.91406 10.6875H5.05859C4.64844 10.6875 4.26562 10.4688 4.10156 10.0859L3.52734 8.9375H1.3125ZM12.4141 7.625L11.0742 2.29297C11.0195 2.07422 10.8555 1.9375 10.6641 1.9375H3.33594C3.11719 1.9375 2.95312 2.07422 2.89844 2.29297L1.55859 7.625H3.66406C4.07422 7.625 4.45703 7.87109 4.62109 8.25391L5.19531 9.375H8.77734L9.35156 8.25391C9.51562 7.87109 9.89844 7.625 10.3086 7.625H12.4141ZM0 8.71875C0 8.58203 0 8.44531 0.0273438 8.30859L1.61328 1.96484C1.83203 1.17188 2.51562 0.625 3.33594 0.625H10.6641C11.457 0.625 12.168 1.17188 12.3594 1.96484L13.9453 8.30859C13.9727 8.44531 14 8.58203 14 8.71875V11.125C14 12.1094 13.207 12.875 12.25 12.875H1.75C0.765625 12.875 0 12.1094 0 11.125V8.71875Z" fill="#91A5BA"/>
</svg>
