<svg width="18" height="11" viewBox="0 0 18 11" fill="none" xmlns="http://www.w3.org/2000/svg">
<path d="M2 1.8125C1.75391 1.8125 1.5625 2.03125 1.5625 2.25V9.25C1.5625 9.49609 1.75391 9.6875 2 9.6875H16C16.2188 9.6875 16.4375 9.49609 16.4375 9.25V2.25C16.4375 2.03125 16.2188 1.8125 16 1.8125H2ZM0.25 2.25C0.25 1.29297 1.01562 0.5 2 0.5H16C16.957 0.5 17.75 1.29297 17.75 2.25V9.25C17.75 10.2344 16.957 11 16 11H2C1.01562 11 0.25 10.2344 0.25 9.25V2.25ZM4.1875 3.78125V7.71875C4.1875 8.10156 3.88672 8.375 3.53125 8.375C3.14844 8.375 2.875 8.10156 2.875 7.71875V3.78125C2.875 3.42578 3.14844 3.125 3.53125 3.125C3.88672 3.125 4.1875 3.42578 4.1875 3.78125Z" fill="#91A5BA"/>
</svg>
