<svg width="14" height="15" viewBox="0 0 14 15" fill="none" xmlns="http://www.w3.org/2000/svg">
<path d="M3.69141 14.3398L1.06641 11.7148C0.792969 11.4688 0.792969 11.0586 1.06641 10.7852L3.69141 8.1875C3.9375 7.91406 4.34766 7.91406 4.59375 8.1875C4.86719 8.43359 4.86719 8.84375 4.59375 9.08984L3.08984 10.5938H12.4688C12.8242 10.5938 13.125 10.8945 13.125 11.25C13.125 11.6328 12.8242 11.9062 12.4688 11.9062L3.08984 11.9336L4.59375 13.4375C4.86719 13.6836 4.86719 14.0938 4.59375 14.3398C4.34766 14.6133 3.9375 14.6133 3.69141 14.3398ZM12.9336 4.71484L10.3086 7.33984C10.0352 7.61328 9.625 7.61328 9.37891 7.33984C9.10547 7.09375 9.10547 6.68359 9.37891 6.41016L10.8828 4.90625H1.53125C1.14844 4.90625 0.875 4.63281 0.875 4.25C0.875 3.89453 1.14844 3.59375 1.53125 3.59375H10.8828L9.37891 2.08984C9.10547 1.84375 9.10547 1.43359 9.37891 1.16016C9.625 0.914062 10.0352 0.914062 10.3086 1.16016L12.9336 3.8125C13.1797 4.05859 13.1797 4.46875 12.9336 4.71484Z" fill="#91A5BA"/>
</svg>
