<svg width="15" height="15" viewBox="0 0 15 15" fill="none" xmlns="http://www.w3.org/2000/svg">
<path d="M9.39844 5.20508C8.93359 4.9043 8.35938 4.71289 7.75781 4.71289C6.0625 4.71289 4.69531 6.10742 4.69531 7.77539C4.69531 9.4707 6.0625 10.8379 7.75781 10.8379C9.42578 10.8379 10.8203 9.4707 10.8203 7.77539H12.1328C12.1328 9.93555 10.5742 11.7129 8.55078 12.0957C8.35938 11.877 8.05859 11.7129 7.75781 11.7129C7.42969 11.7129 7.12891 11.877 6.9375 12.0957C5.16016 11.7676 3.76562 10.373 3.4375 8.5957C3.65625 8.4043 3.82031 8.10352 3.82031 7.77539C3.82031 7.47461 3.65625 7.17383 3.4375 6.98242C3.82031 4.95898 5.59766 3.40039 7.75781 3.40039C8.71484 3.40039 9.61719 3.72852 10.3281 4.27539L11.2852 3.31836C10.3008 2.55273 9.07031 2.08789 7.75781 2.08789C4.91406 2.08789 2.5625 4.16602 2.125 6.87305C1.82422 7.06445 1.63281 7.39258 1.63281 7.77539C1.63281 8.18555 1.82422 8.51367 2.125 8.70508C2.53516 11.1113 4.42188 12.998 6.82812 13.4082C7.01953 13.709 7.34766 13.9004 7.75781 13.9004C8.14062 13.9004 8.46875 13.709 8.66016 13.4082C11.3672 12.9707 13.4453 10.6191 13.4453 7.77539H14.7578C14.7578 11.6582 11.6133 14.7754 7.75781 14.7754C3.875 14.7754 0.757812 11.6582 0.757812 7.77539C0.757812 3.91992 3.875 0.775391 7.75781 0.775391C9.45312 0.775391 10.9844 1.4043 12.2148 2.38867L13.418 1.18555C13.6641 0.939453 14.0742 0.939453 14.3203 1.18555C14.5938 1.45898 14.5938 1.86914 14.3203 2.11523L9.34375 7.0918C9.45312 7.31055 9.50781 7.5293 9.50781 7.77539C9.50781 8.75977 8.71484 9.52539 7.75781 9.52539C6.77344 9.52539 6.00781 8.75977 6.00781 7.77539C6.00781 6.81836 6.77344 6.02539 7.75781 6.02539C7.97656 6.02539 8.22266 6.08008 8.44141 6.16211L9.39844 5.20508Z" fill="#91A5BA"/>
</svg>
