<svg width="14" height="15" viewBox="0 0 14 15" fill="none" xmlns="http://www.w3.org/2000/svg">
<path d="M5.25 0.75H6.125C6.58984 0.75 7 1.16016 7 1.625C7.46484 1.625 7.875 2.03516 7.875 2.5V8.625C7.875 9.11719 7.46484 9.5 7 9.5C7 9.99219 6.58984 10.375 6.125 10.375H5.25C4.75781 10.375 4.375 9.99219 4.375 9.5C3.88281 9.5 3.5 9.11719 3.5 8.625V2.5C3.5 2.03516 3.88281 1.625 4.375 1.625C4.375 1.16016 4.75781 0.75 5.25 0.75ZM4.8125 8.1875H6.5625V2.9375H4.8125V8.1875ZM0.65625 13.4375H8.75C10.9102 13.4375 12.6875 11.6875 12.6875 9.5C12.6875 7.33984 10.9102 5.5625 8.75 5.5625V4.25C11.6484 4.25 14 6.60156 14 9.5C14 11.0859 13.2891 12.4805 12.2227 13.4375H13.3438C13.6992 13.4375 14 13.7383 14 14.0938C14 14.4766 13.6992 14.75 13.3438 14.75H8.75H0.65625C0.273438 14.75 0 14.4766 0 14.0938C0 13.7383 0.273438 13.4375 0.65625 13.4375ZM2.625 11.9062C2.625 11.5508 2.89844 11.25 3.28125 11.25H8.09375C8.44922 11.25 8.75 11.5508 8.75 11.9062C8.75 12.2891 8.44922 12.5625 8.09375 12.5625H3.28125C2.89844 12.5625 2.625 12.2891 2.625 11.9062Z" fill="#91A5BA"/>
</svg>
