<svg width="14" height="15" viewBox="0 0 14 15" fill="none" xmlns="http://www.w3.org/2000/svg">
<path d="M8.55879 1.87109L7.24629 3.18359C6.97286 3.45703 6.5627 3.45703 6.31661 3.18359C6.04317 2.9375 6.04317 2.52734 6.31661 2.28125L7.62911 0.941406C7.8752 0.695312 8.28536 0.695312 8.53145 0.941406C8.80489 1.21484 8.80489 1.625 8.53145 1.87109H8.55879ZM3.52754 11.3867L3.28145 12.8906L4.62129 12.1797C5.00411 11.9883 5.46895 11.9883 5.85176 12.1797L7.19161 12.8906L6.94551 11.3867C6.86348 10.9492 7.0002 10.5391 7.32832 10.2383L8.42207 9.14453L6.89082 8.92578C6.48067 8.87109 6.09786 8.59766 5.90645 8.21484L5.22286 6.84766L4.56661 8.21484C4.3752 8.59766 3.99239 8.87109 3.58223 8.92578L2.05098 9.14453L3.14473 10.2383C3.47286 10.5391 3.60957 10.9766 3.52754 11.3867ZM3.39082 7.64062L4.64864 5.07031C4.89473 4.57812 5.57832 4.57812 5.82442 5.07031L7.08223 7.64062L9.92598 8.05078C10.4729 8.13281 10.6643 8.78906 10.2814 9.17188L8.23067 11.168L8.72286 13.9844C8.80489 14.5312 8.25801 14.9414 7.76582 14.6953L5.2502 13.3555L2.70723 14.6953C2.21504 14.9414 1.66817 14.5312 1.7502 13.9844L2.24239 11.168L0.191606 9.17188C-0.191206 8.78906 0.000199795 8.13281 0.547075 8.05078L3.39082 7.64062ZM13.8088 6.19141C14.0549 6.46484 14.0549 6.875 13.8088 7.12109L12.4963 8.43359C12.2229 8.70703 11.8127 8.70703 11.5666 8.43359C11.2932 8.1875 11.2932 7.77734 11.5666 7.50391L12.8791 6.19141C13.1252 5.94531 13.5354 5.94531 13.8088 6.19141ZM13.8088 1.87109L9.87129 5.80859C9.59786 6.08203 9.1877 6.08203 8.94161 5.80859C8.66817 5.5625 8.66817 5.15234 8.94161 4.90625L12.8791 0.941406C13.1252 0.695312 13.5354 0.695312 13.7814 0.941406C14.0549 1.21484 14.0549 1.625 13.7814 1.87109H13.8088Z" fill="#91A5BA"/>
</svg>
