<svg width="14" height="15" viewBox="0 0 14 15" fill="none" xmlns="http://www.w3.org/2000/svg">
<path d="M4.8125 3.8125H3.0625V5.5625C3.0625 5.91797 2.92578 6.24609 2.67969 6.49219L1.42188 7.75L2.65234 9.00781C2.89844 9.25391 3.0625 9.58203 3.0625 9.9375V11.6875H4.83984C5.16797 11.6875 5.49609 11.8516 5.74219 12.0977L7 13.3281L8.23047 12.0977C8.47656 11.8516 8.80469 11.6875 9.16016 11.6875H10.9375V9.9375C10.9375 9.58203 11.0742 9.25391 11.3203 9.00781L12.5508 7.75L11.3203 6.49219C11.0742 6.24609 10.9375 5.91797 10.9375 5.58984V3.83984H9.1875C8.83203 3.83984 8.50391 3.67578 8.25781 3.42969L7 2.17188L5.71484 3.42969C5.46875 3.67578 5.14062 3.8125 4.8125 3.8125ZM7.90234 1.24219L9.1875 2.5H10.9375C11.6484 2.5 12.25 3.10156 12.25 3.8125V5.5625L13.4805 6.82031C14 7.33984 14 8.16016 13.4805 8.67969L12.25 9.9375V11.6875C12.25 12.4258 11.6484 13 10.9375 13H9.16016L7.90234 14.2578C7.41016 14.75 6.5625 14.75 6.07031 14.2578L4.8125 13H3.0625C2.32422 13 1.75 12.4258 1.75 11.6875V9.9375L0.492188 8.67969C-0.0273438 8.16016 -0.0273438 7.33984 0.492188 6.82031L1.75 5.5625V3.8125C1.75 3.10156 2.32422 2.5 3.0625 2.5H4.8125L6.07031 1.24219C6.5625 0.75 7.41016 0.75 7.90234 1.24219ZM4.62109 5.28906C4.83984 4.66016 5.41406 4.25 6.07031 4.25H7.65625C8.61328 4.25 9.37891 5.04297 9.37891 6C9.37891 6.60156 9.05078 7.17578 8.53125 7.47656L7.62891 7.99609C7.62891 8.35156 7.35547 8.625 6.97266 8.625C6.61719 8.625 6.31641 8.35156 6.31641 7.96875V7.61328C6.31641 7.36719 6.45312 7.14844 6.67188 7.03906L7.875 6.35547C8.01172 6.27344 8.06641 6.13672 8.06641 6C8.06641 5.75391 7.90234 5.5625 7.65625 5.5625H6.07031C5.98828 5.5625 5.90625 5.64453 5.87891 5.72656L5.85156 5.75391C5.74219 6.08203 5.35938 6.27344 5.03125 6.16406C4.67578 6.02734 4.51172 5.64453 4.62109 5.31641V5.28906ZM7.875 10.375C7.875 10.8672 7.46484 11.25 7 11.25C6.50781 11.25 6.125 10.8672 6.125 10.375C6.125 9.91016 6.50781 9.5 7 9.5C7.46484 9.5 7.875 9.91016 7.875 10.375Z" fill="#91A5BA"/>
</svg>
