<svg width="15" height="15" viewBox="0 0 15 15" fill="none" xmlns="http://www.w3.org/2000/svg">
<path d="M11.0623 7.99598C13.5779 6.30067 13.8514 3.86708 13.6053 2.14442C11.8826 1.89833 9.44901 2.17177 7.72636 4.68739C6.90604 5.89052 5.86698 8.18739 5.29276 9.4452L6.24979 10.4022C7.53495 9.8827 9.83183 8.84364 11.0623 7.99598ZM4.22636 8.62489H1.65604C1.40995 8.62489 1.1912 8.51552 1.08183 8.29677C0.945107 8.10536 0.972451 7.85927 1.08183 7.64052L2.5037 5.23427C2.85917 4.6327 3.51542 4.24989 4.19901 4.24989H6.4412C6.52323 4.14052 6.57792 4.05848 6.65995 3.94911C8.90214 0.640516 12.2381 0.53114 14.2068 0.913953C14.535 0.96864 14.781 1.21473 14.8357 1.54286C15.2185 3.51161 15.1092 6.84755 11.8006 9.08973C11.6912 9.17177 11.6092 9.22645 11.4998 9.30848V11.5507C11.4998 12.2343 11.117 12.8905 10.5154 13.246L8.10917 14.6679C7.89042 14.8046 7.64433 14.8046 7.45292 14.6679C7.23417 14.5585 7.12479 14.3397 7.12479 14.121V11.4686C6.8787 11.578 6.65995 11.66 6.49589 11.7421C6.16776 11.8788 5.78495 11.7968 5.53886 11.5507L4.14433 10.1835C3.89823 9.91005 3.8162 9.55458 3.98026 9.22645C4.03495 9.06239 4.11698 8.84364 4.22636 8.62489ZM12.156 4.68739C12.156 5.09755 11.9373 5.45302 11.6092 5.64442C11.2537 5.83583 10.8435 5.83583 10.5154 5.64442C10.16 5.45302 9.96854 5.09755 9.96854 4.68739C9.96854 4.30458 10.16 3.94911 10.5154 3.7577C10.8435 3.5663 11.2537 3.5663 11.6092 3.7577C11.9373 3.94911 12.156 4.30458 12.156 4.68739Z" fill="#91A5BA"/>
</svg>
