<svg width="15" height="12" viewBox="0 0 15 12" fill="none" xmlns="http://www.w3.org/2000/svg">
<path d="M1.75 10.1859H8.76562C9.09375 10.705 9.50391 11.1432 9.99609 11.4984C9.91406 11.4984 9.83203 11.4984 9.75 11.4984H1.75C0.765625 11.4984 0 10.7319 0 9.74841V2.24857C0 1.29238 0.765625 0.498607 1.75 0.498607H7.26172C7.72656 0.498607 12.7974 0.485367 13.25 0.487547H12.7327C13.8021 0.638396 14.05 1.48795 14.05 1.99856V3.20882C13.5051 2.95647 13.3498 2.96294 12.7363 2.98748L12.7327 1.81108H1.75C1.50391 1.81108 1.3125 2.03001 1.3125 2.24857V9.74841C1.3125 9.99429 1.50391 10.1859 1.75 10.1859Z" fill="#91A5BA"/>
<path d="M1.75 10.1859H8.76562C9.09375 10.705 9.50391 11.1432 9.99609 11.4984C9.91406 11.4984 9.83203 11.4984 9.75 11.4984H1.75C0.765625 11.4984 0 10.7319 0 9.74841V2.24857C0 1.29238 0.765625 0.498607 1.75 0.498607H7.26172C7.72656 0.498607 12.7974 0.485367 13.25 0.487547H12.7327C13.8021 0.638396 14.05 1.48795 14.05 1.99856V3.20882C13.5051 2.95647 13.3498 2.96294 12.7363 2.98748L12.7327 1.81108H1.75C1.50391 1.81108 1.3125 2.03001 1.3125 2.24857V9.74841C1.3125 9.99429 1.50391 10.1859 1.75 10.1859Z" fill="#91A5BA"/>
<path d="M12.3004 1.81424H5.28477C4.95664 1.29517 4.54648 0.856925 4.0543 0.501769C4.13633 0.501769 4.21836 0.501769 4.30039 0.501769H12.3004C13.2848 0.501769 14.0504 1.26822 14.0504 2.25173V9.75158C14.0504 10.7078 13.2848 11.5015 12.3004 11.5015H6.78867C6.32383 11.5015 1.25301 11.5148 0.80039 11.5126H1.31765C0.248298 11.3617 0.000391006 10.5122 0.000391006 10.0016V8.79132C0.545266 9.04368 0.70056 9.03721 1.31406 9.01266L1.31765 10.1891H12.3004C12.5465 10.1891 12.7379 9.97013 12.7379 9.75158V2.25173C12.7379 2.00585 12.5465 1.81424 12.3004 1.81424Z" fill="#91A5BA"/>
<path d="M12.3004 1.81424H5.28477C4.95664 1.29517 4.54648 0.856925 4.0543 0.501769C4.13633 0.501769 4.21836 0.501769 4.30039 0.501769H12.3004C13.2848 0.501769 14.0504 1.26822 14.0504 2.25173V9.75158C14.0504 10.7078 13.2848 11.5015 12.3004 11.5015H6.78867C6.32383 11.5015 1.25301 11.5148 0.80039 11.5126H1.31765C0.248298 11.3617 0.000391006 10.5122 0.000391006 10.0016V8.79132C0.545266 9.04368 0.70056 9.03721 1.31406 9.01266L1.31765 10.1891H12.3004C12.5465 10.1891 12.7379 9.97013 12.7379 9.75158V2.25173C12.7379 2.00585 12.5465 1.81424 12.3004 1.81424Z" fill="#91A5BA"/>
</svg>
