<svg width="16" height="13" viewBox="0 0 16 13" fill="none" xmlns="http://www.w3.org/2000/svg">
<path fill-rule="evenodd" clip-rule="evenodd" d="M14.0693 8.6709H12.7412C12.5225 8.6709 12.3193 8.76465 12.1631 8.93652L11.2412 9.99902V6.15527L14.0693 8.6709ZM11.793 8.6001L11.7412 8.65981V7.26921L12.7549 8.1709H12.7412C12.3711 8.1709 12.0367 8.33202 11.793 8.6001Z" fill="#91A5BA"/>
<path fill-rule="evenodd" clip-rule="evenodd" d="M9.99121 10.4443H2.80371C1.25041 10.4443 -0.00878906 9.10119 -0.00878906 7.44434V3.44434C-0.00878906 1.78748 1.25041 0.444336 2.80371 0.444336H12.1787C13.732 0.444336 14.9912 1.78748 14.9912 3.44434V7.44434C14.9912 7.56664 14.9843 7.68723 14.971 7.80571L15.6911 8.44695C15.8717 8.59726 15.9912 8.82591 15.9912 9.07715C15.9912 9.55642 15.6111 9.93652 15.1318 9.93652H13.9337L14.52 11.1887C14.7234 11.6051 14.5704 12.1557 14.1054 12.3601C13.6891 12.5577 13.1428 12.4024 12.9411 11.9378L12.3329 10.6404L11.4672 11.6339C11.2845 11.8549 11.0308 11.9209 10.835 11.9209C10.615 11.9209 10.3973 11.8427 10.2334 11.6787C10.0694 11.5148 9.99121 11.2971 9.99121 11.0771V10.4443ZM2.80371 1.44434H12.1787C13.2142 1.44434 14.0537 2.33977 14.0537 3.44434V6.98884L11.4018 4.62726L11.385 4.61465C11.2884 4.54225 11.088 4.4209 10.8506 4.4209C10.344 4.4209 9.99121 4.84476 9.99121 5.2959V9.44434H2.80371C1.76818 9.44434 0.928711 8.54891 0.928711 7.44434V3.44434C0.928711 2.33977 1.76818 1.44434 2.80371 1.44434ZM10.4912 5.2959V11.0771C10.4912 11.2803 10.6318 11.4209 10.835 11.4209C10.9287 11.4209 11.0225 11.3896 11.085 11.3115L12.46 9.7334L13.3975 11.7334C13.4756 11.9209 13.71 11.999 13.8975 11.9053C14.085 11.8271 14.1631 11.5928 14.0693 11.4053L13.1475 9.43652H15.1318C15.335 9.43652 15.4912 9.28027 15.4912 9.07715C15.4912 8.9834 15.4443 8.88965 15.3662 8.82715L11.085 5.01465C11.0225 4.96777 10.9287 4.9209 10.8506 4.9209C10.6475 4.9209 10.4912 5.09277 10.4912 5.2959Z" fill="#91A5BA"/>
<path d="M10.335 5.08691C10.335 4.87109 10.501 4.68848 10.7168 4.68848C10.7998 4.68848 10.8994 4.73828 10.9658 4.78809L15.5146 8.83887C15.5977 8.90527 15.6475 9.00488 15.6475 9.10449C15.6475 9.32031 15.4814 9.46973 15.2656 9.46973H13.3066L14.2529 11.3623C14.3857 11.6279 14.2861 11.9434 14.0205 12.0762C13.7549 12.209 13.4395 12.1094 13.3066 11.8438L12.3438 9.90137L10.9658 11.4785C10.8994 11.5615 10.7998 11.5947 10.7002 11.5947C10.4844 11.5947 10.335 11.4453 10.335 11.2295V5.08691Z" fill="#91A5BA"/>
</svg>
