<svg width="14" height="15" viewBox="0 0 14 15" fill="none" xmlns="http://www.w3.org/2000/svg">
<path d="M7.05469 2.14453C7.02734 2.11719 6.97266 2.11719 6.91797 2.14453L1.72266 4.11328L7 6.19141L12.25 4.11328L7.05469 2.14453ZM1.3125 11.0859C1.3125 11.1953 1.36719 11.2773 1.44922 11.3047L6.34375 13.1641V7.33984L1.3125 5.37109V11.0859ZM7.65625 13.1641L12.5234 11.3047C12.6055 11.2773 12.6875 11.1953 12.6875 11.0859V5.37109L7.65625 7.33984V13.1641ZM6.45312 0.914062C6.78125 0.777344 7.19141 0.777344 7.51953 0.914062L12.9883 2.99219C13.5898 3.21094 14 3.78516 14 4.44141V11.0859C14 11.7422 13.5898 12.2891 12.9883 12.5352L7.51953 14.6133C7.19141 14.75 6.80859 14.75 6.45312 14.6133L0.984375 12.5352C0.382812 12.2891 0 11.7422 0 11.0859V4.44141C0 3.78516 0.382812 3.21094 0.984375 2.99219L6.45312 0.914062Z" fill="#91A5BA"/>
</svg>
