<svg width="13" height="15" viewBox="0 0 13 15" fill="none" xmlns="http://www.w3.org/2000/svg">
<path d="M0.285156 10.7852L1.21484 9.85547C1.48828 9.58203 1.89844 9.58203 2.14453 9.85547C4.03125 11.7422 7.06641 11.7422 8.95312 9.85547C10.8398 7.96875 10.8398 4.93359 8.95312 3.04688C8.70703 2.80078 8.70703 2.36328 8.95312 2.11719L9.91016 1.1875C10.1562 0.914062 10.5664 0.914062 10.8398 1.1875C11.0859 1.43359 11.0859 1.84375 10.8398 2.08984L10.3203 2.60938C12.2617 5.01562 12.125 8.54297 9.88281 10.7852C8.84375 11.7969 7.55859 12.3984 6.21875 12.5352V13.4375H8.84375C9.19922 13.4375 9.5 13.7383 9.5 14.0938C9.5 14.4766 9.19922 14.75 8.84375 14.75H2.28125C1.89844 14.75 1.625 14.4766 1.625 14.0938C1.625 13.7383 1.89844 13.4375 2.28125 13.4375H4.87891V12.5352C3.75781 12.4258 2.63672 11.9883 1.70703 11.2227L1.1875 11.7148C0.941406 11.9883 0.53125 11.9883 0.285156 11.7148C0.0117188 11.4688 0.0117188 11.0586 0.285156 10.7852ZM2.9375 6.4375C2.9375 7.39453 3.42969 8.24219 4.25 8.73438C5.04297 9.19922 6.05469 9.19922 6.875 8.73438C7.66797 8.24219 8.1875 7.39453 8.1875 6.4375C8.1875 5.50781 7.66797 4.66016 6.875 4.16797C6.05469 3.70312 5.04297 3.70312 4.25 4.16797C3.42969 4.66016 2.9375 5.50781 2.9375 6.4375ZM9.5 6.4375C9.5 7.85938 8.73438 9.14453 7.53125 9.85547C6.30078 10.5664 4.79688 10.5664 3.59375 9.85547C2.36328 9.14453 1.625 7.85938 1.625 6.4375C1.625 5.04297 2.36328 3.75781 3.59375 3.04688C4.79688 2.33594 6.30078 2.33594 7.53125 3.04688C8.73438 3.75781 9.5 5.04297 9.5 6.4375Z" fill="#91A5BA"/>
</svg>
