<svg width="16" height="13" viewBox="0 0 16 13" fill="none" xmlns="http://www.w3.org/2000/svg">
<path d="M1.875 1.9375C1.62891 1.9375 1.4375 2.15625 1.4375 2.375V6.3125H4.9375C5.15625 6.3125 5.375 6.44922 5.48438 6.64062L6.19531 7.81641L7.83594 4.50781C7.94531 4.28906 8.16406 4.15234 8.41016 4.15234C8.62891 4.125 8.875 4.26172 8.98438 4.45312L10.1055 6.3125H11.7188C12.0742 6.3125 12.375 6.61328 12.375 6.96875C12.375 7.35156 12.0742 7.625 11.7188 7.625H9.75C9.50391 7.625 9.28516 7.51562 9.17578 7.32422L8.46484 6.14844L6.82422 9.45703C6.71484 9.67578 6.49609 9.8125 6.27734 9.8125C6.03125 9.83984 5.8125 9.70312 5.67578 9.51172L4.55469 7.625H1.4375V11.125C1.4375 11.3711 1.62891 11.5625 1.875 11.5625H14.125C14.3438 11.5625 14.5625 11.3711 14.5625 11.125V2.375C14.5625 2.15625 14.3438 1.9375 14.125 1.9375H1.875ZM0.125 2.375C0.125 1.41797 0.890625 0.625 1.875 0.625H14.125C15.082 0.625 15.875 1.41797 15.875 2.375V11.125C15.875 12.1094 15.082 12.875 14.125 12.875H1.875C0.890625 12.875 0.125 12.1094 0.125 11.125V2.375Z" fill="#91A5BA"/>
</svg>
