<svg width="18" height="15" viewBox="0 0 18 15" fill="none" xmlns="http://www.w3.org/2000/svg">
<path d="M2.65591 9.22656C2.62856 9.28125 2.60122 9.33594 2.54653 9.36328C2.49184 9.5 2.40981 9.60938 2.35512 9.74609C2.81997 9.63672 3.25747 9.44531 3.69497 9.25391C3.83169 9.19922 3.94106 9.14453 4.05044 9.08984C4.32387 8.95312 4.59731 8.92578 4.89809 8.98047C5.22622 9.03516 5.55434 9.0625 5.93716 9.0625C8.56216 9.0625 10.3122 7.3125 10.3122 5.5625C10.3122 3.83984 8.56216 2.0625 5.93716 2.0625C3.28481 2.0625 1.56216 3.83984 1.56216 5.5625C1.56216 6.32812 1.86294 7.06641 2.43716 7.69531C2.84731 8.10547 2.92934 8.70703 2.65591 9.22656ZM0.249656 5.5625C0.249656 2.91016 2.79262 0.75 5.93716 0.75C9.05434 0.75 11.6247 2.91016 11.6247 5.5625C11.6247 8.24219 9.05434 10.375 5.93716 10.375C5.47231 10.375 5.06216 10.3477 4.62466 10.2656C4.51528 10.3203 4.37856 10.4023 4.24184 10.457C3.25747 10.8945 2.08169 11.25 0.905906 11.25C0.632469 11.25 0.386375 11.1133 0.277 10.8672C0.194969 10.6211 0.222313 10.3477 0.413719 10.1562C0.796531 9.71875 1.12466 9.22656 1.42544 8.73438C1.45278 8.67969 1.48013 8.625 1.48013 8.59766C0.7145 7.77734 0.249656 6.71094 0.249656 5.5625ZM12.0622 13.875C9.81997 13.875 7.87856 12.7812 6.94887 11.1953C7.41372 11.1133 7.87856 11.0039 8.31606 10.8672C9.027 11.8516 10.3668 12.5625 12.0348 12.5625C12.4176 12.5625 12.7458 12.5352 13.0739 12.4805C13.3747 12.4258 13.6481 12.4531 13.9215 12.5898C14.0309 12.6445 14.1403 12.6992 14.277 12.7539C14.7145 12.9453 15.152 13.1094 15.6168 13.2461C15.5622 13.1094 15.4801 13 15.4254 12.8633C15.3981 12.8086 15.3434 12.7539 15.3161 12.6992C15.07 12.207 15.152 11.6055 15.5348 11.1953C16.109 10.5664 16.4372 9.82812 16.4372 9.0625C16.4372 7.44922 14.8786 5.78125 12.4997 5.58984V5.5625C12.4997 5.125 12.4176 4.6875 12.3083 4.27734C15.3434 4.38672 17.7497 6.49219 17.7497 9.0625C17.7497 10.2109 17.2575 11.2773 16.4918 12.0977C16.4918 12.1523 16.5192 12.1797 16.5465 12.2344C16.8473 12.7266 17.1754 13.2188 17.5583 13.6562C17.7497 13.8477 17.777 14.1211 17.695 14.3672C17.5856 14.6133 17.3395 14.75 17.0934 14.75C15.9176 14.75 14.7145 14.3945 13.7301 13.957C13.5934 13.9023 13.4567 13.8203 13.3473 13.7656C12.9098 13.8477 12.4997 13.875 12.0622 13.875Z" fill="#91A5BA"/>
</svg>
