<svg width="16" height="11" viewBox="0 0 16 11" fill="none" xmlns="http://www.w3.org/2000/svg">
<path d="M5.375 1.8125C3.1875 1.8125 1.4375 3.58984 1.4375 5.75C1.4375 7.9375 3.1875 9.6875 5.375 9.6875H10.625C12.7852 9.6875 14.5625 7.9375 14.5625 5.75C14.5625 3.58984 12.7852 1.8125 10.625 1.8125H5.375ZM0.125 5.75C0.125 2.85156 2.47656 0.5 5.375 0.5H10.625C13.5234 0.5 15.875 2.85156 15.875 5.75C15.875 8.64844 13.5234 11 10.625 11H5.375C2.47656 11 0.125 8.64844 0.125 5.75ZM10.625 3.125C11.5547 3.125 12.4023 3.64453 12.8945 4.4375C13.3594 5.25781 13.3594 6.26953 12.8945 7.0625C12.4023 7.88281 11.5547 8.375 10.625 8.375C9.66797 8.375 8.82031 7.88281 8.32812 7.0625C7.86328 6.26953 7.86328 5.25781 8.32812 4.4375C8.82031 3.64453 9.66797 3.125 10.625 3.125Z" fill="#91A5BA"/>
</svg>
