<svg width="12" height="15" viewBox="0 0 12 15" fill="none" xmlns="http://www.w3.org/2000/svg">
<path d="M4.25 1.40625V3.8125H2.9375V1.40625C2.9375 1.05078 3.21094 0.75 3.59375 0.75C3.94922 0.75 4.25 1.05078 4.25 1.40625ZM9.0625 1.40625V3.8125H7.75V1.40625C7.75 1.05078 8.02344 0.75 8.40625 0.75C8.76172 0.75 9.0625 1.05078 9.0625 1.40625ZM1.40625 4.6875H1.625H2.9375H9.0625H10.375H10.5938C10.9492 4.6875 11.25 4.98828 11.25 5.34375C11.25 5.72656 10.9492 6 10.5938 6H10.375V7.75C10.375 9.96484 8.76172 11.7695 6.65625 12.0977V14.0938C6.65625 14.4766 6.35547 14.75 6 14.75C5.61719 14.75 5.34375 14.4766 5.34375 14.0938V12.0977C3.23828 11.7695 1.625 9.96484 1.625 7.75V6H1.40625C1.02344 6 0.75 5.72656 0.75 5.34375C0.75 4.98828 1.02344 4.6875 1.40625 4.6875ZM6 10.8125C7.66797 10.8125 9.0625 9.44531 9.0625 7.75V6H2.9375V7.75C2.9375 9.44531 4.30469 10.8125 6 10.8125Z" fill="#91A5BA"/>
</svg>
