<svg width="16" height="13" viewBox="0 0 16 13" fill="none" xmlns="http://www.w3.org/2000/svg">
<path d="M7.125 1.9375H1.875C1.62891 1.9375 1.4375 2.15625 1.4375 2.375V5C1.4375 5.24609 1.62891 5.4375 1.875 5.4375H7.125C7.34375 5.4375 7.5625 5.24609 7.5625 5V2.375C7.5625 2.15625 7.34375 1.9375 7.125 1.9375ZM1.875 0.625H7.125C8.08203 0.625 8.875 1.41797 8.875 2.375V5C8.875 5.98438 8.08203 6.75 7.125 6.75H1.875C0.890625 6.75 0.125 5.98438 0.125 5V2.375C0.125 1.41797 0.890625 0.625 1.875 0.625ZM14.125 1.9375H12.375C12.1289 1.9375 11.9375 2.15625 11.9375 2.375V8.5C11.9375 8.74609 12.1289 8.9375 12.375 8.9375H14.125C14.3438 8.9375 14.5625 8.74609 14.5625 8.5V2.375C14.5625 2.15625 14.3438 1.9375 14.125 1.9375ZM12.375 0.625H14.125C15.082 0.625 15.875 1.41797 15.875 2.375V8.5C15.875 9.48438 15.082 10.25 14.125 10.25H12.375C11.3906 10.25 10.625 9.48438 10.625 8.5V2.375C10.625 1.41797 11.3906 0.625 12.375 0.625ZM3.625 9.375C3.37891 9.375 3.1875 9.59375 3.1875 9.8125V11.125C3.1875 11.3711 3.37891 11.5625 3.625 11.5625H7.5625C7.78125 11.5625 8 11.3711 8 11.125V9.8125C8 9.59375 7.78125 9.375 7.5625 9.375H3.625ZM1.875 9.8125C1.875 8.85547 2.64062 8.0625 3.625 8.0625H7.5625C8.51953 8.0625 9.3125 8.85547 9.3125 9.8125V11.125C9.3125 12.1094 8.51953 12.875 7.5625 12.875H3.625C2.64062 12.875 1.875 12.1094 1.875 11.125V9.8125Z" fill="white"/>
</svg>
