<svg width="17" height="15" viewBox="0 0 17 15" fill="none" xmlns="http://www.w3.org/2000/svg">
<path d="M2.35938 0.278821C2.71484 0.442884 2.85156 0.825696 2.71484 1.15382C2.35938 1.94679 2.19531 2.82179 2.19531 3.72413C2.19531 4.65382 2.35938 5.52882 2.71484 6.32179C2.85156 6.64992 2.71484 7.03273 2.35938 7.19679C2.03125 7.33351 1.64844 7.16945 1.51172 6.84132C1.10156 5.88429 0.882812 4.84523 0.882812 3.72413C0.882812 2.63038 1.10156 1.59132 1.51172 0.63429C1.64844 0.306165 2.03125 0.142103 2.35938 0.278821ZM15.1289 0.278821C15.457 0.142103 15.8398 0.306165 15.9766 0.63429C16.3867 1.59132 16.6328 2.63038 16.6328 3.72413C16.6328 4.84523 16.3867 5.88429 15.9766 6.84132C15.8398 7.16945 15.457 7.33351 15.1289 7.19679C14.8008 7.03273 14.6367 6.64992 14.7734 6.32179C15.1289 5.52882 15.3203 4.65382 15.3203 3.72413C15.3203 2.82179 15.1289 1.94679 14.7734 1.15382C14.6367 0.825696 14.8008 0.442884 15.1289 0.278821ZM9.41406 5.36476V13.5679C9.41406 13.9507 9.11328 14.2241 8.75781 14.2241C8.375 14.2241 8.10156 13.9507 8.10156 13.5679V5.36476C7.44531 5.09132 7.00781 4.46242 7.00781 3.72413C7.00781 2.7671 7.77344 1.97413 8.75781 1.97413C9.71484 1.97413 10.5078 2.7671 10.5078 3.72413C10.5078 4.46242 10.043 5.09132 9.41406 5.36476ZM5.42188 2.63038C5.3125 2.98585 5.25781 3.34132 5.25781 3.75148C5.25781 4.13429 5.3125 4.48976 5.42188 4.84523C5.53125 5.17335 5.33984 5.55617 5.01172 5.66554C4.65625 5.77492 4.30078 5.61085 4.19141 5.25538C4.02734 4.79054 3.94531 4.27101 3.94531 3.72413C3.94531 3.2046 4.02734 2.68507 4.19141 2.22023C4.30078 1.86476 4.65625 1.7007 5.01172 1.81007C5.33984 1.91945 5.53125 2.27492 5.42188 2.63038ZM13.3242 2.22023C13.4609 2.68507 13.5703 3.2046 13.5703 3.72413C13.5703 4.27101 13.4609 4.7632 13.3242 5.25538C13.1875 5.58351 12.832 5.77492 12.4766 5.66554C12.1484 5.55617 11.957 5.17335 12.0664 4.84523C12.1758 4.48976 12.2578 4.10695 12.2578 3.72413C12.2578 3.34132 12.1758 2.98585 12.0664 2.63038C11.957 2.27492 12.1484 1.91945 12.4766 1.81007C12.832 1.67335 13.1875 1.86476 13.3242 2.22023Z" fill="#91A5BA"/>
</svg>
