<svg width="14" height="13" viewBox="0 0 14 13" fill="none" xmlns="http://www.w3.org/2000/svg">
<path d="M13.125 3.25C13.125 4.69922 11.9492 5.875 10.5 5.875C9.70703 5.875 8.99609 5.54688 8.50391 4.97266L6.04297 6.20312C6.09766 6.39453 6.125 6.58594 6.125 6.75C6.125 6.94141 6.09766 7.13281 6.04297 7.32422L8.50391 8.52734C8.99609 7.98047 9.70703 7.625 10.5 7.625C11.9492 7.625 13.125 8.80078 13.125 10.25C13.125 11.6992 11.9492 12.875 10.5 12.875C9.05078 12.875 7.875 11.6992 7.875 10.25C7.875 10.0859 7.875 9.89453 7.92969 9.70312L5.46875 8.47266C4.97656 9.04688 4.26562 9.375 3.5 9.375C2.05078 9.375 0.875 8.19922 0.875 6.75C0.875 5.30078 2.05078 4.125 3.5 4.125C4.26562 4.125 4.97656 4.48047 5.46875 5.02734L7.92969 3.82422C7.875 3.63281 7.875 3.44141 7.875 3.25C7.875 1.80078 9.05078 0.625 10.5 0.625C11.9492 0.625 13.125 1.80078 13.125 3.25ZM3.5 8.0625C3.96484 8.0625 4.375 7.81641 4.62109 7.40625C4.86719 7.02344 4.86719 6.50391 4.62109 6.09375C4.375 5.71094 3.96484 5.4375 3.5 5.4375C3.00781 5.4375 2.59766 5.71094 2.35156 6.09375C2.10547 6.50391 2.10547 7.02344 2.35156 7.40625C2.59766 7.81641 3.00781 8.0625 3.5 8.0625ZM11.8125 3.25C11.8125 2.78516 11.5391 2.375 11.1562 2.12891C10.7461 1.88281 10.2266 1.88281 9.84375 2.12891C9.43359 2.375 9.1875 2.78516 9.1875 3.25C9.1875 3.74219 9.43359 4.15234 9.84375 4.39844C10.2266 4.64453 10.7461 4.64453 11.1562 4.39844C11.5391 4.15234 11.8125 3.74219 11.8125 3.25ZM10.5 11.5625C10.9648 11.5625 11.375 11.3164 11.6211 10.9062C11.8672 10.5234 11.8672 10.0039 11.6211 9.59375C11.375 9.21094 10.9648 8.9375 10.5 8.9375C10.0078 8.9375 9.59766 9.21094 9.35156 9.59375C9.10547 10.0039 9.10547 10.5234 9.35156 10.9062C9.59766 11.3164 10.0078 11.5625 10.5 11.5625Z" fill="#91A5BA"/>
</svg>
