<svg width="15" height="14" viewBox="0 0 15 14" fill="none" xmlns="http://www.w3.org/2000/svg">
<path d="M11.6211 0.597656L13.8086 2.78516C14.0547 3.05859 14.0547 3.46875 13.8086 3.71484L11.6211 5.90234C11.3477 6.17578 10.9375 6.17578 10.6914 5.90234C10.418 5.65625 10.418 5.24609 10.6914 4.97266L11.7578 3.90625H9.625C9.26953 3.90625 8.94141 4.07031 8.75 4.34375L7.49219 6.03906L6.67188 4.94531L7.68359 3.57812C8.14844 2.94922 8.85938 2.59375 9.625 2.59375H11.7578L10.6914 1.52734C10.418 1.28125 10.418 0.871094 10.6914 0.625C10.9375 0.351562 11.3477 0.351562 11.5938 0.625L11.6211 0.597656ZM5.57812 8.58203L4.53906 9.94922C4.07422 10.5508 3.36328 10.9062 2.625 10.9062H0.65625C0.273438 10.9062 0 10.6328 0 10.25C0 9.89453 0.273438 9.59375 0.65625 9.59375H2.625C2.95312 9.59375 3.28125 9.45703 3.5 9.15625L4.75781 7.48828L5.57812 8.58203ZM10.6914 7.59766C10.9375 7.35156 11.3477 7.35156 11.5938 7.59766L13.7812 9.78516C14.0547 10.0586 14.0547 10.4688 13.7812 10.7148L11.5938 12.9023C11.3477 13.1758 10.9375 13.1758 10.6914 12.9023C10.418 12.6562 10.418 12.2461 10.6914 11.9727L11.7578 10.9062H9.625C8.85938 10.9062 8.14844 10.5508 7.68359 9.94922L3.5 4.34375C3.28125 4.07031 2.95312 3.90625 2.625 3.90625H0.65625C0.273438 3.90625 0 3.63281 0 3.25C0 2.89453 0.273438 2.59375 0.65625 2.59375H2.625C3.36328 2.59375 4.07422 2.94922 4.53906 3.57812L8.75 9.15625C8.94141 9.45703 9.26953 9.59375 9.625 9.59375H11.7578L10.6914 8.52734C10.418 8.28125 10.418 7.87109 10.6914 7.625V7.59766Z" fill="#91A5BA"/>
</svg>
