<svg width="18" height="15" viewBox="0 0 18 15" fill="none" xmlns="http://www.w3.org/2000/svg">
<path d="M16.1094 8.07812L13.0195 11.168C11.4609 12.6992 8.97266 12.6992 7.44141 11.168C5.99219 9.69141 5.91016 7.36719 7.25 5.80859L7.38672 5.64453C7.63281 5.37109 8.04297 5.34375 8.31641 5.58984C8.58984 5.83594 8.61719 6.24609 8.37109 6.51953L8.26172 6.65625C7.33203 7.69531 7.38672 9.25391 8.37109 10.2383C9.38281 11.25 11.0508 11.25 12.0898 10.2383L15.1797 7.14844C16.1914 6.10938 16.1914 4.46875 15.1797 3.42969C14.1953 2.47266 12.6367 2.41797 11.5977 3.32031L11.4336 3.45703C11.1602 3.70312 10.75 3.67578 10.5039 3.40234C10.2578 3.12891 10.2852 2.71875 10.5586 2.47266L10.7227 2.33594C12.2812 0.96875 14.6328 1.05078 16.1094 2.5C17.6406 4.03125 17.6406 6.51953 16.1094 8.07812ZM1.86328 7.44922L4.98047 4.35938C6.51172 2.82812 9 2.82812 10.5312 4.35938C12.0078 5.80859 12.0898 8.16016 10.7227 9.71875L10.5586 9.88281C10.3398 10.1562 9.90234 10.2109 9.62891 9.96484C9.35547 9.71875 9.32812 9.30859 9.57422 9.03516L9.73828 8.87109C10.6406 7.83203 10.5859 6.27344 9.60156 5.28906C8.58984 4.25 6.92188 4.25 5.91016 5.28906L2.79297 8.37891C1.78125 9.39062 1.78125 11.0586 2.79297 12.0977C3.77734 13.0547 5.33594 13.1094 6.375 12.207L6.53906 12.0703C6.8125 11.8242 7.22266 11.8516 7.46875 12.125C7.71484 12.3984 7.6875 12.8086 7.41406 13.0547L7.25 13.1914C5.69141 14.5586 3.33984 14.4766 1.86328 13.0273C0.332031 11.4961 0.332031 8.98047 1.86328 7.44922Z" fill="#91A5BA"/>
</svg>
