<svg width="14" height="15" viewBox="0 0 14 15" fill="none" xmlns="http://www.w3.org/2000/svg">
<path d="M7.00488 13.2705C7.19629 13.2705 7.74316 13.0791 8.29004 11.958C8.53613 11.4658 8.75488 10.8916 8.8916 10.208H5.09082C5.25488 10.8916 5.44629 11.4658 5.69238 11.958C6.2666 13.0791 6.78613 13.2705 7.00488 13.2705ZM4.87207 8.89551H9.11035C9.16504 8.48535 9.19238 8.04785 9.19238 7.58301C9.19238 7.14551 9.16504 6.70801 9.11035 6.27051H4.87207C4.81738 6.70801 4.81738 7.14551 4.81738 7.58301C4.81738 8.04785 4.81738 8.48535 4.87207 8.89551ZM5.09082 4.95801H8.8916C8.75488 4.30176 8.53613 3.72754 8.29004 3.23535C7.74316 2.11426 7.19629 1.89551 7.00488 1.89551C6.78613 1.89551 6.2666 2.11426 5.69238 3.23535C5.44629 3.72754 5.25488 4.30176 5.09082 4.95801ZM10.4229 6.27051C10.4775 6.70801 10.4775 7.14551 10.4775 7.58301C10.4775 8.04785 10.4775 8.48535 10.4229 8.89551H12.5283C12.6377 8.48535 12.6924 8.04785 12.6924 7.58301C12.6924 7.14551 12.6377 6.70801 12.5283 6.27051H10.4229ZM12.0361 4.95801C11.4619 3.83691 10.5049 2.93457 9.35645 2.41504C9.73926 3.12598 10.04 4.00098 10.2314 4.95801H12.0361ZM3.75098 4.95801C3.94238 4.00098 4.24316 3.12598 4.62598 2.41504C3.47754 2.93457 2.52051 3.83691 1.94629 4.95801H3.75098ZM1.4541 6.27051C1.37207 6.70801 1.31738 7.14551 1.31738 7.58301C1.31738 8.04785 1.34473 8.48535 1.4541 8.89551H3.55957C3.50488 8.48535 3.50488 8.04785 3.50488 7.58301C3.50488 7.14551 3.50488 6.70801 3.55957 6.27051H1.4541ZM9.35645 12.7783C10.5049 12.2588 11.4619 11.3564 12.0361 10.208H10.2314C10.04 11.1924 9.73926 12.0674 9.35645 12.7783ZM4.62598 12.7783C4.24316 12.0674 3.94238 11.1924 3.75098 10.208H1.94629C2.52051 11.3564 3.47754 12.2588 4.62598 12.7783ZM7.00488 14.583C4.48926 14.583 2.19238 13.2705 0.93457 11.083C-0.323242 8.92285 -0.323242 6.27051 0.93457 4.08301C2.19238 1.92285 4.48926 0.583008 7.00488 0.583008C9.49316 0.583008 11.79 1.92285 13.0479 4.08301C14.3057 6.27051 14.3057 8.92285 13.0479 11.083C11.79 13.2705 9.49316 14.583 7.00488 14.583Z" fill="#91A5BA"/>
</svg>
