<svg width="14" height="15" viewBox="0 0 14 15" fill="none" xmlns="http://www.w3.org/2000/svg">
<path d="M10.0625 2.9375C10.0625 3.42969 10.4453 3.8125 10.9375 3.8125C11.4023 3.8125 11.8125 3.42969 11.8125 2.9375C11.8125 2.47266 11.4023 2.0625 10.9375 2.0625C10.4453 2.0625 10.0625 2.47266 10.0625 2.9375ZM9.24219 4.33203L4.34766 6.27344C4.34766 6.32812 4.375 6.38281 4.375 6.4375C4.375 6.76562 4.29297 7.06641 4.18359 7.33984L8.03906 10.7031C8.28516 10.5391 8.58594 10.4297 8.91406 10.4023L9.89844 4.87891C9.65234 4.74219 9.40625 4.55078 9.24219 4.33203ZM11.2109 5.125L10.1992 10.6484C10.8828 11.0039 11.375 11.7422 11.375 12.5625C11.375 13.793 10.3906 14.75 9.1875 14.75C7.95703 14.75 7 13.793 7 12.5625C7 12.2617 7.05469 11.9609 7.16406 11.6875L3.30859 8.32422C2.98047 8.51562 2.59766 8.625 2.1875 8.625C0.957031 8.625 0 7.66797 0 6.4375C0 5.23438 0.957031 4.25 2.1875 4.25C2.87109 4.25 3.47266 4.57812 3.85547 5.07031L8.75 3.12891C8.75 3.07422 8.75 2.99219 8.75 2.9375C8.75 1.73438 9.70703 0.75 10.9375 0.75C12.1406 0.75 13.125 1.73438 13.125 2.9375C13.125 4.05859 12.2773 4.98828 11.2109 5.125ZM8.3125 12.5625C8.3125 13.0547 8.69531 13.4375 9.1875 13.4375C9.65234 13.4375 10.0625 13.0547 10.0625 12.5625C10.0625 12.0977 9.65234 11.6875 9.1875 11.6875C8.69531 11.6875 8.3125 12.0977 8.3125 12.5625ZM2.1875 5.5625C1.69531 5.5625 1.3125 5.97266 1.3125 6.4375C1.3125 6.92969 1.69531 7.3125 2.1875 7.3125C2.65234 7.3125 3.0625 6.92969 3.0625 6.4375C3.0625 5.97266 2.65234 5.5625 2.1875 5.5625Z" fill="#91A5BA"/>
</svg>
