<svg width="14" height="15" viewBox="0 0 14 15" fill="none" xmlns="http://www.w3.org/2000/svg">
<path d="M4.8125 4.25V6H9.1875V4.25C9.1875 3.04688 8.20312 2.0625 7 2.0625C5.76953 2.0625 4.8125 3.04688 4.8125 4.25ZM3.5 6V4.25C3.5 2.33594 5.05859 0.75 7 0.75C8.91406 0.75 10.5 2.33594 10.5 4.25V6H11.375C12.332 6 13.125 6.79297 13.125 7.75V13C13.125 13.9844 12.332 14.75 11.375 14.75H2.625C1.64062 14.75 0.875 13.9844 0.875 13V7.75C0.875 6.79297 1.64062 6 2.625 6H3.5ZM2.1875 7.75V13C2.1875 13.2461 2.37891 13.4375 2.625 13.4375H11.375C11.5938 13.4375 11.8125 13.2461 11.8125 13V7.75C11.8125 7.53125 11.5938 7.3125 11.375 7.3125H2.625C2.37891 7.3125 2.1875 7.53125 2.1875 7.75Z" fill="#91A5BA"/>
</svg>
