<svg width="18" height="15" viewBox="0 0 18 15" fill="none" xmlns="http://www.w3.org/2000/svg">
<path d="M0.277344 13.3008C0.441406 12.0703 1.07031 10.9766 2 10.2109C2.84766 9.5 3.94141 9.0625 5.11719 9.0625H6.375H7.60547C8.80859 9.0625 9.875 9.5 10.7227 10.2109C11.6523 10.9766 12.2812 12.0703 12.4453 13.3008C12.4727 13.5195 12.4727 13.7383 12.4727 13.957C12.4727 14.3945 12.1172 14.75 11.6797 14.75H11.1328H1.58984H1.04297C0.605469 14.75 0.25 14.3945 0.25 13.957C0.25 13.7383 0.25 13.5195 0.277344 13.3008ZM2.875 4.25C2.875 3.01953 3.53125 1.87109 4.625 1.24219C5.69141 0.613281 7.03125 0.613281 8.125 1.24219C9.19141 1.87109 9.875 3.01953 9.875 4.25C9.875 5.50781 9.19141 6.65625 8.125 7.28516C7.03125 7.91406 5.69141 7.91406 4.625 7.28516C3.53125 6.65625 2.875 5.50781 2.875 4.25ZM8.5625 4.25C8.5625 3.48438 8.125 2.77344 7.46875 2.36328C6.78516 1.98047 5.9375 1.98047 5.28125 2.36328C4.59766 2.77344 4.1875 3.48438 4.1875 4.25C4.1875 5.04297 4.59766 5.75391 5.28125 6.16406C5.9375 6.54688 6.78516 6.54688 7.46875 6.16406C8.125 5.75391 8.5625 5.04297 8.5625 4.25ZM5.11719 10.375C3.80469 10.375 2.65625 11.0859 2.05469 12.125C1.80859 12.5352 1.64453 12.9727 1.58984 13.4375H2.92969H9.82031H11.1328C11.1328 13.3828 11.1328 13.3008 11.1055 13.2188C11.0234 12.8359 10.8867 12.4805 10.668 12.125C10.0664 11.0859 8.91797 10.375 7.60547 10.375H5.11719ZM16.9023 14.75H13.1562C13.293 14.5312 13.375 14.2578 13.375 13.957C13.375 12.1797 12.5547 10.5938 11.2969 9.52734C11.4062 9.52734 11.5156 9.5 11.6523 9.5H13.3203C15.7539 9.5 17.75 11.4961 17.75 13.9297C17.75 14.3945 17.3672 14.75 16.9023 14.75ZM12.0625 7.75C11.2148 7.75 10.4492 7.42188 9.875 6.875C10.4219 6.13672 10.75 5.23438 10.75 4.25C10.75 3.53906 10.5586 2.82812 10.2305 2.22656C10.75 1.87109 11.3789 1.625 12.0625 1.625C13.7305 1.625 15.125 3.01953 15.125 4.6875C15.125 6.38281 13.7305 7.75 12.0625 7.75Z" fill="#91A5BA"/>
</svg>
