<svg width="231" height="216" viewBox="0 0 231 216" fill="none" xmlns="http://www.w3.org/2000/svg">
<path d="M48.5 103.5C40.0625 103.5 33.5 110.375 33.5 118.5C33.5 126.938 40.0625 133.5 48.5 133.5C56.625 133.5 63.5 126.938 63.5 118.5C63.5 110.375 56.625 103.5 48.5 103.5ZM140.688 76H20.6875C9.75 76 0.6875 85.0625 0.6875 96V196C0.6875 207.25 9.75 216 20.6875 216H140.688C151.625 216 160.688 207.25 160.688 196V96C160.688 85.0625 151.938 76 140.688 76ZM145.688 194.125L102.875 136C101.938 134.438 100.375 133.5 98.5 133.5C96.3125 133.5 94.75 134.438 93.5 136L60.375 181L48.8125 166.625C47.5625 165.375 46 164.438 44.125 164.438C42.25 164.438 40.6875 165.375 39.4375 166.625L16 196L15.6875 96C15.6875 93.5 18.1875 91 20.6875 91H140.688C143.5 91 145.688 93.5 145.688 96V194.125Z" fill="black"/>
<path d="M166.467 127.295C162.864 127.301 159.341 126.412 156.201 124.737L179.283 111.394L179.292 111.389L179.301 111.384C180.408 110.733 181.326 109.806 181.967 108.694C182.607 107.581 182.947 106.321 182.954 105.038L182.954 105.03V105.022V72.8927L188.342 76.0143L188.342 105.383C188.342 105.384 188.342 105.385 188.342 105.386C188.315 117.421 178.627 127.175 166.642 127.295L166.467 127.295ZM112.695 95.7403L135.788 109.076C135.792 109.078 135.795 109.08 135.799 109.082C136.912 109.734 138.178 110.077 139.468 110.077C140.758 110.077 142.024 109.734 143.137 109.082C143.141 109.08 143.144 109.078 143.148 109.076L170.959 93.0195V99.2514L145.496 113.959C135.031 119.996 121.66 116.408 115.612 105.934L115.611 105.932C113.804 102.807 112.813 99.3035 112.695 95.7403ZM116.663 81.0574C106.694 75.2682 102.974 62.8094 107.89 52.5665L108.647 51.2585C110.479 48.0916 113.063 45.4582 116.14 43.5729V70.2666C116.127 71.5553 116.458 72.8244 117.098 73.9431C117.741 75.0651 118.672 75.995 119.795 76.6358C119.798 76.6376 119.801 76.6393 119.804 76.6411L147.47 92.6251L142.084 95.7454L116.667 81.06C116.666 81.0591 116.664 81.0583 116.663 81.0574ZM208.878 96.1786C207.288 98.2789 205.341 100.064 203.138 101.46V74.8191V74.7735L203.137 74.728C203.098 73.4501 202.728 72.204 202.063 71.112C201.403 70.0283 200.475 69.1353 199.372 68.5163L171.588 52.3587L176.956 49.2543L202.379 63.9669L202.381 63.9677C205.974 66.0445 208.904 69.1025 210.828 72.7853C212.752 76.468 213.591 80.6233 213.245 84.7658C212.9 88.9083 211.385 92.8666 208.878 96.1786ZM175.958 35.8899C175.954 35.892 175.951 35.8941 175.947 35.8963L148.162 51.9499V45.7048L173.547 31.0381C177.149 28.9596 181.268 27.9515 185.421 28.1315C189.575 28.3114 193.591 29.672 197.001 32.0545C200.412 34.437 203.075 37.7432 204.678 41.5867C205.709 44.0571 206.275 46.6837 206.36 49.3353L183.333 35.8963C183.331 35.8955 183.33 35.8948 183.329 35.8941C182.21 35.2376 180.937 34.8913 179.64 34.8913C178.345 34.8913 177.075 35.2361 175.958 35.8899ZM136.088 40.0264L136.066 72.0915L130.674 68.9808L130.674 39.6651C130.674 39.6642 130.674 39.6633 130.674 39.6624C130.68 35.4982 131.869 31.422 134.103 27.9103C136.336 24.3979 139.522 21.5954 143.287 19.8301C147.051 18.0648 151.239 17.4093 155.362 17.94C157.986 18.2778 160.515 19.0876 162.832 20.3184L139.76 33.6559L139.75 33.6611L139.741 33.6664C138.634 34.3168 137.716 35.2439 137.076 36.3564L139.543 37.7765L137.076 36.3565C136.435 37.469 136.095 38.7288 136.088 40.0122L136.088 40.0193L136.088 40.0264ZM223.135 101.109C230.725 87.9006 229.313 71.4247 219.745 59.7247C220.973 55.333 221.362 50.7432 220.885 46.1974C220.349 41.0846 218.731 36.145 216.138 31.7078C208.529 18.4559 193.522 11.4036 178.576 13.8861C174.482 9.73489 169.45 6.61703 163.894 4.80327C157.794 2.81176 151.278 2.46274 145.001 3.79133C138.723 5.11992 132.906 8.07923 128.132 12.3716C123.786 16.2802 120.444 21.1688 118.378 26.622C113.964 27.7504 109.797 29.7063 106.102 32.3913C101.945 35.4112 98.4797 39.2839 95.9364 43.7507C88.2564 56.9837 89.6598 73.5468 99.2946 85.2755C98.0628 89.6636 97.6698 94.2508 98.142 98.7948C98.6734 103.908 100.288 108.85 102.879 113.289C110.494 126.543 125.506 133.595 140.456 131.113C143.637 134.372 147.408 137.004 151.574 138.864C156.263 140.958 161.345 142.027 166.48 141.999C181.778 142.009 195.393 132.477 200.701 118.242C205.11 117.111 209.272 115.156 212.965 112.473C217.123 109.452 220.59 105.578 223.135 101.109ZM148.139 65.9056L159.536 59.3273L170.959 65.9088V79.0658L159.584 85.6441L148.16 79.0612L148.139 65.9056Z" fill="black" stroke="white" stroke-width="6"/>
</svg>
