<svg width="210" height="216" viewBox="0 0 210 216" fill="none" xmlns="http://www.w3.org/2000/svg">
<path d="M132.5 201H122.5L76.875 81C75.625 78.1875 72.8125 76.3125 70 76.3125C69.6875 76.3125 70 76.3125 70 76.3125C66.875 76.3125 64.0625 77.875 62.8125 81L14.6875 201H7.5C3.125 201 0 204.438 0 208.5C0 212.875 3.125 216 7.5 216H42.5C46.5625 216 50 212.875 50 208.5C50 204.438 46.5625 201 42.5 201H30.9375L41.875 173.5H95.9375L106.562 201H97.5C93.125 201 90 204.438 90 208.5C90 212.875 93.125 216 97.5 216H132.5C136.562 216 140 212.875 140 208.5C140 204.438 136.562 201 132.5 201ZM47.8125 158.5L69.6875 104.438L90.3125 158.5H47.8125Z" fill="black"/>
<path d="M145.467 127.295C141.864 127.301 138.341 126.412 135.201 124.737L158.283 111.394L158.292 111.389L158.301 111.384C159.408 110.733 160.326 109.806 160.967 108.694C161.607 107.581 161.947 106.321 161.954 105.038L161.954 105.03V105.022V72.8927L167.342 76.0143L167.342 105.383C167.342 105.384 167.342 105.385 167.342 105.386C167.315 117.421 157.627 127.175 145.642 127.295L145.467 127.295ZM91.6952 95.7403L114.788 109.076C114.792 109.078 114.795 109.08 114.799 109.082C115.912 109.734 117.178 110.077 118.468 110.077C119.758 110.077 121.024 109.734 122.137 109.082C122.141 109.08 122.144 109.078 122.148 109.076L149.959 93.0195V99.2514L124.496 113.959C114.031 119.996 100.66 116.408 94.6122 105.934L94.6112 105.932C92.8044 102.807 91.8134 99.3035 91.6952 95.7403ZM95.6627 81.0574C85.6937 75.2682 81.9744 62.8094 86.8903 52.5665L87.647 51.2585C89.4792 48.0916 92.0628 45.4582 95.1399 43.5729V70.2666C95.127 71.5553 95.4576 72.8244 96.0981 73.9431C96.7406 75.0651 97.6715 75.995 98.7947 76.6358C98.7978 76.6376 98.8009 76.6393 98.804 76.6411L126.47 92.6251L121.084 95.7454L95.6671 81.06C95.6656 81.0591 95.6642 81.0583 95.6627 81.0574ZM187.878 96.1786C186.288 98.2789 184.341 100.064 182.138 101.46V74.8191V74.7735L182.137 74.728C182.098 73.4501 181.728 72.204 181.063 71.112C180.403 70.0283 179.475 69.1353 178.372 68.5163L150.588 52.3587L155.956 49.2543L181.379 63.9669L181.381 63.9677C184.974 66.0445 187.904 69.1025 189.828 72.7853C191.752 76.468 192.591 80.6233 192.245 84.7658C191.9 88.9083 190.385 92.8666 187.878 96.1786ZM154.958 35.8899C154.954 35.892 154.951 35.8941 154.947 35.8963L127.162 51.9499V45.7048L152.547 31.0381C156.149 28.9596 160.268 27.9515 164.421 28.1315C168.575 28.3114 172.591 29.672 176.001 32.0545C179.412 34.437 182.075 37.7432 183.678 41.5867C184.709 44.0571 185.275 46.6837 185.36 49.3353L162.333 35.8963C162.331 35.8955 162.33 35.8948 162.329 35.8941C161.21 35.2376 159.937 34.8913 158.64 34.8913C157.345 34.8913 156.075 35.2361 154.958 35.8899ZM115.088 40.0264L115.066 72.0915L109.674 68.9808L109.674 39.6651C109.674 39.6642 109.674 39.6633 109.674 39.6624C109.68 35.4982 110.869 31.422 113.103 27.9103C115.336 24.3979 118.522 21.5954 122.287 19.8301C126.051 18.0648 130.239 17.4093 134.362 17.94C136.986 18.2778 139.515 19.0876 141.832 20.3184L118.76 33.6559L118.75 33.6611L118.741 33.6664C117.634 34.3168 116.716 35.2439 116.076 36.3564L118.543 37.7765L116.076 36.3565C115.435 37.469 115.095 38.7288 115.088 40.0122L115.088 40.0193L115.088 40.0264ZM202.135 101.109C209.725 87.9006 208.313 71.4247 198.745 59.7247C199.973 55.333 200.362 50.7432 199.885 46.1974C199.349 41.0846 197.731 36.145 195.138 31.7078C187.529 18.4559 172.522 11.4036 157.576 13.8861C153.482 9.73489 148.45 6.61703 142.894 4.80327C136.794 2.81176 130.278 2.46274 124.001 3.79133C117.723 5.11992 111.906 8.07923 107.132 12.3716C102.786 16.2802 99.4443 21.1688 97.3778 26.622C92.9636 27.7504 88.7974 29.7063 85.1019 32.3913C80.9452 35.4112 77.4797 39.2839 74.9364 43.7507C67.2564 56.9837 68.6598 73.5468 78.2946 85.2755C77.0628 89.6636 76.6698 94.2508 77.142 98.7948C77.6734 103.908 79.2883 108.85 81.879 113.289C89.4936 126.543 104.506 133.595 119.456 131.113C122.637 134.372 126.408 137.004 130.574 138.864C135.263 140.958 140.345 142.027 145.48 141.999C160.778 142.009 174.393 132.477 179.701 118.242C184.11 117.111 188.272 115.156 191.965 112.473C196.123 109.452 199.59 105.578 202.135 101.109ZM127.139 65.9056L138.536 59.3273L149.959 65.9088V79.0658L138.584 85.6441L127.16 79.0612L127.139 65.9056Z" fill="black" stroke="white" stroke-width="6"/>
</svg>
