<svg width="24" height="24" viewBox="0 0 24 24" fill="none" xmlns="http://www.w3.org/2000/svg">
<path fill-rule="evenodd" clip-rule="evenodd" d="M6.76001 18.1702C8.00705 16.3729 10.079 15.1921 12.4325 15.1921C14.5751 15.1921 16.484 16.171 17.7506 17.7022C19.202 16.2383 20.1 14.2246 20.1 12.0004C20.1 7.52664 16.4737 3.9 12 3.9C7.52663 3.9 3.89999 7.52664 3.89999 12.0004C3.89999 14.4736 5.01203 16.685 6.76001 18.1702ZM16.3299 14.43C16.2122 14.6926 16.0016 14.7459 15.7548 14.632C14.6761 14.133 13.4755 13.8535 12.2095 13.8535C10.9099 13.8535 9.67961 14.1481 8.57873 14.6717C8.46083 14.7281 8.20163 14.7527 8.08499 14.417C7.96835 14.081 8.15267 13.8909 8.25869 13.8419C9.45983 13.2802 10.7965 12.9612 12.2095 12.9612C13.5977 12.9612 14.9336 13.2251 16.0966 13.8122C16.28 13.9051 16.4474 14.1674 16.3299 14.43ZM16.6496 12.5596C16.8047 12.5596 16.9352 12.4783 17.0191 12.3609L17.1107 12.086C17.1082 11.9498 17.0461 11.8283 16.9491 11.7457C15.5014 11.0955 13.8992 10.7303 12.2095 10.7303C10.5191 10.7303 8.91587 11.0964 7.46795 11.7464C7.37273 11.8303 7.30919 11.9482 7.30757 12.0844L7.39505 12.347C7.47839 12.4684 7.61123 12.5526 7.76927 12.5526C7.82255 12.5526 7.87151 12.538 7.91903 12.5215C9.23321 11.9456 10.6831 11.6227 12.2093 11.6227C13.7471 11.6227 15.2067 11.9507 16.5284 12.5348L16.5477 12.5403C16.5806 12.5499 16.6138 12.5596 16.6496 12.5596ZM6.87953 9.08958C8.52725 8.42466 10.324 8.05314 12.2093 8.05314C14.0774 8.05314 15.8583 8.4171 17.4931 9.07032C17.7145 9.18318 17.8696 9.4053 17.8696 9.67062C17.8696 10.0465 17.5647 10.351 17.1892 10.351C17.1367 10.351 17.087 10.3393 17.0382 10.3278C15.5456 9.72606 13.9172 9.39126 12.2095 9.39126C10.5006 9.39126 8.87069 9.72642 7.37777 10.3292L7.37415 10.3301C7.32696 10.3406 7.28019 10.351 7.23017 10.351C6.85469 10.351 6.54977 10.0465 6.54977 9.67062C6.54959 9.42312 6.68261 9.20856 6.87953 9.08958ZM9.07031 19.5452C9.84557 18.5304 11.0606 17.8693 12.4324 17.8693C13.6751 17.8693 14.7922 18.4089 15.5671 19.2639C14.4896 19.7944 13.2821 20.1 12 20.1C10.9655 20.1 9.98021 19.8988 9.07031 19.5452Z" fill="black"/>
</svg>
