<svg width="24" height="24" viewBox="0 0 24 24" fill="none" xmlns="http://www.w3.org/2000/svg">
<path d="M19.8444 7.1343C19.257 7.39457 18.6338 7.56539 17.9958 7.64107C18.6602 7.24282 19.1707 6.612 19.411 5.86035C18.7792 6.23533 18.0879 6.49949 17.367 6.6414C16.7799 6.0159 15.9434 5.625 15.0176 5.625C13.24 5.625 11.7988 7.06612 11.7988 8.8437C11.7988 9.09592 11.8273 9.34162 11.8822 9.5772C9.20707 9.44295 6.83534 8.1615 5.24782 6.2142C4.96156 6.70536 4.81117 7.26384 4.81207 7.83232C4.81207 8.94907 5.38019 9.9342 6.24389 10.5115C5.7328 10.4954 5.23295 10.3574 4.78604 10.1089C4.78574 10.1223 4.78574 10.1357 4.78574 10.1493C4.78574 11.7088 5.89522 13.0097 7.36769 13.3054C6.89371 13.4344 6.39652 13.4533 5.91412 13.3607C6.32369 14.6393 7.51237 15.57 8.92087 15.5959C7.81934 16.4593 6.43147 16.9739 4.92337 16.9739C4.66357 16.9739 4.40737 16.9585 4.15559 16.9288C5.57999 17.842 7.27192 18.375 9.08962 18.375C15.01 18.375 18.2476 13.4704 18.2476 9.2169C18.2476 9.0774 18.2445 8.9385 18.2383 8.8005C18.8685 8.34501 19.4123 7.78078 19.8444 7.1343Z" fill="black"/>
</svg>
