<svg width="24" height="24" viewBox="0 0 24 24" fill="none" xmlns="http://www.w3.org/2000/svg">
<path fill-rule="evenodd" clip-rule="evenodd" d="M9.50988 10.2423H8.52276L8.52114 6.83112L7.28022 3.9H8.3487L8.97762 6.07746L9.59772 3.90594H10.6774L9.51096 6.8295L9.50988 10.2423ZM10.7054 6.27744C10.6347 6.51792 10.5991 6.85146 10.5991 7.2786H10.5989V8.4567C10.5989 8.84676 10.6176 9.13944 10.657 9.33402C10.6963 9.52878 10.7612 9.69582 10.8536 9.83298C10.945 9.96996 11.0734 10.0731 11.2395 10.1415C11.4051 10.2103 11.606 10.2432 11.8445 10.2432C12.058 10.2432 12.247 10.204 12.4122 10.1239C12.5756 10.0445 12.7105 9.9201 12.815 9.75378C12.9209 9.58566 12.9893 9.40638 13.0211 9.21306C13.0532 9.02028 13.0697 8.71662 13.0697 8.30388V7.17852C13.0697 6.85218 13.0525 6.61026 13.0174 6.44988C12.983 6.29166 12.9185 6.13704 12.8237 5.98656C12.7304 5.83662 12.5963 5.71512 12.4223 5.62152C12.2489 5.52846 12.0416 5.48094 11.7995 5.48094C11.5117 5.48094 11.275 5.55402 11.0901 5.7C10.9047 5.84526 10.7767 6.03786 10.7054 6.27744ZM13.7699 9.79176C13.8184 9.90948 13.8936 10.0049 13.9957 10.0769C14.0965 10.1478 14.2255 10.1834 14.3798 10.1834C14.5151 10.1834 14.635 10.1469 14.7394 10.0715C14.8435 9.99642 14.9311 9.88428 15.0026 9.7347L14.9849 10.103H16.0313V5.6532H15.2076V9.1164C15.2076 9.30396 15.0532 9.4575 14.8643 9.4575C14.6766 9.4575 14.5216 9.30396 14.5216 9.1164V5.6532H13.6619V8.65452C13.6619 9.03684 13.6688 9.29172 13.6801 9.42096C13.6922 9.5493 13.7215 9.67242 13.7699 9.79176ZM18.75 18.0161V13.2382C18.75 12.0922 17.756 11.1542 16.5414 11.1542H7.45878C6.2436 11.1542 5.25 12.0922 5.25 13.2382V18.0161C5.25 19.1622 6.2436 20.1 7.45878 20.1H16.5414C17.756 20.1 18.75 19.1622 18.75 18.0161ZM13.3343 14.6431C13.1088 14.6431 12.9243 14.7947 12.9243 14.9803V17.4918C12.9243 17.677 13.1088 17.8282 13.3343 17.8282C13.5608 17.8282 13.7455 17.677 13.7455 17.4918V14.9803C13.7455 14.7945 13.5608 14.6431 13.3343 14.6431ZM16.6692 15.7498H15.78L15.7841 15.2333C15.7841 15.0038 15.9726 14.8161 16.203 14.8161H16.2597C16.4905 14.8161 16.6795 15.0038 16.6795 15.2333L16.6692 15.7498ZM8.06466 18.5349L8.06394 13.5019L9.18984 13.5023V12.7565L6.18852 12.752V13.4852L7.12542 13.4879V18.5349H8.06466ZM10.501 14.2516H11.4397H11.4398V18.5336L10.686 18.5327L10.6878 17.9778C10.4853 18.4127 9.67584 18.7624 9.25356 18.458C9.0547 18.3154 9.03658 18.0785 9.01968 17.8576L9.01967 17.8576C9.01731 17.8267 9.01498 17.7962 9.01218 17.7663C9.00415 17.6768 9.00545 17.5179 9.00718 17.3065V17.3065V17.3065V17.3064C9.00812 17.1908 9.00919 17.0594 9.00894 16.9151L9.00606 14.2516H9.93954L9.94332 16.9577C9.94346 17.0978 9.94067 17.2157 9.93839 17.312C9.93466 17.4696 9.9323 17.5692 9.94638 17.6135C10.0801 18.0206 10.4232 17.7994 10.4995 17.591C10.5146 17.5496 10.512 17.4623 10.5076 17.314C10.5047 17.2167 10.501 17.0932 10.501 16.9392V14.2516ZM14.4426 17.3293L14.4406 15.0924C14.4399 14.2399 13.8022 13.7293 12.9364 14.419L12.9401 12.756L12.0023 12.7574L11.9978 18.4976L12.7688 18.4863L12.839 18.1288C13.8247 19.033 14.444 18.4136 14.4426 17.3293ZM16.6764 17.0366L17.3804 17.0328C17.7017 18.9399 15.0085 19.2533 15.0083 17.036V15.7024C15.0083 15.3023 15.0479 14.9873 15.128 14.7567C15.2072 14.5261 15.3435 14.3546 15.5221 14.2264C16.0905 13.816 17.2159 13.9433 17.3311 14.745C17.3678 14.9984 17.3791 15.4416 17.3791 15.8849V16.4915H15.7674V17.5246C15.7674 17.7346 15.9409 17.9058 16.1522 17.9058H16.2901C16.5011 17.9058 16.6748 17.7346 16.6748 17.5246V17.1318L16.6752 17.1027L16.6757 17.075L16.6764 17.0366ZM11.4186 9.0462C11.4186 9.2982 11.6062 9.50394 11.8346 9.50394C12.0632 9.50394 12.2498 9.2982 12.2498 9.0462V6.6774C12.2498 6.42576 12.0632 6.22002 11.8346 6.22002C11.6062 6.22002 11.4186 6.42576 11.4186 6.6774V9.0462Z" fill="black"/>
</svg>
