<svg width="64" height="64" viewBox="0 0 64 64" fill="none" xmlns="http://www.w3.org/2000/svg">
<rect width="64" height="64" fill="white"/>
<g clip-path="url(#clip0_8375_23220)">
<path d="M51.1482 36.1539H49.091C48.9146 36.1539 48.7383 36.0061 48.7383 35.7991V33.7295C48.7383 33.5521 48.8852 33.3748 49.091 33.3748H51.1482C51.3246 33.3748 51.5009 33.5226 51.5009 33.7295V35.7991C51.5009 36.0061 51.354 36.1539 51.1482 36.1539Z" fill="#9FBE37"/>
<path d="M51.1472 40.5001H12.882C12.7056 40.5001 12.5293 40.3523 12.5293 40.1453V38.0757C12.5293 37.8983 12.6762 37.7209 12.882 37.7209H51.1766C51.353 37.7209 51.5293 37.8688 51.5293 38.0757V40.1453C51.4999 40.3523 51.353 40.5001 51.1472 40.5001Z" fill="#9DD3CD"/>
<path d="M37.5102 36.1538H35.835C35.6293 36.1538 35.4823 36.006 35.4823 35.799V27.5799L32.4552 31.4234C32.3964 31.5121 32.2789 31.5712 32.1907 31.5712H31.8968C31.7792 31.5712 31.6911 31.5121 31.6323 31.4234L28.6052 27.5799V35.799C28.6052 36.006 28.4582 36.1538 28.2525 36.1538H26.5773C26.3716 36.1538 26.2246 36.006 26.2246 35.799V24.0025C26.2246 23.7955 26.3716 23.6477 26.5773 23.6477H28.1643C28.2819 23.6477 28.3701 23.7068 28.4288 23.766L32.0437 28.2599L35.6587 23.7955C35.7175 23.7068 35.835 23.6773 35.9232 23.6773H37.4808C37.6866 23.6773 37.8335 23.8251 37.8335 24.0321V35.8286C37.8629 36.006 37.6866 36.1538 37.5102 36.1538Z" fill="#3A3531"/>
<path d="M23.286 25.4217C22.1692 24.1504 20.5821 23.5 18.6718 23.5C16.7615 23.5 15.1745 24.1504 14.0576 25.4217C13.0584 26.5748 12.5 28.1713 12.5 29.9157C12.5 31.66 13.0584 33.227 14.0283 34.38C15.1451 35.6513 16.7321 36.3313 18.613 36.3313C20.5821 36.3313 22.1986 35.6513 23.286 34.38C24.2558 33.2565 24.8142 31.66 24.8142 29.9157C24.8436 28.1417 24.2852 26.5452 23.286 25.4217ZM18.6718 34.0548C16.3794 34.0548 14.9687 32.4583 14.9687 29.9157C14.9687 27.373 16.3794 25.7765 18.6718 25.7765C20.9642 25.7765 22.4043 27.373 22.4043 29.9157C22.4043 32.4583 20.9642 34.0548 18.6718 34.0548Z" fill="#3A3531"/>
<path d="M43.5935 23.6773L40.3019 23.6477C40.2137 23.6477 40.1256 23.6773 40.0668 23.7364C40.008 23.7955 39.9492 23.8842 39.9492 23.9729V35.7694C39.9492 35.9764 40.0962 36.1242 40.3019 36.1242H42.124C42.2122 36.1242 42.3004 36.0947 42.3592 36.006C42.4179 35.9468 42.4767 35.8581 42.4473 35.7399V32.9016H43.329C45.0924 32.9016 46.4443 32.4581 47.4142 31.5712C48.2959 30.7729 48.7661 29.6199 48.7661 28.2894C48.7367 26.1016 47.3848 23.6773 43.5935 23.6773ZM43.5054 30.6547H42.4179L42.3886 25.9242H43.5935C45.4157 25.9242 46.268 27.166 46.268 28.319C46.268 29.9155 44.8279 30.6547 43.5054 30.6547Z" fill="#3A3531"/>
</g>
<defs>
<clipPath id="clip0_8375_23220">
<rect width="39" height="17" fill="white" transform="translate(12.5 23.5)"/>
</clipPath>
</defs>
</svg>
