<svg width="64" height="64" viewBox="0 0 64 64" fill="none" xmlns="http://www.w3.org/2000/svg">
<rect width="64" height="64" rx="12" fill="white"/>
<path d="M20.9838 37.0143C20.9838 39.2114 19.189 41.0062 16.992 41.0062C14.7949 41.0062 13.0001 39.2114 13.0001 37.0143C13.0001 34.8172 14.7949 33.0225 16.992 33.0225H20.9838V37.0143Z" fill="#E01E5A"/>
<path d="M22.9954 37.0143C22.9954 34.8172 24.7901 33.0225 26.9872 33.0225C29.1843 33.0225 30.9791 34.8172 30.9791 37.0143V47.0094C30.9791 49.2065 29.1843 51.0013 26.9872 51.0013C24.7901 51.0013 22.9954 49.2065 22.9954 47.0094V37.0143Z" fill="#E01E5A"/>
<path d="M26.9872 20.9827C24.7901 20.9827 22.9954 19.1879 22.9954 16.9909C22.9954 14.7938 24.7901 12.999 26.9872 12.999C29.1843 12.999 30.9791 14.7938 30.9791 16.9909V20.9827H26.9872Z" fill="#36C5F0"/>
<path d="M26.9871 22.9941C29.1841 22.9941 30.9789 24.7889 30.9789 26.986C30.9789 29.1831 29.1841 30.9778 26.9871 30.9778H16.992C14.7949 30.9778 13.0001 29.1831 13.0001 26.986C13.0001 24.7889 14.7949 22.9941 16.992 22.9941H26.9871Z" fill="#36C5F0"/>
<path d="M43.0164 26.986C43.0164 24.7889 44.8111 22.9941 47.0082 22.9941C49.2053 22.9941 51.0001 24.7889 51.0001 26.986C51.0001 29.1831 49.2053 30.9778 47.0082 30.9778H43.0164V26.986Z" fill="#2EB67D"/>
<path d="M41.0053 26.986C41.0053 29.183 39.2105 30.9778 37.0135 30.9778C34.8164 30.9778 33.0216 29.183 33.0216 26.986V16.9909C33.0216 14.7938 34.8164 12.999 37.0135 12.999C39.2105 12.999 41.0053 14.7938 41.0053 16.9909V26.986Z" fill="#2EB67D"/>
<path d="M37.013 43.0176C39.21 43.0176 41.0048 44.8124 41.0048 47.0094C41.0048 49.2065 39.21 51.0013 37.013 51.0013C34.8159 51.0013 33.0211 49.2065 33.0211 47.0094V43.0176H37.013Z" fill="#ECB22E"/>
<path d="M37.013 41.0062C34.8159 41.0062 33.0211 39.2114 33.0211 37.0143C33.0211 34.8172 34.8159 33.0225 37.013 33.0225H47.0081C49.2051 33.0225 50.9999 34.8172 50.9999 37.0143C50.9999 39.2114 49.2051 41.0062 47.0081 41.0062H37.013Z" fill="#ECB22E"/>
</svg>
