<svg width="64" height="64" viewBox="0 0 64 64" fill="none" xmlns="http://www.w3.org/2000/svg">
<rect width="64" height="64" rx="12" fill="white"/>
<path fill-rule="evenodd" clip-rule="evenodd" d="M42.7357 33.0586C38.1714 33.0586 34.4715 36.8511 34.4715 41.5294C34.4715 46.2076 38.1714 50 42.7357 50C47.3 50 51 46.2076 51 41.5294C51 36.8511 47.3 33.0586 42.7357 33.0586ZM21.2643 33.0593C16.7001 33.0593 13 36.8511 13 41.5294C13 46.2076 16.7001 50 21.2643 50C25.8287 50 29.529 46.2076 29.529 41.5294C29.529 36.8511 25.8287 33.0593 21.2643 33.0593ZM40.2642 22.4703C40.2642 27.1487 36.5642 30.9415 32.0001 30.9415C27.4356 30.9415 23.7357 27.1487 23.7357 22.4703C23.7357 17.7928 27.4356 14 32.0001 14C36.5642 14 40.2642 17.7928 40.2642 22.4703Z" fill="#F06A6A"/>
</svg>
