<svg width="64" height="64" viewBox="0 0 64 64" fill="none" xmlns="http://www.w3.org/2000/svg">
<rect width="64" height="64" rx="12" fill="white"/>
<g clip-path="url(#clip0_3421_7346)">
<mask id="mask0_3421_7346" style="mask-type:luminance" maskUnits="userSpaceOnUse" x="12" y="14" width="40" height="36">
<path d="M51.4732 14.5527H12.5V49.4475H51.4732V14.5527Z" fill="white"/>
</mask>
<g mask="url(#mask0_3421_7346)">
<path d="M15.4464 44.4597L17.1652 47.4347C17.5223 48.061 18.0357 48.5532 18.6384 48.911L24.7768 38.2637H12.5C12.5 38.9571 12.6786 39.6505 13.0357 40.2768L15.4464 44.4597Z" fill="#0066DA"/>
<path d="M31.9866 25.7372L25.8482 15.0898C25.2455 15.4477 24.7321 15.9398 24.375 16.5662L13.0357 36.2504C12.6851 36.8632 12.5005 37.5571 12.5 38.2635H24.7768L31.9866 25.7372Z" fill="#00AC47"/>
<path d="M45.3349 48.911C45.9375 48.5532 46.4509 48.061 46.808 47.4347L47.5224 46.2045L50.9377 40.2768C51.2946 39.6505 51.4732 38.9571 51.4732 38.2637H39.1956L41.8081 43.4084L45.3349 48.911Z" fill="#EA4335"/>
<path d="M31.9865 25.737L38.125 15.0896C37.5223 14.7317 36.8303 14.5527 36.116 14.5527H27.8571C27.1428 14.5527 26.4508 14.7541 25.8481 15.0896L31.9865 25.737Z" fill="#00832D"/>
<path d="M39.1965 38.2637H24.7768L18.6384 48.911C19.2411 49.2689 19.9331 49.4479 20.6473 49.4479H43.3259C44.0402 49.4479 44.7322 49.2466 45.3349 48.911L39.1965 38.2637Z" fill="#2684FC"/>
<path d="M45.2678 26.4083L39.5982 16.5662C39.2411 15.9398 38.7277 15.4477 38.125 15.0898L31.9866 25.7372L39.1964 38.2635H51.4509C51.4509 37.5701 51.2722 36.8767 50.9153 36.2504L45.2678 26.4083Z" fill="#FFBA00"/>
</g>
</g>
<defs>
<clipPath id="clip0_3421_7346">
<rect width="39" height="34.8947" fill="white" transform="translate(12.5 14.5527)"/>
</clipPath>
</defs>
</svg>
