<svg width="64" height="64" viewBox="0 0 64 64" fill="none" xmlns="http://www.w3.org/2000/svg">
<rect width="64" height="64" rx="12" fill="white"/>
<path d="M25.9758 42.9895C25.9758 42.8408 25.8306 42.6922 25.6129 42.6922C25.3952 42.6922 25.25 42.8408 25.25 42.9895C25.25 43.1382 25.3952 43.2868 25.6129 43.2125C25.8306 43.2125 25.9758 43.1382 25.9758 42.9895ZM23.7258 42.6178C23.7984 42.4692 24.0161 42.3948 24.2339 42.4692C24.4516 42.5435 24.5242 42.6922 24.5242 42.8408C24.4516 42.9895 24.2339 43.0638 24.0887 42.9895C23.871 42.9895 23.7258 42.7665 23.7258 42.6178ZM26.9919 42.5435C27.1371 42.4692 27.3548 42.6178 27.3548 42.7665C27.4274 42.9152 27.2823 42.9895 27.0645 43.0638C26.8468 43.1382 26.629 43.0638 26.629 42.9152C26.629 42.6922 26.7742 42.5435 26.9919 42.5435ZM31.7097 14C41.7984 14 50 21.8792 50 32.137C50 40.3879 45.0645 47.4494 37.8065 49.9024C36.8629 50.1254 36.5 49.5307 36.5 49.0104C36.5 48.4157 36.5726 45.2938 36.5726 42.8408C36.5726 41.0569 35.9919 39.9419 35.3387 39.3472C39.4032 38.9012 43.6855 38.3066 43.6855 31.1707C43.6855 29.0894 42.9597 28.1231 41.7984 26.7851C41.9435 26.2648 42.5968 24.3322 41.5806 21.7305C40.0564 21.2102 36.5726 23.7375 36.5726 23.7375C35.121 23.2915 33.5968 23.1428 32 23.1428C30.4758 23.1428 28.9516 23.2915 27.5 23.7375C27.5 23.7375 23.9435 21.2845 22.4919 21.7305C21.4758 24.3322 22.0565 26.2648 22.2742 26.7851C21.1129 28.1231 20.5323 29.0894 20.5323 31.1707C20.5323 38.3066 24.6694 38.9012 28.7339 39.3472C28.1532 39.8676 27.7177 40.6852 27.5726 41.8745C26.4839 42.3948 23.871 43.2125 22.2742 40.3135C21.2581 38.5296 19.4435 38.3809 19.4435 38.3809C17.7016 38.3809 19.371 39.5702 19.371 39.5702C20.5323 40.0906 21.3306 42.2462 21.3306 42.2462C22.4194 45.5911 27.5 44.4761 27.5 44.4761C27.5 46.0371 27.5 48.5644 27.5 49.0847C27.5 49.5307 27.2097 50.1254 26.2661 49.9767C19.0081 47.4494 14 40.3879 14 32.137C14 21.8792 21.6935 14 31.7097 14ZM21.0403 39.6446C21.1129 39.5702 21.2581 39.6446 21.4032 39.7189C21.5484 39.8676 21.5484 40.0906 21.4758 40.1649C21.3306 40.2392 21.1855 40.1649 21.0403 40.0906C20.9677 39.9419 20.8952 39.7189 21.0403 39.6446ZM20.2419 39.0499C20.3145 38.9756 20.3871 38.9756 20.5323 39.0499C20.6774 39.1242 20.75 39.1986 20.75 39.2729C20.6774 39.4216 20.5323 39.4216 20.3871 39.3472C20.2419 39.2729 20.1694 39.1986 20.2419 39.0499ZM22.5645 41.7259C22.7097 41.5772 22.9274 41.6515 23.0726 41.8002C23.2177 41.9489 23.2177 42.1719 23.1452 42.2462C23.0726 42.3948 22.8548 42.3205 22.7097 42.1719C22.4919 42.0232 22.4919 41.8002 22.5645 41.7259ZM21.7661 40.6109C21.9113 40.5365 22.0565 40.6109 22.2016 40.7595C22.2742 40.9082 22.2742 41.1312 22.2016 41.2055C22.0565 41.2799 21.9113 41.2055 21.7661 41.0569C21.621 40.9082 21.621 40.6852 21.7661 40.6109Z" fill="#0E1114"/>
</svg>
