<svg width="36" height="30" viewBox="0 0 36 30" fill="none" xmlns="http://www.w3.org/2000/svg">
<path d="M13.0512 0.52784C13.0417 0.55568 11.9256 3.12392 11.1021 5.024C10.9046 5.4764 10.6286 6.1144 10.4882 6.4392C9.95746 7.66416 9.30539 9.17216 8.92938 10.0352C8.24399 11.6151 7.77755 12.6916 6.81134 14.9188C6.29254 16.1182 5.7785 17.3038 5.66903 17.552C5.55956 17.8002 5.10502 18.8489 4.65761 19.8836C4.21021 20.916 3.43201 22.7117 2.92749 23.874C2.42297 25.034 1.86847 26.3146 1.69474 26.716C1.52102 27.1174 1.25686 27.7229 1.11169 28.0616C0.899885 28.5465 0.647625 29.1311 0.500076 29.4698C0.490557 29.493 1.37109 29.5 4.85276 29.5H9.21734L9.43628 28.9966C9.55527 28.7182 9.85037 28.0361 10.0907 27.4816C10.3335 26.9271 11.1164 25.1198 11.8328 23.468C14.0127 18.4406 16.3734 12.9978 16.7828 12.0536C17.4253 10.5734 18.3463 8.446 19.679 5.372C19.8765 4.9196 20.1835 4.20968 20.3644 3.7944C20.6357 3.17032 21.6471 0.84104 21.7613 0.57424L21.7923 0.5H17.4277C13.9579 0.5 13.0607 0.50696 13.0512 0.52784Z" fill="#526FDA"/>
<path d="M25.2192 8.21863C24.9527 8.85431 24.4339 10.0932 24.065 10.9748C21.5852 16.8908 21.1926 17.8327 21.2021 17.842C21.2092 17.849 23.2868 17.8513 25.8189 17.849L30.4239 17.842L30.2097 17.3548C29.7337 16.2644 28.9436 14.4525 28.4319 13.2832C27.2801 10.65 26.1568 8.07943 25.9641 7.63399C25.8522 7.37879 25.7475 7.14447 25.7332 7.11663C25.7071 7.06559 25.6595 7.16999 25.2192 8.21863Z" fill="#526FDA"/>
<path d="M23.2677 22.881C23.2677 22.9042 23.2225 22.7975 25.0954 27.122C25.5928 28.2704 26.0259 29.2726 26.0592 29.3492L26.1187 29.4884L30.8093 29.4954L35.4999 29.5L35.4785 29.449C35.4547 29.3886 35.2857 29.0012 34.2862 26.6928C33.8912 25.781 33.4176 24.6883 33.2343 24.2684C33.0535 23.8462 32.8417 23.359 32.7679 23.185L32.6322 22.8648H27.9511C25.3738 22.8648 23.2677 22.8718 23.2677 22.881Z" fill="#526FDA"/>
</svg>
