<svg width="36" height="36" viewBox="0 0 36 36" fill="none" xmlns="http://www.w3.org/2000/svg">
<path d="M18.0017 0C13.1131 0 12.4996 0.0213688 10.5796 0.108749C8.66334 0.196496 7.35533 0.499875 6.21081 0.945018C5.02693 1.40475 4.02266 2.01975 3.02216 3.02062C2.02091 4.02114 1.40589 5.02537 0.944637 6.20888C0.498374 7.35376 0.194614 8.66212 0.108377 10.5776C0.0225063 12.4976 0 13.1115 0 18C0 22.8885 0.0217558 23.5001 0.108743 25.4201C0.196883 27.3364 0.500259 28.6444 0.945003 29.7889C1.40514 30.9728 2.02014 31.977 3.02102 32.9775C4.02118 33.9788 5.02543 34.5953 6.20856 35.055C7.35381 35.5001 8.66222 35.8035 10.5781 35.8913C12.4981 35.9786 13.1113 36 17.9994 36C22.8884 36 23.5 35.9786 25.42 35.8913C27.3363 35.8035 28.6458 35.5001 29.7911 35.055C30.9746 34.5953 31.9773 33.9788 32.9775 32.9775C33.9787 31.977 34.5937 30.9728 35.055 29.7893C35.4975 28.6444 35.8013 27.336 35.8913 25.4205C35.9775 23.5005 36 22.8885 36 18C36 13.1115 35.9775 12.498 35.8913 10.578C35.8013 8.66174 35.4975 7.35376 35.055 6.20926C34.5937 5.02537 33.9787 4.02112 32.9775 3.02062C31.9762 2.01937 30.9749 1.40437 29.7899 0.945C28.6424 0.499875 27.3337 0.196496 25.4174 0.108749C23.4974 0.0213688 22.8861 0 17.9961 0H18.0017ZM16.3869 3.24376C16.8662 3.24301 17.4009 3.24376 18.0017 3.24376C22.8077 3.24376 23.3774 3.26101 25.2753 3.34725C27.0303 3.42751 27.9828 3.72074 28.6173 3.96712C29.4573 4.29337 30.0562 4.68338 30.6858 5.31337C31.3158 5.94338 31.7058 6.54338 32.0328 7.38337C32.2792 8.01712 32.5728 8.96962 32.6527 10.7246C32.739 12.6221 32.7577 13.1921 32.7577 17.9959C32.7577 22.7996 32.739 23.3696 32.6527 25.2671C32.5725 27.0221 32.2792 27.9746 32.0328 28.6084C31.7066 29.4484 31.3158 30.0465 30.6858 30.6761C30.0558 31.3061 29.4577 31.6961 28.6173 32.0224C27.9835 32.2699 27.0303 32.5624 25.2753 32.6426C23.3778 32.7289 22.8077 32.7476 18.0017 32.7476C13.1953 32.7476 12.6256 32.7289 10.7281 32.6426C8.9731 32.5616 8.0206 32.2684 7.3857 32.022C6.54569 31.6958 5.94567 31.3057 5.31568 30.6758C4.68568 30.0458 4.29568 29.4473 3.96866 28.6069C3.72228 27.9731 3.42866 27.0206 3.34879 25.2656C3.26254 23.3681 3.24528 22.7981 3.24528 17.9914C3.24528 13.1846 3.26254 12.6176 3.34879 10.7201C3.42904 8.96512 3.72228 8.01263 3.96866 7.37813C4.29491 6.53813 4.68568 5.93813 5.31568 5.30813C5.94567 4.67812 6.54569 4.28813 7.3857 3.96113C8.02021 3.71362 8.9731 3.42114 10.7281 3.3405C12.3886 3.26549 13.0321 3.24301 16.3869 3.23923L16.3869 3.24376ZM27.61 6.2325C26.4175 6.2325 25.45 7.19888 25.45 8.39174C25.45 9.58425 26.4175 10.5518 27.61 10.5518C28.8025 10.5518 29.7701 9.58425 29.7701 8.39174C29.7701 7.19925 28.8025 6.23176 27.61 6.23176L27.61 6.2325ZM18.0017 8.75624C12.8968 8.75624 8.75785 12.8951 8.75785 18C8.75785 23.1049 12.8968 27.2419 18.0017 27.2419C23.1066 27.2419 27.244 23.1049 27.244 18C27.244 12.8951 23.1062 8.75624 18.0013 8.75624H18.0017ZM18.0017 12C21.3152 12 24.0018 14.6861 24.0018 18C24.0018 21.3135 21.3152 24 18.0017 24C14.6878 24 12.0016 21.3135 12.0016 18C12.0016 14.6861 14.6878 12 18.0017 12Z" fill="url(#paint0_linear_8505_21892)"/>
<defs>
<linearGradient id="paint0_linear_8505_21892" x1="36" y1="0" x2="0" y2="36" gradientUnits="userSpaceOnUse">
<stop stop-color="#5454EE"/>
<stop offset="0.156937" stop-color="#783EEA"/>
<stop offset="0.41055" stop-color="#E5197E"/>
<stop offset="0.617923" stop-color="#E87854"/>
<stop offset="0.809884" stop-color="#ECB02F"/>
<stop offset="0.913571" stop-color="#EC912F"/>
</linearGradient>
</defs>
</svg>
