<svg width="64" height="64" viewBox="0 0 64 64" fill="none" xmlns="http://www.w3.org/2000/svg">
<rect width="64" height="64" rx="12" fill="#5865F2"/>
<g clip-path="url(#clip0_3421_7906)">
<path d="M44.4955 20.6425C42.1302 19.5596 39.6333 18.7914 37.0684 18.3574C36.7174 18.9849 36.3998 19.6304 36.117 20.2914C33.3849 19.8797 30.6065 19.8797 27.8744 20.2914C27.5915 19.6305 27.2739 18.9849 26.923 18.3574C24.3565 18.795 21.8579 19.5651 19.4903 20.6481C14.79 27.6023 13.5158 34.3838 14.1529 41.0691C16.9055 43.1028 19.9865 44.6496 23.2619 45.642C23.9994 44.65 24.652 43.5977 25.2128 42.4962C24.1477 42.0984 23.1196 41.6075 22.1406 41.0294C22.3983 40.8426 22.6503 40.65 22.8938 40.4631C25.7426 41.8028 28.8519 42.4975 32 42.4975C35.1481 42.4975 38.2574 41.8028 41.1062 40.4631C41.3525 40.6642 41.6045 40.8567 41.8593 41.0294C40.8784 41.6085 39.8485 42.1002 38.7815 42.499C39.3416 43.6 39.9942 44.6515 40.7324 45.642C44.0106 44.6535 47.0939 43.1076 49.8471 41.0719C50.5946 33.3192 48.5701 26.6 44.4955 20.6425ZM26.0198 36.9577C24.2444 36.9577 22.7777 35.3466 22.7777 33.3645C22.7777 31.3824 24.1935 29.7571 26.0141 29.7571C27.8348 29.7571 29.2902 31.3824 29.2591 33.3645C29.2279 35.3466 27.8291 36.9577 26.0198 36.9577ZM37.9802 36.9577C36.202 36.9577 34.7409 35.3466 34.7409 33.3645C34.7409 31.3824 36.1567 29.7571 37.9802 29.7571C39.8037 29.7571 41.2477 31.3824 41.2166 33.3645C41.1854 35.3466 39.7895 36.9577 37.9802 36.9577Z" fill="white"/>
</g>
<defs>
<clipPath id="clip0_3421_7906">
<rect width="36" height="27.2846" fill="white" transform="translate(14 18.3574)"/>
</clipPath>
</defs>
</svg>
