<svg width="64" height="64" viewBox="0 0 64 64" fill="none" xmlns="http://www.w3.org/2000/svg">
<g clip-path="url(#clip0_3421_7365)">
<rect width="64" height="64" rx="12" fill="white"/>
<g clip-path="url(#clip1_3421_7365)">
<path d="M64 18.6875H0V64H64V18.6875Z" fill="white"/>
<path d="M64 0H0V18.6875H64V0Z" fill="url(#paint0_linear_3421_7365)"/>
<g filter="url(#filter0_i_3421_7365)">
<path d="M64 0H0V18.6875H64V0Z" fill="black"/>
</g>
<path fill-rule="evenodd" clip-rule="evenodd" d="M64 50.5625V51.0938H0V50.5625H64ZM64 36.1875V36.7188H0V36.1875H64Z" fill="black" fill-opacity="0.29"/>
<g filter="url(#filter1_d_3421_7365)">
<path d="M1.2998 24C1.72319 24 2.06641 23.6568 2.06641 23.2334C2.06641 22.81 1.72319 22.4668 1.2998 22.4668C0.876422 22.4668 0.533203 22.81 0.533203 23.2334C0.533203 23.6568 0.876422 24 1.2998 24ZM4.36621 24C4.78959 24 5.13281 23.6568 5.13281 23.2334C5.13281 22.81 4.78959 22.4668 4.36621 22.4668C3.94283 22.4668 3.59961 22.81 3.59961 23.2334C3.59961 23.6568 3.94283 24 4.36621 24ZM7.43262 24C7.856 24 8.19922 23.6568 8.19922 23.2334C8.19922 22.81 7.856 22.4668 7.43262 22.4668C7.00923 22.4668 6.66602 22.81 6.66602 23.2334C6.66602 23.6568 7.00923 24 7.43262 24ZM10.499 24C10.9224 24 11.2656 23.6568 11.2656 23.2334C11.2656 22.81 10.9224 22.4668 10.499 22.4668C10.0756 22.4668 9.73242 22.81 9.73242 23.2334C9.73242 23.6568 10.0756 24 10.499 24ZM13.5654 24C13.9888 24 14.332 23.6568 14.332 23.2334C14.332 22.81 13.9888 22.4668 13.5654 22.4668C13.142 22.4668 12.7988 22.81 12.7988 23.2334C12.7988 23.6568 13.142 24 13.5654 24ZM16.6318 24C17.0552 24 17.3984 23.6568 17.3984 23.2334C17.3984 22.81 17.0552 22.4668 16.6318 22.4668C16.2085 22.4668 15.8652 22.81 15.8652 23.2334C15.8652 23.6568 16.2085 24 16.6318 24ZM19.6982 24C20.1216 24 20.4648 23.6568 20.4648 23.2334C20.4648 22.81 20.1216 22.4668 19.6982 22.4668C19.2749 22.4668 18.9316 22.81 18.9316 23.2334C18.9316 23.6568 19.2749 24 19.6982 24ZM22.7646 24C23.188 24 23.5312 23.6568 23.5312 23.2334C23.5312 22.81 23.188 22.4668 22.7646 22.4668C22.3413 22.4668 21.998 22.81 21.998 23.2334C21.998 23.6568 22.3413 24 22.7646 24ZM25.8311 24C26.2544 24 26.5977 23.6568 26.5977 23.2334C26.5977 22.81 26.2544 22.4668 25.8311 22.4668C25.4077 22.4668 25.0645 22.81 25.0645 23.2334C25.0645 23.6568 25.4077 24 25.8311 24ZM28.8975 24C29.3208 24 29.6641 23.6568 29.6641 23.2334C29.6641 22.81 29.3208 22.4668 28.8975 22.4668C28.4741 22.4668 28.1309 22.81 28.1309 23.2334C28.1309 23.6568 28.4741 24 28.8975 24ZM31.9639 24C32.3872 24 32.7305 23.6568 32.7305 23.2334C32.7305 22.81 32.3872 22.4668 31.9639 22.4668C31.5405 22.4668 31.1973 22.81 31.1973 23.2334C31.1973 23.6568 31.5405 24 31.9639 24ZM35.0303 24C35.4537 24 35.7969 23.6568 35.7969 23.2334C35.7969 22.81 35.4537 22.4668 35.0303 22.4668C34.6069 22.4668 34.2637 22.81 34.2637 23.2334C34.2637 23.6568 34.6069 24 35.0303 24ZM38.0967 24C38.5201 24 38.8633 23.6568 38.8633 23.2334C38.8633 22.81 38.5201 22.4668 38.0967 22.4668C37.6733 22.4668 37.3301 22.81 37.3301 23.2334C37.3301 23.6568 37.6733 24 38.0967 24ZM41.1631 24C41.5865 24 41.9297 23.6568 41.9297 23.2334C41.9297 22.81 41.5865 22.4668 41.1631 22.4668C40.7397 22.4668 40.3965 22.81 40.3965 23.2334C40.3965 23.6568 40.7397 24 41.1631 24ZM44.2295 24C44.6529 24 44.9961 23.6568 44.9961 23.2334C44.9961 22.81 44.6529 22.4668 44.2295 22.4668C43.8061 22.4668 43.4629 22.81 43.4629 23.2334C43.4629 23.6568 43.8061 24 44.2295 24ZM47.2959 24C47.7193 24 48.0625 23.6568 48.0625 23.2334C48.0625 22.81 47.7193 22.4668 47.2959 22.4668C46.8725 22.4668 46.5293 22.81 46.5293 23.2334C46.5293 23.6568 46.8725 24 47.2959 24ZM50.3623 24C50.7857 24 51.1289 23.6568 51.1289 23.2334C51.1289 22.81 50.7857 22.4668 50.3623 22.4668C49.9389 22.4668 49.5957 22.81 49.5957 23.2334C49.5957 23.6568 49.9389 24 50.3623 24ZM53.4287 24C53.8521 24 54.1953 23.6568 54.1953 23.2334C54.1953 22.81 53.8521 22.4668 53.4287 22.4668C53.0053 22.4668 52.6621 22.81 52.6621 23.2334C52.6621 23.6568 53.0053 24 53.4287 24ZM56.4951 24C56.9185 24 57.2617 23.6568 57.2617 23.2334C57.2617 22.81 56.9185 22.4668 56.4951 22.4668C56.0717 22.4668 55.7285 22.81 55.7285 23.2334C55.7285 23.6568 56.0717 24 56.4951 24ZM59.5615 24C59.9849 24 60.3281 23.6568 60.3281 23.2334C60.3281 22.81 59.9849 22.4668 59.5615 22.4668C59.1381 22.4668 58.7949 22.81 58.7949 23.2334C58.7949 23.6568 59.1381 24 59.5615 24ZM62.6279 24C63.0513 24 63.3945 23.6568 63.3945 23.2334C63.3945 22.81 63.0513 22.4668 62.6279 22.4668C62.2045 22.4668 61.8613 22.81 61.8613 23.2334C61.8613 23.6568 62.2045 24 62.6279 24ZM65.6943 24C66.1177 24 66.4609 23.6568 66.4609 23.2334C66.4609 22.81 66.1177 22.4668 65.6943 22.4668C65.2709 22.4668 64.9277 22.81 64.9277 23.2334C64.9277 23.6568 65.2709 24 65.6943 24ZM68.7607 24C69.1841 24 69.5273 23.6568 69.5273 23.2334C69.5273 22.81 69.1841 22.4668 68.7607 22.4668C68.3373 22.4668 67.9941 22.81 67.9941 23.2334C67.9941 23.6568 68.3373 24 68.7607 24ZM71.8271 24C72.2505 24 72.5937 23.6568 72.5937 23.2334C72.5937 22.81 72.2505 22.4668 71.8271 22.4668C71.4038 22.4668 71.0605 22.81 71.0605 23.2334C71.0605 23.6568 71.4038 24 71.8271 24ZM74.8935 24C75.3169 24 75.6601 23.6568 75.6601 23.2334C75.6601 22.81 75.3169 22.4668 74.8935 22.4668C74.4702 22.4668 74.1269 22.81 74.1269 23.2334C74.1269 23.6568 74.4702 24 74.8935 24ZM77.96 24C78.3833 24 78.7266 23.6568 78.7266 23.2334C78.7266 22.81 78.3833 22.4668 77.96 22.4668C77.5366 22.4668 77.1933 22.81 77.1933 23.2334C77.1933 23.6568 77.5366 24 77.96 24ZM81.0264 24C81.4497 24 81.793 23.6568 81.793 23.2334C81.793 22.81 81.4497 22.4668 81.0264 22.4668C80.603 22.4668 80.2598 22.81 80.2598 23.2334C80.2598 23.6568 80.603 24 81.0264 24ZM84.0928 24C84.5161 24 84.8594 23.6568 84.8594 23.2334C84.8594 22.81 84.5161 22.4668 84.0928 22.4668C83.6694 22.4668 83.3262 22.81 83.3262 23.2334C83.3262 23.6568 83.6694 24 84.0928 24ZM87.1592 24C87.5826 24 87.9258 23.6568 87.9258 23.2334C87.9258 22.81 87.5826 22.4668 87.1592 22.4668C86.7358 22.4668 86.3926 22.81 86.3926 23.2334C86.3926 23.6568 86.7358 24 87.1592 24ZM90.2256 24C90.649 24 90.9922 23.6568 90.9922 23.2334C90.9922 22.81 90.649 22.4668 90.2256 22.4668C89.8022 22.4668 89.459 22.81 89.459 23.2334C89.459 23.6568 89.8022 24 90.2256 24Z" fill="black"/>
</g>
<path d="M1.2998 24C1.72319 24 2.06641 23.6568 2.06641 23.2334C2.06641 22.81 1.72319 22.4668 1.2998 22.4668C0.876422 22.4668 0.533203 22.81 0.533203 23.2334C0.533203 23.6568 0.876422 24 1.2998 24ZM4.36621 24C4.78959 24 5.13281 23.6568 5.13281 23.2334C5.13281 22.81 4.78959 22.4668 4.36621 22.4668C3.94283 22.4668 3.59961 22.81 3.59961 23.2334C3.59961 23.6568 3.94283 24 4.36621 24ZM7.43262 24C7.856 24 8.19922 23.6568 8.19922 23.2334C8.19922 22.81 7.856 22.4668 7.43262 22.4668C7.00923 22.4668 6.66602 22.81 6.66602 23.2334C6.66602 23.6568 7.00923 24 7.43262 24ZM10.499 24C10.9224 24 11.2656 23.6568 11.2656 23.2334C11.2656 22.81 10.9224 22.4668 10.499 22.4668C10.0756 22.4668 9.73242 22.81 9.73242 23.2334C9.73242 23.6568 10.0756 24 10.499 24ZM13.5654 24C13.9888 24 14.332 23.6568 14.332 23.2334C14.332 22.81 13.9888 22.4668 13.5654 22.4668C13.142 22.4668 12.7988 22.81 12.7988 23.2334C12.7988 23.6568 13.142 24 13.5654 24ZM16.6318 24C17.0552 24 17.3984 23.6568 17.3984 23.2334C17.3984 22.81 17.0552 22.4668 16.6318 22.4668C16.2085 22.4668 15.8652 22.81 15.8652 23.2334C15.8652 23.6568 16.2085 24 16.6318 24ZM19.6982 24C20.1216 24 20.4648 23.6568 20.4648 23.2334C20.4648 22.81 20.1216 22.4668 19.6982 22.4668C19.2749 22.4668 18.9316 22.81 18.9316 23.2334C18.9316 23.6568 19.2749 24 19.6982 24ZM22.7646 24C23.188 24 23.5312 23.6568 23.5312 23.2334C23.5312 22.81 23.188 22.4668 22.7646 22.4668C22.3413 22.4668 21.998 22.81 21.998 23.2334C21.998 23.6568 22.3413 24 22.7646 24ZM25.8311 24C26.2544 24 26.5977 23.6568 26.5977 23.2334C26.5977 22.81 26.2544 22.4668 25.8311 22.4668C25.4077 22.4668 25.0645 22.81 25.0645 23.2334C25.0645 23.6568 25.4077 24 25.8311 24ZM28.8975 24C29.3208 24 29.6641 23.6568 29.6641 23.2334C29.6641 22.81 29.3208 22.4668 28.8975 22.4668C28.4741 22.4668 28.1309 22.81 28.1309 23.2334C28.1309 23.6568 28.4741 24 28.8975 24ZM31.9639 24C32.3872 24 32.7305 23.6568 32.7305 23.2334C32.7305 22.81 32.3872 22.4668 31.9639 22.4668C31.5405 22.4668 31.1973 22.81 31.1973 23.2334C31.1973 23.6568 31.5405 24 31.9639 24ZM35.0303 24C35.4537 24 35.7969 23.6568 35.7969 23.2334C35.7969 22.81 35.4537 22.4668 35.0303 22.4668C34.6069 22.4668 34.2637 22.81 34.2637 23.2334C34.2637 23.6568 34.6069 24 35.0303 24ZM38.0967 24C38.5201 24 38.8633 23.6568 38.8633 23.2334C38.8633 22.81 38.5201 22.4668 38.0967 22.4668C37.6733 22.4668 37.3301 22.81 37.3301 23.2334C37.3301 23.6568 37.6733 24 38.0967 24ZM41.1631 24C41.5865 24 41.9297 23.6568 41.9297 23.2334C41.9297 22.81 41.5865 22.4668 41.1631 22.4668C40.7397 22.4668 40.3965 22.81 40.3965 23.2334C40.3965 23.6568 40.7397 24 41.1631 24ZM44.2295 24C44.6529 24 44.9961 23.6568 44.9961 23.2334C44.9961 22.81 44.6529 22.4668 44.2295 22.4668C43.8061 22.4668 43.4629 22.81 43.4629 23.2334C43.4629 23.6568 43.8061 24 44.2295 24ZM47.2959 24C47.7193 24 48.0625 23.6568 48.0625 23.2334C48.0625 22.81 47.7193 22.4668 47.2959 22.4668C46.8725 22.4668 46.5293 22.81 46.5293 23.2334C46.5293 23.6568 46.8725 24 47.2959 24ZM50.3623 24C50.7857 24 51.1289 23.6568 51.1289 23.2334C51.1289 22.81 50.7857 22.4668 50.3623 22.4668C49.9389 22.4668 49.5957 22.81 49.5957 23.2334C49.5957 23.6568 49.9389 24 50.3623 24ZM53.4287 24C53.8521 24 54.1953 23.6568 54.1953 23.2334C54.1953 22.81 53.8521 22.4668 53.4287 22.4668C53.0053 22.4668 52.6621 22.81 52.6621 23.2334C52.6621 23.6568 53.0053 24 53.4287 24ZM56.4951 24C56.9185 24 57.2617 23.6568 57.2617 23.2334C57.2617 22.81 56.9185 22.4668 56.4951 22.4668C56.0717 22.4668 55.7285 22.81 55.7285 23.2334C55.7285 23.6568 56.0717 24 56.4951 24ZM59.5615 24C59.9849 24 60.3281 23.6568 60.3281 23.2334C60.3281 22.81 59.9849 22.4668 59.5615 22.4668C59.1381 22.4668 58.7949 22.81 58.7949 23.2334C58.7949 23.6568 59.1381 24 59.5615 24ZM62.6279 24C63.0513 24 63.3945 23.6568 63.3945 23.2334C63.3945 22.81 63.0513 22.4668 62.6279 22.4668C62.2045 22.4668 61.8613 22.81 61.8613 23.2334C61.8613 23.6568 62.2045 24 62.6279 24ZM65.6943 24C66.1177 24 66.4609 23.6568 66.4609 23.2334C66.4609 22.81 66.1177 22.4668 65.6943 22.4668C65.2709 22.4668 64.9277 22.81 64.9277 23.2334C64.9277 23.6568 65.2709 24 65.6943 24ZM68.7607 24C69.1841 24 69.5273 23.6568 69.5273 23.2334C69.5273 22.81 69.1841 22.4668 68.7607 22.4668C68.3373 22.4668 67.9941 22.81 67.9941 23.2334C67.9941 23.6568 68.3373 24 68.7607 24ZM71.8271 24C72.2505 24 72.5937 23.6568 72.5937 23.2334C72.5937 22.81 72.2505 22.4668 71.8271 22.4668C71.4038 22.4668 71.0605 22.81 71.0605 23.2334C71.0605 23.6568 71.4038 24 71.8271 24ZM74.8935 24C75.3169 24 75.6601 23.6568 75.6601 23.2334C75.6601 22.81 75.3169 22.4668 74.8935 22.4668C74.4702 22.4668 74.1269 22.81 74.1269 23.2334C74.1269 23.6568 74.4702 24 74.8935 24ZM77.96 24C78.3833 24 78.7266 23.6568 78.7266 23.2334C78.7266 22.81 78.3833 22.4668 77.96 22.4668C77.5366 22.4668 77.1933 22.81 77.1933 23.2334C77.1933 23.6568 77.5366 24 77.96 24ZM81.0264 24C81.4497 24 81.793 23.6568 81.793 23.2334C81.793 22.81 81.4497 22.4668 81.0264 22.4668C80.603 22.4668 80.2598 22.81 80.2598 23.2334C80.2598 23.6568 80.603 24 81.0264 24ZM84.0928 24C84.5161 24 84.8594 23.6568 84.8594 23.2334C84.8594 22.81 84.5161 22.4668 84.0928 22.4668C83.6694 22.4668 83.3262 22.81 83.3262 23.2334C83.3262 23.6568 83.6694 24 84.0928 24ZM87.1592 24C87.5826 24 87.9258 23.6568 87.9258 23.2334C87.9258 22.81 87.5826 22.4668 87.1592 22.4668C86.7358 22.4668 86.3926 22.81 86.3926 23.2334C86.3926 23.6568 86.7358 24 87.1592 24ZM90.2256 24C90.649 24 90.9922 23.6568 90.9922 23.2334C90.9922 22.81 90.649 22.4668 90.2256 22.4668C89.8022 22.4668 89.459 22.81 89.459 23.2334C89.459 23.6568 89.8022 24 90.2256 24Z" fill="#AAAAAA"/>
<g filter="url(#filter2_dd_3421_7365)">
<path d="M64 0H0V6H64V0Z" fill="black"/>
</g>
<path d="M64 0H0V19.75H64V0Z" fill="#FFDB4C"/>
<g filter="url(#filter3_ii_3421_7365)">
<path d="M64 0H0V19.75H64V0Z" fill="black"/>
</g>
</g>
</g>
<defs>
<filter id="filter0_i_3421_7365" x="0" y="0" width="64" height="22.6875" filterUnits="userSpaceOnUse" color-interpolation-filters="sRGB">
<feFlood flood-opacity="0" result="BackgroundImageFix"/>
<feBlend mode="normal" in="SourceGraphic" in2="BackgroundImageFix" result="shape"/>
<feColorMatrix in="SourceAlpha" type="matrix" values="0 0 0 0 0 0 0 0 0 0 0 0 0 0 0 0 0 0 127 0" result="hardAlpha"/>
<feOffset dy="17"/>
<feGaussianBlur stdDeviation="2"/>
<feComposite in2="hardAlpha" operator="arithmetic" k2="-1" k3="1"/>
<feColorMatrix type="matrix" values="0 0 0 0 1 0 0 0 0 0.878431 0 0 0 0 0.4 0 0 0 1 0"/>
<feBlend mode="normal" in2="shape" result="effect1_innerShadow_3421_7365"/>
</filter>
<filter id="filter1_d_3421_7365" x="0.533203" y="22.4668" width="90.459" height="18.5332" filterUnits="userSpaceOnUse" color-interpolation-filters="sRGB">
<feFlood flood-opacity="0" result="BackgroundImageFix"/>
<feColorMatrix in="SourceAlpha" type="matrix" values="0 0 0 0 0 0 0 0 0 0 0 0 0 0 0 0 0 0 127 0" result="hardAlpha"/>
<feOffset dy="17"/>
<feColorMatrix type="matrix" values="0 0 0 0 1 0 0 0 0 1 0 0 0 0 1 0 0 0 0.1 0"/>
<feBlend mode="normal" in2="BackgroundImageFix" result="effect1_dropShadow_3421_7365"/>
<feBlend mode="normal" in="SourceGraphic" in2="effect1_dropShadow_3421_7365" result="shape"/>
</filter>
<filter id="filter2_dd_3421_7365" x="-40" y="-18" width="144" height="86" filterUnits="userSpaceOnUse" color-interpolation-filters="sRGB">
<feFlood flood-opacity="0" result="BackgroundImageFix"/>
<feColorMatrix in="SourceAlpha" type="matrix" values="0 0 0 0 0 0 0 0 0 0 0 0 0 0 0 0 0 0 127 0" result="hardAlpha"/>
<feOffset dy="22"/>
<feGaussianBlur stdDeviation="20"/>
<feColorMatrix type="matrix" values="0 0 0 0 0 0 0 0 0 0 0 0 0 0 0 0 0 0 0.1 0"/>
<feBlend mode="normal" in2="BackgroundImageFix" result="effect1_dropShadow_3421_7365"/>
<feColorMatrix in="SourceAlpha" type="matrix" values="0 0 0 0 0 0 0 0 0 0 0 0 0 0 0 0 0 0 127 0" result="hardAlpha"/>
<feOffset dy="14"/>
<feGaussianBlur stdDeviation="2"/>
<feColorMatrix type="matrix" values="0 0 0 0 0 0 0 0 0 0 0 0 0 0 0 0 0 0 0.3 0"/>
<feBlend mode="normal" in2="effect1_dropShadow_3421_7365" result="effect2_dropShadow_3421_7365"/>
<feBlend mode="normal" in="SourceGraphic" in2="effect2_dropShadow_3421_7365" result="shape"/>
</filter>
<filter id="filter3_ii_3421_7365" x="0" y="-4" width="64" height="27.75" filterUnits="userSpaceOnUse" color-interpolation-filters="sRGB">
<feFlood flood-opacity="0" result="BackgroundImageFix"/>
<feBlend mode="normal" in="SourceGraphic" in2="BackgroundImageFix" result="shape"/>
<feColorMatrix in="SourceAlpha" type="matrix" values="0 0 0 0 0 0 0 0 0 0 0 0 0 0 0 0 0 0 127 0" result="hardAlpha"/>
<feOffset dy="17"/>
<feGaussianBlur stdDeviation="2"/>
<feComposite in2="hardAlpha" operator="arithmetic" k2="-1" k3="1"/>
<feColorMatrix type="matrix" values="0 0 0 0 1 0 0 0 0 0.878431 0 0 0 0 0.4 0 0 0 1 0"/>
<feBlend mode="normal" in2="shape" result="effect1_innerShadow_3421_7365"/>
<feColorMatrix in="SourceAlpha" type="matrix" values="0 0 0 0 0 0 0 0 0 0 0 0 0 0 0 0 0 0 127 0" result="hardAlpha"/>
<feOffset dy="-17"/>
<feGaussianBlur stdDeviation="2"/>
<feComposite in2="hardAlpha" operator="arithmetic" k2="-1" k3="1"/>
<feColorMatrix type="matrix" values="0 0 0 0 0.945833 0 0 0 0 0.762099 0 0 0 0 0.0394097 0 0 0 1 0"/>
<feBlend mode="normal" in2="effect1_innerShadow_3421_7365" result="effect2_innerShadow_3421_7365"/>
</filter>
<linearGradient id="paint0_linear_3421_7365" x1="3200" y1="0" x2="3200" y2="1868.75" gradientUnits="userSpaceOnUse">
<stop stop-color="#FFDB4C"/>
<stop offset="1" stop-color="#FFCD02"/>
</linearGradient>
<clipPath id="clip0_3421_7365">
<rect width="64" height="64" rx="12" fill="white"/>
</clipPath>
<clipPath id="clip1_3421_7365">
<rect width="64" height="64" fill="white"/>
</clipPath>
</defs>
</svg>
