<svg width="38" height="34" viewBox="0 0 38 34" fill="none" xmlns="http://www.w3.org/2000/svg">
<path fill-rule="evenodd" clip-rule="evenodd" d="M37.3588 15.2802C37.3588 15.2802 38.1698 14.4771 37.9676 13.7442C37.9676 13.7442 37.7898 12.8153 35.33 12.9846C35.33 12.9846 33.4133 13.1007 31.0851 13.7804C31.0924 13.7756 31.0997 13.7756 31.0997 13.7756C31.0997 13.7756 33.406 11.1777 34.0734 9.78927C34.0734 9.78927 35.576 7.43569 34.6725 6.51893C34.6725 6.51893 34.256 5.97225 32.6218 6.47297C32.6218 6.47297 30.3033 7.25427 27.841 9.23776C27.841 9.23776 28.8712 6.39798 28.9784 4.18469C28.9784 4.18469 29.2025 2.01736 28.0773 1.57228C28.0773 1.57228 27.1323 1.10544 25.3447 2.94138C25.3447 2.94138 23.1869 5.27561 21.957 7.64371C21.8036 6.33025 21.5892 5.0047 21.2507 3.7251C21.0388 2.92203 20.7782 2.12621 20.4081 1.37877C20.1353 0.820007 19.7091 0.0411223 19.0004 1.07335e-06C18.2892 0.0411223 17.8654 0.820007 17.5902 1.37877C17.22 2.12621 16.9595 2.91961 16.7476 3.7251C16.4115 5.0047 16.1947 6.33025 16.0437 7.64371C14.8114 5.27803 12.656 2.94138 12.656 2.94138C10.8684 1.10544 9.92344 1.57228 9.92344 1.57228C8.79827 2.01736 9.01989 4.18469 9.01989 4.18469C9.12949 6.4004 10.1572 9.23776 10.1572 9.23776C7.69744 7.25427 5.37646 6.47297 5.37646 6.47297C3.74471 5.97225 3.32581 6.51893 3.32581 6.51893C2.4247 7.43569 3.92493 9.78927 3.92493 9.78927C4.59225 11.1777 6.90105 13.7756 6.90105 13.7756C6.90105 13.7756 6.90836 13.778 6.91566 13.7804C4.58738 13.1007 2.67068 12.9846 2.67068 12.9846C0.208438 12.8153 0.0330859 13.7442 0.0330859 13.7442C-0.171492 14.4771 0.639513 15.2802 0.639513 15.2802C1.64779 16.6106 5.10856 18.4271 5.10856 18.4271C3.61076 18.5457 1.94004 19.0706 1.94004 19.0706C0.434935 19.5834 0.376484 20.3308 0.376484 20.3308C0.27176 21.1266 1.73546 21.7822 1.73546 21.7822C3.34773 22.6336 6.58688 23.1053 6.58688 23.1053C5.20842 23.8527 4.36575 24.5445 4.36575 24.5445C2.97267 25.7588 3.3526 26.3466 3.3526 26.3466C3.54987 27.0674 5.06716 27.2295 5.06716 27.2295C6.46024 27.4182 8.75443 27.0239 8.75443 27.0239C7.87523 28.139 7.56106 29.1695 7.56106 29.1695C7.32238 29.9967 7.64386 30.3886 7.64386 30.3886C8.02379 31.0344 9.36573 30.7538 9.36573 30.7538C11.3384 30.2967 12.6974 29.392 12.6974 29.392C12.449 30.2725 12.4928 31.5642 12.4928 31.5642C12.5464 32.0576 12.656 32.7035 13.0847 33.0155C13.6399 33.4219 14.4217 33.0881 14.9405 32.7712C15.4592 32.4495 15.9 32.0044 16.3043 31.5569C16.3774 31.4771 16.7549 31.1288 16.7378 31.0465C16.8718 31.5231 17.0325 31.9875 17.22 32.4471C17.5026 33.1292 18.204 33.9589 19.0028 34C19.8016 33.9589 20.503 33.1292 20.7855 32.4471C20.9731 31.9875 21.1338 31.5231 21.2678 31.0465C21.2507 31.1288 21.6282 31.4771 21.7013 31.5569C22.1056 32.0044 22.5464 32.4495 23.0651 32.7712C23.5839 33.0881 24.3657 33.4219 24.9209 33.0155C25.3496 32.7035 25.4592 32.0576 25.5128 31.5642C25.5128 31.5642 25.5566 30.2725 25.3082 29.392C25.3082 29.392 26.6672 30.2967 28.6399 30.7538C28.6399 30.7538 29.9842 31.032 30.3617 30.3886C30.3617 30.3886 30.6856 29.9967 30.4445 29.1695C30.4445 29.1695 30.1304 28.139 29.2512 27.0239C29.2512 27.0239 31.5454 27.4182 32.9384 27.2295C32.9384 27.2295 34.4557 27.0674 34.653 26.3466C34.653 26.3466 35.0329 25.7588 33.6398 24.5445C33.6398 24.5445 32.7972 23.8527 31.4187 23.1053C31.4187 23.1053 34.6579 22.6336 36.2701 21.7822C36.2701 21.7822 37.7338 21.1266 37.6291 20.3308C37.6291 20.3308 37.5707 19.5834 36.0656 19.0706C36.0656 19.0706 34.3948 18.5457 32.897 18.4271C32.897 18.4271 36.3578 16.6106 37.3661 15.2802H37.3588ZM33.3305 15.5753C33.7567 16.7122 30.6637 18.5166 30.6637 18.5166C28.3135 20.0502 24.7066 21.1629 24.7066 21.1629C28.9053 22.3579 30.4543 23.7874 30.4543 23.7874C31.7548 24.8735 31.3286 25.3839 31.3286 25.3839C30.6735 26.4821 26.9959 25.7903 26.9959 25.7903C24.2804 25.2847 22.8118 24.5687 22.8118 24.5687C23.9443 26.6538 24.2025 28.4462 24.2025 28.4462C24.5702 30.7224 23.5717 30.9183 23.5717 30.9183C22.8411 31.1699 21.7768 30.1443 21.7768 30.1443C19.7139 28.0374 19.0125 25.9354 19.0125 25.9354C19.0125 25.9354 18.3111 28.0374 16.2483 30.1443C16.2483 30.1443 15.1864 31.1723 14.4534 30.9183C14.4534 30.9183 13.4597 30.7224 13.8226 28.4462C13.8226 28.4462 14.0808 26.6514 15.2157 24.5687C15.2157 24.5687 13.7447 25.2847 11.0291 25.7903C11.0291 25.7903 7.35161 26.4821 6.69647 25.3839C6.69647 25.3839 6.27027 24.8735 7.5708 23.7874C7.5708 23.7874 9.11975 22.3579 13.3185 21.1629C13.3185 21.1629 9.71156 20.0502 7.36135 18.5166C7.36135 18.5166 4.26833 16.7122 4.69454 15.5753C4.69454 15.5753 5.05985 14.1844 10.4227 15.7518C10.4227 15.7518 13.4451 16.6904 14.7602 17.4402C14.7602 17.4402 11.9936 12.7839 11.7257 9.06361C11.7257 9.06361 11.5479 7.2446 12.4173 6.91079C12.4173 6.91079 13.372 6.4899 15.3155 8.91847C15.3155 8.91847 17.6463 11.7268 19.015 15.897C20.3837 11.7268 22.7169 8.91847 22.7169 8.91847C24.6555 6.4899 25.615 6.91079 25.615 6.91079C26.4821 7.2446 26.3043 9.06361 26.3043 9.06361C26.0388 12.7839 23.2721 17.4402 23.2721 17.4402C24.5873 16.6904 27.6072 15.7518 27.6072 15.7518C32.9701 14.1844 33.3379 15.5753 33.3379 15.5753H33.3305Z" fill="#1976D2"/>
</svg>
