<svg width="64" height="64" viewBox="0 0 64 64" fill="none" xmlns="http://www.w3.org/2000/svg">
<g clip-path="url(#clip0_8505_34590)">
<path fill-rule="evenodd" clip-rule="evenodd" d="M58 50.4654V51H6V50.4654H58ZM58 36V36.5346H6V36H58Z" fill="white" fill-opacity="0.3"/>
<path d="M1.2998 23C1.72319 23 2.06641 22.6568 2.06641 22.2334C2.06641 21.81 1.72319 21.4668 1.2998 21.4668C0.876422 21.4668 0.533203 21.81 0.533203 22.2334C0.533203 22.6568 0.876422 23 1.2998 23ZM4.36621 23C4.78959 23 5.13281 22.6568 5.13281 22.2334C5.13281 21.81 4.78959 21.4668 4.36621 21.4668C3.94283 21.4668 3.59961 21.81 3.59961 22.2334C3.59961 22.6568 3.94283 23 4.36621 23ZM7.43262 23C7.856 23 8.19922 22.6568 8.19922 22.2334C8.19922 21.81 7.856 21.4668 7.43262 21.4668C7.00923 21.4668 6.66601 21.81 6.66601 22.2334C6.66601 22.6568 7.00923 23 7.43262 23ZM10.499 23C10.9224 23 11.2656 22.6568 11.2656 22.2334C11.2656 21.81 10.9224 21.4668 10.499 21.4668C10.0756 21.4668 9.73242 21.81 9.73242 22.2334C9.73242 22.6568 10.0756 23 10.499 23ZM13.5654 23C13.9888 23 14.332 22.6568 14.332 22.2334C14.332 21.81 13.9888 21.4668 13.5654 21.4668C13.142 21.4668 12.7988 21.81 12.7988 22.2334C12.7988 22.6568 13.142 23 13.5654 23ZM16.6318 23C17.0552 23 17.3984 22.6568 17.3984 22.2334C17.3984 21.81 17.0552 21.4668 16.6318 21.4668C16.2085 21.4668 15.8652 21.81 15.8652 22.2334C15.8652 22.6568 16.2085 23 16.6318 23ZM19.6982 23C20.1216 23 20.4648 22.6568 20.4648 22.2334C20.4648 21.81 20.1216 21.4668 19.6982 21.4668C19.2749 21.4668 18.9316 21.81 18.9316 22.2334C18.9316 22.6568 19.2749 23 19.6982 23ZM22.7646 23C23.188 23 23.5312 22.6568 23.5312 22.2334C23.5312 21.81 23.188 21.4668 22.7646 21.4668C22.3413 21.4668 21.998 21.81 21.998 22.2334C21.998 22.6568 22.3413 23 22.7646 23ZM25.8311 23C26.2544 23 26.5977 22.6568 26.5977 22.2334C26.5977 21.81 26.2544 21.4668 25.8311 21.4668C25.4077 21.4668 25.0645 21.81 25.0645 22.2334C25.0645 22.6568 25.4077 23 25.8311 23ZM28.8975 23C29.3208 23 29.6641 22.6568 29.6641 22.2334C29.6641 21.81 29.3208 21.4668 28.8975 21.4668C28.4741 21.4668 28.1309 21.81 28.1309 22.2334C28.1309 22.6568 28.4741 23 28.8975 23ZM31.9639 23C32.3872 23 32.7305 22.6568 32.7305 22.2334C32.7305 21.81 32.3872 21.4668 31.9639 21.4668C31.5405 21.4668 31.1973 21.81 31.1973 22.2334C31.1973 22.6568 31.5405 23 31.9639 23ZM35.0303 23C35.4537 23 35.7969 22.6568 35.7969 22.2334C35.7969 21.81 35.4537 21.4668 35.0303 21.4668C34.6069 21.4668 34.2637 21.81 34.2637 22.2334C34.2637 22.6568 34.6069 23 35.0303 23ZM38.0967 23C38.5201 23 38.8633 22.6568 38.8633 22.2334C38.8633 21.81 38.5201 21.4668 38.0967 21.4668C37.6733 21.4668 37.3301 21.81 37.3301 22.2334C37.3301 22.6568 37.6733 23 38.0967 23ZM41.1631 23C41.5865 23 41.9297 22.6568 41.9297 22.2334C41.9297 21.81 41.5865 21.4668 41.1631 21.4668C40.7397 21.4668 40.3965 21.81 40.3965 22.2334C40.3965 22.6568 40.7397 23 41.1631 23ZM44.2295 23C44.6529 23 44.9961 22.6568 44.9961 22.2334C44.9961 21.81 44.6529 21.4668 44.2295 21.4668C43.8061 21.4668 43.4629 21.81 43.4629 22.2334C43.4629 22.6568 43.8061 23 44.2295 23ZM47.2959 23C47.7193 23 48.0625 22.6568 48.0625 22.2334C48.0625 21.81 47.7193 21.4668 47.2959 21.4668C46.8725 21.4668 46.5293 21.81 46.5293 22.2334C46.5293 22.6568 46.8725 23 47.2959 23ZM50.3623 23C50.7857 23 51.1289 22.6568 51.1289 22.2334C51.1289 21.81 50.7857 21.4668 50.3623 21.4668C49.9389 21.4668 49.5957 21.81 49.5957 22.2334C49.5957 22.6568 49.9389 23 50.3623 23ZM53.4287 23C53.8521 23 54.1953 22.6568 54.1953 22.2334C54.1953 21.81 53.8521 21.4668 53.4287 21.4668C53.0053 21.4668 52.6621 21.81 52.6621 22.2334C52.6621 22.6568 53.0053 23 53.4287 23ZM56.4951 23C56.9185 23 57.2617 22.6568 57.2617 22.2334C57.2617 21.81 56.9185 21.4668 56.4951 21.4668C56.0717 21.4668 55.7285 21.81 55.7285 22.2334C55.7285 22.6568 56.0717 23 56.4951 23ZM59.5615 23C59.9849 23 60.3281 22.6568 60.3281 22.2334C60.3281 21.81 59.9849 21.4668 59.5615 21.4668C59.1381 21.4668 58.7949 21.81 58.7949 22.2334C58.7949 22.6568 59.1381 23 59.5615 23ZM62.6279 23C63.0513 23 63.3945 22.6568 63.3945 22.2334C63.3945 21.81 63.0513 21.4668 62.6279 21.4668C62.2045 21.4668 61.8613 21.81 61.8613 22.2334C61.8613 22.6568 62.2045 23 62.6279 23ZM65.6943 23C66.1177 23 66.4609 22.6568 66.4609 22.2334C66.4609 21.81 66.1177 21.4668 65.6943 21.4668C65.2709 21.4668 64.9277 21.81 64.9277 22.2334C64.9277 22.6568 65.2709 23 65.6943 23ZM68.7607 23C69.1841 23 69.5273 22.6568 69.5273 22.2334C69.5273 21.81 69.1841 21.4668 68.7607 21.4668C68.3373 21.4668 67.9941 21.81 67.9941 22.2334C67.9941 22.6568 68.3373 23 68.7607 23ZM71.8271 23C72.2505 23 72.5937 22.6568 72.5937 22.2334C72.5937 21.81 72.2505 21.4668 71.8271 21.4668C71.4038 21.4668 71.0605 21.81 71.0605 22.2334C71.0605 22.6568 71.4038 23 71.8271 23ZM74.8935 23C75.3169 23 75.6601 22.6568 75.6601 22.2334C75.6601 21.81 75.3169 21.4668 74.8935 21.4668C74.4702 21.4668 74.1269 21.81 74.1269 22.2334C74.1269 22.6568 74.4702 23 74.8935 23ZM77.96 23C78.3833 23 78.7266 22.6568 78.7266 22.2334C78.7266 21.81 78.3833 21.4668 77.96 21.4668C77.5366 21.4668 77.1933 21.81 77.1933 22.2334C77.1933 22.6568 77.5366 23 77.96 23ZM81.0264 23C81.4497 23 81.793 22.6568 81.793 22.2334C81.793 21.81 81.4497 21.4668 81.0264 21.4668C80.603 21.4668 80.2598 21.81 80.2598 22.2334C80.2598 22.6568 80.603 23 81.0264 23ZM84.0928 23C84.5161 23 84.8594 22.6568 84.8594 22.2334C84.8594 21.81 84.5161 21.4668 84.0928 21.4668C83.6694 21.4668 83.3262 21.81 83.3262 22.2334C83.3262 22.6568 83.6694 23 84.0928 23ZM87.1592 23C87.5825 23 87.9258 22.6568 87.9258 22.2334C87.9258 21.81 87.5825 21.4668 87.1592 21.4668C86.7358 21.4668 86.3926 21.81 86.3926 22.2334C86.3926 22.6568 86.7358 23 87.1592 23ZM90.2256 23C90.649 23 90.9922 22.6568 90.9922 22.2334C90.9922 21.81 90.649 21.4668 90.2256 21.4668C89.8022 21.4668 89.459 21.81 89.459 22.2334C89.459 22.6568 89.8022 23 90.2256 23Z" fill="#AAAAAA" fill-opacity="0.5"/>
<g filter="url(#filter0_dd_8505_34590)">
<path d="M64 0H0V6H64V0Z" fill="black" fill-opacity="0.3"/>
</g>
<path d="M64 0H0V19.75H64V0Z" fill="#FFDB4C" fill-opacity="0.3"/>
<g filter="url(#filter1_ii_8505_34590)">
<path d="M64 0H0V19.75H64V0Z" fill="black" fill-opacity="0.3"/>
</g>
</g>
<defs>
<filter id="filter0_dd_8505_34590" x="-40" y="-18" width="144" height="86" filterUnits="userSpaceOnUse" color-interpolation-filters="sRGB">
<feFlood flood-opacity="0" result="BackgroundImageFix"/>
<feColorMatrix in="SourceAlpha" type="matrix" values="0 0 0 0 0 0 0 0 0 0 0 0 0 0 0 0 0 0 127 0" result="hardAlpha"/>
<feOffset dy="22"/>
<feGaussianBlur stdDeviation="20"/>
<feColorMatrix type="matrix" values="0 0 0 0 0 0 0 0 0 0 0 0 0 0 0 0 0 0 0.1 0"/>
<feBlend mode="normal" in2="BackgroundImageFix" result="effect1_dropShadow_8505_34590"/>
<feColorMatrix in="SourceAlpha" type="matrix" values="0 0 0 0 0 0 0 0 0 0 0 0 0 0 0 0 0 0 127 0" result="hardAlpha"/>
<feOffset dy="14"/>
<feGaussianBlur stdDeviation="2"/>
<feColorMatrix type="matrix" values="0 0 0 0 0 0 0 0 0 0 0 0 0 0 0 0 0 0 0.3 0"/>
<feBlend mode="normal" in2="effect1_dropShadow_8505_34590" result="effect2_dropShadow_8505_34590"/>
<feBlend mode="normal" in="SourceGraphic" in2="effect2_dropShadow_8505_34590" result="shape"/>
</filter>
<filter id="filter1_ii_8505_34590" x="0" y="-4" width="64" height="27.75" filterUnits="userSpaceOnUse" color-interpolation-filters="sRGB">
<feFlood flood-opacity="0" result="BackgroundImageFix"/>
<feBlend mode="normal" in="SourceGraphic" in2="BackgroundImageFix" result="shape"/>
<feColorMatrix in="SourceAlpha" type="matrix" values="0 0 0 0 0 0 0 0 0 0 0 0 0 0 0 0 0 0 127 0" result="hardAlpha"/>
<feOffset dy="17"/>
<feGaussianBlur stdDeviation="2"/>
<feComposite in2="hardAlpha" operator="arithmetic" k2="-1" k3="1"/>
<feColorMatrix type="matrix" values="0 0 0 0 1 0 0 0 0 0.878431 0 0 0 0 0.4 0 0 0 1 0"/>
<feBlend mode="normal" in2="shape" result="effect1_innerShadow_8505_34590"/>
<feColorMatrix in="SourceAlpha" type="matrix" values="0 0 0 0 0 0 0 0 0 0 0 0 0 0 0 0 0 0 127 0" result="hardAlpha"/>
<feOffset dy="-17"/>
<feGaussianBlur stdDeviation="2"/>
<feComposite in2="hardAlpha" operator="arithmetic" k2="-1" k3="1"/>
<feColorMatrix type="matrix" values="0 0 0 0 0.945833 0 0 0 0 0.762099 0 0 0 0 0.0394097 0 0 0 1 0"/>
<feBlend mode="normal" in2="effect1_innerShadow_8505_34590" result="effect2_innerShadow_8505_34590"/>
</filter>
<clipPath id="clip0_8505_34590">
<rect width="64" height="64" fill="white"/>
</clipPath>
</defs>
</svg>
