<svg width="64" height="64" viewBox="0 0 64 64" fill="none" xmlns="http://www.w3.org/2000/svg">
<rect width="64" height="64" rx="12" fill="white"/>
<g clip-path="url(#clip0_3421_7967)">
<path d="M25.5013 51.5C29.0885 51.5 32 48.588 32 45V38.5H25.5013C21.914 38.5 19.0026 41.412 19.0026 45C19.0026 48.588 21.914 51.5 25.5013 51.5Z" fill="#0ACF83"/>
<path d="M19.0026 32C19.0026 28.412 21.914 25.5 25.5013 25.5H32V38.5H25.5013C21.914 38.5 19.0026 35.588 19.0026 32Z" fill="#A259FF"/>
<path d="M19.0027 19C19.0027 15.412 21.9141 12.5 25.5014 12.5H32.0001V25.5H25.5014C21.9141 25.5 19.0027 22.588 19.0027 19Z" fill="#F24E1E"/>
<path d="M32 12.5H38.4987C42.086 12.5 44.9974 15.412 44.9974 19C44.9974 22.588 42.086 25.5 38.4987 25.5H32V12.5Z" fill="#FF7262"/>
<path d="M44.9974 32C44.9974 35.588 42.086 38.5 38.4987 38.5C34.9114 38.5 32 35.588 32 32C32 28.412 34.9114 25.5 38.4987 25.5C42.086 25.5 44.9974 28.412 44.9974 32Z" fill="#1ABCFE"/>
</g>
<defs>
<clipPath id="clip0_3421_7967">
<rect width="26" height="39" fill="white" transform="translate(19 12.5)"/>
</clipPath>
</defs>
</svg>
