<svg width="64" height="64" viewBox="0 0 64 64" fill="none" xmlns="http://www.w3.org/2000/svg">
<g filter="url(#filter0_dd_8505_20756)">
<path d="M16.3921 35.6873C16.3209 35.3838 16.6824 35.1926 16.9029 35.4131L28.5869 47.097C28.8073 47.3175 28.6162 47.6791 28.3126 47.6079C22.4164 46.2247 17.7753 41.5835 16.3921 35.6873Z" fill="url(#paint0_linear_8505_20756)"/>
<path d="M16.0006 31.0045C15.9949 31.0952 16.0291 31.1837 16.0932 31.2479L32.7521 47.9068C32.8163 47.9709 32.9048 48.0051 32.9955 47.9994C33.7536 47.9522 34.4975 47.8522 35.2234 47.7031C35.468 47.6529 35.553 47.3523 35.3765 47.1757L16.8243 28.6235C16.6477 28.4469 16.3471 28.5319 16.2969 28.7766C16.1478 29.5025 16.0478 30.2464 16.0006 31.0045Z" fill="url(#paint1_linear_8505_20756)"/>
<path d="M17.3475 25.5058C17.2942 25.6254 17.3213 25.7651 17.4139 25.8577L38.1423 46.5861C38.2348 46.6786 38.3746 46.7058 38.4942 46.6525C39.0658 46.3979 39.6197 46.1109 40.1536 45.7936C40.3303 45.6886 40.3575 45.4459 40.2122 45.3006L18.6994 23.7878C18.5541 23.6424 18.3113 23.6697 18.2063 23.8464C17.8891 24.3803 17.602 24.9342 17.3475 25.5058Z" fill="url(#paint2_linear_8505_20756)"/>
<path d="M20.0508 21.7837C19.9324 21.6653 19.925 21.4752 20.0366 21.3504C22.9695 18.067 27.2356 16 31.9846 16C40.8297 16 48 23.1703 48 32.0154C48 36.7644 45.933 41.0306 42.6496 43.9634C42.5248 44.075 42.3348 44.0676 42.2163 43.9492L20.0508 21.7837Z" fill="url(#paint3_linear_8505_20756)"/>
</g>
<defs>
<filter id="filter0_dd_8505_20756" x="-19.6436" y="-14.0743" width="103.287" height="103.287" filterUnits="userSpaceOnUse" color-interpolation-filters="sRGB">
<feFlood flood-opacity="0" result="BackgroundImageFix"/>
<feColorMatrix in="SourceAlpha" type="matrix" values="0 0 0 0 0 0 0 0 0 0 0 0 0 0 0 0 0 0 127 0" result="hardAlpha"/>
<feOffset dy="5.5693"/>
<feGaussianBlur stdDeviation="17.8218"/>
<feColorMatrix type="matrix" values="0 0 0 0 0.118924 0 0 0 0 0.158031 0 0 0 0 0.570833 0 0 0 0.7 0"/>
<feBlend mode="normal" in2="BackgroundImageFix" result="effect1_dropShadow_8505_20756"/>
<feColorMatrix in="SourceAlpha" type="matrix" values="0 0 0 0 0 0 0 0 0 0 0 0 0 0 0 0 0 0 127 0" result="hardAlpha"/>
<feOffset dy="1.94926"/>
<feGaussianBlur stdDeviation="7.5"/>
<feColorMatrix type="matrix" values="0 0 0 0 0 0 0 0 0 0 0 0 0 0 0 0 0 0 0.17 0"/>
<feBlend mode="normal" in2="effect1_dropShadow_8505_20756" result="effect2_dropShadow_8505_20756"/>
<feBlend mode="normal" in="SourceGraphic" in2="effect2_dropShadow_8505_20756" result="shape"/>
</filter>
<linearGradient id="paint0_linear_8505_20756" x1="17.1428" y1="18.9714" x2="33.8285" y2="43.4286" gradientUnits="userSpaceOnUse">
<stop stop-color="white"/>
<stop offset="1" stop-color="white" stop-opacity="0.65"/>
</linearGradient>
<linearGradient id="paint1_linear_8505_20756" x1="17.1429" y1="18.9714" x2="33.8285" y2="43.4286" gradientUnits="userSpaceOnUse">
<stop stop-color="white"/>
<stop offset="1" stop-color="white" stop-opacity="0.65"/>
</linearGradient>
<linearGradient id="paint2_linear_8505_20756" x1="17.1428" y1="18.9714" x2="33.8285" y2="43.4286" gradientUnits="userSpaceOnUse">
<stop stop-color="white"/>
<stop offset="1" stop-color="white" stop-opacity="0.65"/>
</linearGradient>
<linearGradient id="paint3_linear_8505_20756" x1="17.1429" y1="18.9714" x2="33.8286" y2="43.4286" gradientUnits="userSpaceOnUse">
<stop stop-color="white"/>
<stop offset="1" stop-color="white" stop-opacity="0.65"/>
</linearGradient>
</defs>
</svg>
