<svg width="64" height="64" viewBox="0 0 64 64" fill="none" xmlns="http://www.w3.org/2000/svg">
<rect width="64" height="64" fill="white"/>
<path d="M31.963 15C29.0486 15 26.7321 17.359 26.7321 20.2422C26.7321 23.1629 29.086 25.4845 31.963 25.4845C34.8773 25.4845 37.1938 23.1255 37.1938 20.2422C37.1938 17.359 34.8399 15 31.963 15ZM31.963 48.9623C34.8773 48.9623 37.1938 46.6033 37.1938 43.72C37.1938 40.7993 34.8399 38.4778 31.963 38.4778C29.0486 38.4778 26.7321 40.8368 26.7321 43.72C26.7321 46.6033 29.0486 48.9623 31.963 48.9623ZM33.0839 31.9624C33.0839 32.4866 33.3828 32.936 33.8311 33.1232L41.4533 36.7179C42.1258 37.0549 42.8731 37.2047 43.6951 37.2047C46.6094 37.2047 48.9259 34.8456 48.9259 31.9624C48.9259 29.0417 46.572 26.7202 43.6951 26.7202C42.9104 26.7202 42.1258 26.9074 41.4533 27.2069L33.8311 30.8016C33.3828 30.9889 33.0839 31.4382 33.0839 31.9624ZM30.8421 31.9624C30.8421 31.4382 30.5432 30.9889 30.0948 30.8016L22.4727 27.2069C21.8001 26.8699 21.0529 26.7202 20.2309 26.7202C17.3165 26.7202 15 29.0792 15 31.9624C15 34.8831 17.3539 37.2047 20.2309 37.2047C21.0155 37.2047 21.8001 37.0174 22.4727 36.7179L30.0948 33.1232C30.5432 32.936 30.8421 32.4866 30.8421 31.9624Z" fill="#00B7F1"/>
</svg>
