<svg width="64" height="64" viewBox="0 0 64 64" fill="none" xmlns="http://www.w3.org/2000/svg">
<rect width="64" height="64" rx="12" fill="white"/>
<g clip-path="url(#clip0_3421_7358)">
<path d="M16.1661 15.5531L36.086 14.0818C38.5329 13.8719 39.1615 14.0134 40.7001 15.1319L47.0588 19.6114C48.1075 20.3818 48.4567 20.5917 48.4567 21.4305V45.9979C48.4567 47.5377 47.8976 48.4485 45.9403 48.5874L22.8081 49.9885C21.3393 50.058 20.6398 49.8481 19.8705 48.8679L15.188 42.7788C14.3481 41.6581 14 40.8193 14 39.8387V18.0011C14 16.7422 14.5591 15.6924 16.1661 15.5531Z" fill="white"/>
<path fill-rule="evenodd" clip-rule="evenodd" d="M36.086 14.0821L16.1661 15.5535C14.5591 15.6924 14 16.7425 14 18.0011V39.8387C14 40.819 14.3481 41.6578 15.188 42.7788L19.8705 48.8675C20.6398 49.8478 21.3393 50.058 22.8081 49.9882L45.9406 48.5878C47.8965 48.4485 48.457 47.5377 48.457 45.9983V21.4308C48.457 20.6352 48.1428 20.4059 47.2176 19.7269L40.7001 15.1319C39.1618 14.0134 38.5329 13.8719 36.086 14.0818V14.0821ZM23.3312 21.0287C21.4423 21.1558 21.0139 21.1846 19.9411 20.3123L17.2137 18.1429C16.9365 17.8621 17.0758 17.5119 17.7742 17.442L36.9237 16.0427C38.5318 15.9023 39.3692 16.4628 39.9981 16.9524L43.2824 19.332C43.4228 19.4029 43.772 19.8216 43.3519 19.8216L23.576 21.0121L23.3312 21.0287ZM21.1291 45.7884V24.9325C21.1291 24.0217 21.4088 23.6016 22.2462 23.5311L44.96 22.2012C45.7304 22.1317 46.0785 22.6213 46.0785 23.5307V44.2476C46.0785 45.1584 45.9381 45.9288 44.6806 45.9983L22.9449 47.2583C21.6874 47.3278 21.1294 46.9091 21.1294 45.7884H21.1291ZM42.5851 26.0507C42.7244 26.6807 42.5851 27.3107 41.9551 27.3827L40.9075 27.5904V42.9887C39.9978 43.4783 39.1604 43.758 38.4606 43.758C37.342 43.758 37.0627 43.4077 36.225 42.3587L29.3742 31.5803V42.0084L31.5414 42.4991C31.5414 42.4991 31.5414 43.7591 29.7928 43.7591L24.9724 44.0388C24.832 43.758 24.9724 43.0585 25.461 42.9192L26.7199 42.57V28.782L24.9728 28.6405C24.8324 28.0105 25.1816 27.1008 26.1608 27.0303L31.3329 26.6821L38.4609 37.5999V27.9411L36.644 27.7323C36.5036 26.9608 37.0627 26.4003 37.7611 26.3319L42.5851 26.0507Z" fill="black"/>
</g>
<defs>
<clipPath id="clip0_3421_7358">
<rect width="36" height="36" fill="white" transform="translate(14 14)"/>
</clipPath>
</defs>
</svg>
