<svg width="64" height="64" viewBox="0 0 64 64" fill="none" xmlns="http://www.w3.org/2000/svg">
<rect width="64" height="64" fill="white"/>
<g clip-path="url(#clip0_8377_23138)">
<path d="M26.9209 17.0288C26.9112 17.0576 25.7649 19.7123 24.9193 21.6763C24.7165 22.1439 24.433 22.8034 24.2888 23.1391C23.7438 24.4053 23.0741 25.9641 22.6879 26.8562C21.9841 28.4893 21.5051 29.602 20.5128 31.9041C19.98 33.1439 19.4521 34.3694 19.3397 34.626C19.2273 34.8825 18.7605 35.9665 18.301 37.036C17.8415 38.1032 17.0423 39.9593 16.5242 41.1607C16.0061 42.3598 15.4366 43.6835 15.2582 44.0984C15.0798 44.5132 14.8085 45.1391 14.6594 45.4893C14.4419 45.9905 14.1829 46.5948 14.0313 46.9449C14.0216 46.9689 14.9258 46.9761 18.5014 46.9761H22.9837L23.2085 46.4557C23.3307 46.1679 23.6338 45.4629 23.8806 44.8897C24.1299 44.3166 24.934 42.4485 25.6696 40.7411C27.9083 35.5444 30.3328 29.9185 30.7531 28.9425C31.413 27.4125 32.3588 25.2135 33.7275 22.036C33.9303 21.5684 34.2456 20.8346 34.4313 20.4053C34.7099 19.7602 35.7486 17.3526 35.866 17.0768L35.8977 17.0001H31.4154C27.8521 17.0001 26.9307 17.0072 26.9209 17.0288Z" fill="#112261"/>
<path d="M39.4166 24.9785C39.1429 25.6356 38.6101 26.9162 38.2313 27.8274C35.6847 33.9425 35.2814 34.9162 35.2912 34.9257C35.2985 34.9329 37.4321 34.9353 40.0325 34.9329L44.7617 34.9257L44.5417 34.4221C44.0529 33.295 43.2415 31.4221 42.716 30.2135C41.5331 27.4917 40.3796 24.8346 40.1816 24.3742C40.0667 24.1104 39.9592 23.8682 39.9445 23.8394C39.9177 23.7867 39.8688 23.8946 39.4166 24.9785Z" fill="#112261"/>
<path d="M37.4122 40.1343C37.4122 40.1583 37.3658 40.048 39.2892 44.518C39.8 45.7051 40.2448 46.7411 40.279 46.8202L40.3401 46.9641L45.1572 46.9713L49.9743 46.9761L49.9523 46.9233C49.9279 46.861 49.7544 46.4605 48.7279 44.0744C48.3222 43.1319 47.8358 42.0025 47.6476 41.5684C47.4619 41.1319 47.2444 40.6284 47.1686 40.4485L47.0293 40.1176H42.222C39.5751 40.1176 37.4122 40.1248 37.4122 40.1343Z" fill="#112261"/>
</g>
<defs>
<clipPath id="clip0_8377_23138">
<rect width="36" height="30" fill="white" transform="translate(14 17)"/>
</clipPath>
</defs>
</svg>
