<svg width="24" height="34" viewBox="0 0 24 34" fill="none" xmlns="http://www.w3.org/2000/svg">
<path d="M6.33445 34C9.46181 34 12 31.4613 12 28.3333V22.6667H6.33445C3.20709 22.6667 0.668945 25.2053 0.668945 28.3333C0.668945 31.4613 3.20709 34 6.33445 34Z" fill="#0ACF83"/>
<path d="M0.668945 17C0.668945 13.872 3.20709 11.3333 6.33445 11.3333H12V22.6667H6.33445C3.20709 22.6667 0.668945 20.128 0.668945 17Z" fill="#A259FF"/>
<path d="M0.669067 5.66667C0.669067 2.53867 3.20722 0 6.33458 0H12.0001V11.3333H6.33458C3.20722 11.3333 0.669067 8.79467 0.669067 5.66667Z" fill="#F24E1E"/>
<path d="M12 0H17.6655C20.7929 0 23.331 2.53867 23.331 5.66667C23.331 8.79467 20.7929 11.3333 17.6655 11.3333H12V0Z" fill="#FF7262"/>
<path d="M23.331 17C23.331 20.128 20.7929 22.6667 17.6655 22.6667C14.5381 22.6667 12 20.128 12 17C12 13.872 14.5381 11.3333 17.6655 11.3333C20.7929 11.3333 23.331 13.872 23.331 17Z" fill="#1ABCFE"/>
</svg>
