<svg width="64" height="64" viewBox="0 0 64 64" fill="none" xmlns="http://www.w3.org/2000/svg">
<rect width="64" height="64" fill="white"/>
<g clip-path="url(#clip0_8375_23253)">
<path fill-rule="evenodd" clip-rule="evenodd" d="M50.8381 30.2782C50.8381 30.2782 51.67 29.4753 51.4627 28.7426C51.4627 28.7426 51.2803 27.814 48.7569 27.9833C48.7569 27.9833 46.7907 28.0994 44.4022 28.7789C44.4097 28.774 44.4172 28.774 44.4172 28.774C44.4172 28.774 46.7832 26.1769 47.4677 24.7888C47.4677 24.7888 49.0092 22.4359 48.0823 21.5194C48.0823 21.5194 47.6551 20.9729 45.9787 21.4735C45.9787 21.4735 43.6002 22.2546 41.0743 24.2375C41.0743 24.2375 42.1312 21.3985 42.2411 19.1858C42.2411 19.1858 42.4709 17.0191 41.3167 16.5742C41.3167 16.5742 40.3473 16.1075 38.5135 17.9429C38.5135 17.9429 36.2999 20.2765 35.0382 22.6439C34.8808 21.3308 34.6609 20.0056 34.3137 18.7264C34.0963 17.9235 33.829 17.128 33.4492 16.3807C33.1694 15.8221 32.7322 15.0435 32.0051 15.0024C31.2756 15.0435 30.8409 15.8221 30.5586 16.3807C30.1788 17.128 29.9115 17.9211 29.6941 18.7264C29.3493 20.0056 29.127 21.3308 28.9721 22.6439C27.7079 20.2789 25.4968 17.9429 25.4968 17.9429C23.663 16.1075 22.6936 16.5742 22.6936 16.5742C21.5393 17.0191 21.7667 19.1858 21.7667 19.1858C21.8791 21.4009 22.9335 24.2375 22.9335 24.2375C20.4101 22.2546 18.0291 21.4735 18.0291 21.4735C16.3552 20.9729 15.9254 21.5194 15.9254 21.5194C15.001 22.4359 16.5401 24.7888 16.5401 24.7888C17.2246 26.1769 19.5931 28.774 19.5931 28.774C19.5931 28.774 19.6006 28.7765 19.6081 28.7789C17.2196 28.0994 15.2534 27.9833 15.2534 27.9833C12.7275 27.814 12.5476 28.7426 12.5476 28.7426C12.3377 29.4753 13.1697 30.2782 13.1697 30.2782C14.2041 31.6082 17.7543 33.4243 17.7543 33.4243C16.2178 33.5427 14.5039 34.0675 14.5039 34.0675C12.9598 34.5802 12.8999 35.3274 12.8999 35.3274C12.7925 36.123 14.294 36.7783 14.294 36.7783C15.9479 37.6295 19.2708 38.1011 19.2708 38.1011C17.8567 38.8483 16.9923 39.5399 16.9923 39.5399C15.5632 40.7538 15.9529 41.3415 15.9529 41.3415C16.1553 42.0621 17.7118 42.2241 17.7118 42.2241C19.1409 42.4127 21.4944 42.0186 21.4944 42.0186C20.5925 43.1334 20.2702 44.1635 20.2702 44.1635C20.0253 44.9905 20.3551 45.3823 20.3551 45.3823C20.7449 46.028 22.1215 45.7474 22.1215 45.7474C24.1452 45.2904 25.5393 44.386 25.5393 44.386C25.2844 45.2662 25.3294 46.5575 25.3294 46.5575C25.3844 47.0509 25.4968 47.6965 25.9365 48.0085C26.5062 48.4147 27.3082 48.081 27.8403 47.7642C28.3725 47.4426 28.8247 46.9977 29.2394 46.5503C29.3144 46.4705 29.7016 46.1223 29.6841 46.04C29.8215 46.5164 29.9864 46.9807 30.1788 47.4402C30.4686 48.1221 31.1882 48.9516 32.0076 48.9927C32.8271 48.9516 33.5467 48.1221 33.8365 47.4402C34.0288 46.9807 34.1937 46.5164 34.3311 46.04C34.3137 46.1223 34.7009 46.4705 34.7759 46.5503C35.1906 46.9977 35.6428 47.4426 36.175 47.7642C36.7071 48.081 37.5091 48.4147 38.0787 48.0085C38.5185 47.6965 38.6309 47.0509 38.6859 46.5575C38.6859 46.5575 38.7308 45.2662 38.476 44.386C38.476 44.386 39.8701 45.2904 41.8938 45.7474C41.8938 45.7474 43.2729 46.0255 43.6602 45.3823C43.6602 45.3823 43.9925 44.9905 43.7451 44.1635C43.7451 44.1635 43.4228 43.1334 42.5209 42.0186C42.5209 42.0186 44.8744 42.4127 46.3035 42.2241C46.3035 42.2241 47.86 42.0621 48.0623 41.3415C48.0623 41.3415 48.4521 40.7538 47.023 39.5399C47.023 39.5399 46.1586 38.8483 44.7445 38.1011C44.7445 38.1011 48.0673 37.6295 49.7213 36.7783C49.7213 36.7783 51.2228 36.123 51.1154 35.3274C51.1154 35.3274 51.0554 34.5802 49.5114 34.0675C49.5114 34.0675 47.7975 33.5427 46.261 33.4243C46.261 33.4243 49.8112 31.6082 50.8456 30.2782H50.8381ZM46.7057 30.5732C47.1429 31.7097 43.97 33.5137 43.97 33.5137C41.559 35.0469 37.8589 36.1592 37.8589 36.1592C42.1661 37.3538 43.7551 38.783 43.7551 38.783C45.0893 39.8688 44.652 40.379 44.652 40.379C43.98 41.4769 40.2074 40.7853 40.2074 40.7853C37.4217 40.2799 35.9151 39.5641 35.9151 39.5641C37.0769 41.6486 37.3417 43.4405 37.3417 43.4405C37.719 45.716 36.6946 45.9119 36.6946 45.9119C35.9451 46.1634 34.8533 45.1381 34.8533 45.1381C32.7372 43.0318 32.0176 40.9304 32.0176 40.9304C32.0176 40.9304 31.2981 43.0318 29.182 45.1381C29.182 45.1381 28.0926 46.1658 27.3406 45.9119C27.3406 45.9119 26.3213 45.716 26.6935 43.4405C26.6935 43.4405 26.9584 41.6462 28.1226 39.5641C28.1226 39.5641 26.6136 40.2799 23.8279 40.7853C23.8279 40.7853 20.0553 41.4769 19.3832 40.379C19.3832 40.379 18.946 39.8688 20.2802 38.783C20.2802 38.783 21.8691 37.3538 26.1764 36.1592C26.1764 36.1592 22.4762 35.0469 20.0653 33.5137C20.0653 33.5137 16.8923 31.7097 17.3295 30.5732C17.3295 30.5732 17.7043 29.1827 23.2058 30.7497C23.2058 30.7497 26.3063 31.688 27.6554 32.4376C27.6554 32.4376 24.8172 27.7826 24.5424 24.0634C24.5424 24.0634 24.36 22.2449 25.252 21.9112C25.252 21.9112 26.2313 21.4904 28.2251 23.9183C28.2251 23.9183 30.616 26.7258 32.0201 30.8948C33.4242 26.7258 35.8177 23.9183 35.8177 23.9183C37.8064 21.4904 38.7908 21.9112 38.7908 21.9112C39.6802 22.2449 39.4978 24.0634 39.4978 24.0634C39.2255 27.7826 36.3873 32.4376 36.3873 32.4376C37.7365 31.688 40.8345 30.7497 40.8345 30.7497C46.336 29.1827 46.7132 30.5732 46.7132 30.5732H46.7057Z" fill="#1976D2"/>
</g>
<defs>
<clipPath id="clip0_8375_23253">
<rect width="39" height="34" fill="white" transform="matrix(1 0 0 -1 12.5 49)"/>
</clipPath>
</defs>
</svg>
