<svg width="64" height="64" viewBox="0 0 64 64" fill="none" xmlns="http://www.w3.org/2000/svg">
<rect width="64" height="64" fill="white"/>
<g clip-path="url(#clip0_8375_23167)">
<path d="M40.9478 23.0525L32.8952 22.1578L23.0531 23.0525L22.1582 32L23.0529 40.9474L32.0004 42.0659L40.9478 40.9474L41.8425 31.7764L40.9478 23.0525Z" fill="white"/>
<path d="M26.7225 36.9345C26.0538 36.4826 25.5907 35.8228 25.3379 34.9504L26.8903 34.3107C27.0313 34.8475 27.2773 35.2635 27.6285 35.5588C27.9775 35.8541 28.4025 35.9995 28.8991 35.9995C29.4068 35.9995 29.8431 35.8451 30.2075 35.5364C30.572 35.2277 30.7556 34.8339 30.7556 34.3576C30.7556 33.87 30.5632 33.4717 30.1785 33.1632C29.7938 32.8546 29.3106 32.7001 28.7335 32.7001H27.8366V31.1635H28.6417C29.1382 31.1635 29.5566 31.0293 29.8966 30.7609C30.2366 30.4925 30.4066 30.1256 30.4066 29.6581C30.4066 29.2421 30.2545 28.911 29.9503 28.6628C29.6462 28.4146 29.2613 28.2893 28.7938 28.2893C28.3375 28.2893 27.9751 28.4101 27.7067 28.6539C27.4382 28.8977 27.2436 29.1974 27.1207 29.5508L25.5841 28.9111C25.7875 28.334 26.1612 27.824 26.7091 27.3833C27.2572 26.9427 27.9573 26.7212 28.8073 26.7212C29.4357 26.7212 30.0017 26.8421 30.5028 27.0858C31.0038 27.3296 31.3975 27.6674 31.6816 28.0968C31.9657 28.5285 32.1066 29.0118 32.1066 29.5485C32.1066 30.0965 31.9747 30.5595 31.7107 30.9397C31.4467 31.32 31.1223 31.6107 30.7376 31.8144V31.906C31.2454 32.1185 31.6592 32.4429 31.9857 32.8791C32.3101 33.3153 32.4733 33.8365 32.4733 34.445C32.4733 35.0534 32.3189 35.5969 32.0102 36.0734C31.7015 36.5499 31.2743 36.9256 30.733 37.1985C30.1895 37.4713 29.5789 37.61 28.9011 37.61C28.116 37.6122 27.3913 37.3863 26.7225 36.9345Z" fill="#1A73E8"/>
<path d="M36.2509 29.2309L34.5553 30.4634L33.7031 29.1705L36.7609 26.965H37.9331V37.3685H36.2509V29.2309Z" fill="#1A73E8"/>
<path d="M40.9476 48.9999L49.0002 40.9474L44.9739 39.158L40.9476 40.9474L39.1582 44.9737L40.9476 48.9999Z" fill="#EA4335"/>
<path d="M21.2637 44.9737L23.0531 48.9999H40.9478V40.9474H23.0531L21.2637 44.9737Z" fill="#34A853"/>
<path d="M17.6841 15C16.2012 15 15 16.2012 15 17.6841V40.9473L19.0263 42.7367L23.0526 40.9473V23.0526H40.9473L42.7367 19.0263L40.9474 15H17.6841Z" fill="#4285F4"/>
<path d="M15 40.9474V46.3158C15 47.7989 16.2012 48.9999 17.6841 48.9999H23.0526V40.9474H15Z" fill="#188038"/>
<path d="M40.9473 23.0526V40.9473H48.9998V23.0526L44.9735 21.2632L40.9473 23.0526Z" fill="#FBBC04"/>
<path d="M48.9998 23.0526V17.6841C48.9998 16.201 47.7986 15 46.3157 15H40.9473V23.0526H48.9998Z" fill="#1967D2"/>
</g>
<defs>
<clipPath id="clip0_8375_23167">
<rect width="34" height="34" fill="white" transform="translate(15 15)"/>
</clipPath>
</defs>
</svg>
