<svg width="34" height="32" viewBox="0 0 34 32" fill="none" xmlns="http://www.w3.org/2000/svg">
<path fill-rule="evenodd" clip-rule="evenodd" d="M26.6057 16.941C22.5218 16.941 19.2113 20.3121 19.2113 24.4706C19.2113 28.6289 22.5218 32 26.6057 32C30.6895 32 34 28.6289 34 24.4706C34 20.3121 30.6895 16.941 26.6057 16.941ZM7.39439 16.9416C3.31062 16.9416 0 20.3121 0 24.4706C0 28.6289 3.31062 32 7.39439 32C11.4783 32 14.7891 28.6289 14.7891 24.4706C14.7891 20.3121 11.4783 16.9416 7.39439 16.9416ZM24.3943 7.52915C24.3943 11.6878 21.0838 15.0591 17.0001 15.0591C12.9161 15.0591 9.60563 11.6878 9.60563 7.52915C9.60563 3.37135 12.9161 0 17.0001 0C21.0838 0 24.3943 3.37135 24.3943 7.52915Z" fill="#F06A6A"/>
</svg>
