<svg width="64" height="64" viewBox="0 0 64 64" fill="none" xmlns="http://www.w3.org/2000/svg">
<rect width="64" height="64" rx="12" fill="white"/>
<g clip-path="url(#clip0_3421_7362)">
<path d="M23.8372 13.8604L12.5 21.2069L20.3907 27.5557L31.7279 20.4813L23.8372 13.8604ZM12.5 33.7231L23.8372 41.1604L31.7279 34.5394L20.3907 27.5557L12.5 33.7231ZM31.7279 34.5394L39.7093 41.1604L50.9558 33.8138L43.1558 27.5557L31.7279 34.5394ZM50.9558 21.2069L39.7093 13.8604L31.7279 20.4813L43.1558 27.5557L50.9558 21.2069ZM31.8186 35.9906L23.8372 42.6115L20.4814 40.3441V42.8836L31.8186 49.6859L43.1558 42.8836V40.3441L39.7093 42.6115L31.8186 35.9906Z" fill="#007EE5"/>
</g>
<defs>
<clipPath id="clip0_3421_7362">
<rect width="39" height="36.2791" fill="white" transform="translate(12.5 13.8604)"/>
</clipPath>
</defs>
</svg>
