<svg width="64" height="64" viewBox="0 0 64 64" fill="none" xmlns="http://www.w3.org/2000/svg">
<rect width="64" height="64" fill="white"/>
<g clip-path="url(#clip0_8375_23191)">
<path d="M50.2634 39.8273C50.739 40.4955 50.6439 41.3545 50.0732 41.8318C49.4073 42.3091 48.4561 42.2136 47.9805 41.6409L44.6512 37.3455L41.4171 41.5455C40.9415 42.2136 39.9902 42.2136 39.3244 41.7364C38.6585 41.2591 38.5634 40.4 39.039 39.7318L42.8439 34.7682L39.039 29.8045C38.5634 29.1364 38.7537 28.1818 39.3244 27.7045C39.9902 27.2273 40.9415 27.4182 41.4171 27.9909L44.6512 32.2864L47.9805 28.1818C48.4561 27.5136 49.3122 27.4182 50.0732 27.8955C50.739 28.3727 50.739 29.3273 50.2634 29.9955L46.5537 34.8636L50.2634 39.8273ZM32.9512 39.2545C30.478 39.2545 28.4805 37.3455 28.4805 34.8636C28.4805 32.4773 30.478 30.4727 32.9512 30.4727C35.4244 30.4727 37.422 32.4773 37.422 34.8636C37.3268 37.3455 35.3293 39.2545 32.9512 39.2545ZM19.8244 39.2545C17.3512 39.2545 15.3537 37.3455 15.3537 34.8636C15.3537 32.4773 17.3512 30.4727 19.8244 30.4727C22.2976 30.4727 24.2951 32.4773 24.2951 34.8636C24.2951 37.3455 22.2976 39.2545 19.8244 39.2545ZM32.9512 27.6091C30.1927 27.6091 27.7195 29.1364 26.4829 31.4273C25.2463 29.1364 22.7732 27.6091 19.9195 27.6091C18.2073 27.6091 16.6854 28.1818 15.4488 29.0409V22.9318C15.4488 22.1682 14.7829 21.5 14.022 21.5C13.1659 21.5 12.5 22.1682 12.5 22.9318V34.9591C12.5951 38.9682 15.8293 42.1182 19.8244 42.1182C22.678 42.1182 25.1512 40.4955 26.3878 38.2045C27.6244 40.4955 30.0976 42.1182 32.8561 42.1182C36.9463 42.1182 40.2756 38.8727 40.2756 34.7682C40.3707 30.8545 37.0415 27.6091 32.9512 27.6091Z" fill="#0071F7"/>
</g>
<defs>
<clipPath id="clip0_8375_23191">
<rect width="39" height="21" fill="white" transform="translate(12.5 21.5)"/>
</clipPath>
</defs>
</svg>
