<svg width="36" height="30" viewBox="0 0 36 30" fill="none" xmlns="http://www.w3.org/2000/svg">
<path d="M3.5199 12.28V14.04C3.6799 14.04 6.7199 14.04 6.7199 14.04V12.28C6.7199 12.28 4.9599 12.28 3.5199 12.28Z" fill="white"/>
<path d="M11.2 15.8H13.44L12.32 12.28L11.2 15.8Z" fill="white"/>
<path d="M35.2 19.8H32.64L30.24 16.6L27.84 19.8H25.28L28.96 15L25.28 10.2H27.84L30.24 13.4L32.64 10.2H35.2L31.68 15L35.2 19.8ZM24.32 17.72C24.32 18.52 23.68 19.8 22.08 19.8H17.44V17.88H22.24V16.12C22.24 16.12 20 16.12 19.36 16.12C18.56 16.12 17.92 15.8 17.76 15.48C17.28 14.84 17.12 14.2 17.12 14.04V12.28C17.12 11.48 17.76 10.2 19.2 10.2H23.52V12.12H19.2V13.88C19.2 13.88 21.6 13.88 22.08 13.88C22.88 13.88 23.36 14.2 23.68 14.52C24.32 15.16 24.32 15.8 24.32 15.96V17.72ZM14.88 19.8L14.08 17.88H10.4L9.76 19.8H7.52L11.04 10.2H13.44L16.96 19.8H14.88ZM3.52 16.12V19.8H1.6V10.2H3.52H6.56C8.16 10.2 8.8 11.48 8.8 12.28V14.04C8.8 14.2 8.8 14.84 8.16 15.48C7.84 15.8 7.36 16.12 6.56 16.12C5.92 16.12 3.52 16.12 3.52 16.12ZM25.6 14.2H27.52V16.12H25.6V14.2ZM32.64 0.600006H3.2C1.44 0.600006 0 2.04001 0 3.80001V26.2C0 27.96 1.44 29.4 3.2 29.4H32.8C34.56 29.4 36 27.96 36 26.2V3.80001C35.84 2.04001 34.56 0.600006 32.64 0.600006Z" fill="white"/>
</svg>
