<svg width="64" height="64" viewBox="0 0 64 64" fill="none" xmlns="http://www.w3.org/2000/svg">
<rect width="64" height="64" rx="12" fill="white"/>
<path fill-rule="evenodd" clip-rule="evenodd" d="M56.4023 0H7.60791C3.41025 0 0.00578083 3.40207 6.13305e-05 7.60244V56.3565C-0.00805585 58.3809 0.789865 60.3251 2.21749 61.7594C3.64511 63.1938 5.58486 64 7.60791 64H56.4023C58.4236 63.9973 60.3607 63.1898 61.7861 61.7558C63.2115 60.3218 64.008 58.3791 63.9999 56.3565V7.60244C63.9942 3.40607 60.596 0.00565168 56.4023 0ZM27.6014 46.0968C27.5987 46.7734 27.3268 47.4211 26.8458 47.8967C26.3648 48.3722 25.7143 48.6364 25.0382 48.6311H14.3749C12.9803 48.6253 11.8527 47.4924 11.8527 46.0968V14.3431C11.8527 12.9475 12.9803 11.8146 14.3749 11.8089H25.0382C26.4345 11.8145 27.565 12.9458 27.5707 14.3431L27.6014 46.0968ZM52.2088 31.5178C52.2088 32.1953 51.9378 32.8445 51.4562 33.3207C50.9746 33.7968 50.3225 34.0602 49.6456 34.0521H38.9823C37.586 34.0463 36.4555 32.915 36.4498 31.5178V14.3431C36.4555 12.9458 37.586 11.8145 38.9823 11.8089H49.6456C51.0402 11.8146 52.1678 12.9475 52.1678 14.3431L52.2088 31.5178Z" fill="url(#paint0_linear_3421_7904)"/>
<defs>
<linearGradient id="paint0_linear_3421_7904" x1="48" y1="61" x2="25" y2="1.8554e-06" gradientUnits="userSpaceOnUse">
<stop stop-color="#0052CC"/>
<stop offset="1" stop-color="#2684FF"/>
</linearGradient>
</defs>
</svg>
