<svg width="64" height="65" viewBox="0 0 64 65" fill="none" xmlns="http://www.w3.org/2000/svg">
<path d="M64 13C64 6.37258 58.6274 1 52 1H12.0022C5.37478 1 0.00219727 6.37258 0.00219727 13V22.5866V32.9874L0.0809565 51.0025V52.952C0.0809565 59.5751 5.44678 64.9459 12.0699 64.952L51.9889 64.9889C58.6207 64.995 64 59.6207 64 52.9889V13Z" fill="url(#paint0_radial_3421_7912)"/>
<path d="M32.0227 1.00004C32.0146 1.00004 32.0169 1.00005 32.0088 1.00003C31.8497 0.999711 20.4621 0.976676 11.3131 0.972369C4.95915 0.969378 0.12167 5.95968 0.274673 12.3118L0.294606 13.1394L0.00223362 22.5866V32.9875L0.0809929 51.0026V52.9884C0.0809929 59.5972 5.42465 64.9621 12.0335 64.9883L15.0003 65L52.0121 64.9629C58.6348 64.9562 64 59.5856 64 52.9629V13C64 6.37262 58.6275 1.00004 52.0001 1.00004H32.0227Z" fill="url(#paint1_radial_3421_7912)"/>
<path d="M32.0104 1L13.984 1.0768L0.0970065 1.0768C0.0866754 1.0768 0.0767525 1.07276 0.0693532 1.06556C0.0442465 1.04109 0.00207536 1.05888 0.00207545 1.09394L0.00213434 22.5866V32.9874L0.0808935 51.0025L0.0703024 52.8848C0.0327602 59.557 5.44517 64.9785 12.1174 64.9522L14.9901 64.9409L31.942 65L48.8791 64.9508L51.9544 64.9488C58.5996 64.9444 63.976 59.5406 63.9464 52.8954L63.9384 51.1024L64 32.9791L63.937 14.8704V13.034C63.937 6.42335 58.5904 1.05771 51.9798 1.03411L42.4257 1H32.0104Z" fill="url(#paint2_radial_3421_7912)"/>
<path d="M32.0104 1C18.6507 1 12.5 1 12.5 1H12.0019C5.37372 1 0.000837681 6.37372 0.00187091 13.0019L0.00218238 15V22.5866C-0.00272798 25.135 0.00218238 28.4888 0.00218238 32.9874L0.00082136 52.9518C0.000368269 59.598 5.40196 64.9787 12.0481 64.9525L14.9265 64.9412C14.9689 64.941 15.0052 64.941 15.0476 64.9413C15.8199 64.9463 24.2387 65 31.942 65H63.9508C63.978 65 64 64.978 64 64.9508L63.9385 51.1024L64 32.9791C64 24.1976 64 15.0001 64 15C64 15 64 15 64 15V13C64 6.37258 58.6274 1 52 1H42.4257H32.0104Z" fill="url(#paint3_radial_3421_7912)"/>
<path d="M32.013 9.21777C25.5505 9.21777 24.7395 9.246 22.2012 9.36143C19.668 9.47735 17.9388 9.87811 16.4258 10.4661C14.8608 11.0735 13.5332 11.8859 12.2105 13.208C10.8869 14.5297 10.0739 15.8563 9.46411 17.4197C8.87417 18.9321 8.47261 20.6604 8.3586 23.1908C8.24508 25.7271 8.21533 26.5381 8.21533 32.9958C8.21533 39.4535 8.24409 40.2614 8.35909 42.7978C8.47561 45.3291 8.87666 47.057 9.4646 48.5689C10.0729 50.1328 10.8859 51.4594 12.209 52.7811C13.5312 54.1037 14.8588 54.9181 16.4228 55.5254C17.9368 56.1135 19.6665 56.5142 22.1992 56.6302C24.7375 56.7455 25.548 56.7738 32.01 56.7738C38.473 56.7738 39.2816 56.7456 41.8198 56.6301C44.353 56.5142 46.0842 56.1135 47.5982 55.5254C49.1627 54.9181 50.4884 54.1037 51.8105 52.7811C53.1341 51.4594 53.9472 50.1328 54.5569 48.5694C55.1419 47.057 55.5434 45.3287 55.6624 42.7983C55.7764 40.262 55.8062 39.4535 55.8062 32.9958C55.8062 26.538 55.7764 25.7276 55.6624 23.1913C55.5434 20.6599 55.1419 18.9321 54.5569 17.4202C53.9472 15.8563 53.1341 14.5297 51.8105 13.208C50.4869 11.8854 49.1632 11.0729 47.5967 10.4661C46.0797 9.87811 44.3496 9.47735 41.8163 9.36143C39.2781 9.246 38.47 9.21777 32.0056 9.21777H32.013ZM29.8783 13.5028C30.5119 13.5018 31.2188 13.5028 32.013 13.5028C38.3664 13.5028 39.1195 13.5256 41.6284 13.6395C43.9485 13.7455 45.2077 14.1329 46.0465 14.4583C47.157 14.8893 47.9487 15.4045 48.781 16.2367C49.6139 17.069 50.1294 17.8616 50.5617 18.9712C50.8874 19.8084 51.2756 21.0666 51.3812 23.385C51.4952 25.8916 51.52 26.6446 51.52 32.9903C51.52 39.3361 51.4952 40.0891 51.3812 42.5957C51.2751 44.914 50.8874 46.1723 50.5617 47.0094C50.1304 48.1191 49.6139 48.9092 48.781 49.7409C47.9482 50.5732 47.1574 51.0884 46.0465 51.5193C45.2087 51.8463 43.9485 52.2327 41.6284 52.3387C39.12 52.4526 38.3664 52.4774 32.013 52.4774C25.659 52.4774 24.906 52.4526 22.3975 52.3387C20.0775 52.2317 18.8183 51.8443 17.979 51.5189C16.8685 51.0879 16.0753 50.5727 15.2425 49.7405C14.4096 48.9082 13.8941 48.1176 13.4618 47.0075C13.1361 46.1703 12.7479 44.912 12.6423 42.5937C12.5283 40.0871 12.5055 39.3341 12.5055 32.9844C12.5055 26.6347 12.5283 25.8857 12.6423 23.3791C12.7484 21.0607 13.1361 19.8025 13.4618 18.9643C13.8931 17.8546 14.4096 17.062 15.2425 16.2298C16.0753 15.3976 16.8685 14.8824 17.979 14.4504C18.8178 14.1235 20.0775 13.7371 22.3975 13.6306C24.5927 13.5315 25.4434 13.5018 29.8783 13.4968L29.8783 13.5028ZM44.7149 17.4509C43.1385 17.4509 41.8594 18.7275 41.8594 20.3033C41.8594 21.8786 43.1385 23.1566 44.7149 23.1566C46.2914 23.1566 47.5704 21.8786 47.5704 20.3033C47.5704 18.728 46.2914 17.4499 44.7149 17.4499L44.7149 17.4509ZM32.013 20.7848C25.2644 20.7848 19.7929 26.2522 19.7929 32.9958C19.7929 39.7393 25.2644 45.2043 32.013 45.2043C38.7615 45.2043 44.2311 39.7393 44.2311 32.9958C44.2311 26.2522 38.7611 20.7848 32.0125 20.7848H32.013ZM32.013 25.0698C36.3934 25.0698 39.9449 28.6182 39.9449 32.9958C39.9449 37.3729 36.3934 40.9218 32.013 40.9218C27.6321 40.9218 24.0811 37.3729 24.0811 32.9958C24.0811 28.6182 27.6321 25.0698 32.013 25.0698Z" fill="white"/>
<defs>
<radialGradient id="paint0_radial_3421_7912" cx="0" cy="0" r="1" gradientUnits="userSpaceOnUse" gradientTransform="translate(61.9337 30.9976) rotate(164.25) scale(40.8924 29.461)">
<stop stop-color="#FF005F"/>
<stop offset="1" stop-color="#FC01D8"/>
</radialGradient>
<radialGradient id="paint1_radial_3421_7912" cx="0" cy="0" r="1" gradientUnits="userSpaceOnUse" gradientTransform="translate(16.9998 69.9293) rotate(-90) scale(51.086 54.2012)">
<stop stop-color="#FFCC00"/>
<stop offset="0.1242" stop-color="#FFCC00"/>
<stop offset="0.5672" stop-color="#FE4A05"/>
<stop offset="0.6942" stop-color="#FF0F3F"/>
<stop offset="1" stop-color="#FE0657" stop-opacity="0"/>
</radialGradient>
<radialGradient id="paint2_radial_3421_7912" cx="0" cy="0" r="1" gradientUnits="userSpaceOnUse" gradientTransform="translate(33.6174 64.0974) rotate(-59.8703) scale(21.1245 27.5017)">
<stop stop-color="#FFCC00"/>
<stop offset="1" stop-color="#FFCC00" stop-opacity="0"/>
</radialGradient>
<radialGradient id="paint3_radial_3421_7912" cx="0" cy="0" r="1" gradientUnits="userSpaceOnUse" gradientTransform="translate(8.68343 3.60606) rotate(164.274) scale(40.4388 13.7775)">
<stop stop-color="#780CFF"/>
<stop offset="1" stop-color="#820BFF" stop-opacity="0"/>
</radialGradient>
</defs>
</svg>
