<svg width="64" height="64" viewBox="0 0 64 64" fill="none" xmlns="http://www.w3.org/2000/svg">
<rect width="64" height="64" fill="#E32124"/>
<path d="M54.9146 29.6174C54.9621 29.6174 55.0096 29.6174 55.0367 29.5687C55.0435 29.5478 55.0503 29.527 55.0503 29.5061C55.0503 29.4644 55.0299 29.4296 54.996 29.4087C54.9621 29.3948 54.9282 29.3948 54.8535 29.3948H54.8196V29.6104H54.9146V29.6174ZM54.8535 29.2765C54.9553 29.2765 55.0028 29.2765 55.0435 29.2974C55.1792 29.3391 55.1928 29.4644 55.1928 29.5061C55.1928 29.513 55.1928 29.5409 55.186 29.5687C55.1792 29.5965 55.1657 29.6522 55.091 29.7009C55.0774 29.7078 55.0774 29.7078 55.0571 29.7148L55.2267 30.0348H55.0639L54.9146 29.7426H54.8196V30.0348H54.6703V29.2765H54.8535ZM54.9146 30.3478C55.281 30.3478 55.5728 30.0417 55.5728 29.673C55.5728 29.2974 55.281 28.9983 54.9146 28.9983C54.555 28.9983 54.2632 29.2974 54.2632 29.673C54.2632 30.0417 54.555 30.3478 54.9146 30.3478ZM54.3989 29.673C54.3989 29.3809 54.6296 29.1374 54.9146 29.1374C55.2064 29.1374 55.4371 29.3809 55.4371 29.673C55.4371 29.9582 55.1996 30.2017 54.9146 30.2017C54.6364 30.2017 54.3989 29.9582 54.3989 29.673ZM49.8255 33.965C48.957 33.965 48.231 33.3668 48.007 32.5529H52.8111L53.4761 31.4956H48.0003C48.2174 30.6817 48.957 30.0765 49.8187 30.0765H53.13L53.7882 29.0192H49.7441C48.1224 29.0192 46.8128 30.3617 46.8128 32.0173C46.8128 33.6729 48.1224 35.0154 49.7441 35.0154H53.2182L53.8764 33.9581H49.8187L49.8255 33.965ZM36.0579 35.0224C34.443 35.0224 33.1334 33.6798 33.1334 32.0242C33.1334 30.3687 34.443 29.0261 36.0579 29.0261H40.102L39.4371 30.0835H36.1258C35.0808 30.0835 34.2327 30.953 34.2327 32.0242C34.2327 33.0955 35.0808 33.965 36.1258 33.965H40.1835L39.5185 35.0224H36.0444H36.0579ZM14.6839 33.965C15.7288 33.965 16.5838 33.0955 16.5838 32.0242C16.5838 30.953 15.7356 30.0835 14.6839 30.0835H11.4337C10.3887 30.0835 9.54054 30.953 9.54054 32.0242C9.54054 33.0955 10.3887 33.965 11.4337 33.965H14.6839ZM11.359 35.0224C9.73732 35.0224 8.42773 33.6798 8.42773 32.0242C8.42773 30.3687 9.73732 29.0261 11.359 29.0261H14.7585C16.3735 29.0261 17.683 30.3687 17.683 32.0242C17.683 33.6798 16.3735 35.0224 14.7585 35.0224H11.359ZM23.2064 33.0816C24.3056 33.0816 25.1877 32.1703 25.1877 31.0504C25.1877 29.9304 24.3056 29.0192 23.2064 29.0192H18.2802V35.0224H19.4065V30.0765H23.1317C23.6474 30.0765 24.0749 30.5147 24.0749 31.0504C24.0749 31.586 23.6474 32.0173 23.1317 32.0173H19.9561L23.3081 35.0224H24.9434L22.6839 33.0816H23.1928H23.2064ZM41.8255 33.965V29.0261H40.7059V34.452C40.7059 34.605 40.7602 34.7441 40.8688 34.8554C40.9774 34.9598 41.1266 35.0293 41.2827 35.0293H46.4193L47.0842 33.972H41.8323L41.8255 33.965ZM28.0511 32.9077H31.0571L29.4693 30.2852L26.5516 35.0293H25.2284L28.7704 29.3391C28.9265 29.1096 29.1843 28.9705 29.4693 28.9705C29.7407 28.9705 29.9986 29.1026 30.1546 29.3252L33.7102 35.0293H32.3802L31.756 33.972H28.7161L28.0511 32.9146V32.9077Z" fill="#FEFEFE"/>
</svg>
