<svg width="32" height="38" viewBox="0 0 32 38" fill="none" xmlns="http://www.w3.org/2000/svg">
<path d="M21.9326 4.32666L19.9307 8.31494H19.0596C20.409 9.71996 21.1933 11.5785 21.1934 13.7085C21.1934 16.2469 20.1046 18.5135 18.4941 19.6919V19.8276C20.6272 20.9155 21.9766 23.6352 21.9766 26.7173C21.9765 32.2016 17.6237 36.0541 11.2686 36.0542C6.52379 36.0542 2.47517 33.9236 0.385742 30.3882L4.17285 26.853C5.73989 29.3914 8.43866 30.9779 11.3984 30.978C14.4021 30.978 16.4922 29.3006 16.4922 26.853C16.4922 24.6774 14.968 23.2271 12.835 23.2271C12.557 23.2271 12.3495 23.2353 12.1191 23.2446L12.1025 23.2456H12.1016C11.7959 23.2581 11.4451 23.272 10.833 23.272C5.52242 23.272 1.3868 19.2387 1.38672 13.6636C1.38672 8.0434 5.52217 4.10018 11.3115 4.1001H21.9326V4.32666ZM11.2686 9.0835C8.65681 9.0835 6.74137 11.1226 6.74121 13.6606C6.74121 16.2896 8.6132 18.2847 11.2686 18.2847C13.9238 18.2846 15.8828 16.2896 15.8828 13.6606C15.8826 11.168 13.9237 9.08362 11.2686 9.0835Z" fill="#E7FFF0"/>
<path d="M29.4551 0C30.6474 9.57777e-05 31.6143 0.993685 31.6143 2.21875V35.7812C31.6143 37.0063 30.6474 37.9999 29.4551 38C28.2627 38 27.2959 37.0063 27.2959 35.7812V2.21875C27.2959 0.993626 28.2627 0 29.4551 0Z" fill="#7ACC6C"/>
</svg>
