<svg width="36" height="36" viewBox="0 0 36 36" fill="none" xmlns="http://www.w3.org/2000/svg">
<path d="M11.9758 28.9895C11.9758 28.8408 11.8306 28.6922 11.6129 28.6922C11.3952 28.6922 11.25 28.8408 11.25 28.9895C11.25 29.1382 11.3952 29.2868 11.6129 29.2125C11.8306 29.2125 11.9758 29.1382 11.9758 28.9895ZM9.72581 28.6178C9.79839 28.4692 10.0161 28.3948 10.2339 28.4692C10.4516 28.5435 10.5242 28.6922 10.5242 28.8408C10.4516 28.9895 10.2339 29.0638 10.0887 28.9895C9.87097 28.9895 9.72581 28.7665 9.72581 28.6178ZM12.9919 28.5435C13.1371 28.4692 13.3548 28.6178 13.3548 28.7665C13.4274 28.9152 13.2823 28.9895 13.0645 29.0638C12.8468 29.1382 12.629 29.0638 12.629 28.9152C12.629 28.6922 12.7742 28.5435 12.9919 28.5435ZM17.7097 0C27.7984 0 36 7.8792 36 18.137C36 26.3879 31.0645 33.4494 23.8065 35.9024C22.8629 36.1254 22.5 35.5307 22.5 35.0104C22.5 34.4157 22.5726 31.2938 22.5726 28.8408C22.5726 27.0569 21.9919 25.9419 21.3387 25.3472C25.4032 24.9012 29.6855 24.3066 29.6855 17.1707C29.6855 15.0894 28.9597 14.1231 27.7984 12.7851C27.9435 12.2648 28.5968 10.3322 27.5806 7.73053C26.0565 7.21021 22.5726 9.7375 22.5726 9.7375C21.121 9.29151 19.5968 9.14284 18 9.14284C16.4758 9.14284 14.9516 9.29151 13.5 9.7375C13.5 9.7375 9.94355 7.28454 8.49194 7.73053C7.47581 10.3322 8.05645 12.2648 8.27419 12.7851C7.1129 14.1231 6.53226 15.0894 6.53226 17.1707C6.53226 24.3066 10.6694 24.9012 14.7339 25.3472C14.1532 25.8676 13.7177 26.6852 13.5726 27.8745C12.4839 28.3948 9.87097 29.2125 8.27419 26.3135C7.25806 24.5296 5.44355 24.3809 5.44355 24.3809C3.70161 24.3809 5.37097 25.5702 5.37097 25.5702C6.53226 26.0906 7.33064 28.2462 7.33064 28.2462C8.41935 31.5911 13.5 30.4761 13.5 30.4761C13.5 32.0371 13.5 34.5644 13.5 35.0847C13.5 35.5307 13.2097 36.1254 12.2661 35.9767C5.00806 33.4494 0 26.3879 0 18.137C0 7.8792 7.69355 0 17.7097 0ZM7.04032 25.6446C7.1129 25.5702 7.25806 25.6446 7.40323 25.7189C7.54839 25.8676 7.54839 26.0906 7.47581 26.1649C7.33064 26.2392 7.18548 26.1649 7.04032 26.0906C6.96774 25.9419 6.89516 25.7189 7.04032 25.6446ZM6.24194 25.0499C6.31452 24.9756 6.3871 24.9756 6.53226 25.0499C6.67742 25.1242 6.75 25.1986 6.75 25.2729C6.67742 25.4216 6.53226 25.4216 6.3871 25.3472C6.24194 25.2729 6.16935 25.1986 6.24194 25.0499ZM8.56452 27.7259C8.70968 27.5772 8.92742 27.6515 9.07258 27.8002C9.21774 27.9489 9.21774 28.1719 9.14516 28.2462C9.07258 28.3948 8.85484 28.3205 8.70968 28.1719C8.49194 28.0232 8.49194 27.8002 8.56452 27.7259ZM7.76613 26.6109C7.91129 26.5365 8.05645 26.6109 8.20161 26.7595C8.27419 26.9082 8.27419 27.1312 8.20161 27.2055C8.05645 27.2799 7.91129 27.2055 7.76613 27.0569C7.62097 26.9082 7.62097 26.6852 7.76613 26.6109Z" fill="white"/>
</svg>
