<svg width="64" height="64" viewBox="0 0 64 64" fill="none" xmlns="http://www.w3.org/2000/svg">
<rect width="64" height="64" rx="12" fill="white"/>
<g clip-path="url(#clip0_8375_23138)">
<path fill-rule="evenodd" clip-rule="evenodd" d="M0 17H60L30.3297 47H0V17ZM29.6701 37.1333V23H35.6042C41.2745 23 43.9119 24.8666 43.9119 29.4C43.9119 33.4 41.1427 35.6666 36.5273 35.6666H34.6811V41H25.7141L25.0548 38.7333C23.0767 39.4 20.835 39.2666 18.8569 38.7333L17.9339 41H12.9229L13.1866 39.8C11.7361 41.1333 9.09871 41.6666 7.38442 41.6666C4.87893 41.6666 2.76904 41.1333 0.791016 39.9333L2.63717 36.3333C4.61519 37.5333 5.93387 37.8 7.51629 37.6666C8.43937 37.6666 9.75805 37.4 9.88992 36.2C9.88992 35.2666 8.57123 34.7333 6.85695 34.2C5.53827 33.8 4.08772 33.2666 2.90091 32.4666C1.45036 31.4 0.791016 30.0666 0.791016 28.2C0.922884 26.8666 1.31849 25.6666 2.24156 24.7333C3.56025 23.4 5.67014 22.6 8.17563 22.6C10.2855 22.6 12.9229 23.1333 14.9009 24.2L12.791 27.8C10.9156 26.8518 9.87364 26.7465 8.83172 26.6411C8.70148 26.628 8.57124 26.6148 8.43937 26.6C6.72508 26.4666 5.802 27.1333 5.802 27.8C5.802 28.7333 7.51629 29.4 9.09871 29.9333C11.4723 30.7333 14.5053 31.8 15.0328 34.7333L19.3844 23H24.5273L29.6701 37.1333ZM21.8899 28.7333L20.0438 34.7333C21.2306 35.1333 22.5493 35.1333 23.8679 34.7333L22.0218 28.7333H21.8899ZM34.6811 26.8666V31.6666H35.9998C37.7141 31.6666 39.0328 31 39.0328 29.1333C39.0328 27.4 37.7141 26.8666 35.9998 26.8666H34.6811Z" fill="url(#paint0_linear_8375_23138)"/>
</g>
<defs>
<linearGradient id="paint0_linear_8375_23138" x1="0" y1="17" x2="0" y2="47" gradientUnits="userSpaceOnUse">
<stop stop-color="#00AAEE"/>
<stop offset="1" stop-color="#0055AA"/>
</linearGradient>
<clipPath id="clip0_8375_23138">
<rect width="60" height="30" fill="white" transform="translate(0 17)"/>
</clipPath>
</defs>
</svg>
