<svg width="64" height="64" viewBox="0 0 64 64" fill="none" xmlns="http://www.w3.org/2000/svg">
<rect width="64" height="64" rx="12" fill="#295BF6"/>
<g clip-path="url(#clip0_3421_7951)">
<path d="M38.3333 39.3888C38.3333 41.1376 36.9155 42.5554 35.1666 42.5554H21.4444C17.9466 42.5554 15.1111 39.7199 15.1111 36.2221V24.611C15.1111 22.8622 16.5288 21.4443 18.2778 21.4443H32C35.4978 21.4443 38.3333 24.2799 38.3333 27.7777V39.3888ZM46.3555 23.3441L41.7111 26.8275C40.9137 27.4255 40.4444 28.3641 40.4444 29.3609L40.4445 34.6387C40.4445 35.6354 40.9138 36.5739 41.7111 37.1719L46.3555 40.6553C47.3993 41.4381 48.8889 40.6933 48.8889 39.3886V24.6108C48.8889 23.3061 47.3993 22.5613 46.3555 23.3441Z" fill="white"/>
</g>
<defs>
<clipPath id="clip0_3421_7951">
<rect width="38" height="38" fill="white" transform="translate(13 13)"/>
</clipPath>
</defs>
</svg>
