<svg width="64" height="64" viewBox="0 0 64 64" fill="none" xmlns="http://www.w3.org/2000/svg">
<rect width="64" height="64" rx="12" fill="#58476F"/>
<path d="M35.7846 17.642C35.4935 17.141 35.0825 16.7266 34.5914 16.4389C34.1003 16.1512 33.5458 16 32.9817 16C32.4177 16 31.8632 16.1512 31.3721 16.4389C30.881 16.7266 30.4699 17.141 30.1788 17.642L25.568 25.831C29.0905 27.6545 32.0916 30.4018 34.2735 33.8C36.4555 37.1982 37.7422 41.1291 38.006 45.2025H34.7686C34.5053 41.7109 33.3673 38.3511 31.4672 35.4556C29.5672 32.5601 26.9709 30.2293 23.9353 28.6938L19.6679 36.3451C21.3744 37.1387 22.8611 38.3644 23.9912 39.9097C25.1214 41.4549 25.8588 43.2699 26.1356 45.1879H18.7009C18.6127 45.1815 18.5274 45.1523 18.4528 45.1032C18.3782 45.054 18.3166 44.9864 18.2735 44.9064C18.2304 44.8264 18.2072 44.7365 18.2059 44.6448C18.2047 44.5532 18.2255 44.4626 18.2664 44.3814L20.3265 40.7483C19.6286 40.1445 18.8309 39.6767 17.9721 39.3678L15.933 43.0008C15.7207 43.3784 15.5829 43.7959 15.5275 44.2292C15.4722 44.6625 15.5004 45.1028 15.6106 45.5247C15.7208 45.9465 15.9107 46.3415 16.1694 46.6866C16.428 47.0317 16.7502 47.32 17.1172 47.5349C17.6008 47.8174 18.1458 47.9675 18.7009 47.9709H28.8825C29.0716 45.5513 28.6549 43.1221 27.6727 40.9185C26.6906 38.715 25.1764 36.8117 23.2766 35.3932L24.8953 32.4867C27.2928 34.1942 29.2195 36.5205 30.4852 39.2359C31.7509 41.9513 32.3119 44.962 32.1128 47.9709H40.7388C40.9397 43.4128 39.9834 38.8799 37.9655 34.8251C35.9477 30.7704 32.9389 27.3358 29.2398 24.8646L32.5122 19.0517C32.5852 18.925 32.7034 18.8333 32.8412 18.7965C32.979 18.7598 33.1252 18.781 33.248 18.8555C33.6194 19.0662 47.4658 44.1198 47.7251 44.4105C47.7708 44.4954 47.794 44.5913 47.7924 44.6885C47.7909 44.7858 47.7646 44.8808 47.7163 44.9642C47.6679 45.0475 47.5992 45.1161 47.5171 45.163C47.435 45.21 47.3423 45.2336 47.2486 45.2315H43.9131C43.9552 46.1568 43.9552 47.0796 43.9131 47.9999H47.2626C47.6879 48.0028 48.1096 47.9182 48.5031 47.751C48.8967 47.5837 49.2544 47.3372 49.5555 47.0257C49.8566 46.7142 50.0951 46.3438 50.2572 45.9361C50.4193 45.5283 50.5018 45.0913 50.5 44.6502C50.5004 44.0677 50.3504 43.4957 50.0655 42.9936L35.7846 17.642Z" fill="white"/>
</svg>
