<svg width="64" height="64" viewBox="0 0 64 64" fill="none" xmlns="http://www.w3.org/2000/svg">
<rect width="64" height="64" rx="12" fill="white"/>
<g clip-path="url(#clip0_3421_7935)">
<path d="M39.703 27.5H49.7768C50.7285 27.5 51.5001 28.2656 51.5001 29.21V38.3153C51.5001 41.7862 48.6645 44.6 45.1666 44.6H45.1367C41.6388 44.6005 38.8029 41.7871 38.8024 38.3162C38.8024 38.3159 38.8024 38.3156 38.8024 38.3153V28.3937C38.8024 27.9001 39.2056 27.5 39.703 27.5Z" fill="#5059C9"/>
<path d="M46.5116 25.6996C48.7657 25.6996 50.593 23.8864 50.593 21.6496C50.593 19.4129 48.7657 17.5996 46.5116 17.5996C44.2575 17.5996 42.4302 19.4129 42.4302 21.6496C42.4302 23.8864 44.2575 25.6996 46.5116 25.6996Z" fill="#5059C9"/>
<path d="M33.8139 25.7C37.0698 25.7 39.7093 23.0809 39.7093 19.85C39.7093 16.6191 37.0698 14 33.8139 14C30.558 14 27.9186 16.6191 27.9186 19.85C27.9186 23.0809 30.558 25.7 33.8139 25.7Z" fill="#7B83EB"/>
<path d="M41.6747 27.5H25.0462C24.1058 27.5231 23.3619 28.2975 23.3837 29.2307V39.6158C23.2524 45.2158 27.7172 49.863 33.3604 50C39.0037 49.863 43.4685 45.2158 43.3372 39.6158V29.2307C43.359 28.2975 42.6151 27.5231 41.6747 27.5Z" fill="#7B83EB"/>
<path opacity="0.1" d="M34.2674 27.5V42.053C34.2629 42.7204 33.8553 43.3199 33.2334 43.574C33.0354 43.6571 32.8226 43.7 32.6076 43.7H24.1818C24.0639 43.403 23.9551 43.106 23.8644 42.8C23.5469 41.7673 23.3849 40.6937 23.3836 39.614V29.228C23.3618 28.2963 24.1045 27.5231 25.0434 27.5H34.2674Z" fill="black"/>
<path opacity="0.2" d="M33.3604 27.5V42.953C33.3604 43.1663 33.3172 43.3775 33.2334 43.574C32.9774 44.1911 32.3732 44.5955 31.7006 44.6H24.6081C24.4539 44.303 24.3088 44.006 24.1818 43.7C24.0548 43.394 23.9551 43.106 23.8644 42.8C23.5469 41.7673 23.3849 40.6937 23.3836 39.614V29.228C23.3618 28.2963 24.1045 27.5231 25.0434 27.5H33.3604Z" fill="black"/>
<path opacity="0.2" d="M33.3605 27.5V41.153C33.3536 42.0598 32.6145 42.7931 31.7008 42.8H23.8645C23.547 41.7673 23.385 40.6937 23.3838 39.614V29.228C23.362 28.2963 24.1046 27.5231 25.0435 27.5H33.3605Z" fill="black"/>
<path opacity="0.2" d="M32.4535 27.5V41.153C32.4466 42.0598 31.7076 42.7931 30.7938 42.8H23.8645C23.547 41.7673 23.385 40.6937 23.3838 39.614V29.228C23.362 28.2963 24.1046 27.5231 25.0435 27.5H32.4535Z" fill="black"/>
<path opacity="0.1" d="M34.2675 22.8472V25.6822C34.1133 25.6912 33.9682 25.7002 33.814 25.7002C33.6598 25.7002 33.5147 25.6912 33.3605 25.6822C33.0544 25.662 32.7507 25.6138 32.4535 25.5382C30.6169 25.1066 29.0996 23.8284 28.3721 22.1002C28.247 21.81 28.1498 21.5086 28.0819 21.2002H32.6077C33.5229 21.2036 34.264 21.939 34.2675 22.8472Z" fill="black"/>
<path opacity="0.2" d="M33.3604 23.7466V25.6816C33.0543 25.6614 32.7507 25.6132 32.4535 25.5376C30.6168 25.106 29.0995 23.8279 28.3721 22.0996H31.7007C32.6159 22.103 33.357 22.8384 33.3604 23.7466Z" fill="black"/>
<path opacity="0.2" d="M33.3604 23.7466V25.6816C33.0543 25.6614 32.7507 25.6132 32.4535 25.5376C30.6168 25.106 29.0995 23.8279 28.3721 22.0996H31.7007C32.6159 22.103 33.357 22.8384 33.3604 23.7466Z" fill="black"/>
<path opacity="0.2" d="M32.4535 23.7466V25.5376C30.6168 25.106 29.0995 23.8279 28.3721 22.0996H30.7937C31.7089 22.1031 32.45 22.8384 32.4535 23.7466Z" fill="black"/>
<path d="M14.1625 22.0996H30.791C31.7092 22.0996 32.4535 22.8382 32.4535 23.7493V40.2499C32.4535 41.161 31.7091 41.8996 30.791 41.8996H14.1625C13.2443 41.8996 12.5 41.161 12.5 40.2499V23.7493C12.5 22.8382 13.2443 22.0996 14.1625 22.0996Z" fill="url(#paint0_linear_3421_7935)"/>
<path d="M26.852 28.3801H23.5279V37.3621H21.4101V28.3801H18.1014V26.6377H26.852V28.3801Z" fill="white"/>
</g>
<defs>
<linearGradient id="paint0_linear_3421_7935" x1="15.9663" y1="20.8106" x2="28.8369" y2="43.2747" gradientUnits="userSpaceOnUse">
<stop stop-color="#5A62C3"/>
<stop offset="0.5" stop-color="#4D55BD"/>
<stop offset="1" stop-color="#3940AB"/>
</linearGradient>
<clipPath id="clip0_3421_7935">
<rect width="39" height="36" fill="white" transform="translate(12.5 14)"/>
</clipPath>
</defs>
</svg>
