<svg width="64" height="64" viewBox="0 0 64 64" fill="none" xmlns="http://www.w3.org/2000/svg">
<rect width="64" height="64" fill="white"/>
<g clip-path="url(#clip0_8375_23244)">
<path d="M42.9229 20.7859C41.1827 21.4962 40.2652 22.4492 37.6076 26.3301C36.7217 27.6296 35.9624 28.7211 35.9149 28.7731C35.8358 28.8597 34.6178 30.5403 34.5544 30.6443C34.5387 30.6616 34.0008 30.5403 33.368 30.3497C32.7195 30.1591 31.6595 29.9166 30.9951 29.7953L29.7929 29.6047L29.7138 27.9241C29.5873 25.3599 28.9861 24.1991 27.4991 23.6446C26.3443 23.2288 25.1104 23.6446 24.098 24.8228C23.5127 25.4985 22.0731 27.9761 21.5511 29.2235L21.1714 30.0898L19.1782 30.7136C18.0709 31.0601 16.9161 31.4586 16.6155 31.6145C16.3149 31.7704 16.2042 31.8397 16.3782 31.7878C17.5963 31.3719 20.5861 30.6443 20.6652 30.7309C20.8551 30.9388 18.8618 35.6861 17.9601 37.2107C16.4731 39.7057 14.1793 41.8367 11.7432 43.0149C10.968 43.3788 10.8257 43.4827 11.237 43.4133C13.0087 43.0669 15.2709 41.8887 16.9477 40.4161C18.9251 38.7008 20.0325 37.0721 22.1522 32.7407L23.307 30.367L24.0188 30.2631C24.9205 30.1245 25.933 30.1245 26.5658 30.2631L27.0561 30.367V31.5279C27.0561 32.9659 27.3883 34.2133 28.0053 35.1489C28.5907 36.0325 29.0652 36.3964 30.0776 36.6737C31.5646 37.0895 33.1782 36.3618 35.1398 34.352C35.7568 33.711 36.3263 33.1738 36.4053 33.1392C36.7375 33.0006 40.5816 35.5822 43.6663 38.0251C47.3048 40.9184 49.1239 41.3516 50.9748 39.8096C53.5217 37.6958 53.6483 31.961 51.2754 26.6073C49.551 22.7437 47.368 20.6993 44.7737 20.526C44.0144 20.474 43.5239 20.5433 42.9229 20.7859ZM45.9602 24.6495C47.5263 26.0009 49.029 28.7211 49.6934 31.4586C50.1048 33.1392 50.1997 36.0672 49.8517 36.7429C49.472 37.5053 48.9974 37.9557 48.5703 37.9557C48.0483 37.9557 46.2924 37.0201 43.1127 35.0104C41.7205 34.1441 39.8856 33.0699 39.0313 32.6194C38.0822 32.1343 37.5127 31.7358 37.5602 31.5972C37.6709 31.2853 41.9895 25.4465 42.4958 24.9441C43.698 23.7313 44.7737 23.6446 45.9602 24.6495ZM27.0561 26.3475C27.151 26.5381 27.2144 27.3004 27.1827 28.0454L27.1353 29.3795L25.5534 29.5008C24.6832 29.5527 23.9398 29.5701 23.8924 29.5354C23.75 29.3622 24.6358 27.8202 25.3951 26.9365C26.2493 25.9316 26.7714 25.7584 27.0561 26.3475ZM31.5805 31.1294C32.4505 31.3719 33.2098 31.6318 33.289 31.7185C33.4788 31.9264 32.9093 32.6194 31.9602 33.2951C30.6471 34.248 29.8561 33.7283 29.6663 31.7531C29.5398 30.471 29.429 30.5057 31.5805 31.1294Z" fill="url(#paint0_linear_8375_23244)"/>
</g>
<defs>
<linearGradient id="paint0_linear_8375_23244" x1="25.1183" y1="36.2232" x2="30.6834" y2="22.1228" gradientUnits="userSpaceOnUse">
<stop stop-color="#488D8E"/>
<stop offset="1" stop-color="#36686A"/>
</linearGradient>
<clipPath id="clip0_8375_23244">
<rect width="42" height="23" fill="white" transform="translate(11 20.5)"/>
</clipPath>
</defs>
</svg>
