<?xml version="1.0" encoding="UTF-8"?>
<svg width="1024px" height="1024px" viewBox="0 0 1024 1024" version="1.1" xmlns="http://www.w3.org/2000/svg" xmlns:xlink="http://www.w3.org/1999/xlink">
    <defs>
        <linearGradient x1="50%" y1="0%" x2="50%" y2="100%" id="linearGradient-1">
            <stop stop-color="#FF61AD" offset="0%"></stop>
            <stop stop-color="#FF2719" offset="100%"></stop>
        </linearGradient>
        <linearGradient x1="50%" y1="0%" x2="50%" y2="100%" id="linearGradient-2">
            <stop stop-color="#FD4C94" offset="0%"></stop>
            <stop stop-color="#FF0000" offset="100%"></stop>
        </linearGradient>
    </defs>
    <g id="App-Icon-/-Apple-/-Health-/-Light" stroke="none" stroke-width="1" fill="none" fill-rule="evenodd">
        <rect id="Origin-Color" fill="#FFFFFF" x="0" y="0" width="1024" height="1024"></rect>
        <path d="M735.428571,171 C687.542805,171 648.825683,187.286617 624.82343,222.118438 C624.548014,222.518119 624.275569,222.918742 624.00609,223.320299 C623.729889,222.926764 623.454743,222.522121 623.17657,222.118438 C599.189208,187.308227 560.509064,171 521.142857,171 C482.612157,171 448.585406,185.810913 424.187599,210.26681 C399.768414,234.744136 385,268.878086 385,307.469388 C385,363.258884 410.974657,419.493584 452.34081,468.362628 C496.344132,520.347165 557.773781,564.000768 624.01129,589.930711 C678.403156,571.430314 743.136072,524.635329 791.517415,467.478697 C833.360043,418.046755 863,360.851572 863,307.469388 C863,269.376255 848.611642,235.626302 825.782001,211.216704 C802.389166,186.204936 770.132764,171 735.428571,171 Z" id="Health-Icon" stroke="url(#linearGradient-2)" stroke-width="2" fill="url(#linearGradient-1)"></path>
    </g>
</svg>