<svg width="36" height="32" viewBox="0 0 36 32" fill="none" xmlns="http://www.w3.org/2000/svg">
<path d="M20.7846 1.64203C20.4935 1.14104 20.0825 0.726592 19.5914 0.438889C19.1003 0.151186 18.5458 0 17.9817 0C17.4177 0 16.8632 0.151186 16.3721 0.438889C15.881 0.726592 15.4699 1.14104 15.1788 1.64203L10.568 9.83096C14.0905 11.6545 17.0916 14.4018 19.2735 17.8C21.4555 21.1982 22.7422 25.1291 23.006 29.2025H19.7686C19.5053 25.7109 18.3673 22.3511 16.4672 19.4556C14.5672 16.5601 11.9709 14.2293 8.9353 12.6938L4.66786 20.3451C6.37437 21.1387 7.86107 22.3644 8.99125 23.9097C10.1214 25.4549 10.8588 27.2699 11.1356 29.1879H3.70085C3.61268 29.1815 3.52744 29.1523 3.45284 29.1032C3.37823 29.054 3.31659 28.9864 3.27349 28.9064C3.23038 28.8264 3.20716 28.7365 3.20593 28.6448C3.20469 28.5532 3.22547 28.4626 3.2664 28.3814L5.32655 24.7483C4.62857 24.1445 3.83088 23.6767 2.97209 23.3678L0.93297 27.0008C0.720687 27.3784 0.582874 27.7959 0.527538 28.2292C0.472201 28.6625 0.500444 29.1028 0.610626 29.5247C0.720808 29.9465 0.910731 30.3415 1.16936 30.6866C1.428 31.0317 1.75018 31.32 2.1172 31.5349C2.60077 31.8174 3.14582 31.9675 3.70085 31.9709H13.8825C14.0716 29.5513 13.6549 27.1221 12.6727 24.9185C11.6906 22.715 10.1764 20.8117 8.27662 19.3932L9.8953 16.4867C12.2928 18.1942 14.2195 20.5205 15.4852 23.2359C16.7509 25.9513 17.3119 28.962 17.1128 31.9709H25.7388C25.9397 27.4128 24.9834 22.8799 22.9655 18.8251C20.9477 14.7704 17.9389 11.3358 14.2398 8.86456L17.5122 3.05166C17.5852 2.92497 17.7034 2.83327 17.8412 2.79653C17.979 2.75979 18.1252 2.78097 18.248 2.85547C18.6194 3.06619 32.4658 28.1198 32.7251 28.4105C32.7708 28.4954 32.794 28.5913 32.7924 28.6885C32.7909 28.7858 32.7646 28.8808 32.7163 28.9642C32.6679 29.0475 32.5992 29.1161 32.5171 29.163C32.435 29.21 32.3423 29.2336 32.2486 29.2315H28.9131C28.9552 30.1568 28.9552 31.0796 28.9131 31.9999H32.2626C32.6879 32.0028 33.1096 31.9182 33.5031 31.751C33.8967 31.5837 34.2544 31.3372 34.5555 31.0257C34.8566 30.7142 35.0951 30.3438 35.2572 29.9361C35.4193 29.5283 35.5018 29.0913 35.5 28.6502C35.5004 28.0677 35.3504 27.4957 35.0655 26.9936L20.7846 1.64203Z" fill="white"/>
</svg>
