<svg width="64" height="64" viewBox="0 0 64 64" fill="none" xmlns="http://www.w3.org/2000/svg">
<rect width="64" height="64" fill="white"/>
<path d="M34.9926 15.2C33.7386 15.2 32.3472 15.5779 31.4883 16.9177C24.0847 28.4613 15.4785 25.6269 15.4785 34.4392C15.4785 43.2515 22.6417 48.8 31.4883 48.8C40.335 48.8 47.4981 41.6539 47.4981 32.8588C47.4981 25.6613 42.8601 15.5779 34.9926 15.2Z" fill="#88F368" fill-opacity="0.4"/>
<path d="M13.9793 29.4899C14.6542 30.0092 15.0727 30.7234 15.2346 31.6193H13.4933C13.4123 31.1649 13.1694 30.7623 12.7914 30.4897C12.4269 30.217 11.9545 30.0742 11.4011 30.0871C10.8071 30.0742 10.2267 30.3079 9.82174 30.7364C9.40329 31.1649 9.18731 31.8011 9.18731 32.6321C9.18731 33.4631 9.40329 34.0994 9.82174 34.5279C10.2267 34.9563 10.8071 35.1901 11.4011 35.1771C11.9545 35.1771 12.4269 35.0342 12.7914 34.7616C13.1694 34.4759 13.4123 34.0734 13.4933 33.6189H15.2346C15.0727 34.5149 14.6542 35.229 13.9793 35.7484C13.3044 36.2808 12.4539 36.5405 11.4281 36.5405C10.7126 36.5534 10.0107 36.3976 9.38979 36.073C8.79586 35.7614 8.30991 35.281 7.99944 34.7096C7.66198 34.1253 7.5 33.4242 7.5 32.6191C7.5 31.8141 7.66198 31.1129 7.99944 30.5416C8.32341 29.9703 8.79586 29.5028 9.38979 29.1782C10.0107 28.8536 10.7126 28.6978 11.4281 28.7108C12.4674 28.6978 13.3179 28.9575 13.9793 29.4899ZM27.1133 26.1788V36.4366H25.4665V26.1788H27.1133ZM34.605 29.1782C35.2124 29.4899 35.7119 29.9573 36.0493 30.5416C36.4003 31.1389 36.5623 31.8271 36.5623 32.6191C36.5623 33.4112 36.3868 34.1123 36.0493 34.7096C35.7119 35.2939 35.2124 35.7614 34.605 36.073C33.9706 36.3976 33.2551 36.5534 32.5262 36.5405C31.8108 36.5534 31.0954 36.3846 30.4609 36.073C29.8535 35.7614 29.3541 35.281 29.0166 34.7096C28.6656 34.1123 28.4902 33.4242 28.4902 32.6191C28.4902 31.8141 28.6656 31.1259 29.0166 30.5416C29.3541 29.9703 29.8535 29.4899 30.4609 29.1782C31.0954 28.8536 31.8108 28.6978 32.5262 28.7108C33.2551 28.6978 33.9706 28.8536 34.605 29.1782ZM31.3653 30.3598C31.0009 30.5546 30.7039 30.8532 30.5014 31.2038C30.272 31.6453 30.164 32.1257 30.1775 32.6061C30.1775 33.1775 30.2855 33.6449 30.5014 34.0215C30.6904 34.385 30.9874 34.6707 31.3653 34.8655C32.0943 35.229 32.9717 35.229 33.7006 34.8655C34.065 34.6707 34.362 34.372 34.5645 34.0215C34.7805 33.6449 34.8884 33.1775 34.8884 32.6061C34.8884 32.0348 34.7805 31.5674 34.5645 31.2038C34.3755 30.8402 34.0785 30.5546 33.7006 30.3598C32.9717 29.9833 32.0943 29.9833 31.3653 30.3598ZM47.1316 25.9191C47.3341 25.7373 47.6175 25.6464 47.901 25.6594C48.1845 25.6464 48.4544 25.7373 48.6704 25.9191C48.8594 26.0879 48.9674 26.3346 48.9674 26.5813C48.9809 26.828 48.8729 27.0747 48.6704 27.2305C48.4544 27.3993 48.1845 27.4902 47.901 27.4773C47.6175 27.4902 47.3476 27.3993 47.1316 27.2305C46.9426 27.0617 46.8346 26.828 46.8481 26.5813C46.8346 26.3346 46.9291 26.0879 47.1316 25.9191ZM48.7109 28.8017V36.4366H47.0641V28.8017H48.7109ZM55.4062 29.399C55.9731 29.8534 56.3106 30.4637 56.432 31.2428H54.8797C54.8257 30.8532 54.6368 30.5027 54.3263 30.243C54.0293 29.9833 53.6244 29.8664 53.1249 29.8664C52.7065 29.8664 52.396 29.9573 52.1665 30.1521C51.9371 30.3468 51.8156 30.6325 51.8291 30.9182C51.8156 31.1389 51.9101 31.3466 52.072 31.5025C52.2475 31.6583 52.4635 31.7751 52.6795 31.853C53.0169 31.9569 53.3679 32.0608 53.7189 32.1257C54.2048 32.2296 54.6907 32.3594 55.1632 32.5282C55.5277 32.6711 55.8651 32.8918 56.1081 33.1904C56.3646 33.4891 56.4995 33.9046 56.4995 34.411C56.513 35.0083 56.2296 35.5926 55.7436 35.9691C55.2442 36.3717 54.5558 36.5664 53.7054 36.5664C52.72 36.5664 51.9101 36.3457 51.3026 35.9042C50.6952 35.4627 50.3307 34.8395 50.2092 34.0344H51.8291C51.8696 34.437 52.072 34.8005 52.4095 35.0472C52.747 35.3069 53.1924 35.4368 53.7323 35.4368C54.1238 35.4368 54.4343 35.3329 54.6637 35.1381C54.8932 34.9434 55.0147 34.6707 55.0012 34.385C55.0147 34.1513 54.9202 33.9176 54.7447 33.7488C54.5558 33.58 54.3398 33.4631 54.0968 33.3852C53.7458 33.2684 53.3949 33.1775 53.0304 33.1125C52.558 33.0087 52.0855 32.8788 51.6266 32.723C51.2621 32.5932 50.9517 32.3724 50.7087 32.0868C50.4522 31.8011 50.3307 31.3986 50.3307 30.9052C50.3172 30.2949 50.5872 29.7106 51.0866 29.334C51.5861 28.9315 52.288 28.7238 53.1789 28.7368C54.0968 28.6978 54.8527 28.9315 55.4062 29.399ZM23.9817 32.3724C23.9952 31.7362 23.8332 31.1129 23.5092 30.5676C23.1988 30.0222 22.7263 29.5808 22.1729 29.2951C20.8905 28.6718 19.3787 28.6718 18.0963 29.3081C17.5024 29.6197 17.0164 30.0871 16.706 30.6714C16.3685 31.2687 16.2065 31.9569 16.2065 32.749C16.2065 33.554 16.3685 34.2552 16.706 34.8395C17.0164 35.4108 17.5024 35.8782 18.0963 36.1899C18.7173 36.5145 19.4192 36.6703 20.1346 36.6573C20.7555 36.6703 21.363 36.5405 21.9299 36.3067C22.9693 35.8782 23.7117 34.9693 23.9007 33.9046H22.1459C22.0649 34.3331 21.8219 34.7226 21.4439 34.9693C21.039 35.242 20.553 35.3848 20.0536 35.3718C19.4732 35.3848 18.9062 35.1901 18.4878 34.8005C18.0693 34.424 17.8398 33.8397 17.8129 33.0476H23.9277C23.9682 32.8269 23.9817 32.5932 23.9817 32.3724ZM18.5148 30.6585C18.9602 30.2819 19.5407 30.0742 20.1346 30.0871C20.5261 30.0871 20.904 30.1651 21.255 30.3339C21.5924 30.5027 21.8759 30.7623 22.0649 31.087C22.2269 31.3596 22.3078 31.6713 22.3213 31.9959H17.8533C17.9343 31.4116 18.1503 30.9701 18.5148 30.6585ZM44.5129 29.5678C45.0663 30.1391 45.3498 30.9571 45.3498 32.0348V36.5015H43.703V32.2036C43.703 31.5154 43.514 30.9831 43.1495 30.6065C42.7851 30.23 42.2856 30.0482 41.6512 30.0352C41.0033 30.0352 40.4768 30.243 40.0719 30.6455C39.6669 31.048 39.4779 31.6453 39.4779 32.4244V36.4755H37.8311V28.8147H39.4779V30.5027C39.6669 29.9573 40.0449 29.4899 40.5443 29.1652C41.0573 28.8406 41.6647 28.6848 42.2856 28.6978C43.217 28.6978 43.9594 28.9835 44.5129 29.5678Z" fill="black"/>
</svg>
