<svg width="64" height="64" viewBox="0 0 64 64" fill="none" xmlns="http://www.w3.org/2000/svg">
<rect width="64" height="64" rx="12" fill="#B8F099"/>
<path d="M37.9336 17.3267L35.9316 21.3149H35.0605C36.4099 22.72 37.1943 24.5785 37.1943 26.7085C37.1943 29.2469 36.1056 31.5135 34.4951 32.6919V32.8276C36.6282 33.9155 37.9775 36.6352 37.9775 39.7173C37.9775 45.2016 33.6247 49.0541 27.2695 49.0542C22.5248 49.0542 18.4762 46.9236 16.3867 43.3882L20.1738 39.853C21.7409 42.3914 24.4396 43.9779 27.3994 43.978C30.4031 43.978 32.4932 42.3006 32.4932 39.853C32.4931 37.6774 30.969 36.2271 28.8359 36.2271C28.558 36.2271 28.3505 36.2353 28.1201 36.2446L28.1035 36.2456H28.1025C27.7968 36.2581 27.4461 36.272 26.834 36.272C21.5234 36.272 17.3878 32.2387 17.3877 26.6636C17.3877 21.0434 21.5231 17.1002 27.3125 17.1001H37.9336V17.3267ZM27.2695 22.0835C24.6578 22.0835 22.7423 24.1226 22.7422 26.6606C22.7422 29.2896 24.6142 31.2847 27.2695 31.2847C29.9248 31.2846 31.8838 29.2896 31.8838 26.6606C31.8836 24.168 29.9247 22.0836 27.2695 22.0835Z" fill="#194028"/>
<path d="M45.4561 13C46.6484 13.0001 47.6152 13.9937 47.6152 15.2188V48.7812C47.6152 50.0063 46.6484 50.9999 45.4561 51C44.2637 51 43.2969 50.0063 43.2969 48.7812V15.2188C43.2969 13.9936 44.2637 13 45.4561 13Z" fill="#7ACC6C"/>
</svg>
