<svg width="112" height="112" viewBox="0 0 112 112" fill="none" xmlns="http://www.w3.org/2000/svg">
<rect width="64" height="64" transform="translate(24 24)" fill="white"/>
<path d="M59.4926 40.0417C58.2386 40.0417 56.8472 40.4197 55.9883 41.7595C48.5847 53.3031 39.9785 50.4687 39.9785 59.281C39.9785 68.0933 47.1417 73.6418 55.9883 73.6418C64.835 73.6418 71.9981 66.4957 71.9981 57.7006C71.9981 50.5031 67.3601 40.4197 59.4926 40.0417Z" fill="#88F368" fill-opacity="0.4"/>
<path d="M38.4793 54.3317C39.1542 54.851 39.5727 55.5652 39.7346 56.4611H37.9933C37.9123 56.0067 37.6694 55.6041 37.2914 55.3315C36.9269 55.0588 36.4545 54.916 35.9011 54.9289C35.3071 54.916 34.7267 55.1497 34.3217 55.5782C33.9033 56.0067 33.6873 56.6429 33.6873 57.4739C33.6873 58.3049 33.9033 58.9412 34.3217 59.3697C34.7267 59.7981 35.3071 60.0319 35.9011 60.0189C36.4545 60.0189 36.9269 59.876 37.2914 59.6034C37.6694 59.3177 37.9123 58.9152 37.9933 58.4607H39.7346C39.5727 59.3567 39.1542 60.0708 38.4793 60.5902C37.8044 61.1226 36.9539 61.3823 35.9281 61.3823C35.2126 61.3952 34.5107 61.2394 33.8898 60.9148C33.2959 60.6032 32.8099 60.1228 32.4994 59.5514C32.162 58.9671 32 58.266 32 57.4609C32 56.6559 32.162 55.9547 32.4994 55.3834C32.8234 54.8121 33.2959 54.3446 33.8898 54.02C34.5107 53.6954 35.2126 53.5396 35.9281 53.5526C36.9674 53.5396 37.8179 53.7993 38.4793 54.3317ZM51.6133 51.0206V61.2784H49.9665V51.0206H51.6133ZM59.105 54.02C59.7124 54.3317 60.2119 54.7991 60.5493 55.3834C60.9003 55.9807 61.0623 56.6689 61.0623 57.4609C61.0623 58.253 60.8868 58.9541 60.5493 59.5514C60.2119 60.1357 59.7124 60.6032 59.105 60.9148C58.4706 61.2394 57.7551 61.3952 57.0262 61.3823C56.3108 61.3952 55.5954 61.2264 54.9609 60.9148C54.3535 60.6032 53.8541 60.1228 53.5166 59.5514C53.1656 58.9541 52.9902 58.266 52.9902 57.4609C52.9902 56.6559 53.1656 55.9677 53.5166 55.3834C53.8541 54.8121 54.3535 54.3317 54.9609 54.02C55.5954 53.6954 56.3108 53.5396 57.0262 53.5526C57.7551 53.5396 58.4706 53.6954 59.105 54.02ZM55.8653 55.2016C55.5009 55.3964 55.2039 55.695 55.0014 56.0456C54.772 56.4871 54.664 56.9675 54.6775 57.4479C54.6775 58.0193 54.7855 58.4867 55.0014 58.8633C55.1904 59.2268 55.4874 59.5125 55.8653 59.7072C56.5943 60.0708 57.4717 60.0708 58.2006 59.7072C58.565 59.5125 58.862 59.2138 59.0645 58.8633C59.2805 58.4867 59.3884 58.0193 59.3884 57.4479C59.3884 56.8766 59.2805 56.4092 59.0645 56.0456C58.8755 55.682 58.5785 55.3964 58.2006 55.2016C57.4717 54.8251 56.5943 54.8251 55.8653 55.2016ZM71.6316 50.7609C71.8341 50.5791 72.1175 50.4882 72.401 50.5012C72.6845 50.4882 72.9544 50.5791 73.1704 50.7609C73.3594 50.9297 73.4674 51.1764 73.4674 51.4231C73.4809 51.6698 73.3729 51.9165 73.1704 52.0723C72.9544 52.2411 72.6845 52.332 72.401 52.3191C72.1175 52.332 71.8476 52.2411 71.6316 52.0723C71.4426 51.9035 71.3346 51.6698 71.3481 51.4231C71.3346 51.1764 71.4291 50.9297 71.6316 50.7609ZM73.2109 53.6435V61.2784H71.5641V53.6435H73.2109ZM79.9062 54.2408C80.4731 54.6952 80.8106 55.3055 80.932 56.0846H79.3797C79.3257 55.695 79.1368 55.3444 78.8263 55.0848C78.5293 54.8251 78.1244 54.7082 77.6249 54.7082C77.2065 54.7082 76.896 54.7991 76.6665 54.9939C76.4371 55.1886 76.3156 55.4743 76.3291 55.76C76.3156 55.9807 76.4101 56.1884 76.572 56.3443C76.7475 56.5001 76.9635 56.6169 77.1795 56.6948C77.5169 56.7987 77.8679 56.9026 78.2189 56.9675C78.7048 57.0714 79.1907 57.2012 79.6632 57.37C80.0277 57.5129 80.3651 57.7336 80.6081 58.0322C80.8646 58.3309 80.9995 58.7464 80.9995 59.2528C81.013 59.8501 80.7296 60.4344 80.2436 60.8109C79.7442 61.2135 79.0558 61.4082 78.2054 61.4082C77.22 61.4082 76.4101 61.1875 75.8026 60.746C75.1952 60.3045 74.8307 59.6813 74.7092 58.8762H76.3291C76.3696 59.2788 76.572 59.6423 76.9095 59.889C77.247 60.1487 77.6924 60.2786 78.2323 60.2786C78.6238 60.2786 78.9343 60.1747 79.1637 59.9799C79.3932 59.7852 79.5147 59.5125 79.5012 59.2268C79.5147 58.9931 79.4202 58.7594 79.2447 58.5906C79.0558 58.4218 78.8398 58.3049 78.5968 58.227C78.2458 58.1102 77.8949 58.0193 77.5304 57.9543C77.058 57.8505 76.5855 57.7206 76.1266 57.5648C75.7621 57.435 75.4517 57.2142 75.2087 56.9286C74.9522 56.6429 74.8307 56.2404 74.8307 55.747C74.8172 55.1367 75.0872 54.5524 75.5866 54.1758C76.0861 53.7733 76.788 53.5656 77.6789 53.5786C78.5968 53.5396 79.3527 53.7733 79.9062 54.2408ZM48.4817 57.2142C48.4952 56.578 48.3332 55.9547 48.0092 55.4094C47.6988 54.864 47.2263 54.4225 46.6729 54.1369C45.3905 53.5136 43.8787 53.5136 42.5963 54.1499C42.0024 54.4615 41.5164 54.9289 41.206 55.5132C40.8685 56.1105 40.7065 56.7987 40.7065 57.5908C40.7065 58.3958 40.8685 59.097 41.206 59.6813C41.5164 60.2526 42.0024 60.72 42.5963 61.0317C43.2173 61.3563 43.9192 61.5121 44.6346 61.4991C45.2555 61.5121 45.863 61.3823 46.4299 61.1485C47.4693 60.72 48.2117 59.8111 48.4007 58.7464H46.6459C46.5649 59.1749 46.3219 59.5644 45.9439 59.8111C45.539 60.0838 45.053 60.2266 44.5536 60.2136C43.9732 60.2266 43.4062 60.0319 42.9878 59.6423C42.5693 59.2658 42.3398 58.6815 42.3129 57.8894H48.4277C48.4682 57.6687 48.4817 57.435 48.4817 57.2142ZM43.0148 55.5003C43.4602 55.1237 44.0407 54.916 44.6346 54.9289C45.0261 54.9289 45.404 55.0069 45.755 55.1756C46.0924 55.3444 46.3759 55.6041 46.5649 55.9288C46.7269 56.2014 46.8078 56.5131 46.8213 56.8377H42.3533C42.4343 56.2534 42.6503 55.8119 43.0148 55.5003ZM69.0129 54.4096C69.5663 54.9809 69.8498 55.7989 69.8498 56.8766V61.3433H68.203V57.0454C68.203 56.3572 68.014 55.8249 67.6495 55.4483C67.2851 55.0718 66.7856 54.89 66.1512 54.877C65.5033 54.877 64.9768 55.0848 64.5719 55.4873C64.1669 55.8898 63.9779 56.4871 63.9779 57.2662V61.3173H62.3311V53.6565H63.9779V55.3444C64.1669 54.7991 64.5449 54.3317 65.0443 54.007C65.5573 53.6824 66.1647 53.5266 66.7856 53.5396C67.717 53.5396 68.4594 53.8253 69.0129 54.4096Z" fill="black"/>
</svg>
