<svg width="24" height="24" viewBox="0 0 24 24" fill="none" xmlns="http://www.w3.org/2000/svg">
<path d="M17.36 17.6798H13.04V16.0799C14.64 14.8665 15.44 13.359 15.44 11.5574C15.44 10.4373 15.1221 9.55112 14.4863 8.89862C13.8504 8.24612 13.0292 7.91987 12.0225 7.91987C11.0075 7.91987 10.1767 8.24777 9.53003 8.90357C8.88331 9.55945 8.55998 10.4549 8.55998 11.5898C8.55998 13.3748 9.36001 14.8715 10.96 16.0799V17.6798H6.63998V16.0799H9.30998C7.53001 14.9231 6.63998 13.3556 6.63998 11.3774C6.63998 9.80732 7.12958 8.57192 8.10878 7.6711C9.08791 6.77027 10.3775 6.31982 11.9775 6.31982C13.6125 6.31982 14.9183 6.76652 15.895 7.65985C16.8717 8.55317 17.36 9.78737 17.36 11.3624C17.36 13.3406 16.4617 14.9132 14.665 16.0799H17.36V17.6798Z" fill="black"/>
</svg>
