<svg xmlns="http://www.w3.org/2000/svg" xmlns:xlink="http://www.w3.org/1999/xlink" xmlns:lucid="lucid" width="1500.46" height="1294.49"><g transform="translate(-133.3085669719104 -6.235176432820303)" lucid:page-tab-id="0_0"><path d="M0 0h1870.87v1322.83H0z" fill="#fff"/><path d="M608.3 107.3c0-3.32 2.7-6 6-6h990.1c3.3 0 6 2.68 6 6V256.3c0 3.3-2.7 6-6 6H614.3c-3.3 0-6-2.7-6-6z" stroke="#c92d39" stroke-width="3" fill="#fff"/><path d="M648.3 127.3c0-3.32 2.7-6 6-6h168c3.33 0 6 2.68 6 6v96c-30.05-17.04-48.77-17.04-60.1-17.04-18 0-41.95 17.03-59.95 17.03-11.16 0-30.06 0-59.94-17.04z" stroke="#5e5e5e" stroke-width="3" fill="#fff"/><path d="M658.3 136.3c0-3.32 2.7-6 6-6h168c3.33 0 6 2.68 6 6v96c-30.05-17.04-48.77-17.04-60.1-17.04-18 0-41.95 17.03-59.95 17.03-11.16 0-30.06 0-59.94-17.04z" stroke="#5e5e5e" stroke-width="3" fill="#fff"/><path d="M668.3 145.3c0-3.32 2.7-6 6-6h168c3.33 0 6 2.68 6 6v96c-30.05-17.04-48.77-17.04-60.1-17.04-18 0-41.95 17.03-59.95 17.03-11.16 0-30.06 0-59.94-17.04zM988.3 127.3c0-3.32 2.7-6 6-6h228c3.33 0 6 2.68 6 6v108c0 3.3-2.67 6-6 6h-228c-3.3 0-6-2.7-6-6z" stroke="#5e5e5e" stroke-width="3" fill="#fff"/><use xlink:href="#a" transform="matrix(1,0,0,1,1000.3135685770937,133.29447070153907) translate(22.382716049382722 38.77777777777777)"/><use xlink:href="#b" transform="matrix(1,0,0,1,1000.3135685770937,133.29447070153907) translate(71.58024691358024 38.77777777777777)"/><use xlink:href="#c" transform="matrix(1,0,0,1,1000.3135685770937,133.29447070153907) translate(172.75308641975306 38.77777777777777)"/><use xlink:href="#d" transform="matrix(1,0,0,1,1000.3135685770937,133.29447070153907) translate(62.47530864197531 65.44444444444444)"/><use xlink:href="#e" transform="matrix(1,0,0,1,1000.3135685770937,133.29447070153907) translate(131.3641975308642 65.44444444444444)"/><path d="M1368.3 127.3c0-3.32 2.7-6 6-6h168c3.33 0 6 2.68 6 6v96c-30.05-17.04-48.77-17.04-60.1-17.04-18 0-41.95 17.03-59.95 17.03-11.16 0-30.06 0-59.94-17.04z" stroke="#5e5e5e" stroke-width="3" fill="#fff"/><path d="M1378.3 136.3c0-3.32 2.7-6 6-6h168c3.33 0 6 2.68 6 6v96c-30.05-17.04-48.77-17.04-60.1-17.04-18 0-41.95 17.03-59.95 17.03-11.16 0-30.06 0-59.94-17.04z" stroke="#5e5e5e" stroke-width="3" fill="#fff"/><path d="M1388.3 145.3c0-3.32 2.7-6 6-6h168c3.33 0 6 2.68 6 6v96c-30.05-17.04-48.77-17.04-60.1-17.04-18 0-41.95 17.03-59.95 17.03-11.16 0-30.06 0-59.94-17.04z" stroke="#5e5e5e" stroke-width="3" fill="#fff"/><path d="M850.8 181.5h117.5" stroke="#5e5e5e" stroke-width="2" fill="none"/><path d="M850.84 182.5h-1.03v-2h1.04z" fill="#5e5e5e"/><path d="M983.58 181.5l-14.27 4.65v-9.28z" stroke="#5e5e5e" stroke-width="2" fill="#5e5e5e"/><path d="M1230.8 181.3h117.5" stroke="#5e5e5e" stroke-width="2" fill="none"/><path d="M1230.84 182.3h-1.03v-2h1.04z" fill="#5e5e5e"/><path d="M1363.58 181.3l-14.27 4.63v-9.27z" stroke="#5e5e5e" stroke-width="2" fill="#5e5e5e"/><path d="M622.08 36.4c0-3.32 2.68-6 6-6h228c3.3 0 6 2.68 6 6V71.9c0 3.32-2.7 6-6 6h-228c-3.32 0-6-2.68-6-6z" stroke="#000" stroke-opacity="0" stroke-width="3" fill="#fff" fill-opacity="0"/><use xlink:href="#f" transform="matrix(1,0,0,1,627.0783921442735,35.391960721367184) translate(76.3641975308642 24.305555555555557)"/><path d="M1346.24 32.24c0-3.32 2.68-6 6-6h228c3.3 0 6 2.68 6 6v48c0 3.3-2.7 6-6 6h-228c-3.32 0-6-2.7-6-6z" stroke="#000" stroke-opacity="0" stroke-width="3" fill="#fff" fill-opacity="0"/><use xlink:href="#g" transform="matrix(1,0,0,1,1351.2351764328205,31.235176432820303) translate(62.81790123456791 28.930555555555557)"/><path d="M986.24 36.4c0-3.32 2.68-6 6-6h228c3.3 0 6 2.68 6 6V71.9c0 3.32-2.7 6-6 6h-228c-3.32 0-6-2.68-6-6z" stroke="#000" stroke-opacity="0" stroke-width="3" fill="#fff" fill-opacity="0"/><use xlink:href="#h" transform="matrix(1,0,0,1,991.2351764328203,35.391960721367184) translate(43.39814814814817 24.305555555555557)"/><path d="M1388.3 145.22c0-3.32 2.7-6 6-6h168c3.33 0 6 2.68 6 6v92.15c0 3.32-2.67 6-6 6h-168c-3.3 0-6-2.68-6-6z" stroke="#5e5e5e" stroke-width="3" fill="#c7e8ac"/><use xlink:href="#i" transform="matrix(1,0,0,1,1393.313568577094,144.21607855726563) translate(19.861111111111114 24.90625)"/><use xlink:href="#j" transform="matrix(1,0,0,1,1393.313568577094,144.21607855726563) translate(54.86111111111111 24.90625)"/><use xlink:href="#k" transform="matrix(1,0,0,1,1393.313568577094,144.21607855726563) translate(126.30555555555554 24.90625)"/><use xlink:href="#l" transform="matrix(1,0,0,1,1393.313568577094,144.21607855726563) translate(5.916666666666686 48.90625)"/><use xlink:href="#m" transform="matrix(1,0,0,1,1393.313568577094,144.21607855726563) translate(63.13888888888889 48.90625)"/><use xlink:href="#n" transform="matrix(1,0,0,1,1393.313568577094,144.21607855726563) translate(22.947530864197546 74.68402777777777)"/><use xlink:href="#o" transform="matrix(1,0,0,1,1393.313568577094,144.21607855726563) translate(78.33641975308642 74.68402777777777)"/><path d="M808.34 51.96H986.4M808.36 51.96h-1.02" stroke="#5e5e5e" stroke-width="2" fill="none"/><path d="M1001.67 51.96L987.4 56.6v-9.28z" stroke="#5e5e5e" stroke-width="2" fill="#5e5e5e"/><path d="M1200.37 51.18h178.06M1200.4 51.18h-1.03" stroke="#5e5e5e" stroke-width="2" fill="none"/><path d="M1393.7 51.18l-14.27 4.63v-9.26z" stroke="#5e5e5e" stroke-width="2" fill="#5e5e5e"/><path d="M609.6 286.04c0-3.32 2.7-6 6-6h990.1c3.3 0 6 2.68 6 6v149.02c0 3.3-2.7 6-6 6H615.6c-3.3 0-6-2.7-6-6z" stroke="#2482ff" stroke-width="3" fill="#fff"/><path d="M649.6 306.04c0-3.32 2.7-6 6-6h168c3.32 0 6 2.68 6 6v96C799.56 385 780.84 385 769.5 385c-18 0-41.95 17.04-59.95 17.04-11.16 0-30.06 0-59.94-17.04z" stroke="#5e5e5e" stroke-width="3" fill="#fff"/><path d="M659.6 315.04c0-3.32 2.7-6 6-6h168c3.32 0 6 2.68 6 6v96C809.56 394 790.84 394 779.5 394c-18 0-41.95 17.04-59.95 17.04-11.16 0-30.06 0-59.94-17.04z" stroke="#5e5e5e" stroke-width="3" fill="#fff"/><path d="M669.6 324.04c0-3.32 2.7-6 6-6h168c3.32 0 6 2.68 6 6v96C819.56 403 800.84 403 789.5 403c-18 0-41.95 17.04-59.95 17.04-11.16 0-30.06 0-59.94-17.04zM989.6 306.04c0-3.32 2.7-6 6-6h228c3.32 0 6 2.68 6 6v108c0 3.3-2.68 6-6 6h-228c-3.3 0-6-2.7-6-6zM1369.6 306.04c0-3.32 2.7-6 6-6h168c3.32 0 6 2.68 6 6v96C1519.56 385 1500.84 385 1489.5 385c-18 0-41.95 17.04-59.95 17.04-11.16 0-30.06 0-59.94-17.04z" stroke="#5e5e5e" stroke-width="3" fill="#fff"/><path d="M1379.6 315.04c0-3.32 2.7-6 6-6h168c3.32 0 6 2.68 6 6v96C1529.56 394 1510.84 394 1499.5 394c-18 0-41.95 17.04-59.95 17.04-11.16 0-30.06 0-59.94-17.04z" stroke="#5e5e5e" stroke-width="3" fill="#fff"/><path d="M1389.6 324.04c0-3.32 2.7-6 6-6h168c3.32 0 6 2.68 6 6v96C1539.56 403 1520.84 403 1509.5 403c-18 0-41.95 17.04-59.95 17.04-11.16 0-30.06 0-59.94-17.04z" stroke="#5e5e5e" stroke-width="3" fill="#fff"/><path d="M852.1 360.25h117.5" stroke="#5e5e5e" stroke-width="2" fill="none"/><path d="M852.13 361.25h-1.02v-2h1.03z" fill="#5e5e5e"/><path d="M984.87 360.25l-14.26 4.64v-9.28z" stroke="#5e5e5e" stroke-width="2" fill="#5e5e5e"/><path d="M1232.1 360.04h117.5" stroke="#5e5e5e" stroke-width="2" fill="none"/><path d="M1232.13 361.04h-1.02v-2h1.03z" fill="#5e5e5e"/><path d="M1364.87 360.04l-14.26 4.63v-9.27z" stroke="#5e5e5e" stroke-width="2" fill="#5e5e5e"/><path d="M390.25 157.86c0-3.3 2.68-6 6-6h228c3.3 0 6 2.7 6 6v48c0 3.3-2.7 6-6 6h-228c-3.32 0-6-2.7-6-6z" stroke="#000" stroke-opacity="0" stroke-width="3" fill="#fff" fill-opacity="0"/><use xlink:href="#p" transform="matrix(1,0,0,1,395.24527141911756,156.85931262393524) translate(55.14814814814815 30.708333333333332)"/><use xlink:href="#q" transform="matrix(1,0,0,1,395.24527141911756,156.85931262393524) translate(155.66666666666669 30.708333333333332)"/><path d="M393.62 330.37c0-3.32 2.68-6 6-6h228c3.3 0 6 2.68 6 6v48c0 3.3-2.7 6-6 6h-228c-3.32 0-6-2.7-6-6z" stroke="#000" stroke-opacity="0" stroke-width="3" fill="#fff" fill-opacity="0"/><use xlink:href="#p" transform="matrix(1,0,0,1,398.61813426493006,329.3658605986303) translate(55.14814814814815 30.708333333333332)"/><use xlink:href="#r" transform="matrix(1,0,0,1,398.61813426493006,329.3658605986303) translate(155.66666666666669 30.708333333333332)"/><path d="M1017.92 322.38c0-3.3 2.7-6 6-6h178.12c3.3 0 6 2.7 6 6v80.08c0 3.32-2.7 6-6 6h-178.12c-3.3 0-6-2.68-6-6z" stroke="#000" stroke-opacity="0" stroke-width="3" fill="#fff" fill-opacity="0"/><use xlink:href="#s" transform="matrix(1,0,0,1,1022.91969898965,321.3849584741806) translate(29.01851851851852 20.37152777777778)"/><use xlink:href="#t" transform="matrix(1,0,0,1,1022.91969898965,321.3849584741806) translate(64.69753086419753 20.37152777777778)"/><use xlink:href="#u" transform="matrix(1,0,0,1,1022.91969898965,321.3849584741806) translate(33.061728395061735 47.03819444444444)"/><use xlink:href="#v" transform="matrix(1,0,0,1,1022.91969898965,321.3849584741806) translate(118.4320987654321 47.03819444444444)"/><use xlink:href="#w" transform="matrix(1,0,0,1,1022.91969898965,321.3849584741806) translate(36.82716049382716 73.70486111111111)"/><path d="M153.3 230.6c0-3.3 2.7-6 6-6h228c3.32 0 6 2.7 6 6v48c0 3.32-2.68 6-6 6h-228c-3.3 0-6-2.68-6-6z" stroke="#000" stroke-opacity="0" stroke-width="3" fill="#fff" fill-opacity="0"/><use xlink:href="#x" transform="matrix(1,0,0,1,158.3085669719104,229.60303767347602) translate(50.358024691358054 33.347222222222214)"/><use xlink:href="#y" transform="matrix(1,0,0,1,158.3085669719104,229.60303767347602) translate(158.6543209876543 33.347222222222214)"/><path d="M609.6 524.27c0-3.32 2.7-6 6-6h990.1c3.3 0 6 2.68 6 6V673.3c0 3.3-2.7 6-6 6H615.6c-3.3 0-6-2.7-6-6z" stroke="#c92d39" stroke-width="3" fill="#fff"/><path d="M649.6 544.27c0-3.32 2.7-6 6-6h168c3.32 0 6 2.68 6 6v96c-30.05-17.04-48.77-17.04-60.1-17.04-18 0-41.95 17.04-59.95 17.04-11.16 0-30.06 0-59.94-17.04z" stroke="#5e5e5e" stroke-width="3" fill="#fff"/><path d="M659.6 553.27c0-3.32 2.7-6 6-6h168c3.32 0 6 2.68 6 6v96c-30.05-17.04-48.77-17.04-60.1-17.04-18 0-41.95 17.04-59.95 17.04-11.16 0-30.06 0-59.94-17.04z" stroke="#5e5e5e" stroke-width="3" fill="#fff"/><path d="M669.6 562.27c0-3.32 2.7-6 6-6h168c3.32 0 6 2.68 6 6v96c-30.05-17.04-48.77-17.04-60.1-17.04-18 0-41.95 17.04-59.95 17.04-11.16 0-30.06 0-59.94-17.04zM989.6 544.27c0-3.32 2.7-6 6-6h228c3.32 0 6 2.68 6 6v108c0 3.3-2.68 6-6 6h-228c-3.3 0-6-2.7-6-6z" stroke="#5e5e5e" stroke-width="3" fill="#fff"/><use xlink:href="#z" transform="matrix(1,0,0,1,1001.6080392786325,550.2673702577652) translate(50.561728395061735 38.77777777777777)"/><use xlink:href="#A" transform="matrix(1,0,0,1,1001.6080392786325,550.2673702577652) translate(135.9320987654321 38.77777777777777)"/><use xlink:href="#B" transform="matrix(1,0,0,1,1001.6080392786325,550.2673702577652) translate(55.62345679012347 65.44444444444444)"/><path d="M1369.6 544.27c0-3.32 2.7-6 6-6h168c3.32 0 6 2.68 6 6v96c-30.05-17.04-48.77-17.04-60.1-17.04-18 0-41.95 17.04-59.95 17.04-11.16 0-30.06 0-59.94-17.04z" stroke="#5e5e5e" stroke-width="3" fill="#fff"/><path d="M1379.6 553.27c0-3.32 2.7-6 6-6h168c3.32 0 6 2.68 6 6v96c-30.05-17.04-48.77-17.04-60.1-17.04-18 0-41.95 17.04-59.95 17.04-11.16 0-30.06 0-59.94-17.04z" stroke="#5e5e5e" stroke-width="3" fill="#fff"/><path d="M1389.6 562.27c0-3.32 2.7-6 6-6h168c3.32 0 6 2.68 6 6v96c-30.05-17.04-48.77-17.04-60.1-17.04-18 0-41.95 17.04-59.95 17.04-11.16 0-30.06 0-59.94-17.04z" stroke="#5e5e5e" stroke-width="3" fill="#fff"/><path d="M852.1 598.48h117.5" stroke="#5e5e5e" stroke-width="2" fill="none"/><path d="M852.13 599.48h-1.02v-2h1.03z" fill="#5e5e5e"/><path d="M984.87 598.48l-14.26 4.64v-9.27z" stroke="#5e5e5e" stroke-width="2" fill="#5e5e5e"/><path d="M1232.1 598.27h117.5" stroke="#5e5e5e" stroke-width="2" fill="none"/><path d="M1232.13 599.27h-1.02v-2h1.03z" fill="#5e5e5e"/><path d="M1364.87 598.27l-14.26 4.63v-9.27z" stroke="#5e5e5e" stroke-width="2" fill="#5e5e5e"/><path d="M610.9 703c0-3.3 2.7-6 6-6h990.08c3.3 0 6 2.7 6 6v149.03c0 3.3-2.7 6-6 6H616.9c-3.3 0-6-2.7-6-6z" stroke="#2482ff" stroke-width="3" fill="#fff"/><path d="M650.9 723c0-3.3 2.7-6 6-6h168c3.32 0 6 2.7 6 6v96C800.84 802 782.12 802 770.78 802c-18 0-41.94 17.03-59.94 17.03-11.16 0-30.06 0-59.94-17.02z" stroke="#5e5e5e" stroke-width="3" fill="#fff"/><path d="M660.9 732c0-3.3 2.7-6 6-6h168c3.32 0 6 2.7 6 6v96C810.84 811 792.12 811 780.78 811c-18 0-41.94 17.03-59.94 17.03-11.16 0-30.06 0-59.94-17.02z" stroke="#5e5e5e" stroke-width="3" fill="#fff"/><path d="M670.9 741c0-3.3 2.7-6 6-6h168c3.32 0 6 2.7 6 6v96C820.84 820 802.12 820 790.78 820c-18 0-41.94 17.03-59.94 17.03-11.16 0-30.06 0-59.94-17.02zM990.9 723c0-3.3 2.7-6 6-6h228c3.32 0 6 2.7 6 6v108c0 3.32-2.68 6-6 6h-228c-3.3 0-6-2.68-6-6zM1370.9 723c0-3.3 2.7-6 6-6h168c3.32 0 6 2.7 6 6v96C1520.84 802 1502.12 802 1490.78 802c-18 0-41.94 17.03-59.94 17.03-11.16 0-30.06 0-59.94-17.02z" stroke="#5e5e5e" stroke-width="3" fill="#fff"/><path d="M1380.9 732c0-3.3 2.7-6 6-6h168c3.32 0 6 2.7 6 6v96C1530.84 811 1512.12 811 1500.78 811c-18 0-41.94 17.03-59.94 17.03-11.16 0-30.06 0-59.94-17.02z" stroke="#5e5e5e" stroke-width="3" fill="#fff"/><path d="M1390.9 741c0-3.3 2.7-6 6-6h168c3.32 0 6 2.7 6 6v96C1540.84 820 1522.12 820 1510.78 820c-18 0-41.94 17.03-59.94 17.03-11.16 0-30.06 0-59.94-17.02z" stroke="#5e5e5e" stroke-width="3" fill="#fff"/><path d="M853.4 777.22h117.5" stroke="#5e5e5e" stroke-width="2" fill="none"/><path d="M853.43 778.22h-1.03v-2h1.03z" fill="#5e5e5e"/><path d="M986.17 777.22l-14.27 4.64v-9.27z" stroke="#5e5e5e" stroke-width="2" fill="#5e5e5e"/><path d="M1233.4 777h117.5" stroke="#5e5e5e" stroke-width="2" fill="none"/><path d="M1233.43 778h-1.03v-2h1.03z" fill="#5e5e5e"/><path d="M1366.17 777l-14.27 4.64v-9.27z" stroke="#5e5e5e" stroke-width="2" fill="#5e5e5e"/><path d="M391.54 574.83c0-3.3 2.7-6 6-6h228c3.3 0 6 2.7 6 6v48c0 3.32-2.7 6-6 6h-228c-3.3 0-6-2.68-6-6z" stroke="#000" stroke-opacity="0" stroke-width="3" fill="#fff" fill-opacity="0"/><use xlink:href="#p" transform="matrix(1,0,0,1,396.53974212065657,573.8322121801614) translate(55.14814814814815 30.708333333333332)"/><use xlink:href="#q" transform="matrix(1,0,0,1,396.53974212065657,573.8322121801614) translate(155.66666666666669 30.708333333333332)"/><path d="M394.9 747.34c0-3.3 2.7-6 6-6h228c3.33 0 6 2.7 6 6v48c0 3.3-2.67 6-6 6h-228c-3.3 0-6-2.7-6-6z" stroke="#000" stroke-opacity="0" stroke-width="3" fill="#fff" fill-opacity="0"/><use xlink:href="#p" transform="matrix(1,0,0,1,399.9126049664691,746.3387601548565) translate(55.14814814814815 30.708333333333332)"/><use xlink:href="#r" transform="matrix(1,0,0,1,399.9126049664691,746.3387601548565) translate(155.66666666666669 30.708333333333332)"/><path d="M1002.6 727.06c0-3.3 2.67-6 6-6h207.2c3.32 0 6 2.7 6 6v104.67c0 3.3-2.68 6-6 6h-207.2c-3.33 0-6-2.7-6-6z" stroke="#000" stroke-opacity="0" stroke-width="3" fill="#fff" fill-opacity="0"/><use xlink:href="#C" transform="matrix(1,0,0,1,1007.5870325370016,726.0637207692101) translate(8.148148148148152 31.15277777777778)"/><use xlink:href="#D" transform="matrix(1,0,0,1,1007.5870325370016,726.0637207692101) translate(100.67901234567901 31.15277777777778)"/><use xlink:href="#E" transform="matrix(1,0,0,1,1007.5870325370016,726.0637207692101) translate(19.382716049382708 57.81944444444445)"/><use xlink:href="#F" transform="matrix(1,0,0,1,1007.5870325370016,726.0637207692101) translate(68.58024691358024 57.81944444444445)"/><use xlink:href="#G" transform="matrix(1,0,0,1,1007.5870325370016,726.0637207692101) translate(169.7530864197531 57.81944444444445)"/><use xlink:href="#H" transform="matrix(1,0,0,1,1007.5870325370016,726.0637207692101) translate(59.47530864197531 84.48611111111111)"/><use xlink:href="#I" transform="matrix(1,0,0,1,1007.5870325370016,726.0637207692101) translate(128.3641975308642 84.48611111111111)"/><path d="M154.6 647.58c0-3.32 2.7-6 6-6h228c3.32 0 6 2.68 6 6v48c0 3.3-2.68 6-6 6h-228c-3.3 0-6-2.7-6-6z" stroke="#000" stroke-opacity="0" stroke-width="3" fill="#fff" fill-opacity="0"/><use xlink:href="#x" transform="matrix(1,0,0,1,159.60303767344942,646.5759372297022) translate(50.358024691358054 33.347222222222214)"/><use xlink:href="#J" transform="matrix(1,0,0,1,159.60303767344942,646.5759372297022) translate(158.6543209876543 33.347222222222214)"/><path d="M610.4 946.96c0-3.3 2.68-6 6-6h990.07c3.3 0 6 2.7 6 6V1096c0 3.3-2.7 6-6 6H616.4c-3.32 0-6-2.7-6-6z" stroke="#c92d39" stroke-width="3" fill="#fff"/><path d="M650.4 966.96c0-3.3 2.68-6 6-6h168c3.3 0 6 2.7 6 6v96c-30.07-17.03-48.8-17.03-60.13-17.03-18 0-41.94 17.03-59.94 17.03-11.16 0-30.06 0-59.94-17.03z" stroke="#5e5e5e" stroke-width="3" fill="#fff"/><path d="M660.4 975.96c0-3.3 2.68-6 6-6h168c3.3 0 6 2.7 6 6v96c-30.07-17.03-48.8-17.03-60.13-17.03-18 0-41.94 17.03-59.94 17.03-11.16 0-30.06 0-59.94-17.03z" stroke="#5e5e5e" stroke-width="3" fill="#fff"/><path d="M670.4 984.96c0-3.3 2.68-6 6-6h168c3.3 0 6 2.7 6 6v96c-30.07-17.03-48.8-17.03-60.13-17.03-18 0-41.94 17.03-59.94 17.03-11.16 0-30.06 0-59.94-17.03zM990.4 966.96c0-3.3 2.68-6 6-6h228c3.3 0 6 2.7 6 6v108c0 3.32-2.7 6-6 6h-228c-3.32 0-6-2.68-6-6z" stroke="#5e5e5e" stroke-width="3" fill="#fff"/><use xlink:href="#K" transform="matrix(1,0,0,1,1002.3919607213672,972.9648969880068) translate(9.358024691358054 26.777777777777775)"/><use xlink:href="#L" transform="matrix(1,0,0,1,1002.3919607213672,972.9648969880068) translate(101.88888888888889 26.777777777777775)"/><use xlink:href="#M" transform="matrix(1,0,0,1,1002.3919607213672,972.9648969880068) translate(22.382716049382722 53.44444444444444)"/><use xlink:href="#N" transform="matrix(1,0,0,1,1002.3919607213672,972.9648969880068) translate(71.58024691358024 53.44444444444444)"/><use xlink:href="#c" transform="matrix(1,0,0,1,1002.3919607213672,972.9648969880068) translate(172.75308641975306 53.44444444444444)"/><use xlink:href="#d" transform="matrix(1,0,0,1,1002.3919607213672,972.9648969880068) translate(62.47530864197531 80.1111111111111)"/><use xlink:href="#e" transform="matrix(1,0,0,1,1002.3919607213672,972.9648969880068) translate(131.3641975308642 80.1111111111111)"/><path d="M1370.4 966.96c0-3.3 2.68-6 6-6h168c3.3 0 6 2.7 6 6v96c-30.07-17.03-48.8-17.03-60.13-17.03-18 0-41.94 17.03-59.94 17.03-11.16 0-30.06 0-59.94-17.03z" stroke="#5e5e5e" stroke-width="3" fill="#fff"/><path d="M1380.4 975.96c0-3.3 2.68-6 6-6h168c3.3 0 6 2.7 6 6v96c-30.07-17.03-48.8-17.03-60.13-17.03-18 0-41.94 17.03-59.94 17.03-11.16 0-30.06 0-59.94-17.03z" stroke="#5e5e5e" stroke-width="3" fill="#fff"/><path d="M1390.4 984.96c0-3.3 2.68-6 6-6h168c3.3 0 6 2.7 6 6v96c-30.07-17.03-48.8-17.03-60.13-17.03-18 0-41.94 17.03-59.94 17.03-11.16 0-30.06 0-59.94-17.03z" stroke="#5e5e5e" stroke-width="3" fill="#fff"/><path d="M852.9 1021.18h117.5" stroke="#5e5e5e" stroke-width="2" fill="none"/><path d="M852.92 1022.18h-1.03v-2h1.02z" fill="#5e5e5e"/><path d="M985.66 1021.18l-14.27 4.64v-9.27z" stroke="#5e5e5e" stroke-width="2" fill="#5e5e5e"/><path d="M1232.9 1020.96h117.5" stroke="#5e5e5e" stroke-width="2" fill="none"/><path d="M1232.92 1021.96h-1.03v-2h1.02z" fill="#5e5e5e"/><path d="M1365.66 1020.96l-14.27 4.64v-9.27z" stroke="#5e5e5e" stroke-width="2" fill="#5e5e5e"/><path d="M1390.4 982.63c0-3.3 2.68-6 6-6h176.3c3.32 0 6 2.7 6 6v96.67c0 3.3-2.68 6-6 6h-176.3c-3.32 0-6-2.7-6-6z" stroke="#5e5e5e" stroke-width="3" fill="#c7e8ac"/><g><use xlink:href="#i" transform="matrix(1,0,0,1,1395.3919607213672,981.6315636546734) translate(24.361111111111114 28.375)"/><use xlink:href="#j" transform="matrix(1,0,0,1,1395.3919607213672,981.6315636546734) translate(59.36111111111111 28.375)"/><use xlink:href="#k" transform="matrix(1,0,0,1,1395.3919607213672,981.6315636546734) translate(130.80555555555554 28.375)"/><use xlink:href="#l" transform="matrix(1,0,0,1,1395.3919607213672,981.6315636546734) translate(12.111111111111128 52.375)"/><use xlink:href="#O" transform="matrix(1,0,0,1,1395.3919607213672,981.6315636546734) translate(69.33333333333334 52.375)"/><use xlink:href="#n" transform="matrix(1,0,0,1,1395.3919607213672,981.6315636546734) translate(0.8641975308642174 78.15277777777777)"/><use xlink:href="#P" transform="matrix(1,0,0,1,1395.3919607213672,981.6315636546734) translate(56.25308641975309 78.15277777777777)"/><use xlink:href="#Q" transform="matrix(1,0,0,1,1395.3919607213672,981.6315636546734) translate(108.91975308641975 78.15277777777777)"/></g><path d="M611.7 1125.7c0-3.3 2.67-6 6-6h990.06c3.32 0 6 2.7 6 6v149.03c0 3.3-2.68 6-6 6H617.7c-3.33 0-6-2.7-6-6z" stroke="#2482ff" stroke-width="3" fill="#fff"/><path d="M651.7 1145.7c0-3.3 2.67-6 6-6h168c3.3 0 6 2.7 6 6v96c-30.07-17.03-48.8-17.03-60.13-17.03-18 0-41.94 17.04-59.94 17.04-11.16 0-30.06 0-59.94-17.03z" stroke="#5e5e5e" stroke-width="3" fill="#fff"/><path d="M661.7 1154.7c0-3.3 2.67-6 6-6h168c3.3 0 6 2.7 6 6v96c-30.07-17.03-48.8-17.03-60.13-17.03-18 0-41.94 17.04-59.94 17.04-11.16 0-30.06 0-59.94-17.03z" stroke="#5e5e5e" stroke-width="3" fill="#fff"/><path d="M671.7 1163.7c0-3.3 2.67-6 6-6h168c3.3 0 6 2.7 6 6v96c-30.07-17.03-48.8-17.03-60.13-17.03-18 0-41.94 17.04-59.94 17.04-11.16 0-30.06 0-59.94-17.03zM991.7 1145.7c0-3.3 2.67-6 6-6h228c3.3 0 6 2.7 6 6v108c0 3.32-2.7 6-6 6h-228c-3.33 0-6-2.68-6-6zM1371.7 1145.7c0-3.3 2.67-6 6-6h168c3.3 0 6 2.7 6 6v96c-30.07-17.03-48.8-17.03-60.13-17.03-18 0-41.94 17.04-59.94 17.04-11.16 0-30.06 0-59.94-17.03z" stroke="#5e5e5e" stroke-width="3" fill="#fff"/><path d="M1381.7 1154.7c0-3.3 2.67-6 6-6h168c3.3 0 6 2.7 6 6v96c-30.07-17.03-48.8-17.03-60.13-17.03-18 0-41.94 17.04-59.94 17.04-11.16 0-30.06 0-59.94-17.03z" stroke="#5e5e5e" stroke-width="3" fill="#fff"/><path d="M1391.7 1163.7c0-3.3 2.67-6 6-6h168c3.3 0 6 2.7 6 6v96c-30.07-17.03-48.8-17.03-60.13-17.03-18 0-41.94 17.04-59.94 17.04-11.16 0-30.06 0-59.94-17.03z" stroke="#5e5e5e" stroke-width="3" fill="#fff"/><path d="M854.2 1199.92h117.48" stroke="#5e5e5e" stroke-width="2" fill="none"/><path d="M854.2 1200.92h-1v-2h1z" fill="#5e5e5e"/><path d="M986.95 1199.92l-14.27 4.64v-9.27z" stroke="#5e5e5e" stroke-width="2" fill="#5e5e5e"/><path d="M1234.2 1199.7h117.48" stroke="#5e5e5e" stroke-width="2" fill="none"/><path d="M1234.2 1200.7h-1v-2h1z" fill="#5e5e5e"/><path d="M1366.95 1199.7l-14.27 4.64v-9.27z" stroke="#5e5e5e" stroke-width="2" fill="#5e5e5e"/><path d="M392.32 997.53c0-3.3 2.7-6 6-6h228c3.32 0 6 2.7 6 6v48c0 3.3-2.68 6-6 6h-228c-3.3 0-6-2.7-6-6z" stroke="#000" stroke-opacity="0" stroke-width="3" fill="#fff" fill-opacity="0"/><g><use xlink:href="#p" transform="matrix(1,0,0,1,397.32366356339094,996.529738910403) translate(55.14814814814815 30.708333333333332)"/><use xlink:href="#q" transform="matrix(1,0,0,1,397.32366356339094,996.529738910403) translate(155.66666666666669 30.708333333333332)"/></g><path d="M395.7 1170.04c0-3.32 2.68-6 6-6h228c3.3 0 6 2.68 6 6v48c0 3.3-2.7 6-6 6h-228c-3.32 0-6-2.7-6-6z" stroke="#000" stroke-opacity="0" stroke-width="3" fill="#fff" fill-opacity="0"/><g><use xlink:href="#p" transform="matrix(1,0,0,1,400.69652640920344,1169.0362868850982) translate(55.14814814814815 30.708333333333332)"/><use xlink:href="#r" transform="matrix(1,0,0,1,400.69652640920344,1169.0362868850982) translate(155.66666666666669 30.708333333333332)"/></g><path d="M1020 1162.06c0-3.32 2.68-6 6-6h178.12c3.3 0 6 2.68 6 6v80.07c0 3.32-2.7 6-6 6H1026c-3.32 0-6-2.68-6-6z" stroke="#000" stroke-opacity="0" stroke-width="3" fill="#fff" fill-opacity="0"/><g><use xlink:href="#s" transform="matrix(1,0,0,1,1024.9980911339233,1161.0553847606484) translate(29.01851851851852 20.37152777777778)"/><use xlink:href="#t" transform="matrix(1,0,0,1,1024.9980911339233,1161.0553847606484) translate(64.69753086419753 20.37152777777778)"/><use xlink:href="#u" transform="matrix(1,0,0,1,1024.9980911339233,1161.0553847606484) translate(33.061728395061735 47.03819444444444)"/><use xlink:href="#v" transform="matrix(1,0,0,1,1024.9980911339233,1161.0553847606484) translate(118.4320987654321 47.03819444444444)"/><use xlink:href="#w" transform="matrix(1,0,0,1,1024.9980911339233,1161.0553847606484) translate(36.82716049382716 73.70486111111111)"/></g><path d="M155.4 1070.27c0-3.3 2.67-6 6-6h228c3.3 0 6 2.7 6 6v48c0 3.32-2.7 6-6 6h-228c-3.33 0-6-2.68-6-6z" stroke="#000" stroke-opacity="0" stroke-width="3" fill="#fff" fill-opacity="0"/><g><use xlink:href="#x" transform="matrix(1,0,0,1,160.3869591161838,1069.2734639599437) translate(50.358024691358054 33.347222222222214)"/><use xlink:href="#R" transform="matrix(1,0,0,1,160.3869591161838,1069.2734639599437) translate(158.6543209876543 33.347222222222214)"/></g><path d="M670.48 740.93c0-3.3 2.7-6 6-6h168c3.32 0 6 2.7 6 6V831c0 3.32-2.68 6-6 6h-168c-3.3 0-6-2.68-6-6z" stroke="#5e5e5e" stroke-width="3" fill="#c7e8ac"/><g><use xlink:href="#i" transform="matrix(1,0,0,1,675.4843573600244,739.9307025210072) translate(19.861111111111114 24.71875)"/><use xlink:href="#j" transform="matrix(1,0,0,1,675.4843573600244,739.9307025210072) translate(54.86111111111111 24.71875)"/><use xlink:href="#k" transform="matrix(1,0,0,1,675.4843573600244,739.9307025210072) translate(126.30555555555554 24.71875)"/><use xlink:href="#l" transform="matrix(1,0,0,1,675.4843573600244,739.9307025210072) translate(5.916666666666686 48.71875)"/><use xlink:href="#m" transform="matrix(1,0,0,1,675.4843573600244,739.9307025210072) translate(63.13888888888889 48.71875)"/><use xlink:href="#n" transform="matrix(1,0,0,1,675.4843573600244,739.9307025210072) translate(22.947530864197546 74.49652777777777)"/><use xlink:href="#o" transform="matrix(1,0,0,1,675.4843573600244,739.9307025210072) translate(78.33641975308642 74.49652777777777)"/></g><path d="M1390.9 739.97c0-3.3 2.7-6 6-6h178.4c3.3 0 6 2.7 6 6v90.43c0 3.32-2.7 6-6 6h-178.4c-3.3 0-6-2.68-6-6z" stroke="#5e5e5e" stroke-width="3" fill="#ffeca9"/><g><use xlink:href="#i" transform="matrix(1,0,0,1,1395.902509980172,738.9702320334864) translate(25.361111111111114 24.71875)"/><use xlink:href="#j" transform="matrix(1,0,0,1,1395.902509980172,738.9702320334864) translate(60.36111111111111 24.71875)"/><use xlink:href="#S" transform="matrix(1,0,0,1,1395.902509980172,738.9702320334864) translate(131.80555555555554 24.71875)"/><use xlink:href="#l" transform="matrix(1,0,0,1,1395.902509980172,738.9702320334864) translate(4.777777777777786 48.71875)"/><use xlink:href="#T" transform="matrix(1,0,0,1,1395.902509980172,738.9702320334864) translate(61.99999999999999 48.71875)"/><use xlink:href="#n" transform="matrix(1,0,0,1,1395.902509980172,738.9702320334864) translate(12.391975308641989 74.49652777777777)"/><use xlink:href="#U" transform="matrix(1,0,0,1,1395.902509980172,738.9702320334864) translate(67.78086419753086 74.49652777777777)"/><use xlink:href="#V" transform="matrix(1,0,0,1,1395.902509980172,738.9702320334864) translate(102.7253086419753 74.49652777777777)"/></g><path d="M668.92 984.44c0-3.32 2.68-6 6-6h178.4c3.3 0 6 2.68 6 6v90.43c0 3.3-2.7 6-6 6H674.9c-3.32 0-6-2.7-6-6z" stroke="#5e5e5e" stroke-width="3" fill="#ffeca9"/><g><use xlink:href="#i" transform="matrix(1,0,0,1,673.9165144745556,983.4365836150174) translate(25.361111111111114 24.71875)"/><use xlink:href="#j" transform="matrix(1,0,0,1,673.9165144745556,983.4365836150174) translate(60.36111111111111 24.71875)"/><use xlink:href="#S" transform="matrix(1,0,0,1,673.9165144745556,983.4365836150174) translate(131.80555555555554 24.71875)"/><use xlink:href="#l" transform="matrix(1,0,0,1,673.9165144745556,983.4365836150174) translate(4.777777777777786 48.71875)"/><use xlink:href="#T" transform="matrix(1,0,0,1,673.9165144745556,983.4365836150174) translate(61.99999999999999 48.71875)"/><use xlink:href="#n" transform="matrix(1,0,0,1,673.9165144745556,983.4365836150174) translate(12.391975308641989 74.49652777777777)"/><use xlink:href="#U" transform="matrix(1,0,0,1,673.9165144745556,983.4365836150174) translate(67.78086419753086 74.49652777777777)"/><use xlink:href="#V" transform="matrix(1,0,0,1,673.9165144745556,983.4365836150174) translate(102.7253086419753 74.49652777777777)"/></g><defs><path fill="#333" d="M199 0l-22-63H83L61 0H9l90-248h61L250 0h-51zm-33-102l-36-108c-10 38-24 72-36 108h72" id="W"/><path fill="#333" d="M88-194c31-1 46 15 58 34l-1-101h50l1 261h-48c-2-10 0-23-3-31C134-8 116 4 84 4 32 4 16-41 15-95c0-56 19-97 73-99zm17 164c33 0 40-30 41-66 1-37-9-64-41-64s-38 30-39 65c0 43 13 65 39 65" id="X"/><g id="a"><use transform="matrix(0.061728395061728385,0,0,0.061728395061728385,0,0)" xlink:href="#W"/><use transform="matrix(0.061728395061728385,0,0,0.061728395061728385,15.987654320987652,0)" xlink:href="#X"/><use transform="matrix(0.061728395061728385,0,0,0.061728395061728385,29.506172839506167,0)" xlink:href="#X"/></g><path fill="#333" d="M220-157c-53 9-28 100-34 157h-49v-107c1-27-5-49-29-50C55-147 81-57 75 0H25l-1-190h47c2 12-1 28 3 38 10-53 101-56 108 0 13-22 24-43 59-42 82 1 51 116 57 194h-49v-107c-1-25-5-48-29-50" id="Y"/><path fill="#333" d="M185-48c-13 30-37 53-82 52C43 2 14-33 14-96s30-98 90-98c62 0 83 45 84 108H66c0 31 8 55 39 56 18 0 30-7 34-22zm-45-69c5-46-57-63-70-21-2 6-4 13-4 21h74" id="Z"/><path fill="#333" d="M137-138c1-29-70-34-71-4 15 46 118 7 119 86 1 83-164 76-172 9l43-7c4 19 20 25 44 25 33 8 57-30 24-41C81-84 22-81 20-136c-2-80 154-74 161-7" id="aa"/><path fill="#333" d="M133-34C117-15 103 5 69 4 32 3 11-16 11-54c-1-60 55-63 116-61 1-26-3-47-28-47-18 1-26 9-28 27l-52-2c7-38 36-58 82-57s74 22 75 68l1 82c-1 14 12 18 25 15v27c-30 8-71 5-69-32zm-48 3c29 0 43-24 42-57-32 0-66-3-65 30 0 17 8 27 23 27" id="ab"/><path fill="#333" d="M195-6C206 82 75 100 31 46c-4-6-6-13-8-21l49-6c3 16 16 24 34 25 40 0 42-37 40-79-11 22-30 35-61 35-53 0-70-43-70-97 0-56 18-96 73-97 30 0 46 14 59 34l2-30h47zm-90-29c32 0 41-27 41-63 0-35-9-62-40-62-32 0-39 29-40 63 0 36 9 62 39 62" id="ac"/><g id="b"><use transform="matrix(0.061728395061728385,0,0,0.061728395061728385,0,0)" xlink:href="#Y"/><use transform="matrix(0.061728395061728385,0,0,0.061728395061728385,19.75308641975308,0)" xlink:href="#Z"/><use transform="matrix(0.061728395061728385,0,0,0.061728395061728385,32.09876543209876,0)" xlink:href="#aa"/><use transform="matrix(0.061728395061728385,0,0,0.061728395061728385,44.444444444444436,0)" xlink:href="#aa"/><use transform="matrix(0.061728395061728385,0,0,0.061728395061728385,56.79012345679011,0)" xlink:href="#ab"/><use transform="matrix(0.061728395061728385,0,0,0.061728395061728385,69.1358024691358,0)" xlink:href="#ac"/><use transform="matrix(0.061728395061728385,0,0,0.061728395061728385,82.65432098765432,0)" xlink:href="#Z"/></g><path fill="#333" d="M115-3C79 11 28 4 28-45v-112H4v-33h27l15-45h31v45h36v33H77v99c-1 23 16 31 38 25v30" id="ad"/><path fill="#333" d="M110-194c64 0 96 36 96 99 0 64-35 99-97 99-61 0-95-36-95-99 0-62 34-99 96-99zm-1 164c35 0 45-28 45-65 0-40-10-65-43-65-34 0-45 26-45 65 0 36 10 65 43 65" id="ae"/><g id="c"><use transform="matrix(0.061728395061728385,0,0,0.061728395061728385,0,0)" xlink:href="#ad"/><use transform="matrix(0.061728395061728385,0,0,0.061728395061728385,7.345679012345678,0)" xlink:href="#ae"/></g><path fill="#333" d="M135-194c87-1 58 113 63 194h-50c-7-57 23-157-34-157-59 0-34 97-39 157H25l-1-190h47c2 12-1 28 3 38 12-26 28-41 61-42" id="af"/><g id="d"><use transform="matrix(0.061728395061728385,0,0,0.061728395061728385,0,0)" xlink:href="#W"/><use transform="matrix(0.061728395061728385,0,0,0.061728395061728385,15.987654320987652,0)" xlink:href="#ac"/><use transform="matrix(0.061728395061728385,0,0,0.061728395061728385,29.506172839506167,0)" xlink:href="#Z"/><use transform="matrix(0.061728395061728385,0,0,0.061728395061728385,41.85185185185185,0)" xlink:href="#af"/><use transform="matrix(0.061728395061728385,0,0,0.061728395061728385,55.37037037037037,0)" xlink:href="#ad"/></g><path fill="#333" d="M182-130c37 4 62 22 62 59C244 23 116-4 24 0v-248c84 5 203-23 205 63 0 31-19 50-47 55zM76-148c40-3 101 13 101-30 0-44-60-28-101-31v61zm0 110c48-3 116 14 116-37 0-48-69-32-116-35v72" id="ag"/><path fill="#333" d="M24 0v-54h51V0H24" id="ah"/><g id="e"><use transform="matrix(0.061728395061728385,0,0,0.061728395061728385,0,0)" xlink:href="#ag"/><use transform="matrix(0.061728395061728385,0,0,0.061728395061728385,15.987654320987652,0)" xlink:href="#ah"/></g><path fill="#333" d="M24 0v-248h52V0H24" id="ai"/><path fill="#333" d="M175 0L67-191c6 58 2 128 3 191H24v-248h59L193-55c-6-58-2-129-3-193h46V0h-61" id="aj"/><path fill="#333" d="M140-251c80 0 125 45 125 126S219 4 139 4C58 4 15-44 15-125s44-126 125-126zm-1 214c52 0 73-35 73-88 0-50-21-86-72-86-52 0-73 35-73 86s22 88 72 88" id="ak"/><path fill="#333" d="M182 0l-62-99L58 0H3l86-130-79-118h55l55 88 55-88h55l-75 118L237 0h-55" id="al"/><g id="f"><use transform="matrix(0.06790123456790123,0,0,0.06790123456790123,0,0)" xlink:href="#ai"/><use transform="matrix(0.06790123456790123,0,0,0.06790123456790123,6.790123456790123,0)" xlink:href="#aj"/><use transform="matrix(0.06790123456790123,0,0,0.06790123456790123,24.37654320987654,0)" xlink:href="#ag"/><use transform="matrix(0.06790123456790123,0,0,0.06790123456790123,41.96296296296296,0)" xlink:href="#ak"/><use transform="matrix(0.06790123456790123,0,0,0.06790123456790123,60.9753086419753,0)" xlink:href="#al"/></g><path fill="#333" d="M238-95c0 69-44 99-111 99C63 4 22-25 22-93v-155h51v151c-1 38 19 59 55 60 90 1 49-130 58-211h52v153" id="am"/><path fill="#333" d="M136-208V0H84v-208H4v-40h212v40h-80" id="an"/><g id="g"><use transform="matrix(0.06790123456790123,0,0,0.06790123456790123,0,0)" xlink:href="#ak"/><use transform="matrix(0.06790123456790123,0,0,0.06790123456790123,19.012345679012345,0)" xlink:href="#am"/><use transform="matrix(0.06790123456790123,0,0,0.06790123456790123,36.59876543209876,0)" xlink:href="#an"/><use transform="matrix(0.06790123456790123,0,0,0.06790123456790123,51.469135802469125,0)" xlink:href="#ag"/><use transform="matrix(0.06790123456790123,0,0,0.06790123456790123,69.05555555555554,0)" xlink:href="#ak"/><use transform="matrix(0.06790123456790123,0,0,0.06790123456790123,88.06790123456788,0)" xlink:href="#al"/></g><path fill="#333" d="M24 0v-248h195v40H76v63h132v40H76v65h150V0H24" id="ao"/><path fill="#333" d="M186 0v-106H76V0H24v-248h52v99h110v-99h50V0h-50" id="ap"/><path fill="#333" d="M147 0H94L2-248h55l64 206c17-72 42-137 63-206h54" id="aq"/><path fill="#333" d="M240-174c0 40-23 61-54 70L253 0h-59l-57-94H76V0H24v-248c93 4 217-23 216 74zM76-134c48-2 112 12 112-38 0-48-66-32-112-35v73" id="ar"/><path fill="#333" d="M169-182c-1-43-94-46-97-3 18 66 151 10 154 114 3 95-165 93-204 36-6-8-10-19-12-30l50-8c3 46 112 56 116 5-17-69-150-10-154-114-4-87 153-88 188-35 5 8 8 18 10 28" id="as"/><g id="h"><use transform="matrix(0.06790123456790123,0,0,0.06790123456790123,0,0)" xlink:href="#ag"/><use transform="matrix(0.06790123456790123,0,0,0.06790123456790123,17.586419753086417,0)" xlink:href="#ao"/><use transform="matrix(0.06790123456790123,0,0,0.06790123456790123,33.88271604938271,0)" xlink:href="#ap"/><use transform="matrix(0.06790123456790123,0,0,0.06790123456790123,51.469135802469125,0)" xlink:href="#W"/><use transform="matrix(0.06790123456790123,0,0,0.06790123456790123,67.2222222222222,0)" xlink:href="#aq"/><use transform="matrix(0.06790123456790123,0,0,0.06790123456790123,83.51851851851848,0)" xlink:href="#ai"/><use transform="matrix(0.06790123456790123,0,0,0.06790123456790123,90.30864197530862,0)" xlink:href="#ak"/><use transform="matrix(0.06790123456790123,0,0,0.06790123456790123,109.32098765432097,0)" xlink:href="#ar"/><use transform="matrix(0.06790123456790123,0,0,0.06790123456790123,126.90740740740738,0)" xlink:href="#as"/></g><path fill="#333" d="M35-132v-50h50v50H35zM35 0v-49h50V0H35" id="at"/><g id="i"><use transform="matrix(0.055555555555555546,0,0,0.055555555555555546,0,0)" xlink:href="#an"/><use transform="matrix(0.055555555555555546,0,0,0.055555555555555546,10.666666666666664,0)" xlink:href="#ae"/><use transform="matrix(0.055555555555555546,0,0,0.055555555555555546,22.83333333333333,0)" xlink:href="#at"/></g><path fill="#333" d="M142-158h-39l-4-90h48zm-75 0H28l-4-90h48" id="au"/><g id="j"><use transform="matrix(0.055555555555555546,0,0,0.055555555555555546,0,0)" xlink:href="#au"/><use transform="matrix(0.055555555555555546,0,0,0.055555555555555546,9.444444444444443,0)" xlink:href="#W"/><use transform="matrix(0.055555555555555546,0,0,0.055555555555555546,23.83333333333333,0)" xlink:href="#ac"/><use transform="matrix(0.055555555555555546,0,0,0.055555555555555546,35.99999999999999,0)" xlink:href="#Z"/><use transform="matrix(0.055555555555555546,0,0,0.055555555555555546,47.1111111111111,0)" xlink:href="#af"/><use transform="matrix(0.055555555555555546,0,0,0.055555555555555546,59.277777777777764,0)" xlink:href="#ad"/></g><g id="k"><use transform="matrix(0.055555555555555546,0,0,0.055555555555555546,0,0)" xlink:href="#ag"/><use transform="matrix(0.055555555555555546,0,0,0.055555555555555546,14.388888888888886,0)" xlink:href="#au"/></g><path fill="#333" d="M123 10C108 53 80 86 19 72V37c35 8 53-11 59-39L3-190h52l48 148c12-52 28-100 44-148h51" id="av"/><path fill="#333" d="M135-194c53 0 70 44 70 98 0 56-19 98-73 100-31 1-45-17-59-34 3 33 2 69 2 105H25l-1-265h48c2 10 0 23 3 31 11-24 29-35 60-35zM114-30c33 0 39-31 40-66 0-38-9-64-40-64-56 0-55 130 0 130" id="aw"/><g id="l"><use transform="matrix(0.055555555555555546,0,0,0.055555555555555546,0,0)" xlink:href="#an"/><use transform="matrix(0.055555555555555546,0,0,0.055555555555555546,10.666666666666664,0)" xlink:href="#av"/><use transform="matrix(0.055555555555555546,0,0,0.055555555555555546,21.77777777777777,0)" xlink:href="#aw"/><use transform="matrix(0.055555555555555546,0,0,0.055555555555555546,33.944444444444436,0)" xlink:href="#Z"/><use transform="matrix(0.055555555555555546,0,0,0.055555555555555546,45.05555555555554,0)" xlink:href="#at"/></g><path fill="#333" d="M67-125c0 54 23 88 75 88 28 0 53-7 68-21v-34h-60v-39h108v91C232-14 192 4 140 4 58 4 20-42 15-125 8-236 126-280 215-234c19 10 29 26 37 47l-47 15c-11-23-29-39-63-39-53 1-75 33-75 86" id="ax"/><path fill="#333" d="M135-150c-39-12-60 13-60 57V0H25l-1-190h47c2 13-1 29 3 40 6-28 27-53 61-41v41" id="ay"/><path fill="#333" d="M25-224v-37h50v37H25zM25 0v-190h50V0H25" id="az"/><g id="m"><use transform="matrix(0.055555555555555546,0,0,0.055555555555555546,0,0)" xlink:href="#au"/><use transform="matrix(0.055555555555555546,0,0,0.055555555555555546,9.444444444444443,0)" xlink:href="#ax"/><use transform="matrix(0.055555555555555546,0,0,0.055555555555555546,24.999999999999996,0)" xlink:href="#ay"/><use transform="matrix(0.055555555555555546,0,0,0.055555555555555546,32.77777777777777,0)" xlink:href="#Z"/><use transform="matrix(0.055555555555555546,0,0,0.055555555555555546,43.88888888888888,0)" xlink:href="#Z"/><use transform="matrix(0.055555555555555546,0,0,0.055555555555555546,54.999999999999986,0)" xlink:href="#ad"/><use transform="matrix(0.055555555555555546,0,0,0.055555555555555546,61.611111111111086,0)" xlink:href="#az"/><use transform="matrix(0.055555555555555546,0,0,0.055555555555555546,67.16666666666664,0)" xlink:href="#af"/><use transform="matrix(0.055555555555555546,0,0,0.055555555555555546,79.33333333333331,0)" xlink:href="#ac"/><use transform="matrix(0.055555555555555546,0,0,0.055555555555555546,91.49999999999997,0)" xlink:href="#au"/></g><path fill="#333" d="M24-248c120-7 223 5 221 122C244-46 201 0 124 0H24v-248zM76-40c74 7 117-18 117-86 0-67-45-88-117-82v168" id="aA"/><g id="n"><use transform="matrix(0.055555555555555546,0,0,0.055555555555555546,0,0)" xlink:href="#aA"/><use transform="matrix(0.055555555555555546,0,0,0.055555555555555546,14.388888888888886,0)" xlink:href="#ab"/><use transform="matrix(0.055555555555555546,0,0,0.055555555555555546,25.499999999999993,0)" xlink:href="#ad"/><use transform="matrix(0.055555555555555546,0,0,0.055555555555555546,32.1111111111111,0)" xlink:href="#ab"/><use transform="matrix(0.055555555555555546,0,0,0.055555555555555546,43.22222222222221,0)" xlink:href="#at"/></g><path fill="#333" d="M25 0v-261h50V0H25" id="aB"/><g id="o"><use transform="matrix(0.055555555555555546,0,0,0.055555555555555546,0,0)" xlink:href="#au"/><use transform="matrix(0.055555555555555546,0,0,0.055555555555555546,9.444444444444443,0)" xlink:href="#ap"/><use transform="matrix(0.055555555555555546,0,0,0.055555555555555546,23.83333333333333,0)" xlink:href="#Z"/><use transform="matrix(0.055555555555555546,0,0,0.055555555555555546,34.944444444444436,0)" xlink:href="#aB"/><use transform="matrix(0.055555555555555546,0,0,0.055555555555555546,40.49999999999999,0)" xlink:href="#aB"/><use transform="matrix(0.055555555555555546,0,0,0.055555555555555546,46.05555555555555,0)" xlink:href="#ae"/><use transform="matrix(0.06172839506172839,0,0,0.06172839506172839,58.222222222222214,0)" xlink:href="#au"/></g><path d="M199 0l-22-63H83L61 0H9l90-248h61L250 0h-51zm-33-102l-36-108c-10 38-24 72-36 108h72" id="aC"/><path d="M67-125c0 54 23 88 75 88 28 0 53-7 68-21v-34h-60v-39h108v91C232-14 192 4 140 4 58 4 20-42 15-125 8-236 126-280 215-234c19 10 29 26 37 47l-47 15c-11-23-29-39-63-39-53 1-75 33-75 86" id="aD"/><path d="M24 0v-248h195v40H76v63h132v40H76v65h150V0H24" id="aE"/><path d="M175 0L67-191c6 58 2 128 3 191H24v-248h59L193-55c-6-58-2-129-3-193h46V0h-61" id="aF"/><path d="M136-208V0H84v-208H4v-40h212v40h-80" id="aG"/><g id="p"><use transform="matrix(0.07407407407407407,0,0,0.07407407407407407,0,0)" xlink:href="#aC"/><use transform="matrix(0.07407407407407407,0,0,0.07407407407407407,19.185185185185183,0)" xlink:href="#aD"/><use transform="matrix(0.07407407407407407,0,0,0.07407407407407407,39.925925925925924,0)" xlink:href="#aE"/><use transform="matrix(0.07407407407407407,0,0,0.07407407407407407,57.7037037037037,0)" xlink:href="#aF"/><use transform="matrix(0.07407407407407407,0,0,0.07407407407407407,76.88888888888889,0)" xlink:href="#aG"/></g><use transform="matrix(0.07407407407407407,0,0,0.07407407407407407,0,0)" xlink:href="#aC" id="q"/><path d="M182-130c37 4 62 22 62 59C244 23 116-4 24 0v-248c84 5 203-23 205 63 0 31-19 50-47 55zM76-148c40-3 101 13 101-30 0-44-60-28-101-31v61zm0 110c48-3 116 14 116-37 0-48-69-32-116-35v72" id="aH"/><use transform="matrix(0.07407407407407407,0,0,0.07407407407407407,0,0)" xlink:href="#aH" id="r"/><g id="s"><use transform="matrix(0.06172839506172839,0,0,0.06172839506172839,0,0)" xlink:href="#aA"/><use transform="matrix(0.06172839506172839,0,0,0.06172839506172839,15.987654320987653,0)" xlink:href="#ae"/></g><path fill="#333" d="M114-157C55-157 80-60 75 0H25v-261h50l-1 109c12-26 28-41 61-42 86-1 58 113 63 194h-50c-7-57 23-157-34-157" id="aI"/><g id="t"><use transform="matrix(0.06172839506172839,0,0,0.06172839506172839,0,0)" xlink:href="#af"/><use transform="matrix(0.06172839506172839,0,0,0.06172839506172839,13.518518518518517,0)" xlink:href="#ae"/><use transform="matrix(0.06172839506172839,0,0,0.06172839506172839,27.037037037037035,0)" xlink:href="#ad"/><use transform="matrix(0.06172839506172839,0,0,0.06172839506172839,34.382716049382715,0)" xlink:href="#aI"/><use transform="matrix(0.06172839506172839,0,0,0.06172839506172839,47.901234567901234,0)" xlink:href="#az"/><use transform="matrix(0.06172839506172839,0,0,0.06172839506172839,54.074074074074076,0)" xlink:href="#af"/><use transform="matrix(0.06172839506172839,0,0,0.06172839506172839,67.5925925925926,0)" xlink:href="#ac"/><use transform="matrix(0.06172839506172839,0,0,0.06172839506172839,81.11111111111111,0)" xlink:href="#ah"/></g><path fill="#333" d="M275 0h-61l-44-196L126 0H64L0-248h53L97-49l45-199h58l43 199 44-199h52" id="aJ"/><g id="u"><use transform="matrix(0.06172839506172839,0,0,0.06172839506172839,0,0)" xlink:href="#aJ"/><use transform="matrix(0.06172839506172839,0,0,0.06172839506172839,20.123456790123456,0)" xlink:href="#ab"/><use transform="matrix(0.06172839506172839,0,0,0.06172839506172839,32.46913580246913,0)" xlink:href="#az"/><use transform="matrix(0.06172839506172839,0,0,0.06172839506172839,38.641975308641975,0)" xlink:href="#ad"/><use transform="matrix(0.06172839506172839,0,0,0.06172839506172839,45.98765432098765,0)" xlink:href="#az"/><use transform="matrix(0.06172839506172839,0,0,0.06172839506172839,52.160493827160494,0)" xlink:href="#af"/><use transform="matrix(0.06172839506172839,0,0,0.06172839506172839,65.67901234567901,0)" xlink:href="#ac"/></g><path fill="#333" d="M121-226c-27-7-43 5-38 36h38v33H83V0H34v-157H6v-33h28c-9-59 32-81 87-68v32" id="aK"/><g id="v"><use transform="matrix(0.06172839506172839,0,0,0.06172839506172839,0,0)" xlink:href="#aK"/><use transform="matrix(0.06172839506172839,0,0,0.06172839506172839,7.345679012345679,0)" xlink:href="#ae"/><use transform="matrix(0.06172839506172839,0,0,0.06172839506172839,20.864197530864196,0)" xlink:href="#ay"/></g><g id="w"><use transform="matrix(0.06172839506172839,0,0,0.06172839506172839,0,0)" xlink:href="#Y"/><use transform="matrix(0.06172839506172839,0,0,0.06172839506172839,19.753086419753085,0)" xlink:href="#Z"/><use transform="matrix(0.06172839506172839,0,0,0.06172839506172839,32.098765432098766,0)" xlink:href="#aa"/><use transform="matrix(0.06172839506172839,0,0,0.06172839506172839,44.44444444444444,0)" xlink:href="#aa"/><use transform="matrix(0.06172839506172839,0,0,0.06172839506172839,56.79012345679012,0)" xlink:href="#ab"/><use transform="matrix(0.06172839506172839,0,0,0.06172839506172839,69.1358024691358,0)" xlink:href="#ac"/><use transform="matrix(0.06172839506172839,0,0,0.06172839506172839,82.65432098765432,0)" xlink:href="#Z"/><use transform="matrix(0.06172839506172839,0,0,0.06172839506172839,95,0)" xlink:href="#aa"/></g><path fill="#333" d="M24-248c93 1 206-16 204 79-1 75-69 88-152 82V0H24v-248zm52 121c47 0 100 7 100-41 0-47-54-39-100-39v80" id="aL"/><g id="x"><use transform="matrix(0.10493827160493824,0,0,0.10493827160493824,0,0)" xlink:href="#as"/><use transform="matrix(0.10493827160493824,0,0,0.10493827160493824,25.185185185185176,0)" xlink:href="#an"/><use transform="matrix(0.10493827160493824,0,0,0.10493827160493824,48.16666666666665,0)" xlink:href="#ao"/><use transform="matrix(0.10493827160493824,0,0,0.10493827160493824,73.35185185185182,0)" xlink:href="#aL"/></g><path fill="#333" d="M23 0v-37h61v-169l-59 37v-38l62-41h46v211h57V0H23" id="aM"/><use transform="matrix(0.10493827160493824,0,0,0.10493827160493824,0,0)" xlink:href="#aM" id="y"/><g id="z"><use transform="matrix(0.061728395061728385,0,0,0.061728395061728385,0,0)" xlink:href="#aJ"/><use transform="matrix(0.061728395061728385,0,0,0.061728395061728385,20.123456790123456,0)" xlink:href="#ab"/><use transform="matrix(0.061728395061728385,0,0,0.061728395061728385,32.46913580246913,0)" xlink:href="#az"/><use transform="matrix(0.061728395061728385,0,0,0.061728395061728385,38.641975308641975,0)" xlink:href="#ad"/><use transform="matrix(0.061728395061728385,0,0,0.061728395061728385,45.98765432098765,0)" xlink:href="#az"/><use transform="matrix(0.061728395061728385,0,0,0.061728395061728385,52.160493827160494,0)" xlink:href="#af"/><use transform="matrix(0.061728395061728385,0,0,0.061728395061728385,65.67901234567901,0)" xlink:href="#ac"/></g><g id="A"><use transform="matrix(0.061728395061728385,0,0,0.061728395061728385,0,0)" xlink:href="#aK"/><use transform="matrix(0.061728395061728385,0,0,0.061728395061728385,7.345679012345678,0)" xlink:href="#ae"/><use transform="matrix(0.061728395061728385,0,0,0.061728395061728385,20.864197530864192,0)" xlink:href="#ay"/></g><g id="B"><use transform="matrix(0.061728395061728385,0,0,0.061728395061728385,0,0)" xlink:href="#ay"/><use transform="matrix(0.061728395061728385,0,0,0.061728395061728385,8.641975308641975,0)" xlink:href="#Z"/><use transform="matrix(0.061728395061728385,0,0,0.061728395061728385,20.98765432098765,0)" xlink:href="#aa"/><use transform="matrix(0.061728395061728385,0,0,0.061728395061728385,33.33333333333333,0)" xlink:href="#aw"/><use transform="matrix(0.061728395061728385,0,0,0.061728395061728385,46.85185185185185,0)" xlink:href="#ae"/><use transform="matrix(0.061728395061728385,0,0,0.061728395061728385,60.37037037037037,0)" xlink:href="#af"/><use transform="matrix(0.061728395061728385,0,0,0.061728395061728385,73.88888888888889,0)" xlink:href="#aa"/><use transform="matrix(0.061728395061728385,0,0,0.061728395061728385,86.23456790123456,0)" xlink:href="#Z"/><use transform="matrix(0.061728395061728385,0,0,0.061728395061728385,98.58024691358023,0)" xlink:href="#ah"/></g><path fill="#333" d="M190-63c-7 42-38 67-86 67-59 0-84-38-90-98-12-110 154-137 174-36l-49 2c-2-19-15-32-35-32-30 0-35 28-38 64-6 74 65 87 74 30" id="aN"/><g id="C"><use transform="matrix(0.06172839506172839,0,0,0.06172839506172839,0,0)" xlink:href="#aL"/><use transform="matrix(0.06172839506172839,0,0,0.06172839506172839,14.814814814814813,0)" xlink:href="#ay"/><use transform="matrix(0.06172839506172839,0,0,0.06172839506172839,23.456790123456788,0)" xlink:href="#ae"/><use transform="matrix(0.06172839506172839,0,0,0.06172839506172839,36.9753086419753,0)" xlink:href="#aN"/><use transform="matrix(0.06172839506172839,0,0,0.06172839506172839,49.32098765432098,0)" xlink:href="#Z"/><use transform="matrix(0.06172839506172839,0,0,0.06172839506172839,61.66666666666666,0)" xlink:href="#aa"/><use transform="matrix(0.06172839506172839,0,0,0.06172839506172839,74.01234567901234,0)" xlink:href="#aa"/></g><g id="D"><use transform="matrix(0.06172839506172839,0,0,0.06172839506172839,0,0)" xlink:href="#Y"/><use transform="matrix(0.06172839506172839,0,0,0.06172839506172839,19.753086419753085,0)" xlink:href="#Z"/><use transform="matrix(0.06172839506172839,0,0,0.06172839506172839,32.098765432098766,0)" xlink:href="#aa"/><use transform="matrix(0.06172839506172839,0,0,0.06172839506172839,44.44444444444444,0)" xlink:href="#aa"/><use transform="matrix(0.06172839506172839,0,0,0.06172839506172839,56.79012345679012,0)" xlink:href="#ab"/><use transform="matrix(0.06172839506172839,0,0,0.06172839506172839,69.1358024691358,0)" xlink:href="#ac"/><use transform="matrix(0.06172839506172839,0,0,0.06172839506172839,82.65432098765432,0)" xlink:href="#Z"/><use transform="matrix(0.06172839506172839,0,0,0.06172839506172839,95,0)" xlink:href="#ah"/></g><g id="E"><use transform="matrix(0.06172839506172839,0,0,0.06172839506172839,0,0)" xlink:href="#W"/><use transform="matrix(0.06172839506172839,0,0,0.06172839506172839,15.987654320987653,0)" xlink:href="#X"/><use transform="matrix(0.06172839506172839,0,0,0.06172839506172839,29.50617283950617,0)" xlink:href="#X"/></g><g id="F"><use transform="matrix(0.06172839506172839,0,0,0.06172839506172839,0,0)" xlink:href="#Y"/><use transform="matrix(0.06172839506172839,0,0,0.06172839506172839,19.753086419753085,0)" xlink:href="#Z"/><use transform="matrix(0.06172839506172839,0,0,0.06172839506172839,32.098765432098766,0)" xlink:href="#aa"/><use transform="matrix(0.06172839506172839,0,0,0.06172839506172839,44.44444444444444,0)" xlink:href="#aa"/><use transform="matrix(0.06172839506172839,0,0,0.06172839506172839,56.79012345679012,0)" xlink:href="#ab"/><use transform="matrix(0.06172839506172839,0,0,0.06172839506172839,69.1358024691358,0)" xlink:href="#ac"/><use transform="matrix(0.06172839506172839,0,0,0.06172839506172839,82.65432098765432,0)" xlink:href="#Z"/></g><g id="G"><use transform="matrix(0.06172839506172839,0,0,0.06172839506172839,0,0)" xlink:href="#ad"/><use transform="matrix(0.06172839506172839,0,0,0.06172839506172839,7.345679012345679,0)" xlink:href="#ae"/></g><g id="H"><use transform="matrix(0.06172839506172839,0,0,0.06172839506172839,0,0)" xlink:href="#W"/><use transform="matrix(0.06172839506172839,0,0,0.06172839506172839,15.987654320987653,0)" xlink:href="#ac"/><use transform="matrix(0.06172839506172839,0,0,0.06172839506172839,29.50617283950617,0)" xlink:href="#Z"/><use transform="matrix(0.06172839506172839,0,0,0.06172839506172839,41.85185185185185,0)" xlink:href="#af"/><use transform="matrix(0.06172839506172839,0,0,0.06172839506172839,55.37037037037037,0)" xlink:href="#ad"/></g><g id="I"><use transform="matrix(0.06172839506172839,0,0,0.06172839506172839,0,0)" xlink:href="#W"/><use transform="matrix(0.06172839506172839,0,0,0.06172839506172839,15.987654320987653,0)" xlink:href="#ah"/></g><path fill="#333" d="M182-182c0 78-84 86-111 141h115V0H12c-6-101 99-100 120-180 1-22-12-31-33-32-23 0-32 14-35 34l-49-3c5-45 32-70 84-70 51 0 83 22 83 69" id="aO"/><use transform="matrix(0.10493827160493824,0,0,0.10493827160493824,0,0)" xlink:href="#aO" id="J"/><g id="K"><use transform="matrix(0.061728395061728385,0,0,0.061728395061728385,0,0)" xlink:href="#aL"/><use transform="matrix(0.061728395061728385,0,0,0.061728395061728385,14.814814814814813,0)" xlink:href="#ay"/><use transform="matrix(0.061728395061728385,0,0,0.061728395061728385,23.456790123456788,0)" xlink:href="#ae"/><use transform="matrix(0.061728395061728385,0,0,0.061728395061728385,36.9753086419753,0)" xlink:href="#aN"/><use transform="matrix(0.061728395061728385,0,0,0.061728395061728385,49.32098765432098,0)" xlink:href="#Z"/><use transform="matrix(0.061728395061728385,0,0,0.061728395061728385,61.66666666666666,0)" xlink:href="#aa"/><use transform="matrix(0.061728395061728385,0,0,0.061728395061728385,74.01234567901233,0)" xlink:href="#aa"/></g><g id="L"><use transform="matrix(0.061728395061728385,0,0,0.061728395061728385,0,0)" xlink:href="#ay"/><use transform="matrix(0.061728395061728385,0,0,0.061728395061728385,8.641975308641975,0)" xlink:href="#Z"/><use transform="matrix(0.061728395061728385,0,0,0.061728395061728385,20.98765432098765,0)" xlink:href="#aa"/><use transform="matrix(0.061728395061728385,0,0,0.061728395061728385,33.33333333333333,0)" xlink:href="#aw"/><use transform="matrix(0.061728395061728385,0,0,0.061728395061728385,46.85185185185185,0)" xlink:href="#ae"/><use transform="matrix(0.061728395061728385,0,0,0.061728395061728385,60.37037037037037,0)" xlink:href="#af"/><use transform="matrix(0.061728395061728385,0,0,0.061728395061728385,73.88888888888889,0)" xlink:href="#aa"/><use transform="matrix(0.061728395061728385,0,0,0.061728395061728385,86.23456790123456,0)" xlink:href="#Z"/><use transform="matrix(0.061728395061728385,0,0,0.061728395061728385,98.58024691358023,0)" xlink:href="#ah"/></g><g id="M"><use transform="matrix(0.061728395061728385,0,0,0.061728395061728385,0,0)" xlink:href="#W"/><use transform="matrix(0.061728395061728385,0,0,0.061728395061728385,15.987654320987652,0)" xlink:href="#X"/><use transform="matrix(0.061728395061728385,0,0,0.061728395061728385,29.506172839506167,0)" xlink:href="#X"/></g><g id="N"><use transform="matrix(0.061728395061728385,0,0,0.061728395061728385,0,0)" xlink:href="#Y"/><use transform="matrix(0.061728395061728385,0,0,0.061728395061728385,19.75308641975308,0)" xlink:href="#Z"/><use transform="matrix(0.061728395061728385,0,0,0.061728395061728385,32.09876543209876,0)" xlink:href="#aa"/><use transform="matrix(0.061728395061728385,0,0,0.061728395061728385,44.444444444444436,0)" xlink:href="#aa"/><use transform="matrix(0.061728395061728385,0,0,0.061728395061728385,56.79012345679011,0)" xlink:href="#ab"/><use transform="matrix(0.061728395061728385,0,0,0.061728395061728385,69.1358024691358,0)" xlink:href="#ac"/><use transform="matrix(0.061728395061728385,0,0,0.061728395061728385,82.65432098765432,0)" xlink:href="#Z"/></g><path fill="#333" d="M84 4C32 4 15-41 15-95c0-55 18-99 73-99 29 0 47 12 58 34l2-30h48l-1 265h-49V-32C136-9 114 4 84 4zm21-34c32 0 41-29 41-66 0-36-9-64-40-64-33 0-39 30-40 65 0 43 13 65 39 65" id="aP"/><path fill="#333" d="M85 4C-2 5 27-109 22-190h50c7 57-23 150 33 157 60-5 35-97 40-157h50l1 190h-47c-2-12 1-28-3-38-12 25-28 42-61 42" id="aQ"/><g id="O"><use transform="matrix(0.055555555555555546,0,0,0.055555555555555546,0,0)" xlink:href="#au"/><use transform="matrix(0.055555555555555546,0,0,0.055555555555555546,9.444444444444443,0)" xlink:href="#ar"/><use transform="matrix(0.055555555555555546,0,0,0.055555555555555546,23.83333333333333,0)" xlink:href="#Z"/><use transform="matrix(0.055555555555555546,0,0,0.055555555555555546,34.944444444444436,0)" xlink:href="#aP"/><use transform="matrix(0.055555555555555546,0,0,0.055555555555555546,47.1111111111111,0)" xlink:href="#aQ"/><use transform="matrix(0.055555555555555546,0,0,0.055555555555555546,59.277777777777764,0)" xlink:href="#Z"/><use transform="matrix(0.055555555555555546,0,0,0.055555555555555546,70.38888888888887,0)" xlink:href="#aa"/><use transform="matrix(0.055555555555555546,0,0,0.055555555555555546,81.49999999999999,0)" xlink:href="#ad"/><use transform="matrix(0.055555555555555546,0,0,0.055555555555555546,88.1111111111111,0)" xlink:href="#au"/></g><path fill="#333" d="M67-125c0 53 21 87 73 88 37 1 54-22 65-47l45 17C233-25 199 4 140 4 58 4 20-42 15-125 8-235 124-281 211-232c18 10 29 29 36 50l-46 12c-8-25-30-41-62-41-52 0-71 34-72 86" id="aR"/><g id="P"><use transform="matrix(0.055555555555555546,0,0,0.055555555555555546,0,0)" xlink:href="#au"/><use transform="matrix(0.055555555555555546,0,0,0.055555555555555546,9.444444444444443,0)" xlink:href="#aR"/><use transform="matrix(0.055555555555555546,0,0,0.055555555555555546,23.83333333333333,0)" xlink:href="#ab"/><use transform="matrix(0.055555555555555546,0,0,0.055555555555555546,34.944444444444436,0)" xlink:href="#af"/></g><path fill="#333" d="M110-251c83-7 118 89 53 130-17 10-36 21-38 46H78c2-56 65-53 71-103 2-21-15-35-38-34-25 1-41 14-44 38l-50-2c6-48 39-70 93-75zM77 0v-47h51V0H77" id="aS"/><g id="Q"><use transform="matrix(0.055555555555555546,0,0,0.055555555555555546,0,0)" xlink:href="#av"/><use transform="matrix(0.055555555555555546,0,0,0.055555555555555546,11.111111111111109,0)" xlink:href="#ae"/><use transform="matrix(0.055555555555555546,0,0,0.055555555555555546,23.27777777777777,0)" xlink:href="#aQ"/><use transform="matrix(0.055555555555555546,0,0,0.055555555555555546,35.444444444444436,0)" xlink:href="#ah"/><use transform="matrix(0.055555555555555546,0,0,0.055555555555555546,40.99999999999999,0)" xlink:href="#ah"/><use transform="matrix(0.055555555555555546,0,0,0.055555555555555546,46.55555555555555,0)" xlink:href="#aS"/><use transform="matrix(0.06172839506172839,0,0,0.06172839506172839,58.722222222222214,0)" xlink:href="#au"/></g><path fill="#333" d="M128-127c34 4 56 21 59 58 7 91-148 94-172 28-4-9-6-17-7-26l51-5c1 24 16 35 40 36 23 0 39-12 38-36-1-31-31-36-65-34v-40c32 2 59-3 59-33 0-20-13-33-34-33s-33 13-35 32l-50-3c6-44 37-68 86-68 50 0 83 20 83 66 0 35-22 52-53 58" id="aT"/><use transform="matrix(0.10493827160493824,0,0,0.10493827160493824,0,0)" xlink:href="#aT" id="R"/><g id="S"><use transform="matrix(0.055555555555555546,0,0,0.055555555555555546,0,0)" xlink:href="#W"/><use transform="matrix(0.055555555555555546,0,0,0.055555555555555546,14.388888888888886,0)" xlink:href="#au"/></g><g id="T"><use transform="matrix(0.055555555555555546,0,0,0.055555555555555546,0,0)" xlink:href="#au"/><use transform="matrix(0.055555555555555546,0,0,0.055555555555555546,9.444444444444443,0)" xlink:href="#ar"/><use transform="matrix(0.055555555555555546,0,0,0.055555555555555546,23.83333333333333,0)" xlink:href="#Z"/><use transform="matrix(0.055555555555555546,0,0,0.055555555555555546,34.944444444444436,0)" xlink:href="#aa"/><use transform="matrix(0.055555555555555546,0,0,0.055555555555555546,46.05555555555554,0)" xlink:href="#aw"/><use transform="matrix(0.055555555555555546,0,0,0.055555555555555546,58.222222222222214,0)" xlink:href="#ae"/><use transform="matrix(0.055555555555555546,0,0,0.055555555555555546,70.38888888888887,0)" xlink:href="#af"/><use transform="matrix(0.055555555555555546,0,0,0.055555555555555546,82.55555555555554,0)" xlink:href="#aa"/><use transform="matrix(0.055555555555555546,0,0,0.055555555555555546,93.66666666666666,0)" xlink:href="#Z"/><use transform="matrix(0.055555555555555546,0,0,0.055555555555555546,104.77777777777777,0)" xlink:href="#au"/></g><g id="U"><use transform="matrix(0.055555555555555546,0,0,0.055555555555555546,0,0)" xlink:href="#au"/><use transform="matrix(0.055555555555555546,0,0,0.055555555555555546,9.444444444444443,0)" xlink:href="#ap"/><use transform="matrix(0.055555555555555546,0,0,0.055555555555555546,23.83333333333333,0)" xlink:href="#az"/></g><path fill="#333" d="M80-75H40l-6-173h52zM34 0v-47h51V0H34" id="aU"/><g id="V"><use transform="matrix(0.055555555555555546,0,0,0.055555555555555546,0,0)" xlink:href="#ad"/><use transform="matrix(0.055555555555555546,0,0,0.055555555555555546,6.61111111111111,0)" xlink:href="#aI"/><use transform="matrix(0.055555555555555546,0,0,0.055555555555555546,18.777777777777775,0)" xlink:href="#Z"/><use transform="matrix(0.055555555555555546,0,0,0.055555555555555546,29.888888888888882,0)" xlink:href="#ay"/><use transform="matrix(0.055555555555555546,0,0,0.055555555555555546,37.666666666666664,0)" xlink:href="#Z"/><use transform="matrix(0.055555555555555546,0,0,0.055555555555555546,48.77777777777777,0)" xlink:href="#aU"/><use transform="matrix(0.06172839506172839,0,0,0.06172839506172839,55.38888888888888,0)" xlink:href="#au"/></g></defs></g></svg>