<svg width="445" height="327" viewBox="0 0 445 327" fill="none" xmlns="http://www.w3.org/2000/svg">
<g filter="url(#filter0_i_244_4799)">
<rect x="306" y="99" width="139" height="139" rx="4" fill="white"/>
</g>
<rect x="306.5" y="99.5" width="138" height="138" rx="3.5" stroke="#FFC180"/>
<path d="M322.171 116.05V114.724H329.134V116.05H326.436V123.452H324.868V116.05H322.171ZM331.316 123.452V114.724H336.992V116.05H332.897V118.419H336.698V119.744H332.897V122.126H337.026V123.452H331.316ZM340.766 114.724L342.688 117.92H342.756L344.687 114.724H346.489L343.8 119.088L346.532 123.452H344.699L342.756 120.277H342.688L340.745 123.452H338.921L341.678 119.088L338.955 114.724H340.766ZM348.187 116.05V114.724H355.15V116.05H352.452V123.452H350.884V116.05H348.187Z" fill="#CF5B23"/>
<g filter="url(#filter1_i_244_4799)">
<rect width="139" height="139" rx="4" fill="white"/>
</g>
<rect x="0.5" y="0.5" width="138" height="138" rx="3.5" stroke="#FFC180"/>
<path d="M18.1351 15.7243V24.4516H16.5542V15.7243H18.1351ZM20.6871 15.7243H22.6218L25.2127 22.0482H25.315L27.9059 15.7243H29.8405V24.4516H28.3235V18.4559H28.2425L25.8306 24.426H24.6971L22.2851 18.4431H22.2042V24.4516H20.6871V15.7243ZM33.5229 24.4516H31.8354L34.9078 15.7243H36.8595L39.9362 24.4516H38.2487L35.9177 17.5141H35.8496L33.5229 24.4516ZM33.5783 21.0297H38.1805V22.2996H33.5783V21.0297ZM47.3622 18.5113C47.2911 18.2811 47.1931 18.0752 47.0681 17.8934C46.946 17.7087 46.7982 17.551 46.6249 17.4203C46.4545 17.2897 46.2585 17.1917 46.0369 17.1263C45.8153 17.0581 45.5738 17.024 45.3124 17.024C44.8437 17.024 44.4261 17.1419 44.0596 17.3777C43.6931 17.6135 43.4048 17.9601 43.1945 18.4175C42.9872 18.8721 42.8835 19.426 42.8835 20.0794C42.8835 20.7385 42.9872 21.2968 43.1945 21.7542C43.4019 22.2115 43.6903 22.5596 44.0596 22.7982C44.4289 23.034 44.8579 23.1519 45.3465 23.1519C45.7897 23.1519 46.1732 23.0667 46.4971 22.8962C46.8238 22.7257 47.0752 22.4843 47.2514 22.1718C47.4275 21.8564 47.5156 21.4871 47.5156 21.0638L47.8735 21.1192H45.5042V19.8834H49.0454V20.9317C49.0454 21.6789 48.8863 22.3252 48.5681 22.8706C48.2499 23.4161 47.8124 23.8365 47.2556 24.132C46.6988 24.4246 46.0596 24.5709 45.338 24.5709C44.534 24.5709 43.8281 24.3905 43.2201 24.0297C42.615 23.6661 42.142 23.1505 41.8011 22.4828C41.463 21.8124 41.294 21.0169 41.294 20.0965C41.294 19.3919 41.3934 18.7627 41.5923 18.2087C41.794 17.6547 42.0752 17.1846 42.436 16.7982C42.7968 16.409 43.2201 16.1135 43.7059 15.9118C44.1917 15.7073 44.7201 15.605 45.2911 15.605C45.7741 15.605 46.2244 15.676 46.642 15.8181C47.0596 15.9573 47.4303 16.1561 47.7542 16.4147C48.0809 16.6732 48.3494 16.98 48.5596 17.3351C48.7698 17.6902 48.9076 18.0823 48.9729 18.5113H47.3622ZM51.4142 24.4516V15.7243H57.0903V17.0496H52.9951V19.4189H56.7963V20.7442H52.9951V23.1263H57.1244V24.4516H51.4142Z" fill="#CF5B23"/>
<path d="M1.40909 170V158.364H5.47727C6.28788 158.364 6.95644 158.504 7.48295 158.784C8.00947 159.061 8.40152 159.434 8.65909 159.903C8.91667 160.369 9.04545 160.886 9.04545 161.455C9.04545 161.955 8.95644 162.367 8.77841 162.693C8.60417 163.019 8.37311 163.277 8.08523 163.466C7.80114 163.655 7.49242 163.795 7.15909 163.886V164C7.51515 164.023 7.87311 164.148 8.23295 164.375C8.5928 164.602 8.89394 164.928 9.13636 165.352C9.37879 165.777 9.5 166.295 9.5 166.909C9.5 167.492 9.36742 168.017 9.10227 168.483C8.83712 168.949 8.41856 169.318 7.84659 169.591C7.27462 169.864 6.5303 170 5.61364 170H1.40909ZM2.81818 168.75H5.61364C6.53409 168.75 7.1875 168.572 7.57386 168.216C7.96402 167.856 8.15909 167.42 8.15909 166.909C8.15909 166.515 8.05871 166.152 7.85795 165.818C7.6572 165.481 7.37121 165.212 7 165.011C6.62879 164.807 6.18939 164.705 5.68182 164.705H2.81818V168.75ZM2.81818 163.477H5.43182C5.85606 163.477 6.23864 163.394 6.57955 163.227C6.92424 163.061 7.19697 162.826 7.39773 162.523C7.60227 162.22 7.70455 161.864 7.70455 161.455C7.70455 160.943 7.52652 160.509 7.17045 160.153C6.81439 159.794 6.25 159.614 5.47727 159.614H2.81818V163.477ZM12.9744 158.364V170H11.6335V158.364H12.9744ZM18.9759 170.182C18.188 170.182 17.4967 169.994 16.902 169.619C16.3111 169.244 15.849 168.72 15.5156 168.045C15.1861 167.371 15.0213 166.583 15.0213 165.682C15.0213 164.773 15.1861 163.979 15.5156 163.301C15.849 162.623 16.3111 162.097 16.902 161.722C17.4967 161.347 18.188 161.159 18.9759 161.159C19.7637 161.159 20.4531 161.347 21.044 161.722C21.6387 162.097 22.1009 162.623 22.4304 163.301C22.7637 163.979 22.9304 164.773 22.9304 165.682C22.9304 166.583 22.7637 167.371 22.4304 168.045C22.1009 168.72 21.6387 169.244 21.044 169.619C20.4531 169.994 19.7637 170.182 18.9759 170.182ZM18.9759 168.977C19.5743 168.977 20.0668 168.824 20.4531 168.517C20.8395 168.21 21.1255 167.807 21.3111 167.307C21.4967 166.807 21.5895 166.265 21.5895 165.682C21.5895 165.098 21.4967 164.555 21.3111 164.051C21.1255 163.547 20.8395 163.14 20.4531 162.83C20.0668 162.519 19.5743 162.364 18.9759 162.364C18.3774 162.364 17.8849 162.519 17.4986 162.83C17.1122 163.14 16.8262 163.547 16.6406 164.051C16.455 164.555 16.3622 165.098 16.3622 165.682C16.3622 166.265 16.455 166.807 16.6406 167.307C16.8262 167.807 17.1122 168.21 17.4986 168.517C17.8849 168.824 18.3774 168.977 18.9759 168.977ZM28.5227 170.182C27.7045 170.182 27 169.989 26.4091 169.602C25.8182 169.216 25.3636 168.684 25.0455 168.006C24.7273 167.328 24.5682 166.553 24.5682 165.682C24.5682 164.795 24.7311 164.013 25.0568 163.335C25.3864 162.653 25.8447 162.121 26.4318 161.739C27.0227 161.352 27.7121 161.159 28.5 161.159C29.1136 161.159 29.6667 161.273 30.1591 161.5C30.6515 161.727 31.0549 162.045 31.3693 162.455C31.6837 162.864 31.8788 163.341 31.9545 163.886H30.6136C30.5114 163.489 30.2841 163.136 29.9318 162.83C29.5833 162.519 29.1136 162.364 28.5227 162.364C28 162.364 27.5417 162.5 27.1477 162.773C26.7576 163.042 26.4527 163.422 26.233 163.915C26.017 164.403 25.9091 164.977 25.9091 165.636C25.9091 166.311 26.0152 166.898 26.2273 167.398C26.4432 167.898 26.7462 168.286 27.1364 168.562C27.5303 168.839 27.9924 168.977 28.5227 168.977C28.8712 168.977 29.1875 168.917 29.4716 168.795C29.7557 168.674 29.9962 168.5 30.1932 168.273C30.3902 168.045 30.5303 167.773 30.6136 167.455H31.9545C31.8788 167.97 31.6913 168.434 31.392 168.847C31.0966 169.256 30.7045 169.581 30.2159 169.824C29.7311 170.062 29.1667 170.182 28.5227 170.182ZM35.1648 166.818L35.142 165.159H35.4148L39.233 161.273H40.892L36.8239 165.386H36.7102L35.1648 166.818ZM33.9148 170V158.364H35.2557V170H33.9148ZM39.4602 170L36.0511 165.682L37.0057 164.75L41.1648 170H39.4602ZM48.7997 163.227L47.5952 163.568C47.5194 163.367 47.4077 163.172 47.2599 162.983C47.116 162.79 46.919 162.631 46.669 162.506C46.419 162.381 46.099 162.318 45.7088 162.318C45.1747 162.318 44.7296 162.441 44.3736 162.688C44.0213 162.93 43.8452 163.239 43.8452 163.614C43.8452 163.947 43.9664 164.21 44.2088 164.403C44.4512 164.597 44.83 164.758 45.3452 164.886L46.6406 165.205C47.4209 165.394 48.0024 165.684 48.3849 166.074C48.7675 166.46 48.9588 166.958 48.9588 167.568C48.9588 168.068 48.8149 168.515 48.527 168.909C48.2429 169.303 47.8452 169.614 47.3338 169.841C46.8224 170.068 46.2277 170.182 45.5497 170.182C44.6596 170.182 43.9228 169.989 43.3395 169.602C42.7562 169.216 42.3868 168.652 42.2315 167.909L43.5043 167.591C43.6255 168.061 43.8546 168.413 44.1918 168.648C44.5327 168.883 44.9777 169 45.527 169C46.152 169 46.6482 168.867 47.0156 168.602C47.3868 168.333 47.5724 168.011 47.5724 167.636C47.5724 167.333 47.4664 167.08 47.2543 166.875C47.0421 166.667 46.7164 166.511 46.277 166.409L44.8224 166.068C44.0232 165.879 43.4361 165.585 43.0611 165.188C42.6899 164.786 42.5043 164.284 42.5043 163.682C42.5043 163.189 42.6425 162.754 42.919 162.375C43.1993 161.996 43.58 161.699 44.0611 161.483C44.5459 161.267 45.0952 161.159 45.7088 161.159C46.5724 161.159 47.2505 161.348 47.7429 161.727C48.2391 162.106 48.5914 162.606 48.7997 163.227ZM57.4545 170L54.7955 161.273H56.2045L58.0909 167.955H58.1818L60.0455 161.273H61.4773L63.3182 167.932H63.4091L65.2955 161.273H66.7045L64.0455 170H62.7273L60.8182 163.295H60.6818L58.7727 170H57.4545ZM68.4773 170V161.273H69.8182V170H68.4773ZM69.1591 159.818C68.8977 159.818 68.6723 159.729 68.483 159.551C68.2973 159.373 68.2045 159.159 68.2045 158.909C68.2045 158.659 68.2973 158.445 68.483 158.267C68.6723 158.089 68.8977 158 69.1591 158C69.4205 158 69.6439 158.089 69.8295 158.267C70.0189 158.445 70.1136 158.659 70.1136 158.909C70.1136 159.159 70.0189 159.373 69.8295 159.551C69.6439 159.729 69.4205 159.818 69.1591 159.818ZM76.0696 161.273V162.409H71.5469V161.273H76.0696ZM72.8651 159.182H74.206V167.5C74.206 167.879 74.2609 168.163 74.3707 168.352C74.4844 168.538 74.6283 168.663 74.8026 168.727C74.9806 168.788 75.1681 168.818 75.3651 168.818C75.5128 168.818 75.634 168.811 75.7287 168.795C75.8234 168.777 75.8991 168.761 75.956 168.75L76.2287 169.955C76.1378 169.989 76.0109 170.023 75.848 170.057C75.6851 170.095 75.4787 170.114 75.2287 170.114C74.8499 170.114 74.4787 170.032 74.1151 169.869C73.7552 169.706 73.456 169.458 73.2173 169.125C72.9825 168.792 72.8651 168.371 72.8651 167.864V159.182ZM79.6151 164.75V170H78.2741V158.364H79.6151V162.636H79.7287C79.9332 162.186 80.2401 161.828 80.6491 161.562C81.062 161.294 81.6113 161.159 82.2969 161.159C82.8916 161.159 83.4124 161.278 83.8594 161.517C84.3063 161.752 84.6529 162.114 84.8991 162.602C85.1491 163.087 85.2741 163.705 85.2741 164.455V170H83.9332V164.545C83.9332 163.852 83.7533 163.316 83.3935 162.938C83.0374 162.555 82.5431 162.364 81.9105 162.364C81.4711 162.364 81.0772 162.456 80.7287 162.642C80.384 162.828 80.1113 163.098 79.9105 163.455C79.7135 163.811 79.6151 164.242 79.6151 164.75ZM92.2273 173.273V161.273H93.5227V162.659H93.6818C93.7803 162.508 93.9167 162.314 94.0909 162.08C94.2689 161.841 94.5227 161.629 94.8523 161.443C95.1856 161.254 95.6364 161.159 96.2045 161.159C96.9394 161.159 97.5871 161.343 98.1477 161.71C98.7083 162.078 99.1458 162.598 99.4602 163.273C99.7746 163.947 99.9318 164.742 99.9318 165.659C99.9318 166.583 99.7746 167.384 99.4602 168.062C99.1458 168.737 98.7102 169.259 98.1534 169.631C97.5966 169.998 96.9545 170.182 96.2273 170.182C95.6667 170.182 95.2178 170.089 94.8807 169.903C94.5436 169.714 94.2841 169.5 94.1023 169.261C93.9205 169.019 93.7803 168.818 93.6818 168.659H93.5682V173.273H92.2273ZM93.5455 165.636C93.5455 166.295 93.642 166.877 93.8352 167.381C94.0284 167.881 94.3106 168.273 94.6818 168.557C95.053 168.837 95.5076 168.977 96.0455 168.977C96.6061 168.977 97.0739 168.83 97.4489 168.534C97.8277 168.235 98.1117 167.833 98.3011 167.33C98.4943 166.822 98.5909 166.258 98.5909 165.636C98.5909 165.023 98.4962 164.47 98.3068 163.977C98.1212 163.481 97.839 163.089 97.4602 162.801C97.0852 162.509 96.6136 162.364 96.0455 162.364C95.5 162.364 95.0417 162.502 94.6705 162.778C94.2992 163.051 94.0189 163.434 93.8295 163.926C93.6402 164.415 93.5455 164.985 93.5455 165.636ZM101.977 170V161.273H103.273V162.591H103.364C103.523 162.159 103.811 161.809 104.227 161.54C104.644 161.271 105.114 161.136 105.636 161.136C105.735 161.136 105.858 161.138 106.006 161.142C106.153 161.146 106.265 161.152 106.341 161.159V162.523C106.295 162.511 106.191 162.494 106.028 162.472C105.869 162.445 105.701 162.432 105.523 162.432C105.098 162.432 104.72 162.521 104.386 162.699C104.057 162.873 103.795 163.116 103.602 163.426C103.413 163.733 103.318 164.083 103.318 164.477V170H101.977ZM111.324 170.182C110.483 170.182 109.758 169.996 109.148 169.625C108.542 169.25 108.074 168.727 107.744 168.057C107.419 167.383 107.256 166.598 107.256 165.705C107.256 164.811 107.419 164.023 107.744 163.341C108.074 162.655 108.532 162.121 109.119 161.739C109.71 161.352 110.4 161.159 111.188 161.159C111.642 161.159 112.091 161.235 112.534 161.386C112.977 161.538 113.381 161.784 113.744 162.125C114.108 162.462 114.398 162.909 114.614 163.466C114.83 164.023 114.938 164.708 114.938 165.523V166.091H108.21V164.932H113.574C113.574 164.439 113.475 164 113.278 163.614C113.085 163.227 112.809 162.922 112.449 162.699C112.093 162.475 111.672 162.364 111.188 162.364C110.653 162.364 110.191 162.496 109.801 162.761C109.415 163.023 109.117 163.364 108.909 163.784C108.701 164.205 108.597 164.655 108.597 165.136V165.909C108.597 166.568 108.71 167.127 108.938 167.585C109.169 168.04 109.489 168.386 109.898 168.625C110.307 168.86 110.782 168.977 111.324 168.977C111.676 168.977 111.994 168.928 112.278 168.83C112.566 168.727 112.814 168.576 113.023 168.375C113.231 168.17 113.392 167.917 113.506 167.614L114.801 167.977C114.665 168.417 114.436 168.803 114.114 169.136C113.792 169.466 113.394 169.723 112.92 169.909C112.447 170.091 111.915 170.182 111.324 170.182ZM121.977 164.386V165.636H116.886V164.386H121.977ZM127.632 170.182C126.905 170.182 126.263 169.998 125.706 169.631C125.149 169.259 124.714 168.737 124.399 168.062C124.085 167.384 123.928 166.583 123.928 165.659C123.928 164.742 124.085 163.947 124.399 163.273C124.714 162.598 125.151 162.078 125.712 161.71C126.272 161.343 126.92 161.159 127.655 161.159C128.223 161.159 128.672 161.254 129.001 161.443C129.335 161.629 129.589 161.841 129.763 162.08C129.941 162.314 130.079 162.508 130.178 162.659H130.291V158.364H131.632V170H130.337V168.659H130.178C130.079 168.818 129.939 169.019 129.757 169.261C129.575 169.5 129.316 169.714 128.979 169.903C128.642 170.089 128.193 170.182 127.632 170.182ZM127.814 168.977C128.352 168.977 128.806 168.837 129.178 168.557C129.549 168.273 129.831 167.881 130.024 167.381C130.217 166.877 130.314 166.295 130.314 165.636C130.314 164.985 130.219 164.415 130.03 163.926C129.84 163.434 129.56 163.051 129.189 162.778C128.818 162.502 128.359 162.364 127.814 162.364C127.246 162.364 126.772 162.509 126.393 162.801C126.018 163.089 125.736 163.481 125.547 163.977C125.361 164.47 125.268 165.023 125.268 165.636C125.268 166.258 125.363 166.822 125.553 167.33C125.746 167.833 126.03 168.235 126.405 168.534C126.784 168.83 127.253 168.977 127.814 168.977ZM137.933 170.182C137.092 170.182 136.367 169.996 135.757 169.625C135.151 169.25 134.683 168.727 134.354 168.057C134.028 167.383 133.865 166.598 133.865 165.705C133.865 164.811 134.028 164.023 134.354 163.341C134.683 162.655 135.142 162.121 135.729 161.739C136.32 161.352 137.009 161.159 137.797 161.159C138.251 161.159 138.7 161.235 139.143 161.386C139.587 161.538 139.99 161.784 140.354 162.125C140.717 162.462 141.007 162.909 141.223 163.466C141.439 164.023 141.547 164.708 141.547 165.523V166.091H134.82V164.932H140.183C140.183 164.439 140.085 164 139.888 163.614C139.695 163.227 139.418 162.922 139.058 162.699C138.702 162.475 138.282 162.364 137.797 162.364C137.263 162.364 136.801 162.496 136.411 162.761C136.024 163.023 135.727 163.364 135.518 163.784C135.31 164.205 135.206 164.655 135.206 165.136V165.909C135.206 166.568 135.32 167.127 135.547 167.585C135.778 168.04 136.098 168.386 136.507 168.625C136.916 168.86 137.392 168.977 137.933 168.977C138.286 168.977 138.604 168.928 138.888 168.83C139.176 168.727 139.424 168.576 139.632 168.375C139.84 168.17 140.001 167.917 140.115 167.614L141.411 167.977C141.274 168.417 141.045 168.803 140.723 169.136C140.401 169.466 140.003 169.723 139.53 169.909C139.056 170.091 138.524 170.182 137.933 170.182ZM147.473 161.273V162.409H142.768V161.273H147.473ZM144.178 170V160.068C144.178 159.568 144.295 159.152 144.53 158.818C144.765 158.485 145.07 158.235 145.445 158.068C145.82 157.902 146.215 157.818 146.632 157.818C146.962 157.818 147.231 157.845 147.439 157.898C147.647 157.951 147.803 158 147.905 158.045L147.518 159.205C147.45 159.182 147.356 159.153 147.234 159.119C147.117 159.085 146.962 159.068 146.768 159.068C146.325 159.068 146.005 159.18 145.808 159.403C145.615 159.627 145.518 159.955 145.518 160.386V170H144.178ZM149.352 170V161.273H150.693V170H149.352ZM150.034 159.818C149.773 159.818 149.547 159.729 149.358 159.551C149.172 159.373 149.08 159.159 149.08 158.909C149.08 158.659 149.172 158.445 149.358 158.267C149.547 158.089 149.773 158 150.034 158C150.295 158 150.519 158.089 150.705 158.267C150.894 158.445 150.989 158.659 150.989 158.909C150.989 159.159 150.894 159.373 150.705 159.551C150.519 159.729 150.295 159.818 150.034 159.818ZM154.49 164.75V170H153.149V161.273H154.445V162.636H154.558C154.763 162.193 155.073 161.837 155.49 161.568C155.907 161.295 156.445 161.159 157.104 161.159C157.695 161.159 158.212 161.28 158.655 161.523C159.098 161.761 159.443 162.125 159.689 162.614C159.935 163.098 160.058 163.712 160.058 164.455V170H158.717V164.545C158.717 163.86 158.539 163.326 158.183 162.943C157.827 162.557 157.339 162.364 156.717 162.364C156.289 162.364 155.907 162.456 155.57 162.642C155.236 162.828 154.973 163.098 154.78 163.455C154.587 163.811 154.49 164.242 154.49 164.75ZM166.168 170.182C165.327 170.182 164.601 169.996 163.991 169.625C163.385 169.25 162.918 168.727 162.588 168.057C162.262 167.383 162.099 166.598 162.099 165.705C162.099 164.811 162.262 164.023 162.588 163.341C162.918 162.655 163.376 162.121 163.963 161.739C164.554 161.352 165.243 161.159 166.031 161.159C166.486 161.159 166.935 161.235 167.378 161.386C167.821 161.538 168.224 161.784 168.588 162.125C168.952 162.462 169.241 162.909 169.457 163.466C169.673 164.023 169.781 164.708 169.781 165.523V166.091H163.054V164.932H168.418C168.418 164.439 168.319 164 168.122 163.614C167.929 163.227 167.652 162.922 167.293 162.699C166.937 162.475 166.516 162.364 166.031 162.364C165.497 162.364 165.035 162.496 164.645 162.761C164.259 163.023 163.961 163.364 163.753 163.784C163.545 164.205 163.44 164.655 163.44 165.136V165.909C163.44 166.568 163.554 167.127 163.781 167.585C164.012 168.04 164.332 168.386 164.741 168.625C165.151 168.86 165.626 168.977 166.168 168.977C166.52 168.977 166.838 168.928 167.122 168.83C167.41 168.727 167.658 168.576 167.866 168.375C168.075 168.17 168.236 167.917 168.349 167.614L169.645 167.977C169.509 168.417 169.279 168.803 168.957 169.136C168.635 169.466 168.238 169.723 167.764 169.909C167.291 170.091 166.759 170.182 166.168 170.182ZM175.116 170.182C174.389 170.182 173.747 169.998 173.19 169.631C172.634 169.259 172.198 168.737 171.884 168.062C171.569 167.384 171.412 166.583 171.412 165.659C171.412 164.742 171.569 163.947 171.884 163.273C172.198 162.598 172.635 162.078 173.196 161.71C173.757 161.343 174.404 161.159 175.139 161.159C175.707 161.159 176.156 161.254 176.486 161.443C176.819 161.629 177.073 161.841 177.247 162.08C177.425 162.314 177.563 162.508 177.662 162.659H177.776V158.364H179.116V170H177.821V168.659H177.662C177.563 168.818 177.423 169.019 177.241 169.261C177.06 169.5 176.8 169.714 176.463 169.903C176.126 170.089 175.677 170.182 175.116 170.182ZM175.298 168.977C175.836 168.977 176.291 168.837 176.662 168.557C177.033 168.273 177.315 167.881 177.509 167.381C177.702 166.877 177.798 166.295 177.798 165.636C177.798 164.985 177.704 164.415 177.514 163.926C177.325 163.434 177.045 163.051 176.673 162.778C176.302 162.502 175.844 162.364 175.298 162.364C174.73 162.364 174.257 162.509 173.878 162.801C173.503 163.089 173.221 163.481 173.031 163.977C172.846 164.47 172.753 165.023 172.753 165.636C172.753 166.258 172.848 166.822 173.037 167.33C173.23 167.833 173.514 168.235 173.889 168.534C174.268 168.83 174.738 168.977 175.298 168.977ZM5.02273 180.273V181.409H0.5V180.273H5.02273ZM1.81818 178.182H3.15909V186.5C3.15909 186.879 3.21402 187.163 3.32386 187.352C3.4375 187.538 3.58144 187.663 3.75568 187.727C3.93371 187.788 4.12121 187.818 4.31818 187.818C4.46591 187.818 4.58712 187.811 4.68182 187.795C4.77652 187.777 4.85227 187.761 4.90909 187.75L5.18182 188.955C5.09091 188.989 4.96402 189.023 4.80114 189.057C4.63826 189.095 4.43182 189.114 4.18182 189.114C3.80303 189.114 3.43182 189.032 3.06818 188.869C2.70833 188.706 2.40909 188.458 2.17045 188.125C1.93561 187.792 1.81818 187.371 1.81818 186.864V178.182ZM7.90341 192.273C7.67614 192.273 7.47348 192.254 7.29545 192.216C7.11742 192.182 6.99432 192.148 6.92614 192.114L7.26705 190.932C7.5928 191.015 7.88068 191.045 8.13068 191.023C8.38068 191 8.60227 190.888 8.79545 190.688C8.99242 190.491 9.17235 190.17 9.33523 189.727L9.58523 189.045L6.35795 180.273H7.8125L10.2216 187.227H10.3125L12.7216 180.273H14.1761L10.4716 190.273C10.3049 190.723 10.0985 191.097 9.85227 191.392C9.60606 191.691 9.32008 191.913 8.99432 192.057C8.67235 192.201 8.30871 192.273 7.90341 192.273ZM15.946 192.273V180.273H17.2415V181.659H17.4006C17.4991 181.508 17.6354 181.314 17.8097 181.08C17.9877 180.841 18.2415 180.629 18.571 180.443C18.9044 180.254 19.3551 180.159 19.9233 180.159C20.6581 180.159 21.3059 180.343 21.8665 180.71C22.4271 181.078 22.8646 181.598 23.179 182.273C23.4934 182.947 23.6506 183.742 23.6506 184.659C23.6506 185.583 23.4934 186.384 23.179 187.062C22.8646 187.737 22.429 188.259 21.8722 188.631C21.3153 188.998 20.6733 189.182 19.946 189.182C19.3854 189.182 18.9366 189.089 18.5994 188.903C18.2623 188.714 18.0028 188.5 17.821 188.261C17.6392 188.019 17.4991 187.818 17.4006 187.659H17.2869V192.273H15.946ZM17.2642 184.636C17.2642 185.295 17.3608 185.877 17.554 186.381C17.7472 186.881 18.0294 187.273 18.4006 187.557C18.7718 187.837 19.2263 187.977 19.7642 187.977C20.3248 187.977 20.7926 187.83 21.1676 187.534C21.5464 187.235 21.8305 186.833 22.0199 186.33C22.2131 185.822 22.3097 185.258 22.3097 184.636C22.3097 184.023 22.215 183.47 22.0256 182.977C21.84 182.481 21.5578 182.089 21.179 181.801C20.804 181.509 20.3324 181.364 19.7642 181.364C19.2188 181.364 18.7604 181.502 18.3892 181.778C18.018 182.051 17.7377 182.434 17.5483 182.926C17.3589 183.415 17.2642 183.985 17.2642 184.636ZM29.3551 189.182C28.5142 189.182 27.7888 188.996 27.179 188.625C26.5729 188.25 26.1051 187.727 25.7756 187.057C25.4498 186.383 25.2869 185.598 25.2869 184.705C25.2869 183.811 25.4498 183.023 25.7756 182.341C26.1051 181.655 26.5634 181.121 27.1506 180.739C27.7415 180.352 28.4309 180.159 29.2188 180.159C29.6733 180.159 30.1222 180.235 30.5653 180.386C31.0085 180.538 31.4119 180.784 31.7756 181.125C32.1392 181.462 32.429 181.909 32.6449 182.466C32.8608 183.023 32.9688 183.708 32.9688 184.523V185.091H26.2415V183.932H31.6051C31.6051 183.439 31.5066 183 31.3097 182.614C31.1165 182.227 30.84 181.922 30.4801 181.699C30.1241 181.475 29.7036 181.364 29.2188 181.364C28.6847 181.364 28.2225 181.496 27.8324 181.761C27.446 182.023 27.1487 182.364 26.9403 182.784C26.732 183.205 26.6278 183.655 26.6278 184.136V184.909C26.6278 185.568 26.7415 186.127 26.9688 186.585C27.1998 187.04 27.5199 187.386 27.929 187.625C28.3381 187.86 28.8134 187.977 29.3551 187.977C29.7074 187.977 30.0256 187.928 30.3097 187.83C30.5975 187.727 30.8456 187.576 31.054 187.375C31.2623 187.17 31.4233 186.917 31.5369 186.614L32.8324 186.977C32.696 187.417 32.4669 187.803 32.1449 188.136C31.8229 188.466 31.4252 188.723 30.9517 188.909C30.4782 189.091 29.946 189.182 29.3551 189.182ZM41.1903 182.227L39.9858 182.568C39.91 182.367 39.7983 182.172 39.6506 181.983C39.5066 181.79 39.3097 181.631 39.0597 181.506C38.8097 181.381 38.4896 181.318 38.0994 181.318C37.5653 181.318 37.1203 181.441 36.7642 181.688C36.4119 181.93 36.2358 182.239 36.2358 182.614C36.2358 182.947 36.357 183.21 36.5994 183.403C36.8419 183.597 37.2206 183.758 37.7358 183.886L39.0312 184.205C39.8116 184.394 40.393 184.684 40.7756 185.074C41.1581 185.46 41.3494 185.958 41.3494 186.568C41.3494 187.068 41.2055 187.515 40.9176 187.909C40.6335 188.303 40.2358 188.614 39.7244 188.841C39.2131 189.068 38.6184 189.182 37.9403 189.182C37.0502 189.182 36.3134 188.989 35.7301 188.602C35.1468 188.216 34.7775 187.652 34.6222 186.909L35.8949 186.591C36.0161 187.061 36.2453 187.413 36.5824 187.648C36.9233 187.883 37.3684 188 37.9176 188C38.5426 188 39.0388 187.867 39.4062 187.602C39.7775 187.333 39.9631 187.011 39.9631 186.636C39.9631 186.333 39.857 186.08 39.6449 185.875C39.4328 185.667 39.107 185.511 38.6676 185.409L37.2131 185.068C36.4138 184.879 35.8267 184.585 35.4517 184.188C35.0805 183.786 34.8949 183.284 34.8949 182.682C34.8949 182.189 35.0331 181.754 35.3097 181.375C35.59 180.996 35.9706 180.699 36.4517 180.483C36.9366 180.267 37.4858 180.159 38.0994 180.159C38.9631 180.159 39.6411 180.348 40.1335 180.727C40.6297 181.106 40.982 181.606 41.1903 182.227ZM50.4361 189.205C49.883 189.205 49.3812 189.1 48.9304 188.892C48.4796 188.68 48.1217 188.375 47.8565 187.977C47.5914 187.576 47.4588 187.091 47.4588 186.523C47.4588 186.023 47.5573 185.617 47.7543 185.307C47.9512 184.992 48.2145 184.746 48.544 184.568C48.8736 184.39 49.2372 184.258 49.6349 184.17C50.0365 184.08 50.4399 184.008 50.8452 183.955C51.3755 183.886 51.8054 183.835 52.1349 183.801C52.4683 183.763 52.7107 183.701 52.8622 183.614C53.0175 183.527 53.0952 183.375 53.0952 183.159V183.114C53.0952 182.553 52.9418 182.117 52.6349 181.807C52.3319 181.496 51.8717 181.341 51.2543 181.341C50.6141 181.341 50.1122 181.481 49.7486 181.761C49.3849 182.042 49.1293 182.341 48.9815 182.659L47.7088 182.205C47.9361 181.674 48.2391 181.261 48.6179 180.966C49.0005 180.667 49.4171 180.458 49.8679 180.341C50.3224 180.22 50.7694 180.159 51.2088 180.159C51.4891 180.159 51.8111 180.193 52.1747 180.261C52.5421 180.326 52.8963 180.46 53.2372 180.665C53.5819 180.869 53.8679 181.178 54.0952 181.591C54.3224 182.004 54.4361 182.557 54.4361 183.25V189H53.0952V187.818H53.027C52.9361 188.008 52.7846 188.21 52.5724 188.426C52.3603 188.642 52.0781 188.826 51.7259 188.977C51.3736 189.129 50.9437 189.205 50.4361 189.205ZM50.6406 188C51.1709 188 51.6179 187.896 51.9815 187.688C52.349 187.479 52.6255 187.21 52.8111 186.881C53.0005 186.551 53.0952 186.205 53.0952 185.841V184.614C53.0384 184.682 52.9134 184.744 52.7202 184.801C52.5308 184.854 52.3111 184.902 52.0611 184.943C51.8149 184.981 51.5743 185.015 51.3395 185.045C51.1084 185.072 50.9209 185.095 50.777 185.114C50.4285 185.159 50.1027 185.233 49.7997 185.335C49.5005 185.434 49.258 185.583 49.0724 185.784C48.8906 185.981 48.7997 186.25 48.7997 186.591C48.7997 187.057 48.9721 187.409 49.3168 187.648C49.6652 187.883 50.1065 188 50.6406 188ZM58.2244 177.364V189H56.8835V177.364H58.2244ZM62.0213 177.364V189H60.6804V177.364H62.0213ZM68.0227 189.182C67.2348 189.182 66.5436 188.994 65.9489 188.619C65.358 188.244 64.8958 187.72 64.5625 187.045C64.233 186.371 64.0682 185.583 64.0682 184.682C64.0682 183.773 64.233 182.979 64.5625 182.301C64.8958 181.623 65.358 181.097 65.9489 180.722C66.5436 180.347 67.2348 180.159 68.0227 180.159C68.8106 180.159 69.5 180.347 70.0909 180.722C70.6856 181.097 71.1477 181.623 71.4773 182.301C71.8106 182.979 71.9773 183.773 71.9773 184.682C71.9773 185.583 71.8106 186.371 71.4773 187.045C71.1477 187.72 70.6856 188.244 70.0909 188.619C69.5 188.994 68.8106 189.182 68.0227 189.182ZM68.0227 187.977C68.6212 187.977 69.1136 187.824 69.5 187.517C69.8864 187.21 70.1723 186.807 70.358 186.307C70.5436 185.807 70.6364 185.265 70.6364 184.682C70.6364 184.098 70.5436 183.555 70.358 183.051C70.1723 182.547 69.8864 182.14 69.5 181.83C69.1136 181.519 68.6212 181.364 68.0227 181.364C67.4242 181.364 66.9318 181.519 66.5455 181.83C66.1591 182.14 65.8731 182.547 65.6875 183.051C65.5019 183.555 65.4091 184.098 65.4091 184.682C65.4091 185.265 65.5019 185.807 65.6875 186.307C65.8731 186.807 66.1591 187.21 66.5455 187.517C66.9318 187.824 67.4242 187.977 68.0227 187.977ZM75.7045 189L73.0455 180.273H74.4545L76.3409 186.955H76.4318L78.2955 180.273H79.7273L81.5682 186.932H81.6591L83.5455 180.273H84.9545L82.2955 189H80.9773L79.0682 182.295H78.9318L77.0227 189H75.7045ZM92.0909 192.273C91.8636 192.273 91.661 192.254 91.483 192.216C91.3049 192.182 91.1818 192.148 91.1136 192.114L91.4545 190.932C91.7803 191.015 92.0682 191.045 92.3182 191.023C92.5682 191 92.7898 190.888 92.983 190.688C93.1799 190.491 93.3598 190.17 93.5227 189.727L93.7727 189.045L90.5455 180.273H92L94.4091 187.227H94.5L96.9091 180.273H98.3636L94.6591 190.273C94.4924 190.723 94.286 191.097 94.0398 191.392C93.7936 191.691 93.5076 191.913 93.1818 192.057C92.8598 192.201 92.4962 192.273 92.0909 192.273ZM103.366 189.182C102.579 189.182 101.887 188.994 101.293 188.619C100.702 188.244 100.24 187.72 99.9062 187.045C99.5767 186.371 99.4119 185.583 99.4119 184.682C99.4119 183.773 99.5767 182.979 99.9062 182.301C100.24 181.623 100.702 181.097 101.293 180.722C101.887 180.347 102.579 180.159 103.366 180.159C104.154 180.159 104.844 180.347 105.435 180.722C106.029 181.097 106.491 181.623 106.821 182.301C107.154 182.979 107.321 183.773 107.321 184.682C107.321 185.583 107.154 186.371 106.821 187.045C106.491 187.72 106.029 188.244 105.435 188.619C104.844 188.994 104.154 189.182 103.366 189.182ZM103.366 187.977C103.965 187.977 104.457 187.824 104.844 187.517C105.23 187.21 105.516 186.807 105.702 186.307C105.887 185.807 105.98 185.265 105.98 184.682C105.98 184.098 105.887 183.555 105.702 183.051C105.516 182.547 105.23 182.14 104.844 181.83C104.457 181.519 103.965 181.364 103.366 181.364C102.768 181.364 102.276 181.519 101.889 181.83C101.503 182.14 101.217 182.547 101.031 183.051C100.846 183.555 100.753 184.098 100.753 184.682C100.753 185.265 100.846 185.807 101.031 186.307C101.217 186.807 101.503 187.21 101.889 187.517C102.276 187.824 102.768 187.977 103.366 187.977ZM114.868 185.432V180.273H116.209V189H114.868V187.523H114.777C114.572 187.966 114.254 188.343 113.822 188.653C113.391 188.96 112.845 189.114 112.186 189.114C111.641 189.114 111.156 188.994 110.732 188.756C110.307 188.513 109.974 188.15 109.732 187.665C109.489 187.176 109.368 186.561 109.368 185.818V180.273H110.709V185.727C110.709 186.364 110.887 186.871 111.243 187.25C111.603 187.629 112.061 187.818 112.618 187.818C112.951 187.818 113.29 187.733 113.635 187.562C113.983 187.392 114.275 187.131 114.51 186.778C114.749 186.426 114.868 185.977 114.868 185.432ZM126.96 180.273V181.409H122.438V180.273H126.96ZM123.756 178.182H125.097V186.5C125.097 186.879 125.152 187.163 125.261 187.352C125.375 187.538 125.519 187.663 125.693 187.727C125.871 187.788 126.059 187.818 126.256 187.818C126.403 187.818 126.525 187.811 126.619 187.795C126.714 187.777 126.79 187.761 126.847 187.75L127.119 188.955C127.028 188.989 126.902 189.023 126.739 189.057C126.576 189.095 126.369 189.114 126.119 189.114C125.741 189.114 125.369 189.032 125.006 188.869C124.646 188.706 124.347 188.458 124.108 188.125C123.873 187.792 123.756 187.371 123.756 186.864V178.182ZM132.429 189.182C131.641 189.182 130.95 188.994 130.355 188.619C129.764 188.244 129.302 187.72 128.969 187.045C128.639 186.371 128.474 185.583 128.474 184.682C128.474 183.773 128.639 182.979 128.969 182.301C129.302 181.623 129.764 181.097 130.355 180.722C130.95 180.347 131.641 180.159 132.429 180.159C133.217 180.159 133.906 180.347 134.497 180.722C135.092 181.097 135.554 181.623 135.884 182.301C136.217 182.979 136.384 183.773 136.384 184.682C136.384 185.583 136.217 186.371 135.884 187.045C135.554 187.72 135.092 188.244 134.497 188.619C133.906 188.994 133.217 189.182 132.429 189.182ZM132.429 187.977C133.027 187.977 133.52 187.824 133.906 187.517C134.293 187.21 134.579 186.807 134.764 186.307C134.95 185.807 135.043 185.265 135.043 184.682C135.043 184.098 134.95 183.555 134.764 183.051C134.579 182.547 134.293 182.14 133.906 181.83C133.52 181.519 133.027 181.364 132.429 181.364C131.83 181.364 131.338 181.519 130.952 181.83C130.565 182.14 130.279 182.547 130.094 183.051C129.908 183.555 129.815 184.098 129.815 184.682C129.815 185.265 129.908 185.807 130.094 186.307C130.279 186.807 130.565 187.21 130.952 187.517C131.338 187.824 131.83 187.977 132.429 187.977ZM146.476 189.182C145.658 189.182 144.953 188.989 144.362 188.602C143.771 188.216 143.317 187.684 142.999 187.006C142.68 186.328 142.521 185.553 142.521 184.682C142.521 183.795 142.684 183.013 143.01 182.335C143.339 181.653 143.798 181.121 144.385 180.739C144.976 180.352 145.665 180.159 146.453 180.159C147.067 180.159 147.62 180.273 148.112 180.5C148.605 180.727 149.008 181.045 149.322 181.455C149.637 181.864 149.832 182.341 149.908 182.886H148.567C148.464 182.489 148.237 182.136 147.885 181.83C147.536 181.519 147.067 181.364 146.476 181.364C145.953 181.364 145.495 181.5 145.101 181.773C144.711 182.042 144.406 182.422 144.186 182.915C143.97 183.403 143.862 183.977 143.862 184.636C143.862 185.311 143.968 185.898 144.18 186.398C144.396 186.898 144.699 187.286 145.089 187.562C145.483 187.839 145.946 187.977 146.476 187.977C146.824 187.977 147.141 187.917 147.425 187.795C147.709 187.674 147.949 187.5 148.146 187.273C148.343 187.045 148.483 186.773 148.567 186.455H149.908C149.832 186.97 149.644 187.434 149.345 187.847C149.05 188.256 148.658 188.581 148.169 188.824C147.684 189.062 147.12 189.182 146.476 189.182ZM151.868 189V180.273H153.163V181.591H153.254C153.413 181.159 153.701 180.809 154.118 180.54C154.535 180.271 155.004 180.136 155.527 180.136C155.625 180.136 155.749 180.138 155.896 180.142C156.044 180.146 156.156 180.152 156.232 180.159V181.523C156.186 181.511 156.082 181.494 155.919 181.472C155.76 181.445 155.591 181.432 155.413 181.432C154.989 181.432 154.61 181.521 154.277 181.699C153.947 181.873 153.686 182.116 153.493 182.426C153.304 182.733 153.209 183.083 153.209 183.477V189H151.868ZM161.214 189.182C160.374 189.182 159.648 188.996 159.038 188.625C158.432 188.25 157.964 187.727 157.635 187.057C157.309 186.383 157.146 185.598 157.146 184.705C157.146 183.811 157.309 183.023 157.635 182.341C157.964 181.655 158.423 181.121 159.01 180.739C159.601 180.352 160.29 180.159 161.078 180.159C161.533 180.159 161.982 180.235 162.425 180.386C162.868 180.538 163.271 180.784 163.635 181.125C163.999 181.462 164.288 181.909 164.504 182.466C164.72 183.023 164.828 183.708 164.828 184.523V185.091H158.101V183.932H163.464C163.464 183.439 163.366 183 163.169 182.614C162.976 182.227 162.699 181.922 162.339 181.699C161.983 181.475 161.563 181.364 161.078 181.364C160.544 181.364 160.082 181.496 159.692 181.761C159.305 182.023 159.008 182.364 158.8 182.784C158.591 183.205 158.487 183.655 158.487 184.136V184.909C158.487 185.568 158.601 186.127 158.828 186.585C159.059 187.04 159.379 187.386 159.788 187.625C160.197 187.86 160.673 187.977 161.214 187.977C161.567 187.977 161.885 187.928 162.169 187.83C162.457 187.727 162.705 187.576 162.913 187.375C163.122 187.17 163.283 186.917 163.396 186.614L164.692 186.977C164.555 187.417 164.326 187.803 164.004 188.136C163.682 188.466 163.285 188.723 162.811 188.909C162.338 189.091 161.805 189.182 161.214 189.182ZM169.436 189.205C168.883 189.205 168.381 189.1 167.93 188.892C167.48 188.68 167.122 188.375 166.857 187.977C166.591 187.576 166.459 187.091 166.459 186.523C166.459 186.023 166.557 185.617 166.754 185.307C166.951 184.992 167.214 184.746 167.544 184.568C167.874 184.39 168.237 184.258 168.635 184.17C169.036 184.08 169.44 184.008 169.845 183.955C170.375 183.886 170.805 183.835 171.135 183.801C171.468 183.763 171.711 183.701 171.862 183.614C172.018 183.527 172.095 183.375 172.095 183.159V183.114C172.095 182.553 171.942 182.117 171.635 181.807C171.332 181.496 170.872 181.341 170.254 181.341C169.614 181.341 169.112 181.481 168.749 181.761C168.385 182.042 168.129 182.341 167.982 182.659L166.709 182.205C166.936 181.674 167.239 181.261 167.618 180.966C168 180.667 168.417 180.458 168.868 180.341C169.322 180.22 169.769 180.159 170.209 180.159C170.489 180.159 170.811 180.193 171.175 180.261C171.542 180.326 171.896 180.46 172.237 180.665C172.582 180.869 172.868 181.178 173.095 181.591C173.322 182.004 173.436 182.557 173.436 183.25V189H172.095V187.818H172.027C171.936 188.008 171.785 188.21 171.572 188.426C171.36 188.642 171.078 188.826 170.726 188.977C170.374 189.129 169.944 189.205 169.436 189.205ZM169.641 188C170.171 188 170.618 187.896 170.982 187.688C171.349 187.479 171.625 187.21 171.811 186.881C172 186.551 172.095 186.205 172.095 185.841V184.614C172.038 184.682 171.913 184.744 171.72 184.801C171.531 184.854 171.311 184.902 171.061 184.943C170.815 184.981 170.574 185.015 170.339 185.045C170.108 185.072 169.921 185.095 169.777 185.114C169.429 185.159 169.103 185.233 168.8 185.335C168.5 185.434 168.258 185.583 168.072 185.784C167.891 185.981 167.8 186.25 167.8 186.591C167.8 187.057 167.972 187.409 168.317 187.648C168.665 187.883 169.107 188 169.641 188ZM179.679 180.273V181.409H175.156V180.273H179.679ZM176.474 178.182H177.815V186.5C177.815 186.879 177.87 187.163 177.98 187.352C178.094 187.538 178.238 187.663 178.412 187.727C178.59 187.788 178.777 187.818 178.974 187.818C179.122 187.818 179.243 187.811 179.338 187.795C179.433 187.777 179.509 187.761 179.565 187.75L179.838 188.955C179.747 188.989 179.62 189.023 179.457 189.057C179.295 189.095 179.088 189.114 178.838 189.114C178.459 189.114 178.088 189.032 177.724 188.869C177.365 188.706 177.065 188.458 176.827 188.125C176.592 187.792 176.474 187.371 176.474 186.864V178.182ZM185.261 189.182C184.42 189.182 183.695 188.996 183.085 188.625C182.479 188.25 182.011 187.727 181.682 187.057C181.356 186.383 181.193 185.598 181.193 184.705C181.193 183.811 181.356 183.023 181.682 182.341C182.011 181.655 182.47 181.121 183.057 180.739C183.648 180.352 184.337 180.159 185.125 180.159C185.58 180.159 186.028 180.235 186.472 180.386C186.915 180.538 187.318 180.784 187.682 181.125C188.045 181.462 188.335 181.909 188.551 182.466C188.767 183.023 188.875 183.708 188.875 184.523V185.091H182.148V183.932H187.511C187.511 183.439 187.413 183 187.216 182.614C187.023 182.227 186.746 181.922 186.386 181.699C186.03 181.475 185.61 181.364 185.125 181.364C184.591 181.364 184.129 181.496 183.739 181.761C183.352 182.023 183.055 182.364 182.847 182.784C182.638 183.205 182.534 183.655 182.534 184.136V184.909C182.534 185.568 182.648 186.127 182.875 186.585C183.106 187.04 183.426 187.386 183.835 187.625C184.244 187.86 184.72 187.977 185.261 187.977C185.614 187.977 185.932 187.928 186.216 187.83C186.504 187.727 186.752 187.576 186.96 187.375C187.169 187.17 187.33 186.917 187.443 186.614L188.739 186.977C188.602 187.417 188.373 187.803 188.051 188.136C187.729 188.466 187.331 188.723 186.858 188.909C186.384 189.091 185.852 189.182 185.261 189.182ZM7.40909 201.227L6.20455 201.568C6.12879 201.367 6.01705 201.172 5.86932 200.983C5.72538 200.79 5.52841 200.631 5.27841 200.506C5.02841 200.381 4.70833 200.318 4.31818 200.318C3.78409 200.318 3.33902 200.441 2.98295 200.688C2.63068 200.93 2.45455 201.239 2.45455 201.614C2.45455 201.947 2.57576 202.21 2.81818 202.403C3.06061 202.597 3.43939 202.758 3.95455 202.886L5.25 203.205C6.0303 203.394 6.61174 203.684 6.99432 204.074C7.37689 204.46 7.56818 204.958 7.56818 205.568C7.56818 206.068 7.42424 206.515 7.13636 206.909C6.85227 207.303 6.45455 207.614 5.94318 207.841C5.43182 208.068 4.83712 208.182 4.15909 208.182C3.26894 208.182 2.5322 207.989 1.94886 207.602C1.36553 207.216 0.996212 206.652 0.840909 205.909L2.11364 205.591C2.23485 206.061 2.46402 206.413 2.80114 206.648C3.14205 206.883 3.58712 207 4.13636 207C4.76136 207 5.25758 206.867 5.625 206.602C5.99621 206.333 6.18182 206.011 6.18182 205.636C6.18182 205.333 6.07576 205.08 5.86364 204.875C5.65152 204.667 5.32576 204.511 4.88636 204.409L3.43182 204.068C2.63258 203.879 2.04545 203.585 1.67045 203.188C1.29924 202.786 1.11364 202.284 1.11364 201.682C1.11364 201.189 1.25189 200.754 1.52841 200.375C1.80871 199.996 2.18939 199.699 2.67045 199.483C3.1553 199.267 3.70455 199.159 4.31818 199.159C5.18182 199.159 5.85985 199.348 6.35227 199.727C6.84848 200.106 7.20076 200.606 7.40909 201.227ZM13.3821 199.273V200.409H8.85938V199.273H13.3821ZM10.1776 197.182H11.5185V205.5C11.5185 205.879 11.5734 206.163 11.6832 206.352C11.7969 206.538 11.9408 206.663 12.1151 206.727C12.2931 206.788 12.4806 206.818 12.6776 206.818C12.8253 206.818 12.9465 206.811 13.0412 206.795C13.1359 206.777 13.2116 206.761 13.2685 206.75L13.5412 207.955C13.4503 207.989 13.3234 208.023 13.1605 208.057C12.9976 208.095 12.7912 208.114 12.5412 208.114C12.1624 208.114 11.7912 208.032 11.4276 207.869C11.0677 207.706 10.7685 207.458 10.5298 207.125C10.295 206.792 10.1776 206.371 10.1776 205.864V197.182ZM15.3991 208V199.273H16.6946V200.591H16.7855C16.9446 200.159 17.2325 199.809 17.6491 199.54C18.0658 199.271 18.5355 199.136 19.0582 199.136C19.1567 199.136 19.2798 199.138 19.4276 199.142C19.5753 199.146 19.687 199.152 19.7628 199.159V200.523C19.7173 200.511 19.6132 200.494 19.4503 200.472C19.2912 200.445 19.1226 200.432 18.9446 200.432C18.5204 200.432 18.1416 200.521 17.8082 200.699C17.4787 200.873 17.2173 201.116 17.0241 201.426C16.8348 201.733 16.7401 202.083 16.7401 202.477V208H15.3991ZM26.8523 204.432V199.273H28.1932V208H26.8523V206.523H26.7614C26.5568 206.966 26.2386 207.343 25.8068 207.653C25.375 207.96 24.8295 208.114 24.1705 208.114C23.625 208.114 23.1402 207.994 22.7159 207.756C22.2917 207.513 21.9583 207.15 21.7159 206.665C21.4735 206.176 21.3523 205.561 21.3523 204.818V199.273H22.6932V204.727C22.6932 205.364 22.8712 205.871 23.2273 206.25C23.5871 206.629 24.0455 206.818 24.6023 206.818C24.9356 206.818 25.2746 206.733 25.6193 206.562C25.9678 206.392 26.2595 206.131 26.4943 205.778C26.733 205.426 26.8523 204.977 26.8523 204.432ZM34.1946 208.182C33.3764 208.182 32.6719 207.989 32.081 207.602C31.4901 207.216 31.0355 206.684 30.7173 206.006C30.3991 205.328 30.2401 204.553 30.2401 203.682C30.2401 202.795 30.4029 202.013 30.7287 201.335C31.0582 200.653 31.5166 200.121 32.1037 199.739C32.6946 199.352 33.384 199.159 34.1719 199.159C34.7855 199.159 35.3385 199.273 35.831 199.5C36.3234 199.727 36.7268 200.045 37.0412 200.455C37.3556 200.864 37.5507 201.341 37.6264 201.886H36.2855C36.1832 201.489 35.956 201.136 35.6037 200.83C35.2552 200.519 34.7855 200.364 34.1946 200.364C33.6719 200.364 33.2135 200.5 32.8196 200.773C32.4295 201.042 32.1245 201.422 31.9048 201.915C31.6889 202.403 31.581 202.977 31.581 203.636C31.581 204.311 31.687 204.898 31.8991 205.398C32.1151 205.898 32.4181 206.286 32.8082 206.562C33.2022 206.839 33.6643 206.977 34.1946 206.977C34.5431 206.977 34.8594 206.917 35.1435 206.795C35.4276 206.674 35.6681 206.5 35.8651 206.273C36.062 206.045 36.2022 205.773 36.2855 205.455H37.6264C37.5507 205.97 37.3632 206.434 37.0639 206.847C36.7685 207.256 36.3764 207.581 35.8878 207.824C35.4029 208.062 34.8385 208.182 34.1946 208.182ZM43.3821 199.273V200.409H38.8594V199.273H43.3821ZM40.1776 197.182H41.5185V205.5C41.5185 205.879 41.5734 206.163 41.6832 206.352C41.7969 206.538 41.9408 206.663 42.1151 206.727C42.2931 206.788 42.4806 206.818 42.6776 206.818C42.8253 206.818 42.9465 206.811 43.0412 206.795C43.1359 206.777 43.2116 206.761 43.2685 206.75L43.5412 207.955C43.4503 207.989 43.3234 208.023 43.1605 208.057C42.9976 208.095 42.7912 208.114 42.5412 208.114C42.1624 208.114 41.7912 208.032 41.4276 207.869C41.0677 207.706 40.7685 207.458 40.5298 207.125C40.295 206.792 40.1776 206.371 40.1776 205.864V197.182ZM50.8991 204.432V199.273H52.2401V208H50.8991V206.523H50.8082C50.6037 206.966 50.2855 207.343 49.8537 207.653C49.4219 207.96 48.8764 208.114 48.2173 208.114C47.6719 208.114 47.187 207.994 46.7628 207.756C46.3385 207.513 46.0052 207.15 45.7628 206.665C45.5204 206.176 45.3991 205.561 45.3991 204.818V199.273H46.7401V204.727C46.7401 205.364 46.9181 205.871 47.2741 206.25C47.634 206.629 48.0923 206.818 48.6491 206.818C48.9825 206.818 49.3215 206.733 49.6662 206.562C50.0147 206.392 50.3063 206.131 50.5412 205.778C50.7798 205.426 50.8991 204.977 50.8991 204.432ZM54.696 208V199.273H55.9915V200.591H56.0824C56.2415 200.159 56.5294 199.809 56.946 199.54C57.3627 199.271 57.8324 199.136 58.3551 199.136C58.4536 199.136 58.5767 199.138 58.7244 199.142C58.8722 199.146 58.9839 199.152 59.0597 199.159V200.523C59.0142 200.511 58.91 200.494 58.7472 200.472C58.5881 200.445 58.4195 200.432 58.2415 200.432C57.8172 200.432 57.4384 200.521 57.1051 200.699C56.7756 200.873 56.5142 201.116 56.321 201.426C56.1316 201.733 56.0369 202.083 56.0369 202.477V208H54.696ZM64.0426 208.182C63.2017 208.182 62.4763 207.996 61.8665 207.625C61.2604 207.25 60.7926 206.727 60.4631 206.057C60.1373 205.383 59.9744 204.598 59.9744 203.705C59.9744 202.811 60.1373 202.023 60.4631 201.341C60.7926 200.655 61.2509 200.121 61.8381 199.739C62.429 199.352 63.1184 199.159 63.9062 199.159C64.3608 199.159 64.8097 199.235 65.2528 199.386C65.696 199.538 66.0994 199.784 66.4631 200.125C66.8267 200.462 67.1165 200.909 67.3324 201.466C67.5483 202.023 67.6562 202.708 67.6562 203.523V204.091H60.929V202.932H66.2926C66.2926 202.439 66.1941 202 65.9972 201.614C65.804 201.227 65.5275 200.922 65.1676 200.699C64.8116 200.475 64.3911 200.364 63.9062 200.364C63.3722 200.364 62.91 200.496 62.5199 200.761C62.1335 201.023 61.8362 201.364 61.6278 201.784C61.4195 202.205 61.3153 202.655 61.3153 203.136V203.909C61.3153 204.568 61.429 205.127 61.6562 205.585C61.8873 206.04 62.2074 206.386 62.6165 206.625C63.0256 206.86 63.5009 206.977 64.0426 206.977C64.3949 206.977 64.7131 206.928 64.9972 206.83C65.285 206.727 65.5331 206.576 65.7415 206.375C65.9498 206.17 66.1108 205.917 66.2244 205.614L67.5199 205.977C67.3835 206.417 67.1544 206.803 66.8324 207.136C66.5104 207.466 66.1127 207.723 65.6392 207.909C65.1657 208.091 64.6335 208.182 64.0426 208.182ZM72.9915 208.182C72.2642 208.182 71.6222 207.998 71.0653 207.631C70.5085 207.259 70.0729 206.737 69.7585 206.062C69.4441 205.384 69.2869 204.583 69.2869 203.659C69.2869 202.742 69.4441 201.947 69.7585 201.273C70.0729 200.598 70.5104 200.078 71.071 199.71C71.6316 199.343 72.2794 199.159 73.0142 199.159C73.5824 199.159 74.0313 199.254 74.3608 199.443C74.6941 199.629 74.9479 199.841 75.1222 200.08C75.3002 200.314 75.4384 200.508 75.5369 200.659H75.6506V196.364H76.9915V208H75.696V206.659H75.5369C75.4384 206.818 75.2983 207.019 75.1165 207.261C74.9347 207.5 74.6752 207.714 74.3381 207.903C74.0009 208.089 73.5521 208.182 72.9915 208.182ZM73.1733 206.977C73.7112 206.977 74.1657 206.837 74.5369 206.557C74.9081 206.273 75.1903 205.881 75.3835 205.381C75.5767 204.877 75.6733 204.295 75.6733 203.636C75.6733 202.985 75.5786 202.415 75.3892 201.926C75.1998 201.434 74.9195 201.051 74.5483 200.778C74.1771 200.502 73.7188 200.364 73.1733 200.364C72.6051 200.364 72.1316 200.509 71.7528 200.801C71.3778 201.089 71.0956 201.481 70.9062 201.977C70.7206 202.47 70.6278 203.023 70.6278 203.636C70.6278 204.258 70.7225 204.822 70.9119 205.33C71.1051 205.833 71.3892 206.235 71.7642 206.534C72.143 206.83 72.6127 206.977 73.1733 206.977ZM87.429 208.182C86.7017 208.182 86.0597 207.998 85.5028 207.631C84.946 207.259 84.5104 206.737 84.196 206.062C83.8816 205.384 83.7244 204.583 83.7244 203.659C83.7244 202.742 83.8816 201.947 84.196 201.273C84.5104 200.598 84.9479 200.078 85.5085 199.71C86.0691 199.343 86.7169 199.159 87.4517 199.159C88.0199 199.159 88.4688 199.254 88.7983 199.443C89.1316 199.629 89.3854 199.841 89.5597 200.08C89.7377 200.314 89.8759 200.508 89.9744 200.659H90.0881V196.364H91.429V208H90.1335V206.659H89.9744C89.8759 206.818 89.7358 207.019 89.554 207.261C89.3722 207.5 89.1127 207.714 88.7756 207.903C88.4384 208.089 87.9896 208.182 87.429 208.182ZM87.6108 206.977C88.1487 206.977 88.6032 206.837 88.9744 206.557C89.3456 206.273 89.6278 205.881 89.821 205.381C90.0142 204.877 90.1108 204.295 90.1108 203.636C90.1108 202.985 90.0161 202.415 89.8267 201.926C89.6373 201.434 89.357 201.051 88.9858 200.778C88.6146 200.502 88.1563 200.364 87.6108 200.364C87.0426 200.364 86.5691 200.509 86.1903 200.801C85.8153 201.089 85.5331 201.481 85.3438 201.977C85.1581 202.47 85.0653 203.023 85.0653 203.636C85.0653 204.258 85.16 204.822 85.3494 205.33C85.5426 205.833 85.8267 206.235 86.2017 206.534C86.5805 206.83 87.0502 206.977 87.6108 206.977ZM96.6392 208.205C96.0862 208.205 95.5843 208.1 95.1335 207.892C94.6828 207.68 94.3248 207.375 94.0597 206.977C93.7945 206.576 93.6619 206.091 93.6619 205.523C93.6619 205.023 93.7604 204.617 93.9574 204.307C94.1544 203.992 94.4176 203.746 94.7472 203.568C95.0767 203.39 95.4403 203.258 95.8381 203.17C96.2396 203.08 96.643 203.008 97.0483 202.955C97.5786 202.886 98.0085 202.835 98.3381 202.801C98.6714 202.763 98.9138 202.701 99.0653 202.614C99.2206 202.527 99.2983 202.375 99.2983 202.159V202.114C99.2983 201.553 99.1449 201.117 98.8381 200.807C98.535 200.496 98.0748 200.341 97.4574 200.341C96.8172 200.341 96.3153 200.481 95.9517 200.761C95.5881 201.042 95.3324 201.341 95.1847 201.659L93.9119 201.205C94.1392 200.674 94.4422 200.261 94.821 199.966C95.2036 199.667 95.6203 199.458 96.071 199.341C96.5256 199.22 96.9725 199.159 97.4119 199.159C97.6922 199.159 98.0142 199.193 98.3778 199.261C98.7453 199.326 99.0994 199.46 99.4403 199.665C99.785 199.869 100.071 200.178 100.298 200.591C100.526 201.004 100.639 201.557 100.639 202.25V208H99.2983V206.818H99.2301C99.1392 207.008 98.9877 207.21 98.7756 207.426C98.5634 207.642 98.2813 207.826 97.929 207.977C97.5767 208.129 97.1468 208.205 96.6392 208.205ZM96.8438 207C97.3741 207 97.821 206.896 98.1847 206.688C98.5521 206.479 98.8286 206.21 99.0142 205.881C99.2036 205.551 99.2983 205.205 99.2983 204.841V203.614C99.2415 203.682 99.1165 203.744 98.9233 203.801C98.7339 203.854 98.5142 203.902 98.2642 203.943C98.018 203.981 97.7775 204.015 97.5426 204.045C97.3116 204.072 97.1241 204.095 96.9801 204.114C96.6316 204.159 96.3059 204.233 96.0028 204.335C95.7036 204.434 95.4612 204.583 95.2756 204.784C95.0938 204.981 95.0028 205.25 95.0028 205.591C95.0028 206.057 95.1752 206.409 95.5199 206.648C95.8684 206.883 96.3097 207 96.8438 207ZM106.882 199.273V200.409H102.359V199.273H106.882ZM103.678 197.182H105.018V205.5C105.018 205.879 105.073 206.163 105.183 206.352C105.297 206.538 105.441 206.663 105.615 206.727C105.793 206.788 105.981 206.818 106.178 206.818C106.325 206.818 106.446 206.811 106.541 206.795C106.636 206.777 106.712 206.761 106.768 206.75L107.041 207.955C106.95 207.989 106.823 208.023 106.661 208.057C106.498 208.095 106.291 208.114 106.041 208.114C105.662 208.114 105.291 208.032 104.928 207.869C104.568 207.706 104.268 207.458 104.03 207.125C103.795 206.792 103.678 206.371 103.678 205.864V197.182ZM111.467 208.205C110.914 208.205 110.412 208.1 109.962 207.892C109.511 207.68 109.153 207.375 108.888 206.977C108.623 206.576 108.49 206.091 108.49 205.523C108.49 205.023 108.589 204.617 108.786 204.307C108.982 203.992 109.246 203.746 109.575 203.568C109.905 203.39 110.268 203.258 110.666 203.17C111.068 203.08 111.471 203.008 111.876 202.955C112.407 202.886 112.837 202.835 113.166 202.801C113.5 202.763 113.742 202.701 113.893 202.614C114.049 202.527 114.126 202.375 114.126 202.159V202.114C114.126 201.553 113.973 201.117 113.666 200.807C113.363 200.496 112.903 200.341 112.286 200.341C111.645 200.341 111.143 200.481 110.78 200.761C110.416 201.042 110.161 201.341 110.013 201.659L108.74 201.205C108.967 200.674 109.27 200.261 109.649 199.966C110.032 199.667 110.448 199.458 110.899 199.341C111.354 199.22 111.801 199.159 112.24 199.159C112.52 199.159 112.842 199.193 113.206 199.261C113.573 199.326 113.928 199.46 114.268 199.665C114.613 199.869 114.899 200.178 115.126 200.591C115.354 201.004 115.467 201.557 115.467 202.25V208H114.126V206.818H114.058C113.967 207.008 113.816 207.21 113.604 207.426C113.392 207.642 113.109 207.826 112.757 207.977C112.405 208.129 111.975 208.205 111.467 208.205ZM111.672 207C112.202 207 112.649 206.896 113.013 206.688C113.38 206.479 113.657 206.21 113.842 205.881C114.032 205.551 114.126 205.205 114.126 204.841V203.614C114.07 203.682 113.945 203.744 113.751 203.801C113.562 203.854 113.342 203.902 113.092 203.943C112.846 203.981 112.606 204.015 112.371 204.045C112.14 204.072 111.952 204.095 111.808 204.114C111.46 204.159 111.134 204.233 110.831 204.335C110.532 204.434 110.289 204.583 110.104 204.784C109.922 204.981 109.831 205.25 109.831 205.591C109.831 206.057 110.003 206.409 110.348 206.648C110.696 206.883 111.138 207 111.672 207Z" fill="#CF5B23"/>
<g filter="url(#filter2_i_244_4799)">
<rect x="151" width="139" height="139" rx="4" fill="white"/>
</g>
<rect x="151.5" y="0.5" width="138" height="138" rx="3.5" stroke="#FFC180"/>
<rect width="1.12097" height="93.0403" transform="matrix(-1 0 0 1 198.081 45.9597)" fill="#FFDEBA" style="mix-blend-mode:multiply"/>
<rect width="1.12097" height="139" transform="matrix(-1 0 0 1 244.041 0)" fill="#FFDEBA" style="mix-blend-mode:multiply"/>
<rect width="1.12097" height="139" transform="matrix(4.57599e-08 1 1 -4.17546e-08 151 91.9194)" fill="#FFDEBA" style="mix-blend-mode:multiply"/>
<rect width="1.12097" height="139" transform="matrix(4.57599e-08 1 1 -4.17546e-08 151 45.9597)" fill="#FFDEBA" style="mix-blend-mode:multiply"/>
<rect x="203.686" y="52.6855" width="33.629" height="33.629" rx="2" fill="#FFDEBA"/>
<rect x="249.645" y="6.72583" width="33.629" height="33.629" rx="2" fill="#FFDEBA"/>
<path d="M326.057 63.9259V72.6532H324.651L320.539 66.7086H320.466V72.6532H318.885V63.9259H320.3L324.408 69.8748H324.485V63.9259H326.057ZM329.74 72.6532H328.053L331.125 63.9259H333.077L336.154 72.6532H334.466L332.135 65.7157H332.067L329.74 72.6532ZM329.796 69.2313H334.398V70.5012H329.796V69.2313ZM338.143 63.9259H340.078L342.669 70.2498H342.771L345.362 63.9259H347.297V72.6532H345.78V66.6575H345.699L343.287 72.6276H342.153L339.741 66.6447H339.66V72.6532H338.143V63.9259ZM349.858 72.6532V63.9259H355.534V65.2512H351.439V67.6205H355.24V68.9458H351.439V71.3279H355.569V72.6532H349.858Z" fill="#CF5B23"/>
<path d="M326.355 19.7899H324.762C324.716 19.5285 324.632 19.297 324.51 19.0953C324.388 18.8908 324.236 18.7175 324.054 18.5754C323.872 18.4334 323.665 18.3268 323.432 18.2558C323.202 18.1819 322.953 18.145 322.686 18.145C322.212 18.145 321.791 18.2643 321.425 18.503C321.059 18.7388 320.772 19.0854 320.564 19.5427C320.357 19.9973 320.253 20.5527 320.253 21.2089C320.253 21.8765 320.357 22.439 320.564 22.8964C320.774 23.351 321.061 23.6947 321.425 23.9277C321.791 24.1578 322.21 24.2729 322.682 24.2729C322.943 24.2729 323.188 24.2388 323.415 24.1706C323.645 24.0996 323.851 23.9959 324.033 23.8595C324.218 23.7231 324.372 23.5555 324.497 23.3567C324.625 23.1578 324.713 22.9305 324.762 22.6748L326.355 22.6834C326.296 23.0981 326.166 23.4873 325.968 23.851C325.772 24.2146 325.514 24.5356 325.196 24.814C324.878 25.0896 324.506 25.3055 324.08 25.4618C323.654 25.6152 323.181 25.6919 322.661 25.6919C321.894 25.6919 321.209 25.5143 320.607 25.1592C320.005 24.8041 319.53 24.2913 319.184 23.6209C318.837 22.9504 318.664 22.1464 318.664 21.2089C318.664 20.2686 318.838 19.4646 319.188 18.797C319.537 18.1265 320.013 17.6138 320.615 17.2586C321.218 16.9035 321.899 16.726 322.661 16.726C323.147 16.726 323.598 16.7942 324.016 16.9305C324.434 17.0669 324.806 17.2672 325.132 17.5314C325.459 17.7927 325.728 18.1138 325.938 18.4944C326.151 18.8723 326.29 19.3041 326.355 19.7899ZM336.441 21.2089C336.441 22.1493 336.265 22.9547 335.913 23.6251C335.564 24.2927 335.086 24.8041 334.481 25.1592C333.879 25.5143 333.196 25.6919 332.432 25.6919C331.667 25.6919 330.983 25.5143 330.378 25.1592C329.775 24.8013 329.298 24.2885 328.946 23.6209C328.596 22.9504 328.422 22.1464 328.422 21.2089C328.422 20.2686 328.596 19.4646 328.946 18.797C329.298 18.1265 329.775 17.6138 330.378 17.2586C330.983 16.9035 331.667 16.726 332.432 16.726C333.196 16.726 333.879 16.9035 334.481 17.2586C335.086 17.6138 335.564 18.1265 335.913 18.797C336.265 19.4646 336.441 20.2686 336.441 21.2089ZM334.852 21.2089C334.852 20.547 334.748 19.9888 334.541 19.5342C334.336 19.0768 334.052 18.7317 333.689 18.4987C333.325 18.2629 332.906 18.145 332.432 18.145C331.957 18.145 331.538 18.2629 331.174 18.4987C330.811 18.7317 330.525 19.0768 330.318 19.5342C330.113 19.9888 330.011 20.547 330.011 21.2089C330.011 21.8709 330.113 22.4305 330.318 22.8879C330.525 23.3425 330.811 23.6876 331.174 23.9234C331.538 24.1564 331.957 24.2729 332.432 24.2729C332.906 24.2729 333.325 24.1564 333.689 23.9234C334.052 23.6876 334.336 23.3425 334.541 22.8879C334.748 22.4305 334.852 21.8709 334.852 21.2089ZM338.776 16.8453H340.711L343.302 23.1692H343.404L345.995 16.8453H347.93V25.5726H346.413V19.5768H346.332L343.92 25.547H342.786L340.374 19.564H340.293V25.5726H338.776V16.8453ZM350.491 25.5726V16.8453H353.764C354.434 16.8453 354.997 16.9703 355.451 17.2203C355.909 17.4703 356.254 17.814 356.487 18.2515C356.723 18.6862 356.841 19.1805 356.841 19.7345C356.841 20.2942 356.723 20.7913 356.487 21.226C356.251 21.6606 355.903 22.003 355.443 22.253C354.983 22.5001 354.416 22.6237 353.743 22.6237H351.574V21.324H353.53C353.922 21.324 354.243 21.2558 354.493 21.1194C354.743 20.9831 354.927 20.7956 355.047 20.5569C355.169 20.3183 355.23 20.0442 355.23 19.7345C355.23 19.4248 355.169 19.1521 355.047 18.9163C354.927 18.6805 354.741 18.4973 354.488 18.3666C354.238 18.2331 353.916 18.1663 353.521 18.1663H352.072V25.5726H350.491ZM359.202 25.5726H357.514L360.587 16.8453H362.539L365.615 25.5726H363.928L361.597 18.6351H361.529L359.202 25.5726ZM359.257 22.1507H363.86V23.4206H359.257V22.1507ZM374.777 16.8453V25.5726H373.37L369.258 19.628H369.186V25.5726H367.605V16.8453H369.02L373.127 22.7942H373.204V16.8453H374.777ZM376.743 16.8453H378.528L380.663 20.7061H380.748L382.883 16.8453H384.669L381.494 22.3169V25.5726H379.917V22.3169L376.743 16.8453Z" fill="#CF5B23"/>
<rect x="237.314" y="67.2581" width="71.7419" height="5.60484" fill="white"/>
<rect x="237.314" y="69.5" width="71.7419" height="1.12097" fill="#FB9B56"/>
<rect x="283.274" y="20.1774" width="28.0242" height="5.60484" fill="white"/>
<rect x="283.274" y="22.4194" width="28.0242" height="1.12097" fill="#FB9B56"/>
<path d="M167.171 17.0496V15.7243H174.134V17.0496H171.436V24.4516H169.868V17.0496H167.171ZM176.382 24.4516H174.695L177.767 15.7243H179.719L182.795 24.4516H181.108L178.777 17.5141H178.709L176.382 24.4516ZM176.437 21.0297H181.04V22.2996H176.437V21.0297ZM184.785 24.4516V15.7243H188.126C188.757 15.7243 189.281 15.8238 189.698 16.0226C190.119 16.2186 190.433 16.4871 190.64 16.828C190.85 17.1689 190.955 17.5553 190.955 17.9871C190.955 18.3422 190.887 18.6462 190.751 18.899C190.614 19.149 190.431 19.3522 190.201 19.5084C189.971 19.6647 189.714 19.7769 189.43 19.8451V19.9303C189.739 19.9473 190.036 20.0425 190.32 20.2158C190.607 20.3863 190.842 20.6277 191.024 20.9402C191.205 21.2527 191.296 21.6306 191.296 22.0738C191.296 22.5255 191.187 22.9317 190.968 23.2925C190.749 23.6505 190.42 23.9331 189.98 24.1405C189.539 24.3479 188.985 24.4516 188.318 24.4516H184.785ZM186.366 23.1306H188.066C188.64 23.1306 189.053 23.0212 189.306 22.8025C189.562 22.5809 189.69 22.2968 189.69 21.9502C189.69 21.6917 189.626 21.4587 189.498 21.2513C189.37 21.0411 189.188 20.8763 188.953 20.757C188.717 20.6348 188.436 20.5738 188.109 20.5738H186.366V23.1306ZM186.366 19.436H187.93C188.203 19.436 188.448 19.3863 188.667 19.2868C188.886 19.1846 189.058 19.0411 189.183 18.8564C189.311 18.6689 189.374 18.4473 189.374 18.1917C189.374 17.8536 189.255 17.5752 189.016 17.3564C188.781 17.1377 188.43 17.0283 187.964 17.0283H186.366V19.436ZM193.512 24.4516V15.7243H195.093V23.1263H198.936V24.4516H193.512ZM201.149 24.4516V15.7243H206.825V17.0496H202.729V19.4189H206.531V20.7442H202.729V23.1263H206.859V24.4516H201.149Z" fill="#CF5B23"/>
<path d="M229 314.043L306.528 238H441.5L374.192 326.257" stroke="#FFC180" stroke-dasharray="8 8"/>
<defs>
<filter id="filter0_i_244_4799" x="306" y="97" width="139" height="141" filterUnits="userSpaceOnUse" color-interpolation-filters="sRGB">
<feFlood flood-opacity="0" result="BackgroundImageFix"/>
<feBlend mode="normal" in="SourceGraphic" in2="BackgroundImageFix" result="shape"/>
<feColorMatrix in="SourceAlpha" type="matrix" values="0 0 0 0 0 0 0 0 0 0 0 0 0 0 0 0 0 0 127 0" result="hardAlpha"/>
<feOffset dy="-2"/>
<feGaussianBlur stdDeviation="3"/>
<feComposite in2="hardAlpha" operator="arithmetic" k2="-1" k3="1"/>
<feColorMatrix type="matrix" values="0 0 0 0 0.904167 0 0 0 0 0.636495 0 0 0 0 0.350365 0 0 0 0.5 0"/>
<feBlend mode="normal" in2="shape" result="effect1_innerShadow_244_4799"/>
</filter>
<filter id="filter1_i_244_4799" x="0" y="-2" width="139" height="141" filterUnits="userSpaceOnUse" color-interpolation-filters="sRGB">
<feFlood flood-opacity="0" result="BackgroundImageFix"/>
<feBlend mode="normal" in="SourceGraphic" in2="BackgroundImageFix" result="shape"/>
<feColorMatrix in="SourceAlpha" type="matrix" values="0 0 0 0 0 0 0 0 0 0 0 0 0 0 0 0 0 0 127 0" result="hardAlpha"/>
<feOffset dy="-2"/>
<feGaussianBlur stdDeviation="3"/>
<feComposite in2="hardAlpha" operator="arithmetic" k2="-1" k3="1"/>
<feColorMatrix type="matrix" values="0 0 0 0 0.904167 0 0 0 0 0.636495 0 0 0 0 0.350365 0 0 0 0.5 0"/>
<feBlend mode="normal" in2="shape" result="effect1_innerShadow_244_4799"/>
</filter>
<filter id="filter2_i_244_4799" x="151" y="-2" width="139" height="141" filterUnits="userSpaceOnUse" color-interpolation-filters="sRGB">
<feFlood flood-opacity="0" result="BackgroundImageFix"/>
<feBlend mode="normal" in="SourceGraphic" in2="BackgroundImageFix" result="shape"/>
<feColorMatrix in="SourceAlpha" type="matrix" values="0 0 0 0 0 0 0 0 0 0 0 0 0 0 0 0 0 0 127 0" result="hardAlpha"/>
<feOffset dy="-2"/>
<feGaussianBlur stdDeviation="3"/>
<feComposite in2="hardAlpha" operator="arithmetic" k2="-1" k3="1"/>
<feColorMatrix type="matrix" values="0 0 0 0 0.904167 0 0 0 0 0.636495 0 0 0 0 0.350365 0 0 0 0.5 0"/>
<feBlend mode="normal" in2="shape" result="effect1_innerShadow_244_4799"/>
</filter>
</defs>
</svg>
