<svg width="24" height="24" viewBox="0 0 24 24" fill="none" xmlns="http://www.w3.org/2000/svg">
<path fill-rule="evenodd" clip-rule="evenodd" d="M18 4.875H6C5.17155 4.875 4.5 5.54655 4.5 6.375V17.625C4.5 18.4535 5.17155 19.125 6 19.125H18C18.8285 19.125 19.5 18.4535 19.5 17.625V6.375C19.5 5.54655 18.8285 4.875 18 4.875ZM6 10.125V7.875H9V10.125H6ZM10.5 7.875V10.125H13.5V7.875H10.5ZM18 7.875V10.125H15V7.875H18ZM6 11.625V13.875H9V11.625H6ZM9 17.625H6V15.375H9V17.625ZM10.5 11.625V13.875H13.5V11.625H10.5ZM13.5 17.625H10.5V15.375H13.5V17.625ZM18 17.625V15.375H15V17.625H18ZM15 11.625H18V13.875H15V11.625Z" fill="black"/>
</svg>
