<svg width="20" height="20" viewBox="0 0 20 20" fill="none" xmlns="http://www.w3.org/2000/svg">
<path opacity="0.898345" d="M10.8546 10.9619C10.8546 11.449 10.4719 11.7969 9.98481 11.7969C9.53254 11.7969 9.14985 11.449 9.14985 10.9619V8.17871C9.14985 7.72644 9.53254 7.34375 9.98481 7.34375C10.4719 7.34375 10.8546 7.72644 10.8546 8.17871V10.9619ZM13.5682 1.77734C14.6119 1.77734 15.5512 2.47314 15.9339 3.44727L19.726 14.0234C20.3175 15.6586 19.0998 17.3633 17.3603 17.3633H2.64411C0.904611 17.3633 -0.31304 15.6586 0.27839 14.0234L4.07051 3.44727C4.4532 2.47314 5.39253 1.77734 6.43623 1.77734H13.5682ZM1.84394 14.5801C1.66999 15.1367 2.05268 15.6934 2.64411 15.6934H9.14985V14.8584C9.14985 14.4061 9.53254 14.0234 9.98481 14.0234C10.4719 14.0234 10.8546 14.4061 10.8546 14.8584V15.6934H17.3603C17.9517 15.6934 18.3344 15.1367 18.1605 14.5801L14.3336 4.00391C14.2292 3.6908 13.9161 3.44727 13.5682 3.44727H10.8546V4.28223C10.8546 4.76929 10.4719 5.11719 9.98481 5.11719C9.53254 5.11719 9.14985 4.76929 9.14985 4.28223V3.44727H6.43623C6.08833 3.44727 5.77522 3.6908 5.67085 4.00391L1.84394 14.5801Z" fill="url(#paint0_linear_249_534)"/>
<defs>
<linearGradient id="paint0_linear_249_534" x1="0.127197" y1="1.77734" x2="0.127197" y2="17.3633" gradientUnits="userSpaceOnUse">
<stop stop-color="#2965FF"/>
<stop offset="1" stop-color="#00A3FF"/>
</linearGradient>
</defs>
</svg>
