<svg width="20" height="20" viewBox="0 0 20 20" fill="none" xmlns="http://www.w3.org/2000/svg">
<g clip-path="url(#clip0_249_554)">
<path opacity="0.898345" d="M10 0C4.45312 0 0 4.49219 0 10C0 15.5469 4.45312 20 10 20C15.5078 20 20 15.5469 20 10C20 4.49219 15.5078 0 10 0ZM10 18.125C5.50781 18.125 1.875 14.4922 1.875 10C1.875 5.54688 5.50781 1.875 10 1.875C14.4531 1.875 18.125 5.54688 18.125 10C18.125 14.4922 14.4531 18.125 10 18.125ZM11.5625 13.125H10.9375V9.6875C10.9375 9.17969 10.5078 8.75 10 8.75H8.75C8.20312 8.75 7.8125 9.17969 7.8125 9.6875C7.8125 10.2344 8.20312 10.625 8.75 10.625H9.0625V13.125H8.4375C7.89062 13.125 7.5 13.5547 7.5 14.0625C7.5 14.6094 7.89062 15 8.4375 15H11.5625C12.0703 15 12.5 14.6094 12.5 14.0625C12.5 13.5547 12.0703 13.125 11.5625 13.125ZM10 7.5C10.6641 7.5 11.25 6.95312 11.25 6.25C11.25 5.58594 10.6641 5 10 5C9.29688 5 8.75 5.58594 8.75 6.25C8.75 6.95312 9.29688 7.5 10 7.5Z" fill="url(#paint0_linear_249_554)"/>
</g>
<defs>
<linearGradient id="paint0_linear_249_554" x1="0" y1="-0.5" x2="0" y2="19.5" gradientUnits="userSpaceOnUse">
<stop stop-color="#2965FF"/>
<stop offset="1" stop-color="#00A3FF"/>
</linearGradient>
<clipPath id="clip0_249_554">
<rect width="20" height="20" fill="white"/>
</clipPath>
</defs>
</svg>
