<svg width="20" height="20" viewBox="0 0 20 20" fill="none" xmlns="http://www.w3.org/2000/svg">
<path opacity="0.898345" d="M0 5C0 3.63281 1.09375 2.5 2.5 2.5H17.5C18.8672 2.5 20 3.63281 20 5V15C20 16.4062 18.8672 17.5 17.5 17.5H2.5C1.09375 17.5 0 16.4062 0 15V5ZM1.875 5V5.89844L8.59375 11.4062C9.41406 12.0703 10.5469 12.0703 11.3672 11.4062L18.125 5.89844V5C18.125 4.6875 17.8125 4.375 17.5 4.375H2.5C2.14844 4.375 1.875 4.6875 1.875 5ZM1.875 8.32031V15C1.875 15.3516 2.14844 15.625 2.5 15.625H17.5C17.8125 15.625 18.125 15.3516 18.125 15V8.32031L12.5781 12.8516C11.0547 14.1016 8.90625 14.1016 7.38281 12.8516L1.875 8.32031Z" fill="url(#paint0_linear_249_542)"/>
<defs>
<linearGradient id="paint0_linear_249_542" x1="0" y1="2.5" x2="0" y2="17.5" gradientUnits="userSpaceOnUse">
<stop stop-color="#2965FF"/>
<stop offset="1" stop-color="#00A3FF"/>
</linearGradient>
</defs>
</svg>
