<svg width="20" height="20" viewBox="0 0 20 20" fill="none" xmlns="http://www.w3.org/2000/svg">
<g clip-path="url(#clip0_249_540)">
<path opacity="0.898345" d="M9.64852 13.2422C9.92196 12.9297 10.0391 12.5 9.96102 12.1094C9.72665 11.2891 9.72665 11.4062 9.96102 10.625C10.0391 10.1953 9.92196 9.76562 9.64852 9.49219C9.06258 8.90625 9.10165 8.98438 8.90633 8.16406C8.78915 7.77344 8.47665 7.46094 8.08602 7.34375C7.30477 7.14844 7.42196 7.1875 6.83602 6.60156C6.52352 6.32812 6.09383 6.21094 5.70321 6.28906C4.92196 6.52344 5.03915 6.52344 4.2579 6.28906C3.86727 6.21094 3.43758 6.32812 3.12508 6.60156C2.53915 7.1875 2.65633 7.14844 1.87508 7.34375C1.48446 7.46094 1.17196 7.77344 1.05477 8.16406C0.859458 8.98438 0.898521 8.90625 0.312583 9.49219C0.0391458 9.76562 -0.0780416 10.1953 0.0391458 10.625C0.234458 11.4062 0.234458 11.2891 0.0391458 12.1094C-0.0780416 12.5 0.0391458 12.9297 0.312583 13.2422C0.898521 13.8281 0.859458 13.7109 1.05477 14.5312C1.17196 14.9219 1.48446 15.2344 1.87508 15.3516C2.42196 15.5078 2.30477 15.4688 2.50008 15.5469V20L5.00008 18.75L7.50008 20V15.5469C7.65633 15.4688 7.53915 15.5078 8.08602 15.3516C8.47665 15.2344 8.75008 14.9219 8.90633 14.5312C9.10165 13.7109 9.06258 13.8281 9.64852 13.2422ZM5.00008 13.75C3.59383 13.75 2.50008 12.6562 2.50008 11.25C2.50008 9.88281 3.59383 8.75 5.00008 8.75C6.36727 8.75 7.46102 9.88281 7.46102 11.25C7.46102 12.6562 6.36727 13.75 5.00008 13.75ZM19.2579 3.67188L16.3282 0.742188C15.8595 0.273438 15.2345 0 14.5704 0H7.46102C6.05477 0 4.96102 1.13281 4.96102 2.5V5.19531C4.96102 5.19531 5.8204 4.80469 6.83602 5.19531L6.87508 2.53906C6.87508 2.1875 7.14852 1.91406 7.50008 1.91406H13.7501V5C13.7501 5.70312 14.297 6.25 15.0001 6.25H18.086V17.5C18.086 17.8516 17.7735 18.125 17.461 18.125H8.75008L8.71102 20H17.461C18.8282 20 19.961 18.9062 19.961 17.5V5.42969C20.0001 4.76562 19.7266 4.14062 19.2579 3.67188Z" fill="url(#paint0_linear_249_540)"/>
</g>
<defs>
<linearGradient id="paint0_linear_249_540" x1="-0.00610352" y1="0" x2="-0.00610352" y2="20" gradientUnits="userSpaceOnUse">
<stop stop-color="#2965FF"/>
<stop offset="1" stop-color="#00A3FF"/>
</linearGradient>
<clipPath id="clip0_249_540">
<rect width="20" height="20" fill="white"/>
</clipPath>
</defs>
</svg>
