<svg xmlns="http://www.w3.org/2000/svg" viewBox="0 0 640 640"><!--! Font Awesome Pro 7.2.0 by @fontawesome - https://fontawesome.com License - https://fontawesome.com/license (Commercial License) Copyright 2026 Fonticons, Inc. --><path fill="currentColor" d="M235.2 163.6C239.3 125.1 271.8 96 310.5 96C355.5 96 390.6 135 385.8 179.8L372.8 300.4C368.7 338.9 336.2 368 297.5 368C252.5 368 217.4 329 222.2 284.2L235.2 163.6zM310.5 144C296.3 144 284.5 154.7 283 168.8L270 289.3C268.2 305.7 281.1 320 297.5 320C311.7 320 323.5 309.3 325 295.2L338 174.7C339.8 158.3 326.9 144 310.5 144zM182.5 100.6C189.4 105.7 192.9 114 191.9 122.6L159.9 378.6C158.3 391.8 146.3 401.3 133.1 399.9C119.9 398.5 110.6 386.6 112.3 373.5L139 159L105.5 173.9C93.3 179.3 79.2 173.9 74 161.8C68.8 149.7 74.4 135.5 86.6 130.1L158.6 98.1C166.5 94.6 175.6 95.5 182.5 100.6zM495.7 96C540.1 96 574.9 133.9 571.3 178.1L563.9 266.5C560.6 305.8 527.8 336 488.3 336C443.9 336 409.1 298.1 412.7 253.9L420.1 165.5C423.4 126.2 456.3 96 495.7 96zM468 169.5L460.6 257.9C459.2 274.1 472 288 488.3 288C502.8 288 514.8 276.9 516 262.5L523.4 174.1C524.8 157.9 512 144 495.7 144C481.2 144 469.2 155.1 468 169.5zM575.7 387.9C578 401 569.2 413.4 556.1 415.6L92.1 495.6C79 497.9 66.6 489.1 64.4 476.1C62.2 463.1 70.9 450.6 84 448.4L548 368.4C561.1 366.1 573.5 374.9 575.7 388zM523.9 503.7L283.9 543.7C270.8 545.9 258.5 537 256.3 524C254.1 511 263 498.6 276 496.4L516 456.4C529.1 454.2 541.4 463.1 543.6 476.1C545.8 489.1 536.9 501.5 523.9 503.7z"/></svg>