<svg xmlns="http://www.w3.org/2000/svg" viewBox="0 0 640 640"><!--! Font Awesome Pro 7.2.0 by @fontawesome - https://fontawesome.com License - https://fontawesome.com/license (Commercial License) Copyright 2026 Fonticons, Inc. --><path fill="currentColor" d="M553.5 121C562.9 111.6 562.9 96.4 553.5 87.1C544.1 77.8 528.9 77.7 519.6 87.1L384.6 222.1L384.6 136C384.6 122.7 373.9 112 360.6 112C347.3 112 336.6 122.7 336.6 136L336.6 280C336.6 293.3 347.3 304 360.6 304L504.6 304C517.9 304 528.6 293.3 528.6 280C528.6 266.7 517.9 256 504.6 256L418.5 256L553.5 121zM87.5 519C78.1 528.4 78.1 543.6 87.5 552.9C96.9 562.2 112.1 562.3 121.4 552.9L256.4 417.9L256.4 504C256.4 517.3 267.1 528 280.4 528C293.7 528 304.4 517.3 304.4 504L304.4 360C304.4 346.7 293.7 336 280.4 336L136.4 336C123.1 336 112.4 346.7 112.4 360C112.4 373.3 123.1 384 136.4 384L222.5 384L87.5 519z"/></svg>