<svg xmlns="http://www.w3.org/2000/svg" viewBox="0 0 640 640"><!--! Font Awesome Pro 7.2.0 by @fontawesome - https://fontawesome.com License - https://fontawesome.com/license (Commercial License) Copyright 2026 Fonticons, Inc. --><path fill="currentColor" d="M88 64C101.3 64 112 74.7 112 88L112 166.1L139.1 139C239.1 39 401.2 39 501.1 139C601 239 601.1 401.1 501.1 501C401.1 600.9 239 601 139.1 501C124.2 486.1 111.5 469.8 101 452.5C94.1 441.2 97.8 426.4 109.1 419.5C120.4 412.6 135.2 416.3 142.1 427.6C150.6 441.6 160.9 454.9 173.1 467C254.3 548.2 386 548.2 467.3 467C548.6 385.8 548.5 254.1 467.3 172.8C386.1 91.5 254.4 91.6 173.1 172.8L146 199.9L224.2 199.9C237.5 199.9 248.2 210.6 248.2 223.9C248.2 237.2 237.5 247.9 224.2 247.9L88 248C74.7 248 64 237.3 64 224L64 88C64 74.7 74.7 64 88 64z"/></svg>