<svg xmlns="http://www.w3.org/2000/svg" viewBox="0 0 640 640"><!--! Font Awesome Pro 7.2.0 by @fontawesome - https://fontawesome.com License - https://fontawesome.com/license (Commercial License) Copyright 2026 Fonticons, Inc. --><path fill="currentColor" d="M352 88C352 101.3 362.7 112 376 112L494.1 112L263.1 343C253.7 352.4 253.7 367.6 263.1 376.9C272.5 386.2 287.7 386.3 297 376.9L528 145.9L528 264C528 277.3 538.7 288 552 288C565.3 288 576 277.3 576 264L576 88C576 74.7 565.3 64 552 64L376 64C362.7 64 352 74.7 352 88zM144 160C99.8 160 64 195.8 64 240L64 496C64 540.2 99.8 576 144 576L400 576C444.2 576 480 540.2 480 496L480 408C480 394.7 469.3 384 456 384C442.7 384 432 394.7 432 408L432 496C432 513.7 417.7 528 400 528L144 528C126.3 528 112 513.7 112 496L112 240C112 222.3 126.3 208 144 208L232 208C245.3 208 256 197.3 256 184C256 170.7 245.3 160 232 160L144 160z"/></svg>