<svg xmlns="http://www.w3.org/2000/svg" viewBox="0 0 640 640"><!--! Font Awesome Pro 7.2.0 by @fontawesome - https://fontawesome.com License - https://fontawesome.com/license (Commercial License) Copyright 2026 Fonticons, Inc. --><path fill="currentColor" d="M281 433L177 537C167.6 546.4 152.4 546.4 143.1 537L39 433C29.6 423.6 29.6 408.4 39 399.1C48.4 389.8 63.6 389.7 72.9 399.1L135.9 462.1L135.9 120C135.9 106.7 146.6 96 159.9 96C173.2 96 183.9 106.7 183.9 120L183.9 462.1L246.9 399.1C256.3 389.7 271.5 389.7 280.8 399.1C290.1 408.5 290.2 423.7 280.8 433zM344 544C330.7 544 320 533.3 320 520C320 506.7 330.7 496 344 496L392 496C405.3 496 416 506.7 416 520C416 533.3 405.3 544 392 544L344 544zM344 416C330.7 416 320 405.3 320 392C320 378.7 330.7 368 344 368L456 368C469.3 368 480 378.7 480 392C480 405.3 469.3 416 456 416L344 416zM344 288C330.7 288 320 277.3 320 264C320 250.7 330.7 240 344 240L520 240C533.3 240 544 250.7 544 264C544 277.3 533.3 288 520 288L344 288zM344 160C330.7 160 320 149.3 320 136C320 122.7 330.7 112 344 112L584 112C597.3 112 608 122.7 608 136C608 149.3 597.3 160 584 160L344 160z"/></svg>