<svg xmlns="http://www.w3.org/2000/svg" viewBox="0 0 640 640"><!--! Font Awesome Pro 7.2.0 by @fontawesome - https://fontawesome.com License - https://fontawesome.com/license (Commercial License) Copyright 2026 Fonticons, Inc. --><path fill="currentColor" d="M576 152C576 138.7 565.3 128 552 128C538.7 128 528 138.7 528 152L528 488C528 501.3 538.7 512 552 512C565.3 512 576 501.3 576 488L576 152zM441 337C450.4 327.6 450.4 312.4 441 303.1L305 167C295.6 157.6 280.4 157.6 271.1 167C261.8 176.4 261.7 191.6 271.1 200.9L366.1 295.9L88 295.9C74.7 295.9 64 306.6 64 319.9C64 333.2 74.7 343.9 88 343.9L366.1 343.9L271.1 438.9C261.7 448.3 261.7 463.5 271.1 472.8C280.5 482.1 295.7 482.2 305 472.8L441 337z"/></svg>