<svg xmlns="http://www.w3.org/2000/svg" viewBox="0 0 640 640"><!--! Font Awesome Pro 7.2.0 by @fontawesome - https://fontawesome.com License - https://fontawesome.com/license (Commercial License) Copyright 2026 Fonticons, Inc. --><path fill="currentColor" d="M359 247C349.6 256.4 349.6 271.6 359 280.9C368.4 290.2 383.6 290.3 392.9 280.9L527.9 145.9L527.9 232C527.9 245.3 538.6 256 551.9 256C565.2 256 575.9 245.3 575.9 232L575.9 88C575.9 74.7 565.2 64 551.9 64L408 64C394.7 64 384 74.7 384 88C384 101.3 394.7 112 408 112L494.1 112L359.1 247zM281 393C290.4 383.6 290.4 368.4 281 359.1C271.6 349.8 256.4 349.7 247.1 359.1L112 494.1L112 408C112 394.7 101.3 384 88 384C74.7 384 64 394.7 64 408L64 552C64 565.3 74.7 576 88 576L232 576C245.3 576 256 565.3 256 552C256 538.7 245.3 528 232 528L145.9 528L280.9 393z"/></svg>