<svg xmlns="http://www.w3.org/2000/svg" viewBox="0 0 640 640"><!--! Font Awesome Pro 7.2.0 by @fontawesome - https://fontawesome.com License - https://fontawesome.com/license (Commercial License) Copyright 2026 Fonticons, Inc. --><path fill="currentColor" d="M431 105L494 168L87.9 168C74.6 168 63.9 178.7 63.9 192C63.9 205.3 74.6 216 87.9 216L494 216L431 279C421.6 288.4 421.6 303.6 431 312.9C440.4 322.2 455.6 322.3 464.9 312.9L569 209C578.4 199.6 578.4 184.4 569 175.1L465 71C455.6 61.6 440.4 61.6 431.1 71C421.8 80.4 421.7 95.6 431.1 104.9zM209 361C218.4 351.6 218.4 336.4 209 327.1C199.6 317.8 184.4 317.7 175.1 327.1L71 431C61.6 440.4 61.6 455.6 71 464.9L175 569C184.4 578.4 199.6 578.4 208.9 569C218.2 559.6 218.3 544.4 208.9 535.1L145.9 472.1L552 472.1C565.3 472.1 576 461.4 576 448.1C576 434.8 565.3 424.1 552 424.1L145.9 424.1L208.9 361.1z"/></svg>