<svg xmlns="http://www.w3.org/2000/svg" viewBox="0 0 640 640"><!--! Font Awesome Pro 7.2.0 by @fontawesome - https://fontawesome.com License - https://fontawesome.com/license (Commercial License) Copyright 2026 Fonticons, Inc. --><path fill="currentColor" d="M198.4 68.8C191.1 63.3 181.4 62.5 173.3 66.5C165.2 70.5 160 78.9 160 88L160 488C160 498.3 166.6 507.5 176.4 510.8C186.2 514.1 197 510.7 203.2 502.4L299.9 373.4L394.5 562.7C400.4 574.6 414.8 579.4 426.7 573.4C438.6 567.4 443.4 553.1 437.4 541.2L342.7 351.9L503.9 351.9C514.2 351.9 523.4 345.3 526.7 335.5C530 325.7 526.6 314.9 518.3 308.7L198.4 68.8zM208 416L208 136L432 304L304 304C296.4 304 289.3 307.6 284.8 313.6L208 416z"/></svg>