<svg xmlns="http://www.w3.org/2000/svg" viewBox="0 0 640 640"><!--! Font Awesome Pro 7.2.0 by @fontawesome - https://fontawesome.com License - https://fontawesome.com/license (Commercial License) Copyright 2026 Fonticons, Inc. --><path fill="currentColor" d="M320 64C333.3 64 344 74.7 344 88L344 278.3L508 183.2C519.5 176.5 534.2 180.5 540.8 191.9C547.4 203.3 543.5 218.1 532.1 224.7L367.8 320L532 415.2C543.5 421.8 547.4 436.5 540.7 448C534 459.5 519.4 463.4 507.9 456.7L344 361.7L344 552C344 565.3 333.3 576 320 576C306.7 576 296 565.3 296 552L296 361.7L132 456.8C120.5 463.5 105.8 459.5 99.2 448.1C92.6 436.7 96.5 421.9 108 415.2L272.2 320L108 224.8C96.5 218.1 92.6 203.4 99.2 192C105.8 180.6 120.5 176.6 132 183.3L296 278.3L296 88C296 74.7 306.7 64 320 64z"/></svg>