<svg xmlns="http://www.w3.org/2000/svg" viewBox="0 0 640 640"><!--! Font Awesome Pro 7.2.0 by @fontawesome - https://fontawesome.com License - https://fontawesome.com/license (Commercial License) Copyright 2026 Fonticons, Inc. --><path fill="currentColor" d="M320 112C205.1 112 112 205.1 112 320C112 434.9 205.1 528 320 528C333.3 528 344 538.7 344 552C344 565.3 333.3 576 320 576C178.6 576 64 461.4 64 320C64 178.6 178.6 64 320 64C461.4 64 576 178.6 576 320L576 348C576 398.8 534.8 440 484 440C452.9 440 425.3 424.5 408.7 400.8C386.8 424.9 355.1 440 320 440C253.7 440 200 386.3 200 320C200 253.7 253.7 200 320 200C348.8 200 375.2 210.1 395.8 227C400.1 220.4 407.5 216 416 216C429.3 216 440 226.7 440 240L440 348C440 372.3 459.7 392 484 392C508.3 392 528 372.3 528 348L528 320C528 205.1 434.9 112 320 112zM392 320C392 280.2 359.8 248 320 248C280.2 248 248 280.2 248 320C248 359.8 280.2 392 320 392C359.8 392 392 359.8 392 320z"/></svg>