<svg xmlns="http://www.w3.org/2000/svg" viewBox="0 0 640 640"><!--! Font Awesome Pro 7.2.0 by @fontawesome - https://fontawesome.com License - https://fontawesome.com/license (Commercial License) Copyright 2026 Fonticons, Inc. --><path fill="currentColor" d="M96 152C96 138.7 106.7 128 120 128L520 128C533.3 128 544 138.7 544 152C544 165.3 533.3 176 520 176L120 176C106.7 176 96 165.3 96 152zM96 320C96 306.7 106.7 296 120 296L520 296C533.3 296 544 306.7 544 320C544 333.3 533.3 344 520 344L120 344C106.7 344 96 333.3 96 320zM544 488C544 501.3 533.3 512 520 512L120 512C106.7 512 96 501.3 96 488C96 474.7 106.7 464 120 464L520 464C533.3 464 544 474.7 544 488z"/></svg>