<svg xmlns="http://www.w3.org/2000/svg" viewBox="0 0 640 640"><!--! Font Awesome Pro 7.2.0 by @fontawesome - https://fontawesome.com License - https://fontawesome.com/license (Commercial License) Copyright 2026 Fonticons, Inc. --><path fill="currentColor" d="M437.2 51.9C446.3 57.9 450.2 69.2 446.8 79.5L388 256L508.9 256C528.3 256 544 271.7 544 291.1C544 301.1 539.8 310.6 532.3 317.2L232 585.9C223.9 593.2 211.9 594.1 202.8 588.1C193.7 582.1 189.8 570.8 193.2 560.5L252 384L131.1 384C111.7 384 96 368.3 96 348.9C96 339 100.2 329.5 107.7 322.8L408 54.1C416.1 46.8 428.1 46 437.2 51.9zM164.9 336L285.3 336C293 336 300.3 339.7 304.8 346C309.3 352.3 310.5 360.3 308.1 367.6L267.3 489.9L475.1 304L354.7 304C347 304 339.7 300.3 335.2 294C330.7 287.7 329.5 279.7 331.9 272.4L372.7 150.1L164.9 336z"/></svg>