<svg xmlns="http://www.w3.org/2000/svg" viewBox="0 0 640 640"><!--! Font Awesome Pro 7.2.0 by @fontawesome - https://fontawesome.com License - https://fontawesome.com/license (Commercial License) Copyright 2026 Fonticons, Inc. --><path fill="currentColor" d="M184 96C135.4 96 96 135.4 96 184L96 229.5C96 240.1 91.8 250.3 84.3 257.8L39 303C29.6 312.4 29.6 327.6 39 336.9L84.3 382.2C91.8 389.7 96 399.9 96 410.5L96 456C96 504.6 135.4 544 184 544L232 544C245.3 544 256 533.3 256 520C256 506.7 245.3 496 232 496L184 496C161.9 496 144 478.1 144 456L144 410.5C144 387.2 134.7 364.8 118.2 348.3L89.9 320L118.2 291.7C134.7 275.2 144 252.8 144 229.5L144 184C144 161.9 161.9 144 184 144L232 144C245.3 144 256 133.3 256 120C256 106.7 245.3 96 232 96L184 96zM456 96L408 96C394.7 96 384 106.7 384 120C384 133.3 394.7 144 408 144L456 144C478.1 144 496 161.9 496 184L496 229.5C496 252.8 505.3 275.2 521.8 291.7L550.1 320L521.8 348.3C505.3 364.8 496 387.2 496 410.5L496 456C496 478.1 478.1 496 456 496L408 496C394.7 496 384 506.7 384 520C384 533.3 394.7 544 408 544L456 544C504.6 544 544 504.6 544 456L544 410.5C544 399.9 548.2 389.7 555.7 382.2L601 337C610.4 327.6 610.4 312.4 601 303.1L555.7 257.8C548.2 250.3 544 240.1 544 229.5L544 184C544 135.4 504.6 96 456 96z"/></svg>