<svg xmlns="http://www.w3.org/2000/svg" viewBox="0 0 640 640"><!--! Font Awesome Pro 7.2.0 by @fontawesome - https://fontawesome.com License - https://fontawesome.com/license (Commercial License) Copyright 2026 Fonticons, Inc. --><path fill="currentColor" d="M152 96C121.1 96 96 121.1 96 152L96 488C96 518.9 121.1 544 152 544L216 544C229.3 544 240 533.3 240 520C240 506.7 229.3 496 216 496L152 496C147.6 496 144 492.4 144 488L144 152C144 147.6 147.6 144 152 144L216 144C229.3 144 240 133.3 240 120C240 106.7 229.3 96 216 96L152 96zM488 96L424 96C410.7 96 400 106.7 400 120C400 133.3 410.7 144 424 144L488 144C492.4 144 496 147.6 496 152L496 488C496 492.4 492.4 496 488 496L424 496C410.7 496 400 506.7 400 520C400 533.3 410.7 544 424 544L488 544C518.9 544 544 518.9 544 488L544 152C544 121.1 518.9 96 488 96z"/></svg>