<svg xmlns="http://www.w3.org/2000/svg" viewBox="0 0 640 640"><!--! Font Awesome Pro 7.2.0 by @fontawesome - https://fontawesome.com License - https://fontawesome.com/license (Commercial License) Copyright 2026 Fonticons, Inc. --><path fill="currentColor" d="M336 144L336 496L288 496L288 144L336 144zM288 96C261.5 96 240 117.5 240 144L240 496C240 522.5 261.5 544 288 544L336 544C362.5 544 384 522.5 384 496L384 144C384 117.5 362.5 96 336 96L288 96zM144 336L144 496L96 496L96 336L144 336zM96 288C69.5 288 48 309.5 48 336L48 496C48 522.5 69.5 544 96 544L144 544C170.5 544 192 522.5 192 496L192 336C192 309.5 170.5 288 144 288L96 288zM480 208L528 208L528 496L480 496L480 208zM432 208L432 496C432 522.5 453.5 544 480 544L528 544C554.5 544 576 522.5 576 496L576 208C576 181.5 554.5 160 528 160L480 160C453.5 160 432 181.5 432 208z"/></svg>