<svg xmlns="http://www.w3.org/2000/svg" viewBox="0 0 640 640"><!--! Font Awesome Pro 7.2.0 by @fontawesome - https://fontawesome.com License - https://fontawesome.com/license (Commercial License) Copyright 2026 Fonticons, Inc. --><path fill="currentColor" d="M112 120C112 106.7 101.3 96 88 96C74.7 96 64 106.7 64 120L64 464C64 508.2 99.8 544 144 544L552 544C565.3 544 576 533.3 576 520C576 506.7 565.3 496 552 496L144 496C126.3 496 112 481.7 112 464L112 120zM537 233C546.4 223.6 546.4 208.4 537 199.1C527.6 189.8 512.4 189.7 503.1 199.1L384.1 318.1L305.1 239.1C295.7 229.7 280.5 229.7 271.2 239.1L167 343C157.6 352.4 157.6 367.6 167 376.9C176.4 386.2 191.6 386.3 200.9 376.9L287.9 289.9L366.9 368.9C376.3 378.3 391.5 378.3 400.8 368.9L537 233z"/></svg>