<svg xmlns="http://www.w3.org/2000/svg" viewBox="0 0 640 640"><!--! Font Awesome Pro 7.2.0 by @fontawesome - https://fontawesome.com License - https://fontawesome.com/license (Commercial License) Copyright 2026 Fonticons, Inc. --><path fill="currentColor" d="M432 144C432 126.3 446.3 112 464 112C481.7 112 496 126.3 496 144C496 161.7 481.7 176 464 176C446.3 176 432 161.7 432 144zM402.1 194.6C408.9 202.9 417.3 209.8 426.8 214.8L390 416.6C378.5 418 367.8 421.9 358.3 427.7L217.3 304.2C221.6 294.3 224 283.5 224 272C224 270 223.9 267.9 223.8 265.9L402.1 194.6zM474 223.4C513.5 218.5 544 184.8 544 144C544 99.8 508.2 64 464 64C419.8 64 384 99.8 384 144C384 146 384.1 148.1 384.2 150.1L205.9 221.4C191.3 203.4 169 192 144 192C99.8 192 64 227.8 64 272C64 316.2 99.8 352 144 352C159.3 352 173.5 347.7 185.6 340.3L326.7 463.8C322.4 473.7 320 484.5 320 496C320 540.2 355.8 576 400 576C444.2 576 480 540.2 480 496C480 465.3 462.7 438.6 437.3 425.2L474 223.4zM368 496C368 478.3 382.3 464 400 464C417.7 464 432 478.3 432 496C432 513.7 417.7 528 400 528C382.3 528 368 513.7 368 496zM144 240C161.7 240 176 254.3 176 272C176 289.7 161.7 304 144 304C126.3 304 112 289.7 112 272C112 254.3 126.3 240 144 240z"/></svg>