<svg xmlns="http://www.w3.org/2000/svg" viewBox="0 0 640 640"><!--! Font Awesome Pro 7.2.0 by @fontawesome - https://fontawesome.com License - https://fontawesome.com/license (Commercial License) Copyright 2026 Fonticons, Inc. --><path fill="currentColor" d="M320 576C178.6 576 64 461.4 64 320C64 178.6 178.6 64 320 64C461.4 64 576 178.6 576 320C576 461.4 461.4 576 320 576zM320 112C205.1 112 112 205.1 112 320C112 434.9 205.1 528 320 528C434.9 528 528 434.9 528 320C528 205.1 434.9 112 320 112zM320 448C302.3 448 288 433.7 288 416C288 398.3 302.3 384 320 384C337.7 384 352 398.3 352 416C352 433.7 337.7 448 320 448zM320 192C338.2 192 352.7 207.5 351.4 225.7L344 329.7C343.1 342.3 332.6 352 320.1 352C307.5 352 297.1 342.3 296.2 329.7L288.8 225.7C287.3 207.5 301.8 192 320 192z"/></svg>