<svg xmlns="http://www.w3.org/2000/svg" viewBox="0 0 640 640"><!--! Font Awesome Pro 7.2.0 by @fontawesome - https://fontawesome.com License - https://fontawesome.com/license (Commercial License) Copyright 2026 Fonticons, Inc. --><path fill="currentColor" d="M320 112C434.9 112 528 205.1 528 320C528 434.9 434.9 528 320 528C205.1 528 112 434.9 112 320C112 205.1 205.1 112 320 112zM320 576C461.4 576 576 461.4 576 320C576 178.6 461.4 64 320 64C178.6 64 64 178.6 64 320C64 461.4 178.6 576 320 576zM280 208C266.7 208 256 218.7 256 232C256 245.3 266.7 256 280 256L296 256L296 384L264 384C250.7 384 240 394.7 240 408C240 421.3 250.7 432 264 432L376 432C389.3 432 400 421.3 400 408C400 394.7 389.3 384 376 384L344 384L344 232C344 218.7 333.3 208 320 208L280 208z"/></svg>