<svg xmlns="http://www.w3.org/2000/svg" viewBox="0 0 640 640"><!--! Font Awesome Pro 7.2.0 by @fontawesome - https://fontawesome.com License - https://fontawesome.com/license (Commercial License) Copyright 2026 Fonticons, Inc. --><path fill="currentColor" d="M320 528C434.9 528 528 434.9 528 320C528 205.1 434.9 112 320 112C205.1 112 112 205.1 112 320C112 434.9 205.1 528 320 528zM320 64C461.4 64 576 178.6 576 320C576 461.4 461.4 576 320 576C178.6 576 64 461.4 64 320C64 178.6 178.6 64 320 64zM352 320C352 337.7 337.7 352 320 352C302.3 352 288 337.7 288 320C288 302.3 302.3 288 320 288C337.7 288 352 302.3 352 320zM416 288C433.7 288 448 302.3 448 320C448 337.7 433.7 352 416 352C398.3 352 384 337.7 384 320C384 302.3 398.3 288 416 288zM256 320C256 337.7 241.7 352 224 352C206.3 352 192 337.7 192 320C192 302.3 206.3 288 224 288C241.7 288 256 302.3 256 320z"/></svg>