<svg xmlns="http://www.w3.org/2000/svg" viewBox="0 0 640 640"><!--! Font Awesome Pro 7.2.0 by @fontawesome - https://fontawesome.com License - https://fontawesome.com/license (Commercial License) Copyright 2026 Fonticons, Inc. --><path fill="currentColor" d="M192 224C192 229.6 192.4 235.2 193.1 240.6C198 240.2 203 240 208 240C250.5 240 289.6 255.1 320 280.2C350.4 255.1 389.5 240 432 240C437 240 442 240.2 446.9 240.6C447.6 235.2 448 229.6 448 224C448 153.3 390.7 96 320 96C249.3 96 192 153.3 192 224zM146.1 251.2C144.7 242.3 144 233.3 144 224C144 126.8 222.8 48 320 48C417.2 48 496 126.8 496 224C496 233.2 495.3 242.3 493.9 251.2C560.6 276.3 608 340.6 608 416C608 513.2 529.2 592 432 592C389.5 592 350.4 576.9 320 551.8C289.6 576.9 250.5 592 208 592C110.8 592 32 513.2 32 416C32 340.6 79.4 276.3 146.1 251.2zM430.9 288C401.3 288.3 374.2 298.5 352.6 315.6C358.5 324.1 363.7 333.2 368.1 342.7C394.6 331.9 416.7 312.6 430.9 288zM381.9 388.8C383.3 397.7 384 406.7 384 416C384 453.3 372.4 487.9 352.6 516.4C374.4 533.7 402 544 432 544C502.7 544 560 486.7 560 416C560 362.3 526.9 316.3 480 297.3C460.7 339.3 425.4 372.4 381.9 388.8zM305.1 399.4C304.4 404.8 304 410.4 304 416C304 438.5 309.8 459.6 320 478C330.2 459.6 336 438.5 336 416C336 410.4 335.6 404.8 334.9 399.4C325.1 400.2 314.8 400.2 305 399.4zM258.1 388.8C214.6 372.4 179.2 339.3 160 297.3C113.1 316.3 80 362.3 80 416C80 486.7 137.3 544 208 544C238 544 265.6 533.7 287.4 516.4C267.6 487.9 256 453.3 256 416C256 406.7 256.7 397.7 258.1 388.8zM272 342.7C276.4 333.2 281.5 324.1 287.5 315.6C266 298.5 238.8 288.2 209.2 288C223.4 312.5 245.5 331.9 272 342.7z"/></svg>