<svg xmlns="http://www.w3.org/2000/svg" viewBox="0 0 640 640"><!--! Font Awesome Pro 7.2.0 by @fontawesome - https://fontawesome.com License - https://fontawesome.com/license (Commercial License) Copyright 2026 Fonticons, Inc. --><path fill="currentColor" d="M320 112C434.9 112 528 205.1 528 320C528 434.9 434.9 528 320 528C205.1 528 112 434.9 112 320C112 205.1 205.1 112 320 112zM320 576C461.4 576 576 461.4 576 320C576 178.6 461.4 64 320 64C178.6 64 64 178.6 64 320C64 461.4 178.6 576 320 576zM296 408C296 421.3 306.7 432 320 432C333.3 432 344 421.3 344 408L344 344L408 344C421.3 344 432 333.3 432 320C432 306.7 421.3 296 408 296L344 296L344 232C344 218.7 333.3 208 320 208C306.7 208 296 218.7 296 232L296 296L232 296C218.7 296 208 306.7 208 320C208 333.3 218.7 344 232 344L296 344L296 408z"/></svg>