<svg xmlns="http://www.w3.org/2000/svg" viewBox="0 0 640 640"><!--! Font Awesome Pro 7.2.0 by @fontawesome - https://fontawesome.com License - https://fontawesome.com/license (Commercial License) Copyright 2026 Fonticons, Inc. --><path fill="currentColor" d="M112 170.7L112 120C112 106.7 101.3 96 88 96C74.7 96 64 106.7 64 120L64 232C64 245.3 74.7 256 88 256L200 256C213.3 256 224 245.3 224 232C224 218.7 213.3 208 200 208L144.7 208C181.7 150.2 246.4 112 320 112C434.9 112 528 205.1 528 320C528 434.9 434.9 528 320 528C277.5 528 238.1 515.3 205.3 493.5C194.3 486.2 179.4 489.2 172 500.2C164.6 511.2 167.7 526.1 178.7 533.5C219.2 560.3 267.8 576 320 576C461.4 576 576 461.4 576 320C576 178.6 461.4 64 320 64C234.3 64 158.4 106.1 112 170.7zM320 192C306.7 192 296 202.7 296 216L296 320C296 326.4 298.5 332.5 303 337L375 409C384.4 418.4 399.6 418.4 408.9 409C418.2 399.6 418.3 384.4 408.9 375.1L343.9 310.1L343.9 216C343.9 202.7 333.2 192 319.9 192z"/></svg>