<svg xmlns="http://www.w3.org/2000/svg" viewBox="0 0 640 640"><!--! Font Awesome Pro 7.2.0 by @fontawesome - https://fontawesome.com License - https://fontawesome.com/license (Commercial License) Copyright 2026 Fonticons, Inc. --><path fill="currentColor" d="M369.1 80.9C373 68.2 386.5 61.2 399.1 65.1C411.7 69 418.8 82.5 414.9 95.1L270.9 559.1C267 571.8 253.5 578.8 240.9 574.9C228.3 571 221.2 557.5 225.1 544.9L369.1 80.9zM177 199C186.4 208.4 186.4 223.6 177 232.9L90 319.9L177 406.9C186.4 416.3 186.4 431.5 177 440.8C167.6 450.1 152.4 450.2 143.1 440.8L39 337C29.6 327.6 29.6 312.4 39 303.1L143 199C152.4 189.6 167.6 189.6 176.9 199zM463 199C472.4 189.6 487.6 189.6 496.9 199L601 303C610.4 312.4 610.4 327.6 601 336.9L497 441C487.6 450.4 472.4 450.4 463.1 441C453.8 431.6 453.7 416.4 463.1 407.1L550.1 320.1L463.1 233.1C453.7 223.7 453.7 208.5 463.1 199.2z"/></svg>