<svg xmlns="http://www.w3.org/2000/svg" viewBox="0 0 640 640"><!--! Font Awesome Pro 7.2.0 by @fontawesome - https://fontawesome.com License - https://fontawesome.com/license (Commercial License) Copyright 2026 Fonticons, Inc. --><path fill="currentColor" d="M348 62.7C330.7 52.7 309.3 52.7 292 62.7L207.8 111.3C190.5 121.3 179.8 139.8 179.8 159.8L179.8 261.7L91.5 312.7C74.2 322.7 63.5 341.2 63.5 361.2L63.5 458.5C63.5 478.5 74.2 497 91.5 507L175.8 555.6C193.1 565.6 214.5 565.6 231.8 555.6L320.1 504.6L408.4 555.6C425.7 565.6 447.1 565.6 464.4 555.6L548.5 507C565.8 497 576.5 478.5 576.5 458.5L576.5 361.2C576.5 341.2 565.8 322.7 548.5 312.7L460.2 261.7L460.2 159.8C460.2 139.8 449.5 121.3 432.2 111.3L348 62.7zM135.5 342.7L203.8 303.3L272.1 342.7L203.8 382.1L135.5 342.7zM111.5 384.3L179.8 423.7L179.8 502.5L115.5 465.4C113 464 111.5 461.3 111.5 458.5L111.5 384.3zM227.8 502.5L227.8 423.7L296.1 384.3L296.1 463.1L227.8 502.5zM344 384.3L412.3 423.7L412.3 502.5L344 463.1L344 384.3zM460.3 502.5L460.3 423.7L528.6 384.3L528.6 458.5C528.6 461.4 527.1 464 524.6 465.4L460.3 502.5zM504.6 342.7L436.3 382.1L368 342.7L436.3 303.3L504.6 342.7zM344 301.2L344 222.4L412.3 183L412.3 261.8L344 301.2zM388.3 141.4L320 180.8L251.8 141.4L316 104.3C318.5 102.9 321.5 102.9 324 104.3L388.3 141.4zM227.8 182.9L296.1 222.3L296.1 301.1L227.8 261.7L227.8 182.9z"/></svg>