<svg xmlns="http://www.w3.org/2000/svg" viewBox="0 0 640 640"><!--! Font Awesome Pro 7.2.0 by @fontawesome - https://fontawesome.com License - https://fontawesome.com/license (Commercial License) Copyright 2026 Fonticons, Inc. --><path fill="currentColor" d="M240 144L240 240L144 240L144 144L240 144zM144 96C117.5 96 96 117.5 96 144L96 240C96 266.5 117.5 288 144 288L168 288L168 384C168 432.6 207.4 472 256 472L352 472L352 496C352 522.5 373.5 544 400 544L496 544C522.5 544 544 522.5 544 496L544 400C544 373.5 522.5 352 496 352L400 352C373.5 352 352 373.5 352 400L352 424L256 424C233.9 424 216 406.1 216 384L216 288L240 288C266.5 288 288 266.5 288 240L288 144C288 117.5 266.5 96 240 96L144 96zM496 400L496 496L400 496L400 400L496 400z"/></svg>