<svg xmlns="http://www.w3.org/2000/svg" viewBox="0 0 640 640"><!--! Font Awesome Pro 7.2.0 by @fontawesome - https://fontawesome.com License - https://fontawesome.com/license (Commercial License) Copyright 2026 Fonticons, Inc. --><path fill="currentColor" d="M480 144C488.8 144 496 151.2 496 160L496 224C496 232.8 488.8 240 480 240L160 240C151.2 240 144 232.8 144 224L144 160C144 151.2 151.2 144 160 144L480 144zM160 96C124.7 96 96 124.7 96 160L96 224C96 259.3 124.7 288 160 288L168 288L168 384C168 432.6 207.4 472 256 472L288 472L288 480C288 515.3 316.7 544 352 544L480 544C515.3 544 544 515.3 544 480L544 416C544 380.7 515.3 352 480 352L352 352C316.7 352 288 380.7 288 416L288 424L256 424C233.9 424 216 406.1 216 384L216 288L480 288C515.3 288 544 259.3 544 224L544 160C544 124.7 515.3 96 480 96L160 96zM480 400C488.8 400 496 407.2 496 416L496 480C496 488.8 488.8 496 480 496L352 496C343.2 496 336 488.8 336 480L336 416C336 407.2 343.2 400 352 400L480 400z"/></svg>