<svg xmlns="http://www.w3.org/2000/svg" viewBox="0 0 640 640"><!--! Font Awesome Pro 7.2.0 by @fontawesome - https://fontawesome.com License - https://fontawesome.com/license (Commercial License) Copyright 2026 Fonticons, Inc. --><path fill="currentColor" d="M368 144C368 170.5 346.5 192 320 192C293.5 192 272 170.5 272 144C272 117.5 293.5 96 320 96C346.5 96 368 117.5 368 144zM272 320C272 293.5 293.5 272 320 272C346.5 272 368 293.5 368 320C368 346.5 346.5 368 320 368C293.5 368 272 346.5 272 320zM368 496C368 522.5 346.5 544 320 544C293.5 544 272 522.5 272 496C272 469.5 293.5 448 320 448C346.5 448 368 469.5 368 496z"/></svg>