<svg xmlns="http://www.w3.org/2000/svg" viewBox="0 0 640 640"><!--! Font Awesome Pro 7.2.0 by @fontawesome - https://fontawesome.com License - https://fontawesome.com/license (Commercial License) Copyright 2026 Fonticons, Inc. --><path fill="currentColor" d="M528 320C528 271.2 511.2 226.3 483.1 190.9L190.9 483.1C226.4 511.2 271.2 528 320 528C434.9 528 528 434.9 528 320zM517.2 156.7C553.9 201 576 257.9 576 320C576 461.4 461.4 576 320 576C257.9 576 201.1 553.9 156.7 517.2L105 569C95.6 578.4 80.4 578.4 71.1 569C61.8 559.6 61.7 544.4 71 535L122.8 483.2C86.1 438.9 64 382.1 64 320C64 178.6 178.6 64 320 64C382.1 64 438.9 86.1 483.3 122.8L535 71C544.4 61.6 559.6 61.6 568.9 71C578.2 80.4 578.3 95.6 568.9 104.9L517.2 156.7zM156.9 449.1L449.1 156.9C413.7 128.8 368.8 112 320 112C205.1 112 112 205.1 112 320C112 368.8 128.8 413.7 156.9 449.1z"/></svg>