<svg xmlns="http://www.w3.org/2000/svg" viewBox="0 0 640 640"><!--! Font Awesome Pro 7.2.0 by @fontawesome - https://fontawesome.com License - https://fontawesome.com/license (Commercial License) Copyright 2026 Fonticons, Inc. --><path fill="currentColor" d="M192 112L304 112L304 200C304 239.8 336.2 272 376 272L464 272L464 512C464 520.8 456.8 528 448 528L192 528C183.2 528 176 520.8 176 512L176 128C176 119.2 183.2 112 192 112zM352 131.9L444.1 224L376 224C362.7 224 352 213.3 352 200L352 131.9zM192 64C156.7 64 128 92.7 128 128L128 512C128 547.3 156.7 576 192 576L448 576C483.3 576 512 547.3 512 512L512 250.5C512 233.5 505.3 217.2 493.3 205.2L370.7 82.7C358.7 70.7 342.5 64 325.5 64L192 64zM248 308C228.1 308 212 324.1 212 344L212 456C212 475.9 228.1 492 248 492L392 492C411.9 492 428 475.9 428 456L428 344C428 324.1 411.9 308 392 308L248 308zM252 452L252 420L300 420L300 452L252 452zM340 452L340 420L388 420L388 452L340 452zM340 380L340 348L388 348L388 380L340 380zM300 348L300 380L252 380L252 348L300 348z"/></svg>