<svg xmlns="http://www.w3.org/2000/svg" viewBox="0 0 640 640"><!--! Font Awesome Pro 7.2.0 by @fontawesome - https://fontawesome.com License - https://fontawesome.com/license (Commercial License) Copyright 2026 Fonticons, Inc. --><path fill="currentColor" d="M192 88C192 74.7 202.7 64 216 64L424 64C437.3 64 448 74.7 448 88C448 101.3 437.3 112 424 112L416 112L416 281.6L536.7 492.8C541.5 501.2 544 510.7 544 520.4C544 551.1 519.1 576 488.4 576L151.6 576C120.9 576 96 551.1 96 520.4C96 510.7 98.5 501.2 103.3 492.8L224 281.6L224 112L216 112C202.7 112 192 101.3 192 88zM272 112L272 288C272 292.2 270.9 296.3 268.8 299.9L229.9 368L410 368L371.1 299.9C369 296.3 367.9 292.2 367.9 288L367.9 112L271.9 112zM202.5 416L145 516.6C144.3 517.7 144 519 144 520.4C144 524.6 147.4 528 151.6 528L488.4 528C492.6 528 496 524.6 496 520.4C496 519.1 495.7 517.8 495 516.6L437.5 416L202.5 416z"/></svg>