<svg xmlns="http://www.w3.org/2000/svg" viewBox="0 0 640 640"><!--! Font Awesome Pro 7.2.0 by @fontawesome - https://fontawesome.com License - https://fontawesome.com/license (Commercial License) Copyright 2026 Fonticons, Inc. --><path fill="currentColor" d="M488 96C474.7 96 464 106.7 464 120L464 282.7L190 102.6C177.7 94.5 162 93.8 149 100.8C136 107.8 128 121.3 128 136L128 504C128 518.7 136.1 532.2 149 539.2C161.9 546.2 177.7 545.5 190 537.4L464 357.4L464 520C464 533.3 474.7 544 488 544C501.3 544 512 533.3 512 520L512 120C512 106.7 501.3 96 488 96zM433.4 320L176 489.2L176 150.8L433.4 320z"/></svg>