<svg xmlns="http://www.w3.org/2000/svg" viewBox="0 0 640 640"><!--! Font Awesome Pro 7.2.0 by @fontawesome - https://fontawesome.com License - https://fontawesome.com/license (Commercial License) Copyright 2026 Fonticons, Inc. --><path fill="currentColor" d="M72 152C72 103.4 111.4 64 160 64L200 64C213.3 64 224 74.7 224 88C224 101.3 213.3 112 200 112L160 112C137.9 112 120 129.9 120 152L120 256L168 256C181.3 256 192 266.7 192 280C192 293.3 181.3 304 168 304L120 304L120 454.7C120 499.5 86.3 537.2 41.7 542.2L26.6 543.9C13.4 545.4 1.6 535.9 .1 522.7C-1.4 509.5 8.1 497.7 21.3 496.2L36.4 494.5C56.7 492.2 72 475.1 72 454.7L72 304L24 304C10.7 304 0 293.3 0 280C0 266.7 10.7 256 24 256L72 256L72 152zM316.3 228.8C288.4 273.1 272 326.5 272 384C272 441.5 288.4 494.9 316.3 539.2C323.4 550.4 320 565.2 308.8 572.3C297.6 579.4 282.8 576 275.7 564.8C243 512.9 224 450.7 224 384C224 317.3 243 255.1 275.7 203.2C282.8 192 297.6 188.6 308.8 195.7C320 202.8 323.4 217.6 316.3 228.8zM547.7 228.8C540.6 217.6 544 202.8 555.2 195.7C566.4 188.6 581.2 192 588.3 203.2C621 255.1 640 317.3 640 384C640 450.7 621 512.9 588.3 564.8C581.2 576 566.4 579.4 555.2 572.3C544 565.2 540.6 550.4 547.7 539.2C575.6 494.9 592 441.5 592 384C592 326.5 575.6 273.1 547.7 228.8zM393 311L432 350L471 311C480.4 301.6 495.6 301.6 504.9 311C514.2 320.4 514.3 335.6 504.9 344.9L465.9 383.9L504.9 422.9C514.3 432.3 514.3 447.5 504.9 456.8C495.5 466.1 480.3 466.2 471 456.8L432 417.8L393 456.8C383.6 466.2 368.4 466.2 359.1 456.8C349.8 447.4 349.7 432.2 359.1 422.9L398.1 383.9L359.1 344.9C349.7 335.5 349.7 320.3 359.1 311C368.5 301.7 383.7 301.6 393 311z"/></svg>