<svg xmlns="http://www.w3.org/2000/svg" viewBox="0 0 640 640"><!--! Font Awesome Pro 7.2.0 by @fontawesome - https://fontawesome.com License - https://fontawesome.com/license (Commercial License) Copyright 2026 Fonticons, Inc. --><path fill="currentColor" d="M269.5 156.7L283.2 96L356.8 96L370.5 156.7C372.2 164.1 377.3 170.3 384.3 173.4C395.1 178.2 405.3 184.1 414.7 191C420.8 195.5 428.8 196.9 436.1 194.6L495.6 176.1L532.4 239.9L486.6 282.2C481 287.4 478.2 294.9 479 302.4C480.3 313.9 480.3 326.1 479 337.6C478.2 345.2 481 352.7 486.6 357.8L532.4 400.1L495.6 463.9L436.1 445.4C428.8 443.1 420.9 444.5 414.7 449C405.3 455.9 395.1 461.9 384.3 466.6C377.3 469.7 372.2 475.9 370.5 483.3L356.8 544L283.2 544L269.5 483.3C267.8 475.9 262.7 469.7 255.7 466.6C244.9 461.8 234.7 455.9 225.3 449C219.2 444.5 211.2 443.1 203.9 445.4L144.4 463.9L107.6 400.1L153.4 357.8C159 352.6 161.8 345.1 161 337.6C159.7 326.1 159.7 313.9 161 302.4C161.8 294.8 159 287.3 153.4 282.2L107.6 239.9L144.4 176.1L203.9 194.6C211.2 196.9 219.1 195.5 225.3 191C234.7 184.1 244.9 178.1 255.7 173.4C262.7 170.3 267.8 164.1 269.5 156.7zM276.8 48C258.1 48 241.9 61 237.8 79.2L225.2 134.8C218.9 138 212.9 141.5 207 145.3L152.6 128.4C134.7 122.8 115.4 130.4 106.1 146.6L62.9 221.4C53.6 237.6 56.7 258.1 70.4 270.8L112.3 309.5C112 316.4 112 323.5 112.3 330.5L70.4 369.2C56.7 381.9 53.5 402.4 62.9 418.6L106.1 493.4C115.4 509.6 134.8 517.1 152.6 511.6L207.1 494.7C213 498.5 219 502 225.3 505.2L237.9 560.8C242 579 258.2 592 276.9 592L363.3 592C382 592 398.2 579 402.3 560.8L414.9 505.2C421.2 502 427.2 498.5 433.1 494.7L487.6 511.6C505.5 517.2 524.8 509.6 534.1 493.4L577.3 418.6C586.6 402.4 583.5 381.9 569.8 369.2L527.9 330.5C528.2 323.6 528.2 316.5 527.9 309.5L569.8 270.8C583.5 258.1 586.6 237.6 577.3 221.4L534 146.6C524.6 130.4 505.3 122.9 487.5 128.4L433 145.3C427.1 141.5 421.1 138 414.8 134.8L402.3 79.2C398.1 61 381.9 48 363.2 48L276.8 48zM368 320C368 346.5 346.5 368 320 368C293.5 368 272 346.5 272 320C272 293.5 293.5 272 320 272C346.5 272 368 293.5 368 320zM320 224C267 224 224 267 224 320C224 373 267 416 320 416C373 416 416 373 416 320C416 267 373 224 320 224z"/></svg>