<svg xmlns="http://www.w3.org/2000/svg" viewBox="0 0 640 640"><!--! Font Awesome Pro 7.2.0 by @fontawesome - https://fontawesome.com License - https://fontawesome.com/license (Commercial License) Copyright 2026 Fonticons, Inc. --><path fill="currentColor" d="M0 301.3C0 223.3 63.3 160 141.3 160C180.3 160 217.5 176.1 244.2 204.5L320 285L395.8 204.5C422.5 176.1 459.7 160 498.7 160C576.7 160 640 223.3 640 301.3L640 338.7C640 416.7 576.7 480 498.7 480C459.7 480 422.5 463.9 395.8 435.5L320 355L244.2 435.5C217.5 463.9 180.3 480 141.3 480C63.3 480 0 416.7 0 338.7L0 301.3zM287 320L209.2 237.4C191.6 218.7 167 208 141.2 208C89.7 208 47.9 249.8 47.9 301.3L47.9 338.7C47.9 390.2 89.7 432 141.2 432C166.9 432 191.5 421.4 209.2 402.6L287 320zM352.9 320L430.7 402.6C448.3 421.3 472.9 432 498.7 432C550.2 432 592 390.2 592 338.7L592 301.3C592 249.8 550.2 208 498.7 208C473 208 448.4 218.6 430.7 237.4L353 320z"/></svg>