<svg xmlns="http://www.w3.org/2000/svg" viewBox="0 0 640 640"><!--! Font Awesome Pro 7.2.0 by @fontawesome - https://fontawesome.com License - https://fontawesome.com/license (Commercial License) Copyright 2026 Fonticons, Inc. --><path fill="currentColor" d="M96 176C87.2 176 80 183.2 80 192L80 448C80 456.8 87.2 464 96 464L544 464C552.8 464 560 456.8 560 448L560 192C560 183.2 552.8 176 544 176L96 176zM32 192C32 156.7 60.7 128 96 128L544 128C579.3 128 608 156.7 608 192L608 448C608 483.3 579.3 512 544 512L96 512C60.7 512 32 483.3 32 448L32 192zM192 248L192 392C192 405.3 181.3 416 168 416C154.7 416 144 405.3 144 392L144 248C144 234.7 154.7 224 168 224C181.3 224 192 234.7 192 248z"/></svg>