<svg xmlns="http://www.w3.org/2000/svg" viewBox="0 0 640 640"><!--! Font Awesome Pro 7.2.0 by @fontawesome - https://fontawesome.com License - https://fontawesome.com/license (Commercial License) Copyright 2026 Fonticons, Inc. --><path fill="currentColor" d="M120 96C106.8 96 96 106.7 96 120C96 133.3 106.8 144 120 144L228.6 144C231.6 144 234.3 145.7 235.7 148.3L245.9 167.9L98 510.5C92.7 522.7 98.4 536.8 110.5 542C122.6 547.2 136.8 541.7 142 529.5L274.4 222.9L425.7 513.9C435.3 532.4 454.5 544.1 475.4 544.1L520 544.1C533.3 544.1 544 533.4 544 520.1C544 506.8 533.3 496.1 520 496.1L475.4 496.1C472.4 496.1 469.7 494.4 468.3 491.8L278.3 126.2C268.6 107.6 249.5 96 228.6 96L120 96z"/></svg>