<svg xmlns="http://www.w3.org/2000/svg" viewBox="0 0 640 640"><!--! Font Awesome Pro 7.2.0 by @fontawesome - https://fontawesome.com License - https://fontawesome.com/license (Commercial License) Copyright 2026 Fonticons, Inc. --><path fill="currentColor" d="M323.4 112.7L494.8 192L323.4 271.2C321.3 272.2 318.8 272.2 316.7 271.2L145.2 192L316.6 112.7C318.7 111.7 321.2 111.7 323.3 112.7zM343.5 69.2C328.6 62.3 311.4 62.3 296.5 69.2L77.9 170.2C69.4 174.1 64 182.6 64 192C64 201.4 69.4 209.9 77.9 213.8L296.5 314.8C311.4 321.7 328.6 321.7 343.5 314.8L562.1 213.8C570.6 209.9 576 201.4 576 192C576 182.6 570.6 174.1 562.1 170.2L343.5 69.2zM112.1 282.4L77.9 298.2C69.4 302.1 64 310.6 64 320C64 329.4 69.4 337.9 77.9 341.8L296.5 442.8C311.4 449.7 328.6 449.7 343.5 442.8L562.1 341.8C570.6 337.9 576 329.4 576 320C576 310.6 570.6 302.1 562.1 298.2L528 282.4L470.8 308.8L494.9 319.9L323.5 399.1C321.4 400.1 318.9 400.1 316.8 399.1L145.2 320L169.3 308.9L112.1 282.4zM77.9 426.2C69.4 430.1 64 438.6 64 448C64 457.4 69.4 465.9 77.9 469.8L296.5 570.8C311.4 577.7 328.6 577.7 343.5 570.8L562.1 469.8C570.6 465.9 576 457.4 576 448C576 438.6 570.6 430.1 562.1 426.2L528 410.4L470.8 436.8L494.9 447.9L323.5 527.1C321.4 528.1 318.9 528.1 316.8 527.1L145.4 447.9L169.5 436.8L112.3 410.4L78.2 426.2z"/></svg>