<svg xmlns="http://www.w3.org/2000/svg" viewBox="0 0 640 640"><!--! Font Awesome Pro 7.2.0 by @fontawesome - https://fontawesome.com License - https://fontawesome.com/license (Commercial License) Copyright 2026 Fonticons, Inc. --><path fill="currentColor" d="M562.1 378.2C570.6 382.1 576 390.6 576 400C576 409.4 570.6 417.9 562.1 421.8L343.5 522.8L337.8 525C324.3 529.5 309.5 528.8 296.5 522.8L77.9 421.7C69.4 417.8 64 409.3 64 400C64 390.7 69.4 382.1 77.9 378.2L146.6 346.4L203.8 372.8L145.1 399.9L316.6 479.2C318.7 480.2 321.2 480.2 323.3 479.2L494.7 399.9L436 372.8L493.2 346.3L562 378.1zM296.5 117.2C311.4 110.3 328.6 110.3 343.5 117.2L562.1 218.2C570.6 222.1 576 230.6 576 240C576 249.4 570.6 257.9 562.1 261.8L343.5 362.8L337.8 365C324.3 369.5 309.5 368.8 296.5 362.8L77.9 261.7C69.4 257.8 64 249.3 64 240C64 230.7 69.4 222.1 77.9 218.2L296.5 117.2zM323.3 160.8C321.2 159.8 318.7 159.8 316.6 160.8L145.2 240L316.7 319.2C318.8 320.2 321.3 320.2 323.4 319.2L494.8 240L323.3 160.7z"/></svg>