<svg xmlns="http://www.w3.org/2000/svg" viewBox="0 0 640 640"><!--! Font Awesome Pro 7.2.0 by @fontawesome - https://fontawesome.com License - https://fontawesome.com/license (Commercial License) Copyright 2026 Fonticons, Inc. --><path fill="currentColor" d="M464 256C464 294.4 449 329.2 424.5 355.1C403.2 377.5 379.6 409.1 371.2 448L268.8 448C260.4 409 236.8 377.5 215.5 355.1C191 329.2 176 294.4 176 256C176 176.5 240.5 112 320 112C399.5 112 464 176.5 464 256zM416 477.7C416 443.4 435.7 413 459.3 388.1C492 353.7 512 307.2 512 256C512 150 426 64 320 64C214 64 128 150 128 256C128 307.2 148 353.7 180.7 388.1C204.3 413 224 443.4 224 477.7L224 496C224 540.2 259.8 576 304 576L336 576C380.2 576 416 540.2 416 496L416 477.7zM312 208C325.3 208 336 197.3 336 184C336 170.7 325.3 160 312 160C263.4 160 224 199.4 224 248C224 261.3 234.7 272 248 272C261.3 272 272 261.3 272 248C272 225.9 289.9 208 312 208zM58.7 90.5C46.8 84.6 32.4 89.4 26.5 101.2C20.6 113 25.4 127.5 37.3 133.5L69.3 149.5C81.2 155.4 95.6 150.6 101.5 138.8C107.4 127 102.6 112.5 90.8 106.6L58.8 90.6zM602.7 133.4C614.6 127.5 619.4 113.1 613.4 101.2C607.4 89.3 593.1 84.5 581.2 90.5L549.2 106.5C537.3 112.4 532.5 126.8 538.5 138.7C544.5 150.6 558.8 155.4 570.7 149.4L602.7 133.4zM24 232C10.7 232 0 242.7 0 256C0 269.3 10.7 280 24 280L56 280C69.3 280 80 269.3 80 256C80 242.7 69.3 232 56 232L24 232zM584 232C570.7 232 560 242.7 560 256C560 269.3 570.7 280 584 280L616 280C629.3 280 640 269.3 640 256C640 242.7 629.3 232 616 232L584 232zM90.7 405.5C102.6 399.6 107.4 385.2 101.4 373.3C95.4 361.4 81.1 356.6 69.2 362.6L37.2 378.6C25.3 384.5 20.5 398.9 26.5 410.8C32.5 422.7 46.8 427.5 58.7 421.5L90.7 405.5zM570.7 362.6C558.8 356.7 544.4 361.5 538.5 373.3C532.6 385.1 537.4 399.6 549.2 405.5L581.2 421.5C593.1 427.4 607.5 422.6 613.4 410.8C619.3 399 614.5 384.5 602.7 378.6L570.7 362.6z"/></svg>