<svg xmlns="http://www.w3.org/2000/svg" viewBox="0 0 640 640"><!--! Font Awesome Pro 7.2.0 by @fontawesome - https://fontawesome.com License - https://fontawesome.com/license (Commercial License) Copyright 2026 Fonticons, Inc. --><path fill="currentColor" d="M320 80C364.2 80 400 115.8 400 160L400 224L240 224L240 160C240 115.8 275.8 80 320 80zM192 160L192 224C156.7 224 128 252.7 128 288L128 512C128 547.3 156.7 576 192 576L448 576C483.3 576 512 547.3 512 512L512 288C512 252.7 483.3 224 448 224L448 160C448 89.3 390.7 32 320 32C249.3 32 192 89.3 192 160zM400 272L448 272L448 272C456.8 272 464 279.2 464 288L464 512C464 520.8 456.8 528 448 528L192 528C183.2 528 176 520.8 176 512L176 288C176 279.2 183.2 272 192 272L192 272L240 272L240 272L400 272L400 272zM344 360C344 346.7 333.3 336 320 336C306.7 336 296 346.7 296 360L296 440C296 453.3 306.7 464 320 464C333.3 464 344 453.3 344 440L344 360z"/></svg>