<svg xmlns="http://www.w3.org/2000/svg" viewBox="0 0 640 640"><!--! Font Awesome Pro 7.2.0 by @fontawesome - https://fontawesome.com License - https://fontawesome.com/license (Commercial License) Copyright 2026 Fonticons, Inc. --><path fill="currentColor" d="M272 112C360.4 112 432 183.6 432 272C432 360.4 360.4 432 272 432C183.6 432 112 360.4 112 272C112 183.6 183.6 112 272 112zM272 480C320.8 480 365.7 463.2 401.1 435.1L535 569C544.4 578.4 559.6 578.4 568.9 569C578.2 559.6 578.3 544.4 568.9 535.1L435.1 401.1C463.2 365.7 480 320.8 480 272C480 157.1 386.9 64 272 64C157.1 64 64 157.1 64 272C64 386.9 157.1 480 272 480zM272 176C258.7 176 248 186.7 248 200L248 248L200 248C186.7 248 176 258.7 176 272C176 285.3 186.7 296 200 296L248 296L248 344C248 357.3 258.7 368 272 368C285.3 368 296 357.3 296 344L296 296L344 296C357.3 296 368 285.3 368 272C368 258.7 357.3 248 344 248L296 248L296 200C296 186.7 285.3 176 272 176z"/></svg>