<svg xmlns="http://www.w3.org/2000/svg" viewBox="0 0 640 640"><!--! Font Awesome Pro 7.2.0 by @fontawesome - https://fontawesome.com License - https://fontawesome.com/license (Commercial License) Copyright 2026 Fonticons, Inc. --><path fill="currentColor" d="M432 272C432 183.6 360.4 112 272 112C183.6 112 112 183.6 112 272C112 360.4 183.6 432 272 432C360.4 432 432 360.4 432 272zM401.1 435.1C365.7 463.2 320.8 480 272 480C157.1 480 64 386.9 64 272C64 157.1 157.1 64 272 64C386.9 64 480 157.1 480 272C480 320.8 463.2 365.7 435.1 401.1L569 535C578.4 544.4 578.4 559.6 569 568.9C559.6 578.2 544.4 578.3 535.1 568.9L401.1 435.1z"/></svg>