<svg xmlns="http://www.w3.org/2000/svg" viewBox="0 0 640 640"><!--! Font Awesome Pro 7.2.0 by @fontawesome - https://fontawesome.com License - https://fontawesome.com/license (Commercial License) Copyright 2026 Fonticons, Inc. --><path fill="currentColor" d="M128 112L384 112C392.8 112 400 119.2 400 128L400 282.9C415.2 277.5 431.3 274 448 272.6L448 128C448 92.7 419.3 64 384 64L128 64C92.7 64 64 92.7 64 128L64 512C64 547.3 92.7 576 128 576L308 576C297.5 561.4 289 545.3 282.9 528L128 528C119.2 528 112 520.8 112 512L112 128C112 119.2 119.2 112 128 112zM160 216C160 229.3 170.7 240 184 240L328 240C341.3 240 352 229.3 352 216C352 202.7 341.3 192 328 192L184 192C170.7 192 160 202.7 160 216zM160 312C160 325.3 170.7 336 184 336L264 336C277.3 336 288 325.3 288 312C288 298.7 277.3 288 264 288L184 288C170.7 288 160 298.7 160 312zM160 408C160 421.3 170.7 432 184 432L232 432C245.3 432 256 421.3 256 408C256 394.7 245.3 384 232 384L184 384C170.7 384 160 394.7 160 408zM608 464C608 384.5 543.5 320 464 320C384.5 320 320 384.5 320 464C320 543.5 384.5 608 464 608C543.5 608 608 543.5 608 464zM521.4 403.1C528.5 408.3 530.1 418.3 524.9 425.4L460.9 513.4C458.1 517.2 453.9 519.6 449.2 519.9C444.5 520.2 439.9 518.6 436.6 515.3L396.6 475.3C390.4 469.1 390.4 458.9 396.6 452.7C402.8 446.5 413 446.5 419.2 452.7L446 479.5L499 406.6C504.2 399.5 514.2 397.9 521.4 403.1z"/></svg>