<svg xmlns="http://www.w3.org/2000/svg" viewBox="0 0 640 640"><!--! Font Awesome Pro 7.2.0 by @fontawesome - https://fontawesome.com License - https://fontawesome.com/license (Commercial License) Copyright 2026 Fonticons, Inc. --><path fill="currentColor" d="M240 112L240 336L304 336L304 112L240 112zM192 112C192 85.5 213.5 64 240 64L304 64C330.5 64 352 85.5 352 112L352 192L384 192C490 192 576 278 576 384C576 441.3 550.9 492.8 511 528L552 528C565.3 528 576 538.7 576 552C576 565.3 565.3 576 552 576L88 576C74.7 576 64 565.3 64 552C64 538.7 74.7 528 88 528L384 528C463.5 528 528 463.5 528 384C528 304.5 463.5 240 384 240L352 240L352 336C352 362.5 330.5 384 304 384L240 384C213.5 384 192 362.5 192 336L192 112zM184 432L360 432C373.3 432 384 442.7 384 456C384 469.3 373.3 480 360 480L184 480C170.7 480 160 469.3 160 456C160 442.7 170.7 432 184 432z"/></svg>