<svg xmlns="http://www.w3.org/2000/svg" viewBox="0 0 640 640"><!--! Font Awesome Pro 7.2.0 by @fontawesome - https://fontawesome.com License - https://fontawesome.com/license (Commercial License) Copyright 2026 Fonticons, Inc. --><path fill="currentColor" d="M176 144L176 496L240 496L240 144L176 144zM128 144C128 117.5 149.5 96 176 96L240 96C266.5 96 288 117.5 288 144L288 496C288 522.5 266.5 544 240 544L176 544C149.5 544 128 522.5 128 496L128 144zM400 144L400 496L464 496L464 144L400 144zM352 144C352 117.5 373.5 96 400 96L464 96C490.5 96 512 117.5 512 144L512 496C512 522.5 490.5 544 464 544L400 544C373.5 544 352 522.5 352 496L352 144z"/></svg>