<svg xmlns="http://www.w3.org/2000/svg" viewBox="0 0 640 640"><!--! Font Awesome Pro 7.2.0 by @fontawesome - https://fontawesome.com License - https://fontawesome.com/license (Commercial License) Copyright 2026 Fonticons, Inc. --><path fill="currentColor" d="M352.5 32C383.4 32 408.5 57.1 408.5 88C408.5 118.9 383.4 144 352.5 144C321.6 144 296.5 118.9 296.5 88C296.5 57.1 321.6 32 352.5 32zM219.2 224C212.7 224 206.9 227.9 204.4 233.8L174.7 305.2C169.6 317.4 155.6 323.2 143.3 318.1C131 313 125.3 299 130.4 286.7L160.1 215.3C170 191.5 193.3 176 219.2 176L313 176C346.3 176 376.8 194.8 391.7 224.6L421.2 283.5C422.6 286.2 425.3 287.9 428.4 287.9L488.6 287.9C501.9 287.9 512.6 298.6 512.6 311.9C512.6 325.2 501.9 335.9 488.6 335.9L428.4 335.9C407.2 335.9 387.8 323.9 378.3 304.9L375.2 298.7L349.1 381.4L404.5 395.8C428.4 402 441 428.2 431 450.8L374.4 577.7C369 589.8 354.8 595.3 342.7 589.9C330.6 584.5 325.1 570.3 330.5 558.2L383 440L258.3 407.5C227.7 399.5 209.8 367.8 218.7 337.5L249.4 233.2L252.1 224L219.1 224zM302.3 224C301.8 225.6 289.4 268 264.9 351.1C263.6 355.4 266.2 360 270.6 361.1L302.6 369.4L343.9 238.5C336.4 229.4 325.1 224 313.1 224L302.4 224zM213.6 439.1C223.3 445.7 234.2 450.8 246.2 454L258.1 457.1L252.9 471.7C247.6 486.4 238.5 499.5 226.5 509.5L135.8 585.5C125.6 594 110.5 592.7 102 582.5C93.5 572.3 94.8 557.2 105 548.7L195.7 472.7C201.2 468.1 205.3 462.2 207.7 455.5L213.6 439.1z"/></svg>