<svg xmlns="http://www.w3.org/2000/svg" viewBox="0 0 640 640"><!--! Font Awesome Pro 7.2.0 by @fontawesome - https://fontawesome.com License - https://fontawesome.com/license (Commercial License) Copyright 2026 Fonticons, Inc. --><path fill="currentColor" d="M216 32C229.3 32 240 42.7 240 56L240 160L400 160L400 56C400 42.7 410.7 32 424 32C437.3 32 448 42.7 448 56L448 160L520 160C533.3 160 544 170.7 544 184C544 197.3 533.3 208 520 208L512 208L512 288C512 385.9 438.7 466.7 344 478.5L344 552C344 565.3 333.3 576 320 576C306.7 576 296 565.3 296 552L296 478.5C201.3 466.7 128 385.9 128 288L128 208L120 208C106.7 208 96 197.3 96 184C96 170.7 106.7 160 120 160L192 160L192 56C192 42.7 202.7 32 216 32zM176 208L176 288C176 367.5 240.5 432 320 432C399.5 432 464 367.5 464 288L464 208L176 208z"/></svg>