<svg xmlns="http://www.w3.org/2000/svg" viewBox="0 0 640 640"><!--! Font Awesome Pro 7.2.0 by @fontawesome - https://fontawesome.com License - https://fontawesome.com/license (Commercial License) Copyright 2026 Fonticons, Inc. --><path fill="currentColor" d="M344 120C344 106.7 333.3 96 320 96C306.7 96 296 106.7 296 120L296 296L120 296C106.7 296 96 306.7 96 320C96 333.3 106.7 344 120 344L296 344L296 520C296 533.3 306.7 544 320 544C333.3 544 344 533.3 344 520L344 344L520 344C533.3 344 544 333.3 544 320C544 306.7 533.3 296 520 296L344 296L344 120z"/></svg>