<svg xmlns="http://www.w3.org/2000/svg" viewBox="0 0 640 640"><!--! Font Awesome Pro 7.2.0 by @fontawesome - https://fontawesome.com License - https://fontawesome.com/license (Commercial License) Copyright 2026 Fonticons, Inc. --><path fill="currentColor" d="M552 128C538.7 128 528 138.7 528 152L528 488C528 501.3 538.7 512 552 512C565.3 512 576 501.3 576 488L576 152C576 138.7 565.3 128 552 128zM441 337C445.5 332.5 448 326.4 448 320C448 313.6 445.5 307.5 441 303L297 159C290.1 152.1 279.8 150.1 270.8 153.8C261.8 157.5 256 166.3 256 176L256 240L192 240L192 240L112 240C85.5 240 64 261.5 64 288L64 352C64 378.5 85.5 400 112 400L256 400L256 464C256 473.7 261.8 482.5 270.8 486.2C279.8 489.9 290.1 487.9 297 481L441 337zM192 352L112 352L112 288L192 288L192 288L280 288C286.4 288 292.5 285.5 297 281C301.5 276.5 304 270.4 304 264L304 233.9L390.1 320L304 406.1L304 376C304 362.7 293.3 352 280 352L192 352z"/></svg>