<svg xmlns="http://www.w3.org/2000/svg" viewBox="0 0 640 640"><!--! Font Awesome Pro 7.2.0 by @fontawesome - https://fontawesome.com License - https://fontawesome.com/license (Commercial License) Copyright 2026 Fonticons, Inc. --><path fill="currentColor" d="M576.2 88C576.2 78.3 570.4 69.5 561.4 65.8C552.4 62.1 542.1 64.2 535.2 71L483.4 122.8C382.8 39.3 233.3 44.7 139.1 139C95.9 182.2 71.3 237.1 65.5 293.5C64.1 306.7 73.7 318.5 86.9 319.9C100.1 321.3 111.9 311.7 113.2 298.5C117.9 252.6 137.9 208.1 173 173C248.5 97.5 367.6 92.2 449.2 157L399.1 207C392.2 213.9 390.2 224.2 393.9 233.2C397.6 242.2 406.4 248 416.1 248L552.2 248C565.5 248 576.2 237.3 576.2 224L576.2 88zM501.1 173L528.2 145.9L528.2 200L474.1 200L501.1 173zM574.7 346.6C576.1 333.4 566.5 321.6 553.3 320.3C540.1 319 528.3 328.5 527 341.7C522.3 387.5 502.3 432.1 467.2 467.2C391.7 542.7 272.6 548 191 483.2L241.1 433C248 426.1 250 415.8 246.3 406.8C242.6 397.8 233.8 392 224.1 392L88 392C74.7 392 64 402.7 64 416L64 552C64 561.7 69.8 570.5 78.8 574.2C87.8 577.9 98.1 575.8 105 569L156.8 517.2C257.4 600.7 406.9 595.3 501.1 501C544.3 457.8 568.9 402.9 574.7 346.5zM112 494.1L112 440L166.1 440L112 494.1z"/></svg>