<svg xmlns="http://www.w3.org/2000/svg" viewBox="0 0 640 640"><!--! Font Awesome Pro 7.2.0 by @fontawesome - https://fontawesome.com License - https://fontawesome.com/license (Commercial License) Copyright 2026 Fonticons, Inc. --><path fill="currentColor" d="M207.1 546.3L546.5 206.9L433.4 93.8L399.5 127.7L450.4 178.6C459.8 188 459.8 203.2 450.4 212.5C441 221.8 425.8 221.9 416.5 212.5L365.6 161.6L320.3 206.9L348.6 235.2C358 244.6 358 259.8 348.6 269.1C339.2 278.4 324 278.5 314.7 269.1L286.4 240.8L241.1 286.1L292 337C301.4 346.4 301.4 361.6 292 370.9C282.6 380.2 267.4 380.3 258.1 370.9L207.2 320L161.9 365.3L190.2 393.6C199.6 403 199.6 418.2 190.2 427.5C180.8 436.8 165.6 436.9 156.3 427.5L127.9 399.2L94 433.1L207.1 546.3zM241 580.2C222.3 598.9 191.9 598.9 173.1 580.2L60.1 467.1C41.4 448.4 41.4 418 60.1 399.2L399.5 59.8C418.2 41.1 448.6 41.1 467.4 59.8L580.5 172.9C599.2 191.6 599.2 222 580.5 240.8L241.1 580.2z"/></svg>