<svg xmlns="http://www.w3.org/2000/svg" viewBox="0 0 640 640"><!--! Font Awesome Pro 7.2.0 by @fontawesome - https://fontawesome.com License - https://fontawesome.com/license (Commercial License) Copyright 2026 Fonticons, Inc. --><path fill="currentColor" d="M247.3 85.4C262.3 71.7 282 64 302.4 64L303.4 64C347.9 64 384 100.1 384 144.6C384 166 375.5 186.5 360.4 201.6L153.5 408.4C147.4 414.5 144 422.8 144 431.4C144 449.4 158.6 464 176.6 464C185.2 464 193.5 460.6 199.6 454.5L438.5 215.6C453.6 200.5 474.1 192 495.5 192C540 192 576.1 228.1 576.1 272.6C576.1 294 567.6 314.5 552.5 329.6L448.2 433.8C437.8 444.1 432 458.2 432 472.8C432 503.3 456.7 528 487.2 528L491.6 528C497.2 528 502.8 527.1 508.2 525.3L544.4 513.2C557 509 570.6 515.8 574.8 528.4C579 541 572.2 554.6 559.6 558.8L523.4 570.9C513.2 574.3 502.4 576.1 491.6 576.1L487.2 576.1C430.2 576.1 384 529.9 384 472.9C384 445.5 394.9 419.3 414.2 399.9L518.5 295.6C524.6 289.5 528 281.2 528 272.6C528 254.6 513.4 240 495.4 240C486.8 240 478.5 243.4 472.4 249.5L233.5 488.4C218.4 503.5 197.9 512 176.5 512C132 512 95.9 475.9 95.9 431.4C95.9 410 104.4 389.5 119.5 374.4L326.5 167.6C332.6 161.5 336 153.2 336 144.6C336 126.6 321.4 112 303.4 112L302.4 112C294 112 285.9 115.2 279.7 120.8L104.2 281.7C94.4 290.7 79.2 290 70.3 280.2C61.4 270.4 62 255.2 71.8 246.3L247.3 85.4z"/></svg>