<svg xmlns="http://www.w3.org/2000/svg" viewBox="0 0 640 640"><!--! Font Awesome Pro 7.2.0 by @fontawesome - https://fontawesome.com License - https://fontawesome.com/license (Commercial License) Copyright 2026 Fonticons, Inc. --><path fill="currentColor" d="M423.5 117.2C419 118.9 416 123.2 416 128C416 132.8 419 137.1 423.5 138.8L480 160L501.2 216.5C502.9 221 507.2 224 512 224C516.8 224 521.1 221 522.8 216.5L544 160L600.5 138.8C605 137.1 608 132.8 608 128C608 123.2 605 118.9 600.5 117.2L544 96L522.8 39.5C521.1 35 516.8 32 512 32C507.2 32 502.9 35 501.2 39.5L480 96L423.5 117.2zM199.9 272.5L224 220.4L248.1 272.5C252.9 282.9 261.2 291.2 271.6 296L323.7 320.1L271.6 344.2C261.2 349 252.9 357.3 248.1 367.7L224 419.8L199.9 367.7C195.1 357.3 186.8 349 176.4 344.2L124.3 320L176.5 295.9C186.9 291.1 195.2 282.8 200 272.4zM197.6 163.1L156.4 252.4L67.1 293.6L66.5 293.9C62.6 295.7 54.2 299.6 41.3 305.5C35.6 308.1 32 313.8 32 320C32 326.2 35.6 331.9 41.3 334.5C54.2 340.4 62.5 344.3 66.5 346.1L67.1 346.4L156.4 387.6L197.6 476.9L197.9 477.5C199.7 481.4 203.6 489.8 209.5 502.7C212.1 508.4 217.8 512 224 512C230.2 512 235.9 508.4 238.5 502.7C252.9 471.6 253.6 470 291.6 387.7L380.9 346.5L381.5 346.2C385.4 344.4 393.8 340.5 406.7 334.6C412.4 332 416 326.3 416 320.1C416 313.9 412.4 308.2 406.7 305.6C375.6 291.2 374 290.5 291.7 252.5L250.5 163.2L250.2 162.6C248.4 158.7 244.5 150.3 238.6 137.4C236 131.7 230.3 128.1 224.1 128.1C217.9 128.1 212.2 131.7 209.6 137.4C195.8 167.2 198.1 162.4 197.7 163.2zM448 480L391.5 501.2C387 502.9 384 507.2 384 512C384 516.8 387 521.1 391.5 522.8L448 544L469.2 600.5C470.9 605 475.2 608 480 608C484.8 608 489.1 605 490.8 600.5L512 544L568.5 522.8C573 521.1 576 516.8 576 512C576 507.2 573 502.9 568.5 501.2L512 480L490.8 423.5C489.1 419 484.8 416 480 416C475.2 416 470.9 419 469.2 423.5L448 480z"/></svg>