<svg xmlns="http://www.w3.org/2000/svg" viewBox="0 0 640 640"><!--! Font Awesome Pro 7.2.0 by @fontawesome - https://fontawesome.com License - https://fontawesome.com/license (Commercial License) Copyright 2026 Fonticons, Inc. --><path fill="currentColor" d="M71 169C61.7 159.6 61.7 144.4 71 135C80.3 125.6 95.6 125.7 105 135L273 303C282.4 312.4 282.4 327.6 273 336.9L105 505C95.6 514.4 80.4 514.4 71.1 505C61.8 495.6 61.7 480.4 71 471L222.1 320L71 169zM552 464C565.3 464 576 474.7 576 488C576 501.3 565.3 512 552 512L280 512C266.7 512 256 501.3 256 488C256 474.7 266.7 464 280 464L552 464z"/></svg>