<svg xmlns="http://www.w3.org/2000/svg" viewBox="0 0 640 640"><!--! Font Awesome Pro 7.2.0 by @fontawesome - https://fontawesome.com License - https://fontawesome.com/license (Commercial License) Copyright 2026 Fonticons, Inc. --><path fill="currentColor" d="M176 200L176 144L296 144L296 496L232 496C218.7 496 208 506.7 208 520C208 533.3 218.7 544 232 544L408 544C421.3 544 432 533.3 432 520C432 506.7 421.3 496 408 496L344 496L344 144L464 144L464 200C464 213.3 474.7 224 488 224C501.3 224 512 213.3 512 200L512 136C512 113.9 494.1 96 472 96L168 96C145.9 96 128 113.9 128 136L128 200C128 213.3 138.7 224 152 224C165.3 224 176 213.3 176 200z"/></svg>