<svg xmlns="http://www.w3.org/2000/svg" viewBox="0 0 640 640"><!--! Font Awesome Pro 7.2.0 by @fontawesome - https://fontawesome.com License - https://fontawesome.com/license (Commercial License) Copyright 2026 Fonticons, Inc. --><path fill="currentColor" d="M320 64C271.3 64 228.6 89.6 204.6 128C126.7 129.8 64 193.6 64 272C64 351.5 128.5 416 208 416C217.4 416 226.7 415.1 235.6 413.3C257.3 434.7 287.1 448 320 448C352.9 448 382.7 434.7 404.4 413.3C413.4 415 422.6 416 432 416C511.5 416 576 351.5 576 272C576 193.6 513.4 129.9 435.4 128C411.4 89.6 368.7 64 320 64zM240.3 162.7C254.4 132.7 284.8 112 320 112C355.2 112 385.6 132.7 399.7 162.7C404 171.8 413.5 177.3 423.5 176.4C426.3 176.2 429.1 176 432 176C485 176 528 219 528 272C528 325 485 368 432 368C422 368 412.3 366.5 403.3 363.6C393.7 360.6 383.3 363.9 377.1 371.9C363.9 389 343.2 400 320 400C296.8 400 276.1 389 262.9 371.9C256.8 363.9 246.3 360.6 236.7 363.6C227.7 366.4 218 368 208 368C155 368 112 325 112 272C112 219 155 176 208 176C210.9 176 213.7 176.1 216.5 176.4C226.5 177.3 236 171.8 240.3 162.7zM256 496C256 469.5 234.5 448 208 448C181.5 448 160 469.5 160 496C160 522.5 181.5 544 208 544C234.5 544 256 522.5 256 496zM128 544C128 526.3 113.7 512 96 512C78.3 512 64 526.3 64 544C64 561.7 78.3 576 96 576C113.7 576 128 561.7 128 544z"/></svg>