<svg xmlns="http://www.w3.org/2000/svg" viewBox="0 0 640 640"><!--! Font Awesome Pro 7.2.0 by @fontawesome - https://fontawesome.com License - https://fontawesome.com/license (Commercial License) Copyright 2026 Fonticons, Inc. --><path fill="currentColor" d="M232.2 68.8C236.9 56.3 248.8 48 262.2 48L377.8 48C391.1 48 403.1 56.3 407.8 68.8L424 112L520 112C533.3 112 544 122.7 544 136C544 149.3 533.3 160 520 160L120 160C106.7 160 96 149.3 96 136C96 122.7 106.7 112 120 112L216 112L232.2 68.8zM147.6 516.8L124.7 208L172.9 208L195.5 513.2C196.1 521.6 203.1 528 211.5 528L428.6 528C437 528 443.9 521.5 444.6 513.2L467.2 208L515.3 208L492.4 516.7C489.9 550.1 462.1 576 428.6 576L211.5 576C178 576 150.2 550.1 147.7 516.7z"/></svg>