<svg xmlns="http://www.w3.org/2000/svg" viewBox="0 0 640 640"><!--! Font Awesome Pro 7.2.0 by @fontawesome - https://fontawesome.com License - https://fontawesome.com/license (Commercial License) Copyright 2026 Fonticons, Inc. --><path fill="currentColor" d="M320 80C275.8 80 240 115.8 240 160L240 224L448 224C483.3 224 512 252.7 512 288L512 512C512 547.3 483.3 576 448 576L192 576C156.7 576 128 547.3 128 512L128 288C128 252.7 156.7 224 192 224L192 160C192 89.3 249.3 32 320 32C387.4 32 442.5 84 447.6 150.1C448.6 163.3 438.7 174.9 425.5 175.9C412.3 176.9 400.7 167 399.7 153.8C396.6 112.5 362.1 80 320 80zM176 288L176 512C176 520.8 183.2 528 192 528L448 528C456.8 528 464 520.8 464 512L464 288C464 279.2 456.8 272 448 272L240 272L240 272L192 272L192 272C183.2 272 176 279.2 176 288zM360 424L280 424C266.7 424 256 413.3 256 400C256 386.7 266.7 376 280 376L360 376C373.3 376 384 386.7 384 400C384 413.3 373.3 424 360 424z"/></svg>