<svg xmlns="http://www.w3.org/2000/svg" viewBox="0 0 640 640"><!--! Font Awesome Pro 7.2.0 by @fontawesome - https://fontawesome.com License - https://fontawesome.com/license (Commercial License) Copyright 2026 Fonticons, Inc. --><path fill="currentColor" d="M304 368C401.2 368 480 446.8 480 544L480 552C480 565.3 469.3 576 456 576C442.7 576 432 565.3 432 552L432 544C432 473.3 374.7 416 304 416L208 416C137.3 416 80 473.3 80 544L80 552C80 565.3 69.3 576 56 576C42.7 576 32 565.3 32 552L32 544C32 446.8 110.8 368 208 368L304 368zM528 144C541.3 144 552 154.7 552 168L552 216L600 216C613.3 216 624 226.7 624 240C624 253.3 613.3 264 600 264L552 264L552 312C552 325.3 541.3 336 528 336C514.7 336 504 325.3 504 312L504 264L456 264C442.7 264 432 253.3 432 240C432 226.7 442.7 216 456 216L504 216L504 168C504 154.7 514.7 144 528 144zM256 320C185.3 320 128 262.7 128 192C128 121.3 185.3 64 256 64C326.7 64 384 121.3 384 192C384 262.7 326.7 320 256 320zM256 112C211.8 112 176 147.8 176 192C176 236.2 211.8 272 256 272C300.2 272 336 236.2 336 192C336 147.8 300.2 112 256 112z"/></svg>