<svg xmlns="http://www.w3.org/2000/svg" viewBox="0 0 640 640"><!--! Font Awesome Pro 7.2.0 by @fontawesome - https://fontawesome.com License - https://fontawesome.com/license (Commercial License) Copyright 2026 Fonticons, Inc. --><path fill="currentColor" d="M288 32C291.3 32 294.2 34 295.4 37L310.2 73.8L347 88.6C350 89.8 352 92.8 352 96C352 99.2 350 102.2 347 103.4L310.2 118.2L295.4 155C294.2 158 291.2 160 288 160C284.8 160 281.8 158 280.6 155L265.8 118.2L229 103.4C226 102.2 224 99.2 224 96C224 92.8 226 89.8 229 88.6L265.8 73.8L280.6 37C281.8 34 284.8 32 288 32zM492 112C490.7 112 489.4 112.5 488.5 113.5L381.9 220L420 258.1L526.5 151.5C527.4 150.6 528 149.3 528 148C528 146.7 527.5 145.4 526.5 144.5L495.5 113.5C494.6 112.6 493.3 112 492 112zM113.5 488.5C112.6 489.4 112 490.7 112 492C112 493.3 112.5 494.6 113.5 495.5L144.5 526.5C145.4 527.4 146.7 528 148 528C149.3 528 150.6 527.5 151.5 526.5L386.1 292L348 253.9L113.5 488.5zM454.6 79.5C464.5 69.6 478 64 492 64C506 64 519.5 69.6 529.5 79.5L560.5 110.5C570.4 120.5 576 134 576 148C576 162 570.4 175.5 560.5 185.5L185.5 560.5C175.5 570.4 162 576 148 576C134 576 120.5 570.4 110.5 560.5L79.5 529.5C69.6 519.5 64 506 64 492C64 478 69.6 464.5 79.5 454.5L454.5 79.5zM142.7 105.7L164.2 155.8L214.3 177.3C220.2 179.8 224 185.6 224 192C224 198.4 220.2 204.2 214.3 206.7L164.2 228.2L142.7 278.3C140.2 284.2 134.4 288 128 288C121.6 288 115.8 284.2 113.3 278.3L91.8 228.2L41.7 206.7C35.8 204.2 32 198.4 32 192C32 185.6 35.8 179.8 41.7 177.3L91.8 155.8L113.3 105.7C115.8 99.8 121.6 96 128 96C134.4 96 140.2 99.8 142.7 105.7zM510.7 377.7L532.2 427.8L582.3 449.3C588.2 451.8 592 457.6 592 464C592 470.4 588.2 476.2 582.3 478.7L532.2 500.2L510.7 550.3C508.2 556.2 502.4 560 496 560C489.6 560 483.8 556.2 481.3 550.3L459.8 500.2L409.7 478.7C403.8 476.2 400 470.4 400 464C400 457.6 403.8 451.8 409.7 449.3L459.8 427.8L481.3 377.7C483.8 371.8 489.6 368 496 368C502.4 368 508.2 371.8 510.7 377.7z"/></svg>