<svg width="510" height="302" fill="none" xmlns="http://www.w3.org/2000/svg"><path d="M0 6a6 6 0 0 1 6-6h498a6 6 0 0 1 6 6v290a6 6 0 0 1-6 6H6a6 6 0 0 1-6-6V6Z" fill="#fff"/><path d="M33.614 53h10.707v-2.485h-7.743V46.05h7.127v-2.485h-7.127V39.12h7.679v-2.485H33.614V53Zm16.431-7.191c0-1.774 1.071-2.797 2.597-2.797 1.494 0 2.39.983 2.39 2.621V53h2.892v-7.814c.008-2.94-1.67-4.618-4.203-4.618-1.838 0-3.1.878-3.66 2.245h-.143v-2.086h-2.765V53h2.892v-7.191Zm16.156 12.049c3.316 0 5.761-1.518 5.761-4.658V40.727H69.11v2.03h-.16c-.44-.887-1.358-2.19-3.524-2.19-2.836 0-5.065 2.222-5.065 6.257 0 4.003 2.229 6 5.057 6 2.102 0 3.085-1.126 3.532-2.03h.144v2.326c0 1.806-1.199 2.549-2.845 2.549-1.742 0-2.508-.823-2.86-1.542l-2.605.63c.528 1.719 2.293 3.101 5.417 3.101Zm.024-7.303c-1.91 0-2.916-1.486-2.916-3.747 0-2.23.99-3.867 2.916-3.867 1.862 0 2.885 1.542 2.885 3.867 0 2.34-1.039 3.747-2.885 3.747ZM74.927 53h2.892V40.727h-2.892V53Zm1.454-14.015c.919 0 1.67-.703 1.67-1.566 0-.87-.751-1.574-1.67-1.574-.927 0-1.678.703-1.678 1.574 0 .863.75 1.566 1.678 1.566Zm7.305 6.824c0-1.774 1.07-2.797 2.596-2.797 1.495 0 2.39.983 2.39 2.621V53h2.892v-7.814c.008-2.94-1.67-4.618-4.203-4.618-1.838 0-3.1.878-3.66 2.245h-.143v-2.086h-2.765V53h2.893v-7.191Zm16.251 7.43c2.861 0 4.826-1.398 5.338-3.53l-2.701-.305c-.391 1.04-1.35 1.582-2.597 1.582-1.87 0-3.108-1.23-3.132-3.331h8.55v-.887c0-4.307-2.589-6.2-5.61-6.2-3.515 0-5.808 2.58-5.808 6.367 0 3.852 2.261 6.305 5.96 6.305Zm-3.084-7.534c.088-1.566 1.247-2.884 2.973-2.884 1.662 0 2.78 1.214 2.796 2.884h-5.769Zm16.422 7.535c2.86 0 4.826-1.399 5.337-3.532l-2.7-.303c-.392 1.038-1.351 1.581-2.597 1.581-1.87 0-3.108-1.23-3.132-3.331h8.549v-.887c0-4.307-2.589-6.2-5.609-6.2-3.516 0-5.809 2.58-5.809 6.367 0 3.852 2.261 6.305 5.961 6.305Zm-3.084-7.535c.088-1.566 1.246-2.884 2.972-2.884 1.662 0 2.781 1.214 2.797 2.884h-5.769ZM121.179 53h2.892v-7.215c0-1.558 1.175-2.66 2.765-2.66.487 0 1.095.087 1.342.167v-2.66a6.94 6.94 0 0 0-1.038-.08c-1.407 0-2.581.798-3.029 2.22h-.127v-2.045h-2.805V53Zm8.921 0h2.892V40.727H130.1V53Zm1.454-14.015c.919 0 1.67-.703 1.67-1.566 0-.87-.751-1.574-1.67-1.574-.927 0-1.678.703-1.678 1.574 0 .863.751 1.566 1.678 1.566Zm7.305 6.824c0-1.774 1.071-2.797 2.597-2.797 1.494 0 2.389.983 2.389 2.621V53h2.892v-7.814c.008-2.94-1.67-4.618-4.203-4.618-1.837 0-3.1.878-3.659 2.245h-.144v-2.086h-2.764V53h2.892v-7.191Zm16.156 12.049c3.316 0 5.761-1.518 5.761-4.658V40.727h-2.853v2.03h-.16c-.439-.887-1.358-2.19-3.523-2.19-2.837 0-5.066 2.222-5.066 6.257 0 4.003 2.229 6 5.058 6 2.101 0 3.084-1.126 3.531-2.03h.144v2.326c0 1.806-1.198 2.549-2.844 2.549-1.742 0-2.509-.823-2.861-1.542l-2.604.63c.527 1.719 2.293 3.101 5.417 3.101Zm.024-7.303c-1.91 0-2.916-1.486-2.916-3.747 0-2.23.99-3.867 2.916-3.867 1.862 0 2.884 1.542 2.884 3.867 0 2.34-1.038 3.747-2.884 3.747Zm28.417-8.398c-.504-3.635-3.3-5.744-6.928-5.744-4.275 0-7.495 3.116-7.495 8.405 0 5.282 3.181 8.406 7.495 8.406 3.891 0 6.472-2.517 6.928-5.641l-2.989-.016c-.375 1.917-1.941 2.996-3.899 2.996-2.653 0-4.554-1.99-4.554-5.745 0-3.691 1.885-5.745 4.562-5.745 1.99 0 3.548 1.127 3.891 3.084h2.989Zm6.118 11.09c1.926 0 3.076-.902 3.603-1.933h.096V53h2.781v-8.214c0-3.244-2.645-4.218-4.986-4.218-2.581 0-4.562 1.15-5.201 3.387l2.7.384c.288-.84 1.103-1.558 2.517-1.558 1.342 0 2.077.687 2.077 1.893v.048c0 .831-.87.871-3.036 1.103-2.381.256-4.658.967-4.658 3.731 0 2.413 1.766 3.692 4.107 3.692Zm.751-2.125c-1.207 0-2.069-.551-2.069-1.614 0-1.11.966-1.574 2.261-1.758.759-.103 2.277-.295 2.652-.599v1.446c0 1.367-1.102 2.525-2.844 2.525Zm11.53-5.313c0-1.774 1.07-2.797 2.596-2.797 1.495 0 2.389.983 2.389 2.621V53h2.893v-7.814c.008-2.94-1.67-4.618-4.203-4.618-1.838 0-3.1.878-3.659 2.245h-.144v-2.086h-2.765V53h2.893v-7.191Zm15.372 7.407c2.11 0 3.061-1.255 3.516-2.15h.176V53h2.844V36.636h-2.9v6.12h-.12c-.439-.886-1.342-2.188-3.508-2.188-2.836 0-5.065 2.22-5.065 6.312 0 4.043 2.165 6.336 5.057 6.336Zm.807-2.373c-1.909 0-2.916-1.678-2.916-3.98 0-2.285.991-3.922 2.916-3.922 1.862 0 2.885 1.542 2.885 3.923 0 2.38-1.039 3.979-2.885 3.979ZM226.846 53h2.892V40.727h-2.892V53Zm1.454-14.015c.919 0 1.67-.703 1.67-1.566 0-.87-.751-1.574-1.67-1.574-.927 0-1.678.703-1.678 1.574 0 .863.751 1.566 1.678 1.566Zm8.967 14.23c2.109 0 3.06-1.254 3.515-2.149h.176V53h2.844V36.636h-2.9v6.12h-.12c-.439-.886-1.342-2.188-3.507-2.188-2.837 0-5.066 2.22-5.066 6.312 0 4.043 2.165 6.336 5.058 6.336Zm.807-2.372c-1.91 0-2.917-1.678-2.917-3.98 0-2.285.991-3.922 2.917-3.922 1.861 0 2.884 1.542 2.884 3.923 0 2.38-1.039 3.979-2.884 3.979Zm12.342 2.405c1.926 0 3.076-.903 3.604-1.934h.096V53h2.78v-8.214c0-3.244-2.645-4.218-4.986-4.218-2.58 0-4.562 1.15-5.201 3.387l2.7.384c.288-.84 1.103-1.558 2.517-1.558 1.343 0 2.078.687 2.078 1.893v.048c0 .831-.871.871-3.036 1.103-2.382.256-4.659.967-4.659 3.731 0 2.413 1.766 3.692 4.107 3.692Zm.751-2.126c-1.206 0-2.069-.551-2.069-1.614 0-1.11.967-1.574 2.261-1.758.759-.103 2.277-.295 2.653-.599v1.446c0 1.367-1.103 2.525-2.845 2.525Zm14.766-10.395h-2.421v-2.94h-2.893v2.94h-1.741v2.238h1.741v6.823c-.015 2.31 1.662 3.444 3.836 3.38a5.816 5.816 0 0 0 1.702-.288l-.488-2.261c-.16.04-.487.112-.847.112-.727 0-1.31-.256-1.31-1.422v-6.344h2.421v-2.238Zm7.72 12.513c2.861 0 4.826-1.399 5.338-3.532l-2.701-.303c-.392 1.038-1.35 1.581-2.597 1.581-1.869 0-3.108-1.23-3.132-3.331h8.549v-.887c0-4.307-2.588-6.2-5.609-6.2-3.515 0-5.808 2.58-5.808 6.367 0 3.852 2.261 6.305 5.96 6.305Zm-3.084-7.535c.088-1.566 1.247-2.884 2.972-2.884 1.662 0 2.781 1.214 2.797 2.884h-5.769Zm20.688-1.734c-.399-2.077-2.061-3.403-4.937-3.403-2.957 0-4.97 1.454-4.962 3.723-.008 1.79 1.094 2.972 3.451 3.46l2.094.439c1.126.248 1.654.703 1.654 1.398 0 .84-.911 1.47-2.285 1.47-1.327 0-2.19-.575-2.437-1.678l-2.821.272c.36 2.253 2.253 3.588 5.266 3.588 3.068 0 5.233-1.59 5.241-3.915-.008-1.75-1.135-2.82-3.452-3.324l-2.093-.448c-1.247-.28-1.742-.71-1.734-1.422-.008-.83.911-1.406 2.117-1.406 1.335 0 2.038.727 2.262 1.534l2.636-.288Z" fill="#4D5C6C"/><path fill="#fff" d="M32 73h167v197H32z"/><path d="M41.337 83.818h-1.522v7.478h-.094l-5.18-7.478h-1.422V94h1.536v-7.467h.094L39.925 94h1.412V83.818ZM45.68 94.17c1.262 0 1.973-.641 2.257-1.213h.06V94h1.451v-5.071c0-2.222-1.75-2.665-2.963-2.665-1.382 0-2.655.557-3.152 1.95l1.397.317c.219-.542.776-1.064 1.775-1.064.96 0 1.452.502 1.452 1.368v.034c0 .542-.557.532-1.93.691-1.446.17-2.928.547-2.928 2.282 0 1.502 1.129 2.327 2.58 2.327Zm.323-1.193c-.84 0-1.447-.378-1.447-1.114 0-.795.706-1.079 1.566-1.193.482-.065 1.626-.194 1.84-.408v.985c0 .905-.721 1.73-1.96 1.73ZM51.429 94h1.486v-4.708c0-1.03.721-1.745 1.566-1.745.826 0 1.398.547 1.398 1.377V94h1.481v-4.867c0-.92.562-1.586 1.531-1.586.786 0 1.432.437 1.432 1.472V94h1.487v-5.12c0-1.746-.975-2.616-2.357-2.616-1.099 0-1.924.527-2.292 1.343h-.08c-.332-.836-1.033-1.343-2.053-1.343-1.009 0-1.76.502-2.078 1.343h-.094v-1.243h-1.427V94Zm15.664.154c1.666 0 2.844-.82 3.182-2.063l-1.407-.254c-.268.721-.915 1.09-1.76 1.09-1.273 0-2.128-.826-2.168-2.298h5.43v-.527c0-2.759-1.651-3.838-3.381-3.838-2.128 0-3.53 1.62-3.53 3.968 0 2.371 1.382 3.922 3.634 3.922Zm-2.148-4.638c.06-1.084.846-2.024 2.054-2.024 1.153 0 1.909.855 1.914 2.024h-3.968Z" fill="#64778C"/><path d="M45.119 120.818V131h1.461v-7.373h.095l3.003 7.358h1.213l3.003-7.353h.094V131h1.462v-10.182h-1.865l-3.241 7.915h-.12l-3.241-7.915h-1.864Zm14.667 10.351c1.263 0 1.974-.641 2.257-1.213h.06V131h1.451v-5.071c0-2.222-1.75-2.665-2.963-2.665-1.382 0-2.654.557-3.151 1.949l1.397.318c.218-.542.775-1.064 1.774-1.064.96 0 1.452.502 1.452 1.368v.034c0 .542-.557.532-1.929.691-1.447.169-2.928.547-2.928 2.282 0 1.502 1.128 2.327 2.58 2.327Zm.323-1.193c-.84 0-1.447-.378-1.447-1.114 0-.795.706-1.079 1.566-1.193.483-.065 1.626-.194 1.84-.408v.985c0 .905-.72 1.73-1.959 1.73ZM65.534 131h1.487v-4.663c0-1 .77-1.721 1.825-1.721.308 0 .656.055.775.09v-1.422a6.005 6.005 0 0 0-.631-.035c-.895 0-1.66.507-1.94 1.328h-.079v-1.213h-1.437V131Zm5.373 0h1.487v-7.636h-1.487V131Zm.751-8.815c.512 0 .94-.397.94-.885 0-.487-.428-.889-.94-.889-.517 0-.94.402-.94.889 0 .488.423.885.94.885Zm4.958 8.984c1.263 0 1.974-.641 2.257-1.213h.06V131h1.452v-5.071c0-2.222-1.75-2.665-2.964-2.665-1.382 0-2.654.557-3.152 1.949l1.397.318c.22-.542.776-1.064 1.775-1.064.96 0 1.452.502 1.452 1.368v.034c0 .542-.557.532-1.929.691-1.447.169-2.928.547-2.928 2.282 0 1.502 1.128 2.327 2.58 2.327Zm.323-1.193c-.84 0-1.446-.378-1.446-1.114 0-.795.706-1.079 1.566-1.193.482-.065 1.625-.194 1.84-.408v.985c0 .905-.722 1.73-1.96 1.73Zm9.25-9.158V131h1.462v-7.373h.094l3.003 7.358h1.213l3.003-7.353h.094V131h1.462v-10.182h-1.864l-3.242 7.915h-.12l-3.24-7.915h-1.865Zm14.667 10.351c1.263 0 1.974-.641 2.257-1.213h.06V131h1.452v-5.071c0-2.222-1.75-2.665-2.963-2.665-1.382 0-2.655.557-3.152 1.949l1.397.318c.219-.542.775-1.064 1.775-1.064.959 0 1.451.502 1.451 1.368v.034c0 .542-.556.532-1.929.691-1.446.169-2.928.547-2.928 2.282 0 1.502 1.129 2.327 2.58 2.327Zm.324-1.193c-.841 0-1.447-.378-1.447-1.114 0-.795.706-1.079 1.566-1.193.482-.065 1.626-.194 1.839-.408v.985c0 .905-.721 1.73-1.958 1.73Zm6.911-3.51c0-1.218.771-1.914 1.83-1.914 1.024 0 1.635.651 1.635 1.77V131h1.487v-4.857c0-1.904-1.044-2.879-2.615-2.879-1.188 0-1.904.517-2.262 1.343h-.095v-3.789h-1.466V131h1.486v-4.534Zm9.158 4.703c1.263 0 1.974-.641 2.257-1.213h.06V131h1.451v-5.071c0-2.222-1.75-2.665-2.963-2.665-1.382 0-2.654.557-3.152 1.949l1.397.318c.219-.542.776-1.064 1.775-1.064.96 0 1.452.502 1.452 1.368v.034c0 .542-.557.532-1.929.691-1.447.169-2.928.547-2.928 2.282 0 1.502 1.128 2.327 2.58 2.327Zm.323-1.193c-.84 0-1.447-.378-1.447-1.114 0-.795.706-1.079 1.566-1.193.483-.065 1.626-.194 1.84-.408v.985c0 .905-.721 1.73-1.959 1.73Zm6.912-3.51c0-1.218.746-1.914 1.78-1.914 1.009 0 1.62.661 1.62 1.77V131h1.487v-4.857c0-1.889-1.039-2.879-2.6-2.879-1.149 0-1.899.532-2.252 1.343h-.095v-1.243h-1.427V131h1.487v-4.534Zm6.881 4.534h1.486v-7.636h-1.486V131Zm.75-8.815c.512 0 .94-.397.94-.885 0-.487-.428-.889-.94-.889-.517 0-.939.402-.939.889 0 .488.422.885.939.885Z" fill="#37434F"/><path stroke="#D8DFE5" d="M32 106h167v41H32z"/><path d="M45.119 172h1.536v-4.44h5.076V172h1.541v-10.182h-1.541v4.425h-5.076v-4.425h-1.536V172Zm12.493.169c1.263 0 1.974-.641 2.257-1.213h.06V172h1.452v-5.071c0-2.222-1.75-2.665-2.963-2.665-1.383 0-2.655.557-3.152 1.949l1.397.318c.218-.542.775-1.064 1.775-1.064.959 0 1.451.502 1.451 1.368v.034c0 .542-.557.532-1.929.691-1.447.169-2.928.547-2.928 2.282 0 1.502 1.129 2.327 2.58 2.327Zm.323-1.193c-.84 0-1.446-.378-1.446-1.114 0-.795.706-1.079 1.566-1.193.482-.065 1.625-.194 1.84-.408v.985c0 .905-.722 1.73-1.96 1.73Zm6.912-3.51c0-1.218.746-1.914 1.78-1.914 1.01 0 1.62.661 1.62 1.77V172h1.487v-4.857c0-1.889-1.039-2.879-2.6-2.879-1.148 0-1.9.532-2.252 1.343h-.095v-1.243h-1.426V172h1.486v-4.534Zm8.367 0c0-1.218.746-1.914 1.78-1.914 1.01 0 1.62.661 1.62 1.77V172h1.487v-4.857c0-1.889-1.039-2.879-2.6-2.879-1.148 0-1.899.532-2.252 1.343h-.094v-1.243h-1.427V172h1.486v-4.534Zm9.103 4.703c1.263 0 1.974-.641 2.257-1.213h.06V172h1.452v-5.071c0-2.222-1.75-2.665-2.963-2.665-1.382 0-2.655.557-3.152 1.949l1.397.318c.219-.542.775-1.064 1.775-1.064.96 0 1.451.502 1.451 1.368v.034c0 .542-.556.532-1.929.691-1.446.169-2.928.547-2.928 2.282 0 1.502 1.129 2.327 2.58 2.327Zm.323-1.193c-.84 0-1.446-.378-1.446-1.114 0-.795.706-1.079 1.566-1.193.482-.065 1.625-.194 1.84-.408v.985c0 .905-.722 1.73-1.96 1.73Zm6.912-3.51c0-1.218.77-1.914 1.83-1.914 1.024 0 1.635.651 1.635 1.77V172h1.487v-4.857c0-1.904-1.044-2.879-2.615-2.879-1.188 0-1.904.517-2.262 1.343h-.095v-3.789h-1.466V172h1.486v-4.534Zm10.76-5.648V172h1.462v-7.373h.094l3.003 7.358h1.213l3.003-7.353h.094V172h1.462v-10.182h-1.864l-3.242 7.915h-.119l-3.242-7.915h-1.864ZM112.757 172h1.487v-7.636h-1.487V172Zm.751-8.815c.512 0 .939-.397.939-.885 0-.487-.427-.889-.939-.889-.517 0-.94.402-.94.889 0 .488.423.885.94.885Zm4.222-1.367h-1.487V172h1.487v-10.182Zm3.486 0h-1.486V172h1.486v-10.182Zm2 10.182h1.487v-7.636h-1.487V172Zm.751-8.815c.512 0 .939-.397.939-.885 0-.487-.427-.889-.939-.889-.517 0-.94.402-.94.889 0 .488.423.885.94.885Zm6.027 8.969c1.665 0 2.843-.82 3.181-2.063l-1.407-.254c-.268.721-.914 1.089-1.759 1.089-1.273 0-2.128-.825-2.168-2.297h5.429v-.527c0-2.759-1.651-3.838-3.381-3.838-2.128 0-3.53 1.621-3.53 3.968 0 2.371 1.382 3.922 3.635 3.922Zm-2.148-4.638c.06-1.084.845-2.024 2.053-2.024 1.154 0 1.909.855 1.914 2.024h-3.967Zm11.573-.463h-4.515v1.288h4.515v-1.288Zm.426-5.235 3.694 6.185V172h1.531v-3.997l3.694-6.185h-1.745l-2.66 4.629h-.109l-2.66-4.629h-1.745Zm11.324 10.351c1.263 0 1.974-.641 2.257-1.213h.06V172h1.451v-5.071c0-2.222-1.75-2.665-2.963-2.665-1.382 0-2.655.557-3.152 1.949l1.397.318c.219-.542.776-1.064 1.775-1.064.96 0 1.452.502 1.452 1.368v.034c0 .542-.557.532-1.929.691-1.447.169-2.928.547-2.928 2.282 0 1.502 1.128 2.327 2.58 2.327Zm.323-1.193c-.84 0-1.447-.378-1.447-1.114 0-.795.706-1.079 1.566-1.193.483-.065 1.626-.194 1.84-.408v.985c0 .905-.721 1.73-1.959 1.73Zm8.99-6.612h-1.566v-1.83h-1.487v1.83h-1.118v1.193h1.118v4.509c-.005 1.387 1.054 2.058 2.228 2.033.472-.005.79-.094.964-.159l-.268-1.228c-.1.02-.284.065-.522.065-.483 0-.915-.159-.915-1.019v-4.201h1.566v-1.193Zm4.853 7.79c1.666 0 2.844-.82 3.182-2.063l-1.407-.254c-.268.721-.915 1.089-1.76 1.089-1.272 0-2.128-.825-2.167-2.297h5.429v-.527c0-2.759-1.651-3.838-3.381-3.838-2.128 0-3.53 1.621-3.53 3.968 0 2.371 1.382 3.922 3.634 3.922Zm-2.147-4.638c.059-1.084.845-2.024 2.053-2.024 1.153 0 1.909.855 1.914 2.024h-3.967Zm12.795-1.288c-.308-1.188-1.238-1.964-2.888-1.964-1.725 0-2.948.91-2.948 2.262 0 1.084.656 1.805 2.088 2.123l1.292.284c.736.164 1.079.492 1.079.969 0 .592-.631 1.054-1.606 1.054-.89 0-1.461-.383-1.64-1.134l-1.437.219c.249 1.352 1.372 2.113 3.087 2.113 1.845 0 3.122-.979 3.122-2.361 0-1.079-.686-1.745-2.088-2.069l-1.213-.278c-.84-.199-1.203-.482-1.198-.999-.005-.587.632-1.005 1.477-1.005.924 0 1.352.513 1.526 1.025l1.347-.239Z" fill="#37434F"/><path stroke="#D8DFE5" d="M32 147h167v41H32z"/><path d="M45.119 213h1.536v-4.44h4.325v-1.317h-4.325v-3.102h4.777v-1.323H45.12V213Zm9.57-10.182h-1.487V213h1.487v-10.182Zm5.216 10.336c2.153 0 3.56-1.576 3.56-3.937 0-2.377-1.407-3.953-3.56-3.953-2.152 0-3.56 1.576-3.56 3.953 0 2.361 1.408 3.937 3.56 3.937Zm.005-1.248c-1.407 0-2.063-1.228-2.063-2.694 0-1.462.656-2.705 2.063-2.705 1.397 0 2.054 1.243 2.054 2.705 0 1.466-.657 2.694-2.054 2.694ZM65.124 213h1.487v-4.663c0-1 .77-1.721 1.824-1.721.309 0 .657.055.776.09v-1.422a6.002 6.002 0 0 0-.632-.035c-.894 0-1.66.507-1.938 1.328h-.08v-1.213h-1.437V213Zm8.391.154c1.666 0 2.844-.82 3.182-2.063l-1.407-.254c-.269.721-.915 1.089-1.76 1.089-1.273 0-2.128-.825-2.168-2.297h5.43v-.527c0-2.759-1.651-3.838-3.381-3.838-2.128 0-3.53 1.621-3.53 3.968 0 2.371 1.382 3.922 3.634 3.922Zm-2.148-4.638c.06-1.084.846-2.024 2.054-2.024 1.153 0 1.909.855 1.914 2.024h-3.968Zm8.56-.05c0-1.218.746-1.914 1.78-1.914 1.01 0 1.62.661 1.62 1.77V213h1.487v-4.857c0-1.889-1.039-2.879-2.6-2.879-1.148 0-1.899.532-2.252 1.343h-.094v-1.243H78.44V213h1.486v-4.534Zm10.097 4.688c1.805 0 2.974-1.084 3.138-2.57h-1.447c-.19.825-.83 1.312-1.68 1.312-1.258 0-2.069-1.049-2.069-2.714 0-1.636.826-2.665 2.068-2.665.945 0 1.522.597 1.68 1.313h1.448c-.16-1.542-1.417-2.566-3.152-2.566-2.153 0-3.545 1.621-3.545 3.953 0 2.301 1.342 3.937 3.56 3.937Zm8.018 0c1.666 0 2.844-.82 3.182-2.063l-1.407-.254c-.268.721-.914 1.089-1.76 1.089-1.272 0-2.127-.825-2.167-2.297h5.429v-.527c0-2.759-1.65-3.838-3.381-3.838-2.128 0-3.53 1.621-3.53 3.968 0 2.371 1.382 3.922 3.634 3.922Zm-2.147-4.638c.06-1.084.845-2.024 2.053-2.024 1.153 0 1.91.855 1.914 2.024h-3.967Zm10.897-5.698V213h1.462v-7.373h.095l3.002 7.358h1.213l3.003-7.353h.095V213h1.461v-10.182h-1.864l-3.241 7.915h-.12l-3.241-7.915h-1.865Zm14.668 10.351c1.263 0 1.974-.641 2.257-1.213h.06V213h1.451v-5.071c0-2.222-1.75-2.665-2.963-2.665-1.382 0-2.655.557-3.152 1.949l1.397.318c.219-.542.776-1.064 1.775-1.064.96 0 1.452.502 1.452 1.368v.034c0 .542-.557.532-1.929.691-1.447.169-2.928.547-2.928 2.282 0 1.502 1.128 2.327 2.58 2.327Zm.323-1.193c-.84 0-1.447-.378-1.447-1.114 0-.795.706-1.079 1.566-1.193.483-.065 1.626-.194 1.84-.408v.985c0 .905-.721 1.73-1.959 1.73Zm5.425 1.024h1.487v-4.663c0-1 .77-1.721 1.824-1.721.309 0 .657.055.776.09v-1.422a6.008 6.008 0 0 0-.631-.035c-.895 0-1.661.507-1.939 1.328h-.08v-1.213h-1.437V213Zm5.373 0h1.487v-7.636h-1.487V213Zm.751-8.815c.512 0 .94-.397.94-.885 0-.487-.428-.889-.94-.889-.517 0-.94.402-.94.889 0 .488.423.885.94.885Zm5.937 11.838c1.944 0 3.446-.89 3.446-2.854v-7.805h-1.457v1.238h-.109c-.264-.473-.791-1.338-2.213-1.338-1.844 0-3.201 1.457-3.201 3.888 0 2.436 1.387 3.734 3.191 3.734 1.402 0 1.944-.791 2.213-1.278h.094v1.501c0 1.199-.82 1.716-1.949 1.716-1.238 0-1.72-.622-1.983-1.059l-1.278.527c.403.934 1.422 1.73 3.246 1.73Zm-.015-4.37c-1.327 0-2.018-1.019-2.018-2.521 0-1.467.676-2.605 2.018-2.605 1.298 0 1.994 1.059 1.994 2.605 0 1.576-.711 2.521-1.994 2.521Zm8.671 1.501c2.153 0 3.56-1.576 3.56-3.937 0-2.377-1.407-3.953-3.56-3.953s-3.56 1.576-3.56 3.953c0 2.361 1.407 3.937 3.56 3.937Zm.005-1.248c-1.407 0-2.063-1.228-2.063-2.694 0-1.462.656-2.705 2.063-2.705 1.397 0 2.053 1.243 2.053 2.705 0 1.466-.656 2.694-2.053 2.694Zm6.7-9.088h-1.486V213h1.486v-10.182Zm4.859 10.331c1.392 0 1.939-.85 2.207-1.337h.124V213h1.452v-10.182h-1.486v3.784h-.09c-.268-.473-.775-1.338-2.197-1.338-1.845 0-3.202 1.457-3.202 3.933 0 2.471 1.337 3.952 3.192 3.952Zm.328-1.268c-1.327 0-2.019-1.168-2.019-2.699 0-1.517.677-2.655 2.019-2.655 1.298 0 1.994 1.059 1.994 2.655 0 1.606-.711 2.699-1.994 2.699Z" fill="#37434F"/><path stroke="#D8DFE5" d="M32 188h167v41H32z"/><path d="M53.337 243.818h-1.522v7.477h-.094l-5.18-7.477h-1.422V254h1.536v-7.467h.094L51.925 254h1.412v-10.182ZM55.458 254h1.487v-7.636h-1.487V254Zm.751-8.815c.512 0 .94-.397.94-.885 0-.487-.428-.889-.94-.889-.517 0-.94.402-.94.889 0 .488.423.885.94.885Zm4.222-1.367h-1.486V254h1.486v-10.182Zm5.291 10.336c1.666 0 2.844-.82 3.182-2.063l-1.407-.254c-.269.721-.915 1.089-1.76 1.089-1.273 0-2.128-.825-2.168-2.297H69v-.527c0-2.759-1.651-3.838-3.381-3.838-2.128 0-3.53 1.621-3.53 3.968 0 2.371 1.382 3.922 3.634 3.922Zm-2.148-4.638c.06-1.084.846-2.024 2.054-2.024 1.153 0 1.909.855 1.914 2.024h-3.968Zm12.796-1.288c-.308-1.188-1.238-1.964-2.889-1.964-1.725 0-2.948.91-2.948 2.262 0 1.084.657 1.805 2.088 2.123l1.293.284c.736.164 1.079.492 1.079.969 0 .592-.631 1.054-1.606 1.054-.89 0-1.462-.383-1.64-1.134l-1.437.219c.248 1.352 1.372 2.113 3.087 2.113 1.844 0 3.122-.979 3.122-2.361 0-1.079-.686-1.745-2.088-2.069l-1.213-.278c-.84-.199-1.203-.482-1.198-.999-.005-.587.631-1.005 1.476-1.005.925 0 1.353.513 1.527 1.025l1.347-.239ZM81.978 254h1.536v-3.58h2.088c2.362 0 3.53-1.426 3.53-3.306 0-1.874-1.158-3.296-3.525-3.296h-3.629V254Zm1.536-4.882v-3.982h1.93c1.52 0 2.142.825 2.142 1.978 0 1.154-.621 2.004-2.123 2.004h-1.949Zm10.495 5.036c1.666 0 2.844-.82 3.182-2.063l-1.407-.254c-.268.721-.915 1.089-1.76 1.089-1.273 0-2.128-.825-2.168-2.297h5.43v-.527c0-2.759-1.651-3.838-3.381-3.838-2.128 0-3.53 1.621-3.53 3.968 0 2.371 1.382 3.922 3.634 3.922Zm-2.147-4.638c.06-1.084.845-2.024 2.053-2.024 1.153 0 1.909.855 1.914 2.024h-3.967Zm7.073 7.348h1.486v-4.052h.09c.268.487.815 1.337 2.207 1.337 1.85 0 3.192-1.481 3.192-3.952 0-2.476-1.362-3.933-3.207-3.933-1.417 0-1.929.865-2.192 1.338h-.124v-1.238h-1.452v10.5Zm1.457-6.682c0-1.596.696-2.655 1.993-2.655 1.347 0 2.024 1.138 2.024 2.655 0 1.531-.696 2.699-2.024 2.699-1.278 0-1.993-1.093-1.993-2.699Zm7.183 6.682h1.487v-4.052h.089c.269.487.816 1.337 2.208 1.337 1.849 0 3.192-1.481 3.192-3.952 0-2.476-1.363-3.933-3.207-3.933-1.417 0-1.929.865-2.193 1.338h-.124v-1.238h-1.452v10.5Zm1.457-6.682c0-1.596.696-2.655 1.994-2.655 1.347 0 2.023 1.138 2.023 2.655 0 1.531-.696 2.699-2.023 2.699-1.278 0-1.994-1.093-1.994-2.699Zm10.475 3.972c1.666 0 2.844-.82 3.182-2.063l-1.407-.254c-.268.721-.915 1.089-1.76 1.089-1.273 0-2.128-.825-2.167-2.297h5.429v-.527c0-2.759-1.651-3.838-3.381-3.838-2.128 0-3.53 1.621-3.53 3.968 0 2.371 1.382 3.922 3.634 3.922Zm-2.147-4.638c.059-1.084.845-2.024 2.053-2.024 1.153 0 1.909.855 1.914 2.024h-3.967Zm7.073 4.484h1.486v-4.663c0-1 .771-1.721 1.825-1.721.308 0 .656.055.776.09v-1.422a6.028 6.028 0 0 0-.632-.035c-.895 0-1.66.507-1.939 1.328h-.079v-1.213h-1.437V254Zm9.389-7.636h-1.566v-1.83h-1.487v1.83h-1.118v1.193h1.118v4.509c-.005 1.387 1.054 2.058 2.227 2.033.473-.005.791-.094.965-.159l-.269-1.228c-.099.02-.283.065-.522.065-.482 0-.914-.159-.914-1.019v-4.201h1.566v-1.193Zm1.644 7.636h1.487v-4.663c0-1 .77-1.721 1.824-1.721.308 0 .656.055.776.09v-1.422a6.012 6.012 0 0 0-.632-.035c-.895 0-1.66.507-1.939 1.328h-.079v-1.213h-1.437V254Zm8.316.154c2.153 0 3.56-1.576 3.56-3.937 0-2.377-1.407-3.953-3.56-3.953-2.152 0-3.559 1.576-3.559 3.953 0 2.361 1.407 3.937 3.559 3.937Zm.005-1.248c-1.407 0-2.063-1.228-2.063-2.694 0-1.462.656-2.705 2.063-2.705 1.397 0 2.054 1.243 2.054 2.705 0 1.466-.657 2.694-2.054 2.694Zm10.052-2.073c.005 1.298-.96 1.914-1.795 1.914-.92 0-1.556-.666-1.556-1.705v-4.678h-1.487v4.857c0 1.894 1.039 2.878 2.506 2.878 1.148 0 1.929-.606 2.282-1.421h.079V254h1.462v-7.636h-1.491v4.469Zm7.053-4.469h-1.566v-1.83h-1.487v1.83h-1.118v1.193h1.118v4.509c-.004 1.387 1.054 2.058 2.228 2.033.472-.005.79-.094.964-.159l-.268-1.228c-.1.02-.284.065-.522.065-.482 0-.915-.159-.915-1.019v-4.201h1.566v-1.193Z" fill="#37434F"/><path stroke="#D8DFE5" d="M32 229h167v41H32z"/><path fill="#fff" d="M199 73h208v197H199z"/><path d="M200.119 94h6.443v-1.322h-4.907V89.56h4.514v-1.317h-4.514V85.14h4.847v-1.323h-6.383V94Zm8.316 0h1.486v-4.708c0-1.03.721-1.745 1.566-1.745.826 0 1.397.547 1.397 1.377V94h1.482v-4.867c0-.92.562-1.586 1.531-1.586.786 0 1.432.437 1.432 1.472V94h1.487v-5.12c0-1.746-.975-2.616-2.357-2.616-1.099 0-1.924.527-2.292 1.343h-.079c-.334-.836-1.035-1.343-2.054-1.343-1.009 0-1.76.502-2.078 1.343h-.094v-1.243h-1.427V94Zm14.595.169c1.263 0 1.974-.641 2.257-1.213h.06V94h1.452v-5.071c0-2.222-1.75-2.665-2.963-2.665-1.383 0-2.655.557-3.152 1.95l1.397.317c.218-.542.775-1.064 1.774-1.064.96 0 1.452.502 1.452 1.368v.034c0 .542-.557.532-1.929.691-1.447.17-2.928.547-2.928 2.282 0 1.502 1.128 2.327 2.58 2.327Zm.323-1.193c-.84 0-1.446-.378-1.446-1.114 0-.795.706-1.079 1.566-1.193.482-.065 1.625-.194 1.839-.408v.985c0 .905-.721 1.73-1.959 1.73ZM228.779 94h1.486v-7.636h-1.486V94Zm.75-8.815c.512 0 .94-.397.94-.885 0-.487-.428-.89-.94-.89-.517 0-.939.403-.939.89 0 .488.422.885.939.885Zm4.222-1.367h-1.486V94h1.486V83.818ZM211.999 131h1.487v-4.708c0-1.029.721-1.745 1.566-1.745.825 0 1.397.547 1.397 1.377V131h1.481v-4.867c0-.92.562-1.586 1.532-1.586.785 0 1.431.437 1.431 1.471V131h1.487v-5.121c0-1.745-.974-2.615-2.357-2.615-1.098 0-1.924.527-2.291 1.343h-.08c-.333-.836-1.034-1.343-2.053-1.343-1.01 0-1.76.502-2.078 1.343h-.095v-1.243h-1.427V131Zm14.596.169c1.262 0 1.973-.641 2.257-1.213h.059V131h1.452v-5.071c0-2.222-1.75-2.665-2.963-2.665-1.382 0-2.655.557-3.152 1.949l1.397.318c.219-.542.776-1.064 1.775-1.064.959 0 1.452.502 1.452 1.368v.034c0 .542-.557.532-1.929.691-1.447.169-2.929.547-2.929 2.282 0 1.502 1.129 2.327 2.581 2.327Zm.323-1.193c-.84 0-1.447-.378-1.447-1.114 0-.795.706-1.079 1.566-1.193.482-.065 1.626-.194 1.84-.408v.985c0 .905-.721 1.73-1.959 1.73Zm6.912-3.51c0-1.218.77-1.914 1.829-1.914 1.024 0 1.636.651 1.636 1.77V131h1.486v-4.857c0-1.904-1.044-2.879-2.615-2.879-1.188 0-1.904.517-2.262 1.343h-.094v-3.789h-1.467V131h1.487v-4.534Zm9.157 4.703c1.263 0 1.974-.641 2.257-1.213h.06V131h1.452v-5.071c0-2.222-1.75-2.665-2.963-2.665-1.382 0-2.655.557-3.152 1.949l1.397.318c.218-.542.775-1.064 1.774-1.064.96 0 1.452.502 1.452 1.368v.034c0 .542-.557.532-1.929.691-1.447.169-2.928.547-2.928 2.282 0 1.502 1.129 2.327 2.58 2.327Zm.323-1.193c-.84 0-1.446-.378-1.446-1.114 0-.795.706-1.079 1.566-1.193.482-.065 1.625-.194 1.839-.408v.985c0 .905-.721 1.73-1.959 1.73Zm6.912-3.51c0-1.218.746-1.914 1.78-1.914 1.009 0 1.621.661 1.621 1.77V131h1.486v-4.857c0-1.889-1.039-2.879-2.6-2.879-1.148 0-1.899.532-2.252 1.343h-.095v-1.243h-1.426V131h1.486v-4.534Zm6.881 4.534h1.486v-7.636h-1.486V131Zm.751-8.815c.512 0 .939-.397.939-.885 0-.487-.427-.889-.939-.889-.518 0-.94.402-.94.889 0 .488.422.885.94.885Zm8.865 11.584c1.149 0 2.476-.313 3.092-.601l-.348-1.089c-.417.149-1.566.512-2.679.512-3.346 0-5.141-1.845-5.141-5.146 0-3.162 1.775-5.205 4.957-5.205 2.908 0 4.643 1.869 4.638 4.395.005 2.158-.273 3.127-1.178 3.127-.512 0-.795-.418-.795-.94v-4.613h-1.223v.557h-.065c-.149-.438-1.014-.831-2.053-.706-1.437.169-2.67 1.357-2.67 3.316 0 2.043 1.044 3.41 2.719 3.475 1.134.05 1.87-.477 2.103-1.064h.06c.119.8.984 1.153 1.835 1.124 2.122-.04 2.525-2.128 2.525-4.226 0-2.993-2.048-5.598-5.846-5.598-3.983 0-6.324 2.431-6.329 6.348.005 4.032 2.287 6.334 6.398 6.334Zm-.457-4.136c-1.298 0-1.745-1.114-1.75-2.317.005-1.143.646-2.053 1.77-2.053 1.218 0 1.765.537 1.769 2.048.005 1.551-.497 2.322-1.789 2.322Zm7.876 1.367h1.486v-7.636h-1.486V131Zm.751-8.815c.512 0 .939-.397.939-.885 0-.487-.427-.889-.939-.889-.517 0-.94.402-.94.889 0 .488.423.885.94.885Zm4.222 4.281c0-1.218.746-1.914 1.78-1.914 1.009 0 1.62.661 1.62 1.77V131h1.487v-4.857c0-1.889-1.039-2.879-2.6-2.879-1.149 0-1.899.532-2.252 1.343h-.095v-1.243h-1.427V131h1.487v-4.534Zm7 4.534h1.451v-1.188h.125c.268.487.815 1.337 2.207 1.337 1.85 0 3.192-1.481 3.192-3.952 0-2.476-1.362-3.933-3.207-3.933-1.417 0-1.929.865-2.192 1.338h-.09v-3.784h-1.486V131Zm1.456-3.818c0-1.596.696-2.655 1.994-2.655 1.347 0 2.024 1.138 2.024 2.655 0 1.531-.697 2.699-2.024 2.699-1.278 0-1.994-1.093-1.994-2.699Zm10.405 3.972c2.152 0 3.559-1.576 3.559-3.937 0-2.377-1.407-3.953-3.559-3.953-2.153 0-3.56 1.576-3.56 3.953 0 2.361 1.407 3.937 3.56 3.937Zm.005-1.248c-1.407 0-2.063-1.228-2.063-2.694 0-1.462.656-2.705 2.063-2.705 1.397 0 2.053 1.243 2.053 2.705 0 1.466-.656 2.694-2.053 2.694Zm6.073-6.542h-1.631l2.346 3.818-2.376 3.818h1.631l1.715-2.854 1.72 2.854h1.626l-2.401-3.818 2.381-3.818h-1.626l-1.7 2.973-1.685-2.973Zm7.517 7.73a.997.997 0 0 0 .994-.994 1 1 0 0 0-.994-.989.996.996 0 0 0-.995.989c0 .552.448.994.995.994Zm6.202.06c1.804 0 2.973-1.084 3.137-2.57h-1.447c-.189.825-.83 1.312-1.68 1.312-1.258 0-2.069-1.049-2.069-2.714 0-1.636.826-2.665 2.069-2.665.944 0 1.521.597 1.68 1.313h1.447c-.159-1.542-1.417-2.566-3.152-2.566-2.153 0-3.545 1.621-3.545 3.953 0 2.301 1.342 3.937 3.56 3.937Zm7.943 0c2.153 0 3.56-1.576 3.56-3.937 0-2.377-1.407-3.953-3.56-3.953s-3.56 1.576-3.56 3.953c0 2.361 1.407 3.937 3.56 3.937Zm.005-1.248c-1.407 0-2.063-1.228-2.063-2.694 0-1.462.656-2.705 2.063-2.705 1.397 0 2.053 1.243 2.053 2.705 0 1.466-.656 2.694-2.053 2.694Zm5.214 1.094h1.486v-4.708c0-1.029.721-1.745 1.566-1.745.826 0 1.398.547 1.398 1.377V131h1.481v-4.867c0-.92.562-1.586 1.531-1.586.786 0 1.432.437 1.432 1.471V131h1.487v-5.121c0-1.745-.975-2.615-2.357-2.615-1.099 0-1.924.527-2.292 1.343h-.079c-.333-.836-1.034-1.343-2.054-1.343-1.009 0-1.76.502-2.078 1.343h-.094v-1.243h-1.427V131Z" fill="#64778C"/><a><path fill="none" d="M0-.972h131.301v16.943H0z"/></a><path stroke="#D8DFE5" d="M199 106h208v41H199z"/><path d="M213.486 167.466c0-1.218.77-1.914 1.829-1.914 1.024 0 1.636.651 1.636 1.77V172h1.487v-4.857c0-1.904-1.045-2.879-2.616-2.879-1.188 0-1.904.517-2.262 1.343h-.094v-3.789h-1.467V172h1.487v-4.534Zm7.601 7.398c1.228 0 2.004-.642 2.446-1.845l3.157-8.64-1.605-.015-1.934 5.926h-.08l-1.934-5.926h-1.591l2.794 7.735-.184.508c-.378 1.014-.91 1.098-1.725.875l-.358 1.218c.179.079.567.164 1.014.164Zm8.994-2.695c1.263 0 1.974-.641 2.257-1.213h.06V172h1.451v-5.071c0-2.222-1.75-2.665-2.963-2.665-1.382 0-2.654.557-3.152 1.949l1.397.318c.219-.542.776-1.064 1.775-1.064.96 0 1.452.502 1.452 1.368v.034c0 .542-.557.532-1.929.691-1.447.169-2.928.547-2.928 2.282 0 1.502 1.128 2.327 2.58 2.327Zm.323-1.193c-.84 0-1.447-.378-1.447-1.114 0-.795.706-1.079 1.566-1.193.483-.065 1.626-.194 1.84-.408v.985c0 .905-.721 1.73-1.959 1.73Zm8.99-6.612h-1.566v-1.83h-1.487v1.83h-1.118v1.193h1.118v4.509c-.005 1.387 1.054 2.058 2.228 2.033.472-.005.79-.094.964-.159l-.268-1.228c-.1.02-.284.065-.522.065-.483 0-.915-.159-.915-1.019v-4.201h1.566v-1.193Zm4.854 7.79c1.665 0 2.843-.82 3.181-2.063l-1.407-.254c-.268.721-.914 1.089-1.76 1.089-1.272 0-2.127-.825-2.167-2.297h5.429v-.527c0-2.759-1.651-3.838-3.381-3.838-2.128 0-3.53 1.621-3.53 3.968 0 2.371 1.382 3.922 3.635 3.922Zm-2.148-4.638c.059-1.084.845-2.024 2.053-2.024 1.153 0 1.909.855 1.914 2.024H242.1Zm12.795-1.288c-.308-1.188-1.238-1.964-2.888-1.964-1.725 0-2.948.91-2.948 2.262 0 1.084.656 1.805 2.088 2.123l1.292.284c.736.164 1.079.492 1.079.969 0 .592-.631 1.054-1.606 1.054-.889 0-1.461-.383-1.64-1.134l-1.437.219c.249 1.352 1.372 2.113 3.087 2.113 1.845 0 3.123-.979 3.123-2.361 0-1.079-.687-1.745-2.089-2.069l-1.213-.278c-.84-.199-1.203-.482-1.198-.999-.005-.587.632-1.005 1.477-1.005.925 0 1.352.513 1.526 1.025l1.347-.239Zm7.914 8.541c1.148 0 2.476-.313 3.092-.601l-.348-1.089c-.417.149-1.566.512-2.679.512-3.346 0-5.141-1.845-5.141-5.146 0-3.162 1.775-5.205 4.957-5.205 2.908 0 4.643 1.869 4.638 4.395.005 2.158-.273 3.127-1.178 3.127-.512 0-.796-.418-.796-.94v-4.613h-1.223v.557h-.064c-.149-.438-1.014-.831-2.054-.706-1.436.169-2.669 1.357-2.669 3.316 0 2.043 1.044 3.41 2.719 3.475 1.134.05 1.87-.477 2.103-1.064h.06c.119.8.984 1.153 1.834 1.124 2.123-.04 2.526-2.128 2.526-4.226 0-2.993-2.048-5.598-5.847-5.598-3.982 0-6.324 2.431-6.328 6.348.004 4.032 2.286 6.334 6.398 6.334Zm-.457-4.136c-1.298 0-1.745-1.114-1.75-2.317.005-1.143.646-2.053 1.769-2.053 1.218 0 1.765.537 1.77 2.048.005 1.551-.497 2.322-1.789 2.322Zm7.995 1.367h1.452v-1.188h.124c.269.487.815 1.337 2.208 1.337 1.849 0 3.191-1.481 3.191-3.952 0-2.476-1.362-3.933-3.206-3.933-1.417 0-1.929.865-2.193 1.338h-.089v-3.784h-1.487V172Zm1.457-3.818c0-1.596.696-2.655 1.993-2.655 1.348 0 2.024 1.138 2.024 2.655 0 1.531-.696 2.699-2.024 2.699-1.277 0-1.993-1.093-1.993-2.699Zm8.674-6.364h-1.487V172h1.487v-10.182Zm5.216 10.336c2.153 0 3.56-1.576 3.56-3.937 0-2.377-1.407-3.953-3.56-3.953-2.152 0-3.559 1.576-3.559 3.953 0 2.361 1.407 3.937 3.559 3.937Zm.005-1.248c-1.407 0-2.063-1.228-2.063-2.694 0-1.462.656-2.705 2.063-2.705 1.397 0 2.054 1.243 2.054 2.705 0 1.466-.657 2.694-2.054 2.694Zm8.431 1.248c1.805 0 2.973-1.084 3.137-2.57h-1.447c-.189.825-.83 1.312-1.68 1.312-1.258 0-2.068-1.049-2.068-2.714 0-1.636.825-2.665 2.068-2.665.945 0 1.521.597 1.68 1.313h1.447c-.159-1.542-1.417-2.566-3.152-2.566-2.153 0-3.545 1.621-3.545 3.953 0 2.301 1.343 3.937 3.56 3.937Zm4.727-.154h1.486v-2.71l.741-.74 2.595 3.45h1.825l-3.301-4.36 3.092-3.276h-1.78l-3.043 3.231h-.129v-5.777h-1.486V172Zm8.772.094a.997.997 0 0 0 .994-.994.999.999 0 0 0-.994-.989.995.995 0 0 0-.994.989c0 .552.447.994.994.994Zm6.202.06c1.805 0 2.973-1.084 3.137-2.57h-1.447c-.188.825-.83 1.312-1.68 1.312-1.258 0-2.068-1.049-2.068-2.714 0-1.636.825-2.665 2.068-2.665.945 0 1.521.597 1.68 1.313h1.447c-.159-1.542-1.417-2.566-3.152-2.566-2.152 0-3.545 1.621-3.545 3.953 0 2.301 1.343 3.937 3.56 3.937Zm7.944 0c2.152 0 3.559-1.576 3.559-3.937 0-2.377-1.407-3.953-3.559-3.953-2.153 0-3.56 1.576-3.56 3.953 0 2.361 1.407 3.937 3.56 3.937Zm.004-1.248c-1.406 0-2.063-1.228-2.063-2.694 0-1.462.657-2.705 2.063-2.705 1.397 0 2.054 1.243 2.054 2.705 0 1.466-.657 2.694-2.054 2.694Zm5.214 1.094h1.487v-4.708c0-1.029.721-1.745 1.566-1.745.825 0 1.397.547 1.397 1.377V172h1.482v-4.867c0-.92.561-1.586 1.531-1.586.785 0 1.432.437 1.432 1.471V172h1.486v-5.121c0-1.745-.974-2.615-2.356-2.615-1.099 0-1.924.527-2.292 1.343h-.08c-.333-.836-1.034-1.343-2.053-1.343-1.009 0-1.76.502-2.078 1.343h-.095v-1.243h-1.427V172Z" fill="#64778C"/><a><path fill="none" d="M0-.972h127.363v16.943H0z"/></a><path stroke="#D8DFE5" d="M199 147h208v41H199z"/><path d="M211.999 213h1.487v-4.708c0-1.029.721-1.745 1.566-1.745.825 0 1.397.547 1.397 1.377V213h1.481v-4.867c0-.92.562-1.586 1.532-1.586.785 0 1.431.437 1.431 1.471V213h1.487v-5.121c0-1.745-.974-2.615-2.357-2.615-1.098 0-1.924.527-2.291 1.343h-.08c-.333-.836-1.034-1.343-2.053-1.343-1.01 0-1.76.502-2.078 1.343h-.095v-1.243h-1.427V213Zm14.596.169c1.262 0 1.973-.641 2.257-1.213h.059V213h1.452v-5.071c0-2.222-1.75-2.665-2.963-2.665-1.382 0-2.655.557-3.152 1.949l1.397.318c.219-.542.776-1.064 1.775-1.064.959 0 1.452.502 1.452 1.368v.034c0 .542-.557.532-1.929.691-1.447.169-2.929.547-2.929 2.282 0 1.502 1.129 2.327 2.581 2.327Zm.323-1.193c-.84 0-1.447-.378-1.447-1.114 0-.795.706-1.079 1.566-1.193.482-.065 1.626-.194 1.84-.408v.985c0 .905-.721 1.73-1.959 1.73Zm5.425 1.024h1.487v-4.663c0-1 .77-1.721 1.824-1.721.308 0 .656.055.776.09v-1.422a6.012 6.012 0 0 0-.632-.035c-.895 0-1.66.507-1.939 1.328h-.079v-1.213h-1.437V213Zm5.373 0h1.487v-7.636h-1.487V213Zm.751-8.815c.512 0 .939-.397.939-.885 0-.487-.427-.889-.939-.889-.517 0-.94.402-.94.889 0 .488.423.885.94.885Zm5.937 11.838c1.944 0 3.445-.89 3.445-2.854v-7.805h-1.456v1.238h-.11c-.263-.473-.79-1.338-2.212-1.338-1.844 0-3.202 1.457-3.202 3.888 0 2.436 1.387 3.734 3.192 3.734 1.402 0 1.944-.791 2.212-1.278h.095v1.501c0 1.199-.82 1.716-1.949 1.716-1.238 0-1.72-.622-1.984-1.059l-1.277.527c.402.934 1.422 1.73 3.246 1.73Zm-.015-4.37c-1.327 0-2.018-1.019-2.018-2.521 0-1.467.676-2.605 2.018-2.605 1.298 0 1.994 1.059 1.994 2.605 0 1.576-.711 2.521-1.994 2.521Zm8.671 1.501c2.152 0 3.559-1.576 3.559-3.937 0-2.377-1.407-3.953-3.559-3.953-2.153 0-3.56 1.576-3.56 3.953 0 2.361 1.407 3.937 3.56 3.937Zm.005-1.248c-1.407 0-2.064-1.228-2.064-2.694 0-1.462.657-2.705 2.064-2.705 1.397 0 2.053 1.243 2.053 2.705 0 1.466-.656 2.694-2.053 2.694Zm6.7-9.088h-1.486V213h1.486v-10.182Zm4.859 10.331c1.392 0 1.938-.85 2.207-1.337h.124V213h1.452v-10.182h-1.487v3.784h-.089c-.269-.473-.776-1.338-2.197-1.338-1.845 0-3.202 1.457-3.202 3.933 0 2.471 1.337 3.952 3.192 3.952Zm.328-1.268c-1.328 0-2.019-1.168-2.019-2.699 0-1.517.676-2.655 2.019-2.655 1.297 0 1.993 1.059 1.993 2.655 0 1.606-.711 2.699-1.993 2.699Zm11.707 3.888c1.148 0 2.475-.313 3.092-.601l-.348-1.089c-.418.149-1.566.512-2.68.512-3.346 0-5.14-1.845-5.14-5.146 0-3.162 1.774-5.205 4.956-5.205 2.909 0 4.644 1.869 4.639 4.395.005 2.158-.274 3.127-1.179 3.127-.512 0-.795-.418-.795-.94v-4.613h-1.223v.557h-.065c-.149-.438-1.014-.831-2.053-.706-1.437.169-2.67 1.357-2.67 3.316 0 2.043 1.044 3.41 2.72 3.475 1.133.05 1.869-.477 2.103-1.064h.059c.12.8.985 1.153 1.835 1.124 2.123-.04 2.526-2.128 2.526-4.226 0-2.993-2.049-5.598-5.847-5.598-3.982 0-6.324 2.431-6.329 6.348.005 4.032 2.287 6.334 6.399 6.334Zm-.458-4.136c-1.297 0-1.745-1.114-1.75-2.317.005-1.143.646-2.053 1.77-2.053 1.218 0 1.765.537 1.77 2.048.005 1.551-.497 2.322-1.79 2.322Zm9.363-3.167c0-1.218.771-1.914 1.829-1.914 1.025 0 1.636.651 1.636 1.77V213h1.487v-4.857c0-1.904-1.044-2.879-2.615-2.879-1.189 0-1.905.517-2.263 1.343h-.094v-3.789h-1.467V213h1.487v-4.534Zm10.152 4.688c2.153 0 3.56-1.576 3.56-3.937 0-2.377-1.407-3.953-3.56-3.953s-3.56 1.576-3.56 3.953c0 2.361 1.407 3.937 3.56 3.937Zm.005-1.248c-1.407 0-2.063-1.228-2.063-2.694 0-1.462.656-2.705 2.063-2.705 1.397 0 2.053 1.243 2.053 2.705 0 1.466-.656 2.694-2.053 2.694Zm8.778-6.542h-1.566v-1.83h-1.486v1.83h-1.119v1.193h1.119v4.509c-.005 1.387 1.054 2.058 2.227 2.033.472-.005.791-.094.965-.159l-.269-1.228c-.099.02-.283.065-.522.065-.482 0-.915-.159-.915-1.019v-4.201h1.566v-1.193Zm1.645 7.636h1.486v-4.708c0-1.029.721-1.745 1.566-1.745.826 0 1.397.547 1.397 1.377V213h1.482v-4.867c0-.92.562-1.586 1.531-1.586.786 0 1.432.437 1.432 1.471V213h1.487v-5.121c0-1.745-.975-2.615-2.357-2.615-1.099 0-1.924.527-2.292 1.343h-.079c-.334-.836-1.035-1.343-2.054-1.343-1.009 0-1.76.502-2.078 1.343h-.094v-1.243h-1.427V213Zm14.595.169c1.263 0 1.974-.641 2.257-1.213h.06V213h1.452v-5.071c0-2.222-1.75-2.665-2.963-2.665-1.383 0-2.655.557-3.152 1.949l1.397.318c.218-.542.775-1.064 1.774-1.064.96 0 1.452.502 1.452 1.368v.034c0 .542-.557.532-1.929.691-1.447.169-2.928.547-2.928 2.282 0 1.502 1.128 2.327 2.58 2.327Zm.323-1.193c-.84 0-1.446-.378-1.446-1.114 0-.795.706-1.079 1.566-1.193.482-.065 1.625-.194 1.839-.408v.985c0 .905-.721 1.73-1.959 1.73Zm5.426 1.024h1.486v-7.636h-1.486V213Zm.75-8.815c.512 0 .94-.397.94-.885 0-.487-.428-.889-.94-.889-.517 0-.939.402-.939.889 0 .488.422.885.939.885Zm4.222-1.367h-1.486V213h1.486v-10.182Zm2.98 10.276a.997.997 0 0 0 .994-.994.999.999 0 0 0-.994-.989.996.996 0 0 0-.995.989c0 .552.448.994.995.994Zm6.202.06c1.804 0 2.973-1.084 3.137-2.57h-1.447c-.189.825-.83 1.312-1.68 1.312-1.258 0-2.069-1.049-2.069-2.714 0-1.636.826-2.665 2.069-2.665.944 0 1.521.597 1.68 1.313h1.447c-.159-1.542-1.417-2.566-3.152-2.566-2.153 0-3.545 1.621-3.545 3.953 0 2.301 1.342 3.937 3.56 3.937Zm7.943 0c2.153 0 3.56-1.576 3.56-3.937 0-2.377-1.407-3.953-3.56-3.953s-3.56 1.576-3.56 3.953c0 2.361 1.407 3.937 3.56 3.937Zm.005-1.248c-1.407 0-2.063-1.228-2.063-2.694 0-1.462.656-2.705 2.063-2.705 1.397 0 2.053 1.243 2.053 2.705 0 1.466-.656 2.694-2.053 2.694Zm5.214 1.094h1.486v-4.708c0-1.029.721-1.745 1.567-1.745.825 0 1.397.547 1.397 1.377V213h1.481v-4.867c0-.92.562-1.586 1.531-1.586.786 0 1.432.437 1.432 1.471V213h1.487v-5.121c0-1.745-.975-2.615-2.357-2.615-1.099 0-1.924.527-2.292 1.343h-.079c-.333-.836-1.034-1.343-2.054-1.343-1.009 0-1.76.502-2.078 1.343h-.094v-1.243h-1.427V213Z" fill="#64778C"/><path stroke="#D8DFE5" d="M199 188h208v41H199z"/><path d="M213.486 249.466c0-1.218.746-1.914 1.78-1.914 1.009 0 1.62.661 1.62 1.77V254h1.487v-4.857c0-1.889-1.039-2.879-2.6-2.879-1.149 0-1.899.532-2.252 1.343h-.095v-1.243h-1.427V254h1.487v-4.534Zm6.88 7.398h1.487v-4.052h.089c.269.487.816 1.337 2.208 1.337 1.849 0 3.192-1.481 3.192-3.952 0-2.476-1.363-3.933-3.207-3.933-1.417 0-1.929.865-2.193 1.338h-.124v-1.238h-1.452v10.5Zm1.457-6.682c0-1.596.696-2.655 1.994-2.655 1.347 0 2.023 1.138 2.023 2.655 0 1.531-.696 2.699-2.023 2.699-1.278 0-1.994-1.093-1.994-2.699Zm13.314 6.587c1.149 0 2.476-.313 3.092-.601l-.348-1.089c-.417.149-1.566.512-2.679.512-3.346 0-5.141-1.845-5.141-5.146 0-3.162 1.775-5.205 4.957-5.205 2.908 0 4.643 1.869 4.638 4.395.005 2.158-.273 3.127-1.178 3.127-.512 0-.795-.418-.795-.94v-4.613h-1.223v.557h-.065c-.149-.438-1.014-.831-2.053-.706-1.437.169-2.67 1.357-2.67 3.316 0 2.043 1.044 3.41 2.719 3.475 1.134.05 1.87-.477 2.103-1.064h.06c.119.8.984 1.153 1.834 1.124 2.123-.04 2.526-2.128 2.526-4.226 0-2.993-2.048-5.598-5.847-5.598-3.982 0-6.323 2.431-6.328 6.348.005 4.032 2.287 6.334 6.398 6.334Zm-.457-4.136c-1.298 0-1.745-1.114-1.75-2.317.005-1.143.646-2.053 1.77-2.053 1.218 0 1.764.537 1.769 2.048.005 1.551-.497 2.322-1.789 2.322Zm7.876 1.367h1.486v-4.708c0-1.029.721-1.745 1.566-1.745.826 0 1.398.547 1.398 1.377V254h1.481v-4.867c0-.92.562-1.586 1.531-1.586.786 0 1.432.437 1.432 1.471V254h1.487v-5.121c0-1.745-.975-2.615-2.357-2.615-1.099 0-1.924.527-2.292 1.343h-.079c-.333-.836-1.034-1.343-2.054-1.343-1.009 0-1.76.502-2.078 1.343h-.094v-1.243h-1.427V254Zm14.595.169c1.263 0 1.974-.641 2.257-1.213h.06V254h1.452v-5.071c0-2.222-1.75-2.665-2.963-2.665-1.382 0-2.655.557-3.152 1.949l1.397.318c.218-.542.775-1.064 1.775-1.064.959 0 1.451.502 1.451 1.368v.034c0 .542-.557.532-1.929.691-1.446.169-2.928.547-2.928 2.282 0 1.502 1.129 2.327 2.58 2.327Zm.323-1.193c-.84 0-1.446-.378-1.446-1.114 0-.795.706-1.079 1.566-1.193.482-.065 1.625-.194 1.839-.408v.985c0 .905-.721 1.73-1.959 1.73ZM262.9 254h1.486v-7.636H262.9V254Zm.75-8.815c.512 0 .94-.397.94-.885 0-.487-.428-.889-.94-.889-.517 0-.939.402-.939.889 0 .488.422.885.939.885Zm4.223-1.367h-1.487V254h1.487v-10.182Zm2.979 10.276a.997.997 0 0 0 .994-.994.999.999 0 0 0-.994-.989.996.996 0 0 0-.995.989c0 .552.448.994.995.994Zm6.202.06c1.804 0 2.973-1.084 3.137-2.57h-1.447c-.189.825-.83 1.312-1.68 1.312-1.258 0-2.068-1.049-2.068-2.714 0-1.636.825-2.665 2.068-2.665.944 0 1.521.597 1.68 1.313h1.447c-.159-1.542-1.417-2.566-3.152-2.566-2.153 0-3.545 1.621-3.545 3.953 0 2.301 1.342 3.937 3.56 3.937Zm7.943 0c2.153 0 3.56-1.576 3.56-3.937 0-2.377-1.407-3.953-3.56-3.953s-3.559 1.576-3.559 3.953c0 2.361 1.406 3.937 3.559 3.937Zm.005-1.248c-1.407 0-2.063-1.228-2.063-2.694 0-1.462.656-2.705 2.063-2.705 1.397 0 2.053 1.243 2.053 2.705 0 1.466-.656 2.694-2.053 2.694Zm5.214 1.094h1.487v-4.708c0-1.029.72-1.745 1.566-1.745.825 0 1.397.547 1.397 1.377V254h1.481v-4.867c0-.92.562-1.586 1.531-1.586.786 0 1.432.437 1.432 1.471V254h1.487v-5.121c0-1.745-.975-2.615-2.357-2.615-1.098 0-1.924.527-2.292 1.343h-.079c-.333-.836-1.034-1.343-2.053-1.343-1.01 0-1.76.502-2.079 1.343h-.094v-1.243h-1.427V254Z" fill="#64778C"/><path stroke="#D8DFE5" d="M199 229h208v41H199z"/><path fill="#fff" d="M407 73h71v197h-71z"/><path d="M416.575 87.13c-.348-2.178-2.053-3.451-4.206-3.451-2.635 0-4.579 1.974-4.579 5.23 0 3.256 1.934 5.23 4.579 5.23 2.238 0 3.873-1.402 4.206-3.415l-1.551-.005c-.263 1.302-1.357 2.018-2.645 2.018-1.745 0-3.062-1.337-3.062-3.828 0-2.47 1.312-3.828 3.067-3.828 1.298 0 2.387.73 2.64 2.048h1.551Zm4.936 7.024c2.153 0 3.559-1.576 3.559-3.937 0-2.377-1.406-3.953-3.559-3.953-2.153 0-3.56 1.576-3.56 3.953 0 2.361 1.407 3.937 3.56 3.937Zm.005-1.248c-1.407 0-2.063-1.228-2.063-2.694 0-1.462.656-2.705 2.063-2.705 1.397 0 2.053 1.243 2.053 2.705 0 1.466-.656 2.694-2.053 2.694Zm6.7-3.44c0-1.218.746-1.914 1.78-1.914 1.009 0 1.621.661 1.621 1.77V94h1.486v-4.857c0-1.89-1.039-2.879-2.6-2.879-1.148 0-1.899.532-2.252 1.343h-.094v-1.243h-1.427V94h1.486v-4.534Zm10.446-3.102h-1.566v-1.83h-1.487v1.83h-1.119v1.193h1.119v4.51c-.005 1.386 1.054 2.057 2.227 2.032.473-.005.791-.094.965-.159l-.269-1.228c-.099.02-.283.065-.522.065-.482 0-.914-.16-.914-1.02v-4.2h1.566v-1.193Zm3.866 7.805c1.263 0 1.974-.641 2.257-1.213h.06V94h1.452v-5.071c0-2.222-1.75-2.665-2.963-2.665-1.382 0-2.655.557-3.152 1.95l1.397.317c.218-.542.775-1.064 1.775-1.064.959 0 1.451.502 1.451 1.368v.034c0 .542-.557.532-1.929.691-1.446.17-2.928.547-2.928 2.282 0 1.502 1.129 2.327 2.58 2.327Zm.323-1.193c-.84 0-1.446-.378-1.446-1.114 0-.795.706-1.079 1.566-1.193.482-.065 1.625-.194 1.839-.408v.985c0 .905-.721 1.73-1.959 1.73Zm8.642 1.178c1.805 0 2.973-1.084 3.137-2.57h-1.446c-.189.825-.831 1.312-1.681 1.312-1.258 0-2.068-1.049-2.068-2.714 0-1.636.825-2.665 2.068-2.665.945 0 1.522.597 1.681 1.313h1.446c-.159-1.542-1.417-2.566-3.152-2.566-2.152 0-3.544 1.62-3.544 3.953 0 2.302 1.342 3.937 3.559 3.937Zm8.292-7.79h-1.566v-1.83h-1.487v1.83h-1.119v1.193h1.119v4.51c-.005 1.386 1.054 2.057 2.227 2.032.473-.005.791-.094.965-.159l-.269-1.228c-.099.02-.283.065-.522.065-.482 0-.914-.16-.914-1.02v-4.2h1.566v-1.193Zm4.853 7.79c1.666 0 2.844-.82 3.182-2.063l-1.407-.254c-.268.721-.915 1.09-1.76 1.09-1.273 0-2.128-.826-2.168-2.298h5.429v-.527c0-2.759-1.65-3.838-3.38-3.838-2.128 0-3.53 1.62-3.53 3.968 0 2.371 1.382 3.922 3.634 3.922Zm-2.148-4.638c.06-1.084.846-2.024 2.054-2.024 1.153 0 1.909.855 1.914 2.024h-3.968Zm9.932 4.633c1.392 0 1.939-.85 2.208-1.337h.124V94h1.452V83.818h-1.487v3.784h-.089c-.269-.473-.776-1.338-2.198-1.338-1.844 0-3.201 1.457-3.201 3.933 0 2.47 1.337 3.952 3.191 3.952Zm.329-1.268c-1.328 0-2.019-1.168-2.019-2.7 0-1.516.676-2.654 2.019-2.654 1.297 0 1.993 1.059 1.993 2.655 0 1.606-.711 2.7-1.993 2.7Z" fill="#64778C"/><rect x="434" y="118" width="17" height="17" rx="2" fill="#6048E5"/><path d="m447 123-6.188 7-2.812-3.182" stroke="#fff" stroke-width="2" stroke-linecap="round" stroke-linejoin="round"/><path stroke="#D8DFE5" d="M407 106h71v41h-71z"/><rect x="434" y="159" width="17" height="17" rx="2" fill="#6048E5"/><path d="m447 164-6.188 7-2.812-3.182" stroke="#fff" stroke-width="2" stroke-linecap="round" stroke-linejoin="round"/><path stroke="#D8DFE5" d="M407 147h71v41h-71z"/><rect x="434.5" y="200.5" width="16" height="16" rx="1.5" stroke="#6048E5"/><path stroke="#D8DFE5" d="M407 188h71v41h-71z"/><rect x="434.5" y="241.5" width="16" height="16" rx="1.5" stroke="#6048E5"/><path stroke="#D8DFE5" d="M407 229h71v41h-71z"/><path d="M6 1h498v-2H6v2Zm503 5v290h2V6h-2Zm-5 295H6v2h498v-2ZM1 296V6h-2v290h2Zm5 5a5 5 0 0 1-5-5h-2a7 7 0 0 0 7 7v-2Zm503-5a5 5 0 0 1-5 5v2a7 7 0 0 0 7-7h-2ZM504 1a5 5 0 0 1 5 5h2a7 7 0 0 0-7-7v2ZM6-1a7 7 0 0 0-7 7h2a5 5 0 0 1 5-5v-2Z" fill="#FAFBFC"/></svg>