<svg width="24" height="24" viewBox="0 0 24 24" fill="none" xmlns="http://www.w3.org/2000/svg">
<path d="M4 3H20C20.5304 3 21.0391 3.21071 21.4142 3.58579C21.7893 3.96086 22 4.46957 22 5V20C22 20.5304 21.7893 21.0391 21.4142 21.4142C21.0391 21.7893 20.5304 22 20 22H4C3.46957 22 2.96086 21.7893 2.58579 21.4142C2.21071 21.0391 2 20.5304 2 20V5C2 4.46957 2.21071 3.96086 2.58579 3.58579C2.96086 3.21071 3.46957 3 4 3V3ZM4 7V10H8V7H4ZM10 7V10H14V7H10ZM20 10V7H16V10H20ZM4 12V15H8V12H4ZM4 20H8V17H4V20ZM10 12V15H14V12H10ZM10 20H14V17H10V20ZM20 20V17H16V20H20ZM20 12H16V15H20V12Z" fill="black"/>
</svg>
