<svg width="300" height="300" viewBox="0 0 300 300" fill="none" xmlns="http://www.w3.org/2000/svg">
<path d="M96.0767 121.692C93.1529 121.692 90.6435 120.952 88.5483 119.473C86.465 117.981 84.861 115.833 83.7365 113.028C82.6238 110.21 82.0675 106.819 82.0675 102.854C82.0793 98.8881 82.6416 95.5145 83.7543 92.7328C84.8788 89.9392 86.4827 87.8085 88.566 86.3407C90.6612 84.8729 93.1648 84.139 96.0767 84.139C98.9886 84.139 101.492 84.8729 103.587 86.3407C105.683 87.8085 107.286 89.9392 108.399 92.7328C109.524 95.5263 110.086 98.8999 110.086 102.854C110.086 106.831 109.524 110.228 108.399 113.045C107.286 115.851 105.683 117.993 103.587 119.473C101.504 120.952 99.0005 121.692 96.0767 121.692ZM96.0767 116.135C98.3494 116.135 100.143 115.016 101.457 112.779C102.782 110.53 103.445 107.221 103.445 102.854C103.445 99.9653 103.143 97.5386 102.54 95.5737C101.936 93.6087 101.084 92.1291 99.9829 91.1348C98.8821 90.1286 97.58 89.6255 96.0767 89.6255C93.8158 89.6255 92.0284 90.7501 90.7145 92.9991C89.4006 95.2363 88.7377 98.5211 88.7258 102.854C88.714 105.754 89.004 108.192 89.5959 110.169C90.1996 112.146 91.0518 113.637 92.1527 114.643C93.2535 115.638 94.5615 116.135 96.0767 116.135ZM127.627 121.497C125.26 121.497 123.141 121.053 121.271 120.165C119.401 119.266 117.915 118.035 116.814 116.472C115.725 114.91 115.145 113.122 115.074 111.11H121.466C121.584 112.601 122.23 113.821 123.401 114.768C124.573 115.703 125.982 116.17 127.627 116.17C128.918 116.17 130.066 115.874 131.072 115.282C132.078 114.691 132.871 113.868 133.451 112.814C134.031 111.761 134.315 110.559 134.303 109.21C134.315 107.837 134.025 106.618 133.433 105.552C132.842 104.487 132.031 103.653 131.001 103.049C129.971 102.433 128.787 102.126 127.45 102.126C126.361 102.114 125.289 102.315 124.236 102.729C123.182 103.144 122.348 103.688 121.732 104.363L115.784 103.386L117.684 84.6362H138.778V90.1404H123.135L122.088 99.7818H122.301C122.975 98.9887 123.928 98.3317 125.159 97.8109C126.39 97.2782 127.74 97.0119 129.208 97.0119C131.409 97.0119 133.374 97.5327 135.102 98.5744C136.831 99.6042 138.192 101.025 139.186 102.836C140.181 104.647 140.678 106.718 140.678 109.05C140.678 111.453 140.121 113.596 139.009 115.478C137.908 117.348 136.375 118.822 134.41 119.899C132.457 120.964 130.196 121.497 127.627 121.497ZM149.656 116.632C148.579 116.632 147.656 116.253 146.887 115.496C146.117 114.726 145.738 113.803 145.75 112.726C145.738 111.66 146.117 110.749 146.887 109.991C147.656 109.234 148.579 108.855 149.656 108.855C150.698 108.855 151.604 109.234 152.373 109.991C153.154 110.749 153.551 111.66 153.563 112.726C153.551 113.448 153.361 114.105 152.994 114.697C152.639 115.288 152.166 115.762 151.574 116.117C150.994 116.46 150.355 116.632 149.656 116.632ZM149.656 98.6099C148.579 98.6099 147.656 98.2311 146.887 97.4735C146.117 96.7041 145.738 95.7808 145.75 94.7037C145.738 93.6383 146.117 92.7269 146.887 91.9693C147.656 91.1999 148.579 90.8152 149.656 90.8152C150.698 90.8152 151.604 91.1999 152.373 91.9693C153.154 92.7269 153.551 93.6383 153.563 94.7037C153.551 95.4139 153.361 96.0649 152.994 96.6568C152.639 97.2486 152.166 97.7221 151.574 98.0772C150.994 98.4323 150.355 98.6099 149.656 98.6099ZM172.569 121.692C169.645 121.692 167.136 120.952 165.04 119.473C162.957 117.981 161.353 115.833 160.229 113.028C159.116 110.21 158.56 106.819 158.56 102.854C158.571 98.8881 159.134 95.5145 160.246 92.7328C161.371 89.9392 162.975 87.8085 165.058 86.3407C167.153 84.8729 169.657 84.139 172.569 84.139C175.481 84.139 177.984 84.8729 180.08 86.3407C182.175 87.8085 183.779 89.9392 184.891 92.7328C186.016 95.5263 186.578 98.8999 186.578 102.854C186.578 106.831 186.016 110.228 184.891 113.045C183.779 115.851 182.175 117.993 180.08 119.473C177.996 120.952 175.493 121.692 172.569 121.692ZM172.569 116.135C174.842 116.135 176.635 115.016 177.949 112.779C179.275 110.53 179.937 107.221 179.937 102.854C179.937 99.9653 179.636 97.5386 179.032 95.5737C178.428 93.6087 177.576 92.1291 176.475 91.1348C175.374 90.1286 174.072 89.6255 172.569 89.6255C170.308 89.6255 168.521 90.7501 167.207 92.9991C165.893 95.2363 165.23 98.5211 165.218 102.854C165.206 105.754 165.496 108.192 166.088 110.169C166.692 112.146 167.544 113.637 168.645 114.643C169.746 115.638 171.054 116.135 172.569 116.135ZM204.918 121.692C201.995 121.692 199.485 120.952 197.39 119.473C195.307 117.981 193.703 115.833 192.578 113.028C191.466 110.21 190.909 106.819 190.909 102.854C190.921 98.8881 191.483 95.5145 192.596 92.7328C193.721 89.9392 195.325 87.8085 197.408 86.3407C199.503 84.8729 202.007 84.139 204.918 84.139C207.83 84.139 210.334 84.8729 212.429 86.3407C214.524 87.8085 216.128 89.9392 217.241 92.7328C218.365 95.5263 218.928 98.8999 218.928 102.854C218.928 106.831 218.365 110.228 217.241 113.045C216.128 115.851 214.524 117.993 212.429 119.473C210.346 120.952 207.842 121.692 204.918 121.692ZM204.918 116.135C207.191 116.135 208.985 115.016 210.298 112.779C211.624 110.53 212.287 107.221 212.287 102.854C212.287 99.9653 211.985 97.5386 211.382 95.5737C210.778 93.6087 209.926 92.1291 208.825 91.1348C207.724 90.1286 206.422 89.6255 204.918 89.6255C202.658 89.6255 200.87 90.7501 199.556 92.9991C198.242 95.2363 197.579 98.5211 197.568 102.854C197.556 105.754 197.846 108.192 198.438 110.169C199.041 112.146 199.894 113.637 200.994 114.643C202.095 115.638 203.403 116.135 204.918 116.135Z" fill="#37434F"/>
<circle cx="150" cy="196" r="50" fill="url(#paint0_linear_0_1)"/>
<path d="M137.857 212.35V179.113C137.857 176.848 140.367 175.484 142.268 176.716L167.908 193.334C169.646 194.46 169.646 197.003 167.908 198.129L142.268 214.748C140.367 215.98 137.857 214.615 137.857 212.35Z" fill="white"/>
<path fill-rule="evenodd" clip-rule="evenodd" d="M0 150C0 67.1572 67.1573 0 150 0L150 15.9998C75.9939 15.9998 16 75.9937 16 150C16 224.006 75.9938 284 150 284L150 300C67.1572 300 0 232.843 0 150Z" fill="url(#paint1_linear_0_1)"/>
<path fill-rule="evenodd" clip-rule="evenodd" d="M300 150C300 67.1572 232.843 -7.24233e-06 150 0L150 15.9998C224.006 15.9998 284 75.9937 284 150C284 224.006 224.006 284 150 284L150 300C232.843 300 300 232.843 300 150Z" fill="url(#paint2_linear_0_1)"/>
<defs>
<linearGradient id="paint0_linear_0_1" x1="150" y1="146" x2="150" y2="246" gradientUnits="userSpaceOnUse">
<stop stop-color="#2D7FF9"/>
<stop offset="1" stop-color="#1A6DE8"/>
</linearGradient>
<linearGradient id="paint1_linear_0_1" x1="75" y1="0" x2="75" y2="267" gradientUnits="userSpaceOnUse">
<stop stop-color="#116DF6" stop-opacity="0.12"/>
<stop offset="1" stop-color="#116DF6" stop-opacity="0.55"/>
</linearGradient>
<linearGradient id="paint2_linear_0_1" x1="225" y1="0" x2="225" y2="300" gradientUnits="userSpaceOnUse">
<stop stop-color="#116DF6"/>
<stop offset="1" stop-color="#116DF6" stop-opacity="0.55"/>
</linearGradient>
</defs>
</svg>
