<svg width="525" height="380" viewBox="0 0 525 380" fill="none" xmlns="http://www.w3.org/2000/svg">
    <rect width="525" height="380" rx="8" fill="white" />
    <g clip-path="url(#clip0_638_2458)">
        <path
            d="M205.701 160.182C202.621 160.182 199.978 159.403 197.771 157.845C195.576 156.273 193.887 154.011 192.702 151.056C191.53 148.088 190.944 144.516 190.944 140.34C190.957 136.162 191.549 132.609 192.721 129.679C193.906 126.736 195.595 124.492 197.789 122.946C199.996 121.4 202.633 120.626 205.701 120.626C208.768 120.626 211.405 121.4 213.612 122.946C215.819 124.492 217.508 126.736 218.68 129.679C219.865 132.621 220.457 136.175 220.457 140.34C220.457 144.529 219.865 148.107 218.68 151.074C217.508 154.03 215.819 156.286 213.612 157.845C211.417 159.403 208.78 160.182 205.701 160.182ZM205.701 154.329C208.095 154.329 209.984 153.15 211.368 150.794C212.764 148.425 213.462 144.939 213.462 140.34C213.462 137.297 213.144 134.741 212.509 132.671C211.872 130.601 210.975 129.043 209.815 127.995C208.656 126.936 207.284 126.406 205.701 126.406C203.319 126.406 201.436 127.59 200.053 129.959C198.669 132.316 197.97 135.776 197.958 140.34C197.945 143.394 198.251 145.962 198.874 148.045C199.51 150.127 200.408 151.698 201.567 152.757C202.727 153.805 204.105 154.329 205.701 154.329ZM238.934 159.977C236.44 159.977 234.208 159.509 232.239 158.574C230.269 157.627 228.704 156.33 227.544 154.684C226.397 153.039 225.786 151.155 225.711 149.036H232.444C232.568 150.606 233.249 151.892 234.482 152.889C235.717 153.874 237.201 154.366 238.934 154.366C240.294 154.366 241.503 154.054 242.562 153.43C243.622 152.808 244.457 151.941 245.068 150.831C245.679 149.722 245.978 148.456 245.966 147.035C245.978 145.588 245.673 144.304 245.049 143.181C244.427 142.06 243.573 141.181 242.488 140.545C241.403 139.896 240.156 139.573 238.747 139.573C237.6 139.56 236.471 139.772 235.362 140.208C234.252 140.645 233.373 141.218 232.724 141.929L226.459 140.9L228.46 121.15H250.679V126.948H234.202L233.099 137.104H233.324C234.034 136.268 235.037 135.576 236.334 135.028C237.631 134.466 239.053 134.186 240.599 134.186C242.917 134.186 244.987 134.734 246.807 135.832C248.629 136.916 250.062 138.413 251.109 140.321C252.157 142.228 252.681 144.41 252.681 146.866C252.681 149.397 252.094 151.655 250.923 153.637C249.763 155.607 248.148 157.159 246.078 158.294C244.021 159.415 241.64 159.977 238.934 159.977ZM262.138 154.852C261.003 154.852 260.031 154.453 259.221 153.656C258.41 152.845 258.011 151.873 258.023 150.738C258.011 149.615 258.41 148.656 259.221 147.857C260.031 147.06 261.003 146.661 262.138 146.661C263.235 146.661 264.189 147.06 264.999 147.857C265.822 148.656 266.24 149.615 266.253 150.738C266.24 151.499 266.04 152.191 265.654 152.814C265.28 153.437 264.781 153.936 264.158 154.31C263.547 154.671 262.874 154.852 262.138 154.852ZM262.138 135.869C261.003 135.869 260.031 135.47 259.221 134.672C258.41 133.862 258.011 132.889 258.023 131.755C258.011 130.632 258.41 129.672 259.221 128.874C260.031 128.064 261.003 127.659 262.138 127.659C263.235 127.659 264.189 128.064 264.999 128.874C265.822 129.672 266.24 130.632 266.253 131.755C266.24 132.503 266.04 133.188 265.654 133.812C265.28 134.435 264.781 134.934 264.158 135.308C263.547 135.682 262.874 135.869 262.138 135.869ZM286.273 160.182C283.193 160.182 280.55 159.403 278.342 157.845C276.148 156.273 274.458 154.011 273.274 151.056C272.102 148.088 271.516 144.516 271.516 140.34C271.528 136.162 272.121 132.609 273.292 129.679C274.477 126.736 276.167 124.492 278.361 122.946C280.568 121.4 283.205 120.626 286.273 120.626C289.34 120.626 291.976 121.4 294.184 122.946C296.391 124.492 298.08 126.736 299.252 129.679C300.437 132.621 301.029 136.175 301.029 140.34C301.029 144.529 300.437 148.107 299.252 151.074C298.08 154.03 296.391 156.286 294.184 157.845C291.989 159.403 289.353 160.182 286.273 160.182ZM286.273 154.329C288.667 154.329 290.555 153.15 291.94 150.794C293.336 148.425 294.034 144.939 294.034 140.34C294.034 137.297 293.716 134.741 293.08 132.671C292.444 130.601 291.547 129.043 290.387 127.995C289.227 126.936 287.856 126.406 286.273 126.406C283.891 126.406 282.009 127.59 280.625 129.959C279.241 132.316 278.542 135.776 278.53 140.34C278.517 143.394 278.822 145.962 279.446 148.045C280.082 150.127 280.98 151.698 282.139 152.757C283.299 153.805 284.677 154.329 286.273 154.329ZM320.347 160.182C317.268 160.182 314.624 159.403 312.417 157.845C310.223 156.273 308.534 154.011 307.349 151.056C306.177 148.088 305.591 144.516 305.591 140.34C305.603 136.162 306.195 132.609 307.368 129.679C308.553 126.736 310.242 124.492 312.436 122.946C314.643 121.4 317.281 120.626 320.347 120.626C323.414 120.626 326.052 121.4 328.258 122.946C330.465 124.492 332.155 126.736 333.327 129.679C334.511 132.621 335.104 136.175 335.104 140.34C335.104 144.529 334.511 148.107 333.327 151.074C332.155 154.03 330.465 156.286 328.258 157.845C326.064 159.403 323.427 160.182 320.347 160.182ZM320.347 154.329C322.741 154.329 324.631 153.15 326.014 150.794C327.411 148.425 328.109 144.939 328.109 140.34C328.109 137.297 327.791 134.741 327.156 132.671C326.519 130.601 325.622 129.043 324.462 127.995C323.303 126.936 321.931 126.406 320.347 126.406C317.966 126.406 316.083 127.59 314.699 129.959C313.315 132.316 312.616 135.776 312.605 140.34C312.592 143.394 312.898 145.962 313.521 148.045C314.156 150.127 315.055 151.698 316.214 152.757C317.373 153.805 318.751 154.329 320.347 154.329Z"
            fill="#37434F" />
        <path
            d="M262.5 291.12C291.587 291.12 315.166 267.54 315.166 238.453C315.166 209.366 291.587 185.787 262.5 185.787C233.413 185.787 209.833 209.366 209.833 238.453C209.833 267.54 233.413 291.12 262.5 291.12Z"
            fill="url(#paint0_linear_638_2458)" />
        <path
            d="M249.709 255.675V220.666C249.709 218.28 252.353 216.843 254.355 218.141L281.363 235.645C283.193 236.831 283.193 239.51 281.363 240.696L254.355 258.201C252.353 259.499 249.709 258.061 249.709 255.675Z"
            fill="white" />
        <path fill-rule="evenodd" clip-rule="evenodd"
            d="M104.5 190C104.5 102.739 175.239 32 262.5 32V48.8531C184.547 48.8531 121.353 112.047 121.353 190C121.353 267.953 184.547 331.147 262.5 331.147V348C175.239 348 104.5 277.261 104.5 190Z"
            fill="url(#paint1_linear_638_2458)" />
        <path fill-rule="evenodd" clip-rule="evenodd"
            d="M420.5 190C420.5 102.739 349.761 32 262.5 32V48.8531C340.453 48.8531 403.647 112.047 403.647 190C403.647 267.953 340.453 331.147 262.5 331.147V348C349.761 348 420.5 277.261 420.5 190Z"
            fill="url(#paint2_linear_638_2458)" />
    </g>
    <defs>
        <linearGradient id="paint0_linear_638_2458" x1="262.5" y1="185.787" x2="262.5" y2="291.12"
            gradientUnits="userSpaceOnUse">
            <stop stop-color="#2D7FF9" />
            <stop offset="1" stop-color="#1A6DE8" />
        </linearGradient>
        <linearGradient id="paint1_linear_638_2458" x1="183.5" y1="32" x2="183.5" y2="313.24"
            gradientUnits="userSpaceOnUse">
            <stop stop-color="#116DF6" stop-opacity="0.12" />
            <stop offset="1" stop-color="#116DF6" stop-opacity="0.55" />
        </linearGradient>
        <linearGradient id="paint2_linear_638_2458" x1="341.5" y1="32" x2="341.5" y2="348"
            gradientUnits="userSpaceOnUse">
            <stop stop-color="#116DF6" />
            <stop offset="1" stop-color="#116DF6" stop-opacity="0.55" />
        </linearGradient>
        <clipPath id="clip0_638_2458">
            <rect width="316" height="316" fill="white" transform="translate(104.5 32)" />
        </clipPath>
    </defs>
</svg>