<svg width="35" height="33" viewBox="0 0 35 33" fill="none" xmlns="http://www.w3.org/2000/svg">
<path d="M13.54 16.5H17.14M20.74 21.4091H19.3C19.016 21.4103 18.7346 21.3566 18.472 21.2513C18.2094 21.146 17.9708 20.9911 17.77 20.7955C17.5692 20.5999 17.4101 20.3675 17.302 20.1117C17.1939 19.8559 17.1388 19.5818 17.14 19.3052V13.6948C17.1388 13.4182 17.1939 13.1441 17.302 12.8883C17.4101 12.6325 17.5692 12.4001 17.77 12.2045C17.9708 12.009 18.2094 11.854 18.472 11.7487C18.7346 11.6434 19.016 11.5898 19.3 11.5909H20.74M9.22 14.0454H12.82C13.2176 14.0454 13.54 14.3594 13.54 14.7467V18.2532C13.54 18.6406 13.2176 18.9545 12.82 18.9545H9.22C8.82235 18.9545 8.5 18.6406 8.5 18.2532V14.7467C8.5 14.3594 8.82235 14.0454 9.22 14.0454ZM21.46 8.78571H25.78C26.1776 8.78571 26.5 9.09969 26.5 9.487V13.6948C26.5 14.0821 26.1776 14.3961 25.78 14.3961H21.46C21.0624 14.3961 20.74 14.0821 20.74 13.6948V9.487C20.74 9.09969 21.0624 8.78571 21.46 8.78571ZM21.46 18.6039H25.78C26.1776 18.6039 26.5 18.9179 26.5 19.3052V23.513C26.5 23.9003 26.1776 24.2143 25.78 24.2143H21.46C21.0624 24.2143 20.74 23.9003 20.74 23.513V19.3052C20.74 18.9179 21.0624 18.6039 21.46 18.6039Z" stroke="currentColor" stroke-width="2" stroke-linecap="round" stroke-linejoin="round"/>
</svg>
