<svg width="78" height="78" viewBox="0 0 78 78" fill="none" xmlns="http://www.w3.org/2000/svg">
<path fill-rule="evenodd" clip-rule="evenodd" d="M36.5625 29.25C36.5625 25.2113 33.2887 21.9375 29.25 21.9375C25.2113 21.9375 21.9375 25.2113 21.9375 29.25C21.9375 33.2887 25.2113 36.5625 29.25 36.5625C33.2887 36.5625 36.5625 33.2887 36.5625 29.25ZM56.0625 29.25C56.0625 25.2113 52.7884 21.9375 48.75 21.9375C44.7113 21.9375 41.4375 25.2113 41.4375 29.25C41.4375 33.2887 44.7113 36.5625 48.75 36.5625C52.7884 36.5625 56.0625 33.2887 56.0625 29.25ZM29.25 41.4375C38.6734 41.4375 46.3125 44.7113 46.3125 48.75V56.0625H12.1875V48.75C12.1875 44.7113 19.8266 41.4375 29.25 41.4375ZM65.8125 48.75C65.8125 44.7113 58.1734 41.4375 48.75 41.4375L46.8612 41.4819C49.5792 43.5111 51.1875 46.0261 51.1875 48.75V56.0625H65.8125V48.75Z" fill="black"/>
</svg>
