<svg viewBox="0 0 32 32" fill="none" xmlns="http://www.w3.org/2000/svg">
	<path d="M16 32c-4.274 0-8.292-1.664-11.314-4.686S0 20.274 0 16c0-3.026.849-5.973 2.456-8.522a16.061 16.061 0 016.386-5.791l1.344 2.682a13.044 13.044 0 00-5.192 4.708A12.953 12.953 0 003 15.999c0 7.168 5.832 13 13 13s13-5.832 13-13c0-2.459-.69-4.853-1.994-6.922a13.051 13.051 0 00-5.192-4.708l1.344-2.682a16.047 16.047 0 016.386 5.791A15.953 15.953 0 0132 16c0 4.274-1.664 8.292-4.686 11.314S20.274 32 16 32z" fill="currentColor" />
</svg>
