<svg width="302" height="200" fill="none" xmlns="http://www.w3.org/2000/svg"><rect x="1" y=".5" width="300" height="199" rx="3.5" fill="#fff"/><path d="M33.619 31V20.818h3.629c.792 0 1.448.144 1.969.433.52.288.91.682 1.168 1.183.259.497.388 1.057.388 1.68 0 .627-.131 1.19-.393 1.69-.259.498-.65.892-1.173 1.184-.52.288-1.175.433-1.964.433h-2.496v-1.303h2.357c.5 0 .906-.086 1.218-.259.311-.175.54-.414.686-.716.146-.301.219-.644.219-1.029 0-.384-.073-.726-.22-1.024a1.569 1.569 0 0 0-.69-.7c-.312-.17-.723-.254-1.233-.254h-1.93V31H33.62Zm10.99.169a3.12 3.12 0 0 1-1.313-.268 2.211 2.211 0 0 1-.93-.79c-.225-.346-.338-.768-.338-1.269 0-.43.083-.785.249-1.064.165-.278.39-.498.67-.66.282-.163.597-.286.945-.369a9.387 9.387 0 0 1 1.064-.189l1.114-.129c.285-.036.492-.094.621-.174.13-.08.194-.209.194-.388v-.035c0-.434-.122-.77-.368-1.009-.242-.238-.603-.358-1.083-.358-.5 0-.895.111-1.184.333-.285.22-.482.463-.591.731l-1.397-.318c.165-.464.407-.838.726-1.123a2.942 2.942 0 0 1 1.108-.627 4.328 4.328 0 0 1 1.318-.199c.305 0 .628.037.97.11.344.07.665.198.964.387.301.19.548.46.74.81.193.349.289.801.289 1.358V31h-1.452v-1.044h-.06c-.096.192-.24.381-.432.567-.192.185-.44.34-.74.462-.302.123-.664.184-1.085.184Zm.322-1.193c.411 0 .763-.081 1.054-.244.295-.162.52-.374.672-.636a1.65 1.65 0 0 0 .233-.85v-.985c-.053.053-.156.103-.308.15-.15.043-.32.08-.512.114-.192.03-.38.058-.562.084l-.457.06a3.685 3.685 0 0 0-.79.184c-.236.086-.425.21-.568.373-.139.159-.208.371-.208.636 0 .368.136.647.407.835.272.186.618.279 1.04.279Zm11.148-4.748-1.347.239a1.595 1.595 0 0 0-.269-.493 1.33 1.33 0 0 0-.487-.382c-.206-.1-.462-.15-.77-.15-.422 0-.773.095-1.055.284-.281.186-.422.426-.422.72 0 .256.094.461.283.617.19.156.494.284.915.383l1.213.278c.703.163 1.226.413 1.571.751s.517.777.517 1.318c0 .457-.132.865-.398 1.223-.261.354-.628.633-1.098.835-.468.202-1.01.303-1.626.303-.855 0-1.553-.182-2.093-.547-.54-.368-.872-.89-.994-1.566l1.436-.219c.09.375.274.658.552.85.279.19.642.284 1.09.284.486 0 .876-.101 1.167-.303.292-.206.438-.456.438-.751a.78.78 0 0 0-.269-.602c-.175-.162-.445-.285-.81-.367l-1.293-.284c-.712-.162-1.24-.42-1.58-.775-.339-.355-.508-.804-.508-1.348 0-.45.126-.845.378-1.183.252-.338.6-.602 1.044-.79.444-.193.953-.289 1.526-.289.826 0 1.475.18 1.95.537.473.355.787.83.939 1.427Zm5.348-1.864v1.193h-4.171v-1.193h4.171Zm-3.052-1.83h1.486v7.224c0 .288.043.505.13.651.086.143.197.24.333.293.139.05.29.075.452.075.12 0 .224-.008.313-.025.09-.016.16-.03.209-.04l.268 1.228a2.499 2.499 0 0 1-.367.1c-.16.036-.358.056-.597.06a2.615 2.615 0 0 1-1.094-.21 1.876 1.876 0 0 1-.82-.675c-.209-.305-.313-.688-.313-1.149v-7.532Zm7.906 9.62c-.753 0-1.4-.16-1.944-.482a3.272 3.272 0 0 1-1.253-1.367c-.292-.59-.438-1.281-.438-2.073 0-.783.146-1.472.438-2.069a3.398 3.398 0 0 1 1.233-1.397c.53-.334 1.15-.502 1.86-.502.43 0 .848.072 1.252.214.404.142.767.366 1.089.671.321.305.575.701.76 1.188.186.484.279 1.073.279 1.765v.527h-6.07v-1.113H68.1c0-.391-.08-.738-.238-1.04a1.803 1.803 0 0 0-.671-.72 1.875 1.875 0 0 0-1.005-.264 1.94 1.94 0 0 0-1.094.308 2.07 2.07 0 0 0-.715.796 2.296 2.296 0 0 0-.249 1.059v.87c0 .51.09.945.269 1.302.182.358.435.632.76.82.325.186.704.28 1.139.28.281 0 .538-.04.77-.12a1.599 1.599 0 0 0 .99-.97l1.406.254a2.548 2.548 0 0 1-.606 1.089 2.941 2.941 0 0 1-1.089.72c-.434.17-.93.254-1.486.254Zm10.853.015a3.12 3.12 0 0 1-1.313-.268 2.211 2.211 0 0 1-.93-.79c-.225-.346-.338-.768-.338-1.269 0-.43.083-.785.249-1.064.166-.278.39-.498.671-.66.282-.163.597-.286.945-.369a9.383 9.383 0 0 1 1.064-.189l1.113-.129c.285-.036.493-.094.622-.174.13-.08.194-.209.194-.388v-.035c0-.434-.123-.77-.368-1.009-.242-.238-.603-.358-1.084-.358-.5 0-.895.111-1.183.333-.285.22-.483.463-.592.731l-1.397-.318c.166-.464.408-.838.726-1.123a2.942 2.942 0 0 1 1.109-.627 4.328 4.328 0 0 1 1.317-.199c.305 0 .628.037.97.11.344.07.666.198.964.387.302.19.549.46.74.81.193.349.29.801.29 1.358V31H79.45v-1.044h-.06c-.095.192-.24.381-.432.567-.192.185-.439.34-.74.462-.302.123-.663.184-1.084.184Zm.323-1.193c.41 0 .762-.081 1.054-.244.295-.162.519-.374.671-.636a1.65 1.65 0 0 0 .234-.85v-.985c-.053.053-.156.103-.309.15-.149.043-.32.08-.512.114-.192.03-.38.058-.561.084l-.458.06a3.685 3.685 0 0 0-.79.184c-.236.086-.425.21-.567.373-.14.159-.209.371-.209.636 0 .368.136.647.408.835.272.186.618.279 1.039.279Zm10.617-9.158V31h-1.487V20.818h1.487Zm2 10.182v-7.636h1.486V31h-1.487Zm.75-8.815a.945.945 0 0 1-.666-.258.84.84 0 0 1-.273-.627.83.83 0 0 1 .273-.626.935.935 0 0 1 .666-.264c.259 0 .48.088.661.264a.824.824 0 0 1 .279.626c0 .242-.093.451-.279.627a.927.927 0 0 1-.66.258Zm4.222 4.28V31H93.56v-7.636h1.427v1.242h.094c.176-.404.45-.729.825-.974.378-.245.854-.368 1.427-.368.52 0 .976.11 1.368.328.39.216.694.537.91.965.215.427.322.956.322 1.586V31h-1.486v-4.678c0-.554-.144-.986-.433-1.298-.288-.315-.684-.472-1.188-.472-.344 0-.651.074-.92.224a1.61 1.61 0 0 0-.631.656c-.152.285-.229.63-.229 1.034Zm8.248 1.945-.01-1.815h.259l3.042-3.231h1.78l-3.47 3.679h-.234l-1.367 1.367ZM101.927 31V20.818h1.487V31h-1.487Zm4.822 0-2.734-3.63 1.024-1.038L108.574 31h-1.825Zm10.241-7.636v1.193h-4.171v-1.193h4.171Zm-3.053-1.83h1.487v7.224c0 .288.043.505.129.651.086.143.197.24.333.293.139.05.29.075.452.075.12 0 .224-.008.314-.025.089-.016.159-.03.208-.04l.269 1.228a2.497 2.497 0 0 1-.368.1 2.916 2.916 0 0 1-.597.06 2.612 2.612 0 0 1-1.093-.21 1.88 1.88 0 0 1-.821-.675c-.208-.305-.313-.688-.313-1.149v-7.532Zm7.832 9.62c-.716 0-1.341-.164-1.875-.492a3.323 3.323 0 0 1-1.243-1.377c-.295-.59-.442-1.28-.442-2.068 0-.793.147-1.485.442-2.078a3.316 3.316 0 0 1 1.243-1.383c.534-.328 1.159-.492 1.875-.492s1.34.164 1.874.492a3.31 3.31 0 0 1 1.243 1.383c.295.593.442 1.285.442 2.078 0 .788-.147 1.478-.442 2.068a3.316 3.316 0 0 1-1.243 1.377c-.534.328-1.158.492-1.874.492Zm.005-1.248c.464 0 .848-.122 1.153-.368.305-.245.53-.571.676-.98.149-.407.224-.856.224-1.346 0-.488-.075-.935-.224-1.343a2.187 2.187 0 0 0-.676-.989c-.305-.249-.689-.373-1.153-.373-.468 0-.855.124-1.164.373a2.22 2.22 0 0 0-.681.99 3.956 3.956 0 0 0-.219 1.342c0 .49.073.94.219 1.347.149.408.376.734.681.98.309.245.696.367 1.164.367Zm12.21 1.248c-.753 0-1.4-.16-1.944-.482a3.273 3.273 0 0 1-1.253-1.367c-.292-.59-.437-1.281-.437-2.073 0-.783.145-1.472.437-2.069a3.398 3.398 0 0 1 1.233-1.397c.53-.334 1.15-.502 1.859-.502.431 0 .849.072 1.253.214.405.142.768.366 1.089.671.322.305.575.701.761 1.188.185.484.278 1.073.278 1.765v.527h-6.07v-1.113h4.613c0-.391-.079-.738-.238-1.04a1.805 1.805 0 0 0-.671-.72 1.876 1.876 0 0 0-1.005-.264c-.417 0-.782.103-1.093.308a2.063 2.063 0 0 0-.716.796 2.293 2.293 0 0 0-.249 1.059v.87c0 .51.09.945.269 1.302.182.358.435.632.76.82.325.186.705.28 1.139.28.281 0 .538-.04.77-.12.232-.083.433-.206.602-.368.169-.163.298-.363.388-.602l1.407.254a2.549 2.549 0 0 1-.607 1.089 2.935 2.935 0 0 1-1.089.72c-.434.17-.929.254-1.486.254Zm4.925-.154v-7.636h1.427v1.242h.095c.159-.42.419-.748.78-.984.362-.238.794-.358 1.298-.358.51 0 .938.12 1.283.358a2.1 2.1 0 0 1 .77.985h.08c.182-.408.472-.733.87-.975.397-.245.871-.368 1.422-.368.692 0 1.257.217 1.695.652.441.434.661 1.088.661 1.963V31h-1.486v-4.982c0-.517-.141-.891-.423-1.123a1.537 1.537 0 0 0-1.009-.348c-.484 0-.86.149-1.129.447-.268.295-.402.675-.402 1.139V31h-1.482v-5.076c0-.414-.129-.747-.388-1-.258-.251-.595-.377-1.009-.377-.282 0-.542.074-.781.224-.235.145-.425.35-.571.611a1.868 1.868 0 0 0-.214.91V31h-1.487Zm12.493 0V20.818h1.486v3.784h.09c.086-.16.21-.343.373-.552.162-.21.387-.391.676-.547.288-.16.669-.239 1.143-.239.617 0 1.167.156 1.651.468.484.311.863.76 1.138 1.347.279.587.418 1.292.418 2.118 0 .825-.138 1.533-.413 2.123-.275.586-.653 1.039-1.133 1.357a2.936 2.936 0 0 1-1.646.472c-.464 0-.843-.078-1.138-.233a2.143 2.143 0 0 1-.686-.547 4.072 4.072 0 0 1-.383-.557h-.124V31h-1.452Zm1.456-3.818c0 .537.078 1.007.234 1.412.156.404.381.72.676.95.295.225.657.337 1.084.337.444 0 .815-.117 1.114-.353.298-.238.523-.561.676-.97.156-.407.234-.866.234-1.376 0-.504-.077-.956-.229-1.357a2.08 2.08 0 0 0-.676-.95c-.299-.232-.671-.348-1.119-.348-.431 0-.795.111-1.094.333-.295.222-.518.532-.671.93-.152.398-.229.861-.229 1.392Zm10.479 3.972c-.752 0-1.4-.16-1.944-.482a3.271 3.271 0 0 1-1.252-1.367c-.292-.59-.438-1.281-.438-2.073 0-.783.146-1.472.438-2.069a3.398 3.398 0 0 1 1.233-1.397c.53-.334 1.15-.502 1.859-.502.431 0 .848.072 1.253.214.404.142.767.366 1.089.671.321.305.575.701.76 1.188.186.484.279 1.073.279 1.765v.527h-6.071v-1.113h4.614c0-.391-.08-.738-.239-1.04a1.798 1.798 0 0 0-.671-.72 1.875 1.875 0 0 0-1.004-.264c-.418 0-.782.103-1.094.308a2.071 2.071 0 0 0-.716.796 2.305 2.305 0 0 0-.248 1.059v.87c0 .51.089.945.268 1.302.182.358.436.632.761.82.325.186.704.28 1.138.28.282 0 .539-.04.771-.12a1.593 1.593 0 0 0 .989-.97l1.407.254a2.557 2.557 0 0 1-.606 1.089 2.951 2.951 0 0 1-1.089.72c-.434.17-.93.254-1.487.254Zm7.785-.005a2.96 2.96 0 0 1-1.651-.472c-.481-.318-.858-.77-1.133-1.357-.272-.59-.408-1.298-.408-2.123 0-.826.137-1.531.413-2.118.278-.587.659-1.036 1.143-1.348a2.974 2.974 0 0 1 1.646-.467c.474 0 .855.08 1.143.239.292.156.517.338.676.547.163.209.289.392.378.552h.09v-3.784h1.486V31h-1.452v-1.188h-.124a3.9 3.9 0 0 1-.388.557 2.143 2.143 0 0 1-.686.547c-.292.155-.669.233-1.133.233Zm.328-1.268c.427 0 .789-.112 1.084-.338.298-.228.523-.545.676-.95.155-.404.233-.874.233-1.411 0-.53-.076-.994-.228-1.392-.153-.398-.377-.708-.671-.93-.295-.222-.66-.333-1.094-.333-.448 0-.821.116-1.119.348a2.125 2.125 0 0 0-.676.95 3.876 3.876 0 0 0-.224 1.357c0 .51.077.97.229 1.377.152.408.378.73.676.97.302.235.673.352 1.114.352Zm8.435 1.268a2.958 2.958 0 0 1-1.65-.472c-.481-.318-.859-.77-1.134-1.357-.272-.59-.407-1.298-.407-2.123 0-.826.137-1.531.412-2.118.279-.587.66-1.036 1.144-1.348a2.973 2.973 0 0 1 1.645-.467c.474 0 .855.08 1.144.239.291.156.517.338.676.547.162.209.288.392.378.552h.089v-3.784h1.487V31h-1.452v-1.188h-.124c-.09.162-.219.348-.388.557a2.165 2.165 0 0 1-.686.547c-.292.155-.67.233-1.134.233Zm.328-1.268c.428 0 .789-.112 1.084-.338.299-.228.524-.545.676-.95.156-.404.234-.874.234-1.411 0-.53-.076-.994-.229-1.392-.152-.398-.376-.708-.671-.93-.295-.222-.659-.333-1.094-.333-.447 0-.82.116-1.118.348a2.125 2.125 0 0 0-.676.95 3.876 3.876 0 0 0-.224 1.357c0 .51.076.97.229 1.377.152.408.377.73.676.97.301.235.673.352 1.113.352Zm7.8 1.288c-.484 0-.922-.09-1.313-.268a2.214 2.214 0 0 1-.93-.79c-.225-.346-.338-.768-.338-1.269 0-.43.083-.785.249-1.064.166-.278.389-.498.671-.66a3.51 3.51 0 0 1 .945-.369 9.357 9.357 0 0 1 1.064-.189l1.113-.129c.285-.036.492-.094.622-.174.129-.08.194-.209.194-.388v-.035c0-.434-.123-.77-.368-1.009-.242-.238-.604-.358-1.084-.358-.501 0-.895.111-1.183.333-.285.22-.483.463-.592.731l-1.397-.318c.166-.464.408-.838.726-1.123a2.937 2.937 0 0 1 1.109-.627 4.32 4.32 0 0 1 1.317-.199c.305 0 .628.037.969.11.345.07.667.198.965.387.302.19.548.46.741.81.192.349.288.801.288 1.358V31h-1.452v-1.044h-.059a2.12 2.12 0 0 1-.433.567c-.192.185-.439.34-.741.462-.301.123-.662.184-1.083.184Zm.323-1.193c.411 0 .762-.081 1.054-.244.295-.162.518-.374.671-.636a1.65 1.65 0 0 0 .234-.85v-.985c-.053.053-.156.103-.309.15-.149.043-.32.08-.512.114-.192.03-.379.058-.562.084l-.457.06a3.678 3.678 0 0 0-.79.184 1.35 1.35 0 0 0-.567.373c-.139.159-.209.371-.209.636 0 .368.136.647.408.835.271.186.618.279 1.039.279ZM193.88 31V20.818h1.487v3.784h.089c.086-.16.211-.343.373-.552a2.12 2.12 0 0 1 .676-.547c.289-.16.67-.239 1.144-.239.616 0 1.166.156 1.65.468.484.311.864.76 1.139 1.347.278.587.417 1.292.417 2.118 0 .825-.137 1.533-.412 2.123-.275.586-.653 1.039-1.134 1.357a2.933 2.933 0 0 1-1.645.472c-.464 0-.844-.078-1.139-.233a2.165 2.165 0 0 1-.686-.547 4.164 4.164 0 0 1-.383-.557h-.124V31h-1.452Zm1.457-3.818c0 .537.078 1.007.234 1.412.155.404.381.72.676.95.295.225.656.337 1.084.337.444 0 .815-.117 1.113-.353.299-.238.524-.561.676-.97.156-.407.234-.866.234-1.376 0-.504-.076-.956-.229-1.357a2.073 2.073 0 0 0-.676-.95c-.298-.232-.671-.348-1.118-.348-.431 0-.796.111-1.094.333-.295.222-.519.532-.671.93-.153.398-.229.861-.229 1.392Zm8.674-6.364V31h-1.486V20.818h1.486Zm5.291 10.336c-.752 0-1.4-.16-1.944-.482a3.273 3.273 0 0 1-1.253-1.367c-.291-.59-.437-1.281-.437-2.073 0-.783.146-1.472.437-2.069a3.398 3.398 0 0 1 1.233-1.397c.531-.334 1.151-.502 1.86-.502.431 0 .848.072 1.253.214a3.03 3.03 0 0 1 1.088.671c.322.305.575.701.761 1.188.186.484.278 1.073.278 1.765v.527h-6.07v-1.113h4.614c0-.391-.08-.738-.239-1.04a1.805 1.805 0 0 0-.671-.72 1.875 1.875 0 0 0-1.004-.264c-.418 0-.782.103-1.094.308a2.071 2.071 0 0 0-.716.796 2.292 2.292 0 0 0-.248 1.059v.87c0 .51.089.945.268 1.302.182.358.436.632.761.82.324.186.704.28 1.138.28.282 0 .539-.04.771-.12a1.593 1.593 0 0 0 .989-.97l1.407.254a2.549 2.549 0 0 1-.607 1.089 2.939 2.939 0 0 1-1.088.72c-.434.17-.93.254-1.487.254Zm11.848 0c-.74 0-1.376-.167-1.91-.502a3.327 3.327 0 0 1-1.223-1.397c-.285-.593-.427-1.273-.427-2.038 0-.776.146-1.46.437-2.054a3.356 3.356 0 0 1 1.233-1.397c.531-.334 1.155-.502 1.875-.502.58 0 1.097.108 1.551.323.454.212.82.51 1.098.895.282.385.45.834.503 1.348h-1.447a1.737 1.737 0 0 0-.547-.925c-.282-.259-.66-.388-1.134-.388-.414 0-.777.11-1.088.328-.309.216-.549.524-.721.925-.173.398-.259.868-.259 1.412 0 .557.085 1.037.254 1.442.169.404.407.717.716.94.311.221.678.332 1.098.332.282 0 .537-.051.766-.154.232-.106.426-.257.582-.452.159-.196.27-.431.333-.706h1.447a2.805 2.805 0 0 1-.483 1.322 2.77 2.77 0 0 1-1.079.915c-.447.222-.972.333-1.575.333Zm7.943 0c-.716 0-1.341-.164-1.874-.492a3.316 3.316 0 0 1-1.243-1.377c-.295-.59-.443-1.28-.443-2.068 0-.793.148-1.485.443-2.078a3.31 3.31 0 0 1 1.243-1.383c.533-.328 1.158-.492 1.874-.492.716 0 1.341.164 1.874.492a3.31 3.31 0 0 1 1.243 1.383c.295.593.443 1.285.443 2.078 0 .788-.148 1.478-.443 2.068a3.316 3.316 0 0 1-1.243 1.377c-.533.328-1.158.492-1.874.492Zm.005-1.248c.464 0 .848-.122 1.153-.368.305-.245.531-.571.676-.98.15-.407.224-.856.224-1.346a3.86 3.86 0 0 0-.224-1.343 2.18 2.18 0 0 0-.676-.989c-.305-.249-.689-.373-1.153-.373-.467 0-.855.124-1.164.373a2.235 2.235 0 0 0-.681.99 3.98 3.98 0 0 0-.218 1.342c0 .49.073.94.218 1.347.15.408.377.734.681.98.309.245.697.367 1.164.367Zm6.7-3.44V31h-1.486v-7.636h1.427v1.242h.094c.176-.404.451-.729.825-.974.378-.245.854-.368 1.427-.368.521 0 .976.11 1.367.328.392.216.695.537.91.965.216.427.323.956.323 1.586V31h-1.486v-4.678c0-.554-.144-.986-.433-1.298-.288-.315-.684-.472-1.188-.472-.345 0-.651.074-.92.224a1.61 1.61 0 0 0-.631.656c-.152.285-.229.63-.229 1.034Zm10.446-3.102v1.193h-4.172v-1.193h4.172Zm-3.053-1.83h1.487v7.224c0 .288.043.505.129.651.086.143.197.24.333.293.139.05.29.075.452.075.12 0 .224-.008.314-.025.089-.016.159-.03.208-.04l.269 1.228a2.497 2.497 0 0 1-.368.1 2.916 2.916 0 0 1-.597.06 2.612 2.612 0 0 1-1.093-.21 1.88 1.88 0 0 1-.821-.675c-.209-.305-.313-.688-.313-1.149v-7.532Zm7.906 9.62c-.752 0-1.4-.16-1.944-.482a3.273 3.273 0 0 1-1.253-1.367c-.291-.59-.437-1.281-.437-2.073 0-.783.146-1.472.437-2.069a3.398 3.398 0 0 1 1.233-1.397c.531-.334 1.15-.502 1.86-.502.431 0 .848.072 1.253.214a3.03 3.03 0 0 1 1.088.671c.322.305.575.701.761 1.188.186.484.278 1.073.278 1.765v.527h-6.07v-1.113h4.614c0-.391-.08-.738-.239-1.04a1.805 1.805 0 0 0-.671-.72 1.875 1.875 0 0 0-1.004-.264 1.94 1.94 0 0 0-1.094.308 2.071 2.071 0 0 0-.716.796 2.293 2.293 0 0 0-.249 1.059v.87c0 .51.09.945.269 1.302.182.358.436.632.761.82.324.186.704.28 1.138.28.282 0 .539-.04.771-.12.232-.083.432-.206.601-.368.169-.163.298-.363.388-.602l1.407.254a2.549 2.549 0 0 1-.607 1.089 2.939 2.939 0 0 1-1.088.72c-.435.17-.93.254-1.487.254Zm6.412-4.688V31h-1.486v-7.636h1.427v1.242h.094c.176-.404.451-.729.825-.974.378-.245.854-.368 1.427-.368.521 0 .976.11 1.367.328.391.216.695.537.91.965.216.427.323.956.323 1.586V31h-1.486v-4.678c0-.554-.144-.986-.433-1.298-.288-.315-.684-.472-1.188-.472-.345 0-.651.074-.92.224a1.61 1.61 0 0 0-.631.656c-.153.285-.229.63-.229 1.034Zm10.446-3.102v1.193h-4.172v-1.193h4.172Zm-3.053-1.83h1.486v7.224c0 .288.044.505.13.651.086.143.197.24.333.293.139.05.29.075.452.075.12 0 .224-.008.313-.025.09-.016.16-.03.209-.04l.269 1.228a2.497 2.497 0 0 1-.368.1 2.916 2.916 0 0 1-.597.06 2.612 2.612 0 0 1-1.093-.21 1.874 1.874 0 0 1-.821-.675c-.209-.305-.313-.688-.313-1.149v-7.532Z" fill="#37434F"/><g filter="url(#a)"><path d="M16.5 52a4 4 0 0 1 4-4h261a4 4 0 0 1 4 4v32a4 4 0 0 1-4 4h-261a4 4 0 0 1-4-4V52Z" fill="#fff"/><path d="M34.747 68.406V73h-1.173V62.818h1.173v3.739h.1c.179-.395.447-.708.805-.94.361-.235.842-.353 1.442-.353.52 0 .976.105 1.367.313.391.206.694.522.91.95.218.424.328.965.328 1.62V73h-1.173v-4.773c0-.606-.158-1.075-.473-1.407-.311-.334-.744-.502-1.297-.502-.385 0-.73.081-1.034.244-.302.162-.54.4-.716.71-.173.312-.259.69-.259 1.134Zm10.42-3.042v.994h-3.958v-.994h3.957Zm-2.805-1.83h1.174v7.279c0 .33.048.58.144.745.1.163.225.272.378.328.156.053.32.08.492.08.13 0 .235-.007.318-.02l.199-.04.239 1.054c-.08.03-.191.06-.334.09a2.45 2.45 0 0 1-.541.05c-.332 0-.657-.072-.975-.214a1.937 1.937 0 0 1-.785-.652c-.206-.291-.309-.66-.309-1.103v-7.597Zm7.89 1.83v.994h-3.957v-.994h3.957Zm-2.804-1.83h1.174v7.279c0 .33.048.58.144.745.1.163.225.272.378.328.155.053.32.08.492.08.13 0 .235-.007.318-.02l.199-.04.239 1.054c-.08.03-.191.06-.334.09-.142.033-.323.05-.541.05-.332 0-.657-.072-.975-.214a1.937 1.937 0 0 1-.785-.652c-.206-.291-.309-.66-.309-1.103v-7.597Zm4.57 12.33v-10.5h1.133v1.213h.139c.086-.133.205-.302.358-.507.156-.21.378-.395.666-.557.292-.166.686-.249 1.183-.249.643 0 1.21.161 1.7.482.491.322.874.778 1.15 1.368.274.59.412 1.286.412 2.088 0 .808-.138 1.51-.413 2.103-.275.59-.656 1.047-1.143 1.372-.488.321-1.05.482-1.686.482-.49 0-.883-.081-1.178-.244a2.184 2.184 0 0 1-.681-.561 7.52 7.52 0 0 1-.368-.527h-.1v4.037h-1.173Zm1.153-6.682c0 .576.084 1.085.253 1.526.17.438.416.78.741 1.03.325.245.723.367 1.193.367.49 0 .9-.13 1.228-.388.332-.261.58-.613.746-1.054.169-.444.253-.938.253-1.481 0-.537-.083-1.021-.248-1.452a2.243 2.243 0 0 0-.74-1.029c-.33-.255-.742-.383-1.239-.383-.477 0-.878.121-1.203.363-.325.239-.57.573-.736 1.004-.165.428-.248.927-.248 1.497Zm12.787-2.108-1.054.298a1.959 1.959 0 0 0-.294-.512 1.423 1.423 0 0 0-.517-.418c-.219-.109-.499-.164-.84-.164-.467 0-.857.108-1.168.324-.309.212-.463.482-.463.81 0 .292.106.522.319.691.212.169.543.31.994.423l1.133.278c.683.166 1.192.42 1.527.76.334.339.502.775.502 1.308 0 .438-.126.829-.378 1.174-.249.344-.597.616-1.044.815-.447.199-.968.298-1.561.298-.78 0-1.424-.169-1.934-.507-.51-.338-.834-.832-.97-1.481l1.114-.279c.106.411.307.72.602.925.298.205.687.308 1.168.308.547 0 .981-.116 1.303-.348.324-.235.487-.517.487-.845a.888.888 0 0 0-.279-.666c-.185-.183-.47-.319-.855-.408l-1.273-.298c-.699-.166-1.213-.423-1.54-.77-.326-.352-.488-.791-.488-1.318 0-.431.121-.812.363-1.144a2.47 2.47 0 0 1 1-.78 3.509 3.509 0 0 1 1.441-.284c.756 0 1.349.166 1.78.497.434.332.742.77.925 1.313Zm2.76 6.005a.862.862 0 0 1-.631-.263.862.862 0 0 1-.264-.631c0-.246.088-.456.264-.632a.861.861 0 0 1 .631-.263c.245 0 .456.088.631.263a.861.861 0 0 1 .264.632.927.927 0 0 1-.447.775.852.852 0 0 1-.448.12Zm0-5.667a.861.861 0 0 1-.631-.264.861.861 0 0 1-.264-.631c0-.245.088-.456.264-.631a.861.861 0 0 1 .631-.264c.245 0 .456.088.631.264a.861.861 0 0 1 .264.631.927.927 0 0 1-.447.776.852.852 0 0 1-.448.119Zm6.6-5.071-3.281 12.19h-1.074l3.281-12.19h1.074Zm4.99 0-3.281 12.19h-1.074l3.281-12.19h1.074Zm4.593 10.818c-.736 0-1.37-.162-1.905-.487A3.27 3.27 0 0 1 81.77 71.3c-.286-.59-.428-1.276-.428-2.058 0-.783.142-1.472.428-2.069.288-.6.689-1.067 1.203-1.402.517-.338 1.12-.507 1.81-.507.397 0 .79.067 1.178.2.387.132.74.347 1.059.645.318.295.571.687.76 1.174.189.487.284 1.087.284 1.8v.496h-5.887v-1.014h4.693c0-.43-.086-.815-.258-1.153a1.948 1.948 0 0 0-.726-.8c-.312-.196-.68-.294-1.104-.294-.467 0-.871.116-1.213.348a2.29 2.29 0 0 0-.78.895 2.63 2.63 0 0 0-.274 1.183v.677c0 .576.1 1.065.299 1.466.202.398.482.701.84.91.358.205.774.308 1.248.308.308 0 .586-.043.835-.13.252-.089.469-.221.651-.397.182-.179.323-.4.423-.666l1.133.318c-.12.385-.32.723-.601 1.014-.282.289-.63.514-1.044.677-.415.158-.88.238-1.397.238Zm5.616-7.795 1.83 3.122 1.83-3.122h1.352l-2.466 3.818L95.529 73h-1.353l-1.83-2.963L90.518 73h-1.352l2.426-3.818-2.426-3.818h1.352Zm8.933 7.815c-.484 0-.923-.091-1.318-.273a2.26 2.26 0 0 1-.94-.8c-.231-.352-.347-.776-.347-1.274 0-.437.086-.792.258-1.063.173-.276.403-.491.691-.647.289-.156.607-.272.955-.348.351-.08.704-.142 1.059-.189.464-.06.84-.104 1.128-.134.292-.033.504-.088.637-.164.136-.076.204-.209.204-.398v-.04c0-.49-.135-.871-.403-1.143-.265-.272-.668-.408-1.208-.408-.56 0-1 .123-1.318.368-.318.246-.541.507-.67.786l-1.114-.398c.198-.464.464-.825.795-1.084a2.98 2.98 0 0 1 1.094-.547c.397-.106.789-.159 1.173-.159.245 0 .527.03.845.09.322.056.632.174.93.353.302.179.552.449.751.81.198.361.298.845.298 1.452V73h-1.173v-1.034h-.06a2.07 2.07 0 0 1-.398.532c-.185.189-.432.35-.741.482-.308.133-.684.199-1.128.199Zm.179-1.054c.464 0 .855-.091 1.173-.273.322-.183.564-.418.726-.706.166-.289.249-.592.249-.91v-1.074c-.05.06-.159.114-.328.164a5.554 5.554 0 0 1-.577.124 26.457 26.457 0 0 1-1.124.15c-.305.04-.59.104-.855.193a1.475 1.475 0 0 0-.636.393c-.16.172-.239.408-.239.706 0 .408.15.716.453.925.304.205.69.308 1.158.308Zm5.462.875v-7.636h1.134v1.193h.099c.159-.408.416-.724.771-.95.355-.228.781-.343 1.278-.343.503 0 .923.115 1.258.343.338.226.601.542.79.95h.08c.195-.395.488-.708.88-.94.391-.235.86-.353 1.406-.353.683 0 1.242.214 1.676.642.434.424.651 1.085.651 1.983V73h-1.173v-5.11c0-.564-.154-.967-.462-1.209a1.715 1.715 0 0 0-1.089-.363c-.537 0-.953.163-1.248.487-.295.322-.443.73-.443 1.223V73h-1.193v-5.23c0-.434-.141-.784-.422-1.05-.282-.268-.645-.402-1.089-.402-.305 0-.59.081-.855.244a1.845 1.845 0 0 0-.637.676 1.997 1.997 0 0 0-.238.99V73h-1.174Zm12.168 2.864v-10.5h1.134v1.213h.139c.086-.133.206-.302.358-.507.156-.21.378-.395.666-.557.292-.166.686-.249 1.184-.249.643 0 1.209.161 1.7.482.49.322.873.778 1.148 1.368.275.59.413 1.286.413 2.088 0 .808-.138 1.51-.413 2.103-.275.59-.656 1.047-1.143 1.372-.487.321-1.049.482-1.686.482-.49 0-.883-.081-1.178-.244a2.182 2.182 0 0 1-.681-.561 7.5 7.5 0 0 1-.368-.527h-.099v4.037h-1.174Zm1.154-6.682c0 .576.084 1.085.253 1.526.169.438.416.78.741 1.03.325.245.723.367 1.193.367.491 0 .9-.13 1.228-.388a2.37 2.37 0 0 0 .746-1.054c.169-.444.254-.938.254-1.481 0-.537-.083-1.021-.249-1.452a2.237 2.237 0 0 0-.741-1.029c-.328-.255-.741-.383-1.238-.383-.477 0-.878.121-1.203.363-.325.239-.57.573-.736 1.004-.165.428-.248.927-.248 1.497Zm8.551-6.364V73h-1.173V62.818h1.173Zm5.351 10.341c-.736 0-1.371-.162-1.904-.487a3.263 3.263 0 0 1-1.228-1.372c-.286-.59-.428-1.276-.428-2.058 0-.783.142-1.472.428-2.069.288-.6.689-1.067 1.203-1.402.517-.338 1.12-.507 1.809-.507.398 0 .791.067 1.179.2.387.132.74.347 1.059.645.318.295.571.687.76 1.174.189.487.284 1.087.284 1.8v.496h-5.887v-1.014h4.693c0-.43-.086-.815-.258-1.153a1.948 1.948 0 0 0-.726-.8c-.312-.196-.679-.294-1.104-.294-.467 0-.871.116-1.213.348a2.286 2.286 0 0 0-.78.895 2.62 2.62 0 0 0-.274 1.183v.677c0 .576.1 1.065.299 1.466.202.398.482.701.84.91.358.205.774.308 1.248.308.308 0 .586-.043.835-.13.252-.089.469-.221.651-.397.182-.179.323-.4.423-.666l1.133.318c-.119.385-.32.723-.601 1.014-.282.289-.63.514-1.044.677-.415.158-.88.238-1.397.238Zm5.801-.08a.862.862 0 0 1-.631-.263.86.86 0 0 1-.263-.631.86.86 0 0 1 .263-.632.861.861 0 0 1 .631-.263c.246 0 .456.088.632.263a.86.86 0 0 1 .263.632.842.842 0 0 1-.124.447.922.922 0 0 1-.323.328.855.855 0 0 1-.448.12Zm6.103.08c-.716 0-1.332-.169-1.849-.507a3.312 3.312 0 0 1-1.194-1.397c-.278-.593-.417-1.271-.417-2.033 0-.776.142-1.46.427-2.054a3.384 3.384 0 0 1 1.204-1.397c.517-.338 1.12-.507 1.809-.507.537 0 1.021.1 1.452.299a2.78 2.78 0 0 1 1.059.835c.275.358.446.775.512 1.253h-1.173c-.09-.348-.289-.657-.597-.925-.305-.272-.716-.408-1.233-.408-.457 0-.858.12-1.203.358-.341.236-.608.569-.8 1-.189.427-.284.93-.284 1.506 0 .59.093 1.103.279 1.541.189.438.454.777.795 1.02.345.241.749.362 1.213.362.305 0 .582-.053.83-.159.249-.106.459-.258.632-.457.172-.2.295-.438.368-.716h1.173a2.713 2.713 0 0 1-1.521 2.073c-.425.209-.918.313-1.482.313Zm7.82 0c-.689 0-1.294-.164-1.814-.492a3.34 3.34 0 0 1-1.213-1.377c-.289-.59-.433-1.28-.433-2.068 0-.796.144-1.49.433-2.084a3.333 3.333 0 0 1 1.213-1.382c.52-.328 1.125-.492 1.814-.492.69 0 1.293.164 1.81.492.52.329.925.79 1.213 1.382.292.594.438 1.288.438 2.084 0 .788-.146 1.478-.438 2.068a3.298 3.298 0 0 1-1.213 1.377c-.517.328-1.12.492-1.81.492Zm0-1.054c.524 0 .955-.134 1.293-.403a2.38 2.38 0 0 0 .751-1.058c.162-.438.243-.912.243-1.422 0-.51-.081-.986-.243-1.427a2.41 2.41 0 0 0-.751-1.07c-.338-.27-.769-.407-1.293-.407-.523 0-.954.136-1.292.408a2.402 2.402 0 0 0-.751 1.069c-.162.44-.244.916-.244 1.427 0 .51.082.984.244 1.422.162.437.413.79.751 1.058.338.269.769.403 1.292.403Zm5.252.895v-7.636h1.133v1.193h.1a1.92 1.92 0 0 1 .77-.95c.355-.228.781-.343 1.278-.343.504 0 .923.115 1.258.343.338.226.601.542.79.95h.08c.195-.395.489-.708.88-.94.391-.235.86-.353 1.407-.353.682 0 1.241.214 1.675.642.434.424.651 1.085.651 1.983V73h-1.173v-5.11c0-.564-.154-.967-.462-1.209a1.713 1.713 0 0 0-1.089-.363c-.537 0-.953.163-1.248.487-.295.322-.442.73-.442 1.223V73h-1.194v-5.23c0-.434-.14-.784-.422-1.05-.282-.268-.645-.402-1.089-.402-.305 0-.59.081-.855.244a1.834 1.834 0 0 0-.636.676 1.997 1.997 0 0 0-.239.99V73h-1.173Z" fill="#64778C"/><path d="M20.5 49h261v-2h-261v2Zm264 3v32h2V52h-2Zm-3 35h-261v2h261v-2Zm-264-3V52h-2v32h2Zm3 3a3 3 0 0 1-3-3h-2a5 5 0 0 0 5 5v-2Zm264-3a3 3 0 0 1-3 3v2a5 5 0 0 0 5-5h-2Zm-3-35a3 3 0 0 1 3 3h2a5 5 0 0 0-5-5v2Zm-261-2a5 5 0 0 0-5 5h2a3 3 0 0 1 3-3v-2Z" fill="#DDE7F0"/></g><path d="M16.5 98a4 4 0 0 1 4-4h261a4 4 0 0 1 4 4v34a4 4 0 0 1-4 4h-261a4 4 0 0 1-4-4V98Z" fill="#6F59EC"/><path d="M128.502 120v-10.182h6.622v1.546h-4.777v2.765h4.434v1.546h-4.434v2.779h4.817V120h-6.662Zm8.425 0v-7.636h1.72v1.297h.089c.159-.437.423-.779.791-1.024.368-.249.807-.373 1.317-.373.517 0 .953.126 1.308.378.358.249.61.588.755 1.019h.08c.169-.424.454-.762.855-1.014.405-.255.883-.383 1.437-.383.703 0 1.276.222 1.72.666.444.445.666 1.092.666 1.944V120h-1.804v-4.847c0-.474-.126-.821-.378-1.039a1.35 1.35 0 0 0-.925-.333c-.434 0-.774.135-1.019.407-.242.269-.363.618-.363 1.049V120h-1.765v-4.922c0-.394-.119-.709-.358-.944-.235-.236-.543-.353-.925-.353-.258 0-.493.066-.706.198-.212.13-.381.314-.507.552a1.727 1.727 0 0 0-.189.826V120h-1.799Zm12.644 0v-10.182h1.799v3.808h.075c.093-.185.224-.382.393-.591.169-.212.397-.393.686-.542.288-.153.656-.229 1.103-.229.59 0 1.122.151 1.596.453.478.298.855.74 1.134 1.327.282.583.422 1.299.422 2.148 0 .838-.137 1.551-.412 2.138-.275.586-.65 1.034-1.124 1.342a2.892 2.892 0 0 1-1.611.462c-.437 0-.8-.073-1.088-.219a2.18 2.18 0 0 1-.696-.527 3.362 3.362 0 0 1-.403-.591h-.104V120h-1.77Zm1.765-3.818c0 .494.069.926.208 1.297.143.372.347.662.612.87.268.206.593.309.974.309.398 0 .731-.106 1-.319a1.96 1.96 0 0 0 .606-.879 3.66 3.66 0 0 0 .209-1.278 3.63 3.63 0 0 0-.204-1.263 1.9 1.9 0 0 0-.606-.865c-.269-.209-.604-.313-1.005-.313-.384 0-.711.101-.979.303-.269.202-.472.486-.612.85-.135.365-.203.794-.203 1.288Zm10.354 3.967c-.765 0-1.427-.159-1.984-.477a3.238 3.238 0 0 1-1.277-1.362c-.298-.59-.448-1.285-.448-2.083 0-.786.15-1.475.448-2.069a3.382 3.382 0 0 1 1.263-1.392c.54-.334 1.175-.502 1.904-.502.47 0 .914.076 1.332.229.421.149.792.381 1.114.696.325.315.58.716.765 1.203.186.484.279 1.061.279 1.73v.552h-6.259v-1.213h4.534a1.944 1.944 0 0 0-.224-.92 1.627 1.627 0 0 0-.612-.641 1.715 1.715 0 0 0-.904-.234c-.368 0-.691.09-.97.269a1.844 1.844 0 0 0-.651.696 1.992 1.992 0 0 0-.234.939v1.059c0 .444.081.826.244 1.144.162.315.389.557.681.726.292.165.633.248 1.024.248.262 0 .499-.036.711-.109.212-.076.396-.187.552-.333.156-.146.273-.327.353-.542l1.68.189a2.618 2.618 0 0 1-.606 1.163 2.967 2.967 0 0 1-1.134.766c-.461.179-.988.268-1.581.268Zm7.752-.015c-.6 0-1.137-.154-1.611-.462-.474-.308-.848-.756-1.123-1.342-.275-.587-.413-1.3-.413-2.138 0-.849.139-1.565.418-2.148.281-.587.661-1.029 1.138-1.327a2.922 2.922 0 0 1 1.596-.453c.448 0 .815.076 1.104.229.288.149.517.33.686.542.169.209.3.406.393.591h.074v-3.808h1.805V120h-1.77v-1.203h-.109a3.063 3.063 0 0 1-.403.591 2.203 2.203 0 0 1-.696.527c-.288.146-.651.219-1.089.219Zm.502-1.476c.381 0 .706-.103.975-.309.268-.208.472-.498.611-.87.139-.371.209-.803.209-1.297 0-.494-.07-.923-.209-1.288-.136-.364-.338-.648-.606-.85-.266-.202-.592-.303-.98-.303-.401 0-.736.104-1.004.313a1.902 1.902 0 0 0-.607.865 3.653 3.653 0 0 0-.203 1.263c0 .477.068.903.203 1.278.14.371.343.664.612.879.272.213.605.319.999.319Z" fill="#fff"/><path d="m35.493 162-2.622-9.455h1.5l1.843 7.322h.087l1.916-7.322h1.487l1.916 7.327h.087l1.838-7.327h1.505L42.422 162h-1.436l-1.99-7.082h-.074L36.933 162h-1.44Zm13.035.143c-.665 0-1.245-.152-1.74-.457a3.083 3.083 0 0 1-1.154-1.279c-.274-.548-.411-1.188-.411-1.92 0-.736.137-1.379.41-1.93a3.07 3.07 0 0 1 1.155-1.283c.495-.305 1.075-.457 1.74-.457s1.245.152 1.74.457c.496.304.88.732 1.155 1.283.273.551.41 1.194.41 1.93 0 .732-.136 1.372-.41 1.92a3.083 3.083 0 0 1-1.154 1.279c-.496.305-1.076.457-1.74.457Zm.005-1.159c.43 0 .788-.113 1.07-.341.284-.228.493-.531.628-.91.139-.378.208-.795.208-1.251a3.6 3.6 0 0 0-.208-1.246 2.03 2.03 0 0 0-.627-.919c-.283-.231-.64-.346-1.071-.346-.434 0-.794.115-1.08.346a2.063 2.063 0 0 0-.633.919 3.672 3.672 0 0 0-.203 1.246c0 .456.068.873.203 1.251.139.379.35.682.632.91.287.228.647.341 1.08.341ZM53.374 162v-7.091h1.334v1.127h.074c.13-.382.357-.682.684-.901a1.96 1.96 0 0 1 1.117-.332 6.05 6.05 0 0 1 .586.032v1.321a2.255 2.255 0 0 0-.295-.051 2.763 2.763 0 0 0-.425-.033c-.326 0-.617.07-.873.208a1.549 1.549 0 0 0-.822 1.39V162h-1.38Zm6.259-2.405-.01-1.685h.24l2.826-3.001h1.653l-3.222 3.416h-.217l-1.27 1.27ZM58.363 162v-9.455h1.38V162h-1.38Zm4.478 0-2.539-3.37.951-.965L64.536 162H62.84Zm8.072-5.36-1.25.222a1.474 1.474 0 0 0-.25-.457 1.238 1.238 0 0 0-.452-.356c-.191-.092-.43-.138-.716-.138-.39 0-.717.088-.979.263-.261.172-.392.395-.392.669 0 .237.088.428.263.573.175.144.459.263.85.355l1.126.259c.652.151 1.139.383 1.459.697.32.314.48.722.48 1.223 0 .425-.123.804-.37 1.136-.243.329-.583.588-1.02.776-.434.187-.937.281-1.51.281-.793 0-1.441-.169-1.943-.508-.502-.341-.81-.826-.923-1.454l1.334-.203c.083.348.254.611.512.789.259.176.596.264 1.011.264.453 0 .814-.094 1.085-.282.271-.191.407-.423.407-.697a.725.725 0 0 0-.25-.559c-.163-.151-.414-.264-.752-.341l-1.2-.264c-.662-.15-1.152-.39-1.469-.72-.313-.329-.47-.746-.47-1.251 0-.418.117-.785.35-1.098.234-.314.558-.559.97-.734.412-.179.885-.268 1.417-.268.767 0 1.37.166 1.81.498.44.33.73.771.872 1.325Zm6.634 5.36-2.086-7.091h1.426l1.39 5.207h.069l1.394-5.207h1.427l1.385 5.184h.069l1.38-5.184h1.427L83.346 162h-1.409l-1.44-5.12h-.106l-1.44 5.12h-1.404Zm9.19 0v-7.091h1.38V162h-1.38Zm.698-8.185a.877.877 0 0 1-.619-.24.78.78 0 0 1-.254-.582.77.77 0 0 1 .254-.581.865.865 0 0 1 .619-.245.85.85 0 0 1 .614.245c.172.16.258.354.258.581a.774.774 0 0 1-.258.582.862.862 0 0 1-.614.24Zm5.85 1.094v1.108h-3.873v-1.108h3.873Zm-2.835-1.699h1.38v6.708c0 .268.04.469.12.605.08.132.184.223.31.272.13.046.27.069.42.069.11 0 .208-.007.29-.023.084-.015.149-.027.195-.037l.25 1.141c-.081.03-.195.061-.343.092a2.69 2.69 0 0 1-.553.055 2.424 2.424 0 0 1-1.016-.194 1.739 1.739 0 0 1-.762-.627c-.194-.284-.29-.639-.29-1.067v-6.994Zm5.894 4.58V162h-1.38v-9.455h1.362v3.518h.088c.166-.381.42-.685.761-.909.342-.225.788-.337 1.34-.337.485 0 .91.1 1.273.3.367.2.65.498.85.895.203.394.304.887.304 1.478V162h-1.38v-4.344c0-.52-.134-.923-.402-1.21-.267-.289-.64-.434-1.117-.434-.326 0-.618.07-.877.208a1.502 1.502 0 0 0-.605.61c-.144.264-.217.584-.217.96Zm9.992 4.21v-9.455h3.37c.735 0 1.345.134 1.828.402.483.268.845.634 1.085 1.099.24.461.36.982.36 1.56 0 .582-.122 1.105-.365 1.57-.24.461-.603.828-1.089 1.099-.484.267-1.092.401-1.824.401h-2.317v-1.209h2.188c.464 0 .841-.08 1.131-.24.289-.164.501-.385.637-.665.135-.28.203-.599.203-.956s-.068-.674-.203-.951a1.458 1.458 0 0 0-.642-.651c-.289-.157-.671-.235-1.145-.235h-1.791V162h-1.426Zm11.376 0h-3.061v-9.455h3.158c.926 0 1.722.19 2.386.568a3.739 3.739 0 0 1 1.528 1.621c.357.701.536 1.543.536 2.525 0 .985-.18 1.831-.54 2.539a3.786 3.786 0 0 1-1.551 1.634c-.677.379-1.496.568-2.456.568Zm-1.634-1.246h1.555c.72 0 1.319-.136 1.796-.407a2.56 2.56 0 0 0 1.071-1.186c.237-.52.356-1.154.356-1.902 0-.742-.119-1.371-.356-1.888a2.507 2.507 0 0 0-1.048-1.177c-.465-.268-1.042-.402-1.731-.402h-1.643v6.962Zm7.955 1.246v-9.455h5.863v1.228h-4.437v2.881h4.017v1.223h-4.017V162h-1.426Zm12.82-5.36-1.251.222a1.489 1.489 0 0 0-.25-.457 1.228 1.228 0 0 0-.452-.356c-.191-.092-.429-.138-.716-.138-.39 0-.717.088-.978.263-.262.172-.393.395-.393.669 0 .237.088.428.264.573.175.144.458.263.849.355l1.126.259c.653.151 1.139.383 1.459.697.32.314.48.722.48 1.223 0 .425-.123.804-.369 1.136-.243.329-.583.588-1.02.776-.434.187-.937.281-1.51.281-.794 0-1.442-.169-1.943-.508-.502-.341-.81-.826-.924-1.454l1.334-.203c.084.348.254.611.513.789.258.176.595.264 1.011.264.452 0 .814-.094 1.085-.282.271-.191.406-.423.406-.697a.725.725 0 0 0-.249-.559c-.163-.151-.414-.264-.753-.341l-1.2-.264c-.662-.15-1.151-.39-1.468-.72-.314-.329-.471-.746-.471-1.251 0-.418.117-.785.351-1.098.234-.314.557-.559.969-.734.413-.179.885-.268 1.418-.268.766 0 1.369.166 1.809.498.44.33.731.771.873 1.325Zm3.452 4.067-.069.504a8.191 8.191 0 0 1-.236 1.154c-.108.403-.22.777-.337 1.122a31 31 0 0 1-.282.821h-.978c.04-.191.095-.449.166-.775.071-.323.14-.685.208-1.085.067-.4.118-.808.152-1.224l.046-.517h1.33Zm11.746-5.175a2.86 2.86 0 0 0-.36-.752 2.271 2.271 0 0 0-1.237-.937 2.838 2.838 0 0 0-.863-.125c-.533 0-1.013.137-1.441.411-.427.274-.766.675-1.015 1.205-.246.526-.369 1.171-.369 1.934 0 .766.124 1.414.373 1.944.25.529.591.931 1.025 1.205.434.273.928.41 1.482.41.514 0 .962-.104 1.344-.314.384-.209.681-.504.891-.886.212-.385.318-.837.318-1.357l.369.069h-2.705v-1.177h3.716v1.076c0 .794-.169 1.483-.507 2.068a3.467 3.467 0 0 1-1.395 1.348c-.59.317-1.268.475-2.031.475-.855 0-1.606-.197-2.253-.591-.643-.394-1.145-.952-1.505-1.675-.36-.727-.54-1.588-.54-2.586 0-.754.105-1.431.314-2.031.209-.6.503-1.109.882-1.528a3.852 3.852 0 0 1 1.343-.965 4.218 4.218 0 0 1 1.695-.337c.51 0 .986.076 1.426.226.443.151.837.365 1.182.642a3.627 3.627 0 0 1 1.325 2.248h-1.464Zm6.215 6.611c-.664 0-1.245-.152-1.74-.457a3.08 3.08 0 0 1-1.154-1.279c-.274-.548-.411-1.188-.411-1.92 0-.736.137-1.379.411-1.93a3.067 3.067 0 0 1 1.154-1.283c.495-.305 1.076-.457 1.74-.457.665 0 1.245.152 1.741.457.495.304.88.732 1.154 1.283.274.551.411 1.194.411 1.93 0 .732-.137 1.372-.411 1.92a3.087 3.087 0 0 1-1.154 1.279c-.496.305-1.076.457-1.741.457Zm.005-1.159c.431 0 .788-.113 1.071-.341.283-.228.492-.531.628-.91.138-.378.208-.795.208-1.251 0-.452-.07-.868-.208-1.246a2.037 2.037 0 0 0-.628-.919c-.283-.231-.64-.346-1.071-.346-.434 0-.794.115-1.08.346a2.069 2.069 0 0 0-.633.919 3.684 3.684 0 0 0-.203 1.246c0 .456.068.873.203 1.251.139.379.35.682.633.91.286.228.646.341 1.08.341Zm7.828 1.159c-.664 0-1.245-.152-1.74-.457a3.08 3.08 0 0 1-1.154-1.279c-.274-.548-.411-1.188-.411-1.92 0-.736.137-1.379.411-1.93a3.067 3.067 0 0 1 1.154-1.283c.495-.305 1.076-.457 1.74-.457.665 0 1.245.152 1.741.457.495.304.88.732 1.154 1.283.274.551.411 1.194.411 1.93 0 .732-.137 1.372-.411 1.92a3.087 3.087 0 0 1-1.154 1.279c-.496.305-1.076.457-1.741.457Zm.005-1.159c.431 0 .788-.113 1.071-.341.283-.228.492-.531.628-.91.138-.378.208-.795.208-1.251 0-.452-.07-.868-.208-1.246a2.037 2.037 0 0 0-.628-.919c-.283-.231-.64-.346-1.071-.346-.434 0-.794.115-1.08.346a2.069 2.069 0 0 0-.633.919 3.684 3.684 0 0 0-.203 1.246c0 .456.068.873.203 1.251.139.379.35.682.633.91.286.228.646.341 1.08.341Zm7.815 3.823c-.564 0-1.048-.074-1.455-.222a2.814 2.814 0 0 1-.988-.586 2.457 2.457 0 0 1-.572-.799l1.186-.489c.083.135.194.278.333.429.141.154.332.285.572.393.243.107.556.161.937.161.524 0 .956-.127 1.298-.383.341-.252.512-.655.512-1.209v-1.395h-.088a3.145 3.145 0 0 1-.36.504 1.963 1.963 0 0 1-.637.48c-.271.135-.623.203-1.057.203-.56 0-1.065-.131-1.514-.393-.446-.264-.8-.654-1.062-1.168-.259-.517-.388-1.152-.388-1.906s.128-1.4.383-1.939c.259-.539.613-.951 1.062-1.237.449-.29.959-.434 1.528-.434.44 0 .796.074 1.067.221.27.145.481.314.632.508.154.194.272.365.356.513h.101v-1.15h1.353v7.248c0 .609-.142 1.109-.425 1.5-.283.391-.666.68-1.149.868a4.431 4.431 0 0 1-1.625.282Zm-.014-4.058c.397 0 .732-.092 1.006-.277.277-.188.486-.456.628-.803.145-.351.217-.771.217-1.261 0-.477-.071-.897-.212-1.26a1.875 1.875 0 0 0-.624-.849c-.274-.207-.612-.31-1.015-.31-.416 0-.762.108-1.039.323a1.958 1.958 0 0 0-.628.868 3.465 3.465 0 0 0-.208 1.228c0 .465.071.873.213 1.224.141.351.351.625.628.821.28.197.624.296 1.034.296Zm6.444-8.204V162h-1.38v-9.455h1.38Zm4.913 9.598c-.698 0-1.3-.149-1.805-.448a3.035 3.035 0 0 1-1.163-1.269c-.271-.548-.406-1.19-.406-1.925 0-.727.135-1.367.406-1.921a3.151 3.151 0 0 1 1.145-1.297c.492-.311 1.068-.466 1.726-.466.4 0 .788.066 1.164.198.375.133.712.34 1.011.623.298.284.534.651.706 1.104.172.449.259.995.259 1.639v.489h-5.637v-1.034h4.284c0-.363-.074-.685-.222-.965a1.667 1.667 0 0 0-.623-.669 1.742 1.742 0 0 0-.932-.245 1.8 1.8 0 0 0-1.016.286 1.924 1.924 0 0 0-.665.739 2.128 2.128 0 0 0-.231.983v.808c0 .474.084.877.25 1.21.169.332.404.586.706.761.302.173.654.259 1.057.259.262 0 .5-.037.716-.111a1.478 1.478 0 0 0 .918-.9l1.307.235a2.364 2.364 0 0 1-.563 1.011c-.268.287-.605.51-1.011.67a3.79 3.79 0 0 1-1.381.235Zm11.186-.143h-3.061v-9.455h3.158c.926 0 1.722.19 2.387.568a3.744 3.744 0 0 1 1.528 1.621c.357.701.535 1.543.535 2.525 0 .985-.18 1.831-.54 2.539a3.786 3.786 0 0 1-1.551 1.634c-.677.379-1.496.568-2.456.568Zm-1.634-1.246h1.556c.72 0 1.318-.136 1.795-.407a2.56 2.56 0 0 0 1.071-1.186c.237-.52.356-1.154.356-1.902 0-.742-.119-1.371-.356-1.888a2.502 2.502 0 0 0-1.048-1.177c-.464-.268-1.041-.402-1.731-.402h-1.643v6.962Zm7.844 1.246v-7.091h1.335v1.127h.073c.13-.382.357-.682.684-.901a1.957 1.957 0 0 1 1.117-.332 6.07 6.07 0 0 1 .586.032v1.321a2.252 2.252 0 0 0-.295-.051 2.766 2.766 0 0 0-.425-.033c-.326 0-.617.07-.873.208a1.542 1.542 0 0 0-.821 1.39V162h-1.381Zm4.99 0v-7.091h1.38V162h-1.38Zm.697-8.185a.878.878 0 0 1-.619-.24.782.782 0 0 1-.254-.582c0-.227.085-.421.254-.581a.865.865 0 0 1 .619-.245.85.85 0 0 1 .614.245c.172.16.258.354.258.581a.775.775 0 0 1-.258.582.863.863 0 0 1-.614.24Zm8.606 1.094L214.38 162h-1.478l-2.576-7.091h1.482l1.796 5.457h.074l1.791-5.457h1.482Zm4.112 7.234c-.699 0-1.3-.149-1.805-.448a3.028 3.028 0 0 1-1.163-1.269c-.271-.548-.407-1.19-.407-1.925 0-.727.136-1.367.407-1.921a3.151 3.151 0 0 1 1.145-1.297c.492-.311 1.068-.466 1.726-.466.4 0 .788.066 1.164.198.375.133.712.34 1.011.623.298.284.534.651.706 1.104.172.449.258.995.258 1.639v.489h-5.636v-1.034h4.284c0-.363-.074-.685-.222-.965a1.674 1.674 0 0 0-.623-.669 1.745 1.745 0 0 0-.933-.245 1.8 1.8 0 0 0-1.015.286 1.924 1.924 0 0 0-.665.739 2.128 2.128 0 0 0-.231.983v.808c0 .474.083.877.249 1.21.17.332.405.586.707.761.301.173.654.259 1.057.259.262 0 .5-.037.716-.111a1.478 1.478 0 0 0 .918-.9l1.307.235a2.366 2.366 0 0 1-.564 1.011c-.267.287-.604.51-1.011.67a3.78 3.78 0 0 1-1.38.235Zm6.37-1.436-.07.504a8.044 8.044 0 0 1-.235 1.154c-.108.403-.22.777-.337 1.122a31 31 0 0 1-.282.821h-.978c.04-.191.095-.449.166-.775.071-.323.14-.685.208-1.085.067-.4.118-.808.152-1.224l.046-.517h1.33Zm5.348-8.162h1.731l3.01 7.35h.111l3.01-7.35h1.731V162h-1.357v-6.842h-.088l-2.788 6.828h-1.127l-2.788-6.832h-.088V162h-1.357v-9.455Zm13.62 9.612c-.45 0-.856-.083-1.219-.249a2.057 2.057 0 0 1-.863-.734c-.21-.32-.314-.713-.314-1.178 0-.4.077-.729.231-.987.153-.259.361-.464.623-.614.261-.151.554-.265.877-.342a8.68 8.68 0 0 1 .988-.176l1.034-.12c.265-.033.457-.087.577-.161.12-.074.18-.194.18-.36v-.033c0-.403-.114-.715-.342-.937-.224-.221-.56-.332-1.006-.332-.465 0-.831.103-1.099.309-.264.203-.448.43-.549.679l-1.297-.296c.154-.43.378-.778.674-1.043a2.723 2.723 0 0 1 1.029-.582 4.026 4.026 0 0 1 1.224-.184c.283 0 .583.034.9.101.32.065.618.185.895.36.28.176.51.427.688.753.179.323.268.743.268 1.26V162h-1.348v-.969h-.055a2.01 2.01 0 0 1-.402.526 2.148 2.148 0 0 1-.688.429c-.28.114-.615.171-1.006.171Zm.3-1.108c.381 0 .708-.075.978-.226.274-.151.482-.348.624-.591.144-.246.217-.509.217-.79v-.914c-.05.05-.145.096-.287.139-.138.04-.297.075-.475.106a57.36 57.36 0 0 1-.522.079l-.424.055a3.42 3.42 0 0 0-.734.171c-.219.08-.394.195-.527.346-.129.148-.194.345-.194.591 0 .342.127.6.379.775.252.173.574.259.965.259Zm5.037 3.61v-9.75h1.348v1.15h.116c.08-.148.195-.319.346-.513.151-.194.36-.363.628-.508.268-.147.622-.221 1.062-.221.572 0 1.083.144 1.532.434.45.289.802.706 1.058 1.251.258.545.387 1.2.387 1.966 0 .767-.127 1.424-.383 1.972-.255.544-.606.964-1.052 1.26a2.73 2.73 0 0 1-1.528.438c-.431 0-.784-.072-1.058-.216a2.015 2.015 0 0 1-.637-.508 3.873 3.873 0 0 1-.355-.517h-.083v3.762h-1.381Zm1.353-6.204c0 .498.072.935.217 1.311.145.375.354.669.628.881.274.21.609.314 1.006.314.413 0 .757-.109 1.034-.327.277-.222.487-.522.628-.901.145-.378.217-.804.217-1.278 0-.468-.071-.888-.212-1.261a1.94 1.94 0 0 0-.628-.882c-.277-.215-.623-.323-1.039-.323-.4 0-.738.103-1.015.31a1.902 1.902 0 0 0-.624.863c-.141.369-.212.8-.212 1.293Zm11.984-1.815-1.251.222a1.465 1.465 0 0 0-.249-.457 1.236 1.236 0 0 0-.452-.356c-.191-.092-.43-.138-.716-.138-.391 0-.717.088-.979.263-.261.172-.392.395-.392.669 0 .237.088.428.263.573.176.144.459.263.85.355l1.126.259c.652.151 1.139.383 1.459.697.32.314.48.722.48 1.223 0 .425-.123.804-.369 1.136-.243.329-.584.588-1.021.776-.434.187-.937.281-1.509.281-.794 0-1.442-.169-1.944-.508-.501-.341-.809-.826-.923-1.454l1.334-.203c.083.348.254.611.513.789.258.176.595.264 1.011.264.452 0 .814-.094 1.084-.282.271-.191.407-.423.407-.697a.723.723 0 0 0-.25-.559c-.163-.151-.414-.264-.752-.341l-1.2-.264c-.662-.15-1.151-.39-1.468-.72-.314-.329-.471-.746-.471-1.251 0-.418.117-.785.351-1.098.233-.314.557-.559.969-.734.412-.179.885-.268 1.417-.268.767 0 1.37.166 1.81.498.44.33.731.771.872 1.325Zm3.452 4.067-.069.504a8.044 8.044 0 0 1-.235 1.154c-.108.403-.22.777-.337 1.122a31 31 0 0 1-.282.821h-.979c.04-.191.096-.449.167-.775.07-.323.14-.685.207-1.085.068-.4.119-.808.153-1.224l.046-.517h1.329ZM62.029 180v-9.455h5.863v1.228h-4.437v2.881h4.017v1.223h-4.017V180H62.03Zm7.506 0v-7.091h1.38V180h-1.38Zm.697-8.185a.878.878 0 0 1-.618-.24.78.78 0 0 1-.254-.582.77.77 0 0 1 .254-.581.865.865 0 0 1 .618-.245.85.85 0 0 1 .614.245c.173.16.259.354.259.581a.774.774 0 0 1-.259.582.861.861 0 0 1-.614.24Zm5.514 10.992c-.564 0-1.048-.074-1.454-.222a2.808 2.808 0 0 1-.989-.586 2.455 2.455 0 0 1-.572-.799l1.187-.489c.083.135.193.278.332.429.141.154.332.285.572.393.243.107.556.161.938.161.523 0 .955-.127 1.297-.383.341-.252.512-.655.512-1.209v-1.395h-.088a3.158 3.158 0 0 1-.36.504 1.965 1.965 0 0 1-.637.48c-.27.135-.623.203-1.057.203a2.95 2.95 0 0 1-1.514-.393c-.446-.264-.8-.654-1.062-1.168-.258-.517-.388-1.152-.388-1.906s.128-1.4.384-1.939c.258-.539.612-.951 1.061-1.237.45-.29.959-.434 1.528-.434.44 0 .796.074 1.067.221.27.145.481.314.632.508.154.194.273.365.356.513h.101v-1.15h1.353v7.248c0 .609-.142 1.109-.425 1.5a2.5 2.5 0 0 1-1.15.868 4.427 4.427 0 0 1-1.624.282Zm-.014-4.058c.397 0 .732-.092 1.006-.277.277-.188.487-.456.628-.803.145-.351.217-.771.217-1.261 0-.477-.07-.897-.212-1.26a1.871 1.871 0 0 0-.624-.849c-.273-.207-.612-.31-1.015-.31-.416 0-.762.108-1.039.323a1.953 1.953 0 0 0-.628.868 3.454 3.454 0 0 0-.207 1.228c0 .465.07.873.212 1.224a1.8 1.8 0 0 0 .628.821c.28.197.625.296 1.034.296ZM80.796 180v-7.091h1.325v1.154h.088c.147-.391.389-.695.724-.914.336-.221.738-.332 1.205-.332.474 0 .871.111 1.191.332.324.222.562.526.716.914h.074a2 2 0 0 1 .808-.905c.37-.227.81-.341 1.32-.341.643 0 1.168.201 1.574.605.41.403.614 1.011.614 1.823V180h-1.38v-4.626c0-.48-.13-.828-.392-1.043a1.43 1.43 0 0 0-.938-.323c-.449 0-.798.138-1.047.415-.25.274-.374.627-.374 1.057V180h-1.376v-4.713c0-.385-.12-.694-.36-.928-.24-.234-.553-.351-.937-.351-.262 0-.504.069-.725.208a1.52 1.52 0 0 0-.531.567 1.743 1.743 0 0 0-.199.845V180h-1.38Zm13.553.157c-.45 0-.856-.083-1.219-.249a2.059 2.059 0 0 1-.863-.734c-.21-.32-.314-.713-.314-1.178 0-.4.077-.729.23-.987.155-.259.362-.464.624-.614.262-.151.554-.265.877-.342.323-.077.653-.136.988-.176l1.034-.12c.265-.033.457-.087.577-.161.12-.074.18-.194.18-.36v-.033c0-.403-.114-.715-.341-.937-.225-.221-.56-.332-1.007-.332-.465 0-.83.103-1.099.309-.264.203-.447.43-.549.679l-1.297-.296c.154-.43.379-.778.674-1.043a2.731 2.731 0 0 1 1.03-.582 4.022 4.022 0 0 1 1.223-.184c.283 0 .583.034.9.101.32.065.619.185.896.36a2 2 0 0 1 .687.753c.179.323.268.743.268 1.26V180H96.5v-.969h-.055a1.98 1.98 0 0 1-.402.526 2.14 2.14 0 0 1-.688.429c-.28.114-.615.171-1.006.171Zm.3-1.108c.382 0 .708-.075.979-.226.274-.151.481-.348.623-.591.144-.246.217-.509.217-.79v-.914c-.05.05-.145.096-.286.139-.139.04-.297.075-.476.106a58.39 58.39 0 0 1-.522.079l-.424.055a3.432 3.432 0 0 0-.734.171c-.219.08-.394.195-.526.346-.13.148-.194.345-.194.591 0 .342.126.6.378.775.252.173.574.259.965.259Zm11.133 1.089a2.75 2.75 0 0 1-1.533-.438c-.446-.296-.797-.716-1.053-1.26-.252-.548-.378-1.205-.378-1.972 0-.766.128-1.421.383-1.966.259-.545.612-.962 1.062-1.251.449-.29.958-.434 1.528-.434.44 0 .794.074 1.062.221.27.145.48.314.627.508.151.194.268.365.351.513h.083v-3.514h1.381V180h-1.348v-1.103h-.116c-.083.15-.203.323-.36.517a2.004 2.004 0 0 1-.637.508c-.271.144-.622.216-1.052.216Zm.304-1.177c.397 0 .733-.104 1.007-.314.277-.212.486-.506.628-.881.144-.376.217-.813.217-1.311 0-.493-.071-.924-.213-1.293a1.894 1.894 0 0 0-.623-.863c-.274-.207-.613-.31-1.016-.31-.415 0-.761.108-1.038.323-.277.216-.487.51-.628.882a3.59 3.59 0 0 0-.208 1.261c0 .474.071.9.212 1.278.142.379.351.679.628.901.28.218.625.327 1.034.327Zm8.166 1.182c-.665 0-1.245-.152-1.741-.457a3.087 3.087 0 0 1-1.154-1.279c-.274-.548-.411-1.188-.411-1.92 0-.736.137-1.379.411-1.93a3.074 3.074 0 0 1 1.154-1.283c.496-.305 1.076-.457 1.741-.457.664 0 1.245.152 1.74.457.496.304.88.732 1.154 1.283.274.551.411 1.194.411 1.93 0 .732-.137 1.372-.411 1.92a3.08 3.08 0 0 1-1.154 1.279c-.495.305-1.076.457-1.74.457Zm.004-1.159c.431 0 .788-.113 1.071-.341a2 2 0 0 0 .628-.91 3.6 3.6 0 0 0 .208-1.251c0-.452-.069-.868-.208-1.246a2.029 2.029 0 0 0-.628-.919c-.283-.231-.64-.346-1.071-.346-.434 0-.794.115-1.08.346a2.06 2.06 0 0 0-.632.919 3.66 3.66 0 0 0-.204 1.246c0 .456.068.873.204 1.251.138.379.349.682.632.91.286.228.646.341 1.08.341Zm7.829 1.159c-.687 0-1.278-.155-1.773-.466a3.092 3.092 0 0 1-1.136-1.297c-.264-.551-.397-1.182-.397-1.893 0-.72.136-1.356.407-1.907.27-.554.652-.986 1.144-1.297.493-.311 1.073-.466 1.741-.466.538 0 1.019.1 1.44.3.422.197.762.474 1.02.831.262.357.417.774.467 1.251h-1.344a1.607 1.607 0 0 0-.508-.859c-.261-.24-.612-.36-1.052-.36-.385 0-.722.102-1.011.305-.286.2-.509.486-.669.858-.161.37-.241.807-.241 1.312 0 .517.079.963.236 1.338.157.376.378.667.665.873.289.206.629.309 1.02.309.262 0 .499-.048.711-.143.215-.098.395-.238.54-.42.148-.182.251-.4.309-.656h1.344a2.62 2.62 0 0 1-.448 1.228c-.249.36-.583.644-1.002.85-.415.206-.903.309-1.463.309Zm8.881-3.084v-4.15h1.385V180h-1.358v-1.228h-.074a2.205 2.205 0 0 1-.784.946c-.357.25-.802.374-1.334.374a2.4 2.4 0 0 1-1.21-.3 2.106 2.106 0 0 1-.822-.9c-.197-.397-.295-.888-.295-1.473v-4.51h1.38v4.344c0 .483.134.868.402 1.154.268.287.615.43 1.043.43.259 0 .516-.065.771-.194a1.63 1.63 0 0 0 .642-.587c.172-.261.257-.594.254-.997Zm3.239 2.941v-7.091h1.325v1.154h.088c.148-.391.389-.695.725-.914.335-.221.737-.332 1.205-.332.474 0 .871.111 1.191.332.323.222.561.526.715.914h.074a2 2 0 0 1 .808-.905c.369-.227.809-.341 1.32-.341.643 0 1.168.201 1.574.605.41.403.614 1.011.614 1.823V180h-1.38v-4.626c0-.48-.131-.828-.392-1.043a1.43 1.43 0 0 0-.937-.323c-.45 0-.799.138-1.048.415-.25.274-.374.627-.374 1.057V180h-1.376v-4.713c0-.385-.12-.694-.36-.928-.24-.234-.553-.351-.937-.351-.262 0-.503.069-.725.208a1.521 1.521 0 0 0-.531.567 1.746 1.746 0 0 0-.198.845V180h-1.381Zm14.546.143c-.699 0-1.301-.149-1.805-.448a3.03 3.03 0 0 1-1.164-1.269c-.271-.548-.406-1.19-.406-1.925 0-.727.135-1.367.406-1.921a3.158 3.158 0 0 1 1.145-1.297c.493-.311 1.068-.466 1.727-.466.4 0 .788.066 1.163.198.376.133.713.34 1.011.623.299.284.534.651.706 1.104.173.449.259.995.259 1.639v.489h-5.637v-1.034h4.284c0-.363-.074-.685-.221-.965a1.677 1.677 0 0 0-.624-.669 1.74 1.74 0 0 0-.932-.245c-.388 0-.726.095-1.016.286a1.914 1.914 0 0 0-.664.739 2.128 2.128 0 0 0-.231.983v.808c0 .474.083.877.249 1.21.169.332.405.586.706.761.302.173.654.259 1.057.259.262 0 .501-.037.716-.111a1.478 1.478 0 0 0 .919-.9l1.306.235a2.354 2.354 0 0 1-.563 1.011c-.268.287-.605.51-1.011.67a3.78 3.78 0 0 1-1.38.235Zm5.954-4.353V180h-1.381v-7.091h1.325v1.154h.088c.163-.375.419-.677.766-.905.351-.227.793-.341 1.325-.341.483 0 .907.101 1.27.304.363.2.645.499.845.896.2.397.3.888.3 1.473V180h-1.381v-4.344c0-.514-.133-.916-.401-1.205-.268-.292-.636-.439-1.104-.439-.32 0-.604.07-.854.208a1.5 1.5 0 0 0-.586.61c-.141.264-.212.584-.212.96Zm9.699-2.881v1.108h-3.873v-1.108h3.873Zm-2.835-1.699h1.381v6.708c0 .268.04.469.12.605.08.132.183.223.309.272.129.046.269.069.42.069.111 0 .208-.007.291-.023.083-.015.148-.027.194-.037l.249 1.141a2.698 2.698 0 0 1-.895.147 2.423 2.423 0 0 1-1.016-.194 1.74 1.74 0 0 1-.762-.627c-.194-.284-.291-.639-.291-1.067v-6.994Zm9.561 3.43-1.251.222a1.465 1.465 0 0 0-.249-.457 1.24 1.24 0 0 0-.453-.356c-.19-.092-.429-.138-.715-.138-.391 0-.717.088-.979.263-.261.172-.392.395-.392.669 0 .237.087.428.263.573.175.144.458.263.849.355l1.127.259c.652.151 1.138.383 1.459.697.32.314.48.722.48 1.223 0 .425-.123.804-.37 1.136-.243.329-.583.588-1.02.776-.434.187-.937.281-1.51.281-.794 0-1.441-.169-1.943-.508-.502-.341-.809-.826-.923-1.454l1.334-.203c.083.348.254.611.512.789.259.176.596.264 1.011.264.453 0 .814-.094 1.085-.282.271-.191.406-.423.406-.697a.725.725 0 0 0-.249-.559c-.163-.151-.414-.264-.752-.341l-1.201-.264c-.661-.15-1.151-.39-1.468-.72-.314-.329-.471-.746-.471-1.251 0-.418.117-.785.351-1.098.234-.314.557-.559.97-.734.412-.179.885-.268 1.417-.268.766 0 1.37.166 1.81.498.44.33.731.771.872 1.325Zm3.452 4.067-.069.504a8.052 8.052 0 0 1-.236 1.154c-.107.403-.22.777-.337 1.122-.113.344-.207.618-.281.821h-.979l.166-.775c.071-.323.14-.685.208-1.085.068-.4.119-.808.152-1.224l.047-.517h1.329Zm7.301 1.45a2.9 2.9 0 0 1-1.219-.249 2.057 2.057 0 0 1-.863-.734c-.209-.32-.314-.713-.314-1.178 0-.4.077-.729.231-.987.154-.259.362-.464.623-.614.262-.151.554-.265.877-.342a8.72 8.72 0 0 1 .988-.176l1.034-.12c.265-.033.457-.087.577-.161.12-.074.18-.194.18-.36v-.033c0-.403-.113-.715-.341-.937-.225-.221-.56-.332-1.007-.332-.464 0-.831.103-1.098.309-.265.203-.448.43-.55.679l-1.297-.296c.154-.43.379-.778.674-1.043a2.735 2.735 0 0 1 1.03-.582 4.015 4.015 0 0 1 1.223-.184c.283 0 .583.034.9.101.32.065.619.185.896.36.28.176.509.427.688.753.178.323.267.743.267 1.26V180h-1.348v-.969h-.055a1.967 1.967 0 0 1-.402.526 2.127 2.127 0 0 1-.688.429c-.28.114-.615.171-1.006.171Zm.3-1.108c.382 0 .708-.075.979-.226.274-.151.481-.348.623-.591.145-.246.217-.509.217-.79v-.914c-.049.05-.145.096-.286.139-.139.04-.297.075-.476.106l-.521.079-.425.055a3.434 3.434 0 0 0-.734.171c-.219.08-.394.195-.526.346-.13.148-.194.345-.194.591 0 .342.126.6.378.775.253.173.574.259.965.259Zm6.418-3.259V180h-1.38v-7.091h1.325v1.154h.088c.163-.375.418-.677.766-.905.351-.227.792-.341 1.325-.341.483 0 .906.101 1.269.304.363.2.645.499.845.896.2.397.3.888.3 1.473V180h-1.38v-4.344c0-.514-.134-.916-.402-1.205-.268-.292-.635-.439-1.103-.439-.32 0-.605.07-.854.208a1.494 1.494 0 0 0-.586.61c-.142.264-.213.584-.213.96Zm9.044 4.348a2.752 2.752 0 0 1-1.533-.438c-.446-.296-.797-.716-1.052-1.26-.253-.548-.379-1.205-.379-1.972 0-.766.128-1.421.383-1.966.259-.545.613-.962 1.062-1.251.449-.29.959-.434 1.528-.434.44 0 .794.074 1.062.221.271.145.48.314.628.508.151.194.268.365.351.513h.083v-3.514h1.38V180h-1.348v-1.103h-.115a3.78 3.78 0 0 1-.36.517 2.008 2.008 0 0 1-.638.508c-.27.144-.621.216-1.052.216Zm.305-1.177c.397 0 .732-.104 1.006-.314.277-.212.486-.506.628-.881.144-.376.217-.813.217-1.311 0-.493-.071-.924-.213-1.293a1.894 1.894 0 0 0-.623-.863c-.274-.207-.612-.31-1.015-.31-.416 0-.762.108-1.039.323-.277.216-.486.51-.628.882a3.613 3.613 0 0 0-.208 1.261c0 .474.071.9.213 1.278.141.379.35.679.627.901.281.218.625.327 1.035.327Zm8.619 1.039v-7.091h1.324v1.154h.088c.148-.391.39-.695.725-.914.335-.221.737-.332 1.205-.332.474 0 .871.111 1.191.332.323.222.562.526.715.914h.074c.17-.378.439-.68.808-.905.37-.227.81-.341 1.321-.341.643 0 1.168.201 1.574.605.409.403.614 1.011.614 1.823V180h-1.381v-4.626c0-.48-.13-.828-.392-1.043a1.43 1.43 0 0 0-.937-.323c-.449 0-.799.138-1.048.415-.249.274-.374.627-.374 1.057V180H210.7v-4.713c0-.385-.12-.694-.36-.928-.24-.234-.552-.351-.937-.351-.262 0-.503.069-.725.208a1.53 1.53 0 0 0-.531.567 1.746 1.746 0 0 0-.198.845V180h-1.38Zm14.476.143c-.665 0-1.245-.152-1.741-.457a3.087 3.087 0 0 1-1.154-1.279c-.274-.548-.411-1.188-.411-1.92 0-.736.137-1.379.411-1.93a3.074 3.074 0 0 1 1.154-1.283c.496-.305 1.076-.457 1.741-.457.664 0 1.245.152 1.74.457.496.304.88.732 1.154 1.283.274.551.411 1.194.411 1.93 0 .732-.137 1.372-.411 1.92a3.08 3.08 0 0 1-1.154 1.279c-.495.305-1.076.457-1.74.457Zm.004-1.159c.431 0 .788-.113 1.071-.341a2 2 0 0 0 .628-.91 3.6 3.6 0 0 0 .208-1.251c0-.452-.069-.868-.208-1.246a2.029 2.029 0 0 0-.628-.919c-.283-.231-.64-.346-1.071-.346-.434 0-.794.115-1.08.346a2.06 2.06 0 0 0-.632.919 3.66 3.66 0 0 0-.204 1.246c0 .456.068.873.204 1.251.138.379.349.682.632.91.286.228.646.341 1.08.341Zm4.842 1.016v-7.091h1.334v1.127h.074c.129-.382.357-.682.683-.901a1.96 1.96 0 0 1 1.117-.332 6.07 6.07 0 0 1 .587.032v1.321a2.276 2.276 0 0 0-.296-.051 2.756 2.756 0 0 0-.425-.033c-.326 0-.617.07-.872.208a1.54 1.54 0 0 0-.822 1.39V180h-1.38Zm7.791.143c-.698 0-1.3-.149-1.805-.448a3.035 3.035 0 0 1-1.163-1.269c-.271-.548-.406-1.19-.406-1.925 0-.727.135-1.367.406-1.921a3.151 3.151 0 0 1 1.145-1.297c.492-.311 1.068-.466 1.726-.466.4 0 .788.066 1.164.198.375.133.712.34 1.011.623.298.284.534.651.706 1.104.172.449.259.995.259 1.639v.489h-5.637v-1.034h4.284c0-.363-.074-.685-.222-.965a1.667 1.667 0 0 0-.623-.669 1.742 1.742 0 0 0-.932-.245 1.8 1.8 0 0 0-1.016.286 1.924 1.924 0 0 0-.665.739 2.128 2.128 0 0 0-.231.983v.808c0 .474.083.877.25 1.21.169.332.404.586.706.761.302.173.654.259 1.057.259.262 0 .5-.037.716-.111a1.478 1.478 0 0 0 .918-.9l1.307.235a2.374 2.374 0 0 1-.563 1.011c-.268.287-.605.51-1.011.67a3.79 3.79 0 0 1-1.381.235Zm5.483-.055a.896.896 0 0 1-.65-.268.893.893 0 0 1-.273-.656c0-.252.091-.467.273-.646a.888.888 0 0 1 .65-.272c.253 0 .47.091.651.272a.873.873 0 0 1 .273.646c0 .17-.043.325-.129.467a.962.962 0 0 1-.333.332.88.88 0 0 1-.462.125Z" fill="#91A5BA"/><rect x="1" y=".5" width="300" height="199" rx="3.5" stroke="#EBF2F7"/><defs><filter id="a" x="14.5" y="47" width="273" height="44" filterUnits="userSpaceOnUse" color-interpolation-filters="sRGB"><feFlood flood-opacity="0" result="BackgroundImageFix"/><feColorMatrix in="SourceAlpha" values="0 0 0 0 0 0 0 0 0 0 0 0 0 0 0 0 0 0 127 0" result="hardAlpha"/><feOffset dy="1"/><feGaussianBlur stdDeviation="1"/><feColorMatrix values="0 0 0 0 0 0 0 0 0 0 0 0 0 0 0 0 0 0 0.05 0"/><feBlend in2="BackgroundImageFix" result="effect1_dropShadow_2247_16818"/><feBlend in="SourceGraphic" in2="effect1_dropShadow_2247_16818" result="shape"/></filter></defs></svg>