<svg width="233" height="26" viewBox="0 0 233 26" fill="none" xmlns="http://www.w3.org/2000/svg">
<path d="M9.62928 5.2H5.185V2.97143C5.185 2.18336 4.87284 1.42757 4.3172 0.870315C3.76156 0.313064 3.00794 0 2.22214 0H0V23.0286C0 23.8166 0.312155 24.5724 0.867798 25.1297C1.42344 25.6869 2.17706 26 2.96286 26H5.185V20.8H9.62928C11.6397 20.7238 13.5424 19.8692 14.9378 18.4158C16.3333 16.9624 17.1129 15.0232 17.1129 13.0056C17.1129 10.9879 16.3333 9.04876 14.9378 7.59536C13.5424 6.14195 11.6397 5.28739 9.62928 5.21114V5.2ZM9.62928 15.6H5.185V10.4H9.62928C11.1107 10.4 12.1292 11.5756 12.1292 13C12.1292 14.4244 11.1107 15.5944 9.62928 15.5944V15.6Z" fill="url(#paint0_linear_1008_5663)"/>
<path d="M32.663 2.32398H40.4679C42.3378 2.32398 43.8215 2.81202 44.9191 3.78811C46.0167 4.7642 46.5654 6.19783 46.5654 8.089C46.5654 8.96342 46.3825 9.75649 46.0167 10.4682C45.6508 11.1596 45.1325 11.6782 44.4618 12.0239C46.5959 12.8983 47.663 14.6369 47.663 17.2398C47.663 19.2937 47.0329 20.8798 45.7728 21.9983C44.5329 23.1167 42.8154 23.6759 40.6203 23.6759H32.663V2.32398ZM40.2545 10.6207C41.0878 10.6207 41.7077 10.4479 42.1142 10.1022C42.541 9.73616 42.7545 9.13627 42.7545 8.30253C42.7545 7.46878 42.541 6.87906 42.1142 6.53336C41.6874 6.16733 41.037 5.98431 40.163 5.98431H36.6264V10.6207H40.2545ZM40.2545 20.0156C41.4536 20.0156 42.3276 19.7716 42.8764 19.2835C43.4252 18.7955 43.6996 18.0838 43.6996 17.1483C43.6996 16.2129 43.4252 15.5012 42.8764 15.0131C42.3276 14.5251 41.4536 14.2811 40.2545 14.2811H36.6264V20.0156H40.2545Z" fill="#39444F"/>
<path d="M51.2046 2.07996H54.9851V23.6759H51.2046V2.07996Z" fill="#39444F"/>
<path d="M66.1947 23.92C64.589 23.92 63.1967 23.5743 62.0178 22.8829C60.839 22.1915 59.9345 21.2459 59.3044 20.0461C58.6946 18.8463 58.3898 17.494 58.3898 15.9892C58.3898 14.4844 58.6946 13.1321 59.3044 11.9324C59.9345 10.7326 60.839 9.78699 62.0178 9.0956C63.1967 8.4042 64.589 8.0585 66.1947 8.0585C67.8004 8.0585 69.1926 8.4042 70.3715 9.0956C71.5504 9.78699 72.4447 10.7326 73.0544 11.9324C73.6845 13.1321 73.9996 14.4844 73.9996 15.9892C73.9996 17.494 73.6845 18.8463 73.0544 20.0461C72.4447 21.2459 71.5504 22.1915 70.3715 22.8829C69.1926 23.5743 67.8004 23.92 66.1947 23.92ZM66.1947 20.6867C67.3735 20.6867 68.3085 20.2393 68.9996 19.3445C69.6906 18.4295 70.0361 17.311 70.0361 15.9892C70.0361 14.6674 69.6906 13.5592 68.9996 12.6644C68.3085 11.7493 67.3735 11.2918 66.1947 11.2918C65.0158 11.2918 64.0808 11.7493 63.3898 12.6644C62.6987 13.5592 62.3532 14.6674 62.3532 15.9892C62.3532 17.311 62.6987 18.4295 63.3898 19.3445C64.0808 20.2393 65.0158 20.6867 66.1947 20.6867Z" fill="#39444F"/>
<path d="M84.0515 23.92C82.4458 23.92 81.0739 23.5743 79.9357 22.8829C78.8178 22.1711 77.9743 21.2154 77.4052 20.0156C76.8361 18.8158 76.5515 17.4737 76.5515 15.9892C76.5515 14.5048 76.8361 13.1626 77.4052 11.9629C77.9743 10.7631 78.8178 9.8175 79.9357 9.1261C81.0739 8.41437 82.4458 8.0585 84.0515 8.0585C85.7589 8.0585 87.202 8.4347 88.3808 9.18711C89.58 9.91917 90.4641 11.0071 91.0333 12.4509L87.6491 13.8235C87.2426 12.9898 86.7446 12.3594 86.1552 11.9324C85.5861 11.5053 84.8849 11.2918 84.0515 11.2918C82.893 11.2918 82.0088 11.729 81.3991 12.6034C80.8097 13.4575 80.5149 14.5861 80.5149 15.9892C80.5149 17.3924 80.8097 18.5311 81.3991 19.4055C82.0088 20.2596 82.893 20.6867 84.0515 20.6867C84.8849 20.6867 85.5861 20.4731 86.1552 20.0461C86.7446 19.6191 87.2426 18.9887 87.6491 18.1549L91.0333 19.5276C90.4641 20.9714 89.58 22.0695 88.3808 22.8219C87.202 23.5539 85.7589 23.92 84.0515 23.92Z" fill="#39444F"/>
<path d="M94.0782 2.07996H97.8587V14.3421L102.859 8.30253H107.523L101.365 15.3792L107.92 23.6759H103.286L97.8587 16.4163V23.6759H94.0782V2.07996Z" fill="#39444F"/>
<path d="M118.112 2.32398H126.161C128.336 2.32398 129.993 2.92387 131.131 4.12364C132.269 5.30308 132.838 6.86889 132.838 8.82107C132.838 10.7733 132.269 12.3492 131.131 13.549C129.993 14.7284 128.336 15.3182 126.161 15.3182H122.076V23.6759H118.112V2.32398ZM126.009 11.6578C126.903 11.6578 127.594 11.424 128.082 10.9563C128.57 10.4886 128.814 9.77683 128.814 8.82107C128.814 7.86532 128.57 7.15359 128.082 6.68588C127.594 6.21817 126.903 5.98431 126.009 5.98431H122.076V11.6578H126.009Z" fill="#39444F"/>
<path d="M135.463 8.30253H139.244V10.8038C139.792 9.92934 140.463 9.25828 141.256 8.79057C142.049 8.30253 142.892 8.0585 143.786 8.0585C144.355 8.0585 144.975 8.16018 145.646 8.36353L144.945 11.8714C144.477 11.5867 143.949 11.4443 143.36 11.4443C142.16 11.4443 141.175 11.9934 140.402 13.0915C139.63 14.1692 139.244 15.8774 139.244 18.2159V23.6759H135.463V8.30253Z" fill="#39444F"/>
<path d="M154.413 23.92C152.807 23.92 151.415 23.5743 150.236 22.8829C149.057 22.1915 148.153 21.2459 147.523 20.0461C146.913 18.8463 146.608 17.494 146.608 15.9892C146.608 14.4844 146.913 13.1321 147.523 11.9324C148.153 10.7326 149.057 9.78699 150.236 9.0956C151.415 8.4042 152.807 8.0585 154.413 8.0585C156.019 8.0585 157.411 8.4042 158.59 9.0956C159.769 9.78699 160.663 10.7326 161.273 11.9324C161.903 13.1321 162.218 14.4844 162.218 15.9892C162.218 17.494 161.903 18.8463 161.273 20.0461C160.663 21.2459 159.769 22.1915 158.59 22.8829C157.411 23.5743 156.019 23.92 154.413 23.92ZM154.413 20.6867C155.592 20.6867 156.527 20.2393 157.218 19.3445C157.909 18.4295 158.255 17.311 158.255 15.9892C158.255 14.6674 157.909 13.5592 157.218 12.6644C156.527 11.7493 155.592 11.2918 154.413 11.2918C153.234 11.2918 152.299 11.7493 151.608 12.6644C150.917 13.5592 150.572 14.6674 150.572 15.9892C150.572 17.311 150.917 18.4295 151.608 19.3445C152.299 20.2393 153.234 20.6867 154.413 20.6867Z" fill="#39444F"/>
<path d="M171.663 23.92C169.895 23.92 168.513 23.4421 167.517 22.4863C166.521 21.5306 166.023 20.1173 166.023 18.2464V11.5358H163.645V8.30253H166.023V4.45917L169.803 2.07996V8.30253H173.858V11.5358H169.803V18.1854C169.803 19.1005 169.966 19.7512 170.291 20.1376C170.637 20.5036 171.145 20.6867 171.815 20.6867C172.324 20.6867 172.811 20.5646 173.279 20.3206L174.163 23.3709C173.37 23.7369 172.537 23.92 171.663 23.92Z" fill="#39444F"/>
<path d="M182.995 23.92C181.39 23.92 179.998 23.5743 178.819 22.8829C177.64 22.1915 176.735 21.2459 176.105 20.0461C175.495 18.8463 175.191 17.494 175.191 15.9892C175.191 14.4844 175.495 13.1321 176.105 11.9324C176.735 10.7326 177.64 9.78699 178.819 9.0956C179.998 8.4042 181.39 8.0585 182.995 8.0585C184.601 8.0585 185.993 8.4042 187.172 9.0956C188.351 9.78699 189.246 10.7326 189.855 11.9324C190.485 13.1321 190.8 14.4844 190.8 15.9892C190.8 17.494 190.485 18.8463 189.855 20.0461C189.246 21.2459 188.351 22.1915 187.172 22.8829C185.993 23.5743 184.601 23.92 182.995 23.92ZM182.995 20.6867C184.174 20.6867 185.109 20.2393 185.8 19.3445C186.491 18.4295 186.837 17.311 186.837 15.9892C186.837 14.6674 186.491 13.5592 185.8 12.6644C185.109 11.7493 184.174 11.2918 182.995 11.2918C181.817 11.2918 180.882 11.7493 180.191 12.6644C179.5 13.5592 179.154 14.6674 179.154 15.9892C179.154 17.311 179.5 18.4295 180.191 19.3445C180.882 20.2393 181.817 20.6867 182.995 20.6867Z" fill="#39444F"/>
<path d="M200.852 23.92C199.247 23.92 197.875 23.5743 196.736 22.8829C195.619 22.1711 194.775 21.2154 194.206 20.0156C193.637 18.8158 193.352 17.4737 193.352 15.9892C193.352 14.5048 193.637 13.1626 194.206 11.9629C194.775 10.7631 195.619 9.8175 196.736 9.1261C197.875 8.41437 199.247 8.0585 200.852 8.0585C202.56 8.0585 204.003 8.4347 205.182 9.18711C206.381 9.91917 207.265 11.0071 207.834 12.4509L204.45 13.8235C204.043 12.9898 203.545 12.3594 202.956 11.9324C202.387 11.5053 201.686 11.2918 200.852 11.2918C199.694 11.2918 198.81 11.729 198.2 12.6034C197.611 13.4575 197.316 14.5861 197.316 15.9892C197.316 17.3924 197.611 18.5311 198.2 19.4055C198.81 20.2596 199.694 20.6867 200.852 20.6867C201.686 20.6867 202.387 20.4731 202.956 20.0461C203.545 19.6191 204.043 18.9887 204.45 18.1549L207.834 19.5276C207.265 20.9714 206.381 22.0695 205.182 22.8219C204.003 23.5539 202.56 23.92 200.852 23.92Z" fill="#39444F"/>
<path d="M218.009 23.92C216.403 23.92 215.011 23.5743 213.832 22.8829C212.653 22.1915 211.749 21.2459 211.119 20.0461C210.509 18.8463 210.204 17.494 210.204 15.9892C210.204 14.4844 210.509 13.1321 211.119 11.9324C211.749 10.7326 212.653 9.78699 213.832 9.0956C215.011 8.4042 216.403 8.0585 218.009 8.0585C219.615 8.0585 221.007 8.4042 222.186 9.0956C223.365 9.78699 224.259 10.7326 224.869 11.9324C225.499 13.1321 225.814 14.4844 225.814 15.9892C225.814 17.494 225.499 18.8463 224.869 20.0461C224.259 21.2459 223.365 22.1915 222.186 22.8829C221.007 23.5743 219.615 23.92 218.009 23.92ZM218.009 20.6867C219.188 20.6867 220.123 20.2393 220.814 19.3445C221.505 18.4295 221.85 17.311 221.85 15.9892C221.85 14.6674 221.505 13.5592 220.814 12.6644C220.123 11.7493 219.188 11.2918 218.009 11.2918C216.83 11.2918 215.895 11.7493 215.204 12.6644C214.513 13.5592 214.168 14.6674 214.168 15.9892C214.168 17.311 214.513 18.4295 215.204 19.3445C215.895 20.2393 216.83 20.6867 218.009 20.6867Z" fill="#39444F"/>
<path d="M229.219 2.07996H233V23.6759H229.219V2.07996Z" fill="#39444F"/>
<defs>
<linearGradient id="paint0_linear_1008_5663" x1="17" y1="-3.70591e-07" x2="8.55644" y2="26" gradientUnits="userSpaceOnUse">
<stop stop-color="#5637FF"/>
<stop offset="1" stop-color="#6F59EC"/>
</linearGradient>
</defs>
</svg>
