<svg width="122" height="26" viewBox="0 0 122 26" fill="none" xmlns="http://www.w3.org/2000/svg">
<g opacity="0.9">
<path opacity="0.886277" d="M14.5773 26H21.8166V0H14.5773V26Z" fill="url(#paint0_linear_1501_7142)"/>
<path opacity="0.898345" d="M4.18347 26H11.4222V0H4.18347V26Z" fill="url(#paint1_linear_1501_7142)"/>
<path opacity="0.881278" d="M0 11.1439H26V3.90454H0V11.1439Z" fill="url(#paint2_linear_1501_7142)"/>
<path opacity="0.855632" d="M0 21.7235H26V14.4847H0V21.7235Z" fill="url(#paint3_linear_1501_7142)"/>
</g>
<path d="M36 2.50001H41.82V10.36H49.29V2.50001H55.11V23.5H49.29V15.52H41.82V23.5H36V2.50001Z" fill="#0E1114"/>
<path d="M71.1823 15.22L68.8423 9.25001L66.4723 15.22H71.1823ZM66.0823 2.35001H71.6923L80.6323 23.5H74.3923L72.8623 19.75H64.7623L63.2623 23.5H57.1423L66.0823 2.35001Z" fill="#0E1114"/>
<path d="M90.9199 23.86C89.0399 23.86 87.2499 23.57 85.5499 22.99C83.8699 22.41 82.3799 21.54 81.0799 20.38L84.3199 16.51C86.4199 18.19 88.6899 19.03 91.1299 19.03C91.9099 19.03 92.4999 18.91 92.8999 18.67C93.3199 18.41 93.5299 18.05 93.5299 17.59V17.53C93.5299 17.31 93.4799 17.12 93.3799 16.96C93.2799 16.78 93.0899 16.61 92.8099 16.45C92.5499 16.29 92.1899 16.14 91.7299 16C91.2899 15.84 90.7099 15.68 89.9899 15.52C88.8699 15.26 87.8299 14.98 86.8699 14.68C85.9099 14.36 85.0699 13.96 84.3499 13.48C83.6499 12.98 83.0899 12.37 82.6699 11.65C82.2699 10.91 82.0699 10 82.0699 8.92001V8.86001C82.0699 7.88001 82.2499 6.98002 82.6099 6.16002C82.9899 5.34001 83.5299 4.63001 84.2299 4.03001C84.9499 3.43001 85.8099 2.97001 86.8099 2.65001C87.8099 2.31001 88.9399 2.14001 90.1999 2.14001C91.9999 2.14001 93.5999 2.38001 94.9999 2.86001C96.4199 3.32001 97.6999 4.01001 98.8399 4.93001L95.9299 9.04001C94.9699 8.36001 93.9799 7.85001 92.9599 7.51001C91.9599 7.15001 90.9899 6.97002 90.0499 6.97002C89.3499 6.97002 88.8199 7.10001 88.4599 7.36001C88.1199 7.62001 87.9499 7.94001 87.9499 8.32001V8.38001C87.9499 8.62001 87.9999 8.83001 88.0999 9.01001C88.2199 9.19001 88.4099 9.36001 88.6699 9.52001C88.9499 9.66001 89.3199 9.81001 89.7799 9.97001C90.2599 10.11 90.8599 10.26 91.5799 10.42C92.7799 10.68 93.8599 10.99 94.8199 11.35C95.7999 11.69 96.6299 12.11 97.3099 12.61C97.9899 13.11 98.5099 13.72 98.8699 14.44C99.2299 15.14 99.4099 15.98 99.4099 16.96V17.02C99.4099 18.1 99.1999 19.06 98.7799 19.9C98.3799 20.74 97.8099 21.46 97.0699 22.06C96.3299 22.64 95.4399 23.09 94.3999 23.41C93.3599 23.71 92.1999 23.86 90.9199 23.86Z" fill="#0E1114"/>
<path d="M102.24 2.50001H108.06V10.36H115.53V2.50001H121.35V23.5H115.53V15.52H108.06V23.5H102.24V2.50001Z" fill="#0E1114"/>
<defs>
<linearGradient id="paint0_linear_1501_7142" x1="21.8166" y1="26" x2="21.8166" y2="0" gradientUnits="userSpaceOnUse">
<stop stop-color="#00BBFF"/>
<stop offset="1" stop-color="#0046FF"/>
</linearGradient>
<linearGradient id="paint1_linear_1501_7142" x1="4.18347" y1="0" x2="4.18347" y2="26" gradientUnits="userSpaceOnUse">
<stop stop-color="#00B8FF"/>
<stop offset="1" stop-color="#0010FF"/>
</linearGradient>
<linearGradient id="paint2_linear_1501_7142" x1="1.52266" y1="10.7844" x2="24.9408" y2="10.7844" gradientUnits="userSpaceOnUse">
<stop stop-color="#00AFFF"/>
<stop offset="1" stop-color="#5424FF"/>
</linearGradient>
<linearGradient id="paint3_linear_1501_7142" x1="2.28882" y1="21.4049" x2="26" y2="21.4049" gradientUnits="userSpaceOnUse">
<stop stop-color="#6D2BF6"/>
<stop offset="1" stop-color="#0080FF"/>
</linearGradient>
</defs>
</svg>
