<svg width="294" height="336" viewBox="0 0 294 336" fill="none" xmlns="http://www.w3.org/2000/svg">
<path d="M1.38494 14V3.81818H5.46165C6.2107 3.81818 6.83546 3.92921 7.33594 4.15128C7.83641 4.37334 8.2126 4.68158 8.46449 5.07599C8.71638 5.46709 8.84233 5.91785 8.84233 6.42827C8.84233 6.82599 8.76278 7.17566 8.60369 7.47727C8.4446 7.77557 8.22585 8.02083 7.94744 8.21307C7.67235 8.40199 7.35748 8.53622 7.00284 8.61577V8.7152C7.39063 8.73177 7.75355 8.84115 8.09162 9.04332C8.433 9.2455 8.70975 9.52888 8.92188 9.89347C9.134 10.2547 9.24006 10.6856 9.24006 11.1861C9.24006 11.7263 9.10582 12.2086 8.83736 12.6328C8.57221 13.0537 8.17945 13.3868 7.65909 13.6321C7.13873 13.8774 6.4974 14 5.73509 14H1.38494ZM3.53764 12.2401H5.29261C5.89252 12.2401 6.33002 12.1257 6.60511 11.897C6.88021 11.665 7.01776 11.3568 7.01776 10.9723C7.01776 10.6906 6.94981 10.442 6.81392 10.2266C6.67803 10.0111 6.48414 9.84209 6.23224 9.71946C5.98366 9.59683 5.68703 9.53551 5.34233 9.53551H3.53764V12.2401ZM3.53764 8.07884H5.13352C5.4285 8.07884 5.69034 8.02746 5.91903 7.92472C6.15104 7.81866 6.33333 7.66951 6.46591 7.47727C6.6018 7.28504 6.66974 7.05469 6.66974 6.78622C6.66974 6.41832 6.53883 6.12169 6.27699 5.89631C6.01847 5.67093 5.65057 5.55824 5.1733 5.55824H3.53764V8.07884ZM12.7189 3.81818V14H10.601V3.81818H12.7189ZM17.8658 14.1491C17.0935 14.1491 16.4257 13.9851 15.8622 13.657C15.3021 13.3255 14.8696 12.8648 14.5646 12.2749C14.2597 11.6816 14.1072 10.9938 14.1072 10.2116C14.1072 9.42282 14.2597 8.73343 14.5646 8.14347C14.8696 7.55019 15.3021 7.08949 15.8622 6.76136C16.4257 6.42992 17.0935 6.2642 17.8658 6.2642C18.638 6.2642 19.3042 6.42992 19.8643 6.76136C20.4278 7.08949 20.862 7.55019 21.1669 8.14347C21.4718 8.73343 21.6243 9.42282 21.6243 10.2116C21.6243 10.9938 21.4718 11.6816 21.1669 12.2749C20.862 12.8648 20.4278 13.3255 19.8643 13.657C19.3042 13.9851 18.638 14.1491 17.8658 14.1491ZM17.8757 12.5085C18.227 12.5085 18.5204 12.4091 18.7557 12.2102C18.991 12.008 19.1683 11.733 19.2876 11.3849C19.4103 11.0369 19.4716 10.6409 19.4716 10.1967C19.4716 9.7526 19.4103 9.35653 19.2876 9.00852C19.1683 8.66051 18.991 8.38542 18.7557 8.18324C18.5204 7.98106 18.227 7.87997 17.8757 7.87997C17.5211 7.87997 17.2228 7.98106 16.9808 8.18324C16.7422 8.38542 16.5616 8.66051 16.4389 9.00852C16.3196 9.35653 16.2599 9.7526 16.2599 10.1967C16.2599 10.6409 16.3196 11.0369 16.4389 11.3849C16.5616 11.733 16.7422 12.008 16.9808 12.2102C17.2228 12.4091 17.5211 12.5085 17.8757 12.5085ZM26.4517 14.1491C25.6695 14.1491 24.9967 13.9834 24.4332 13.652C23.8731 13.3172 23.4422 12.8532 23.1406 12.2599C22.8423 11.6667 22.6932 10.9839 22.6932 10.2116C22.6932 9.42945 22.844 8.74337 23.1456 8.15341C23.4505 7.56013 23.883 7.09777 24.4432 6.76633C25.0033 6.43158 25.6695 6.2642 26.4418 6.2642C27.108 6.2642 27.6913 6.38518 28.1918 6.62713C28.6922 6.86908 29.0883 7.20881 29.38 7.64631C29.6716 8.08381 29.8324 8.59754 29.8622 9.1875H27.8636C27.8073 8.80634 27.6581 8.49976 27.4162 8.26776C27.1776 8.03243 26.8643 7.91477 26.4766 7.91477C26.1484 7.91477 25.8617 8.00426 25.6165 8.18324C25.3745 8.3589 25.1856 8.61577 25.0497 8.95384C24.9138 9.2919 24.8459 9.70123 24.8459 10.1818C24.8459 10.669 24.9122 11.0833 25.0447 11.4247C25.1806 11.7661 25.3712 12.0263 25.6165 12.2053C25.8617 12.3842 26.1484 12.4737 26.4766 12.4737C26.7185 12.4737 26.9356 12.424 27.1278 12.3246C27.3234 12.2251 27.4841 12.081 27.6101 11.892C27.7393 11.6998 27.8239 11.4695 27.8636 11.201H29.8622C29.8291 11.7843 29.67 12.2981 29.3849 12.7422C29.1032 13.183 28.7138 13.5277 28.2166 13.7763C27.7195 14.0249 27.1312 14.1491 26.4517 14.1491ZM33.1373 11.8026L33.1422 9.26207H33.4505L35.8965 6.36364H38.3276L35.0414 10.2017H34.5392L33.1373 11.8026ZM31.2182 14V3.81818H33.3361V14H31.2182ZM35.9909 14L33.7438 10.674L35.1557 9.17756L38.4718 14H35.9909ZM42.6467 14V3.81818H46.6637C47.436 3.81818 48.0939 3.96567 48.6374 4.26065C49.181 4.55232 49.5953 4.95833 49.8803 5.47869C50.1687 5.99574 50.3129 6.59233 50.3129 7.26847C50.3129 7.9446 50.167 8.54119 49.8754 9.05824C49.5837 9.57528 49.1611 9.97798 48.6076 10.2663C48.0574 10.5547 47.3912 10.6989 46.609 10.6989H44.0487V8.97372H46.261C46.6753 8.97372 47.0167 8.90246 47.2852 8.75994C47.5569 8.61411 47.7591 8.41359 47.8917 8.15838C48.0276 7.89986 48.0955 7.60322 48.0955 7.26847C48.0955 6.9304 48.0276 6.63542 47.8917 6.38352C47.7591 6.12831 47.5569 5.93111 47.2852 5.7919C47.0134 5.64938 46.6687 5.57812 46.2511 5.57812H44.7994V14H42.6467ZM51.6713 14V6.36364H53.7246V7.69602H53.8042C53.9434 7.22206 54.177 6.86411 54.5051 6.62216C54.8333 6.37689 55.2111 6.25426 55.6387 6.25426C55.7447 6.25426 55.8591 6.26089 55.9817 6.27415C56.1043 6.28741 56.2121 6.30563 56.3049 6.32883V8.2081C56.2054 8.17827 56.0679 8.15175 55.8922 8.12855C55.7166 8.10535 55.5558 8.09375 55.41 8.09375C55.0984 8.09375 54.82 8.1617 54.5748 8.29759C54.3328 8.43016 54.1406 8.61577 53.998 8.8544C53.8588 9.09304 53.7892 9.36813 53.7892 9.67969V14H51.6713ZM60.4947 14.1491C59.7224 14.1491 59.0546 13.9851 58.4911 13.657C57.931 13.3255 57.4985 12.8648 57.1935 12.2749C56.8886 11.6816 56.7362 10.9938 56.7362 10.2116C56.7362 9.42282 56.8886 8.73343 57.1935 8.14347C57.4985 7.55019 57.931 7.08949 58.4911 6.76136C59.0546 6.42992 59.7224 6.2642 60.4947 6.2642C61.2669 6.2642 61.9331 6.42992 62.4933 6.76136C63.0567 7.08949 63.4909 7.55019 63.7958 8.14347C64.1007 8.73343 64.2532 9.42282 64.2532 10.2116C64.2532 10.9938 64.1007 11.6816 63.7958 12.2749C63.4909 12.8648 63.0567 13.3255 62.4933 13.657C61.9331 13.9851 61.2669 14.1491 60.4947 14.1491ZM60.5046 12.5085C60.8559 12.5085 61.1493 12.4091 61.3846 12.2102C61.6199 12.008 61.7972 11.733 61.9165 11.3849C62.0392 11.0369 62.1005 10.6409 62.1005 10.1967C62.1005 9.7526 62.0392 9.35653 61.9165 9.00852C61.7972 8.66051 61.6199 8.38542 61.3846 8.18324C61.1493 7.98106 60.8559 7.87997 60.5046 7.87997C60.15 7.87997 59.8517 7.98106 59.6097 8.18324C59.3711 8.38542 59.1905 8.66051 59.0678 9.00852C58.9485 9.35653 58.8888 9.7526 58.8888 10.1967C58.8888 10.6409 58.9485 11.0369 59.0678 11.3849C59.1905 11.733 59.3711 12.008 59.6097 12.2102C59.8517 12.4091 60.15 12.5085 60.5046 12.5085ZM69.6921 6.36364V7.95455H65.0934V6.36364H69.6921ZM66.1374 4.53409H68.2553V11.6534C68.2553 11.849 68.2852 12.0014 68.3448 12.1108C68.4045 12.2169 68.4873 12.2914 68.5934 12.3345C68.7028 12.3776 68.8287 12.3991 68.9712 12.3991C69.0707 12.3991 69.1701 12.3909 69.2695 12.3743C69.369 12.3544 69.4452 12.3395 69.4982 12.3295L69.8313 13.9055C69.7253 13.9387 69.5761 13.9768 69.3839 14.0199C69.1916 14.0663 68.958 14.0945 68.6829 14.1044C68.1725 14.1243 67.725 14.0563 67.3406 13.9006C66.9594 13.7448 66.6628 13.5028 66.4506 13.1747C66.2385 12.8466 66.1341 12.4323 66.1374 11.9318V4.53409ZM74.44 14.1491C73.6677 14.1491 72.9999 13.9851 72.4364 13.657C71.8763 13.3255 71.4438 12.8648 71.1388 12.2749C70.8339 11.6816 70.6815 10.9938 70.6815 10.2116C70.6815 9.42282 70.8339 8.73343 71.1388 8.14347C71.4438 7.55019 71.8763 7.08949 72.4364 6.76136C72.9999 6.42992 73.6677 6.2642 74.44 6.2642C75.2122 6.2642 75.8784 6.42992 76.4386 6.76136C77.002 7.08949 77.4362 7.55019 77.7411 8.14347C78.046 8.73343 78.1985 9.42282 78.1985 10.2116C78.1985 10.9938 78.046 11.6816 77.7411 12.2749C77.4362 12.8648 77.002 13.3255 76.4386 13.657C75.8784 13.9851 75.2122 14.1491 74.44 14.1491ZM74.4499 12.5085C74.8013 12.5085 75.0946 12.4091 75.3299 12.2102C75.5652 12.008 75.7425 11.733 75.8619 11.3849C75.9845 11.0369 76.0458 10.6409 76.0458 10.1967C76.0458 9.7526 75.9845 9.35653 75.8619 9.00852C75.7425 8.66051 75.5652 8.38542 75.3299 8.18324C75.0946 7.98106 74.8013 7.87997 74.4499 7.87997C74.0953 7.87997 73.797 7.98106 73.555 8.18324C73.3164 8.38542 73.1358 8.66051 73.0131 9.00852C72.8938 9.35653 72.8342 9.7526 72.8342 10.1967C72.8342 10.6409 72.8938 11.0369 73.0131 11.3849C73.1358 11.733 73.3164 12.008 73.555 12.2102C73.797 12.4091 74.0953 12.5085 74.4499 12.5085ZM83.0259 14.1491C82.2437 14.1491 81.5709 13.9834 81.0075 13.652C80.4473 13.3172 80.0165 12.8532 79.7148 12.2599C79.4165 11.6667 79.2674 10.9839 79.2674 10.2116C79.2674 9.42945 79.4182 8.74337 79.7198 8.15341C80.0247 7.56013 80.4573 7.09777 81.0174 6.76633C81.5775 6.43158 82.2437 6.2642 83.016 6.2642C83.6822 6.2642 84.2655 6.38518 84.766 6.62713C85.2665 6.86908 85.6625 7.20881 85.9542 7.64631C86.2459 8.08381 86.4066 8.59754 86.4364 9.1875H84.4379C84.3815 8.80634 84.2324 8.49976 83.9904 8.26776C83.7518 8.03243 83.4386 7.91477 83.0508 7.91477C82.7227 7.91477 82.436 8.00426 82.1907 8.18324C81.9487 8.3589 81.7598 8.61577 81.6239 8.95384C81.488 9.2919 81.4201 9.70123 81.4201 10.1818C81.4201 10.669 81.4864 11.0833 81.619 11.4247C81.7549 11.7661 81.9454 12.0263 82.1907 12.2053C82.436 12.3842 82.7227 12.4737 83.0508 12.4737C83.2927 12.4737 83.5098 12.424 83.7021 12.3246C83.8976 12.2251 84.0584 12.081 84.1843 11.892C84.3136 11.6998 84.3981 11.4695 84.4379 11.201H86.4364C86.4033 11.7843 86.2442 12.2981 85.9592 12.7422C85.6774 13.183 85.288 13.5277 84.7908 13.7763C84.2937 14.0249 83.7054 14.1491 83.0259 14.1491ZM91.2427 14.1491C90.4705 14.1491 89.8026 13.9851 89.2392 13.657C88.679 13.3255 88.2465 12.8648 87.9416 12.2749C87.6367 11.6816 87.4842 10.9938 87.4842 10.2116C87.4842 9.42282 87.6367 8.73343 87.9416 8.14347C88.2465 7.55019 88.679 7.08949 89.2392 6.76136C89.8026 6.42992 90.4705 6.2642 91.2427 6.2642C92.015 6.2642 92.6812 6.42992 93.2413 6.76136C93.8047 7.08949 94.2389 7.55019 94.5439 8.14347C94.8488 8.73343 95.0012 9.42282 95.0012 10.2116C95.0012 10.9938 94.8488 11.6816 94.5439 12.2749C94.2389 12.8648 93.8047 13.3255 93.2413 13.657C92.6812 13.9851 92.015 14.1491 91.2427 14.1491ZM91.2527 12.5085C91.604 12.5085 91.8973 12.4091 92.1326 12.2102C92.368 12.008 92.5453 11.733 92.6646 11.3849C92.7872 11.0369 92.8485 10.6409 92.8485 10.1967C92.8485 9.7526 92.7872 9.35653 92.6646 9.00852C92.5453 8.66051 92.368 8.38542 92.1326 8.18324C91.8973 7.98106 91.604 7.87997 91.2527 7.87997C90.898 7.87997 90.5997 7.98106 90.3578 8.18324C90.1191 8.38542 89.9385 8.66051 89.8159 9.00852C89.6966 9.35653 89.6369 9.7526 89.6369 10.1967C89.6369 10.6409 89.6966 11.0369 89.8159 11.3849C89.9385 11.733 90.1191 12.008 90.3578 12.2102C90.5997 12.4091 90.898 12.5085 91.2527 12.5085ZM98.4963 3.81818V14H96.3784V3.81818H98.4963ZM104.518 14V3.81818H105.691V7.5767H105.791C105.877 7.44413 105.996 7.27509 106.149 7.0696C106.305 6.8608 106.527 6.67519 106.815 6.51278C107.107 6.34706 107.501 6.2642 107.998 6.2642C108.641 6.2642 109.208 6.42495 109.699 6.74645C110.189 7.06794 110.572 7.52367 110.847 8.11364C111.122 8.7036 111.26 9.39962 111.26 10.2017C111.26 11.0104 111.122 11.7114 110.847 12.3047C110.572 12.8946 110.191 13.352 109.703 13.6768C109.216 13.9983 108.654 14.1591 108.018 14.1591C107.528 14.1591 107.135 14.0779 106.84 13.9155C106.545 13.7498 106.318 13.5625 106.159 13.3537C106 13.1416 105.877 12.9659 105.791 12.8267H105.652V14H104.518ZM105.672 10.1818C105.672 10.7585 105.756 11.2673 105.925 11.7081C106.094 12.1456 106.341 12.4886 106.666 12.7372C106.991 12.9825 107.388 13.1051 107.859 13.1051C108.35 13.1051 108.759 12.9759 109.087 12.7173C109.418 12.4555 109.667 12.1042 109.833 11.6634C110.002 11.2192 110.086 10.7254 110.086 10.1818C110.086 9.64489 110.003 9.16098 109.838 8.73011C109.675 8.29593 109.428 7.95289 109.097 7.70099C108.769 7.44579 108.356 7.31818 107.859 7.31818C107.382 7.31818 106.981 7.43916 106.656 7.68111C106.331 7.91974 106.086 8.2545 105.92 8.68537C105.754 9.11293 105.672 9.61174 105.672 10.1818ZM114.228 3.81818V14H113.054V3.81818H114.228ZM119.479 14.1591C118.789 14.1591 118.185 13.995 117.664 13.6669C117.147 13.3388 116.743 12.8797 116.451 12.2898C116.163 11.6998 116.019 11.0104 116.019 10.2216C116.019 9.42614 116.163 8.73177 116.451 8.13849C116.743 7.54522 117.147 7.08452 117.664 6.75639C118.185 6.42827 118.789 6.2642 119.479 6.2642C120.168 6.2642 120.771 6.42827 121.289 6.75639C121.809 7.08452 122.213 7.54522 122.502 8.13849C122.793 8.73177 122.939 9.42614 122.939 10.2216C122.939 11.0104 122.793 11.6998 122.502 12.2898C122.213 12.8797 121.809 13.3388 121.289 13.6669C120.771 13.995 120.168 14.1591 119.479 14.1591ZM119.479 13.1051C120.003 13.1051 120.433 12.9709 120.771 12.7024C121.11 12.4339 121.36 12.081 121.522 11.6435C121.685 11.206 121.766 10.732 121.766 10.2216C121.766 9.71117 121.685 9.23556 121.522 8.79474C121.36 8.35393 121.11 7.99763 120.771 7.72585C120.433 7.45407 120.003 7.31818 119.479 7.31818C118.955 7.31818 118.524 7.45407 118.186 7.72585C117.848 7.99763 117.598 8.35393 117.436 8.79474C117.273 9.23556 117.192 9.71117 117.192 10.2216C117.192 10.732 117.273 11.206 117.436 11.6435C117.598 12.081 117.848 12.4339 118.186 12.7024C118.524 12.9709 118.955 13.1051 119.479 13.1051ZM127.832 14.1591C127.116 14.1591 126.5 13.9901 125.983 13.652C125.466 13.3139 125.068 12.8482 124.79 12.255C124.511 11.6617 124.372 10.9839 124.372 10.2216C124.372 9.44602 124.515 8.7616 124.8 8.16832C125.088 7.57173 125.489 7.10606 126.003 6.77131C126.52 6.43324 127.123 6.2642 127.812 6.2642C128.349 6.2642 128.833 6.36364 129.264 6.5625C129.695 6.76136 130.048 7.03977 130.323 7.39773C130.598 7.75568 130.769 8.1733 130.835 8.65057H129.662C129.572 8.30256 129.374 7.99432 129.065 7.72585C128.76 7.45407 128.349 7.31818 127.832 7.31818C127.375 7.31818 126.974 7.4375 126.629 7.67614C126.288 7.91146 126.021 8.24455 125.829 8.67543C125.64 9.10298 125.545 9.60511 125.545 10.1818C125.545 10.7718 125.638 11.2855 125.824 11.723C126.013 12.1605 126.278 12.5002 126.619 12.7422C126.964 12.9841 127.368 13.1051 127.832 13.1051C128.137 13.1051 128.414 13.0521 128.663 12.946C128.911 12.84 129.122 12.6875 129.294 12.4886C129.466 12.2898 129.589 12.0511 129.662 11.7727H130.835C130.769 12.2235 130.605 12.6295 130.343 12.9908C130.085 13.3487 129.741 13.6338 129.314 13.8459C128.89 14.0547 128.396 14.1591 127.832 14.1591ZM133.644 11.2159L133.624 9.7642H133.863L137.204 6.36364H138.656L135.096 9.96307H134.996L133.644 11.2159ZM132.55 14V3.81818H133.724V14H132.55ZM137.403 14L134.42 10.2216L135.255 9.40625L138.894 14H137.403ZM145.575 8.07386L144.521 8.37216C144.454 8.1965 144.357 8.0258 144.227 7.86009C144.102 7.69105 143.929 7.55185 143.71 7.44247C143.492 7.3331 143.212 7.27841 142.87 7.27841C142.403 7.27841 142.013 7.38613 141.702 7.60156C141.394 7.81368 141.24 8.08381 141.24 8.41193C141.24 8.7036 141.346 8.93395 141.558 9.10298C141.77 9.27202 142.101 9.41288 142.552 9.52557L143.686 9.80398C144.368 9.9697 144.877 10.2232 145.212 10.5646C145.547 10.9027 145.714 11.3385 145.714 11.8722C145.714 12.3097 145.588 12.7008 145.336 13.0455C145.088 13.3902 144.74 13.6619 144.292 13.8608C143.845 14.0597 143.324 14.1591 142.731 14.1591C141.952 14.1591 141.307 13.9901 140.797 13.652C140.287 13.3139 139.963 12.8201 139.828 12.1705L140.941 11.892C141.047 12.303 141.248 12.6113 141.543 12.8168C141.841 13.0223 142.231 13.125 142.711 13.125C143.258 13.125 143.692 13.009 144.014 12.777C144.338 12.5417 144.501 12.2599 144.501 11.9318C144.501 11.6667 144.408 11.4446 144.222 11.2656C144.037 11.0833 143.752 10.9474 143.367 10.858L142.095 10.5597C141.395 10.3939 140.882 10.1371 140.553 9.78906C140.229 9.43774 140.066 8.99858 140.066 8.47159C140.066 8.04072 140.187 7.65956 140.429 7.32812C140.674 6.99669 141.008 6.73651 141.428 6.54758C141.853 6.35866 142.333 6.2642 142.87 6.2642C143.626 6.2642 144.219 6.42992 144.65 6.76136C145.084 7.0928 145.392 7.5303 145.575 8.07386ZM153.665 14.179C153.181 14.179 152.742 14.0878 152.347 13.9055C151.953 13.7199 151.64 13.4531 151.408 13.1051C151.176 12.7538 151.06 12.3295 151.06 11.8324C151.06 11.3949 151.146 11.0402 151.318 10.7685C151.491 10.4934 151.721 10.2779 152.009 10.1222C152.298 9.96638 152.616 9.85038 152.964 9.77415C153.315 9.6946 153.668 9.63163 154.023 9.58523C154.487 9.52557 154.863 9.48082 155.151 9.45099C155.443 9.41785 155.655 9.36316 155.788 9.28693C155.924 9.2107 155.991 9.07812 155.991 8.8892V8.84943C155.991 8.3589 155.857 7.97775 155.589 7.70597C155.324 7.43419 154.921 7.2983 154.381 7.2983C153.821 7.2983 153.381 7.42093 153.063 7.66619C152.745 7.91146 152.521 8.1733 152.392 8.4517L151.278 8.05398C151.477 7.58996 151.742 7.22869 152.074 6.97017C152.409 6.70833 152.773 6.52604 153.168 6.4233C153.565 6.31723 153.956 6.2642 154.341 6.2642C154.586 6.2642 154.868 6.29403 155.186 6.35369C155.508 6.41004 155.817 6.5277 156.116 6.70668C156.417 6.88565 156.668 7.15578 156.866 7.51705C157.065 7.87831 157.165 8.36222 157.165 8.96875V14H155.991V12.9659H155.932C155.852 13.1316 155.72 13.3089 155.534 13.4979C155.348 13.6868 155.102 13.8475 154.793 13.9801C154.485 14.1127 154.109 14.179 153.665 14.179ZM153.844 13.125C154.308 13.125 154.699 13.0339 155.017 12.8516C155.339 12.6693 155.58 12.4339 155.743 12.1456C155.909 11.8572 155.991 11.554 155.991 11.2358V10.1619C155.942 10.2216 155.832 10.2763 155.663 10.326C155.498 10.3724 155.305 10.4138 155.087 10.4503C154.871 10.4834 154.661 10.5133 154.455 10.5398C154.253 10.563 154.089 10.5829 153.963 10.5994C153.658 10.6392 153.373 10.7038 153.108 10.7933C152.846 10.8795 152.634 11.0104 152.472 11.1861C152.313 11.3584 152.233 11.5937 152.233 11.892C152.233 12.2997 152.384 12.608 152.685 12.8168C152.99 13.0223 153.376 13.125 153.844 13.125ZM160.48 3.81818V14H159.306V3.81818H160.48ZM163.802 3.81818V14H162.629V3.81818H163.802ZM169.053 14.1591C168.364 14.1591 167.759 13.995 167.238 13.6669C166.721 13.3388 166.317 12.8797 166.025 12.2898C165.737 11.6998 165.593 11.0104 165.593 10.2216C165.593 9.42614 165.737 8.73177 166.025 8.13849C166.317 7.54522 166.721 7.08452 167.238 6.75639C167.759 6.42827 168.364 6.2642 169.053 6.2642C169.742 6.2642 170.346 6.42827 170.863 6.75639C171.383 7.08452 171.787 7.54522 172.076 8.13849C172.367 8.73177 172.513 9.42614 172.513 10.2216C172.513 11.0104 172.367 11.6998 172.076 12.2898C171.787 12.8797 171.383 13.3388 170.863 13.6669C170.346 13.995 169.742 14.1591 169.053 14.1591ZM169.053 13.1051C169.577 13.1051 170.008 12.9709 170.346 12.7024C170.684 12.4339 170.934 12.081 171.096 11.6435C171.259 11.206 171.34 10.732 171.34 10.2216C171.34 9.71117 171.259 9.23556 171.096 8.79474C170.934 8.35393 170.684 7.99763 170.346 7.72585C170.008 7.45407 169.577 7.31818 169.053 7.31818C168.529 7.31818 168.099 7.45407 167.76 7.72585C167.422 7.99763 167.172 8.35393 167.01 8.79474C166.847 9.23556 166.766 9.71117 166.766 10.2216C166.766 10.732 166.847 11.206 167.01 11.6435C167.172 12.081 167.422 12.4339 167.76 12.7024C168.099 12.9709 168.529 13.1051 169.053 13.1051ZM175.775 14L173.448 6.36364H174.681L176.331 12.2102H176.411L178.042 6.36364H179.295L180.905 12.1903H180.985L182.635 6.36364H183.868L181.542 14H180.388L178.718 8.13352H178.599L176.928 14H175.775ZM192.559 14.1591C191.823 14.1591 191.188 13.9967 190.655 13.6719C190.124 13.3438 189.715 12.8864 189.427 12.2997C189.142 11.7098 188.999 11.0237 188.999 10.2415C188.999 9.45928 189.142 8.76989 189.427 8.1733C189.715 7.57339 190.116 7.10606 190.63 6.77131C191.147 6.43324 191.75 6.2642 192.439 6.2642C192.837 6.2642 193.23 6.33049 193.618 6.46307C194.006 6.59564 194.358 6.81108 194.677 7.10938C194.995 7.40436 195.248 7.79545 195.437 8.28267C195.626 8.76989 195.721 9.36979 195.721 10.0824V10.5795H189.834V9.56534H194.528C194.528 9.13447 194.441 8.75 194.269 8.41193C194.1 8.07386 193.858 7.80705 193.543 7.61151C193.232 7.41596 192.864 7.31818 192.439 7.31818C191.972 7.31818 191.568 7.43419 191.226 7.66619C190.888 7.89489 190.628 8.19318 190.446 8.56108C190.264 8.92898 190.172 9.32339 190.172 9.74432V10.4205C190.172 10.9972 190.272 11.486 190.471 11.8871C190.673 12.2848 190.953 12.5881 191.311 12.7969C191.669 13.0024 192.085 13.1051 192.559 13.1051C192.867 13.1051 193.145 13.062 193.394 12.9759C193.646 12.8864 193.863 12.7538 194.045 12.5781C194.228 12.3991 194.368 12.1771 194.468 11.9119L195.601 12.2301C195.482 12.6146 195.282 12.9527 195 13.2443C194.718 13.5327 194.37 13.758 193.956 13.9205C193.541 14.0795 193.076 14.1591 192.559 14.1591ZM200.906 6.36364V7.35795H196.79V6.36364H200.906ZM198.023 14V5.30966C198.023 4.87216 198.125 4.50758 198.331 4.21591C198.536 3.92424 198.803 3.70549 199.131 3.55966C199.459 3.41383 199.806 3.34091 200.17 3.34091C200.459 3.34091 200.694 3.36411 200.876 3.41051C201.059 3.45691 201.194 3.5 201.284 3.53977L200.946 4.55398C200.886 4.53409 200.803 4.50923 200.697 4.4794C200.595 4.44957 200.459 4.43466 200.29 4.43466C199.902 4.43466 199.622 4.53243 199.449 4.72798C199.28 4.92353 199.196 5.21023 199.196 5.58807V14H198.023ZM205.951 6.36364V7.35795H201.835V6.36364H205.951ZM203.067 14V5.30966C203.067 4.87216 203.17 4.50758 203.376 4.21591C203.581 3.92424 203.848 3.70549 204.176 3.55966C204.504 3.41383 204.851 3.34091 205.215 3.34091C205.504 3.34091 205.739 3.36411 205.921 3.41051C206.103 3.45691 206.239 3.5 206.329 3.53977L205.991 4.55398C205.931 4.53409 205.848 4.50923 205.742 4.4794C205.639 4.44957 205.504 4.43466 205.335 4.43466C204.947 4.43466 204.667 4.53243 204.494 4.72798C204.325 4.92353 204.241 5.21023 204.241 5.58807V14H203.067ZM210.383 14.1591C209.694 14.1591 209.089 13.995 208.569 13.6669C208.051 13.3388 207.647 12.8797 207.355 12.2898C207.067 11.6998 206.923 11.0104 206.923 10.2216C206.923 9.42614 207.067 8.73177 207.355 8.13849C207.647 7.54522 208.051 7.08452 208.569 6.75639C209.089 6.42827 209.694 6.2642 210.383 6.2642C211.073 6.2642 211.676 6.42827 212.193 6.75639C212.713 7.08452 213.118 7.54522 213.406 8.13849C213.698 8.73177 213.843 9.42614 213.843 10.2216C213.843 11.0104 213.698 11.6998 213.406 12.2898C213.118 12.8797 212.713 13.3388 212.193 13.6669C211.676 13.995 211.073 14.1591 210.383 14.1591ZM210.383 13.1051C210.907 13.1051 211.338 12.9709 211.676 12.7024C212.014 12.4339 212.264 12.081 212.426 11.6435C212.589 11.206 212.67 10.732 212.67 10.2216C212.67 9.71117 212.589 9.23556 212.426 8.79474C212.264 8.35393 212.014 7.99763 211.676 7.72585C211.338 7.45407 210.907 7.31818 210.383 7.31818C209.859 7.31818 209.429 7.45407 209.091 7.72585C208.752 7.99763 208.502 8.35393 208.34 8.79474C208.177 9.23556 208.096 9.71117 208.096 10.2216C208.096 10.732 208.177 11.206 208.34 11.6435C208.502 12.081 208.752 12.4339 209.091 12.7024C209.429 12.9709 209.859 13.1051 210.383 13.1051ZM215.634 14V6.36364H216.768V7.51705H216.847C216.987 7.1392 217.239 6.83262 217.603 6.5973C217.968 6.36198 218.379 6.24432 218.836 6.24432C218.922 6.24432 219.03 6.24597 219.159 6.24929C219.289 6.2526 219.386 6.25758 219.453 6.2642V7.45739C219.413 7.44744 219.322 7.43253 219.179 7.41264C219.04 7.38944 218.892 7.37784 218.737 7.37784C218.365 7.37784 218.034 7.45573 217.742 7.61151C217.454 7.76397 217.225 7.97609 217.056 8.24787C216.891 8.51634 216.808 8.82292 216.808 9.16761V14H215.634ZM224.643 6.36364V7.35795H220.686V6.36364H224.643ZM221.839 4.53409H223.012V11.8125C223.012 12.1439 223.06 12.3925 223.156 12.5582C223.256 12.7206 223.382 12.83 223.534 12.8864C223.69 12.9394 223.854 12.9659 224.026 12.9659C224.156 12.9659 224.262 12.9593 224.345 12.946C224.427 12.9295 224.494 12.9162 224.544 12.9062L224.782 13.9602C224.703 13.9901 224.592 14.0199 224.449 14.0497C224.307 14.0829 224.126 14.0994 223.907 14.0994C223.576 14.0994 223.251 14.0282 222.933 13.8857C222.618 13.7431 222.356 13.526 222.147 13.2344C221.942 12.9427 221.839 12.5748 221.839 12.1307V4.53409ZM227.745 3.81818V14H226.572V3.81818H227.745ZM233.096 14.1591C232.36 14.1591 231.725 13.9967 231.192 13.6719C230.661 13.3438 230.252 12.8864 229.964 12.2997C229.679 11.7098 229.536 11.0237 229.536 10.2415C229.536 9.45928 229.679 8.76989 229.964 8.1733C230.252 7.57339 230.653 7.10606 231.167 6.77131C231.684 6.43324 232.287 6.2642 232.977 6.2642C233.374 6.2642 233.767 6.33049 234.155 6.46307C234.543 6.59564 234.896 6.81108 235.214 7.10938C235.532 7.40436 235.786 7.79545 235.974 8.28267C236.163 8.76989 236.258 9.36979 236.258 10.0824V10.5795H230.371V9.56534H235.065C235.065 9.13447 234.978 8.75 234.806 8.41193C234.637 8.07386 234.395 7.80705 234.08 7.61151C233.769 7.41596 233.401 7.31818 232.977 7.31818C232.509 7.31818 232.105 7.43419 231.763 7.66619C231.425 7.89489 231.165 8.19318 230.983 8.56108C230.801 8.92898 230.71 9.32339 230.71 9.74432V10.4205C230.71 10.9972 230.809 11.486 231.008 11.8871C231.21 12.2848 231.49 12.5881 231.848 12.7969C232.206 13.0024 232.622 13.1051 233.096 13.1051C233.404 13.1051 233.683 13.062 233.931 12.9759C234.183 12.8864 234.4 12.7538 234.582 12.5781C234.765 12.3991 234.906 12.1771 235.005 11.9119L236.138 12.2301C236.019 12.6146 235.819 12.9527 235.537 13.2443C235.255 13.5327 234.907 13.758 234.493 13.9205C234.079 14.0795 233.613 14.1591 233.096 14.1591ZM243.452 8.07386L242.398 8.37216C242.331 8.1965 242.234 8.0258 242.104 7.86009C241.978 7.69105 241.806 7.55185 241.587 7.44247C241.369 7.3331 241.089 7.27841 240.747 7.27841C240.28 7.27841 239.89 7.38613 239.579 7.60156C239.271 7.81368 239.116 8.08381 239.116 8.41193C239.116 8.7036 239.223 8.93395 239.435 9.10298C239.647 9.27202 239.978 9.41288 240.429 9.52557L241.562 9.80398C242.245 9.9697 242.754 10.2232 243.089 10.5646C243.424 10.9027 243.591 11.3385 243.591 11.8722C243.591 12.3097 243.465 12.7008 243.213 13.0455C242.964 13.3902 242.616 13.6619 242.169 13.8608C241.722 14.0597 241.201 14.1591 240.608 14.1591C239.829 14.1591 239.184 13.9901 238.674 13.652C238.164 13.3139 237.84 12.8201 237.705 12.1705L238.818 11.892C238.924 12.303 239.125 12.6113 239.42 12.8168C239.718 13.0223 240.107 13.125 240.588 13.125C241.135 13.125 241.569 13.009 241.891 12.777C242.215 12.5417 242.378 12.2599 242.378 11.9318C242.378 11.6667 242.285 11.4446 242.099 11.2656C241.914 11.0833 241.629 10.9474 241.244 10.858L239.972 10.5597C239.272 10.3939 238.759 10.1371 238.43 9.78906C238.106 9.43774 237.943 8.99858 237.943 8.47159C237.943 8.04072 238.064 7.65956 238.306 7.32812C238.551 6.99669 238.884 6.73651 239.305 6.54758C239.73 6.35866 240.21 6.2642 240.747 6.2642C241.503 6.2642 242.096 6.42992 242.527 6.76136C242.961 7.0928 243.269 7.5303 243.452 8.07386ZM250.766 8.07386L249.712 8.37216C249.646 8.1965 249.548 8.0258 249.419 7.86009C249.293 7.69105 249.121 7.55185 248.902 7.44247C248.683 7.3331 248.403 7.27841 248.062 7.27841C247.594 7.27841 247.205 7.38613 246.893 7.60156C246.585 7.81368 246.431 8.08381 246.431 8.41193C246.431 8.7036 246.537 8.93395 246.749 9.10298C246.961 9.27202 247.293 9.41288 247.743 9.52557L248.877 9.80398C249.56 9.9697 250.068 10.2232 250.403 10.5646C250.738 10.9027 250.905 11.3385 250.905 11.8722C250.905 12.3097 250.779 12.7008 250.528 13.0455C250.279 13.3902 249.931 13.6619 249.483 13.8608C249.036 14.0597 248.516 14.1591 247.922 14.1591C247.144 14.1591 246.499 13.9901 245.988 13.652C245.478 13.3139 245.155 12.8201 245.019 12.1705L246.133 11.892C246.239 12.303 246.439 12.6113 246.734 12.8168C247.032 13.0223 247.422 13.125 247.903 13.125C248.449 13.125 248.884 13.009 249.205 12.777C249.53 12.5417 249.692 12.2599 249.692 11.9318C249.692 11.6667 249.599 11.4446 249.414 11.2656C249.228 11.0833 248.943 10.9474 248.559 10.858L247.286 10.5597C246.587 10.3939 246.073 10.1371 245.745 9.78906C245.42 9.43774 245.258 8.99858 245.258 8.47159C245.258 8.04072 245.379 7.65956 245.621 7.32812C245.866 6.99669 246.199 6.73651 246.62 6.54758C247.044 6.35866 247.525 6.2642 248.062 6.2642C248.817 6.2642 249.411 6.42992 249.841 6.76136C250.276 7.0928 250.584 7.5303 250.766 8.07386ZM4.67614 31.1591C3.96023 31.1591 3.34375 30.9901 2.8267 30.652C2.30966 30.3139 1.91193 29.8482 1.63352 29.255C1.35511 28.6617 1.21591 27.9839 1.21591 27.2216C1.21591 26.446 1.35843 25.7616 1.64347 25.1683C1.93182 24.5717 2.33286 24.1061 2.84659 23.7713C3.36364 23.4332 3.96686 23.2642 4.65625 23.2642C5.19318 23.2642 5.67708 23.3636 6.10795 23.5625C6.53883 23.7614 6.89181 24.0398 7.1669 24.3977C7.442 24.7557 7.61269 25.1733 7.67898 25.6506H6.50568C6.41619 25.3026 6.21733 24.9943 5.90909 24.7259C5.60417 24.4541 5.19318 24.3182 4.67614 24.3182C4.21875 24.3182 3.81771 24.4375 3.47301 24.6761C3.13163 24.9115 2.86482 25.2446 2.67259 25.6754C2.48366 26.103 2.3892 26.6051 2.3892 27.1818C2.3892 27.7718 2.48201 28.2855 2.66761 28.723C2.85653 29.1605 3.12169 29.5002 3.46307 29.7422C3.80777 29.9841 4.21212 30.1051 4.67614 30.1051C4.98106 30.1051 5.25781 30.0521 5.50639 29.946C5.75497 29.84 5.96544 29.6875 6.13778 29.4886C6.31013 29.2898 6.43277 29.0511 6.50568 28.7727H7.67898C7.61269 29.2235 7.44863 29.6295 7.18679 29.9908C6.92827 30.3487 6.58523 30.6338 6.15767 30.8459C5.73343 31.0547 5.23958 31.1591 4.67614 31.1591ZM9.39418 31V23.3636H10.5277V24.517H10.6072C10.7464 24.1392 10.9983 23.8326 11.3629 23.5973C11.7275 23.362 12.1385 23.2443 12.5959 23.2443C12.6821 23.2443 12.7898 23.246 12.919 23.2493C13.0483 23.2526 13.1461 23.2576 13.2124 23.2642V24.4574C13.1726 24.4474 13.0814 24.4325 12.9389 24.4126C12.7997 24.3894 12.6522 24.3778 12.4964 24.3778C12.1252 24.3778 11.7938 24.4557 11.5021 24.6115C11.2138 24.764 10.9851 24.9761 10.8161 25.2479C10.6503 25.5163 10.5675 25.8229 10.5675 26.1676V31H9.39418ZM17.5724 31.1591C16.8366 31.1591 16.2019 30.9967 15.6683 30.6719C15.138 30.3438 14.7287 29.8864 14.4403 29.2997C14.1553 28.7098 14.0128 28.0237 14.0128 27.2415C14.0128 26.4593 14.1553 25.7699 14.4403 25.1733C14.7287 24.5734 15.1297 24.1061 15.6435 23.7713C16.1605 23.4332 16.7637 23.2642 17.4531 23.2642C17.8509 23.2642 18.2436 23.3305 18.6314 23.4631C19.0192 23.5956 19.3722 23.8111 19.6903 24.1094C20.0085 24.4044 20.2621 24.7955 20.451 25.2827C20.6399 25.7699 20.7344 26.3698 20.7344 27.0824V27.5795H14.848V26.5653H19.5412C19.5412 26.1345 19.455 25.75 19.2827 25.4119C19.1136 25.0739 18.8717 24.8071 18.5568 24.6115C18.2453 24.416 17.8774 24.3182 17.4531 24.3182C16.9858 24.3182 16.5814 24.4342 16.2401 24.6662C15.902 24.8949 15.6418 25.1932 15.4595 25.5611C15.2772 25.929 15.1861 26.3234 15.1861 26.7443V27.4205C15.1861 27.9972 15.2855 28.486 15.4844 28.8871C15.6866 29.2848 15.9666 29.5881 16.3246 29.7969C16.6825 30.0024 17.0985 30.1051 17.5724 30.1051C17.8807 30.1051 18.1591 30.062 18.4077 29.9759C18.6596 29.8864 18.8767 29.7538 19.0589 29.5781C19.2412 29.3991 19.3821 29.1771 19.4815 28.9119L20.6151 29.2301C20.4957 29.6146 20.2952 29.9527 20.0135 30.2443C19.7318 30.5327 19.3838 30.758 18.9695 30.9205C18.5552 31.0795 18.0895 31.1591 17.5724 31.1591ZM24.7663 31.179C24.2824 31.179 23.8433 31.0878 23.4489 30.9055C23.0545 30.7199 22.7412 30.4531 22.5092 30.1051C22.2772 29.7538 22.1612 29.3295 22.1612 28.8324C22.1612 28.3949 22.2474 28.0402 22.4197 27.7685C22.5921 27.4934 22.8224 27.2779 23.1108 27.1222C23.3991 26.9664 23.7173 26.8504 24.0653 26.7741C24.4167 26.6946 24.7696 26.6316 25.1243 26.5852C25.5883 26.5256 25.9645 26.4808 26.2528 26.451C26.5445 26.4179 26.7566 26.3632 26.8892 26.2869C27.0251 26.2107 27.093 26.0781 27.093 25.8892V25.8494C27.093 25.3589 26.9588 24.9777 26.6903 24.706C26.4252 24.4342 26.0225 24.2983 25.4822 24.2983C24.9221 24.2983 24.483 24.4209 24.1648 24.6662C23.8466 24.9115 23.6229 25.1733 23.4936 25.4517L22.38 25.054C22.5788 24.59 22.844 24.2287 23.1754 23.9702C23.5102 23.7083 23.8748 23.526 24.2692 23.4233C24.6669 23.3172 25.058 23.2642 25.4425 23.2642C25.6877 23.2642 25.9695 23.294 26.2876 23.3537C26.6091 23.41 26.919 23.5277 27.2173 23.7067C27.5189 23.8857 27.7692 24.1558 27.968 24.517C28.1669 24.8783 28.2663 25.3622 28.2663 25.9688V31H27.093V29.9659H27.0334C26.9538 30.1316 26.8213 30.3089 26.6357 30.4979C26.45 30.6868 26.2031 30.8475 25.8949 30.9801C25.5866 31.1127 25.2105 31.179 24.7663 31.179ZM24.9453 30.125C25.4093 30.125 25.8004 30.0339 26.1186 29.8516C26.4401 29.6693 26.6821 29.4339 26.8445 29.1456C27.0102 28.8572 27.093 28.554 27.093 28.2358V27.1619C27.0433 27.2216 26.9339 27.2763 26.7649 27.326C26.5992 27.3724 26.407 27.4138 26.1882 27.4503C25.9728 27.4834 25.7623 27.5133 25.5568 27.5398C25.3546 27.563 25.1906 27.5829 25.0646 27.5994C24.7597 27.6392 24.4747 27.7038 24.2095 27.7933C23.9477 27.8795 23.7356 28.0104 23.5732 28.1861C23.4141 28.3584 23.3345 28.5937 23.3345 28.892C23.3345 29.2997 23.4853 29.608 23.7869 29.8168C24.0919 30.0223 24.478 30.125 24.9453 30.125ZM33.7289 23.3636V24.358H29.7715V23.3636H33.7289ZM30.9249 21.5341H32.0982V28.8125C32.0982 29.1439 32.1462 29.3925 32.2424 29.5582C32.3418 29.7206 32.4677 29.83 32.6202 29.8864C32.776 29.9394 32.94 29.9659 33.1124 29.9659C33.2417 29.9659 33.3477 29.9593 33.4306 29.946C33.5134 29.9295 33.5797 29.9162 33.6294 29.9062L33.8681 30.9602C33.7885 30.9901 33.6775 31.0199 33.535 31.0497C33.3925 31.0829 33.2118 31.0994 32.9931 31.0994C32.6616 31.0994 32.3368 31.0282 32.0186 30.8857C31.7038 30.7431 31.4419 30.526 31.2331 30.2344C31.0276 29.9427 30.9249 29.5748 30.9249 29.1307V21.5341ZM35.4938 31V23.3636H36.6671V31H35.4938ZM36.0904 22.0909C35.8617 22.0909 35.6645 22.013 35.4988 21.8572C35.3364 21.7015 35.2551 21.5142 35.2551 21.2955C35.2551 21.0767 35.3364 20.8894 35.4988 20.7337C35.6645 20.5779 35.8617 20.5 36.0904 20.5C36.3191 20.5 36.5146 20.5779 36.677 20.7337C36.8427 20.8894 36.9256 21.0767 36.9256 21.2955C36.9256 21.5142 36.8427 21.7015 36.677 21.8572C36.5146 22.013 36.3191 22.0909 36.0904 22.0909ZM41.9183 31.1591C41.2289 31.1591 40.6241 30.995 40.1037 30.6669C39.5866 30.3388 39.1823 29.8797 38.8906 29.2898C38.6023 28.6998 38.4581 28.0104 38.4581 27.2216C38.4581 26.4261 38.6023 25.7318 38.8906 25.1385C39.1823 24.5452 39.5866 24.0845 40.1037 23.7564C40.6241 23.4283 41.2289 23.2642 41.9183 23.2642C42.6077 23.2642 43.2109 23.4283 43.728 23.7564C44.2483 24.0845 44.6527 24.5452 44.9411 25.1385C45.2327 25.7318 45.3786 26.4261 45.3786 27.2216C45.3786 28.0104 45.2327 28.6998 44.9411 29.2898C44.6527 29.8797 44.2483 30.3388 43.728 30.6669C43.2109 30.995 42.6077 31.1591 41.9183 31.1591ZM41.9183 30.1051C42.442 30.1051 42.8729 29.9709 43.2109 29.7024C43.549 29.4339 43.7992 29.081 43.9616 28.6435C44.1241 28.206 44.2053 27.732 44.2053 27.2216C44.2053 26.7112 44.1241 26.2356 43.9616 25.7947C43.7992 25.3539 43.549 24.9976 43.2109 24.7259C42.8729 24.4541 42.442 24.3182 41.9183 24.3182C41.3946 24.3182 40.9638 24.4541 40.6257 24.7259C40.2876 24.9976 40.0374 25.3539 39.875 25.7947C39.7126 26.2356 39.6314 26.7112 39.6314 27.2216C39.6314 27.732 39.7126 28.206 39.875 28.6435C40.0374 29.081 40.2876 29.4339 40.6257 29.7024C40.9638 29.9709 41.3946 30.1051 41.9183 30.1051ZM48.3429 26.4062V31H47.1696V23.3636H48.3031V24.5568H48.4025C48.5815 24.169 48.8533 23.8575 49.2179 23.6222C49.5824 23.3835 50.0531 23.2642 50.6298 23.2642C51.1468 23.2642 51.5993 23.3703 51.987 23.5824C52.3748 23.7912 52.6764 24.1094 52.8919 24.5369C53.1073 24.9612 53.215 25.4981 53.215 26.1477V31H52.0417V26.2273C52.0417 25.6274 51.8859 25.16 51.5744 24.8253C51.2628 24.4872 50.8353 24.3182 50.2917 24.3182C49.9172 24.3182 49.5824 24.3994 49.2875 24.5618C48.9958 24.7242 48.7654 24.9612 48.5964 25.2727C48.4274 25.5843 48.3429 25.9621 48.3429 26.4062ZM61.5437 31.179C61.0598 31.179 60.6206 31.0878 60.2262 30.9055C59.8318 30.7199 59.5186 30.4531 59.2866 30.1051C59.0546 29.7538 58.9386 29.3295 58.9386 28.8324C58.9386 28.3949 59.0247 28.0402 59.1971 27.7685C59.3694 27.4934 59.5998 27.2779 59.8881 27.1222C60.1765 26.9664 60.4947 26.8504 60.8427 26.7741C61.194 26.6946 61.547 26.6316 61.9016 26.5852C62.3656 26.5256 62.7418 26.4808 63.0302 26.451C63.3219 26.4179 63.534 26.3632 63.6665 26.2869C63.8024 26.2107 63.8704 26.0781 63.8704 25.8892V25.8494C63.8704 25.3589 63.7362 24.9777 63.4677 24.706C63.2025 24.4342 62.7998 24.2983 62.2596 24.2983C61.6995 24.2983 61.2603 24.4209 60.9421 24.6662C60.6239 24.9115 60.4002 25.1733 60.271 25.4517L59.1573 25.054C59.3562 24.59 59.6213 24.2287 59.9528 23.9702C60.2875 23.7083 60.6521 23.526 61.0465 23.4233C61.4442 23.3172 61.8353 23.2642 62.2198 23.2642C62.4651 23.2642 62.7468 23.294 63.065 23.3537C63.3865 23.41 63.6964 23.5277 63.9947 23.7067C64.2963 23.8857 64.5465 24.1558 64.7454 24.517C64.9442 24.8783 65.0437 25.3622 65.0437 25.9688V31H63.8704V29.9659H63.8107C63.7312 30.1316 63.5986 30.3089 63.413 30.4979C63.2274 30.6868 62.9805 30.8475 62.6722 30.9801C62.364 31.1127 61.9878 31.179 61.5437 31.179ZM61.7227 30.125C62.1867 30.125 62.5778 30.0339 62.896 29.8516C63.2174 29.6693 63.4594 29.4339 63.6218 29.1456C63.7875 28.8572 63.8704 28.554 63.8704 28.2358V27.1619C63.8207 27.2216 63.7113 27.2763 63.5423 27.326C63.3765 27.3724 63.1843 27.4138 62.9656 27.4503C62.7501 27.4834 62.5397 27.5133 62.3342 27.5398C62.132 27.563 61.9679 27.5829 61.842 27.5994C61.5371 27.6392 61.252 27.7038 60.9869 27.7933C60.725 27.8795 60.5129 28.0104 60.3505 28.1861C60.1914 28.3584 60.1119 28.5937 60.1119 28.892C60.1119 29.2997 60.2627 29.608 60.5643 29.8168C60.8692 30.0223 61.2553 30.125 61.7227 30.125ZM68.3585 26.4062V31H67.1852V23.3636H68.3187V24.5568H68.4181C68.5971 24.169 68.8689 23.8575 69.2335 23.6222C69.5981 23.3835 70.0687 23.2642 70.6454 23.2642C71.1625 23.2642 71.6149 23.3703 72.0027 23.5824C72.3904 23.7912 72.6921 24.1094 72.9075 24.5369C73.1229 24.9612 73.2306 25.4981 73.2306 26.1477V31H72.0574V26.2273C72.0574 25.6274 71.9016 25.16 71.59 24.8253C71.2785 24.4872 70.8509 24.3182 70.3074 24.3182C69.9328 24.3182 69.5981 24.3994 69.3031 24.5618C69.0114 24.7242 68.7811 24.9612 68.612 25.2727C68.443 25.5843 68.3585 25.9621 68.3585 26.4062ZM78.2582 31.1591C77.6218 31.1591 77.06 30.9983 76.5728 30.6768C76.0856 30.352 75.7044 29.8946 75.4293 29.3047C75.1542 28.7114 75.0167 28.0104 75.0167 27.2017C75.0167 26.3996 75.1542 25.7036 75.4293 25.1136C75.7044 24.5237 76.0872 24.0679 76.5778 23.7464C77.0683 23.425 77.6351 23.2642 78.2781 23.2642C78.7752 23.2642 79.168 23.3471 79.4563 23.5128C79.748 23.6752 79.9701 23.8608 80.1225 24.0696C80.2783 24.2751 80.3993 24.4441 80.4854 24.5767H80.5849V20.8182H81.7582V31H80.6246V29.8267H80.4854C80.3993 29.9659 80.2766 30.1416 80.1175 30.3537C79.9585 30.5625 79.7314 30.7498 79.4364 30.9155C79.1415 31.0779 78.7487 31.1591 78.2582 31.1591ZM78.4173 30.1051C78.8879 30.1051 79.2856 29.9825 79.6104 29.7372C79.9353 29.4886 80.1822 29.1456 80.3512 28.7081C80.5202 28.2673 80.6048 27.7585 80.6048 27.1818C80.6048 26.6117 80.5219 26.1129 80.3562 25.6854C80.1905 25.2545 79.9452 24.9197 79.6204 24.6811C79.2956 24.4392 78.8945 24.3182 78.4173 24.3182C77.9201 24.3182 77.5058 24.4458 77.1744 24.701C76.8462 24.9529 76.5993 25.2959 76.4336 25.7301C76.2712 26.161 76.19 26.6449 76.19 27.1818C76.19 27.7254 76.2728 28.2192 76.4386 28.6634C76.6076 29.1042 76.8562 29.4555 77.1843 29.7173C77.5157 29.9759 77.9267 30.1051 78.4173 30.1051ZM91.1097 31.1591C90.3938 31.1591 89.7773 30.9901 89.2603 30.652C88.7433 30.3139 88.3455 29.8482 88.0671 29.255C87.7887 28.6617 87.6495 27.9839 87.6495 27.2216C87.6495 26.446 87.792 25.7616 88.0771 25.1683C88.3654 24.5717 88.7665 24.1061 89.2802 23.7713C89.7972 23.4332 90.4004 23.2642 91.0898 23.2642C91.6268 23.2642 92.1107 23.3636 92.5415 23.5625C92.9724 23.7614 93.3254 24.0398 93.6005 24.3977C93.8756 24.7557 94.0463 25.1733 94.1126 25.6506H92.9393C92.8498 25.3026 92.6509 24.9943 92.3427 24.7259C92.0378 24.4541 91.6268 24.3182 91.1097 24.3182C90.6523 24.3182 90.2513 24.4375 89.9066 24.6761C89.5652 24.9115 89.2984 25.2446 89.1062 25.6754C88.9173 26.103 88.8228 26.6051 88.8228 27.1818C88.8228 27.7718 88.9156 28.2855 89.1012 28.723C89.2901 29.1605 89.5553 29.5002 89.8967 29.7422C90.2414 29.9841 90.6457 30.1051 91.1097 30.1051C91.4147 30.1051 91.6914 30.0521 91.94 29.946C92.1886 29.84 92.399 29.6875 92.5714 29.4886C92.7437 29.2898 92.8664 29.0511 92.9393 28.7727H94.1126C94.0463 29.2235 93.8822 29.6295 93.6204 29.9908C93.3619 30.3487 93.0188 30.6338 92.5913 30.8459C92.167 31.0547 91.6732 31.1591 91.1097 31.1591ZM98.0749 31.179C97.591 31.179 97.1519 31.0878 96.7575 30.9055C96.363 30.7199 96.0498 30.4531 95.8178 30.1051C95.5858 29.7538 95.4698 29.3295 95.4698 28.8324C95.4698 28.3949 95.556 28.0402 95.7283 27.7685C95.9007 27.4934 96.131 27.2779 96.4194 27.1222C96.7077 26.9664 97.0259 26.8504 97.3739 26.7741C97.7253 26.6946 98.0782 26.6316 98.4329 26.5852C98.8969 26.5256 99.2731 26.4808 99.5614 26.451C99.8531 26.4179 100.065 26.3632 100.198 26.2869C100.334 26.2107 100.402 26.0781 100.402 25.8892V25.8494C100.402 25.3589 100.267 24.9777 99.9989 24.706C99.7338 24.4342 99.3311 24.2983 98.7908 24.2983C98.2307 24.2983 97.7915 24.4209 97.4734 24.6662C97.1552 24.9115 96.9315 25.1733 96.8022 25.4517L95.6886 25.054C95.8874 24.59 96.1526 24.2287 96.484 23.9702C96.8188 23.7083 97.1834 23.526 97.5778 23.4233C97.9755 23.3172 98.3666 23.2642 98.7511 23.2642C98.9963 23.2642 99.2781 23.294 99.5962 23.3537C99.9177 23.41 100.228 23.5277 100.526 23.7067C100.828 23.8857 101.078 24.1558 101.277 24.517C101.475 24.8783 101.575 25.3622 101.575 25.9688V31H100.402V29.9659H100.342C100.262 30.1316 100.13 30.3089 99.9442 30.4979C99.7586 30.6868 99.5117 30.8475 99.2035 30.9801C98.8952 31.1127 98.5191 31.179 98.0749 31.179ZM98.2539 30.125C98.7179 30.125 99.109 30.0339 99.4272 29.8516C99.7487 29.6693 99.9906 29.4339 100.153 29.1456C100.319 28.8572 100.402 28.554 100.402 28.2358V27.1619C100.352 27.2216 100.243 27.2763 100.074 27.326C99.9078 27.3724 99.7156 27.4138 99.4968 27.4503C99.2814 27.4834 99.0709 27.5133 98.8654 27.5398C98.6632 27.563 98.4992 27.5829 98.3732 27.5994C98.0683 27.6392 97.7833 27.7038 97.5181 27.7933C97.2563 27.8795 97.0442 28.0104 96.8817 28.1861C96.7227 28.3584 96.6431 28.5937 96.6431 28.892C96.6431 29.2997 96.7939 29.608 97.0955 29.8168C97.4004 30.0223 97.7866 30.125 98.2539 30.125ZM103.716 33.8636V23.3636H104.85V24.5767H104.989C105.075 24.4441 105.195 24.2751 105.347 24.0696C105.503 23.8608 105.725 23.6752 106.013 23.5128C106.305 23.3471 106.699 23.2642 107.197 23.2642C107.84 23.2642 108.406 23.425 108.897 23.7464C109.387 24.0679 109.77 24.5237 110.045 25.1136C110.32 25.7036 110.458 26.3996 110.458 27.2017C110.458 28.0104 110.32 28.7114 110.045 29.3047C109.77 29.8946 109.389 30.352 108.902 30.6768C108.415 30.9983 107.853 31.1591 107.216 31.1591C106.726 31.1591 106.333 31.0779 106.038 30.9155C105.743 30.7498 105.516 30.5625 105.357 30.3537C105.198 30.1416 105.075 29.9659 104.989 29.8267H104.89V33.8636H103.716ZM104.87 27.1818C104.87 27.7585 104.954 28.2673 105.123 28.7081C105.292 29.1456 105.539 29.4886 105.864 29.7372C106.189 29.9825 106.587 30.1051 107.057 30.1051C107.548 30.1051 107.957 29.9759 108.285 29.7173C108.617 29.4555 108.865 29.1042 109.031 28.6634C109.2 28.2192 109.285 27.7254 109.285 27.1818C109.285 26.6449 109.202 26.161 109.036 25.7301C108.874 25.2959 108.627 24.9529 108.295 24.701C107.967 24.4458 107.555 24.3182 107.057 24.3182C106.58 24.3182 106.179 24.4392 105.854 24.6811C105.529 24.9197 105.284 25.2545 105.118 25.6854C104.953 26.1129 104.87 26.6117 104.87 27.1818ZM115.569 23.3636V24.358H111.611V23.3636H115.569ZM112.765 21.5341H113.938V28.8125C113.938 29.1439 113.986 29.3925 114.082 29.5582C114.182 29.7206 114.308 29.83 114.46 29.8864C114.616 29.9394 114.78 29.9659 114.952 29.9659C115.081 29.9659 115.188 29.9593 115.27 29.946C115.353 29.9295 115.42 29.9162 115.469 29.9062L115.708 30.9602C115.628 30.9901 115.517 31.0199 115.375 31.0497C115.232 31.0829 115.052 31.0994 114.833 31.0994C114.501 31.0994 114.177 31.0282 113.858 30.8857C113.544 30.7431 113.282 30.526 113.073 30.2344C112.867 29.9427 112.765 29.5748 112.765 29.1307V21.5341ZM122.146 27.8778V23.3636H123.319V31H122.146V29.7074H122.067C121.888 30.0952 121.609 30.425 121.231 30.6967C120.854 30.9652 120.376 31.0994 119.8 31.0994C119.322 31.0994 118.898 30.995 118.527 30.7862C118.156 30.5741 117.864 30.2559 117.652 29.8317C117.44 29.4041 117.334 28.8655 117.334 28.2159V23.3636H118.507V28.1364C118.507 28.6932 118.663 29.1373 118.974 29.4688C119.289 29.8002 119.69 29.9659 120.177 29.9659C120.469 29.9659 120.766 29.8913 121.067 29.7422C121.372 29.593 121.627 29.3643 121.833 29.0561C122.042 28.7479 122.146 28.3551 122.146 27.8778ZM125.468 31V23.3636H126.602V24.517H126.681C126.821 24.1392 127.073 23.8326 127.437 23.5973C127.802 23.362 128.213 23.2443 128.67 23.2443C128.756 23.2443 128.864 23.246 128.993 23.2493C129.123 23.2526 129.22 23.2576 129.287 23.2642V24.4574C129.247 24.4474 129.156 24.4325 129.013 24.4126C128.874 24.3894 128.726 24.3778 128.571 24.3778C128.199 24.3778 127.868 24.4557 127.576 24.6115C127.288 24.764 127.059 24.9761 126.89 25.2479C126.725 25.5163 126.642 25.8229 126.642 26.1676V31H125.468ZM133.647 31.1591C132.911 31.1591 132.276 30.9967 131.743 30.6719C131.212 30.3438 130.803 29.8864 130.515 29.2997C130.23 28.7098 130.087 28.0237 130.087 27.2415C130.087 26.4593 130.23 25.7699 130.515 25.1733C130.803 24.5734 131.204 24.1061 131.718 23.7713C132.235 23.4332 132.838 23.2642 133.527 23.2642C133.925 23.2642 134.318 23.3305 134.706 23.4631C135.093 23.5956 135.446 23.8111 135.765 24.1094C136.083 24.4044 136.336 24.7955 136.525 25.2827C136.714 25.7699 136.809 26.3698 136.809 27.0824V27.5795H130.922V26.5653H135.615C135.615 26.1345 135.529 25.75 135.357 25.4119C135.188 25.0739 134.946 24.8071 134.631 24.6115C134.319 24.416 133.952 24.3182 133.527 24.3182C133.06 24.3182 132.656 24.4342 132.314 24.6662C131.976 24.8949 131.716 25.1932 131.534 25.5611C131.351 25.929 131.26 26.3234 131.26 26.7443V27.4205C131.26 27.9972 131.36 28.486 131.559 28.8871C131.761 29.2848 132.041 29.5881 132.399 29.7969C132.757 30.0024 133.173 30.1051 133.647 30.1051C133.955 30.1051 134.233 30.062 134.482 29.9759C134.734 29.8864 134.951 29.7538 135.133 29.5781C135.315 29.3991 135.456 29.1771 135.556 28.9119L136.689 29.2301C136.57 29.6146 136.369 29.9527 136.088 30.2443C135.806 30.5327 135.458 30.758 135.044 30.9205C134.629 31.0795 134.164 31.1591 133.647 31.1591ZM145.633 31.1591C144.944 31.1591 144.339 30.995 143.819 30.6669C143.301 30.3388 142.897 29.8797 142.605 29.2898C142.317 28.6998 142.173 28.0104 142.173 27.2216C142.173 26.4261 142.317 25.7318 142.605 25.1385C142.897 24.5452 143.301 24.0845 143.819 23.7564C144.339 23.4283 144.944 23.2642 145.633 23.2642C146.323 23.2642 146.926 23.4283 147.443 23.7564C147.963 24.0845 148.368 24.5452 148.656 25.1385C148.948 25.7318 149.093 26.4261 149.093 27.2216C149.093 28.0104 148.948 28.6998 148.656 29.2898C148.368 29.8797 147.963 30.3388 147.443 30.6669C146.926 30.995 146.323 31.1591 145.633 31.1591ZM145.633 30.1051C146.157 30.1051 146.588 29.9709 146.926 29.7024C147.264 29.4339 147.514 29.081 147.676 28.6435C147.839 28.206 147.92 27.732 147.92 27.2216C147.92 26.7112 147.839 26.2356 147.676 25.7947C147.514 25.3539 147.264 24.9976 146.926 24.7259C146.588 24.4541 146.157 24.3182 145.633 24.3182C145.109 24.3182 144.679 24.4541 144.341 24.7259C144.002 24.9976 143.752 25.3539 143.59 25.7947C143.427 26.2356 143.346 26.7112 143.346 27.2216C143.346 27.732 143.427 28.206 143.59 28.6435C143.752 29.081 144.002 29.4339 144.341 29.7024C144.679 29.9709 145.109 30.1051 145.633 30.1051ZM154.285 23.3636V24.358H150.169V23.3636H154.285ZM151.401 31V22.3097C151.401 21.8722 151.504 21.5076 151.71 21.2159C151.915 20.9242 152.182 20.7055 152.51 20.5597C152.838 20.4138 153.185 20.3409 153.549 20.3409C153.838 20.3409 154.073 20.3641 154.255 20.4105C154.437 20.4569 154.573 20.5 154.663 20.5398L154.325 21.554C154.265 21.5341 154.182 21.5092 154.076 21.4794C153.973 21.4496 153.838 21.4347 153.669 21.4347C153.281 21.4347 153.001 21.5324 152.828 21.728C152.659 21.9235 152.575 22.2102 152.575 22.5881V31H151.401ZM165.276 25.0739L164.222 25.3722C164.156 25.1965 164.058 25.0258 163.929 24.8601C163.803 24.6911 163.63 24.5518 163.412 24.4425C163.193 24.3331 162.913 24.2784 162.571 24.2784C162.104 24.2784 161.715 24.3861 161.403 24.6016C161.095 24.8137 160.941 25.0838 160.941 25.4119C160.941 25.7036 161.047 25.9339 161.259 26.103C161.471 26.272 161.802 26.4129 162.253 26.5256L163.387 26.804C164.069 26.9697 164.578 27.2232 164.913 27.5646C165.248 27.9027 165.415 28.3385 165.415 28.8722C165.415 29.3097 165.289 29.7008 165.037 30.0455C164.789 30.3902 164.441 30.6619 163.993 30.8608C163.546 31.0597 163.025 31.1591 162.432 31.1591C161.653 31.1591 161.009 30.9901 160.498 30.652C159.988 30.3139 159.665 29.8201 159.529 29.1705L160.642 28.892C160.748 29.303 160.949 29.6113 161.244 29.8168C161.542 30.0223 161.932 30.125 162.412 30.125C162.959 30.125 163.393 30.009 163.715 29.777C164.04 29.5417 164.202 29.2599 164.202 28.9318C164.202 28.6667 164.109 28.4446 163.924 28.2656C163.738 28.0833 163.453 27.9474 163.069 27.858L161.796 27.5597C161.096 27.3939 160.583 27.1371 160.255 26.7891C159.93 26.4377 159.767 25.9986 159.767 25.4716C159.767 25.0407 159.888 24.6596 160.13 24.3281C160.376 23.9967 160.709 23.7365 161.13 23.5476C161.554 23.3587 162.034 23.2642 162.571 23.2642C163.327 23.2642 163.92 23.4299 164.351 23.7614C164.785 24.0928 165.094 24.5303 165.276 25.0739ZM170.502 23.3636V24.358H166.545V23.3636H170.502ZM167.698 21.5341H168.872V28.8125C168.872 29.1439 168.92 29.3925 169.016 29.5582C169.115 29.7206 169.241 29.83 169.394 29.8864C169.549 29.9394 169.713 29.9659 169.886 29.9659C170.015 29.9659 170.121 29.9593 170.204 29.946C170.287 29.9295 170.353 29.9162 170.403 29.9062L170.642 30.9602C170.562 30.9901 170.451 31.0199 170.308 31.0497C170.166 31.0829 169.985 31.0994 169.767 31.0994C169.435 31.0994 169.11 31.0282 168.792 30.8857C168.477 30.7431 168.215 30.526 168.007 30.2344C167.801 29.9427 167.698 29.5748 167.698 29.1307V21.5341ZM172.267 31V23.3636H173.401V24.517H173.48C173.619 24.1392 173.871 23.8326 174.236 23.5973C174.601 23.362 175.012 23.2443 175.469 23.2443C175.555 23.2443 175.663 23.246 175.792 23.2493C175.921 23.2526 176.019 23.2576 176.085 23.2642V24.4574C176.046 24.4474 175.954 24.4325 175.812 24.4126C175.673 24.3894 175.525 24.3778 175.369 24.3778C174.998 24.3778 174.667 24.4557 174.375 24.6115C174.087 24.764 173.858 24.9761 173.689 25.2479C173.523 25.5163 173.441 25.8229 173.441 26.1676V31H172.267ZM182.289 27.8778V23.3636H183.462V31H182.289V29.7074H182.209C182.03 30.0952 181.752 30.425 181.374 30.6967C180.996 30.9652 180.519 31.0994 179.942 31.0994C179.465 31.0994 179.041 30.995 178.669 30.7862C178.298 30.5741 178.007 30.2559 177.794 29.8317C177.582 29.4041 177.476 28.8655 177.476 28.2159V23.3636H178.65V28.1364C178.65 28.6932 178.805 29.1373 179.117 29.4688C179.432 29.8002 179.833 29.9659 180.32 29.9659C180.612 29.9659 180.908 29.8913 181.21 29.7422C181.515 29.593 181.77 29.3643 181.975 29.0561C182.184 28.7479 182.289 28.3551 182.289 27.8778ZM188.713 31.1591C187.997 31.1591 187.381 30.9901 186.864 30.652C186.347 30.3139 185.949 29.8482 185.671 29.255C185.392 28.6617 185.253 27.9839 185.253 27.2216C185.253 26.446 185.396 25.7616 185.681 25.1683C185.969 24.5717 186.37 24.1061 186.884 23.7713C187.401 23.4332 188.004 23.2642 188.693 23.2642C189.23 23.2642 189.714 23.3636 190.145 23.5625C190.576 23.7614 190.929 24.0398 191.204 24.3977C191.479 24.7557 191.65 25.1733 191.716 25.6506H190.543C190.453 25.3026 190.254 24.9943 189.946 24.7259C189.641 24.4541 189.23 24.3182 188.713 24.3182C188.256 24.3182 187.855 24.4375 187.51 24.6761C187.169 24.9115 186.902 25.2446 186.71 25.6754C186.521 26.103 186.426 26.6051 186.426 27.1818C186.426 27.7718 186.519 28.2855 186.705 28.723C186.894 29.1605 187.159 29.5002 187.5 29.7422C187.845 29.9841 188.249 30.1051 188.713 30.1051C189.018 30.1051 189.295 30.0521 189.544 29.946C189.792 29.84 190.003 29.6875 190.175 29.4886C190.347 29.2898 190.47 29.0511 190.543 28.7727H191.716C191.65 29.2235 191.486 29.6295 191.224 29.9908C190.965 30.3487 190.622 30.6338 190.195 30.8459C189.771 31.0547 189.277 31.1591 188.713 31.1591ZM196.752 23.3636V24.358H192.795V23.3636H196.752ZM193.948 21.5341H195.122V28.8125C195.122 29.1439 195.17 29.3925 195.266 29.5582C195.365 29.7206 195.491 29.83 195.644 29.8864C195.799 29.9394 195.963 29.9659 196.136 29.9659C196.265 29.9659 196.371 29.9593 196.454 29.946C196.537 29.9295 196.603 29.9162 196.653 29.9062L196.892 30.9602C196.812 30.9901 196.701 31.0199 196.558 31.0497C196.416 31.0829 196.235 31.0994 196.017 31.0994C195.685 31.0994 195.36 31.0282 195.042 30.8857C194.727 30.7431 194.465 30.526 194.257 30.2344C194.051 29.9427 193.948 29.5748 193.948 29.1307V21.5341ZM203.33 27.8778V23.3636H204.503V31H203.33V29.7074H203.25C203.071 30.0952 202.793 30.425 202.415 30.6967C202.037 30.9652 201.56 31.0994 200.983 31.0994C200.506 31.0994 200.082 30.995 199.71 30.7862C199.339 30.5741 199.048 30.2559 198.835 29.8317C198.623 29.4041 198.517 28.8655 198.517 28.2159V23.3636H199.691V28.1364C199.691 28.6932 199.846 29.1373 200.158 29.4688C200.473 29.8002 200.874 29.9659 201.361 29.9659C201.653 29.9659 201.949 29.8913 202.251 29.7422C202.556 29.593 202.811 29.3643 203.017 29.0561C203.225 28.7479 203.33 28.3551 203.33 27.8778ZM206.652 31V23.3636H207.786V24.517H207.865C208.004 24.1392 208.256 23.8326 208.621 23.5973C208.985 23.362 209.396 23.2443 209.854 23.2443C209.94 23.2443 210.048 23.246 210.177 23.2493C210.306 23.2526 210.404 23.2576 210.47 23.2642V24.4574C210.43 24.4474 210.339 24.4325 210.197 24.4126C210.058 24.3894 209.91 24.3778 209.754 24.3778C209.383 24.3778 209.052 24.4557 208.76 24.6115C208.472 24.764 208.243 24.9761 208.074 25.2479C207.908 25.5163 207.825 25.8229 207.825 26.1676V31H206.652ZM214.83 31.1591C214.094 31.1591 213.46 30.9967 212.926 30.6719C212.396 30.3438 211.987 29.8864 211.698 29.2997C211.413 28.7098 211.271 28.0237 211.271 27.2415C211.271 26.4593 211.413 25.7699 211.698 25.1733C211.987 24.5734 212.388 24.1061 212.901 23.7713C213.418 23.4332 214.022 23.2642 214.711 23.2642C215.109 23.2642 215.501 23.3305 215.889 23.4631C216.277 23.5956 216.63 23.8111 216.948 24.1094C217.266 24.4044 217.52 24.7955 217.709 25.2827C217.898 25.7699 217.992 26.3698 217.992 27.0824V27.5795H212.106V26.5653H216.799C216.799 26.1345 216.713 25.75 216.54 25.4119C216.371 25.0739 216.129 24.8071 215.815 24.6115C215.503 24.416 215.135 24.3182 214.711 24.3182C214.244 24.3182 213.839 24.4342 213.498 24.6662C213.16 24.8949 212.9 25.1932 212.717 25.5611C212.535 25.929 212.444 26.3234 212.444 26.7443V27.4205C212.444 27.9972 212.543 28.486 212.742 28.8871C212.944 29.2848 213.224 29.5881 213.582 29.7969C213.94 30.0024 214.356 30.1051 214.83 30.1051C215.138 30.1051 215.417 30.062 215.665 29.9759C215.917 29.8864 216.134 29.7538 216.317 29.5781C216.499 29.3991 216.64 29.1771 216.739 28.9119L217.873 29.2301C217.754 29.6146 217.553 29.9527 217.271 30.2443C216.99 30.5327 216.642 30.758 216.227 30.9205C215.813 31.0795 215.347 31.1591 214.83 31.1591ZM222.661 31.1591C222.024 31.1591 221.462 30.9983 220.975 30.6768C220.488 30.352 220.107 29.8946 219.832 29.3047C219.557 28.7114 219.419 28.0104 219.419 27.2017C219.419 26.3996 219.557 25.7036 219.832 25.1136C220.107 24.5237 220.49 24.0679 220.98 23.7464C221.471 23.425 222.037 23.2642 222.68 23.2642C223.178 23.2642 223.57 23.3471 223.859 23.5128C224.15 23.6752 224.372 23.8608 224.525 24.0696C224.681 24.2751 224.802 24.4441 224.888 24.5767H224.987V20.8182H226.161V31H225.027V29.8267H224.888C224.802 29.9659 224.679 30.1416 224.52 30.3537C224.361 30.5625 224.134 30.7498 223.839 30.9155C223.544 31.0779 223.151 31.1591 222.661 31.1591ZM222.82 30.1051C223.29 30.1051 223.688 29.9825 224.013 29.7372C224.338 29.4886 224.585 29.1456 224.754 28.7081C224.923 28.2673 225.007 27.7585 225.007 27.1818C225.007 26.6117 224.924 26.1129 224.759 25.6854C224.593 25.2545 224.348 24.9197 224.023 24.6811C223.698 24.4392 223.297 24.3182 222.82 24.3182C222.322 24.3182 221.908 24.4458 221.577 24.701C221.249 24.9529 221.002 25.2959 220.836 25.7301C220.674 26.161 220.592 26.6449 220.592 27.1818C220.592 27.7254 220.675 28.2192 220.841 28.6634C221.01 29.1042 221.259 29.4555 221.587 29.7173C221.918 29.9759 222.329 30.1051 222.82 30.1051ZM235.293 31.1591C234.657 31.1591 234.095 30.9983 233.608 30.6768C233.121 30.352 232.74 29.8946 232.464 29.3047C232.189 28.7114 232.052 28.0104 232.052 27.2017C232.052 26.3996 232.189 25.7036 232.464 25.1136C232.74 24.5237 233.122 24.0679 233.613 23.7464C234.103 23.425 234.67 23.2642 235.313 23.2642C235.81 23.2642 236.203 23.3471 236.491 23.5128C236.783 23.6752 237.005 23.8608 237.158 24.0696C237.313 24.2751 237.434 24.4441 237.521 24.5767H237.62V20.8182H238.793V31H237.66V29.8267H237.521C237.434 29.9659 237.312 30.1416 237.153 30.3537C236.994 30.5625 236.767 30.7498 236.472 30.9155C236.177 31.0779 235.784 31.1591 235.293 31.1591ZM235.452 30.1051C235.923 30.1051 236.321 29.9825 236.646 29.7372C236.97 29.4886 237.217 29.1456 237.386 28.7081C237.555 28.2673 237.64 27.7585 237.64 27.1818C237.64 26.6117 237.557 26.1129 237.391 25.6854C237.226 25.2545 236.98 24.9197 236.656 24.6811C236.331 24.4392 235.93 24.3182 235.452 24.3182C234.955 24.3182 234.541 24.4458 234.21 24.701C233.881 24.9529 233.634 25.2959 233.469 25.7301C233.306 26.161 233.225 26.6449 233.225 27.1818C233.225 27.7254 233.308 28.2192 233.474 28.6634C233.643 29.1042 233.891 29.4555 234.219 29.7173C234.551 29.9759 234.962 30.1051 235.452 30.1051ZM243.352 31.179C242.868 31.179 242.429 31.0878 242.035 30.9055C241.64 30.7199 241.327 30.4531 241.095 30.1051C240.863 29.7538 240.747 29.3295 240.747 28.8324C240.747 28.3949 240.833 28.0402 241.006 27.7685C241.178 27.4934 241.408 27.2779 241.697 27.1222C241.985 26.9664 242.303 26.8504 242.651 26.7741C243.003 26.6946 243.356 26.6316 243.71 26.5852C244.174 26.5256 244.55 26.4808 244.839 26.451C245.13 26.4179 245.343 26.3632 245.475 26.2869C245.611 26.2107 245.679 26.0781 245.679 25.8892V25.8494C245.679 25.3589 245.545 24.9777 245.276 24.706C245.011 24.4342 244.608 24.2983 244.068 24.2983C243.508 24.2983 243.069 24.4209 242.751 24.6662C242.433 24.9115 242.209 25.1733 242.08 25.4517L240.966 25.054C241.165 24.59 241.43 24.2287 241.761 23.9702C242.096 23.7083 242.461 23.526 242.855 23.4233C243.253 23.3172 243.644 23.2642 244.028 23.2642C244.274 23.2642 244.555 23.294 244.874 23.3537C245.195 23.41 245.505 23.5277 245.803 23.7067C246.105 23.8857 246.355 24.1558 246.554 24.517C246.753 24.8783 246.852 25.3622 246.852 25.9688V31H245.679V29.9659H245.619C245.54 30.1316 245.407 30.3089 245.222 30.4979C245.036 30.6868 244.789 30.8475 244.481 30.9801C244.173 31.1127 243.796 31.179 243.352 31.179ZM243.531 30.125C243.995 30.125 244.386 30.0339 244.705 29.8516C245.026 29.6693 245.268 29.4339 245.43 29.1456C245.596 28.8572 245.679 28.554 245.679 28.2358V27.1619C245.629 27.2216 245.52 27.2763 245.351 27.326C245.185 27.3724 244.993 27.4138 244.774 27.4503C244.559 27.4834 244.348 27.5133 244.143 27.5398C243.941 27.563 243.777 27.5829 243.651 27.5994C243.346 27.6392 243.061 27.7038 242.795 27.7933C242.534 27.8795 242.321 28.0104 242.159 28.1861C242 28.3584 241.92 28.5937 241.92 28.892C241.92 29.2997 242.071 29.608 242.373 29.8168C242.678 30.0223 243.064 30.125 243.531 30.125ZM252.315 23.3636V24.358H248.357V23.3636H252.315ZM249.511 21.5341H250.684V28.8125C250.684 29.1439 250.732 29.3925 250.828 29.5582C250.928 29.7206 251.054 29.83 251.206 29.8864C251.362 29.9394 251.526 29.9659 251.698 29.9659C251.828 29.9659 251.934 29.9593 252.017 29.946C252.099 29.9295 252.166 29.9162 252.215 29.9062L252.454 30.9602C252.374 30.9901 252.263 31.0199 252.121 31.0497C251.978 31.0829 251.798 31.0994 251.579 31.0994C251.248 31.0994 250.923 31.0282 250.605 30.8857C250.29 30.7431 250.028 30.526 249.819 30.2344C249.614 29.9427 249.511 29.5748 249.511 29.1307V21.5341ZM256.327 31.179C255.843 31.179 255.404 31.0878 255.009 30.9055C254.615 30.7199 254.302 30.4531 254.07 30.1051C253.838 29.7538 253.722 29.3295 253.722 28.8324C253.722 28.3949 253.808 28.0402 253.98 27.7685C254.153 27.4934 254.383 27.2779 254.671 27.1222C254.96 26.9664 255.278 26.8504 255.626 26.7741C255.977 26.6946 256.33 26.6316 256.685 26.5852C257.149 26.5256 257.525 26.4808 257.813 26.451C258.105 26.4179 258.317 26.3632 258.45 26.2869C258.586 26.2107 258.654 26.0781 258.654 25.8892V25.8494C258.654 25.3589 258.519 24.9777 258.251 24.706C257.986 24.4342 257.583 24.2983 257.043 24.2983C256.483 24.2983 256.044 24.4209 255.725 24.6662C255.407 24.9115 255.183 25.1733 255.054 25.4517L253.941 25.054C254.139 24.59 254.405 24.2287 254.736 23.9702C255.071 23.7083 255.435 23.526 255.83 23.4233C256.227 23.3172 256.619 23.2642 257.003 23.2642C257.248 23.2642 257.53 23.294 257.848 23.3537C258.17 23.41 258.48 23.5277 258.778 23.7067C259.079 23.8857 259.33 24.1558 259.529 24.517C259.727 24.8783 259.827 25.3622 259.827 25.9688V31H258.654V29.9659H258.594C258.514 30.1316 258.382 30.3089 258.196 30.4979C258.011 30.6868 257.764 30.8475 257.455 30.9801C257.147 31.1127 256.771 31.179 256.327 31.179ZM256.506 30.125C256.97 30.125 257.361 30.0339 257.679 29.8516C258.001 29.6693 258.243 29.4339 258.405 29.1456C258.571 28.8572 258.654 28.554 258.654 28.2358V27.1619C258.604 27.2216 258.494 27.2763 258.325 27.326C258.16 27.3724 257.968 27.4138 257.749 27.4503C257.533 27.4834 257.323 27.5133 257.117 27.5398C256.915 27.563 256.751 27.5829 256.625 27.5994C256.32 27.6392 256.035 27.7038 255.77 27.7933C255.508 27.8795 255.296 28.0104 255.134 28.1861C254.975 28.3584 254.895 28.5937 254.895 28.892C254.895 29.2997 255.046 29.608 255.347 29.8168C255.652 30.0223 256.039 30.125 256.506 30.125Z" fill="#7556DC"/>
<g filter="url(#filter0_i_44_508)">
<rect x="147.5" y="50" width="139" height="139" rx="4" fill="white"/>
</g>
<rect x="148" y="50.5" width="138" height="138" rx="3.5" stroke="#C6B7FA"/>
<path d="M163.671 67.0497V65.7244H170.634V67.0497H167.936V74.4517H166.368V67.0497H163.671ZM172.816 74.4517V65.7244H178.492V67.0497H174.397V69.419H178.198V70.7443H174.397V73.1264H178.526V74.4517H172.816ZM182.266 65.7244L184.188 68.9204H184.256L186.187 65.7244H187.989L185.3 70.088L188.032 74.4517H186.199L184.256 71.2769H184.188L182.245 74.4517H180.421L183.178 70.088L180.455 65.7244H182.266ZM189.687 67.0497V65.7244H196.65V67.0497H193.952V74.4517H192.384V67.0497H189.687Z" fill="#7556DC"/>
<g filter="url(#filter1_i_44_508)">
<rect x="0.5" y="50" width="139" height="139" rx="4" fill="white"/>
</g>
<rect x="1" y="50.5" width="138" height="138" rx="3.5" stroke="#C6B7FA"/>
<path d="M18.6354 65.7244V74.4517H17.0544V65.7244H18.6354ZM21.1874 65.7244H23.122L25.7129 72.0483H25.8152L28.4061 65.7244H30.3408V74.4517H28.8237V68.4559H28.7428L26.3308 74.4261H25.1973L22.7854 68.4431H22.7044V74.4517H21.1874V65.7244ZM34.0231 74.4517H32.3356L35.408 65.7244H37.3598L40.4365 74.4517H38.749L36.418 67.5142H36.3498L34.0231 74.4517ZM34.0785 71.0298H38.6808V72.2997H34.0785V71.0298ZM47.8624 68.5113C47.7914 68.2812 47.6934 68.0752 47.5684 67.8934C47.4462 67.7088 47.2985 67.5511 47.1252 67.4204C46.9547 67.2897 46.7587 67.1917 46.5371 67.1264C46.3155 67.0582 46.074 67.0241 45.8127 67.0241C45.3439 67.0241 44.9263 67.142 44.5598 67.3778C44.1934 67.6136 43.905 67.9602 43.6948 68.4176C43.4874 68.8721 43.3837 69.4261 43.3837 70.0795C43.3837 70.7386 43.4874 71.2968 43.6948 71.7542C43.9022 72.2116 44.1905 72.5596 44.5598 72.7983C44.9292 73.034 45.3581 73.1519 45.8468 73.1519C46.29 73.1519 46.6735 73.0667 46.9973 72.8963C47.324 72.7258 47.5755 72.4843 47.7516 72.1718C47.9277 71.8565 48.0158 71.4872 48.0158 71.0639L48.3738 71.1193H46.0044V69.8835H49.5456V70.9318C49.5456 71.6789 49.3865 72.3252 49.0684 72.8707C48.7502 73.4161 48.3127 73.8366 47.7559 74.1321C47.199 74.4247 46.5598 74.571 45.8382 74.571C45.0343 74.571 44.3283 74.3906 43.7204 74.0298C43.1152 73.6661 42.6422 73.1505 42.3013 72.4829C41.9632 71.8125 41.7942 71.017 41.7942 70.0965C41.7942 69.392 41.8936 68.7627 42.0925 68.2088C42.2942 67.6548 42.5755 67.1846 42.9363 66.7983C43.2971 66.409 43.7204 66.1136 44.2061 65.9119C44.6919 65.7073 45.2204 65.6051 45.7914 65.6051C46.2743 65.6051 46.7246 65.6761 47.1422 65.8181C47.5598 65.9573 47.9306 66.1562 48.2544 66.4147C48.5811 66.6733 48.8496 66.9801 49.0598 67.3352C49.2701 67.6903 49.4079 68.0823 49.4732 68.5113H47.8624ZM51.9144 74.4517V65.7244H57.5905V67.0497H53.4954V69.419H57.2965V70.7443H53.4954V73.1264H57.6246V74.4517H51.9144Z" fill="#7556DC"/>
<g filter="url(#filter2_i_44_508)">
<rect x="0.5" y="197" width="139" height="139" rx="4" fill="white"/>
</g>
<rect x="1" y="197.5" width="138" height="138" rx="3.5" stroke="#C6B7FA"/>
<rect width="1.12097" height="93.0403" transform="matrix(-1 0 0 1 47.5806 242.96)" fill="#AD9EFF" style="mix-blend-mode:multiply"/>
<rect width="1.12097" height="139" transform="matrix(-1 0 0 1 93.5403 197)" fill="#AD9EFF" style="mix-blend-mode:multiply"/>
<rect width="1.12097" height="139" transform="matrix(4.57599e-08 1 1 -4.17546e-08 0.5 288.919)" fill="#AD9EFF" style="mix-blend-mode:multiply"/>
<rect width="1.12097" height="139" transform="matrix(4.57599e-08 1 1 -4.17546e-08 0.5 242.96)" fill="#AD9EFF" style="mix-blend-mode:multiply"/>
<rect x="53.1855" y="249.685" width="33.629" height="33.629" rx="2" fill="#D9D6FE"/>
<rect x="99.1453" y="203.726" width="33.629" height="33.629" rx="2" fill="#F4F3FF"/>
<path d="M175.557 260.926V269.653H174.151L170.038 263.709H169.966V269.653H168.385V260.926H169.8L173.908 266.875H173.984V260.926H175.557ZM179.24 269.653H177.553L180.625 260.926H182.577L185.654 269.653H183.966L181.635 262.716H181.567L179.24 269.653ZM179.296 266.231H183.898V267.501H179.296V266.231ZM187.643 260.926H189.578L192.169 267.25H192.271L194.862 260.926H196.796V269.653H195.279V263.657H195.198L192.787 269.628H191.653L189.241 263.645H189.16V269.653H187.643V260.926ZM199.358 269.653V260.926H205.034V262.251H200.939V264.621H204.74V265.946H200.939V268.328H205.068V269.653H199.358Z" fill="#7556DC"/>
<path d="M175.855 216.79H174.261C174.216 216.529 174.132 216.297 174.01 216.095C173.888 215.891 173.736 215.718 173.554 215.575C173.372 215.433 173.165 215.327 172.932 215.256C172.702 215.182 172.453 215.145 172.186 215.145C171.712 215.145 171.291 215.264 170.925 215.503C170.558 215.739 170.271 216.085 170.064 216.543C169.857 216.997 169.753 217.553 169.753 218.209C169.753 218.877 169.857 219.439 170.064 219.896C170.274 220.351 170.561 220.695 170.925 220.928C171.291 221.158 171.71 221.273 172.182 221.273C172.443 221.273 172.688 221.239 172.915 221.171C173.145 221.1 173.351 220.996 173.533 220.86C173.717 220.723 173.872 220.556 173.997 220.357C174.125 220.158 174.213 219.931 174.261 219.675L175.855 219.683C175.795 220.098 175.666 220.487 175.467 220.851C175.271 221.215 175.014 221.536 174.696 221.814C174.378 222.09 174.006 222.306 173.58 222.462C173.153 222.615 172.68 222.692 172.161 222.692C171.393 222.692 170.709 222.514 170.107 222.159C169.504 221.804 169.03 221.291 168.683 220.621C168.337 219.95 168.163 219.146 168.163 218.209C168.163 217.269 168.338 216.465 168.688 215.797C169.037 215.127 169.513 214.614 170.115 214.259C170.717 213.904 171.399 213.726 172.161 213.726C172.646 213.726 173.098 213.794 173.516 213.931C173.933 214.067 174.305 214.267 174.632 214.531C174.959 214.793 175.227 215.114 175.438 215.495C175.651 215.872 175.79 216.304 175.855 216.79ZM185.941 218.209C185.941 219.149 185.765 219.955 185.413 220.625C185.063 221.293 184.586 221.804 183.981 222.159C183.379 222.514 182.695 222.692 181.931 222.692C181.167 222.692 180.482 222.514 179.877 222.159C179.275 221.801 178.798 221.289 178.445 220.621C178.096 219.95 177.921 219.146 177.921 218.209C177.921 217.269 178.096 216.465 178.445 215.797C178.798 215.127 179.275 214.614 179.877 214.259C180.482 213.904 181.167 213.726 181.931 213.726C182.695 213.726 183.379 213.904 183.981 214.259C184.586 214.614 185.063 215.127 185.413 215.797C185.765 216.465 185.941 217.269 185.941 218.209ZM184.352 218.209C184.352 217.547 184.248 216.989 184.041 216.534C183.836 216.077 183.552 215.732 183.188 215.499C182.825 215.263 182.406 215.145 181.931 215.145C181.457 215.145 181.038 215.263 180.674 215.499C180.311 215.732 180.025 216.077 179.818 216.534C179.613 216.989 179.511 217.547 179.511 218.209C179.511 218.871 179.613 219.431 179.818 219.888C180.025 220.343 180.311 220.688 180.674 220.923C181.038 221.156 181.457 221.273 181.931 221.273C182.406 221.273 182.825 221.156 183.188 220.923C183.552 220.688 183.836 220.343 184.041 219.888C184.248 219.431 184.352 218.871 184.352 218.209ZM188.276 213.845H190.211L192.801 220.169H192.904L195.495 213.845H197.429V222.573H195.912V216.577H195.831L193.419 222.547H192.286L189.874 216.564H189.793V222.573H188.276V213.845ZM199.991 222.573V213.845H203.264C203.934 213.845 204.497 213.97 204.951 214.22C205.409 214.47 205.754 214.814 205.987 215.252C206.222 215.686 206.34 216.181 206.34 216.735C206.34 217.294 206.222 217.791 205.987 218.226C205.751 218.661 205.403 219.003 204.943 219.253C204.482 219.5 203.916 219.624 203.242 219.624H201.073V218.324H203.029C203.421 218.324 203.742 218.256 203.992 218.12C204.242 217.983 204.427 217.796 204.546 217.557C204.668 217.318 204.73 217.044 204.73 216.735C204.73 216.425 204.668 216.152 204.546 215.916C204.427 215.681 204.241 215.497 203.988 215.367C203.738 215.233 203.416 215.166 203.021 215.166H201.572V222.573H199.991ZM208.702 222.573H207.014L210.087 213.845H212.038L215.115 222.573H213.427L211.097 215.635H211.028L208.702 222.573ZM208.757 219.151H213.359V220.421H208.757V219.151ZM224.276 213.845V222.573H222.87L218.758 216.628H218.685V222.573H217.104V213.845H218.519L222.627 219.794H222.704V213.845H224.276ZM226.242 213.845H228.028L230.163 217.706H230.248L232.383 213.845H234.169L230.994 219.317V222.573H229.417V219.317L226.242 213.845Z" fill="#7556DC"/>
<rect x="86.8145" y="264.258" width="71.7419" height="5.60484" fill="white"/>
<rect x="86.8145" y="266.5" width="71.7419" height="1.12097" fill="#A690F4"/>
<rect x="132.774" y="217.177" width="28.0242" height="5.60484" fill="white"/>
<rect x="132.774" y="219.419" width="28.0242" height="1.12097" fill="#A690F4"/>
<path d="M16.6709 214.05V212.724H23.6339V214.05H20.9365V221.452H19.3683V214.05H16.6709ZM25.8823 221.452H24.1948L27.2673 212.724H29.219L32.2957 221.452H30.6082L28.2772 214.514H28.209L25.8823 221.452ZM25.9377 218.03H30.54V219.3H25.9377V218.03ZM34.2852 221.452V212.724H37.6261C38.2568 212.724 38.7809 212.824 39.1985 213.023C39.619 213.219 39.9329 213.487 40.1403 213.828C40.3505 214.169 40.4556 214.555 40.4556 214.987C40.4556 215.342 40.3875 215.646 40.2511 215.899C40.1147 216.149 39.9315 216.352 39.7014 216.508C39.4713 216.665 39.2142 216.777 38.9301 216.845V216.93C39.2397 216.947 39.5366 217.043 39.8207 217.216C40.1076 217.386 40.342 217.628 40.5238 217.94C40.7056 218.253 40.7965 218.631 40.7965 219.074C40.7965 219.526 40.6872 219.932 40.4684 220.293C40.2497 220.651 39.9201 220.933 39.4798 221.141C39.0394 221.348 38.4855 221.452 37.8179 221.452H34.2852ZM35.8661 220.131H37.5664C38.1403 220.131 38.5536 220.021 38.8065 219.803C39.0622 219.581 39.19 219.297 39.19 218.95C39.19 218.692 39.1261 218.459 38.9982 218.251C38.8704 218.041 38.6886 217.876 38.4528 217.757C38.217 217.635 37.9357 217.574 37.609 217.574H35.8661V220.131ZM35.8661 216.436H37.4301C37.7028 216.436 37.9485 216.386 38.1673 216.287C38.386 216.185 38.5579 216.041 38.6829 215.856C38.8107 215.669 38.8747 215.447 38.8747 215.192C38.8747 214.854 38.7554 214.575 38.5167 214.356C38.2809 214.138 37.9301 214.028 37.4642 214.028H35.8661V216.436ZM43.0119 221.452V212.724H44.5929V220.126H48.4366V221.452H43.0119ZM50.6488 221.452V212.724H56.3249V214.05H52.2297V216.419H56.0309V217.744H52.2297V220.126H56.359V221.452H50.6488Z" fill="#7556DC"/>
<defs>
<filter id="filter0_i_44_508" x="147.5" y="48" width="139" height="141" filterUnits="userSpaceOnUse" color-interpolation-filters="sRGB">
<feFlood flood-opacity="0" result="BackgroundImageFix"/>
<feBlend mode="normal" in="SourceGraphic" in2="BackgroundImageFix" result="shape"/>
<feColorMatrix in="SourceAlpha" type="matrix" values="0 0 0 0 0 0 0 0 0 0 0 0 0 0 0 0 0 0 127 0" result="hardAlpha"/>
<feOffset dy="-2"/>
<feGaussianBlur stdDeviation="3"/>
<feComposite in2="hardAlpha" operator="arithmetic" k2="-1" k3="1"/>
<feColorMatrix type="matrix" values="0 0 0 0 0.941176 0 0 0 0 0.976471 0 0 0 0 1 0 0 0 1 0"/>
<feBlend mode="normal" in2="shape" result="effect1_innerShadow_44_508"/>
</filter>
<filter id="filter1_i_44_508" x="0.5" y="48" width="139" height="141" filterUnits="userSpaceOnUse" color-interpolation-filters="sRGB">
<feFlood flood-opacity="0" result="BackgroundImageFix"/>
<feBlend mode="normal" in="SourceGraphic" in2="BackgroundImageFix" result="shape"/>
<feColorMatrix in="SourceAlpha" type="matrix" values="0 0 0 0 0 0 0 0 0 0 0 0 0 0 0 0 0 0 127 0" result="hardAlpha"/>
<feOffset dy="-2"/>
<feGaussianBlur stdDeviation="3"/>
<feComposite in2="hardAlpha" operator="arithmetic" k2="-1" k3="1"/>
<feColorMatrix type="matrix" values="0 0 0 0 0.941176 0 0 0 0 0.976471 0 0 0 0 1 0 0 0 1 0"/>
<feBlend mode="normal" in2="shape" result="effect1_innerShadow_44_508"/>
</filter>
<filter id="filter2_i_44_508" x="0.5" y="195" width="139" height="141" filterUnits="userSpaceOnUse" color-interpolation-filters="sRGB">
<feFlood flood-opacity="0" result="BackgroundImageFix"/>
<feBlend mode="normal" in="SourceGraphic" in2="BackgroundImageFix" result="shape"/>
<feColorMatrix in="SourceAlpha" type="matrix" values="0 0 0 0 0 0 0 0 0 0 0 0 0 0 0 0 0 0 127 0" result="hardAlpha"/>
<feOffset dy="-2"/>
<feGaussianBlur stdDeviation="3"/>
<feComposite in2="hardAlpha" operator="arithmetic" k2="-1" k3="1"/>
<feColorMatrix type="matrix" values="0 0 0 0 0.941176 0 0 0 0 0.976471 0 0 0 0 1 0 0 0 1 0"/>
<feBlend mode="normal" in2="shape" result="effect1_innerShadow_44_508"/>
</filter>
</defs>
</svg>
