<svg width="293" height="336" viewBox="0 0 293 336" fill="none" xmlns="http://www.w3.org/2000/svg">
<path d="M1.23295 14V3.81818H4.79261C5.50189 3.81818 6.08688 3.94081 6.54759 4.18608C7.00829 4.42803 7.35133 4.7545 7.5767 5.16548C7.80208 5.57315 7.91477 6.02557 7.91477 6.52273C7.91477 6.96023 7.83688 7.3215 7.68111 7.60653C7.52865 7.89157 7.32647 8.11695 7.07457 8.28267C6.82599 8.44839 6.55587 8.57102 6.2642 8.65057V8.75C6.57576 8.76989 6.88897 8.87926 7.20384 9.07812C7.5187 9.27699 7.7822 9.56203 7.99432 9.93324C8.20644 10.3045 8.3125 10.7585 8.3125 11.2955C8.3125 11.8059 8.1965 12.2649 7.96449 12.6726C7.73248 13.0803 7.36624 13.4034 6.86577 13.642C6.36529 13.8807 5.71402 14 4.91193 14H1.23295ZM2.46591 12.9062H4.91193C5.71733 12.9062 6.28906 12.7505 6.62713 12.4389C6.96851 12.1241 7.1392 11.7429 7.1392 11.2955C7.1392 10.9508 7.05137 10.6326 6.87571 10.3409C6.70005 10.0459 6.44981 9.81061 6.125 9.63494C5.80019 9.45597 5.41572 9.36648 4.97159 9.36648H2.46591V12.9062ZM2.46591 8.29261H4.75284C5.12405 8.29261 5.45881 8.2197 5.7571 8.07386C6.05871 7.92803 6.29735 7.72254 6.47301 7.45739C6.65199 7.19223 6.74148 6.88068 6.74148 6.52273C6.74148 6.07528 6.5857 5.69579 6.27415 5.38423C5.9626 5.06937 5.46875 4.91193 4.79261 4.91193H2.46591V8.29261ZM11.3526 3.81818V14H10.1793V3.81818H11.3526ZM16.6039 14.1591C15.9145 14.1591 15.3096 13.995 14.7892 13.6669C14.2722 13.3388 13.8678 12.8797 13.5762 12.2898C13.2878 11.6998 13.1436 11.0104 13.1436 10.2216C13.1436 9.42614 13.2878 8.73177 13.5762 8.13849C13.8678 7.54522 14.2722 7.08452 14.7892 6.75639C15.3096 6.42827 15.9145 6.2642 16.6039 6.2642C17.2933 6.2642 17.8965 6.42827 18.4135 6.75639C18.9339 7.08452 19.3382 7.54522 19.6266 8.13849C19.9183 8.73177 20.0641 9.42614 20.0641 10.2216C20.0641 11.0104 19.9183 11.6998 19.6266 12.2898C19.3382 12.8797 18.9339 13.3388 18.4135 13.6669C17.8965 13.995 17.2933 14.1591 16.6039 14.1591ZM16.6039 13.1051C17.1275 13.1051 17.5584 12.9709 17.8965 12.7024C18.2346 12.4339 18.4848 12.081 18.6472 11.6435C18.8096 11.206 18.8908 10.732 18.8908 10.2216C18.8908 9.71117 18.8096 9.23556 18.6472 8.79474C18.4848 8.35393 18.2346 7.99763 17.8965 7.72585C17.5584 7.45407 17.1275 7.31818 16.6039 7.31818C16.0802 7.31818 15.6493 7.45407 15.3113 7.72585C14.9732 7.99763 14.723 8.35393 14.5605 8.79474C14.3981 9.23556 14.3169 9.71117 14.3169 10.2216C14.3169 10.732 14.3981 11.206 14.5605 11.6435C14.723 12.081 14.9732 12.4339 15.3113 12.7024C15.6493 12.9709 16.0802 13.1051 16.6039 13.1051ZM24.9574 14.1591C24.2415 14.1591 23.625 13.9901 23.108 13.652C22.5909 13.3139 22.1932 12.8482 21.9148 12.255C21.6364 11.6617 21.4972 10.9839 21.4972 10.2216C21.4972 9.44602 21.6397 8.7616 21.9247 8.16832C22.2131 7.57173 22.6141 7.10606 23.1278 6.77131C23.6449 6.43324 24.2481 6.2642 24.9375 6.2642C25.4744 6.2642 25.9583 6.36364 26.3892 6.5625C26.8201 6.76136 27.1731 7.03977 27.4482 7.39773C27.7232 7.75568 27.8939 8.1733 27.9602 8.65057H26.7869C26.6974 8.30256 26.4986 7.99432 26.1903 7.72585C25.8854 7.45407 25.4744 7.31818 24.9574 7.31818C24.5 7.31818 24.099 7.4375 23.7543 7.67614C23.4129 7.91146 23.1461 8.24455 22.9538 8.67543C22.7649 9.10298 22.6705 9.60511 22.6705 10.1818C22.6705 10.7718 22.7633 11.2855 22.9489 11.723C23.1378 12.1605 23.4029 12.5002 23.7443 12.7422C24.089 12.9841 24.4934 13.1051 24.9574 13.1051C25.2623 13.1051 25.5391 13.0521 25.7876 12.946C26.0362 12.84 26.2467 12.6875 26.419 12.4886C26.5914 12.2898 26.714 12.0511 26.7869 11.7727H27.9602C27.8939 12.2235 27.7299 12.6295 27.468 12.9908C27.2095 13.3487 26.8665 13.6338 26.4389 13.8459C26.0147 14.0547 25.5208 14.1591 24.9574 14.1591ZM30.7692 11.2159L30.7493 9.7642H30.9879L34.3288 6.36364H35.7805L32.2209 9.96307H32.1214L30.7692 11.2159ZM29.6754 14V3.81818H30.8487V14H29.6754ZM34.5277 14L31.5447 10.2216L32.38 9.40625L36.0192 14H34.5277ZM42.6998 8.07386L41.6458 8.37216C41.5795 8.1965 41.4817 8.0258 41.3525 7.86009C41.2265 7.69105 41.0542 7.55185 40.8354 7.44247C40.6167 7.3331 40.3366 7.27841 39.9952 7.27841C39.5279 7.27841 39.1384 7.38613 38.8269 7.60156C38.5186 7.81368 38.3645 8.08381 38.3645 8.41193C38.3645 8.7036 38.4706 8.93395 38.6827 9.10298C38.8948 9.27202 39.2263 9.41288 39.677 9.52557L40.8105 9.80398C41.4933 9.9697 42.0021 10.2232 42.3368 10.5646C42.6716 10.9027 42.839 11.3385 42.839 11.8722C42.839 12.3097 42.713 12.7008 42.4611 13.0455C42.2125 13.3902 41.8645 13.6619 41.4171 13.8608C40.9696 14.0597 40.4493 14.1591 39.856 14.1591C39.0771 14.1591 38.4325 13.9901 37.9221 13.652C37.4116 13.3139 37.0885 12.8201 36.9526 12.1705L38.0662 11.892C38.1723 12.303 38.3728 12.6113 38.6678 12.8168C38.9661 13.0223 39.3555 13.125 39.8361 13.125C40.383 13.125 40.8172 13.009 41.1387 12.777C41.4635 12.5417 41.6259 12.2599 41.6259 11.9318C41.6259 11.6667 41.5331 11.4446 41.3475 11.2656C41.1619 11.0833 40.8768 10.9474 40.4924 10.858L39.2196 10.5597C38.5203 10.3939 38.0066 10.1371 37.6784 9.78906C37.3536 9.43774 37.1912 8.99858 37.1912 8.47159C37.1912 8.04072 37.3122 7.65956 37.5542 7.32812C37.7994 6.99669 38.1325 6.73651 38.5534 6.54758C38.9777 6.35866 39.4583 6.2642 39.9952 6.2642C40.7509 6.2642 41.3442 6.42992 41.775 6.76136C42.2092 7.0928 42.5175 7.5303 42.6998 8.07386ZM50.2727 14L47.946 6.36364H49.179L50.8295 12.2102H50.9091L52.5398 6.36364H53.7926L55.4034 12.1903H55.483L57.1335 6.36364H58.3665L56.0398 14H54.8864L53.2159 8.13352H53.0966L51.4261 14H50.2727ZM59.9176 14V6.36364H61.0909V14H59.9176ZM60.5142 5.09091C60.2855 5.09091 60.0883 5.01302 59.9226 4.85724C59.7602 4.70147 59.679 4.5142 59.679 4.29545C59.679 4.0767 59.7602 3.88944 59.9226 3.73366C60.0883 3.57789 60.2855 3.5 60.5142 3.5C60.7429 3.5 60.9384 3.57789 61.1009 3.73366C61.2666 3.88944 61.3494 4.0767 61.3494 4.29545C61.3494 4.5142 61.2666 4.70147 61.1009 4.85724C60.9384 5.01302 60.7429 5.09091 60.5142 5.09091ZM66.5609 6.36364V7.35795H62.6035V6.36364H66.5609ZM63.7569 4.53409H64.9302V11.8125C64.9302 12.1439 64.9783 12.3925 65.0744 12.5582C65.1738 12.7206 65.2998 12.83 65.4522 12.8864C65.608 12.9394 65.7721 12.9659 65.9444 12.9659C66.0737 12.9659 66.1797 12.9593 66.2626 12.946C66.3455 12.9295 66.4118 12.9162 66.4615 12.9062L66.7001 13.9602C66.6206 13.9901 66.5095 14.0199 66.367 14.0497C66.2245 14.0829 66.0439 14.0994 65.8251 14.0994C65.4937 14.0994 65.1689 14.0282 64.8507 13.8857C64.5358 13.7431 64.274 13.526 64.0652 13.2344C63.8597 12.9427 63.7569 12.5748 63.7569 12.1307V4.53409ZM69.6632 9.40625V14H68.4899V3.81818H69.6632V7.55682H69.7626C69.9416 7.16241 70.21 6.84919 70.568 6.61719C70.9293 6.38187 71.4099 6.2642 72.0098 6.2642C72.5301 6.2642 72.9859 6.36861 73.377 6.57741C73.7681 6.78291 74.0713 7.09943 74.2868 7.52699C74.5055 7.95123 74.6149 8.49148 74.6149 9.14773V14H73.4416V9.22727C73.4416 8.62074 73.2842 8.15175 72.9693 7.82031C72.6577 7.48556 72.2252 7.31818 71.6717 7.31818C71.2872 7.31818 70.9425 7.39938 70.6376 7.56179C70.336 7.72419 70.0974 7.96117 69.9217 8.27273C69.7493 8.58428 69.6632 8.96212 69.6632 9.40625ZM80.6989 16.8636V6.36364H81.8324V7.5767H81.9716C82.0578 7.44413 82.1771 7.27509 82.3295 7.0696C82.4853 6.8608 82.7074 6.67519 82.9957 6.51278C83.2874 6.34706 83.6818 6.2642 84.179 6.2642C84.822 6.2642 85.3887 6.42495 85.8793 6.74645C86.3698 7.06794 86.7526 7.52367 87.0277 8.11364C87.3028 8.7036 87.4403 9.39962 87.4403 10.2017C87.4403 11.0104 87.3028 11.7114 87.0277 12.3047C86.7526 12.8946 86.3714 13.352 85.8842 13.6768C85.397 13.9983 84.8352 14.1591 84.1989 14.1591C83.7083 14.1591 83.3156 14.0779 83.0206 13.9155C82.7256 13.7498 82.4986 13.5625 82.3395 13.3537C82.1804 13.1416 82.0578 12.9659 81.9716 12.8267H81.8722V16.8636H80.6989ZM81.8523 10.1818C81.8523 10.7585 81.9368 11.2673 82.1058 11.7081C82.2749 12.1456 82.5218 12.4886 82.8466 12.7372C83.1714 12.9825 83.5691 13.1051 84.0398 13.1051C84.5303 13.1051 84.9396 12.9759 85.2678 12.7173C85.5992 12.4555 85.8478 12.1042 86.0135 11.6634C86.1825 11.2192 86.267 10.7254 86.267 10.1818C86.267 9.64489 86.1842 9.16098 86.0185 8.73011C85.8561 8.29593 85.6091 7.95289 85.2777 7.70099C84.9496 7.44579 84.5369 7.31818 84.0398 7.31818C83.5625 7.31818 83.1615 7.43916 82.8366 7.68111C82.5118 7.91974 82.2666 8.2545 82.1009 8.68537C81.9351 9.11293 81.8523 9.61174 81.8523 10.1818ZM89.2301 14V6.36364H90.3636V7.51705H90.4432C90.5824 7.1392 90.8343 6.83262 91.1989 6.5973C91.5634 6.36198 91.9744 6.24432 92.4318 6.24432C92.518 6.24432 92.6257 6.24597 92.755 6.24929C92.8842 6.2526 92.982 6.25758 93.0483 6.2642V7.45739C93.0085 7.44744 92.9174 7.43253 92.7749 7.41264C92.6357 7.38944 92.4882 7.37784 92.3324 7.37784C91.9612 7.37784 91.6297 7.45573 91.3381 7.61151C91.0497 7.76397 90.821 7.97609 90.652 8.24787C90.4863 8.51634 90.4034 8.82292 90.4034 9.16761V14H89.2301ZM97.4084 14.1591C96.6726 14.1591 96.0379 13.9967 95.5043 13.6719C94.974 13.3438 94.5646 12.8864 94.2763 12.2997C93.9912 11.7098 93.8487 11.0237 93.8487 10.2415C93.8487 9.45928 93.9912 8.76989 94.2763 8.1733C94.5646 7.57339 94.9657 7.10606 95.4794 6.77131C95.9964 6.43324 96.5997 6.2642 97.2891 6.2642C97.6868 6.2642 98.0795 6.33049 98.4673 6.46307C98.8551 6.59564 99.2081 6.81108 99.5263 7.10938C99.8445 7.40436 100.098 7.79545 100.287 8.28267C100.476 8.76989 100.57 9.36979 100.57 10.0824V10.5795H94.6839V9.56534H99.3771C99.3771 9.13447 99.291 8.75 99.1186 8.41193C98.9496 8.07386 98.7076 7.80705 98.3928 7.61151C98.0812 7.41596 97.7133 7.31818 97.2891 7.31818C96.8217 7.31818 96.4174 7.43419 96.076 7.66619C95.7379 7.89489 95.4777 8.19318 95.2955 8.56108C95.1132 8.92898 95.022 9.32339 95.022 9.74432V10.4205C95.022 10.9972 95.1214 11.486 95.3203 11.8871C95.5225 12.2848 95.8026 12.5881 96.1605 12.7969C96.5185 13.0024 96.9344 13.1051 97.4084 13.1051C97.7166 13.1051 97.995 13.062 98.2436 12.9759C98.4955 12.8864 98.7126 12.7538 98.8949 12.5781C99.0772 12.3991 99.218 12.1771 99.3175 11.9119L100.451 12.2301C100.332 12.6146 100.131 12.9527 99.8494 13.2443C99.5677 13.5327 99.2197 13.758 98.8054 13.9205C98.3911 14.0795 97.9254 14.1591 97.4084 14.1591ZM106.73 9.08807V10.1818H102.276V9.08807H106.73ZM111.678 14.1591C111.042 14.1591 110.48 13.9983 109.993 13.6768C109.506 13.352 109.124 12.8946 108.849 12.3047C108.574 11.7114 108.437 11.0104 108.437 10.2017C108.437 9.39962 108.574 8.7036 108.849 8.11364C109.124 7.52367 109.507 7.06794 109.998 6.74645C110.488 6.42495 111.055 6.2642 111.698 6.2642C112.195 6.2642 112.588 6.34706 112.876 6.51278C113.168 6.67519 113.39 6.8608 113.542 7.0696C113.698 7.27509 113.819 7.44413 113.905 7.5767H114.005V3.81818H115.178V14H114.045V12.8267H113.905C113.819 12.9659 113.697 13.1416 113.537 13.3537C113.378 13.5625 113.151 13.7498 112.856 13.9155C112.561 14.0779 112.169 14.1591 111.678 14.1591ZM111.837 13.1051C112.308 13.1051 112.706 12.9825 113.03 12.7372C113.355 12.4886 113.602 12.1456 113.771 11.7081C113.94 11.2673 114.025 10.7585 114.025 10.1818C114.025 9.61174 113.942 9.11293 113.776 8.68537C113.61 8.2545 113.365 7.91974 113.04 7.68111C112.715 7.43916 112.314 7.31818 111.837 7.31818C111.34 7.31818 110.926 7.44579 110.594 7.70099C110.266 7.95289 110.019 8.29593 109.854 8.73011C109.691 9.16098 109.61 9.64489 109.61 10.1818C109.61 10.7254 109.693 11.2192 109.858 11.6634C110.028 12.1042 110.276 12.4555 110.604 12.7173C110.936 12.9759 111.347 13.1051 111.837 13.1051ZM120.692 14.1591C119.956 14.1591 119.321 13.9967 118.787 13.6719C118.257 13.3438 117.848 12.8864 117.559 12.2997C117.274 11.7098 117.132 11.0237 117.132 10.2415C117.132 9.45928 117.274 8.76989 117.559 8.1733C117.848 7.57339 118.249 7.10606 118.763 6.77131C119.28 6.43324 119.883 6.2642 120.572 6.2642C120.97 6.2642 121.363 6.33049 121.751 6.46307C122.138 6.59564 122.491 6.81108 122.809 7.10938C123.128 7.40436 123.381 7.79545 123.57 8.28267C123.759 8.76989 123.854 9.36979 123.854 10.0824V10.5795H117.967V9.56534H122.66C122.66 9.13447 122.574 8.75 122.402 8.41193C122.233 8.07386 121.991 7.80705 121.676 7.61151C121.364 7.41596 120.997 7.31818 120.572 7.31818C120.105 7.31818 119.701 7.43419 119.359 7.66619C119.021 7.89489 118.761 8.19318 118.579 8.56108C118.396 8.92898 118.305 9.32339 118.305 9.74432V10.4205C118.305 10.9972 118.405 11.486 118.604 11.8871C118.806 12.2848 119.086 12.5881 119.444 12.7969C119.802 13.0024 120.218 13.1051 120.692 13.1051C121 13.1051 121.278 13.062 121.527 12.9759C121.779 12.8864 121.996 12.7538 122.178 12.5781C122.36 12.3991 122.501 12.1771 122.601 11.9119L123.734 12.2301C123.615 12.6146 123.414 12.9527 123.133 13.2443C122.851 13.5327 122.503 13.758 122.089 13.9205C121.674 14.0795 121.209 14.1591 120.692 14.1591ZM129.039 6.36364V7.35795H124.922V6.36364H129.039ZM126.155 14V5.30966C126.155 4.87216 126.258 4.50758 126.464 4.21591C126.669 3.92424 126.936 3.70549 127.264 3.55966C127.592 3.41383 127.939 3.34091 128.303 3.34091C128.591 3.34091 128.827 3.36411 129.009 3.41051C129.191 3.45691 129.327 3.5 129.417 3.53977L129.079 4.55398C129.019 4.53409 128.936 4.50923 128.83 4.4794C128.727 4.44957 128.591 4.43466 128.422 4.43466C128.035 4.43466 127.755 4.53243 127.582 4.72798C127.413 4.92353 127.329 5.21023 127.329 5.58807V14H126.155ZM130.683 14V6.36364H131.857V14H130.683ZM131.28 5.09091C131.051 5.09091 130.854 5.01302 130.688 4.85724C130.526 4.70147 130.445 4.5142 130.445 4.29545C130.445 4.0767 130.526 3.88944 130.688 3.73366C130.854 3.57789 131.051 3.5 131.28 3.5C131.509 3.5 131.704 3.57789 131.866 3.73366C132.032 3.88944 132.115 4.0767 132.115 4.29545C132.115 4.5142 132.032 4.70147 131.866 4.85724C131.704 5.01302 131.509 5.09091 131.28 5.09091ZM135.179 9.40625V14H134.006V6.36364H135.139V7.55682H135.238C135.417 7.16903 135.689 6.85748 136.054 6.62216C136.418 6.38352 136.889 6.2642 137.466 6.2642C137.983 6.2642 138.435 6.37027 138.823 6.58239C139.211 6.79119 139.512 7.10938 139.728 7.53693C139.943 7.96117 140.051 8.49811 140.051 9.14773V14H138.878V9.22727C138.878 8.62737 138.722 8.16004 138.41 7.82528C138.099 7.48722 137.671 7.31818 137.128 7.31818C136.753 7.31818 136.418 7.39938 136.123 7.56179C135.832 7.72419 135.601 7.96117 135.432 8.27273C135.263 8.58428 135.179 8.96212 135.179 9.40625ZM145.397 14.1591C144.661 14.1591 144.026 13.9967 143.493 13.6719C142.962 13.3438 142.553 12.8864 142.265 12.2997C141.98 11.7098 141.837 11.0237 141.837 10.2415C141.837 9.45928 141.98 8.76989 142.265 8.1733C142.553 7.57339 142.954 7.10606 143.468 6.77131C143.985 6.43324 144.588 6.2642 145.277 6.2642C145.675 6.2642 146.068 6.33049 146.456 6.46307C146.843 6.59564 147.196 6.81108 147.515 7.10938C147.833 7.40436 148.086 7.79545 148.275 8.28267C148.464 8.76989 148.559 9.36979 148.559 10.0824V10.5795H142.672V9.56534H147.365C147.365 9.13447 147.279 8.75 147.107 8.41193C146.938 8.07386 146.696 7.80705 146.381 7.61151C146.069 7.41596 145.702 7.31818 145.277 7.31818C144.81 7.31818 144.406 7.43419 144.064 7.66619C143.726 7.89489 143.466 8.19318 143.284 8.56108C143.101 8.92898 143.01 9.32339 143.01 9.74432V10.4205C143.01 10.9972 143.11 11.486 143.309 11.8871C143.511 12.2848 143.791 12.5881 144.149 12.7969C144.507 13.0024 144.923 13.1051 145.397 13.1051C145.705 13.1051 145.983 13.062 146.232 12.9759C146.484 12.8864 146.701 12.7538 146.883 12.5781C147.065 12.3991 147.206 12.1771 147.306 11.9119L148.439 12.2301C148.32 12.6146 148.119 12.9527 147.838 13.2443C147.556 13.5327 147.208 13.758 146.794 13.9205C146.379 14.0795 145.914 14.1591 145.397 14.1591ZM153.227 14.1591C152.591 14.1591 152.029 13.9983 151.542 13.6768C151.054 13.352 150.673 12.8946 150.398 12.3047C150.123 11.7114 149.985 11.0104 149.985 10.2017C149.985 9.39962 150.123 8.7036 150.398 8.11364C150.673 7.52367 151.056 7.06794 151.547 6.74645C152.037 6.42495 152.604 6.2642 153.247 6.2642C153.744 6.2642 154.137 6.34706 154.425 6.51278C154.717 6.67519 154.939 6.8608 155.091 7.0696C155.247 7.27509 155.368 7.44413 155.454 7.5767H155.554V3.81818H156.727V14H155.593V12.8267H155.454C155.368 12.9659 155.245 13.1416 155.086 13.3537C154.927 13.5625 154.7 13.7498 154.405 13.9155C154.11 14.0779 153.717 14.1591 153.227 14.1591ZM153.386 13.1051C153.857 13.1051 154.254 12.9825 154.579 12.7372C154.904 12.4886 155.151 12.1456 155.32 11.7081C155.489 11.2673 155.574 10.7585 155.574 10.1818C155.574 9.61174 155.491 9.11293 155.325 8.68537C155.159 8.2545 154.914 7.91974 154.589 7.68111C154.264 7.43916 153.863 7.31818 153.386 7.31818C152.889 7.31818 152.475 7.44579 152.143 7.70099C151.815 7.95289 151.568 8.29593 151.402 8.73011C151.24 9.16098 151.159 9.64489 151.159 10.1818C151.159 10.7254 151.242 11.2192 151.407 11.6634C151.576 12.1042 151.825 12.4555 152.153 12.7173C152.484 12.9759 152.895 13.1051 153.386 13.1051ZM166.297 6.36364V7.35795H162.34V6.36364H166.297ZM163.493 4.53409H164.667V11.8125C164.667 12.1439 164.715 12.3925 164.811 12.5582C164.91 12.7206 165.036 12.83 165.189 12.8864C165.344 12.9394 165.508 12.9659 165.681 12.9659C165.81 12.9659 165.916 12.9593 165.999 12.946C166.082 12.9295 166.148 12.9162 166.198 12.9062L166.436 13.9602C166.357 13.9901 166.246 14.0199 166.103 14.0497C165.961 14.0829 165.78 14.0994 165.561 14.0994C165.23 14.0994 164.905 14.0282 164.587 13.8857C164.272 13.7431 164.01 13.526 163.801 13.2344C163.596 12.9427 163.493 12.5748 163.493 12.1307V4.53409ZM168.818 16.8636C168.619 16.8636 168.442 16.8471 168.286 16.8139C168.13 16.7841 168.022 16.7543 167.963 16.7244L168.261 15.6903C168.546 15.7633 168.798 15.7898 169.017 15.7699C169.235 15.75 169.429 15.6522 169.598 15.4766C169.771 15.3042 169.928 15.0241 170.071 14.6364L170.289 14.0398L167.466 6.36364H168.738L170.846 12.4489H170.926L173.034 6.36364H174.306L171.065 15.1136C170.919 15.508 170.739 15.8345 170.523 16.093C170.308 16.3549 170.057 16.5488 169.772 16.6747C169.491 16.8007 169.172 16.8636 168.818 16.8636ZM175.855 16.8636V6.36364H176.989V7.5767H177.128C177.214 7.44413 177.333 7.27509 177.486 7.0696C177.642 6.8608 177.864 6.67519 178.152 6.51278C178.444 6.34706 178.838 6.2642 179.335 6.2642C179.978 6.2642 180.545 6.42495 181.036 6.74645C181.526 7.06794 181.909 7.52367 182.184 8.11364C182.459 8.7036 182.597 9.39962 182.597 10.2017C182.597 11.0104 182.459 11.7114 182.184 12.3047C181.909 12.8946 181.528 13.352 181.04 13.6768C180.553 13.9983 179.991 14.1591 179.355 14.1591C178.865 14.1591 178.472 14.0779 178.177 13.9155C177.882 13.7498 177.655 13.5625 177.496 13.3537C177.337 13.1416 177.214 12.9659 177.128 12.8267H177.028V16.8636H175.855ZM177.009 10.1818C177.009 10.7585 177.093 11.2673 177.262 11.7081C177.431 12.1456 177.678 12.4886 178.003 12.7372C178.328 12.9825 178.725 13.1051 179.196 13.1051C179.687 13.1051 180.096 12.9759 180.424 12.7173C180.755 12.4555 181.004 12.1042 181.17 11.6634C181.339 11.2192 181.423 10.7254 181.423 10.1818C181.423 9.64489 181.34 9.16098 181.175 8.73011C181.012 8.29593 180.765 7.95289 180.434 7.70099C180.106 7.44579 179.693 7.31818 179.196 7.31818C178.719 7.31818 178.318 7.43916 177.993 7.68111C177.668 7.91974 177.423 8.2545 177.257 8.68537C177.091 9.11293 177.009 9.61174 177.009 10.1818ZM187.588 14.1591C186.852 14.1591 186.218 13.9967 185.684 13.6719C185.154 13.3438 184.744 12.8864 184.456 12.2997C184.171 11.7098 184.028 11.0237 184.028 10.2415C184.028 9.45928 184.171 8.76989 184.456 8.1733C184.744 7.57339 185.145 7.10606 185.659 6.77131C186.176 6.43324 186.779 6.2642 187.469 6.2642C187.866 6.2642 188.259 6.33049 188.647 6.46307C189.035 6.59564 189.388 6.81108 189.706 7.10938C190.024 7.40436 190.278 7.79545 190.467 8.28267C190.656 8.76989 190.75 9.36979 190.75 10.0824V10.5795H184.864V9.56534H189.557C189.557 9.13447 189.471 8.75 189.298 8.41193C189.129 8.07386 188.887 7.80705 188.572 7.61151C188.261 7.41596 187.893 7.31818 187.469 7.31818C187.001 7.31818 186.597 7.43419 186.256 7.66619C185.918 7.89489 185.657 8.19318 185.475 8.56108C185.293 8.92898 185.202 9.32339 185.202 9.74432V10.4205C185.202 10.9972 185.301 11.486 185.5 11.8871C185.702 12.2848 185.982 12.5881 186.34 12.7969C186.698 13.0024 187.114 13.1051 187.588 13.1051C187.896 13.1051 188.175 13.062 188.423 12.9759C188.675 12.8864 188.892 12.7538 189.075 12.5781C189.257 12.3991 189.398 12.1771 189.497 11.9119L190.631 12.2301C190.511 12.6146 190.311 12.9527 190.029 13.2443C189.747 13.5327 189.399 13.758 188.985 13.9205C188.571 14.0795 188.105 14.1591 187.588 14.1591ZM197.944 8.07386L196.89 8.37216C196.824 8.1965 196.726 8.0258 196.597 7.86009C196.471 7.69105 196.298 7.55185 196.08 7.44247C195.861 7.3331 195.581 7.27841 195.239 7.27841C194.772 7.27841 194.383 7.38613 194.071 7.60156C193.763 7.81368 193.609 8.08381 193.609 8.41193C193.609 8.7036 193.715 8.93395 193.927 9.10298C194.139 9.27202 194.47 9.41288 194.921 9.52557L196.055 9.80398C196.737 9.9697 197.246 10.2232 197.581 10.5646C197.916 10.9027 198.083 11.3385 198.083 11.8722C198.083 12.3097 197.957 12.7008 197.705 13.0455C197.457 13.3902 197.109 13.6619 196.661 13.8608C196.214 14.0597 195.693 14.1591 195.1 14.1591C194.321 14.1591 193.677 13.9901 193.166 13.652C192.656 13.3139 192.333 12.8201 192.197 12.1705L193.31 11.892C193.416 12.303 193.617 12.6113 193.912 12.8168C194.21 13.0223 194.6 13.125 195.08 13.125C195.627 13.125 196.061 13.009 196.383 12.777C196.708 12.5417 196.87 12.2599 196.87 11.9318C196.87 11.6667 196.777 11.4446 196.592 11.2656C196.406 11.0833 196.121 10.9474 195.737 10.858L194.464 10.5597C193.764 10.3939 193.251 10.1371 192.923 9.78906C192.598 9.43774 192.435 8.99858 192.435 8.47159C192.435 8.04072 192.556 7.65956 192.798 7.32812C193.044 6.99669 193.377 6.73651 193.798 6.54758C194.222 6.35866 194.702 6.2642 195.239 6.2642C195.995 6.2642 196.588 6.42992 197.019 6.76136C197.453 7.0928 197.762 7.5303 197.944 8.07386ZM206.034 14.179C205.55 14.179 205.111 14.0878 204.716 13.9055C204.322 13.7199 204.009 13.4531 203.777 13.1051C203.545 12.7538 203.429 12.3295 203.429 11.8324C203.429 11.3949 203.515 11.0402 203.687 10.7685C203.86 10.4934 204.09 10.2779 204.378 10.1222C204.667 9.96638 204.985 9.85038 205.333 9.77415C205.684 9.6946 206.037 9.63163 206.392 9.58523C206.856 9.52557 207.232 9.48082 207.52 9.45099C207.812 9.41785 208.024 9.36316 208.157 9.28693C208.293 9.2107 208.361 9.07812 208.361 8.8892V8.84943C208.361 8.3589 208.226 7.97775 207.958 7.70597C207.693 7.43419 207.29 7.2983 206.75 7.2983C206.19 7.2983 205.751 7.42093 205.432 7.66619C205.114 7.91146 204.89 8.1733 204.761 8.4517L203.648 8.05398C203.846 7.58996 204.112 7.22869 204.443 6.97017C204.778 6.70833 205.142 6.52604 205.537 6.4233C205.934 6.31723 206.326 6.2642 206.71 6.2642C206.955 6.2642 207.237 6.29403 207.555 6.35369C207.877 6.41004 208.187 6.5277 208.485 6.70668C208.787 6.88565 209.037 7.15578 209.236 7.51705C209.434 7.87831 209.534 8.36222 209.534 8.96875V14H208.361V12.9659H208.301C208.221 13.1316 208.089 13.3089 207.903 13.4979C207.718 13.6868 207.471 13.8475 207.162 13.9801C206.854 14.1127 206.478 14.179 206.034 14.179ZM206.213 13.125C206.677 13.125 207.068 13.0339 207.386 12.8516C207.708 12.6693 207.95 12.4339 208.112 12.1456C208.278 11.8572 208.361 11.554 208.361 11.2358V10.1619C208.311 10.2216 208.202 10.2763 208.032 10.326C207.867 10.3724 207.675 10.4138 207.456 10.4503C207.24 10.4834 207.03 10.5133 206.824 10.5398C206.622 10.563 206.458 10.5829 206.332 10.5994C206.027 10.6392 205.742 10.7038 205.477 10.7933C205.215 10.8795 205.003 11.0104 204.841 11.1861C204.682 11.3584 204.602 11.5937 204.602 11.892C204.602 12.2997 204.753 12.608 205.055 12.8168C205.359 13.0223 205.746 13.125 206.213 13.125ZM212.849 3.81818V14H211.675V3.81818H212.849ZM216.171 3.81818V14H214.998V3.81818H216.171ZM221.422 14.1591C220.733 14.1591 220.128 13.995 219.608 13.6669C219.091 13.3388 218.686 12.8797 218.395 12.2898C218.106 11.6998 217.962 11.0104 217.962 10.2216C217.962 9.42614 218.106 8.73177 218.395 8.13849C218.686 7.54522 219.091 7.08452 219.608 6.75639C220.128 6.42827 220.733 6.2642 221.422 6.2642C222.112 6.2642 222.715 6.42827 223.232 6.75639C223.752 7.08452 224.157 7.54522 224.445 8.13849C224.737 8.73177 224.882 9.42614 224.882 10.2216C224.882 11.0104 224.737 11.6998 224.445 12.2898C224.157 12.8797 223.752 13.3388 223.232 13.6669C222.715 13.995 222.112 14.1591 221.422 14.1591ZM221.422 13.1051C221.946 13.1051 222.377 12.9709 222.715 12.7024C223.053 12.4339 223.303 12.081 223.466 11.6435C223.628 11.206 223.709 10.732 223.709 10.2216C223.709 9.71117 223.628 9.23556 223.466 8.79474C223.303 8.35393 223.053 7.99763 222.715 7.72585C222.377 7.45407 221.946 7.31818 221.422 7.31818C220.899 7.31818 220.468 7.45407 220.13 7.72585C219.792 7.99763 219.541 8.35393 219.379 8.79474C219.217 9.23556 219.135 9.71117 219.135 10.2216C219.135 10.732 219.217 11.206 219.379 11.6435C219.541 12.081 219.792 12.4339 220.13 12.7024C220.468 12.9709 220.899 13.1051 221.422 13.1051ZM228.144 14L225.817 6.36364H227.05L228.701 12.2102H228.78L230.411 6.36364H231.664L233.275 12.1903H233.354L235.005 6.36364H236.238L233.911 14H232.757L231.087 8.13352H230.968L229.297 14H228.144ZM242.482 16.8636C242.283 16.8636 242.106 16.8471 241.95 16.8139C241.794 16.7841 241.686 16.7543 241.627 16.7244L241.925 15.6903C242.21 15.7633 242.462 15.7898 242.681 15.7699C242.9 15.75 243.093 15.6522 243.262 15.4766C243.435 15.3042 243.592 15.0241 243.735 14.6364L243.953 14.0398L241.13 6.36364H242.402L244.51 12.4489H244.59L246.698 6.36364H247.971L244.729 15.1136C244.583 15.508 244.403 15.8345 244.187 16.093C243.972 16.3549 243.721 16.5488 243.436 16.6747C243.155 16.8007 242.837 16.8636 242.482 16.8636ZM252.348 14.1591C251.659 14.1591 251.054 13.995 250.533 13.6669C250.016 13.3388 249.612 12.8797 249.32 12.2898C249.032 11.6998 248.888 11.0104 248.888 10.2216C248.888 9.42614 249.032 8.73177 249.32 8.13849C249.612 7.54522 250.016 7.08452 250.533 6.75639C251.054 6.42827 251.659 6.2642 252.348 6.2642C253.037 6.2642 253.641 6.42827 254.158 6.75639C254.678 7.08452 255.082 7.54522 255.371 8.13849C255.662 8.73177 255.808 9.42614 255.808 10.2216C255.808 11.0104 255.662 11.6998 255.371 12.2898C255.082 12.8797 254.678 13.3388 254.158 13.6669C253.641 13.995 253.037 14.1591 252.348 14.1591ZM252.348 13.1051C252.872 13.1051 253.303 12.9709 253.641 12.7024C253.979 12.4339 254.229 12.081 254.391 11.6435C254.554 11.206 254.635 10.732 254.635 10.2216C254.635 9.71117 254.554 9.23556 254.391 8.79474C254.229 8.35393 253.979 7.99763 253.641 7.72585C253.303 7.45407 252.872 7.31818 252.348 7.31818C251.824 7.31818 251.393 7.45407 251.055 7.72585C250.717 7.99763 250.467 8.35393 250.305 8.79474C250.142 9.23556 250.061 9.71117 250.061 10.2216C250.061 10.732 250.142 11.206 250.305 11.6435C250.467 12.081 250.717 12.4339 251.055 12.7024C251.393 12.9709 251.824 13.1051 252.348 13.1051ZM262.412 10.8778V6.36364H263.585V14H262.412V12.7074H262.332C262.153 13.0952 261.875 13.425 261.497 13.6967C261.119 13.9652 260.642 14.0994 260.065 14.0994C259.588 14.0994 259.164 13.995 258.792 13.7862C258.421 13.5741 258.13 13.2559 257.917 12.8317C257.705 12.4041 257.599 11.8655 257.599 11.2159V6.36364H258.773V11.1364C258.773 11.6932 258.928 12.1373 259.24 12.4688C259.555 12.8002 259.956 12.9659 260.443 12.9659C260.735 12.9659 261.031 12.8913 261.333 12.7422C261.638 12.593 261.893 12.3643 262.099 12.0561C262.307 11.7479 262.412 11.3551 262.412 10.8778ZM272.993 6.36364V7.35795H269.035V6.36364H272.993ZM270.189 4.53409H271.362V11.8125C271.362 12.1439 271.41 12.3925 271.506 12.5582C271.605 12.7206 271.731 12.83 271.884 12.8864C272.04 12.9394 272.204 12.9659 272.376 12.9659C272.505 12.9659 272.611 12.9593 272.694 12.946C272.777 12.9295 272.843 12.9162 272.893 12.9062L273.132 13.9602C273.052 13.9901 272.941 14.0199 272.799 14.0497C272.656 14.0829 272.475 14.0994 272.257 14.0994C271.925 14.0994 271.6 14.0282 271.282 13.8857C270.967 13.7431 270.706 13.526 270.497 13.2344C270.291 12.9427 270.189 12.5748 270.189 12.1307V4.53409ZM277.778 14.1591C277.088 14.1591 276.483 13.995 275.963 13.6669C275.446 13.3388 275.042 12.8797 274.75 12.2898C274.462 11.6998 274.317 11.0104 274.317 10.2216C274.317 9.42614 274.462 8.73177 274.75 8.13849C275.042 7.54522 275.446 7.08452 275.963 6.75639C276.483 6.42827 277.088 6.2642 277.778 6.2642C278.467 6.2642 279.07 6.42827 279.587 6.75639C280.108 7.08452 280.512 7.54522 280.8 8.13849C281.092 8.73177 281.238 9.42614 281.238 10.2216C281.238 11.0104 281.092 11.6998 280.8 12.2898C280.512 12.8797 280.108 13.3388 279.587 13.6669C279.07 13.995 278.467 14.1591 277.778 14.1591ZM277.778 13.1051C278.301 13.1051 278.732 12.9709 279.07 12.7024C279.408 12.4339 279.659 12.081 279.821 11.6435C279.983 11.206 280.065 10.732 280.065 10.2216C280.065 9.71117 279.983 9.23556 279.821 8.79474C279.659 8.35393 279.408 7.99763 279.07 7.72585C278.732 7.45407 278.301 7.31818 277.778 7.31818C277.254 7.31818 276.823 7.45407 276.485 7.72585C276.147 7.99763 275.897 8.35393 275.734 8.79474C275.572 9.23556 275.491 9.71117 275.491 10.2216C275.491 10.732 275.572 11.206 275.734 11.6435C275.897 12.081 276.147 12.4339 276.485 12.7024C276.823 12.9709 277.254 13.1051 277.778 13.1051ZM4.17614 31.1591C3.46023 31.1591 2.84375 30.9901 2.3267 30.652C1.80966 30.3139 1.41193 29.8482 1.13352 29.255C0.855114 28.6617 0.715909 27.9839 0.715909 27.2216C0.715909 26.446 0.858428 25.7616 1.14347 25.1683C1.43182 24.5717 1.83286 24.1061 2.34659 23.7713C2.86364 23.4332 3.46686 23.2642 4.15625 23.2642C4.69318 23.2642 5.17708 23.3636 5.60795 23.5625C6.03883 23.7614 6.39181 24.0398 6.6669 24.3977C6.942 24.7557 7.11269 25.1733 7.17898 25.6506H6.00568C5.91619 25.3026 5.71733 24.9943 5.40909 24.7259C5.10417 24.4541 4.69318 24.3182 4.17614 24.3182C3.71875 24.3182 3.31771 24.4375 2.97301 24.6761C2.63163 24.9115 2.36482 25.2446 2.17259 25.6754C1.98366 26.103 1.8892 26.6051 1.8892 27.1818C1.8892 27.7718 1.98201 28.2855 2.16761 28.723C2.35653 29.1605 2.62169 29.5002 2.96307 29.7422C3.30777 29.9841 3.71212 30.1051 4.17614 30.1051C4.48106 30.1051 4.75781 30.0521 5.00639 29.946C5.25497 29.84 5.46544 29.6875 5.63778 29.4886C5.81013 29.2898 5.93277 29.0511 6.00568 28.7727H7.17898C7.11269 29.2235 6.94863 29.6295 6.68679 29.9908C6.42827 30.3487 6.08523 30.6338 5.65767 30.8459C5.23343 31.0547 4.73958 31.1591 4.17614 31.1591ZM8.89418 31V23.3636H10.0277V24.517H10.1072C10.2464 24.1392 10.4983 23.8326 10.8629 23.5973C11.2275 23.362 11.6385 23.2443 12.0959 23.2443C12.1821 23.2443 12.2898 23.246 12.419 23.2493C12.5483 23.2526 12.6461 23.2576 12.7124 23.2642V24.4574C12.6726 24.4474 12.5814 24.4325 12.4389 24.4126C12.2997 24.3894 12.1522 24.3778 11.9964 24.3778C11.6252 24.3778 11.2938 24.4557 11.0021 24.6115C10.7138 24.764 10.4851 24.9761 10.3161 25.2479C10.1503 25.5163 10.0675 25.8229 10.0675 26.1676V31H8.89418ZM17.0724 31.1591C16.3366 31.1591 15.7019 30.9967 15.1683 30.6719C14.638 30.3438 14.2287 29.8864 13.9403 29.2997C13.6553 28.7098 13.5128 28.0237 13.5128 27.2415C13.5128 26.4593 13.6553 25.7699 13.9403 25.1733C14.2287 24.5734 14.6297 24.1061 15.1435 23.7713C15.6605 23.4332 16.2637 23.2642 16.9531 23.2642C17.3509 23.2642 17.7436 23.3305 18.1314 23.4631C18.5192 23.5956 18.8722 23.8111 19.1903 24.1094C19.5085 24.4044 19.7621 24.7955 19.951 25.2827C20.1399 25.7699 20.2344 26.3698 20.2344 27.0824V27.5795H14.348V26.5653H19.0412C19.0412 26.1345 18.955 25.75 18.7827 25.4119C18.6136 25.0739 18.3717 24.8071 18.0568 24.6115C17.7453 24.416 17.3774 24.3182 16.9531 24.3182C16.4858 24.3182 16.0814 24.4342 15.7401 24.6662C15.402 24.8949 15.1418 25.1932 14.9595 25.5611C14.7772 25.929 14.6861 26.3234 14.6861 26.7443V27.4205C14.6861 27.9972 14.7855 28.486 14.9844 28.8871C15.1866 29.2848 15.4666 29.5881 15.8246 29.7969C16.1825 30.0024 16.5985 30.1051 17.0724 30.1051C17.3807 30.1051 17.6591 30.062 17.9077 29.9759C18.1596 29.8864 18.3767 29.7538 18.5589 29.5781C18.7412 29.3991 18.8821 29.1771 18.9815 28.9119L20.1151 29.2301C19.9957 29.6146 19.7952 29.9527 19.5135 30.2443C19.2318 30.5327 18.8838 30.758 18.4695 30.9205C18.0552 31.0795 17.5895 31.1591 17.0724 31.1591ZM24.2663 31.179C23.7824 31.179 23.3433 31.0878 22.9489 30.9055C22.5545 30.7199 22.2412 30.4531 22.0092 30.1051C21.7772 29.7538 21.6612 29.3295 21.6612 28.8324C21.6612 28.3949 21.7474 28.0402 21.9197 27.7685C22.0921 27.4934 22.3224 27.2779 22.6108 27.1222C22.8991 26.9664 23.2173 26.8504 23.5653 26.7741C23.9167 26.6946 24.2696 26.6316 24.6243 26.5852C25.0883 26.5256 25.4645 26.4808 25.7528 26.451C26.0445 26.4179 26.2566 26.3632 26.3892 26.2869C26.5251 26.2107 26.593 26.0781 26.593 25.8892V25.8494C26.593 25.3589 26.4588 24.9777 26.1903 24.706C25.9252 24.4342 25.5225 24.2983 24.9822 24.2983C24.4221 24.2983 23.983 24.4209 23.6648 24.6662C23.3466 24.9115 23.1229 25.1733 22.9936 25.4517L21.88 25.054C22.0788 24.59 22.344 24.2287 22.6754 23.9702C23.0102 23.7083 23.3748 23.526 23.7692 23.4233C24.1669 23.3172 24.558 23.2642 24.9425 23.2642C25.1877 23.2642 25.4695 23.294 25.7876 23.3537C26.1091 23.41 26.419 23.5277 26.7173 23.7067C27.0189 23.8857 27.2692 24.1558 27.468 24.517C27.6669 24.8783 27.7663 25.3622 27.7663 25.9688V31H26.593V29.9659H26.5334C26.4538 30.1316 26.3213 30.3089 26.1357 30.4979C25.95 30.6868 25.7031 30.8475 25.3949 30.9801C25.0866 31.1127 24.7105 31.179 24.2663 31.179ZM24.4453 30.125C24.9093 30.125 25.3004 30.0339 25.6186 29.8516C25.9401 29.6693 26.1821 29.4339 26.3445 29.1456C26.5102 28.8572 26.593 28.554 26.593 28.2358V27.1619C26.5433 27.2216 26.4339 27.2763 26.2649 27.326C26.0992 27.3724 25.907 27.4138 25.6882 27.4503C25.4728 27.4834 25.2623 27.5133 25.0568 27.5398C24.8546 27.563 24.6906 27.5829 24.5646 27.5994C24.2597 27.6392 23.9747 27.7038 23.7095 27.7933C23.4477 27.8795 23.2356 28.0104 23.0732 28.1861C22.9141 28.3584 22.8345 28.5937 22.8345 28.892C22.8345 29.2997 22.9853 29.608 23.2869 29.8168C23.5919 30.0223 23.978 30.125 24.4453 30.125ZM33.2289 23.3636V24.358H29.2715V23.3636H33.2289ZM30.4249 21.5341H31.5982V28.8125C31.5982 29.1439 31.6462 29.3925 31.7424 29.5582C31.8418 29.7206 31.9677 29.83 32.1202 29.8864C32.276 29.9394 32.44 29.9659 32.6124 29.9659C32.7417 29.9659 32.8477 29.9593 32.9306 29.946C33.0134 29.9295 33.0797 29.9162 33.1294 29.9062L33.3681 30.9602C33.2885 30.9901 33.1775 31.0199 33.035 31.0497C32.8925 31.0829 32.7118 31.0994 32.4931 31.0994C32.1616 31.0994 31.8368 31.0282 31.5186 30.8857C31.2038 30.7431 30.9419 30.526 30.7331 30.2344C30.5276 29.9427 30.4249 29.5748 30.4249 29.1307V21.5341ZM38.1135 31.1591C37.3777 31.1591 36.743 30.9967 36.2093 30.6719C35.679 30.3438 35.2697 29.8864 34.9814 29.2997C34.6963 28.7098 34.5538 28.0237 34.5538 27.2415C34.5538 26.4593 34.6963 25.7699 34.9814 25.1733C35.2697 24.5734 35.6708 24.1061 36.1845 23.7713C36.7015 23.4332 37.3047 23.2642 37.9941 23.2642C38.3919 23.2642 38.7846 23.3305 39.1724 23.4631C39.5602 23.5956 39.9132 23.8111 40.2314 24.1094C40.5495 24.4044 40.8031 24.7955 40.992 25.2827C41.1809 25.7699 41.2754 26.3698 41.2754 27.0824V27.5795H35.389V26.5653H40.0822C40.0822 26.1345 39.996 25.75 39.8237 25.4119C39.6547 25.0739 39.4127 24.8071 39.0978 24.6115C38.7863 24.416 38.4184 24.3182 37.9941 24.3182C37.5268 24.3182 37.1225 24.4342 36.7811 24.6662C36.443 24.8949 36.1828 25.1932 36.0005 25.5611C35.8182 25.929 35.7271 26.3234 35.7271 26.7443V27.4205C35.7271 27.9972 35.8265 28.486 36.0254 28.8871C36.2276 29.2848 36.5076 29.5881 36.8656 29.7969C37.2235 30.0024 37.6395 30.1051 38.1135 30.1051C38.4217 30.1051 38.7001 30.062 38.9487 29.9759C39.2006 29.8864 39.4177 29.7538 39.6 29.5781C39.7823 29.3991 39.9231 29.1771 40.0225 28.9119L41.1561 29.2301C41.0368 29.6146 40.8362 29.9527 40.5545 30.2443C40.2728 30.5327 39.9248 30.758 39.5105 30.9205C39.0962 31.0795 38.6305 31.1591 38.1135 31.1591ZM52.4068 25.0739L51.3528 25.3722C51.2865 25.1965 51.1887 25.0258 51.0595 24.8601C50.9335 24.6911 50.7612 24.5518 50.5424 24.4425C50.3237 24.3331 50.0436 24.2784 49.7022 24.2784C49.2349 24.2784 48.8455 24.3861 48.5339 24.6016C48.2257 24.8137 48.0716 25.0838 48.0716 25.4119C48.0716 25.7036 48.1776 25.9339 48.3897 26.103C48.6019 26.272 48.9333 26.4129 49.3841 26.5256L50.5176 26.804C51.2003 26.9697 51.7091 27.2232 52.0439 27.5646C52.3786 27.9027 52.546 28.3385 52.546 28.8722C52.546 29.3097 52.42 29.7008 52.1681 30.0455C51.9196 30.3902 51.5716 30.6619 51.1241 30.8608C50.6767 31.0597 50.1563 31.1591 49.563 31.1591C48.7842 31.1591 48.1395 30.9901 47.6291 30.652C47.1187 30.3139 46.7955 29.8201 46.6596 29.1705L47.7733 28.892C47.8793 29.303 48.0798 29.6113 48.3748 29.8168C48.6731 30.0223 49.0626 30.125 49.5431 30.125C50.09 30.125 50.5242 30.009 50.8457 29.777C51.1705 29.5417 51.3329 29.2599 51.3329 28.9318C51.3329 28.6667 51.2401 28.4446 51.0545 28.2656C50.8689 28.0833 50.5839 27.9474 50.1994 27.858L48.9267 27.5597C48.2273 27.3939 47.7136 27.1371 47.3855 26.7891C47.0607 26.4377 46.8983 25.9986 46.8983 25.4716C46.8983 25.0407 47.0192 24.6596 47.2612 24.3281C47.5065 23.9967 47.8395 23.7365 48.2605 23.5476C48.6847 23.3587 49.1653 23.2642 49.7022 23.2642C50.4579 23.2642 51.0512 23.4299 51.4821 23.7614C51.9163 24.0928 52.2245 24.5303 52.4068 25.0739ZM57.6332 23.3636V24.358H53.6758V23.3636H57.6332ZM54.8292 21.5341H56.0025V28.8125C56.0025 29.1439 56.0505 29.3925 56.1467 29.5582C56.2461 29.7206 56.372 29.83 56.5245 29.8864C56.6803 29.9394 56.8443 29.9659 57.0167 29.9659C57.146 29.9659 57.252 29.9593 57.3349 29.946C57.4177 29.9295 57.484 29.9162 57.5337 29.9062L57.7724 30.9602C57.6928 30.9901 57.5818 31.0199 57.4393 31.0497C57.2968 31.0829 57.1161 31.0994 56.8974 31.0994C56.5659 31.0994 56.2411 31.0282 55.9229 30.8857C55.6081 30.7431 55.3462 30.526 55.1374 30.2344C54.9319 29.9427 54.8292 29.5748 54.8292 29.1307V21.5341ZM59.3981 31V23.3636H60.5316V24.517H60.6112C60.7504 24.1392 61.0022 23.8326 61.3668 23.5973C61.7314 23.362 62.1424 23.2443 62.5998 23.2443C62.686 23.2443 62.7937 23.246 62.9229 23.2493C63.0522 23.2526 63.15 23.2576 63.2163 23.2642V24.4574C63.1765 24.4474 63.0853 24.4325 62.9428 24.4126C62.8036 24.3894 62.6561 24.3778 62.5004 24.3778C62.1291 24.3778 61.7977 24.4557 61.506 24.6115C61.2177 24.764 60.989 24.9761 60.82 25.2479C60.6542 25.5163 60.5714 25.8229 60.5714 26.1676V31H59.3981ZM69.4196 27.8778V23.3636H70.5929V31H69.4196V29.7074H69.34C69.161 30.0952 68.8826 30.425 68.5048 30.6967C68.127 30.9652 67.6497 31.0994 67.073 31.0994C66.5957 31.0994 66.1715 30.995 65.8002 30.7862C65.429 30.5741 65.1374 30.2559 64.9252 29.8317C64.7131 29.4041 64.6071 28.8655 64.6071 28.2159V23.3636H65.7804V28.1364C65.7804 28.6932 65.9361 29.1373 66.2477 29.4688C66.5626 29.8002 66.9636 29.9659 67.4508 29.9659C67.7425 29.9659 68.0391 29.8913 68.3407 29.7422C68.6457 29.593 68.9009 29.3643 69.1064 29.0561C69.3152 28.7479 69.4196 28.3551 69.4196 27.8778ZM75.8441 31.1591C75.1282 31.1591 74.5117 30.9901 73.9947 30.652C73.4776 30.3139 73.0799 29.8482 72.8015 29.255C72.5231 28.6617 72.3839 27.9839 72.3839 27.2216C72.3839 26.446 72.5264 25.7616 72.8114 25.1683C73.0998 24.5717 73.5008 24.1061 74.0146 23.7713C74.5316 23.4332 75.1348 23.2642 75.8242 23.2642C76.3612 23.2642 76.8451 23.3636 77.2759 23.5625C77.7068 23.7614 78.0598 24.0398 78.3349 24.3977C78.61 24.7557 78.7807 25.1733 78.8469 25.6506H77.6737C77.5842 25.3026 77.3853 24.9943 77.0771 24.7259C76.7721 24.4541 76.3612 24.3182 75.8441 24.3182C75.3867 24.3182 74.9857 24.4375 74.641 24.6761C74.2996 24.9115 74.0328 25.2446 73.8406 25.6754C73.6516 26.103 73.5572 26.6051 73.5572 27.1818C73.5572 27.7718 73.65 28.2855 73.8356 28.723C74.0245 29.1605 74.2897 29.5002 74.631 29.7422C74.9757 29.9841 75.3801 30.1051 75.8441 30.1051C76.149 30.1051 76.4258 30.0521 76.6744 29.946C76.9229 29.84 77.1334 29.6875 77.3058 29.4886C77.4781 29.2898 77.6007 29.0511 77.6737 28.7727H78.8469C78.7807 29.2235 78.6166 29.6295 78.3548 29.9908C78.0962 30.3487 77.7532 30.6338 77.3256 30.8459C76.9014 31.0547 76.4076 31.1591 75.8441 31.1591ZM83.8832 23.3636V24.358H79.9258V23.3636H83.8832ZM81.0792 21.5341H82.2525V28.8125C82.2525 29.1439 82.3005 29.3925 82.3967 29.5582C82.4961 29.7206 82.622 29.83 82.7745 29.8864C82.9303 29.9394 83.0943 29.9659 83.2667 29.9659C83.396 29.9659 83.502 29.9593 83.5849 29.946C83.6677 29.9295 83.734 29.9162 83.7837 29.9062L84.0224 30.9602C83.9428 30.9901 83.8318 31.0199 83.6893 31.0497C83.5468 31.0829 83.3661 31.0994 83.1474 31.0994C82.8159 31.0994 82.4911 31.0282 82.1729 30.8857C81.8581 30.7431 81.5962 30.526 81.3874 30.2344C81.1819 29.9427 81.0792 29.5748 81.0792 29.1307V21.5341ZM90.4606 27.8778V23.3636H91.6339V31H90.4606V29.7074H90.381C90.2021 30.0952 89.9237 30.425 89.5458 30.6967C89.168 30.9652 88.6907 31.0994 88.114 31.0994C87.6367 31.0994 87.2125 30.995 86.8413 30.7862C86.4701 30.5741 86.1784 30.2559 85.9663 29.8317C85.7541 29.4041 85.6481 28.8655 85.6481 28.2159V23.3636H86.8214V28.1364C86.8214 28.6932 86.9772 29.1373 87.2887 29.4688C87.6036 29.8002 88.0046 29.9659 88.4918 29.9659C88.7835 29.9659 89.0801 29.8913 89.3817 29.7422C89.6867 29.593 89.9419 29.3643 90.1474 29.0561C90.3562 28.7479 90.4606 28.3551 90.4606 27.8778ZM93.7828 31V23.3636H94.9164V24.517H94.9959C95.1351 24.1392 95.387 23.8326 95.7516 23.5973C96.1162 23.362 96.5272 23.2443 96.9846 23.2443C97.0707 23.2443 97.1784 23.246 97.3077 23.2493C97.437 23.2526 97.5347 23.2576 97.601 23.2642V24.4574C97.5613 24.4474 97.4701 24.4325 97.3276 24.4126C97.1884 24.3894 97.0409 24.3778 96.8851 24.3778C96.5139 24.3778 96.1825 24.4557 95.8908 24.6115C95.6025 24.764 95.3738 24.9761 95.2047 25.2479C95.039 25.5163 94.9561 25.8229 94.9561 26.1676V31H93.7828ZM101.961 31.1591C101.225 31.1591 100.591 30.9967 100.057 30.6719C99.5267 30.3438 99.1174 29.8864 98.829 29.2997C98.544 28.7098 98.4015 28.0237 98.4015 27.2415C98.4015 26.4593 98.544 25.7699 98.829 25.1733C99.1174 24.5734 99.5184 24.1061 100.032 23.7713C100.549 23.4332 101.152 23.2642 101.842 23.2642C102.24 23.2642 102.632 23.3305 103.02 23.4631C103.408 23.5956 103.761 23.8111 104.079 24.1094C104.397 24.4044 104.651 24.7955 104.84 25.2827C105.029 25.7699 105.123 26.3698 105.123 27.0824V27.5795H99.2367V26.5653H103.93C103.93 26.1345 103.844 25.75 103.671 25.4119C103.502 25.0739 103.26 24.8071 102.945 24.6115C102.634 24.416 102.266 24.3182 101.842 24.3182C101.374 24.3182 100.97 24.4342 100.629 24.6662C100.291 24.8949 100.03 25.1932 99.8482 25.5611C99.6659 25.929 99.5748 26.3234 99.5748 26.7443V27.4205C99.5748 27.9972 99.6742 28.486 99.873 28.8871C100.075 29.2848 100.355 29.5881 100.713 29.7969C101.071 30.0024 101.487 30.1051 101.961 30.1051C102.269 30.1051 102.548 30.062 102.796 29.9759C103.048 29.8864 103.265 29.7538 103.448 29.5781C103.63 29.3991 103.771 29.1771 103.87 28.9119L105.004 29.2301C104.884 29.6146 104.684 29.9527 104.402 30.2443C104.12 30.5327 103.772 30.758 103.358 30.9205C102.944 31.0795 102.478 31.1591 101.961 31.1591ZM109.791 31.1591C109.155 31.1591 108.593 30.9983 108.106 30.6768C107.619 30.352 107.238 29.8946 106.963 29.3047C106.687 28.7114 106.55 28.0104 106.55 27.2017C106.55 26.3996 106.687 25.7036 106.963 25.1136C107.238 24.5237 107.62 24.0679 108.111 23.7464C108.602 23.425 109.168 23.2642 109.811 23.2642C110.308 23.2642 110.701 23.3471 110.99 23.5128C111.281 23.6752 111.503 23.8608 111.656 24.0696C111.811 24.2751 111.932 24.4441 112.019 24.5767H112.118V20.8182H113.291V31H112.158V29.8267H112.019C111.932 29.9659 111.81 30.1416 111.651 30.3537C111.492 30.5625 111.265 30.7498 110.97 30.9155C110.675 31.0779 110.282 31.1591 109.791 31.1591ZM109.95 30.1051C110.421 30.1051 110.819 29.9825 111.144 29.7372C111.468 29.4886 111.715 29.1456 111.884 28.7081C112.053 28.2673 112.138 27.7585 112.138 27.1818C112.138 26.6117 112.055 26.1129 111.889 25.6854C111.724 25.2545 111.478 24.9197 111.154 24.6811C110.829 24.4392 110.428 24.3182 109.95 24.3182C109.453 24.3182 109.039 24.4458 108.708 24.701C108.379 24.9529 108.133 25.2959 107.967 25.7301C107.804 26.161 107.723 26.6449 107.723 27.1818C107.723 27.7254 107.806 28.2192 107.972 28.6634C108.141 29.1042 108.389 29.4555 108.718 29.7173C109.049 29.9759 109.46 30.1051 109.95 30.1051ZM122.424 31.1591C121.788 31.1591 121.226 30.9983 120.739 30.6768C120.252 30.352 119.87 29.8946 119.595 29.3047C119.32 28.7114 119.183 28.0104 119.183 27.2017C119.183 26.3996 119.32 25.7036 119.595 25.1136C119.87 24.5237 120.253 24.0679 120.744 23.7464C121.234 23.425 121.801 23.2642 122.444 23.2642C122.941 23.2642 123.334 23.3471 123.622 23.5128C123.914 23.6752 124.136 23.8608 124.289 24.0696C124.444 24.2751 124.565 24.4441 124.651 24.5767H124.751V20.8182H125.924V31H124.791V29.8267H124.651C124.565 29.9659 124.443 30.1416 124.284 30.3537C124.124 30.5625 123.897 30.7498 123.602 30.9155C123.307 31.0779 122.915 31.1591 122.424 31.1591ZM122.583 30.1051C123.054 30.1051 123.452 29.9825 123.776 29.7372C124.101 29.4886 124.348 29.1456 124.517 28.7081C124.686 28.2673 124.771 27.7585 124.771 27.1818C124.771 26.6117 124.688 26.1129 124.522 25.6854C124.356 25.2545 124.111 24.9197 123.786 24.6811C123.462 24.4392 123.061 24.3182 122.583 24.3182C122.086 24.3182 121.672 24.4458 121.34 24.701C121.012 24.9529 120.765 25.2959 120.6 25.7301C120.437 26.161 120.356 26.6449 120.356 27.1818C120.356 27.7254 120.439 28.2192 120.605 28.6634C120.774 29.1042 121.022 29.4555 121.35 29.7173C121.682 29.9759 122.093 30.1051 122.583 30.1051ZM130.483 31.179C129.999 31.179 129.56 31.0878 129.166 30.9055C128.771 30.7199 128.458 30.4531 128.226 30.1051C127.994 29.7538 127.878 29.3295 127.878 28.8324C127.878 28.3949 127.964 28.0402 128.137 27.7685C128.309 27.4934 128.539 27.2779 128.828 27.1222C129.116 26.9664 129.434 26.8504 129.782 26.7741C130.133 26.6946 130.486 26.6316 130.841 26.5852C131.305 26.5256 131.681 26.4808 131.97 26.451C132.261 26.4179 132.473 26.3632 132.606 26.2869C132.742 26.2107 132.81 26.0781 132.81 25.8892V25.8494C132.81 25.3589 132.676 24.9777 132.407 24.706C132.142 24.4342 131.739 24.2983 131.199 24.2983C130.639 24.2983 130.2 24.4209 129.882 24.6662C129.563 24.9115 129.34 25.1733 129.21 25.4517L128.097 25.054C128.296 24.59 128.561 24.2287 128.892 23.9702C129.227 23.7083 129.592 23.526 129.986 23.4233C130.384 23.3172 130.775 23.2642 131.159 23.2642C131.405 23.2642 131.686 23.294 132.004 23.3537C132.326 23.41 132.636 23.5277 132.934 23.7067C133.236 23.8857 133.486 24.1558 133.685 24.517C133.884 24.8783 133.983 25.3622 133.983 25.9688V31H132.81V29.9659H132.75C132.671 30.1316 132.538 30.3089 132.352 30.4979C132.167 30.6868 131.92 30.8475 131.612 30.9801C131.303 31.1127 130.927 31.179 130.483 31.179ZM130.662 30.125C131.126 30.125 131.517 30.0339 131.835 29.8516C132.157 29.6693 132.399 29.4339 132.561 29.1456C132.727 28.8572 132.81 28.554 132.81 28.2358V27.1619C132.76 27.2216 132.651 27.2763 132.482 27.326C132.316 27.3724 132.124 27.4138 131.905 27.4503C131.69 27.4834 131.479 27.5133 131.274 27.5398C131.071 27.563 130.907 27.5829 130.781 27.5994C130.477 27.6392 130.191 27.7038 129.926 27.7933C129.664 27.8795 129.452 28.0104 129.29 28.1861C129.131 28.3584 129.051 28.5937 129.051 28.892C129.051 29.2997 129.202 29.608 129.504 29.8168C129.809 30.0223 130.195 30.125 130.662 30.125ZM139.446 23.3636V24.358H135.488V23.3636H139.446ZM136.642 21.5341H137.815V28.8125C137.815 29.1439 137.863 29.3925 137.959 29.5582C138.059 29.7206 138.185 29.83 138.337 29.8864C138.493 29.9394 138.657 29.9659 138.829 29.9659C138.958 29.9659 139.065 29.9593 139.147 29.946C139.23 29.9295 139.297 29.9162 139.346 29.9062L139.585 30.9602C139.505 30.9901 139.394 31.0199 139.252 31.0497C139.109 31.0829 138.929 31.0994 138.71 31.0994C138.378 31.0994 138.054 31.0282 137.735 30.8857C137.421 30.7431 137.159 30.526 136.95 30.2344C136.744 29.9427 136.642 29.5748 136.642 29.1307V21.5341ZM143.458 31.179C142.974 31.179 142.535 31.0878 142.14 30.9055C141.746 30.7199 141.433 30.4531 141.201 30.1051C140.969 29.7538 140.853 29.3295 140.853 28.8324C140.853 28.3949 140.939 28.0402 141.111 27.7685C141.283 27.4934 141.514 27.2779 141.802 27.1222C142.091 26.9664 142.409 26.8504 142.757 26.7741C143.108 26.6946 143.461 26.6316 143.816 26.5852C144.28 26.5256 144.656 26.4808 144.944 26.451C145.236 26.4179 145.448 26.3632 145.581 26.2869C145.717 26.2107 145.784 26.0781 145.784 25.8892V25.8494C145.784 25.3589 145.65 24.9777 145.382 24.706C145.117 24.4342 144.714 24.2983 144.174 24.2983C143.614 24.2983 143.174 24.4209 142.856 24.6662C142.538 24.9115 142.314 25.1733 142.185 25.4517L141.071 25.054C141.27 24.59 141.535 24.2287 141.867 23.9702C142.202 23.7083 142.566 23.526 142.961 23.4233C143.358 23.3172 143.749 23.2642 144.134 23.2642C144.379 23.2642 144.661 23.294 144.979 23.3537C145.301 23.41 145.61 23.5277 145.909 23.7067C146.21 23.8857 146.461 24.1558 146.659 24.517C146.858 24.8783 146.958 25.3622 146.958 25.9688V31H145.784V29.9659H145.725C145.645 30.1316 145.513 30.3089 145.327 30.4979C145.141 30.6868 144.895 30.8475 144.586 30.9801C144.278 31.1127 143.902 31.179 143.458 31.179ZM143.637 30.125C144.101 30.125 144.492 30.0339 144.81 29.8516C145.132 29.6693 145.373 29.4339 145.536 29.1456C145.702 28.8572 145.784 28.554 145.784 28.2358V27.1619C145.735 27.2216 145.625 27.2763 145.456 27.326C145.291 27.3724 145.098 27.4138 144.88 27.4503C144.664 27.4834 144.454 27.5133 144.248 27.5398C144.046 27.563 143.882 27.5829 143.756 27.5994C143.451 27.6392 143.166 27.7038 142.901 27.7933C142.639 27.8795 142.427 28.0104 142.265 28.1861C142.105 28.3584 142.026 28.5937 142.026 28.892C142.026 29.2997 142.177 29.608 142.478 29.8168C142.783 30.0223 143.169 30.125 143.637 30.125Z" fill="#CF5B23"/>
<g filter="url(#filter0_i_44_508)">
<rect x="147" y="50" width="139" height="139" rx="4" fill="white"/>
</g>
<rect x="147.5" y="50.5" width="138" height="138" rx="3.5" stroke="#FFC180"/>
<path d="M163.171 67.0497V65.7244H170.134V67.0497H167.436V74.4517H165.868V67.0497H163.171ZM172.316 74.4517V65.7244H177.992V67.0497H173.897V69.419H177.698V70.7443H173.897V73.1264H178.026V74.4517H172.316ZM181.766 65.7244L183.688 68.9204H183.756L185.687 65.7244H187.489L184.8 70.088L187.532 74.4517H185.699L183.756 71.2769H183.688L181.745 74.4517H179.921L182.678 70.088L179.955 65.7244H181.766ZM189.187 67.0497V65.7244H196.15V67.0497H193.452V74.4517H191.884V67.0497H189.187Z" fill="#CF5B23"/>
<g filter="url(#filter1_i_44_508)">
<rect y="50" width="139" height="139" rx="4" fill="white"/>
</g>
<rect x="0.5" y="50.5" width="138" height="138" rx="3.5" stroke="#FFC180"/>
<path d="M18.1354 65.7244V74.4517H16.5544V65.7244H18.1354ZM20.6874 65.7244H22.622L25.2129 72.0483H25.3152L27.9061 65.7244H29.8408V74.4517H28.3237V68.4559H28.2428L25.8308 74.4261H24.6973L22.2854 68.4431H22.2044V74.4517H20.6874V65.7244ZM33.5231 74.4517H31.8356L34.908 65.7244H36.8598L39.9365 74.4517H38.249L35.918 67.5142H35.8498L33.5231 74.4517ZM33.5785 71.0298H38.1808V72.2997H33.5785V71.0298ZM47.3624 68.5113C47.2914 68.2812 47.1934 68.0752 47.0684 67.8934C46.9462 67.7088 46.7985 67.5511 46.6252 67.4204C46.4547 67.2897 46.2587 67.1917 46.0371 67.1264C45.8155 67.0582 45.574 67.0241 45.3127 67.0241C44.8439 67.0241 44.4263 67.142 44.0598 67.3778C43.6934 67.6136 43.405 67.9602 43.1948 68.4176C42.9874 68.8721 42.8837 69.4261 42.8837 70.0795C42.8837 70.7386 42.9874 71.2968 43.1948 71.7542C43.4022 72.2116 43.6905 72.5596 44.0598 72.7983C44.4292 73.034 44.8581 73.1519 45.3468 73.1519C45.79 73.1519 46.1735 73.0667 46.4973 72.8963C46.824 72.7258 47.0755 72.4843 47.2516 72.1718C47.4277 71.8565 47.5158 71.4872 47.5158 71.0639L47.8738 71.1193H45.5044V69.8835H49.0456V70.9318C49.0456 71.6789 48.8865 72.3252 48.5684 72.8707C48.2502 73.4161 47.8127 73.8366 47.2559 74.1321C46.699 74.4247 46.0598 74.571 45.3382 74.571C44.5343 74.571 43.8283 74.3906 43.2204 74.0298C42.6152 73.6661 42.1422 73.1505 41.8013 72.4829C41.4632 71.8125 41.2942 71.017 41.2942 70.0965C41.2942 69.392 41.3936 68.7627 41.5925 68.2088C41.7942 67.6548 42.0755 67.1846 42.4363 66.7983C42.7971 66.409 43.2204 66.1136 43.7061 65.9119C44.1919 65.7073 44.7204 65.6051 45.2914 65.6051C45.7743 65.6051 46.2246 65.6761 46.6422 65.8181C47.0598 65.9573 47.4306 66.1562 47.7544 66.4147C48.0811 66.6733 48.3496 66.9801 48.5598 67.3352C48.7701 67.6903 48.9079 68.0823 48.9732 68.5113H47.3624ZM51.4144 74.4517V65.7244H57.0905V67.0497H52.9954V69.419H56.7965V70.7443H52.9954V73.1264H57.1246V74.4517H51.4144Z" fill="#CF5B23"/>
<g filter="url(#filter2_i_44_508)">
<rect y="197" width="139" height="139" rx="4" fill="white"/>
</g>
<rect x="0.5" y="197.5" width="138" height="138" rx="3.5" stroke="#FFC180"/>
<rect width="1.12097" height="93.0403" transform="matrix(-1 0 0 1 47.0806 242.96)" fill="#FFDEBA" style="mix-blend-mode:multiply"/>
<rect width="1.12097" height="139" transform="matrix(-1 0 0 1 93.0403 197)" fill="#FFDEBA" style="mix-blend-mode:multiply"/>
<rect width="1.12097" height="139" transform="matrix(4.57599e-08 1 1 -4.17546e-08 0 288.919)" fill="#FFDEBA" style="mix-blend-mode:multiply"/>
<rect width="1.12097" height="139" transform="matrix(4.57599e-08 1 1 -4.17546e-08 0 242.96)" fill="#FFDEBA" style="mix-blend-mode:multiply"/>
<rect x="52.6855" y="249.685" width="33.629" height="33.629" rx="2" fill="#FFDEBA"/>
<rect x="98.6453" y="203.726" width="33.629" height="33.629" rx="2" fill="#FFDEBA"/>
<path d="M175.057 260.926V269.653H173.651L169.538 263.709H169.466V269.653H167.885V260.926H169.3L173.408 266.875H173.484V260.926H175.057ZM178.74 269.653H177.053L180.125 260.926H182.077L185.154 269.653H183.466L181.135 262.716H181.067L178.74 269.653ZM178.796 266.231H183.398V267.501H178.796V266.231ZM187.143 260.926H189.078L191.669 267.25H191.771L194.362 260.926H196.296V269.653H194.779V263.657H194.698L192.287 269.628H191.153L188.741 263.645H188.66V269.653H187.143V260.926ZM198.858 269.653V260.926H204.534V262.251H200.439V264.621H204.24V265.946H200.439V268.328H204.568V269.653H198.858Z" fill="#CF5B23"/>
<path d="M175.355 216.79H173.761C173.716 216.529 173.632 216.297 173.51 216.095C173.388 215.891 173.236 215.718 173.054 215.575C172.872 215.433 172.665 215.327 172.432 215.256C172.202 215.182 171.953 215.145 171.686 215.145C171.212 215.145 170.791 215.264 170.425 215.503C170.058 215.739 169.771 216.085 169.564 216.543C169.357 216.997 169.253 217.553 169.253 218.209C169.253 218.877 169.357 219.439 169.564 219.896C169.774 220.351 170.061 220.695 170.425 220.928C170.791 221.158 171.21 221.273 171.682 221.273C171.943 221.273 172.188 221.239 172.415 221.171C172.645 221.1 172.851 220.996 173.033 220.86C173.217 220.723 173.372 220.556 173.497 220.357C173.625 220.158 173.713 219.931 173.761 219.675L175.355 219.683C175.295 220.098 175.166 220.487 174.967 220.851C174.771 221.215 174.514 221.536 174.196 221.814C173.878 222.09 173.506 222.306 173.08 222.462C172.653 222.615 172.18 222.692 171.661 222.692C170.893 222.692 170.209 222.514 169.607 222.159C169.004 221.804 168.53 221.291 168.183 220.621C167.837 219.95 167.663 219.146 167.663 218.209C167.663 217.269 167.838 216.465 168.188 215.797C168.537 215.127 169.013 214.614 169.615 214.259C170.217 213.904 170.899 213.726 171.661 213.726C172.146 213.726 172.598 213.794 173.016 213.931C173.433 214.067 173.805 214.267 174.132 214.531C174.459 214.793 174.727 215.114 174.938 215.495C175.151 215.872 175.29 216.304 175.355 216.79ZM185.441 218.209C185.441 219.149 185.265 219.955 184.913 220.625C184.563 221.293 184.086 221.804 183.481 222.159C182.879 222.514 182.195 222.692 181.431 222.692C180.667 222.692 179.982 222.514 179.377 222.159C178.775 221.801 178.298 221.289 177.945 220.621C177.596 219.95 177.421 219.146 177.421 218.209C177.421 217.269 177.596 216.465 177.945 215.797C178.298 215.127 178.775 214.614 179.377 214.259C179.982 213.904 180.667 213.726 181.431 213.726C182.195 213.726 182.879 213.904 183.481 214.259C184.086 214.614 184.563 215.127 184.913 215.797C185.265 216.465 185.441 217.269 185.441 218.209ZM183.852 218.209C183.852 217.547 183.748 216.989 183.541 216.534C183.336 216.077 183.052 215.732 182.688 215.499C182.325 215.263 181.906 215.145 181.431 215.145C180.957 215.145 180.538 215.263 180.174 215.499C179.811 215.732 179.525 216.077 179.318 216.534C179.113 216.989 179.011 217.547 179.011 218.209C179.011 218.871 179.113 219.431 179.318 219.888C179.525 220.343 179.811 220.688 180.174 220.923C180.538 221.156 180.957 221.273 181.431 221.273C181.906 221.273 182.325 221.156 182.688 220.923C183.052 220.688 183.336 220.343 183.541 219.888C183.748 219.431 183.852 218.871 183.852 218.209ZM187.776 213.845H189.711L192.301 220.169H192.404L194.995 213.845H196.929V222.573H195.412V216.577H195.331L192.919 222.547H191.786L189.374 216.564H189.293V222.573H187.776V213.845ZM199.491 222.573V213.845H202.764C203.434 213.845 203.997 213.97 204.451 214.22C204.909 214.47 205.254 214.814 205.487 215.252C205.722 215.686 205.84 216.181 205.84 216.735C205.84 217.294 205.722 217.791 205.487 218.226C205.251 218.661 204.903 219.003 204.443 219.253C203.982 219.5 203.416 219.624 202.742 219.624H200.573V218.324H202.529C202.921 218.324 203.242 218.256 203.492 218.12C203.742 217.983 203.927 217.796 204.046 217.557C204.168 217.318 204.23 217.044 204.23 216.735C204.23 216.425 204.168 216.152 204.046 215.916C203.927 215.681 203.741 215.497 203.488 215.367C203.238 215.233 202.916 215.166 202.521 215.166H201.072V222.573H199.491ZM208.202 222.573H206.514L209.587 213.845H211.538L214.615 222.573H212.927L210.597 215.635H210.528L208.202 222.573ZM208.257 219.151H212.859V220.421H208.257V219.151ZM223.776 213.845V222.573H222.37L218.258 216.628H218.185V222.573H216.604V213.845H218.019L222.127 219.794H222.204V213.845H223.776ZM225.742 213.845H227.528L229.663 217.706H229.748L231.883 213.845H233.669L230.494 219.317V222.573H228.917V219.317L225.742 213.845Z" fill="#CF5B23"/>
<rect x="86.3145" y="264.258" width="71.7419" height="5.60484" fill="white"/>
<rect x="86.3145" y="266.5" width="71.7419" height="1.12097" fill="#FB9B56"/>
<rect x="132.274" y="217.177" width="28.0242" height="5.60484" fill="white"/>
<rect x="132.274" y="219.419" width="28.0242" height="1.12097" fill="#FB9B56"/>
<path d="M16.1709 214.05V212.724H23.1339V214.05H20.4365V221.452H18.8683V214.05H16.1709ZM25.3823 221.452H23.6948L26.7673 212.724H28.719L31.7957 221.452H30.1082L27.7772 214.514H27.709L25.3823 221.452ZM25.4377 218.03H30.04V219.3H25.4377V218.03ZM33.7852 221.452V212.724H37.1261C37.7568 212.724 38.2809 212.824 38.6985 213.023C39.119 213.219 39.4329 213.487 39.6403 213.828C39.8505 214.169 39.9556 214.555 39.9556 214.987C39.9556 215.342 39.8875 215.646 39.7511 215.899C39.6147 216.149 39.4315 216.352 39.2014 216.508C38.9713 216.665 38.7142 216.777 38.4301 216.845V216.93C38.7397 216.947 39.0366 217.043 39.3207 217.216C39.6076 217.386 39.842 217.628 40.0238 217.94C40.2056 218.253 40.2965 218.631 40.2965 219.074C40.2965 219.526 40.1872 219.932 39.9684 220.293C39.7497 220.651 39.4201 220.933 38.9798 221.141C38.5394 221.348 37.9855 221.452 37.3179 221.452H33.7852ZM35.3661 220.131H37.0664C37.6403 220.131 38.0536 220.021 38.3065 219.803C38.5622 219.581 38.69 219.297 38.69 218.95C38.69 218.692 38.6261 218.459 38.4982 218.251C38.3704 218.041 38.1886 217.876 37.9528 217.757C37.717 217.635 37.4357 217.574 37.109 217.574H35.3661V220.131ZM35.3661 216.436H36.9301C37.2028 216.436 37.4485 216.386 37.6673 216.287C37.886 216.185 38.0579 216.041 38.1829 215.856C38.3107 215.669 38.3747 215.447 38.3747 215.192C38.3747 214.854 38.2554 214.575 38.0167 214.356C37.7809 214.138 37.4301 214.028 36.9642 214.028H35.3661V216.436ZM42.5119 221.452V212.724H44.0929V220.126H47.9366V221.452H42.5119ZM50.1488 221.452V212.724H55.8249V214.05H51.7297V216.419H55.5309V217.744H51.7297V220.126H55.859V221.452H50.1488Z" fill="#CF5B23"/>
<defs>
<filter id="filter0_i_44_508" x="147" y="48" width="139" height="141" filterUnits="userSpaceOnUse" color-interpolation-filters="sRGB">
<feFlood flood-opacity="0" result="BackgroundImageFix"/>
<feBlend mode="normal" in="SourceGraphic" in2="BackgroundImageFix" result="shape"/>
<feColorMatrix in="SourceAlpha" type="matrix" values="0 0 0 0 0 0 0 0 0 0 0 0 0 0 0 0 0 0 127 0" result="hardAlpha"/>
<feOffset dy="-2"/>
<feGaussianBlur stdDeviation="3"/>
<feComposite in2="hardAlpha" operator="arithmetic" k2="-1" k3="1"/>
<feColorMatrix type="matrix" values="0 0 0 0 0.904167 0 0 0 0 0.636495 0 0 0 0 0.350365 0 0 0 0.5 0"/>
<feBlend mode="normal" in2="shape" result="effect1_innerShadow_44_508"/>
</filter>
<filter id="filter1_i_44_508" x="0" y="48" width="139" height="141" filterUnits="userSpaceOnUse" color-interpolation-filters="sRGB">
<feFlood flood-opacity="0" result="BackgroundImageFix"/>
<feBlend mode="normal" in="SourceGraphic" in2="BackgroundImageFix" result="shape"/>
<feColorMatrix in="SourceAlpha" type="matrix" values="0 0 0 0 0 0 0 0 0 0 0 0 0 0 0 0 0 0 127 0" result="hardAlpha"/>
<feOffset dy="-2"/>
<feGaussianBlur stdDeviation="3"/>
<feComposite in2="hardAlpha" operator="arithmetic" k2="-1" k3="1"/>
<feColorMatrix type="matrix" values="0 0 0 0 0.904167 0 0 0 0 0.636495 0 0 0 0 0.350365 0 0 0 0.5 0"/>
<feBlend mode="normal" in2="shape" result="effect1_innerShadow_44_508"/>
</filter>
<filter id="filter2_i_44_508" x="0" y="195" width="139" height="141" filterUnits="userSpaceOnUse" color-interpolation-filters="sRGB">
<feFlood flood-opacity="0" result="BackgroundImageFix"/>
<feBlend mode="normal" in="SourceGraphic" in2="BackgroundImageFix" result="shape"/>
<feColorMatrix in="SourceAlpha" type="matrix" values="0 0 0 0 0 0 0 0 0 0 0 0 0 0 0 0 0 0 127 0" result="hardAlpha"/>
<feOffset dy="-2"/>
<feGaussianBlur stdDeviation="3"/>
<feComposite in2="hardAlpha" operator="arithmetic" k2="-1" k3="1"/>
<feColorMatrix type="matrix" values="0 0 0 0 0.904167 0 0 0 0 0.636495 0 0 0 0 0.350365 0 0 0 0.5 0"/>
<feBlend mode="normal" in2="shape" result="effect1_innerShadow_44_508"/>
</filter>
</defs>
</svg>
