<svg width="445" height="238" viewBox="0 0 445 238" fill="none" xmlns="http://www.w3.org/2000/svg">
<g filter="url(#filter0_i_393_4505)">
<rect x="306" y="99" width="139" height="139" rx="4" fill="white"/>
</g>
<rect x="306.5" y="99.5" width="138" height="138" rx="3.5" stroke="#C6B7FA"/>
<path d="M322.171 116.05V114.724H329.134V116.05H326.436V123.452H324.868V116.05H322.171ZM331.316 123.452V114.724H336.992V116.05H332.897V118.419H336.698V119.744H332.897V122.126H337.026V123.452H331.316ZM340.766 114.724L342.688 117.92H342.756L344.687 114.724H346.489L343.8 119.088L346.532 123.452H344.699L342.756 120.277H342.688L340.745 123.452H338.921L341.678 119.088L338.955 114.724H340.766ZM348.187 116.05V114.724H355.15V116.05H352.452V123.452H350.884V116.05H348.187Z" fill="#7556DC"/>
<g filter="url(#filter1_i_393_4505)">
<rect width="139" height="139" rx="4" fill="white"/>
</g>
<rect x="0.5" y="0.5" width="138" height="138" rx="3.5" stroke="#C6B7FA"/>
<path d="M18.1354 15.7244V24.4517H16.5544V15.7244H18.1354ZM20.6874 15.7244H22.622L25.2129 22.0483H25.3152L27.9061 15.7244H29.8408V24.4517H28.3237V18.4559H28.2428L25.8308 24.4261H24.6973L22.2854 18.4431H22.2044V24.4517H20.6874V15.7244ZM33.5231 24.4517H31.8356L34.908 15.7244H36.8598L39.9365 24.4517H38.249L35.918 17.5142H35.8498L33.5231 24.4517ZM33.5785 21.0298H38.1808V22.2997H33.5785V21.0298ZM47.3624 18.5113C47.2914 18.2812 47.1934 18.0752 47.0684 17.8934C46.9462 17.7088 46.7985 17.5511 46.6252 17.4204C46.4547 17.2897 46.2587 17.1917 46.0371 17.1264C45.8155 17.0582 45.574 17.0241 45.3127 17.0241C44.8439 17.0241 44.4263 17.142 44.0598 17.3778C43.6934 17.6136 43.405 17.9602 43.1948 18.4176C42.9874 18.8721 42.8837 19.4261 42.8837 20.0795C42.8837 20.7386 42.9874 21.2968 43.1948 21.7542C43.4022 22.2116 43.6905 22.5596 44.0598 22.7983C44.4292 23.034 44.8581 23.1519 45.3468 23.1519C45.79 23.1519 46.1735 23.0667 46.4973 22.8963C46.824 22.7258 47.0755 22.4843 47.2516 22.1718C47.4277 21.8565 47.5158 21.4872 47.5158 21.0639L47.8738 21.1193H45.5044V19.8835H49.0456V20.9318C49.0456 21.6789 48.8865 22.3252 48.5684 22.8707C48.2502 23.4161 47.8127 23.8366 47.2559 24.1321C46.699 24.4247 46.0598 24.571 45.3382 24.571C44.5343 24.571 43.8283 24.3906 43.2204 24.0298C42.6152 23.6661 42.1422 23.1505 41.8013 22.4829C41.4632 21.8125 41.2942 21.017 41.2942 20.0965C41.2942 19.392 41.3936 18.7627 41.5925 18.2088C41.7942 17.6548 42.0755 17.1846 42.4363 16.7983C42.7971 16.409 43.2204 16.1136 43.7061 15.9119C44.1919 15.7073 44.7204 15.6051 45.2914 15.6051C45.7743 15.6051 46.2246 15.6761 46.6422 15.8181C47.0598 15.9573 47.4306 16.1562 47.7544 16.4147C48.0811 16.6733 48.3496 16.9801 48.5598 17.3352C48.7701 17.6903 48.9079 18.0823 48.9732 18.5113H47.3624ZM51.4144 24.4517V15.7244H57.0905V17.0497H52.9954V19.419H56.7965V20.7443H52.9954V23.1264H57.1246V24.4517H51.4144Z" fill="#7556DC"/>
<g filter="url(#filter2_i_393_4505)">
<rect x="151" width="139" height="139" rx="4" fill="white"/>
</g>
<rect x="151.5" y="0.5" width="138" height="138" rx="3.5" stroke="#C6B7FA"/>
<rect width="1.12097" height="93.0403" transform="matrix(-1 0 0 1 198.081 45.9597)" fill="#F4F3FF" style="mix-blend-mode:multiply"/>
<rect width="1.12097" height="139" transform="matrix(-1 0 0 1 244.04 0)" fill="#F4F3FF" style="mix-blend-mode:multiply"/>
<rect width="1.12097" height="139" transform="matrix(4.57599e-08 1 1 -4.17546e-08 151 91.9193)" fill="#F4F3FF" style="mix-blend-mode:multiply"/>
<rect width="1.12097" height="139" transform="matrix(4.57599e-08 1 1 -4.17546e-08 151 45.9597)" fill="#F4F3FF" style="mix-blend-mode:multiply"/>
<rect x="203.685" y="52.6854" width="33.629" height="33.629" rx="2" fill="#D9D6FE"/>
<rect x="249.645" y="6.72583" width="33.629" height="33.629" rx="2" fill="#F4F3FF"/>
<path d="M326.057 63.9259V72.6532H324.651L320.538 66.7086H320.466V72.6532H318.885V63.9259H320.3L324.408 69.8748H324.484V63.9259H326.057ZM329.74 72.6532H328.053L331.125 63.9259H333.077L336.154 72.6532H334.466L332.135 65.7157H332.067L329.74 72.6532ZM329.796 69.2313H334.398V70.5012H329.796V69.2313ZM338.143 63.9259H340.078L342.669 70.2498H342.771L345.362 63.9259H347.296V72.6532H345.779V66.6575H345.698L343.287 72.6276H342.153L339.741 66.6447H339.66V72.6532H338.143V63.9259ZM349.858 72.6532V63.9259H355.534V65.2512H351.439V67.6205H355.24V68.9458H351.439V71.3279H355.568V72.6532H349.858Z" fill="#7556DC"/>
<path d="M326.355 19.79H324.761C324.716 19.5286 324.632 19.2971 324.51 19.0954C324.388 18.8908 324.236 18.7175 324.054 18.5755C323.872 18.4334 323.665 18.3269 323.432 18.2559C323.202 18.182 322.953 18.1451 322.686 18.1451C322.212 18.1451 321.791 18.2644 321.425 18.503C321.058 18.7388 320.771 19.0854 320.564 19.5428C320.357 19.9973 320.253 20.5527 320.253 21.209C320.253 21.8766 320.357 22.4391 320.564 22.8965C320.774 23.351 321.061 23.6948 321.425 23.9277C321.791 24.1579 322.21 24.2729 322.682 24.2729C322.943 24.2729 323.188 24.2388 323.415 24.1706C323.645 24.0996 323.851 23.9959 324.033 23.8596C324.217 23.7232 324.372 23.5556 324.497 23.3567C324.625 23.1579 324.713 22.9306 324.761 22.6749L326.355 22.6834C326.295 23.0982 326.166 23.4874 325.967 23.851C325.771 24.2147 325.514 24.5357 325.196 24.8141C324.878 25.0897 324.506 25.3056 324.08 25.4618C323.653 25.6152 323.18 25.692 322.661 25.692C321.893 25.692 321.209 25.5144 320.607 25.1593C320.004 24.8042 319.53 24.2914 319.183 23.6209C318.837 22.9505 318.663 22.1465 318.663 21.209C318.663 20.2687 318.838 19.4647 319.188 18.7971C319.537 18.1266 320.013 17.6138 320.615 17.2587C321.217 16.9036 321.899 16.726 322.661 16.726C323.146 16.726 323.598 16.7942 324.016 16.9306C324.433 17.0669 324.805 17.2672 325.132 17.5314C325.459 17.7928 325.727 18.1138 325.938 18.4945C326.151 18.8723 326.29 19.3042 326.355 19.79ZM336.441 21.209C336.441 22.1493 336.265 22.9547 335.913 23.6252C335.563 24.2928 335.086 24.8042 334.481 25.1593C333.879 25.5144 333.195 25.692 332.431 25.692C331.667 25.692 330.982 25.5144 330.377 25.1593C329.775 24.8013 329.298 24.2885 328.945 23.6209C328.596 22.9505 328.421 22.1465 328.421 21.209C328.421 20.2687 328.596 19.4647 328.945 18.7971C329.298 18.1266 329.775 17.6138 330.377 17.2587C330.982 16.9036 331.667 16.726 332.431 16.726C333.195 16.726 333.879 16.9036 334.481 17.2587C335.086 17.6138 335.563 18.1266 335.913 18.7971C336.265 19.4647 336.441 20.2687 336.441 21.209ZM334.852 21.209C334.852 20.5471 334.748 19.9888 334.541 19.5343C334.336 19.0769 334.052 18.7317 333.688 18.4988C333.325 18.263 332.906 18.1451 332.431 18.1451C331.957 18.1451 331.538 18.263 331.174 18.4988C330.811 18.7317 330.525 19.0769 330.318 19.5343C330.113 19.9888 330.011 20.5471 330.011 21.209C330.011 21.8709 330.113 22.4306 330.318 22.888C330.525 23.3425 330.811 23.6877 331.174 23.9235C331.538 24.1564 331.957 24.2729 332.431 24.2729C332.906 24.2729 333.325 24.1564 333.688 23.9235C334.052 23.6877 334.336 23.3425 334.541 22.888C334.748 22.4306 334.852 21.8709 334.852 21.209ZM338.776 16.8454H340.711L343.301 23.1692H343.404L345.995 16.8454H347.929V25.5726H346.412V19.5769H346.331L343.919 25.5471H342.786L340.374 19.5641H340.293V25.5726H338.776V16.8454ZM350.491 25.5726V16.8454H353.764C354.434 16.8454 354.997 16.9704 355.451 17.2204C355.909 17.4704 356.254 17.8141 356.487 18.2516C356.722 18.6863 356.84 19.1806 356.84 19.7346C356.84 20.2942 356.722 20.7914 356.487 21.226C356.251 21.6607 355.903 22.003 355.443 22.253C354.982 22.5002 354.416 22.6238 353.742 22.6238H351.573V21.3241H353.529C353.921 21.3241 354.242 21.2559 354.492 21.1195C354.742 20.9831 354.927 20.7956 355.046 20.557C355.168 20.3184 355.23 20.0442 355.23 19.7346C355.23 19.4249 355.168 19.1522 355.046 18.9164C354.927 18.6806 354.741 18.4973 354.488 18.3667C354.238 18.2331 353.916 18.1664 353.521 18.1664H352.072V25.5726H350.491ZM359.202 25.5726H357.514L360.587 16.8454H362.538L365.615 25.5726H363.927L361.597 18.6351H361.528L359.202 25.5726ZM359.257 22.1508H363.859V23.4206H359.257V22.1508ZM374.776 16.8454V25.5726H373.37L369.258 19.628H369.185V25.5726H367.604V16.8454H369.019L373.127 22.7942H373.204V16.8454H374.776ZM376.742 16.8454H378.528L380.663 20.7062H380.748L382.883 16.8454H384.669L381.494 22.317V25.5726H379.917V22.317L376.742 16.8454Z" fill="#7556DC"/>
<rect x="237.314" y="67.2581" width="71.7419" height="5.60484" fill="white"/>
<rect x="237.314" y="69.5" width="71.7419" height="1.12097" fill="#A690F4"/>
<rect x="283.274" y="20.1774" width="28.0242" height="5.60484" fill="white"/>
<rect x="283.274" y="22.4193" width="28.0242" height="1.12097" fill="#A690F4"/>
<path d="M167.171 17.0497V15.7244H174.134V17.0497H171.437V24.4517H169.868V17.0497H167.171ZM176.382 24.4517H174.695L177.767 15.7244H179.719L182.796 24.4517H181.108L178.777 17.5142H178.709L176.382 24.4517ZM176.438 21.0298H181.04V22.2997H176.438V21.0298ZM184.785 24.4517V15.7244H188.126C188.757 15.7244 189.281 15.8238 189.699 16.0227C190.119 16.2187 190.433 16.4872 190.64 16.8281C190.851 17.169 190.956 17.5554 190.956 17.9872C190.956 18.3423 190.887 18.6463 190.751 18.8991C190.615 19.1491 190.431 19.3522 190.201 19.5085C189.971 19.6647 189.714 19.7769 189.43 19.8451V19.9304C189.74 19.9474 190.037 20.0426 190.321 20.2159C190.608 20.3863 190.842 20.6278 191.024 20.9403C191.206 21.2528 191.297 21.6306 191.297 22.0738C191.297 22.5255 191.187 22.9318 190.968 23.2926C190.75 23.6505 190.42 23.9332 189.98 24.1406C189.539 24.348 188.985 24.4517 188.318 24.4517H184.785ZM186.366 23.1306H188.066C188.64 23.1306 189.054 23.0213 189.306 22.8025C189.562 22.5809 189.69 22.2968 189.69 21.9502C189.69 21.6917 189.626 21.4588 189.498 21.2514C189.37 21.0411 189.189 20.8764 188.953 20.7571C188.717 20.6349 188.436 20.5738 188.109 20.5738H186.366V23.1306ZM186.366 19.436H187.93C188.203 19.436 188.449 19.3863 188.667 19.2869C188.886 19.1846 189.058 19.0411 189.183 18.8565C189.311 18.669 189.375 18.4474 189.375 18.1917C189.375 17.8536 189.255 17.5752 189.017 17.3565C188.781 17.1377 188.43 17.0284 187.964 17.0284H186.366V19.436ZM193.512 24.4517V15.7244H195.093V23.1264H198.937V24.4517H193.512ZM201.149 24.4517V15.7244H206.825V17.0497H202.73V19.419H206.531V20.7443H202.73V23.1264H206.859V24.4517H201.149Z" fill="#7556DC"/>
<path d="M1.40909 170V158.364H5.47727C6.28788 158.364 6.95644 158.504 7.48295 158.784C8.00947 159.061 8.40152 159.434 8.65909 159.903C8.91667 160.369 9.04545 160.886 9.04545 161.455C9.04545 161.955 8.95644 162.367 8.77841 162.693C8.60417 163.019 8.37311 163.277 8.08523 163.466C7.80114 163.655 7.49242 163.795 7.15909 163.886V164C7.51515 164.023 7.87311 164.148 8.23295 164.375C8.5928 164.602 8.89394 164.928 9.13636 165.352C9.37879 165.777 9.5 166.295 9.5 166.909C9.5 167.492 9.36742 168.017 9.10227 168.483C8.83712 168.949 8.41856 169.318 7.84659 169.591C7.27462 169.864 6.5303 170 5.61364 170H1.40909ZM2.81818 168.75H5.61364C6.53409 168.75 7.1875 168.572 7.57386 168.216C7.96402 167.856 8.15909 167.42 8.15909 166.909C8.15909 166.515 8.05871 166.152 7.85795 165.818C7.6572 165.481 7.37121 165.212 7 165.011C6.62879 164.807 6.18939 164.705 5.68182 164.705H2.81818V168.75ZM2.81818 163.477H5.43182C5.85606 163.477 6.23864 163.394 6.57955 163.227C6.92424 163.061 7.19697 162.826 7.39773 162.523C7.60227 162.22 7.70455 161.864 7.70455 161.455C7.70455 160.943 7.52652 160.509 7.17045 160.153C6.81439 159.794 6.25 159.614 5.47727 159.614H2.81818V163.477ZM12.9744 158.364V170H11.6335V158.364H12.9744ZM18.9759 170.182C18.188 170.182 17.4967 169.994 16.902 169.619C16.3111 169.244 15.849 168.72 15.5156 168.045C15.1861 167.371 15.0213 166.583 15.0213 165.682C15.0213 164.773 15.1861 163.979 15.5156 163.301C15.849 162.623 16.3111 162.097 16.902 161.722C17.4967 161.347 18.188 161.159 18.9759 161.159C19.7637 161.159 20.4531 161.347 21.044 161.722C21.6387 162.097 22.1009 162.623 22.4304 163.301C22.7637 163.979 22.9304 164.773 22.9304 165.682C22.9304 166.583 22.7637 167.371 22.4304 168.045C22.1009 168.72 21.6387 169.244 21.044 169.619C20.4531 169.994 19.7637 170.182 18.9759 170.182ZM18.9759 168.977C19.5743 168.977 20.0668 168.824 20.4531 168.517C20.8395 168.21 21.1255 167.807 21.3111 167.307C21.4967 166.807 21.5895 166.265 21.5895 165.682C21.5895 165.098 21.4967 164.555 21.3111 164.051C21.1255 163.547 20.8395 163.14 20.4531 162.83C20.0668 162.519 19.5743 162.364 18.9759 162.364C18.3774 162.364 17.8849 162.519 17.4986 162.83C17.1122 163.14 16.8262 163.547 16.6406 164.051C16.455 164.555 16.3622 165.098 16.3622 165.682C16.3622 166.265 16.455 166.807 16.6406 167.307C16.8262 167.807 17.1122 168.21 17.4986 168.517C17.8849 168.824 18.3774 168.977 18.9759 168.977ZM28.5227 170.182C27.7045 170.182 27 169.989 26.4091 169.602C25.8182 169.216 25.3636 168.684 25.0455 168.006C24.7273 167.328 24.5682 166.553 24.5682 165.682C24.5682 164.795 24.7311 164.013 25.0568 163.335C25.3864 162.653 25.8447 162.121 26.4318 161.739C27.0227 161.352 27.7121 161.159 28.5 161.159C29.1136 161.159 29.6667 161.273 30.1591 161.5C30.6515 161.727 31.0549 162.045 31.3693 162.455C31.6837 162.864 31.8788 163.341 31.9545 163.886H30.6136C30.5114 163.489 30.2841 163.136 29.9318 162.83C29.5833 162.519 29.1136 162.364 28.5227 162.364C28 162.364 27.5417 162.5 27.1477 162.773C26.7576 163.042 26.4527 163.422 26.233 163.915C26.017 164.403 25.9091 164.977 25.9091 165.636C25.9091 166.311 26.0152 166.898 26.2273 167.398C26.4432 167.898 26.7462 168.286 27.1364 168.562C27.5303 168.839 27.9924 168.977 28.5227 168.977C28.8712 168.977 29.1875 168.917 29.4716 168.795C29.7557 168.674 29.9962 168.5 30.1932 168.273C30.3902 168.045 30.5303 167.773 30.6136 167.455H31.9545C31.8788 167.97 31.6913 168.434 31.392 168.847C31.0966 169.256 30.7045 169.581 30.2159 169.824C29.7311 170.062 29.1667 170.182 28.5227 170.182ZM35.1648 166.818L35.142 165.159H35.4148L39.233 161.273H40.892L36.8239 165.386H36.7102L35.1648 166.818ZM33.9148 170V158.364H35.2557V170H33.9148ZM39.4602 170L36.0511 165.682L37.0057 164.75L41.1648 170H39.4602ZM47.2997 170V158.364H51.2315C52.1444 158.364 52.8906 158.528 53.4702 158.858C54.0535 159.184 54.4853 159.625 54.7656 160.182C55.0459 160.739 55.1861 161.36 55.1861 162.045C55.1861 162.731 55.0459 163.354 54.7656 163.915C54.4891 164.475 54.0611 164.922 53.4815 165.256C52.902 165.585 52.1596 165.75 51.2543 165.75H48.4361V164.5H51.2088C51.8338 164.5 52.3357 164.392 52.7145 164.176C53.0933 163.96 53.3679 163.669 53.5384 163.301C53.7126 162.93 53.7997 162.511 53.7997 162.045C53.7997 161.58 53.7126 161.163 53.5384 160.795C53.3679 160.428 53.0914 160.14 52.7088 159.932C52.3262 159.72 51.8187 159.614 51.1861 159.614H48.7088V170H47.2997ZM57.2741 170V161.273H58.5696V162.591H58.6605C58.8196 162.159 59.1075 161.809 59.5241 161.54C59.9408 161.271 60.4105 161.136 60.9332 161.136C61.0317 161.136 61.1548 161.138 61.3026 161.142C61.4503 161.146 61.562 161.152 61.6378 161.159V162.523C61.5923 162.511 61.4882 162.494 61.3253 162.472C61.1662 162.445 60.9976 162.432 60.8196 162.432C60.3954 162.432 60.0166 162.521 59.6832 162.699C59.3537 162.873 59.0923 163.116 58.8991 163.426C58.7098 163.733 58.6151 164.083 58.6151 164.477V170H57.2741ZM66.5071 170.182C65.7192 170.182 65.0279 169.994 64.4332 169.619C63.8423 169.244 63.3802 168.72 63.0469 168.045C62.7173 167.371 62.5526 166.583 62.5526 165.682C62.5526 164.773 62.7173 163.979 63.0469 163.301C63.3802 162.623 63.8423 162.097 64.4332 161.722C65.0279 161.347 65.7192 161.159 66.5071 161.159C67.295 161.159 67.9844 161.347 68.5753 161.722C69.17 162.097 69.6321 162.623 69.9616 163.301C70.295 163.979 70.4616 164.773 70.4616 165.682C70.4616 166.583 70.295 167.371 69.9616 168.045C69.6321 168.72 69.17 169.244 68.5753 169.619C67.9844 169.994 67.295 170.182 66.5071 170.182ZM66.5071 168.977C67.1056 168.977 67.598 168.824 67.9844 168.517C68.3707 168.21 68.6567 167.807 68.8423 167.307C69.0279 166.807 69.1207 166.265 69.1207 165.682C69.1207 165.098 69.0279 164.555 68.8423 164.051C68.6567 163.547 68.3707 163.14 67.9844 162.83C67.598 162.519 67.1056 162.364 66.5071 162.364C65.9086 162.364 65.4162 162.519 65.0298 162.83C64.6435 163.14 64.3575 163.547 64.1719 164.051C63.9863 164.555 63.8935 165.098 63.8935 165.682C63.8935 166.265 63.9863 166.807 64.1719 167.307C64.3575 167.807 64.6435 168.21 65.0298 168.517C65.4162 168.824 65.9086 168.977 66.5071 168.977ZM76.304 161.273V162.409H71.7812V161.273H76.304ZM73.0994 159.182H74.4403V167.5C74.4403 167.879 74.4953 168.163 74.6051 168.352C74.7188 168.538 74.8627 168.663 75.0369 168.727C75.215 168.788 75.4025 168.818 75.5994 168.818C75.7472 168.818 75.8684 168.811 75.9631 168.795C76.0578 168.777 76.1335 168.761 76.1903 168.75L76.4631 169.955C76.3722 169.989 76.2453 170.023 76.0824 170.057C75.9195 170.095 75.7131 170.114 75.4631 170.114C75.0843 170.114 74.7131 170.032 74.3494 169.869C73.9896 169.706 73.6903 169.458 73.4517 169.125C73.2169 168.792 73.0994 168.371 73.0994 167.864V159.182ZM81.7727 170.182C80.9848 170.182 80.2936 169.994 79.6989 169.619C79.108 169.244 78.6458 168.72 78.3125 168.045C77.983 167.371 77.8182 166.583 77.8182 165.682C77.8182 164.773 77.983 163.979 78.3125 163.301C78.6458 162.623 79.108 162.097 79.6989 161.722C80.2936 161.347 80.9848 161.159 81.7727 161.159C82.5606 161.159 83.25 161.347 83.8409 161.722C84.4356 162.097 84.8977 162.623 85.2273 163.301C85.5606 163.979 85.7273 164.773 85.7273 165.682C85.7273 166.583 85.5606 167.371 85.2273 168.045C84.8977 168.72 84.4356 169.244 83.8409 169.619C83.25 169.994 82.5606 170.182 81.7727 170.182ZM81.7727 168.977C82.3712 168.977 82.8636 168.824 83.25 168.517C83.6364 168.21 83.9223 167.807 84.108 167.307C84.2936 166.807 84.3864 166.265 84.3864 165.682C84.3864 165.098 84.2936 164.555 84.108 164.051C83.9223 163.547 83.6364 163.14 83.25 162.83C82.8636 162.519 82.3712 162.364 81.7727 162.364C81.1742 162.364 80.6818 162.519 80.2955 162.83C79.9091 163.14 79.6231 163.547 79.4375 164.051C79.2519 164.555 79.1591 165.098 79.1591 165.682C79.1591 166.265 79.2519 166.807 79.4375 167.307C79.6231 167.807 79.9091 168.21 80.2955 168.517C80.6818 168.824 81.1742 168.977 81.7727 168.977ZM91.3196 170.182C90.5014 170.182 89.7969 169.989 89.206 169.602C88.6151 169.216 88.1605 168.684 87.8423 168.006C87.5241 167.328 87.3651 166.553 87.3651 165.682C87.3651 164.795 87.5279 164.013 87.8537 163.335C88.1832 162.653 88.6416 162.121 89.2287 161.739C89.8196 161.352 90.509 161.159 91.2969 161.159C91.9105 161.159 92.4635 161.273 92.956 161.5C93.4484 161.727 93.8518 162.045 94.1662 162.455C94.4806 162.864 94.6757 163.341 94.7514 163.886H93.4105C93.3082 163.489 93.081 163.136 92.7287 162.83C92.3802 162.519 91.9105 162.364 91.3196 162.364C90.7969 162.364 90.3385 162.5 89.9446 162.773C89.5545 163.042 89.2495 163.422 89.0298 163.915C88.8139 164.403 88.706 164.977 88.706 165.636C88.706 166.311 88.812 166.898 89.0241 167.398C89.2401 167.898 89.5431 168.286 89.9332 168.562C90.3272 168.839 90.7893 168.977 91.3196 168.977C91.6681 168.977 91.9844 168.917 92.2685 168.795C92.5526 168.674 92.7931 168.5 92.9901 168.273C93.187 168.045 93.3272 167.773 93.4105 167.455H94.7514C94.6757 167.97 94.4882 168.434 94.1889 168.847C93.8935 169.256 93.5014 169.581 93.0128 169.824C92.5279 170.062 91.9635 170.182 91.3196 170.182ZM100.257 170.182C99.4692 170.182 98.7779 169.994 98.1832 169.619C97.5923 169.244 97.1302 168.72 96.7969 168.045C96.4673 167.371 96.3026 166.583 96.3026 165.682C96.3026 164.773 96.4673 163.979 96.7969 163.301C97.1302 162.623 97.5923 162.097 98.1832 161.722C98.7779 161.347 99.4692 161.159 100.257 161.159C101.045 161.159 101.734 161.347 102.325 161.722C102.92 162.097 103.382 162.623 103.712 163.301C104.045 163.979 104.212 164.773 104.212 165.682C104.212 166.583 104.045 167.371 103.712 168.045C103.382 168.72 102.92 169.244 102.325 169.619C101.734 169.994 101.045 170.182 100.257 170.182ZM100.257 168.977C100.856 168.977 101.348 168.824 101.734 168.517C102.121 168.21 102.407 167.807 102.592 167.307C102.778 166.807 102.871 166.265 102.871 165.682C102.871 165.098 102.778 164.555 102.592 164.051C102.407 163.547 102.121 163.14 101.734 162.83C101.348 162.519 100.856 162.364 100.257 162.364C99.6586 162.364 99.1662 162.519 98.7798 162.83C98.3935 163.14 98.1075 163.547 97.9219 164.051C97.7363 164.555 97.6435 165.098 97.6435 165.682C97.6435 166.265 97.7363 166.807 97.9219 167.307C98.1075 167.807 98.3935 168.21 98.7798 168.517C99.1662 168.824 99.6586 168.977 100.257 168.977ZM107.599 158.364V170H106.259V158.364H107.599ZM114.339 170V158.364H116.76V162.739H116.834C116.94 162.504 117.093 162.265 117.294 162.023C117.499 161.777 117.764 161.572 118.089 161.409C118.419 161.242 118.828 161.159 119.317 161.159C119.953 161.159 120.54 161.326 121.078 161.659C121.616 161.989 122.046 162.487 122.368 163.153C122.69 163.816 122.851 164.648 122.851 165.648C122.851 166.621 122.694 167.443 122.379 168.114C122.069 168.78 121.644 169.286 121.107 169.631C120.572 169.972 119.974 170.142 119.311 170.142C118.841 170.142 118.442 170.064 118.112 169.909C117.786 169.754 117.519 169.559 117.311 169.324C117.103 169.085 116.944 168.845 116.834 168.602H116.726V170H114.339ZM116.709 165.636C116.709 166.155 116.781 166.608 116.925 166.994C117.069 167.381 117.277 167.682 117.55 167.898C117.822 168.11 118.154 168.216 118.544 168.216C118.938 168.216 119.271 168.108 119.544 167.892C119.817 167.672 120.023 167.369 120.163 166.983C120.307 166.593 120.379 166.144 120.379 165.636C120.379 165.133 120.309 164.689 120.169 164.307C120.029 163.924 119.822 163.625 119.55 163.409C119.277 163.193 118.942 163.085 118.544 163.085C118.15 163.085 117.817 163.189 117.544 163.398C117.275 163.606 117.069 163.902 116.925 164.284C116.781 164.667 116.709 165.117 116.709 165.636ZM126.886 158.364V170H124.466V158.364H126.886ZM132.768 170.17C131.886 170.17 131.123 169.983 130.479 169.608C129.839 169.229 129.344 168.703 128.996 168.028C128.647 167.35 128.473 166.564 128.473 165.67C128.473 164.769 128.647 163.981 128.996 163.307C129.344 162.629 129.839 162.102 130.479 161.727C131.123 161.348 131.886 161.159 132.768 161.159C133.651 161.159 134.412 161.348 135.053 161.727C135.696 162.102 136.193 162.629 136.541 163.307C136.89 163.981 137.064 164.769 137.064 165.67C137.064 166.564 136.89 167.35 136.541 168.028C136.193 168.703 135.696 169.229 135.053 169.608C134.412 169.983 133.651 170.17 132.768 170.17ZM132.78 168.295C133.181 168.295 133.517 168.182 133.786 167.955C134.054 167.723 134.257 167.409 134.393 167.011C134.534 166.614 134.604 166.161 134.604 165.653C134.604 165.146 134.534 164.693 134.393 164.295C134.257 163.898 134.054 163.583 133.786 163.352C133.517 163.121 133.181 163.006 132.78 163.006C132.375 163.006 132.034 163.121 131.757 163.352C131.484 163.583 131.278 163.898 131.138 164.295C131.001 164.693 130.933 165.146 130.933 165.653C130.933 166.161 131.001 166.614 131.138 167.011C131.278 167.409 131.484 167.723 131.757 167.955C132.034 168.182 132.375 168.295 132.78 168.295ZM142.581 170.17C141.687 170.17 140.918 169.981 140.274 169.602C139.634 169.22 139.142 168.689 138.797 168.011C138.456 167.333 138.286 166.553 138.286 165.67C138.286 164.777 138.458 163.992 138.803 163.318C139.151 162.64 139.645 162.112 140.286 161.733C140.926 161.35 141.687 161.159 142.57 161.159C143.331 161.159 143.998 161.297 144.57 161.574C145.142 161.85 145.594 162.239 145.928 162.739C146.261 163.239 146.445 163.826 146.479 164.5H144.195C144.13 164.064 143.96 163.714 143.683 163.449C143.411 163.18 143.053 163.045 142.609 163.045C142.234 163.045 141.907 163.148 141.626 163.352C141.35 163.553 141.134 163.847 140.979 164.233C140.823 164.619 140.746 165.087 140.746 165.636C140.746 166.193 140.821 166.667 140.973 167.057C141.128 167.447 141.346 167.744 141.626 167.949C141.907 168.153 142.234 168.256 142.609 168.256C142.886 168.256 143.134 168.199 143.354 168.085C143.577 167.972 143.761 167.807 143.905 167.591C144.053 167.371 144.149 167.108 144.195 166.801H146.479C146.441 167.468 146.259 168.055 145.933 168.562C145.611 169.066 145.166 169.46 144.598 169.744C144.03 170.028 143.357 170.17 142.581 170.17ZM150.222 167.489L150.227 164.585H150.58L153.375 161.273H156.153L152.398 165.659H151.824L150.222 167.489ZM148.028 170V158.364H150.449V170H148.028ZM153.483 170L150.915 166.199L152.528 164.489L156.318 170H153.483ZM164.602 163.761L162.386 163.898C162.348 163.708 162.267 163.538 162.142 163.386C162.017 163.231 161.852 163.108 161.648 163.017C161.447 162.922 161.206 162.875 160.926 162.875C160.551 162.875 160.235 162.955 159.977 163.114C159.72 163.269 159.591 163.477 159.591 163.739C159.591 163.947 159.674 164.123 159.841 164.267C160.008 164.411 160.294 164.527 160.699 164.614L162.278 164.932C163.127 165.106 163.759 165.386 164.176 165.773C164.593 166.159 164.801 166.667 164.801 167.295C164.801 167.867 164.633 168.369 164.295 168.801C163.962 169.233 163.504 169.57 162.92 169.812C162.341 170.051 161.672 170.17 160.915 170.17C159.759 170.17 158.839 169.93 158.153 169.449C157.472 168.964 157.072 168.305 156.955 167.472L159.335 167.347C159.407 167.699 159.581 167.968 159.858 168.153C160.134 168.335 160.489 168.426 160.92 168.426C161.345 168.426 161.686 168.345 161.943 168.182C162.205 168.015 162.337 167.801 162.341 167.54C162.337 167.32 162.244 167.14 162.062 167C161.881 166.856 161.6 166.746 161.222 166.67L159.71 166.369C158.858 166.199 158.223 165.903 157.807 165.483C157.394 165.062 157.188 164.527 157.188 163.875C157.188 163.314 157.339 162.831 157.642 162.426C157.949 162.021 158.379 161.708 158.932 161.489C159.489 161.269 160.14 161.159 160.886 161.159C161.989 161.159 162.856 161.392 163.489 161.858C164.125 162.324 164.496 162.958 164.602 163.761ZM173.655 170.205C173.102 170.205 172.6 170.1 172.149 169.892C171.698 169.68 171.34 169.375 171.075 168.977C170.81 168.576 170.678 168.091 170.678 167.523C170.678 167.023 170.776 166.617 170.973 166.307C171.17 165.992 171.433 165.746 171.763 165.568C172.092 165.39 172.456 165.258 172.854 165.17C173.255 165.08 173.659 165.008 174.064 164.955C174.594 164.886 175.024 164.835 175.354 164.801C175.687 164.763 175.929 164.701 176.081 164.614C176.236 164.527 176.314 164.375 176.314 164.159V164.114C176.314 163.553 176.161 163.117 175.854 162.807C175.551 162.496 175.09 162.341 174.473 162.341C173.833 162.341 173.331 162.481 172.967 162.761C172.604 163.042 172.348 163.341 172.2 163.659L170.928 163.205C171.155 162.674 171.458 162.261 171.837 161.966C172.219 161.667 172.636 161.458 173.087 161.341C173.541 161.22 173.988 161.159 174.428 161.159C174.708 161.159 175.03 161.193 175.393 161.261C175.761 161.326 176.115 161.46 176.456 161.665C176.801 161.869 177.087 162.178 177.314 162.591C177.541 163.004 177.655 163.557 177.655 164.25V170H176.314V168.818H176.246C176.155 169.008 176.003 169.21 175.791 169.426C175.579 169.642 175.297 169.826 174.945 169.977C174.592 170.129 174.162 170.205 173.655 170.205ZM173.859 169C174.39 169 174.837 168.896 175.2 168.688C175.568 168.479 175.844 168.21 176.03 167.881C176.219 167.551 176.314 167.205 176.314 166.841V165.614C176.257 165.682 176.132 165.744 175.939 165.801C175.75 165.854 175.53 165.902 175.28 165.943C175.034 165.981 174.793 166.015 174.558 166.045C174.327 166.072 174.14 166.095 173.996 166.114C173.647 166.159 173.321 166.233 173.018 166.335C172.719 166.434 172.477 166.583 172.291 166.784C172.109 166.981 172.018 167.25 172.018 167.591C172.018 168.057 172.191 168.409 172.536 168.648C172.884 168.883 173.325 169 173.859 169ZM181.443 158.364V170H180.102V158.364H181.443ZM185.24 158.364V170H183.899V158.364H185.24ZM191.241 170.182C190.454 170.182 189.762 169.994 189.168 169.619C188.577 169.244 188.115 168.72 187.781 168.045C187.452 167.371 187.287 166.583 187.287 165.682C187.287 164.773 187.452 163.979 187.781 163.301C188.115 162.623 188.577 162.097 189.168 161.722C189.762 161.347 190.454 161.159 191.241 161.159C192.029 161.159 192.719 161.347 193.31 161.722C193.904 162.097 194.366 162.623 194.696 163.301C195.029 163.979 195.196 164.773 195.196 165.682C195.196 166.583 195.029 167.371 194.696 168.045C194.366 168.72 193.904 169.244 193.31 169.619C192.719 169.994 192.029 170.182 191.241 170.182ZM191.241 168.977C191.84 168.977 192.332 168.824 192.719 168.517C193.105 168.21 193.391 167.807 193.577 167.307C193.762 166.807 193.855 166.265 193.855 165.682C193.855 165.098 193.762 164.555 193.577 164.051C193.391 163.547 193.105 163.14 192.719 162.83C192.332 162.519 191.84 162.364 191.241 162.364C190.643 162.364 190.151 162.519 189.764 162.83C189.378 163.14 189.092 163.547 188.906 164.051C188.721 164.555 188.628 165.098 188.628 165.682C188.628 166.265 188.721 166.807 188.906 167.307C189.092 167.807 189.378 168.21 189.764 168.517C190.151 168.824 190.643 168.977 191.241 168.977ZM198.923 170L196.264 161.273H197.673L199.56 167.955H199.651L201.514 161.273H202.946L204.787 167.932H204.878L206.764 161.273H208.173L205.514 170H204.196L202.287 163.295H202.151L200.241 170H198.923ZM4.88636 189.182C4.04545 189.182 3.32008 188.996 2.71023 188.625C2.10417 188.25 1.63636 187.727 1.30682 187.057C0.981061 186.383 0.818182 185.598 0.818182 184.705C0.818182 183.811 0.981061 183.023 1.30682 182.341C1.63636 181.655 2.0947 181.121 2.68182 180.739C3.27273 180.352 3.96212 180.159 4.75 180.159C5.20455 180.159 5.65341 180.235 6.09659 180.386C6.53977 180.538 6.94318 180.784 7.30682 181.125C7.67045 181.462 7.96023 181.909 8.17614 182.466C8.39205 183.023 8.5 183.708 8.5 184.523V185.091H1.77273V183.932H7.13636C7.13636 183.439 7.03788 183 6.84091 182.614C6.64773 182.227 6.37121 181.922 6.01136 181.699C5.6553 181.475 5.23485 181.364 4.75 181.364C4.21591 181.364 3.75379 181.496 3.36364 181.761C2.97727 182.023 2.67992 182.364 2.47159 182.784C2.26326 183.205 2.15909 183.655 2.15909 184.136V184.909C2.15909 185.568 2.27273 186.127 2.5 186.585C2.73106 187.04 3.05114 187.386 3.46023 187.625C3.86932 187.86 4.3447 187.977 4.88636 187.977C5.23864 187.977 5.55682 187.928 5.84091 187.83C6.12879 187.727 6.37689 187.576 6.58523 187.375C6.79356 187.17 6.95455 186.917 7.06818 186.614L8.36364 186.977C8.22727 187.417 7.99811 187.803 7.67614 188.136C7.35417 188.466 6.95644 188.723 6.48295 188.909C6.00947 189.091 5.47727 189.182 4.88636 189.182ZM14.4261 180.273V181.409H9.72159V180.273H14.4261ZM11.1307 189V179.068C11.1307 178.568 11.2481 178.152 11.483 177.818C11.7178 177.485 12.0227 177.235 12.3977 177.068C12.7727 176.902 13.1686 176.818 13.5852 176.818C13.9148 176.818 14.1837 176.845 14.392 176.898C14.6004 176.951 14.7557 177 14.858 177.045L14.4716 178.205C14.4034 178.182 14.3087 178.153 14.1875 178.119C14.0701 178.085 13.9148 178.068 13.7216 178.068C13.2784 178.068 12.9583 178.18 12.7614 178.403C12.5682 178.627 12.4716 178.955 12.4716 179.386V189H11.1307ZM20.1918 180.273V181.409H15.4872V180.273H20.1918ZM16.8963 189V179.068C16.8963 178.568 17.0137 178.152 17.2486 177.818C17.4834 177.485 17.7884 177.235 18.1634 177.068C18.5384 176.902 18.9342 176.818 19.3509 176.818C19.6804 176.818 19.9493 176.845 20.1577 176.898C20.366 176.951 20.5213 177 20.6236 177.045L20.2372 178.205C20.169 178.182 20.0743 178.153 19.9531 178.119C19.8357 178.085 19.6804 178.068 19.4872 178.068C19.044 178.068 18.724 178.18 18.527 178.403C18.3338 178.627 18.2372 178.955 18.2372 179.386V189H16.8963ZM25.2571 189.182C24.4692 189.182 23.7779 188.994 23.1832 188.619C22.5923 188.244 22.1302 187.72 21.7969 187.045C21.4673 186.371 21.3026 185.583 21.3026 184.682C21.3026 183.773 21.4673 182.979 21.7969 182.301C22.1302 181.623 22.5923 181.097 23.1832 180.722C23.7779 180.347 24.4692 180.159 25.2571 180.159C26.045 180.159 26.7344 180.347 27.3253 180.722C27.92 181.097 28.3821 181.623 28.7116 182.301C29.045 182.979 29.2116 183.773 29.2116 184.682C29.2116 185.583 29.045 186.371 28.7116 187.045C28.3821 187.72 27.92 188.244 27.3253 188.619C26.7344 188.994 26.045 189.182 25.2571 189.182ZM25.2571 187.977C25.8556 187.977 26.348 187.824 26.7344 187.517C27.1207 187.21 27.4067 186.807 27.5923 186.307C27.7779 185.807 27.8707 185.265 27.8707 184.682C27.8707 184.098 27.7779 183.555 27.5923 183.051C27.4067 182.547 27.1207 182.14 26.7344 181.83C26.348 181.519 25.8556 181.364 25.2571 181.364C24.6586 181.364 24.1662 181.519 23.7798 181.83C23.3935 182.14 23.1075 182.547 22.9219 183.051C22.7363 183.555 22.6435 184.098 22.6435 184.682C22.6435 185.265 22.7363 185.807 22.9219 186.307C23.1075 186.807 23.3935 187.21 23.7798 187.517C24.1662 187.824 24.6586 187.977 25.2571 187.977ZM31.2585 189V180.273H32.554V181.591H32.6449C32.804 181.159 33.0919 180.809 33.5085 180.54C33.9252 180.271 34.3949 180.136 34.9176 180.136C35.0161 180.136 35.1392 180.138 35.2869 180.142C35.4347 180.146 35.5464 180.152 35.6222 180.159V181.523C35.5767 181.511 35.4725 181.494 35.3097 181.472C35.1506 181.445 34.982 181.432 34.804 181.432C34.3797 181.432 34.0009 181.521 33.6676 181.699C33.3381 181.873 33.0767 182.116 32.8835 182.426C32.6941 182.733 32.5994 183.083 32.5994 183.477V189H31.2585ZM41.554 180.273V181.409H37.0312V180.273H41.554ZM38.3494 178.182H39.6903V186.5C39.6903 186.879 39.7453 187.163 39.8551 187.352C39.9688 187.538 40.1127 187.663 40.2869 187.727C40.465 187.788 40.6525 187.818 40.8494 187.818C40.9972 187.818 41.1184 187.811 41.2131 187.795C41.3078 187.777 41.3835 187.761 41.4403 187.75L41.7131 188.955C41.6222 188.989 41.4953 189.023 41.3324 189.057C41.1695 189.095 40.9631 189.114 40.7131 189.114C40.3343 189.114 39.9631 189.032 39.5994 188.869C39.2396 188.706 38.9403 188.458 38.7017 188.125C38.4669 187.792 38.3494 187.371 38.3494 186.864V178.182ZM45.0994 177.364V189H43.7585V177.364H45.0994ZM51.2145 189.182C50.3736 189.182 49.6482 188.996 49.0384 188.625C48.4323 188.25 47.9645 187.727 47.6349 187.057C47.3092 186.383 47.1463 185.598 47.1463 184.705C47.1463 183.811 47.3092 183.023 47.6349 182.341C47.9645 181.655 48.4228 181.121 49.0099 180.739C49.6009 180.352 50.2902 180.159 51.0781 180.159C51.5327 180.159 51.9815 180.235 52.4247 180.386C52.8679 180.538 53.2713 180.784 53.6349 181.125C53.9986 181.462 54.2884 181.909 54.5043 182.466C54.7202 183.023 54.8281 183.708 54.8281 184.523V185.091H48.1009V183.932H53.4645C53.4645 183.439 53.366 183 53.169 182.614C52.9759 182.227 52.6993 181.922 52.3395 181.699C51.9834 181.475 51.563 181.364 51.0781 181.364C50.544 181.364 50.0819 181.496 49.6918 181.761C49.3054 182.023 49.008 182.364 48.7997 182.784C48.5914 183.205 48.4872 183.655 48.4872 184.136V184.909C48.4872 185.568 48.6009 186.127 48.8281 186.585C49.0592 187.04 49.3793 187.386 49.7884 187.625C50.1974 187.86 50.6728 187.977 51.2145 187.977C51.5668 187.977 51.8849 187.928 52.169 187.83C52.4569 187.727 52.705 187.576 52.9134 187.375C53.1217 187.17 53.2827 186.917 53.3963 186.614L54.6918 186.977C54.5554 187.417 54.3262 187.803 54.0043 188.136C53.6823 188.466 53.2846 188.723 52.8111 188.909C52.3376 189.091 51.8054 189.182 51.2145 189.182ZM63.0497 182.227L61.8452 182.568C61.7694 182.367 61.6577 182.172 61.5099 181.983C61.366 181.79 61.169 181.631 60.919 181.506C60.669 181.381 60.349 181.318 59.9588 181.318C59.4247 181.318 58.9796 181.441 58.6236 181.688C58.2713 181.93 58.0952 182.239 58.0952 182.614C58.0952 182.947 58.2164 183.21 58.4588 183.403C58.7012 183.597 59.08 183.758 59.5952 183.886L60.8906 184.205C61.6709 184.394 62.2524 184.684 62.6349 185.074C63.0175 185.46 63.2088 185.958 63.2088 186.568C63.2088 187.068 63.0649 187.515 62.777 187.909C62.4929 188.303 62.0952 188.614 61.5838 188.841C61.0724 189.068 60.4777 189.182 59.7997 189.182C58.9096 189.182 58.1728 188.989 57.5895 188.602C57.0062 188.216 56.6368 187.652 56.4815 186.909L57.7543 186.591C57.8755 187.061 58.1046 187.413 58.4418 187.648C58.7827 187.883 59.2277 188 59.777 188C60.402 188 60.8982 187.867 61.2656 187.602C61.6368 187.333 61.8224 187.011 61.8224 186.636C61.8224 186.333 61.7164 186.08 61.5043 185.875C61.2921 185.667 60.9664 185.511 60.527 185.409L59.0724 185.068C58.2732 184.879 57.6861 184.585 57.3111 184.188C56.9399 183.786 56.7543 183.284 56.7543 182.682C56.7543 182.189 56.8925 181.754 57.169 181.375C57.4493 180.996 57.83 180.699 58.3111 180.483C58.7959 180.267 59.3452 180.159 59.9588 180.159C60.8224 180.159 61.5005 180.348 61.9929 180.727C62.4891 181.106 62.8414 181.606 63.0497 182.227ZM71.4091 182.227L70.2045 182.568C70.1288 182.367 70.017 182.172 69.8693 181.983C69.7254 181.79 69.5284 181.631 69.2784 181.506C69.0284 181.381 68.7083 181.318 68.3182 181.318C67.7841 181.318 67.339 181.441 66.983 181.688C66.6307 181.93 66.4545 182.239 66.4545 182.614C66.4545 182.947 66.5758 183.21 66.8182 183.403C67.0606 183.597 67.4394 183.758 67.9545 183.886L69.25 184.205C70.0303 184.394 70.6117 184.684 70.9943 185.074C71.3769 185.46 71.5682 185.958 71.5682 186.568C71.5682 187.068 71.4242 187.515 71.1364 187.909C70.8523 188.303 70.4545 188.614 69.9432 188.841C69.4318 189.068 68.8371 189.182 68.1591 189.182C67.2689 189.182 66.5322 188.989 65.9489 188.602C65.3655 188.216 64.9962 187.652 64.8409 186.909L66.1136 186.591C66.2348 187.061 66.464 187.413 66.8011 187.648C67.142 187.883 67.5871 188 68.1364 188C68.7614 188 69.2576 187.867 69.625 187.602C69.9962 187.333 70.1818 187.011 70.1818 186.636C70.1818 186.333 70.0758 186.08 69.8636 185.875C69.6515 185.667 69.3258 185.511 68.8864 185.409L67.4318 185.068C66.6326 184.879 66.0455 184.585 65.6705 184.188C65.2992 183.786 65.1136 183.284 65.1136 182.682C65.1136 182.189 65.2519 181.754 65.5284 181.375C65.8087 180.996 66.1894 180.699 66.6705 180.483C67.1553 180.267 67.7045 180.159 68.3182 180.159C69.1818 180.159 69.8598 180.348 70.3523 180.727C70.8485 181.106 71.2008 181.606 71.4091 182.227ZM81.6321 189.182C80.8139 189.182 80.1094 188.989 79.5185 188.602C78.9276 188.216 78.473 187.684 78.1548 187.006C77.8366 186.328 77.6776 185.553 77.6776 184.682C77.6776 183.795 77.8404 183.013 78.1662 182.335C78.4957 181.653 78.9541 181.121 79.5412 180.739C80.1321 180.352 80.8215 180.159 81.6094 180.159C82.223 180.159 82.776 180.273 83.2685 180.5C83.7609 180.727 84.1643 181.045 84.4787 181.455C84.7931 181.864 84.9882 182.341 85.0639 182.886H83.723C83.6207 182.489 83.3935 182.136 83.0412 181.83C82.6927 181.519 82.223 181.364 81.6321 181.364C81.1094 181.364 80.651 181.5 80.2571 181.773C79.867 182.042 79.562 182.422 79.3423 182.915C79.1264 183.403 79.0185 183.977 79.0185 184.636C79.0185 185.311 79.1245 185.898 79.3366 186.398C79.5526 186.898 79.8556 187.286 80.2457 187.562C80.6397 187.839 81.1018 187.977 81.6321 187.977C81.9806 187.977 82.2969 187.917 82.581 187.795C82.8651 187.674 83.1056 187.5 83.3026 187.273C83.4995 187.045 83.6397 186.773 83.723 186.455H85.0639C84.9882 186.97 84.8007 187.434 84.5014 187.847C84.206 188.256 83.8139 188.581 83.3253 188.824C82.8404 189.062 82.276 189.182 81.6321 189.182ZM87.0241 189V180.273H88.3196V181.591H88.4105C88.5696 181.159 88.8575 180.809 89.2741 180.54C89.6908 180.271 90.1605 180.136 90.6832 180.136C90.7817 180.136 90.9048 180.138 91.0526 180.142C91.2003 180.146 91.312 180.152 91.3878 180.159V181.523C91.3423 181.511 91.2382 181.494 91.0753 181.472C90.9162 181.445 90.7476 181.432 90.5696 181.432C90.1454 181.432 89.7666 181.521 89.4332 181.699C89.1037 181.873 88.8423 182.116 88.6491 182.426C88.4598 182.733 88.3651 183.083 88.3651 183.477V189H87.0241ZM96.3707 189.182C95.5298 189.182 94.8045 188.996 94.1946 188.625C93.5885 188.25 93.1207 187.727 92.7912 187.057C92.4654 186.383 92.3026 185.598 92.3026 184.705C92.3026 183.811 92.4654 183.023 92.7912 182.341C93.1207 181.655 93.5791 181.121 94.1662 180.739C94.7571 180.352 95.4465 180.159 96.2344 180.159C96.6889 180.159 97.1378 180.235 97.581 180.386C98.0241 180.538 98.4276 180.784 98.7912 181.125C99.1548 181.462 99.4446 181.909 99.6605 182.466C99.8764 183.023 99.9844 183.708 99.9844 184.523V185.091H93.2571V183.932H98.6207C98.6207 183.439 98.5223 183 98.3253 182.614C98.1321 182.227 97.8556 181.922 97.4957 181.699C97.1397 181.475 96.7192 181.364 96.2344 181.364C95.7003 181.364 95.2382 181.496 94.848 181.761C94.4616 182.023 94.1643 182.364 93.956 182.784C93.7476 183.205 93.6435 183.655 93.6435 184.136V184.909C93.6435 185.568 93.7571 186.127 93.9844 186.585C94.2154 187.04 94.5355 187.386 94.9446 187.625C95.3537 187.86 95.8291 187.977 96.3707 187.977C96.723 187.977 97.0412 187.928 97.3253 187.83C97.6132 187.727 97.8613 187.576 98.0696 187.375C98.2779 187.17 98.4389 186.917 98.5526 186.614L99.848 186.977C99.7116 187.417 99.4825 187.803 99.1605 188.136C98.8385 188.466 98.4408 188.723 97.9673 188.909C97.4938 189.091 96.9616 189.182 96.3707 189.182ZM104.592 189.205C104.039 189.205 103.537 189.1 103.087 188.892C102.636 188.68 102.278 188.375 102.013 187.977C101.748 187.576 101.615 187.091 101.615 186.523C101.615 186.023 101.714 185.617 101.911 185.307C102.107 184.992 102.371 184.746 102.7 184.568C103.03 184.39 103.393 184.258 103.791 184.17C104.193 184.08 104.596 184.008 105.001 183.955C105.532 183.886 105.962 183.835 106.291 183.801C106.625 183.763 106.867 183.701 107.018 183.614C107.174 183.527 107.251 183.375 107.251 183.159V183.114C107.251 182.553 107.098 182.117 106.791 181.807C106.488 181.496 106.028 181.341 105.411 181.341C104.77 181.341 104.268 181.481 103.905 181.761C103.541 182.042 103.286 182.341 103.138 182.659L101.865 182.205C102.092 181.674 102.395 181.261 102.774 180.966C103.157 180.667 103.573 180.458 104.024 180.341C104.479 180.22 104.926 180.159 105.365 180.159C105.645 180.159 105.967 180.193 106.331 180.261C106.698 180.326 107.053 180.46 107.393 180.665C107.738 180.869 108.024 181.178 108.251 181.591C108.479 182.004 108.592 182.557 108.592 183.25V189H107.251V187.818H107.183C107.092 188.008 106.941 188.21 106.729 188.426C106.517 188.642 106.234 188.826 105.882 188.977C105.53 189.129 105.1 189.205 104.592 189.205ZM104.797 188C105.327 188 105.774 187.896 106.138 187.688C106.505 187.479 106.782 187.21 106.967 186.881C107.157 186.551 107.251 186.205 107.251 185.841V184.614C107.195 184.682 107.07 184.744 106.876 184.801C106.687 184.854 106.467 184.902 106.217 184.943C105.971 184.981 105.731 185.015 105.496 185.045C105.265 185.072 105.077 185.095 104.933 185.114C104.585 185.159 104.259 185.233 103.956 185.335C103.657 185.434 103.414 185.583 103.229 185.784C103.047 185.981 102.956 186.25 102.956 186.591C102.956 187.057 103.128 187.409 103.473 187.648C103.821 187.883 104.263 188 104.797 188ZM114.835 180.273V181.409H110.312V180.273H114.835ZM111.631 178.182H112.972V186.5C112.972 186.879 113.027 187.163 113.136 187.352C113.25 187.538 113.394 187.663 113.568 187.727C113.746 187.788 113.934 187.818 114.131 187.818C114.278 187.818 114.4 187.811 114.494 187.795C114.589 187.777 114.665 187.761 114.722 187.75L114.994 188.955C114.903 188.989 114.777 189.023 114.614 189.057C114.451 189.095 114.244 189.114 113.994 189.114C113.616 189.114 113.244 189.032 112.881 188.869C112.521 188.706 112.222 188.458 111.983 188.125C111.748 187.792 111.631 187.371 111.631 186.864V178.182ZM116.852 189V180.273H118.193V189H116.852ZM117.534 178.818C117.273 178.818 117.047 178.729 116.858 178.551C116.672 178.373 116.58 178.159 116.58 177.909C116.58 177.659 116.672 177.445 116.858 177.267C117.047 177.089 117.273 177 117.534 177C117.795 177 118.019 177.089 118.205 177.267C118.394 177.445 118.489 177.659 118.489 177.909C118.489 178.159 118.394 178.373 118.205 178.551C118.019 178.729 117.795 178.818 117.534 178.818ZM124.195 189.182C123.407 189.182 122.715 188.994 122.121 188.619C121.53 188.244 121.068 187.72 120.734 187.045C120.405 186.371 120.24 185.583 120.24 184.682C120.24 183.773 120.405 182.979 120.734 182.301C121.068 181.623 121.53 181.097 122.121 180.722C122.715 180.347 123.407 180.159 124.195 180.159C124.982 180.159 125.672 180.347 126.263 180.722C126.857 181.097 127.32 181.623 127.649 182.301C127.982 182.979 128.149 183.773 128.149 184.682C128.149 185.583 127.982 186.371 127.649 187.045C127.32 187.72 126.857 188.244 126.263 188.619C125.672 188.994 124.982 189.182 124.195 189.182ZM124.195 187.977C124.793 187.977 125.286 187.824 125.672 187.517C126.058 187.21 126.344 186.807 126.53 186.307C126.715 185.807 126.808 185.265 126.808 184.682C126.808 184.098 126.715 183.555 126.53 183.051C126.344 182.547 126.058 182.14 125.672 181.83C125.286 181.519 124.793 181.364 124.195 181.364C123.596 181.364 123.104 181.519 122.717 181.83C122.331 182.14 122.045 182.547 121.859 183.051C121.674 183.555 121.581 184.098 121.581 184.682C121.581 185.265 121.674 185.807 121.859 186.307C122.045 186.807 122.331 187.21 122.717 187.517C123.104 187.824 123.596 187.977 124.195 187.977ZM131.537 183.75V189H130.196V180.273H131.491V181.636H131.605C131.81 181.193 132.12 180.837 132.537 180.568C132.954 180.295 133.491 180.159 134.151 180.159C134.741 180.159 135.259 180.28 135.702 180.523C136.145 180.761 136.49 181.125 136.736 181.614C136.982 182.098 137.105 182.712 137.105 183.455V189H135.764V183.545C135.764 182.86 135.586 182.326 135.23 181.943C134.874 181.557 134.385 181.364 133.764 181.364C133.336 181.364 132.954 181.456 132.616 181.642C132.283 181.828 132.02 182.098 131.827 182.455C131.634 182.811 131.537 183.242 131.537 183.75ZM146.624 189.205C146.071 189.205 145.569 189.1 145.118 188.892C144.667 188.68 144.309 188.375 144.044 187.977C143.779 187.576 143.646 187.091 143.646 186.523C143.646 186.023 143.745 185.617 143.942 185.307C144.139 184.992 144.402 184.746 144.732 184.568C145.061 184.39 145.425 184.258 145.822 184.17C146.224 184.08 146.627 184.008 147.033 183.955C147.563 183.886 147.993 183.835 148.322 183.801C148.656 183.763 148.898 183.701 149.05 183.614C149.205 183.527 149.283 183.375 149.283 183.159V183.114C149.283 182.553 149.129 182.117 148.822 181.807C148.519 181.496 148.059 181.341 147.442 181.341C146.802 181.341 146.3 181.481 145.936 181.761C145.572 182.042 145.317 182.341 145.169 182.659L143.896 182.205C144.124 181.674 144.427 181.261 144.805 180.966C145.188 180.667 145.605 180.458 146.055 180.341C146.51 180.22 146.957 180.159 147.396 180.159C147.677 180.159 147.999 180.193 148.362 180.261C148.73 180.326 149.084 180.46 149.425 180.665C149.769 180.869 150.055 181.178 150.283 181.591C150.51 182.004 150.624 182.557 150.624 183.25V189H149.283V187.818H149.214C149.124 188.008 148.972 188.21 148.76 188.426C148.548 188.642 148.266 188.826 147.913 188.977C147.561 189.129 147.131 189.205 146.624 189.205ZM146.828 188C147.358 188 147.805 187.896 148.169 187.688C148.536 187.479 148.813 187.21 148.999 186.881C149.188 186.551 149.283 186.205 149.283 185.841V184.614C149.226 184.682 149.101 184.744 148.908 184.801C148.718 184.854 148.499 184.902 148.249 184.943C148.002 184.981 147.762 185.015 147.527 185.045C147.296 185.072 147.108 185.095 146.964 185.114C146.616 185.159 146.29 185.233 145.987 185.335C145.688 185.434 145.446 185.583 145.26 185.784C145.078 185.981 144.987 186.25 144.987 186.591C144.987 187.057 145.16 187.409 145.504 187.648C145.853 187.883 146.294 188 146.828 188ZM154.412 183.75V189H153.071V180.273H154.366V181.636H154.48C154.685 181.193 154.995 180.837 155.412 180.568C155.829 180.295 156.366 180.159 157.026 180.159C157.616 180.159 158.134 180.28 158.577 180.523C159.02 180.761 159.365 181.125 159.611 181.614C159.857 182.098 159.98 182.712 159.98 183.455V189H158.639V183.545C158.639 182.86 158.461 182.326 158.105 181.943C157.749 181.557 157.26 181.364 156.639 181.364C156.211 181.364 155.829 181.456 155.491 181.642C155.158 181.828 154.895 182.098 154.702 182.455C154.509 182.811 154.412 183.242 154.412 183.75ZM165.726 189.182C164.999 189.182 164.357 188.998 163.8 188.631C163.243 188.259 162.807 187.737 162.493 187.062C162.179 186.384 162.021 185.583 162.021 184.659C162.021 183.742 162.179 182.947 162.493 182.273C162.807 181.598 163.245 181.078 163.805 180.71C164.366 180.343 165.014 180.159 165.749 180.159C166.317 180.159 166.766 180.254 167.095 180.443C167.429 180.629 167.682 180.841 167.857 181.08C168.035 181.314 168.173 181.508 168.271 181.659H168.385V177.364H169.726V189H168.43V187.659H168.271C168.173 187.818 168.033 188.019 167.851 188.261C167.669 188.5 167.41 188.714 167.072 188.903C166.735 189.089 166.286 189.182 165.726 189.182ZM165.908 187.977C166.446 187.977 166.9 187.837 167.271 187.557C167.643 187.273 167.925 186.881 168.118 186.381C168.311 185.877 168.408 185.295 168.408 184.636C168.408 183.985 168.313 183.415 168.124 182.926C167.934 182.434 167.654 182.051 167.283 181.778C166.911 181.502 166.453 181.364 165.908 181.364C165.339 181.364 164.866 181.509 164.487 181.801C164.112 182.089 163.83 182.481 163.641 182.977C163.455 183.47 163.362 184.023 163.362 184.636C163.362 185.258 163.457 185.822 163.646 186.33C163.839 186.833 164.124 187.235 164.499 187.534C164.877 187.83 165.347 187.977 165.908 187.977ZM4.77273 208.182C3.95455 208.182 3.25 207.989 2.65909 207.602C2.06818 207.216 1.61364 206.684 1.29545 206.006C0.977273 205.328 0.818182 204.553 0.818182 203.682C0.818182 202.795 0.981061 202.013 1.30682 201.335C1.63636 200.653 2.0947 200.121 2.68182 199.739C3.27273 199.352 3.96212 199.159 4.75 199.159C5.36364 199.159 5.91667 199.273 6.40909 199.5C6.90152 199.727 7.30492 200.045 7.61932 200.455C7.93371 200.864 8.12879 201.341 8.20455 201.886H6.86364C6.76136 201.489 6.53409 201.136 6.18182 200.83C5.83333 200.519 5.36364 200.364 4.77273 200.364C4.25 200.364 3.79167 200.5 3.39773 200.773C3.00758 201.042 2.70265 201.422 2.48295 201.915C2.26705 202.403 2.15909 202.977 2.15909 203.636C2.15909 204.311 2.26515 204.898 2.47727 205.398C2.69318 205.898 2.99621 206.286 3.38636 206.562C3.7803 206.839 4.24242 206.977 4.77273 206.977C5.12121 206.977 5.4375 206.917 5.72159 206.795C6.00568 206.674 6.24621 206.5 6.44318 206.273C6.64015 206.045 6.7803 205.773 6.86364 205.455H8.20455C8.12879 205.97 7.94129 206.434 7.64205 206.847C7.34659 207.256 6.95455 207.581 6.46591 207.824C5.98106 208.062 5.41667 208.182 4.77273 208.182ZM12.733 208.205C12.1799 208.205 11.678 208.1 11.2273 207.892C10.7765 207.68 10.4186 207.375 10.1534 206.977C9.88826 206.576 9.75568 206.091 9.75568 205.523C9.75568 205.023 9.85417 204.617 10.0511 204.307C10.2481 203.992 10.5114 203.746 10.8409 203.568C11.1705 203.39 11.5341 203.258 11.9318 203.17C12.3333 203.08 12.7367 203.008 13.142 202.955C13.6723 202.886 14.1023 202.835 14.4318 202.801C14.7652 202.763 15.0076 202.701 15.1591 202.614C15.3144 202.527 15.392 202.375 15.392 202.159V202.114C15.392 201.553 15.2386 201.117 14.9318 200.807C14.6288 200.496 14.1686 200.341 13.5511 200.341C12.911 200.341 12.4091 200.481 12.0455 200.761C11.6818 201.042 11.4261 201.341 11.2784 201.659L10.0057 201.205C10.233 200.674 10.536 200.261 10.9148 199.966C11.2973 199.667 11.714 199.458 12.1648 199.341C12.6193 199.22 13.0663 199.159 13.5057 199.159C13.786 199.159 14.108 199.193 14.4716 199.261C14.839 199.326 15.1932 199.46 15.5341 199.665C15.8788 199.869 16.1648 200.178 16.392 200.591C16.6193 201.004 16.733 201.557 16.733 202.25V208H15.392V206.818H15.3239C15.233 207.008 15.0814 207.21 14.8693 207.426C14.6572 207.642 14.375 207.826 14.0227 207.977C13.6705 208.129 13.2405 208.205 12.733 208.205ZM12.9375 207C13.4678 207 13.9148 206.896 14.2784 206.688C14.6458 206.479 14.9223 206.21 15.108 205.881C15.2973 205.551 15.392 205.205 15.392 204.841V203.614C15.3352 203.682 15.2102 203.744 15.017 203.801C14.8277 203.854 14.608 203.902 14.358 203.943C14.1117 203.981 13.8712 204.015 13.6364 204.045C13.4053 204.072 13.2178 204.095 13.0739 204.114C12.7254 204.159 12.3996 204.233 12.0966 204.335C11.7973 204.434 11.5549 204.583 11.3693 204.784C11.1875 204.981 11.0966 205.25 11.0966 205.591C11.0966 206.057 11.2689 206.409 11.6136 206.648C11.9621 206.883 12.4034 207 12.9375 207ZM19.1804 211.273V199.273H20.4759V200.659H20.6349C20.7334 200.508 20.8698 200.314 21.044 200.08C21.2221 199.841 21.4759 199.629 21.8054 199.443C22.1387 199.254 22.5895 199.159 23.1577 199.159C23.8925 199.159 24.5402 199.343 25.1009 199.71C25.6615 200.078 26.099 200.598 26.4134 201.273C26.7277 201.947 26.8849 202.742 26.8849 203.659C26.8849 204.583 26.7277 205.384 26.4134 206.062C26.099 206.737 25.6634 207.259 25.1065 207.631C24.5497 207.998 23.9077 208.182 23.1804 208.182C22.6198 208.182 22.1709 208.089 21.8338 207.903C21.4967 207.714 21.2372 207.5 21.0554 207.261C20.8736 207.019 20.7334 206.818 20.6349 206.659H20.5213V211.273H19.1804ZM20.4986 203.636C20.4986 204.295 20.5952 204.877 20.7884 205.381C20.9815 205.881 21.2637 206.273 21.6349 206.557C22.0062 206.837 22.4607 206.977 22.9986 206.977C23.5592 206.977 24.027 206.83 24.402 206.534C24.7808 206.235 25.0649 205.833 25.2543 205.33C25.4474 204.822 25.544 204.258 25.544 203.636C25.544 203.023 25.4493 202.47 25.2599 201.977C25.0743 201.481 24.7921 201.089 24.4134 200.801C24.0384 200.509 23.5668 200.364 22.9986 200.364C22.4531 200.364 21.9948 200.502 21.6236 200.778C21.2524 201.051 20.9721 201.434 20.7827 201.926C20.5933 202.415 20.4986 202.985 20.4986 203.636ZM32.7259 199.273V200.409H28.2031V199.273H32.7259ZM29.5213 197.182H30.8622V205.5C30.8622 205.879 30.9171 206.163 31.027 206.352C31.1406 206.538 31.2846 206.663 31.4588 206.727C31.6368 206.788 31.8243 206.818 32.0213 206.818C32.169 206.818 32.2902 206.811 32.3849 206.795C32.4796 206.777 32.5554 206.761 32.6122 206.75L32.8849 207.955C32.794 207.989 32.6671 208.023 32.5043 208.057C32.3414 208.095 32.1349 208.114 31.8849 208.114C31.5062 208.114 31.1349 208.032 30.7713 207.869C30.4115 207.706 30.1122 207.458 29.8736 207.125C29.6387 206.792 29.5213 206.371 29.5213 205.864V197.182ZM40.2429 204.432V199.273H41.5838V208H40.2429V206.523H40.152C39.9474 206.966 39.6293 207.343 39.1974 207.653C38.7656 207.96 38.2202 208.114 37.5611 208.114C37.0156 208.114 36.5308 207.994 36.1065 207.756C35.6823 207.513 35.349 207.15 35.1065 206.665C34.8641 206.176 34.7429 205.561 34.7429 204.818V199.273H36.0838V204.727C36.0838 205.364 36.2618 205.871 36.6179 206.25C36.9777 206.629 37.4361 206.818 37.9929 206.818C38.3262 206.818 38.6652 206.733 39.0099 206.562C39.3584 206.392 39.6501 206.131 39.8849 205.778C40.1236 205.426 40.2429 204.977 40.2429 204.432ZM44.0398 208V199.273H45.3352V200.591H45.4261C45.5852 200.159 45.8731 199.809 46.2898 199.54C46.7064 199.271 47.1761 199.136 47.6989 199.136C47.7973 199.136 47.9205 199.138 48.0682 199.142C48.2159 199.146 48.3277 199.152 48.4034 199.159V200.523C48.358 200.511 48.2538 200.494 48.0909 200.472C47.9318 200.445 47.7633 200.432 47.5852 200.432C47.161 200.432 46.7822 200.521 46.4489 200.699C46.1193 200.873 45.858 201.116 45.6648 201.426C45.4754 201.733 45.3807 202.083 45.3807 202.477V208H44.0398ZM53.3864 208.182C52.5455 208.182 51.8201 207.996 51.2102 207.625C50.6042 207.25 50.1364 206.727 49.8068 206.057C49.4811 205.383 49.3182 204.598 49.3182 203.705C49.3182 202.811 49.4811 202.023 49.8068 201.341C50.1364 200.655 50.5947 200.121 51.1818 199.739C51.7727 199.352 52.4621 199.159 53.25 199.159C53.7045 199.159 54.1534 199.235 54.5966 199.386C55.0398 199.538 55.4432 199.784 55.8068 200.125C56.1705 200.462 56.4602 200.909 56.6761 201.466C56.892 202.023 57 202.708 57 203.523V204.091H50.2727V202.932H55.6364C55.6364 202.439 55.5379 202 55.3409 201.614C55.1477 201.227 54.8712 200.922 54.5114 200.699C54.1553 200.475 53.7348 200.364 53.25 200.364C52.7159 200.364 52.2538 200.496 51.8636 200.761C51.4773 201.023 51.1799 201.364 50.9716 201.784C50.7633 202.205 50.6591 202.655 50.6591 203.136V203.909C50.6591 204.568 50.7727 205.127 51 205.585C51.2311 206.04 51.5511 206.386 51.9602 206.625C52.3693 206.86 52.8447 206.977 53.3864 206.977C53.7386 206.977 54.0568 206.928 54.3409 206.83C54.6288 206.727 54.8769 206.576 55.0852 206.375C55.2936 206.17 55.4545 205.917 55.5682 205.614L56.8636 205.977C56.7273 206.417 56.4981 206.803 56.1761 207.136C55.8542 207.466 55.4564 207.723 54.983 207.909C54.5095 208.091 53.9773 208.182 53.3864 208.182ZM67.0852 208.182C66.2973 208.182 65.6061 207.994 65.0114 207.619C64.4205 207.244 63.9583 206.72 63.625 206.045C63.2955 205.371 63.1307 204.583 63.1307 203.682C63.1307 202.773 63.2955 201.979 63.625 201.301C63.9583 200.623 64.4205 200.097 65.0114 199.722C65.6061 199.347 66.2973 199.159 67.0852 199.159C67.8731 199.159 68.5625 199.347 69.1534 199.722C69.7481 200.097 70.2102 200.623 70.5398 201.301C70.8731 201.979 71.0398 202.773 71.0398 203.682C71.0398 204.583 70.8731 205.371 70.5398 206.045C70.2102 206.72 69.7481 207.244 69.1534 207.619C68.5625 207.994 67.8731 208.182 67.0852 208.182ZM67.0852 206.977C67.6837 206.977 68.1761 206.824 68.5625 206.517C68.9489 206.21 69.2348 205.807 69.4205 205.307C69.6061 204.807 69.6989 204.265 69.6989 203.682C69.6989 203.098 69.6061 202.555 69.4205 202.051C69.2348 201.547 68.9489 201.14 68.5625 200.83C68.1761 200.519 67.6837 200.364 67.0852 200.364C66.4867 200.364 65.9943 200.519 65.608 200.83C65.2216 201.14 64.9356 201.547 64.75 202.051C64.5644 202.555 64.4716 203.098 64.4716 203.682C64.4716 204.265 64.5644 204.807 64.75 205.307C64.9356 205.807 65.2216 206.21 65.608 206.517C65.9943 206.824 66.4867 206.977 67.0852 206.977ZM76.973 199.273V200.409H72.2685V199.273H76.973ZM73.6776 208V198.068C73.6776 197.568 73.795 197.152 74.0298 196.818C74.2647 196.485 74.5696 196.235 74.9446 196.068C75.3196 195.902 75.7154 195.818 76.1321 195.818C76.4616 195.818 76.7306 195.845 76.9389 195.898C77.1473 195.951 77.3026 196 77.4048 196.045L77.0185 197.205C76.9503 197.182 76.8556 197.153 76.7344 197.119C76.617 197.085 76.4616 197.068 76.2685 197.068C75.8253 197.068 75.5052 197.18 75.3082 197.403C75.1151 197.627 75.0185 197.955 75.0185 198.386V208H73.6776ZM89.5341 201.227L88.3295 201.568C88.2538 201.367 88.142 201.172 87.9943 200.983C87.8504 200.79 87.6534 200.631 87.4034 200.506C87.1534 200.381 86.8333 200.318 86.4432 200.318C85.9091 200.318 85.464 200.441 85.108 200.688C84.7557 200.93 84.5795 201.239 84.5795 201.614C84.5795 201.947 84.7008 202.21 84.9432 202.403C85.1856 202.597 85.5644 202.758 86.0795 202.886L87.375 203.205C88.1553 203.394 88.7367 203.684 89.1193 204.074C89.5019 204.46 89.6932 204.958 89.6932 205.568C89.6932 206.068 89.5492 206.515 89.2614 206.909C88.9773 207.303 88.5795 207.614 88.0682 207.841C87.5568 208.068 86.9621 208.182 86.2841 208.182C85.3939 208.182 84.6572 207.989 84.0739 207.602C83.4905 207.216 83.1212 206.652 82.9659 205.909L84.2386 205.591C84.3598 206.061 84.589 206.413 84.9261 206.648C85.267 206.883 85.7121 207 86.2614 207C86.8864 207 87.3826 206.867 87.75 206.602C88.1212 206.333 88.3068 206.011 88.3068 205.636C88.3068 205.333 88.2008 205.08 87.9886 204.875C87.7765 204.667 87.4508 204.511 87.0114 204.409L85.5568 204.068C84.7576 203.879 84.1705 203.585 83.7955 203.188C83.4242 202.786 83.2386 202.284 83.2386 201.682C83.2386 201.189 83.3769 200.754 83.6534 200.375C83.9337 199.996 84.3144 199.699 84.7955 199.483C85.2803 199.267 85.8295 199.159 86.4432 199.159C87.3068 199.159 87.9848 199.348 88.4773 199.727C88.9735 200.106 89.3258 200.606 89.5341 201.227ZM95.5071 199.273V200.409H90.9844V199.273H95.5071ZM92.3026 197.182H93.6435V205.5C93.6435 205.879 93.6984 206.163 93.8082 206.352C93.9219 206.538 94.0658 206.663 94.2401 206.727C94.4181 206.788 94.6056 206.818 94.8026 206.818C94.9503 206.818 95.0715 206.811 95.1662 206.795C95.2609 206.777 95.3366 206.761 95.3935 206.75L95.6662 207.955C95.5753 207.989 95.4484 208.023 95.2855 208.057C95.1226 208.095 94.9162 208.114 94.6662 208.114C94.2874 208.114 93.9162 208.032 93.5526 207.869C93.1927 207.706 92.8935 207.458 92.6548 207.125C92.42 206.792 92.3026 206.371 92.3026 205.864V197.182ZM97.5241 208V199.273H98.8196V200.591H98.9105C99.0696 200.159 99.3575 199.809 99.7741 199.54C100.191 199.271 100.661 199.136 101.183 199.136C101.282 199.136 101.405 199.138 101.553 199.142C101.7 199.146 101.812 199.152 101.888 199.159V200.523C101.842 200.511 101.738 200.494 101.575 200.472C101.416 200.445 101.248 200.432 101.07 200.432C100.645 200.432 100.267 200.521 99.9332 200.699C99.6037 200.873 99.3423 201.116 99.1491 201.426C98.9598 201.733 98.8651 202.083 98.8651 202.477V208H97.5241ZM108.977 204.432V199.273H110.318V208H108.977V206.523H108.886C108.682 206.966 108.364 207.343 107.932 207.653C107.5 207.96 106.955 208.114 106.295 208.114C105.75 208.114 105.265 207.994 104.841 207.756C104.417 207.513 104.083 207.15 103.841 206.665C103.598 206.176 103.477 205.561 103.477 204.818V199.273H104.818V204.727C104.818 205.364 104.996 205.871 105.352 206.25C105.712 206.629 106.17 206.818 106.727 206.818C107.061 206.818 107.4 206.733 107.744 206.562C108.093 206.392 108.384 206.131 108.619 205.778C108.858 205.426 108.977 204.977 108.977 204.432ZM116.32 208.182C115.501 208.182 114.797 207.989 114.206 207.602C113.615 207.216 113.161 206.684 112.842 206.006C112.524 205.328 112.365 204.553 112.365 203.682C112.365 202.795 112.528 202.013 112.854 201.335C113.183 200.653 113.642 200.121 114.229 199.739C114.82 199.352 115.509 199.159 116.297 199.159C116.911 199.159 117.464 199.273 117.956 199.5C118.448 199.727 118.852 200.045 119.166 200.455C119.481 200.864 119.676 201.341 119.751 201.886H118.411C118.308 201.489 118.081 201.136 117.729 200.83C117.38 200.519 116.911 200.364 116.32 200.364C115.797 200.364 115.339 200.5 114.945 200.773C114.554 201.042 114.25 201.422 114.03 201.915C113.814 202.403 113.706 202.977 113.706 203.636C113.706 204.311 113.812 204.898 114.024 205.398C114.24 205.898 114.543 206.286 114.933 206.562C115.327 206.839 115.789 206.977 116.32 206.977C116.668 206.977 116.984 206.917 117.268 206.795C117.553 206.674 117.793 206.5 117.99 206.273C118.187 206.045 118.327 205.773 118.411 205.455H119.751C119.676 205.97 119.488 206.434 119.189 206.847C118.893 207.256 118.501 207.581 118.013 207.824C117.528 208.062 116.964 208.182 116.32 208.182ZM125.507 199.273V200.409H120.984V199.273H125.507ZM122.303 197.182H123.643V205.5C123.643 205.879 123.698 206.163 123.808 206.352C123.922 206.538 124.066 206.663 124.24 206.727C124.418 206.788 124.606 206.818 124.803 206.818C124.95 206.818 125.071 206.811 125.166 206.795C125.261 206.777 125.337 206.761 125.393 206.75L125.666 207.955C125.575 207.989 125.448 208.023 125.286 208.057C125.123 208.095 124.916 208.114 124.666 208.114C124.287 208.114 123.916 208.032 123.553 207.869C123.193 207.706 122.893 207.458 122.655 207.125C122.42 206.792 122.303 206.371 122.303 205.864V197.182ZM133.024 204.432V199.273H134.365V208H133.024V206.523H132.933C132.729 206.966 132.411 207.343 131.979 207.653C131.547 207.96 131.001 208.114 130.342 208.114C129.797 208.114 129.312 207.994 128.888 207.756C128.464 207.513 128.13 207.15 127.888 206.665C127.645 206.176 127.524 205.561 127.524 204.818V199.273H128.865V204.727C128.865 205.364 129.043 205.871 129.399 206.25C129.759 206.629 130.217 206.818 130.774 206.818C131.107 206.818 131.446 206.733 131.791 206.562C132.14 206.392 132.431 206.131 132.666 205.778C132.905 205.426 133.024 204.977 133.024 204.432ZM136.821 208V199.273H138.116V200.591H138.207C138.366 200.159 138.654 199.809 139.071 199.54C139.488 199.271 139.957 199.136 140.48 199.136C140.579 199.136 140.702 199.138 140.849 199.142C140.997 199.146 141.109 199.152 141.185 199.159V200.523C141.139 200.511 141.035 200.494 140.872 200.472C140.713 200.445 140.545 200.432 140.366 200.432C139.942 200.432 139.563 200.521 139.23 200.699C138.901 200.873 138.639 201.116 138.446 201.426C138.257 201.733 138.162 202.083 138.162 202.477V208H136.821ZM146.168 208.182C145.327 208.182 144.601 207.996 143.991 207.625C143.385 207.25 142.918 206.727 142.588 206.057C142.262 205.383 142.099 204.598 142.099 203.705C142.099 202.811 142.262 202.023 142.588 201.341C142.918 200.655 143.376 200.121 143.963 199.739C144.554 199.352 145.243 199.159 146.031 199.159C146.486 199.159 146.935 199.235 147.378 199.386C147.821 199.538 148.224 199.784 148.588 200.125C148.952 200.462 149.241 200.909 149.457 201.466C149.673 202.023 149.781 202.708 149.781 203.523V204.091H143.054V202.932H148.418C148.418 202.439 148.319 202 148.122 201.614C147.929 201.227 147.652 200.922 147.293 200.699C146.937 200.475 146.516 200.364 146.031 200.364C145.497 200.364 145.035 200.496 144.645 200.761C144.259 201.023 143.961 201.364 143.753 201.784C143.545 202.205 143.44 202.655 143.44 203.136V203.909C143.44 204.568 143.554 205.127 143.781 205.585C144.012 206.04 144.332 206.386 144.741 206.625C145.151 206.86 145.626 206.977 146.168 206.977C146.52 206.977 146.838 206.928 147.122 206.83C147.41 206.727 147.658 206.576 147.866 206.375C148.075 206.17 148.236 205.917 148.349 205.614L149.645 205.977C149.509 206.417 149.279 206.803 148.957 207.136C148.635 207.466 148.238 207.723 147.764 207.909C147.291 208.091 146.759 208.182 146.168 208.182ZM155.116 208.182C154.389 208.182 153.747 207.998 153.19 207.631C152.634 207.259 152.198 206.737 151.884 206.062C151.569 205.384 151.412 204.583 151.412 203.659C151.412 202.742 151.569 201.947 151.884 201.273C152.198 200.598 152.635 200.078 153.196 199.71C153.757 199.343 154.404 199.159 155.139 199.159C155.707 199.159 156.156 199.254 156.486 199.443C156.819 199.629 157.073 199.841 157.247 200.08C157.425 200.314 157.563 200.508 157.662 200.659H157.776V196.364H159.116V208H157.821V206.659H157.662C157.563 206.818 157.423 207.019 157.241 207.261C157.06 207.5 156.8 207.714 156.463 207.903C156.126 208.089 155.677 208.182 155.116 208.182ZM155.298 206.977C155.836 206.977 156.291 206.837 156.662 206.557C157.033 206.273 157.315 205.881 157.509 205.381C157.702 204.877 157.798 204.295 157.798 203.636C157.798 202.985 157.704 202.415 157.514 201.926C157.325 201.434 157.045 201.051 156.673 200.778C156.302 200.502 155.844 200.364 155.298 200.364C154.73 200.364 154.257 200.509 153.878 200.801C153.503 201.089 153.221 201.481 153.031 201.977C152.846 202.47 152.753 203.023 152.753 203.636C152.753 204.258 152.848 204.822 153.037 205.33C153.23 205.833 153.514 206.235 153.889 206.534C154.268 206.83 154.738 206.977 155.298 206.977ZM169.554 208.182C168.827 208.182 168.185 207.998 167.628 207.631C167.071 207.259 166.635 206.737 166.321 206.062C166.007 205.384 165.849 204.583 165.849 203.659C165.849 202.742 166.007 201.947 166.321 201.273C166.635 200.598 167.073 200.078 167.634 199.71C168.194 199.343 168.842 199.159 169.577 199.159C170.145 199.159 170.594 199.254 170.923 199.443C171.257 199.629 171.51 199.841 171.685 200.08C171.863 200.314 172.001 200.508 172.099 200.659H172.213V196.364H173.554V208H172.259V206.659H172.099C172.001 206.818 171.861 207.019 171.679 207.261C171.497 207.5 171.238 207.714 170.901 207.903C170.563 208.089 170.115 208.182 169.554 208.182ZM169.736 206.977C170.274 206.977 170.728 206.837 171.099 206.557C171.471 206.273 171.753 205.881 171.946 205.381C172.139 204.877 172.236 204.295 172.236 203.636C172.236 202.985 172.141 202.415 171.952 201.926C171.762 201.434 171.482 201.051 171.111 200.778C170.74 200.502 170.281 200.364 169.736 200.364C169.168 200.364 168.694 200.509 168.315 200.801C167.94 201.089 167.658 201.481 167.469 201.977C167.283 202.47 167.19 203.023 167.19 203.636C167.19 204.258 167.285 204.822 167.474 205.33C167.668 205.833 167.952 206.235 168.327 206.534C168.705 206.83 169.175 206.977 169.736 206.977ZM178.764 208.205C178.211 208.205 177.709 208.1 177.259 207.892C176.808 207.68 176.45 207.375 176.185 206.977C175.92 206.576 175.787 206.091 175.787 205.523C175.787 205.023 175.885 204.617 176.082 204.307C176.279 203.992 176.543 203.746 176.872 203.568C177.202 203.39 177.565 203.258 177.963 203.17C178.365 203.08 178.768 203.008 179.173 202.955C179.704 202.886 180.134 202.835 180.463 202.801C180.796 202.763 181.039 202.701 181.19 202.614C181.346 202.527 181.423 202.375 181.423 202.159V202.114C181.423 201.553 181.27 201.117 180.963 200.807C180.66 200.496 180.2 200.341 179.582 200.341C178.942 200.341 178.44 200.481 178.077 200.761C177.713 201.042 177.457 201.341 177.31 201.659L176.037 201.205C176.264 200.674 176.567 200.261 176.946 199.966C177.329 199.667 177.745 199.458 178.196 199.341C178.651 199.22 179.098 199.159 179.537 199.159C179.817 199.159 180.139 199.193 180.503 199.261C180.87 199.326 181.224 199.46 181.565 199.665C181.91 199.869 182.196 200.178 182.423 200.591C182.651 201.004 182.764 201.557 182.764 202.25V208H181.423V206.818H181.355C181.264 207.008 181.113 207.21 180.901 207.426C180.688 207.642 180.406 207.826 180.054 207.977C179.702 208.129 179.272 208.205 178.764 208.205ZM178.969 207C179.499 207 179.946 206.896 180.31 206.688C180.677 206.479 180.954 206.21 181.139 205.881C181.329 205.551 181.423 205.205 181.423 204.841V203.614C181.366 203.682 181.241 203.744 181.048 203.801C180.859 203.854 180.639 203.902 180.389 203.943C180.143 203.981 179.902 204.015 179.668 204.045C179.437 204.072 179.249 204.095 179.105 204.114C178.757 204.159 178.431 204.233 178.128 204.335C177.829 204.434 177.586 204.583 177.401 204.784C177.219 204.981 177.128 205.25 177.128 205.591C177.128 206.057 177.3 206.409 177.645 206.648C177.993 206.883 178.435 207 178.969 207ZM189.007 199.273V200.409H184.484V199.273H189.007ZM185.803 197.182H187.143V205.5C187.143 205.879 187.198 206.163 187.308 206.352C187.422 206.538 187.566 206.663 187.74 206.727C187.918 206.788 188.106 206.818 188.303 206.818C188.45 206.818 188.571 206.811 188.666 206.795C188.761 206.777 188.837 206.761 188.893 206.75L189.166 207.955C189.075 207.989 188.948 208.023 188.786 208.057C188.623 208.095 188.416 208.114 188.166 208.114C187.787 208.114 187.416 208.032 187.053 207.869C186.693 207.706 186.393 207.458 186.155 207.125C185.92 206.792 185.803 206.371 185.803 205.864V197.182ZM193.592 208.205C193.039 208.205 192.537 208.1 192.087 207.892C191.636 207.68 191.278 207.375 191.013 206.977C190.748 206.576 190.615 206.091 190.615 205.523C190.615 205.023 190.714 204.617 190.911 204.307C191.107 203.992 191.371 203.746 191.7 203.568C192.03 203.39 192.393 203.258 192.791 203.17C193.193 203.08 193.596 203.008 194.001 202.955C194.532 202.886 194.962 202.835 195.291 202.801C195.625 202.763 195.867 202.701 196.018 202.614C196.174 202.527 196.251 202.375 196.251 202.159V202.114C196.251 201.553 196.098 201.117 195.791 200.807C195.488 200.496 195.028 200.341 194.411 200.341C193.77 200.341 193.268 200.481 192.905 200.761C192.541 201.042 192.286 201.341 192.138 201.659L190.865 201.205C191.092 200.674 191.395 200.261 191.774 199.966C192.157 199.667 192.573 199.458 193.024 199.341C193.479 199.22 193.926 199.159 194.365 199.159C194.645 199.159 194.967 199.193 195.331 199.261C195.698 199.326 196.053 199.46 196.393 199.665C196.738 199.869 197.024 200.178 197.251 200.591C197.479 201.004 197.592 201.557 197.592 202.25V208H196.251V206.818H196.183C196.092 207.008 195.941 207.21 195.729 207.426C195.517 207.642 195.234 207.826 194.882 207.977C194.53 208.129 194.1 208.205 193.592 208.205ZM193.797 207C194.327 207 194.774 206.896 195.138 206.688C195.505 206.479 195.782 206.21 195.967 205.881C196.157 205.551 196.251 205.205 196.251 204.841V203.614C196.195 203.682 196.07 203.744 195.876 203.801C195.687 203.854 195.467 203.902 195.217 203.943C194.971 203.981 194.731 204.015 194.496 204.045C194.265 204.072 194.077 204.095 193.933 204.114C193.585 204.159 193.259 204.233 192.956 204.335C192.657 204.434 192.414 204.583 192.229 204.784C192.047 204.981 191.956 205.25 191.956 205.591C191.956 206.057 192.128 206.409 192.473 206.648C192.821 206.883 193.263 207 193.797 207Z" fill="#7556DC"/>
<defs>
<filter id="filter0_i_393_4505" x="306" y="97" width="139" height="141" filterUnits="userSpaceOnUse" color-interpolation-filters="sRGB">
<feFlood flood-opacity="0" result="BackgroundImageFix"/>
<feBlend mode="normal" in="SourceGraphic" in2="BackgroundImageFix" result="shape"/>
<feColorMatrix in="SourceAlpha" type="matrix" values="0 0 0 0 0 0 0 0 0 0 0 0 0 0 0 0 0 0 127 0" result="hardAlpha"/>
<feOffset dy="-2"/>
<feGaussianBlur stdDeviation="3"/>
<feComposite in2="hardAlpha" operator="arithmetic" k2="-1" k3="1"/>
<feColorMatrix type="matrix" values="0 0 0 0 0.941176 0 0 0 0 0.976471 0 0 0 0 1 0 0 0 1 0"/>
<feBlend mode="normal" in2="shape" result="effect1_innerShadow_393_4505"/>
</filter>
<filter id="filter1_i_393_4505" x="0" y="-2" width="139" height="141" filterUnits="userSpaceOnUse" color-interpolation-filters="sRGB">
<feFlood flood-opacity="0" result="BackgroundImageFix"/>
<feBlend mode="normal" in="SourceGraphic" in2="BackgroundImageFix" result="shape"/>
<feColorMatrix in="SourceAlpha" type="matrix" values="0 0 0 0 0 0 0 0 0 0 0 0 0 0 0 0 0 0 127 0" result="hardAlpha"/>
<feOffset dy="-2"/>
<feGaussianBlur stdDeviation="3"/>
<feComposite in2="hardAlpha" operator="arithmetic" k2="-1" k3="1"/>
<feColorMatrix type="matrix" values="0 0 0 0 0.941176 0 0 0 0 0.976471 0 0 0 0 1 0 0 0 1 0"/>
<feBlend mode="normal" in2="shape" result="effect1_innerShadow_393_4505"/>
</filter>
<filter id="filter2_i_393_4505" x="151" y="-2" width="139" height="141" filterUnits="userSpaceOnUse" color-interpolation-filters="sRGB">
<feFlood flood-opacity="0" result="BackgroundImageFix"/>
<feBlend mode="normal" in="SourceGraphic" in2="BackgroundImageFix" result="shape"/>
<feColorMatrix in="SourceAlpha" type="matrix" values="0 0 0 0 0 0 0 0 0 0 0 0 0 0 0 0 0 0 127 0" result="hardAlpha"/>
<feOffset dy="-2"/>
<feGaussianBlur stdDeviation="3"/>
<feComposite in2="hardAlpha" operator="arithmetic" k2="-1" k3="1"/>
<feColorMatrix type="matrix" values="0 0 0 0 0.941176 0 0 0 0 0.976471 0 0 0 0 1 0 0 0 1 0"/>
<feBlend mode="normal" in2="shape" result="effect1_innerShadow_393_4505"/>
</filter>
</defs>
</svg>
