<svg width="289" height="279" viewBox="0 0 289 279" fill="none" xmlns="http://www.w3.org/2000/svg">
<g filter="url(#filter0_i_44_613)">
<rect width="288.402" height="225" rx="4" fill="white"/>
</g>
<rect x="0.5" y="0.5" width="287.402" height="224" rx="3.5" stroke="#C1CFDE"/>
<path d="M0.773193 4.00001C0.773193 1.79087 2.56405 0 4.77319 0H62.6289V225H4.77319C2.56405 225 0.773193 223.209 0.773193 221V4.00001Z" fill="#F3F9FD" style="mix-blend-mode:multiply"/>
<rect width="0.773196" height="225" transform="matrix(-1 0 0 1 62.6289 0)" fill="#F3F9FD" style="mix-blend-mode:multiply"/>
<rect x="0.773193" y="0.773193" width="61.0825" height="23.1959" rx="1" fill="#F2F8FC" style="mix-blend-mode:multiply"/>
<circle cx="257.861" cy="14.3041" r="5.02577" fill="#EBF2F7"/>
<circle cx="272.552" cy="14.3041" r="5.02577" fill="#EBF2F7"/>
<g filter="url(#filter1_i_44_613)">
<rect x="91.9243" y="150.773" width="145.447" height="74.2268" rx="4" fill="white"/>
</g>
<rect x="92.4243" y="151.273" width="144.447" height="73.2268" rx="3.5" stroke="#FFC180"/>
<rect x="110.492" y="169.33" width="51.8348" height="12.3711" rx="2" fill="#FFC180"/>
<ellipse cx="179.385" cy="175.516" rx="6.18923" ry="6.18557" fill="#FFC180"/>
<g filter="url(#filter2_i_44_613)">
<rect x="91.9241" y="36.3403" width="145.447" height="105.155" rx="4" fill="white"/>
</g>
<rect x="92.4241" y="36.8403" width="144.447" height="104.155" rx="3.5" stroke="#FFC180"/>
<rect x="110.492" y="54.897" width="62.6659" height="12.3711" rx="2" fill="#FFDEBA"/>
<rect x="110.492" y="73.4536" width="34.8144" height="12.3711" rx="2" fill="#FFDEBA"/>
<rect x="110.492" y="110.567" width="34.8144" height="12.3711" rx="2" fill="#FFDEBA"/>
<ellipse cx="160.779" cy="116.753" rx="6.18923" ry="6.18557" fill="#FFDEBA"/>
<path d="M10.0455 244.364H11.4545V252.068C11.4545 252.864 11.267 253.574 10.892 254.199C10.5208 254.82 9.99621 255.311 9.31818 255.67C8.64015 256.027 7.8447 256.205 6.93182 256.205C6.01894 256.205 5.22348 256.027 4.54545 255.67C3.86742 255.311 3.34091 254.82 2.96591 254.199C2.5947 253.574 2.40909 252.864 2.40909 252.068V244.364H3.81818V251.955C3.81818 252.523 3.94318 253.028 4.19318 253.472C4.44318 253.911 4.79924 254.258 5.26136 254.511C5.72727 254.761 6.28409 254.886 6.93182 254.886C7.57955 254.886 8.13636 254.761 8.60227 254.511C9.06818 254.258 9.42424 253.911 9.67045 253.472C9.92045 253.028 10.0455 252.523 10.0455 251.955V244.364ZM20.2685 249.227L19.0639 249.568C18.9882 249.367 18.8764 249.172 18.7287 248.983C18.5848 248.79 18.3878 248.631 18.1378 248.506C17.8878 248.381 17.5677 248.318 17.1776 248.318C16.6435 248.318 16.1984 248.441 15.8423 248.688C15.4901 248.93 15.3139 249.239 15.3139 249.614C15.3139 249.947 15.4351 250.21 15.6776 250.403C15.92 250.597 16.2988 250.758 16.8139 250.886L18.1094 251.205C18.8897 251.394 19.4711 251.684 19.8537 252.074C20.2363 252.46 20.4276 252.958 20.4276 253.568C20.4276 254.068 20.2836 254.515 19.9957 254.909C19.7116 255.303 19.3139 255.614 18.8026 255.841C18.2912 256.068 17.6965 256.182 17.0185 256.182C16.1283 256.182 15.3916 255.989 14.8082 255.602C14.2249 255.216 13.8556 254.652 13.7003 253.909L14.973 253.591C15.0942 254.061 15.3234 254.413 15.6605 254.648C16.0014 254.883 16.4465 255 16.9957 255C17.6207 255 18.117 254.867 18.4844 254.602C18.8556 254.333 19.0412 254.011 19.0412 253.636C19.0412 253.333 18.9351 253.08 18.723 252.875C18.5109 252.667 18.1851 252.511 17.7457 252.409L16.2912 252.068C15.492 251.879 14.9048 251.585 14.5298 251.188C14.1586 250.786 13.973 250.284 13.973 249.682C13.973 249.189 14.1113 248.754 14.3878 248.375C14.6681 247.996 15.0488 247.699 15.5298 247.483C16.0147 247.267 16.5639 247.159 17.1776 247.159C18.0412 247.159 18.7192 247.348 19.2116 247.727C19.7079 248.106 20.0601 248.606 20.2685 249.227ZM26.1051 256.182C25.2642 256.182 24.5388 255.996 23.929 255.625C23.3229 255.25 22.8551 254.727 22.5256 254.057C22.1998 253.383 22.0369 252.598 22.0369 251.705C22.0369 250.811 22.1998 250.023 22.5256 249.341C22.8551 248.655 23.3134 248.121 23.9006 247.739C24.4915 247.352 25.1809 247.159 25.9688 247.159C26.4233 247.159 26.8722 247.235 27.3153 247.386C27.7585 247.538 28.1619 247.784 28.5256 248.125C28.8892 248.462 29.179 248.909 29.3949 249.466C29.6108 250.023 29.7188 250.708 29.7188 251.523V252.091H22.9915V250.932H28.3551C28.3551 250.439 28.2566 250 28.0597 249.614C27.8665 249.227 27.59 248.922 27.2301 248.699C26.8741 248.475 26.4536 248.364 25.9688 248.364C25.4347 248.364 24.9725 248.496 24.5824 248.761C24.196 249.023 23.8987 249.364 23.6903 249.784C23.482 250.205 23.3778 250.655 23.3778 251.136V251.909C23.3778 252.568 23.4915 253.127 23.7188 253.585C23.9498 254.04 24.2699 254.386 24.679 254.625C25.0881 254.86 25.5634 254.977 26.1051 254.977C26.4574 254.977 26.7756 254.928 27.0597 254.83C27.3475 254.727 27.5956 254.576 27.804 254.375C28.0123 254.17 28.1733 253.917 28.2869 253.614L29.5824 253.977C29.446 254.417 29.2169 254.803 28.8949 255.136C28.5729 255.466 28.1752 255.723 27.7017 255.909C27.2282 256.091 26.696 256.182 26.1051 256.182ZM36.4403 256V244.364H40.5085C41.3191 244.364 41.9877 244.504 42.5142 244.784C43.0407 245.061 43.4328 245.434 43.6903 245.903C43.9479 246.369 44.0767 246.886 44.0767 247.455C44.0767 247.955 43.9877 248.367 43.8097 248.693C43.6354 249.019 43.4044 249.277 43.1165 249.466C42.8324 249.655 42.5237 249.795 42.1903 249.886V250C42.5464 250.023 42.9044 250.148 43.2642 250.375C43.6241 250.602 43.9252 250.928 44.1676 251.352C44.41 251.777 44.5312 252.295 44.5312 252.909C44.5312 253.492 44.3987 254.017 44.1335 254.483C43.8684 254.949 43.4498 255.318 42.8778 255.591C42.3059 255.864 41.5616 256 40.6449 256H36.4403ZM37.8494 254.75H40.6449C41.5653 254.75 42.2188 254.572 42.6051 254.216C42.9953 253.856 43.1903 253.42 43.1903 252.909C43.1903 252.515 43.09 252.152 42.8892 251.818C42.6884 251.481 42.4025 251.212 42.0312 251.011C41.66 250.807 41.2206 250.705 40.7131 250.705H37.8494V254.75ZM37.8494 249.477H40.4631C40.8873 249.477 41.2699 249.394 41.6108 249.227C41.9555 249.061 42.2282 248.826 42.429 248.523C42.6335 248.22 42.7358 247.864 42.7358 247.455C42.7358 246.943 42.5578 246.509 42.2017 246.153C41.8456 245.794 41.2813 245.614 40.5085 245.614H37.8494V249.477ZM48.0057 244.364V256H46.6648V244.364H48.0057ZM54.0071 256.182C53.2192 256.182 52.5279 255.994 51.9332 255.619C51.3423 255.244 50.8802 254.72 50.5469 254.045C50.2173 253.371 50.0526 252.583 50.0526 251.682C50.0526 250.773 50.2173 249.979 50.5469 249.301C50.8802 248.623 51.3423 248.097 51.9332 247.722C52.5279 247.347 53.2192 247.159 54.0071 247.159C54.795 247.159 55.4844 247.347 56.0753 247.722C56.67 248.097 57.1321 248.623 57.4616 249.301C57.795 249.979 57.9616 250.773 57.9616 251.682C57.9616 252.583 57.795 253.371 57.4616 254.045C57.1321 254.72 56.67 255.244 56.0753 255.619C55.4844 255.994 54.795 256.182 54.0071 256.182ZM54.0071 254.977C54.6056 254.977 55.098 254.824 55.4844 254.517C55.8707 254.21 56.1567 253.807 56.3423 253.307C56.5279 252.807 56.6207 252.265 56.6207 251.682C56.6207 251.098 56.5279 250.555 56.3423 250.051C56.1567 249.547 55.8707 249.14 55.4844 248.83C55.098 248.519 54.6056 248.364 54.0071 248.364C53.4086 248.364 52.9162 248.519 52.5298 248.83C52.1435 249.14 51.8575 249.547 51.6719 250.051C51.4863 250.555 51.3935 251.098 51.3935 251.682C51.3935 252.265 51.4863 252.807 51.6719 253.307C51.8575 253.807 52.1435 254.21 52.5298 254.517C52.9162 254.824 53.4086 254.977 54.0071 254.977ZM63.554 256.182C62.7358 256.182 62.0313 255.989 61.4403 255.602C60.8494 255.216 60.3949 254.684 60.0767 254.006C59.7585 253.328 59.5994 252.553 59.5994 251.682C59.5994 250.795 59.7623 250.013 60.0881 249.335C60.4176 248.653 60.8759 248.121 61.4631 247.739C62.054 247.352 62.7434 247.159 63.5312 247.159C64.1449 247.159 64.6979 247.273 65.1903 247.5C65.6828 247.727 66.0862 248.045 66.4006 248.455C66.715 248.864 66.91 249.341 66.9858 249.886H65.6449C65.5426 249.489 65.3153 249.136 64.9631 248.83C64.6146 248.519 64.1449 248.364 63.554 248.364C63.0313 248.364 62.5729 248.5 62.179 248.773C61.7888 249.042 61.4839 249.422 61.2642 249.915C61.0483 250.403 60.9403 250.977 60.9403 251.636C60.9403 252.311 61.0464 252.898 61.2585 253.398C61.4744 253.898 61.7775 254.286 62.1676 254.562C62.5616 254.839 63.0237 254.977 63.554 254.977C63.9025 254.977 64.2188 254.917 64.5028 254.795C64.7869 254.674 65.0275 254.5 65.2244 254.273C65.4214 254.045 65.5616 253.773 65.6449 253.455H66.9858C66.91 253.97 66.7225 254.434 66.4233 254.847C66.1278 255.256 65.7358 255.581 65.2472 255.824C64.7623 256.062 64.1979 256.182 63.554 256.182ZM70.196 252.818L70.1733 251.159H70.446L74.2642 247.273H75.9233L71.8551 251.386H71.7415L70.196 252.818ZM68.946 256V244.364H70.2869V256H68.946ZM74.4915 256L71.0824 251.682L72.0369 250.75L76.196 256H74.4915ZM82.331 256V244.364H86.2628C87.1757 244.364 87.9219 244.528 88.5014 244.858C89.0848 245.184 89.5166 245.625 89.7969 246.182C90.0772 246.739 90.2173 247.36 90.2173 248.045C90.2173 248.731 90.0772 249.354 89.7969 249.915C89.5204 250.475 89.0923 250.922 88.5128 251.256C87.9332 251.585 87.1908 251.75 86.2855 251.75H83.4673V250.5H86.2401C86.8651 250.5 87.367 250.392 87.7457 250.176C88.1245 249.96 88.3991 249.669 88.5696 249.301C88.7438 248.93 88.831 248.511 88.831 248.045C88.831 247.58 88.7438 247.163 88.5696 246.795C88.3991 246.428 88.1226 246.14 87.7401 245.932C87.3575 245.72 86.8499 245.614 86.2173 245.614H83.7401V256H82.331ZM92.3054 256V247.273H93.6009V248.591H93.6918C93.8509 248.159 94.1387 247.809 94.5554 247.54C94.9721 247.271 95.4418 247.136 95.9645 247.136C96.063 247.136 96.1861 247.138 96.3338 247.142C96.4815 247.146 96.5933 247.152 96.669 247.159V248.523C96.6236 248.511 96.5194 248.494 96.3565 248.472C96.1974 248.445 96.0289 248.432 95.8509 248.432C95.4266 248.432 95.0478 248.521 94.7145 248.699C94.3849 248.873 94.1236 249.116 93.9304 249.426C93.741 249.733 93.6463 250.083 93.6463 250.477V256H92.3054ZM101.538 256.182C100.75 256.182 100.059 255.994 99.4645 255.619C98.8736 255.244 98.4115 254.72 98.0781 254.045C97.7486 253.371 97.5838 252.583 97.5838 251.682C97.5838 250.773 97.7486 249.979 98.0781 249.301C98.4115 248.623 98.8736 248.097 99.4645 247.722C100.059 247.347 100.75 247.159 101.538 247.159C102.326 247.159 103.016 247.347 103.607 247.722C104.201 248.097 104.663 248.623 104.993 249.301C105.326 249.979 105.493 250.773 105.493 251.682C105.493 252.583 105.326 253.371 104.993 254.045C104.663 254.72 104.201 255.244 103.607 255.619C103.016 255.994 102.326 256.182 101.538 256.182ZM101.538 254.977C102.137 254.977 102.629 254.824 103.016 254.517C103.402 254.21 103.688 253.807 103.874 253.307C104.059 252.807 104.152 252.265 104.152 251.682C104.152 251.098 104.059 250.555 103.874 250.051C103.688 249.547 103.402 249.14 103.016 248.83C102.629 248.519 102.137 248.364 101.538 248.364C100.94 248.364 100.447 248.519 100.061 248.83C99.6747 249.14 99.3887 249.547 99.2031 250.051C99.0175 250.555 98.9247 251.098 98.9247 251.682C98.9247 252.265 99.0175 252.807 99.2031 253.307C99.3887 253.807 99.6747 254.21 100.061 254.517C100.447 254.824 100.94 254.977 101.538 254.977ZM111.335 247.273V248.409H106.812V247.273H111.335ZM108.131 245.182H109.472V253.5C109.472 253.879 109.527 254.163 109.636 254.352C109.75 254.538 109.894 254.663 110.068 254.727C110.246 254.788 110.434 254.818 110.631 254.818C110.778 254.818 110.9 254.811 110.994 254.795C111.089 254.777 111.165 254.761 111.222 254.75L111.494 255.955C111.403 255.989 111.277 256.023 111.114 256.057C110.951 256.095 110.744 256.114 110.494 256.114C110.116 256.114 109.744 256.032 109.381 255.869C109.021 255.706 108.722 255.458 108.483 255.125C108.248 254.792 108.131 254.371 108.131 253.864V245.182ZM116.804 256.182C116.016 256.182 115.325 255.994 114.73 255.619C114.139 255.244 113.677 254.72 113.344 254.045C113.014 253.371 112.849 252.583 112.849 251.682C112.849 250.773 113.014 249.979 113.344 249.301C113.677 248.623 114.139 248.097 114.73 247.722C115.325 247.347 116.016 247.159 116.804 247.159C117.592 247.159 118.281 247.347 118.872 247.722C119.467 248.097 119.929 248.623 120.259 249.301C120.592 249.979 120.759 250.773 120.759 251.682C120.759 252.583 120.592 253.371 120.259 254.045C119.929 254.72 119.467 255.244 118.872 255.619C118.281 255.994 117.592 256.182 116.804 256.182ZM116.804 254.977C117.402 254.977 117.895 254.824 118.281 254.517C118.668 254.21 118.954 253.807 119.139 253.307C119.325 252.807 119.418 252.265 119.418 251.682C119.418 251.098 119.325 250.555 119.139 250.051C118.954 249.547 118.668 249.14 118.281 248.83C117.895 248.519 117.402 248.364 116.804 248.364C116.205 248.364 115.713 248.519 115.327 248.83C114.94 249.14 114.654 249.547 114.469 250.051C114.283 250.555 114.19 251.098 114.19 251.682C114.19 252.265 114.283 252.807 114.469 253.307C114.654 253.807 114.94 254.21 115.327 254.517C115.713 254.824 116.205 254.977 116.804 254.977ZM126.351 256.182C125.533 256.182 124.828 255.989 124.237 255.602C123.646 255.216 123.192 254.684 122.874 254.006C122.555 253.328 122.396 252.553 122.396 251.682C122.396 250.795 122.559 250.013 122.885 249.335C123.214 248.653 123.673 248.121 124.26 247.739C124.851 247.352 125.54 247.159 126.328 247.159C126.942 247.159 127.495 247.273 127.987 247.5C128.48 247.727 128.883 248.045 129.197 248.455C129.512 248.864 129.707 249.341 129.783 249.886H128.442C128.339 249.489 128.112 249.136 127.76 248.83C127.411 248.519 126.942 248.364 126.351 248.364C125.828 248.364 125.37 248.5 124.976 248.773C124.586 249.042 124.281 249.422 124.061 249.915C123.845 250.403 123.737 250.977 123.737 251.636C123.737 252.311 123.843 252.898 124.055 253.398C124.271 253.898 124.574 254.286 124.964 254.562C125.358 254.839 125.821 254.977 126.351 254.977C126.699 254.977 127.016 254.917 127.3 254.795C127.584 254.674 127.824 254.5 128.021 254.273C128.218 254.045 128.358 253.773 128.442 253.455H129.783C129.707 253.97 129.519 254.434 129.22 254.847C128.925 255.256 128.533 255.581 128.044 255.824C127.559 256.062 126.995 256.182 126.351 256.182ZM135.288 256.182C134.5 256.182 133.809 255.994 133.214 255.619C132.624 255.244 132.161 254.72 131.828 254.045C131.499 253.371 131.334 252.583 131.334 251.682C131.334 250.773 131.499 249.979 131.828 249.301C132.161 248.623 132.624 248.097 133.214 247.722C133.809 247.347 134.5 247.159 135.288 247.159C136.076 247.159 136.766 247.347 137.357 247.722C137.951 248.097 138.413 248.623 138.743 249.301C139.076 249.979 139.243 250.773 139.243 251.682C139.243 252.583 139.076 253.371 138.743 254.045C138.413 254.72 137.951 255.244 137.357 255.619C136.766 255.994 136.076 256.182 135.288 256.182ZM135.288 254.977C135.887 254.977 136.379 254.824 136.766 254.517C137.152 254.21 137.438 253.807 137.624 253.307C137.809 252.807 137.902 252.265 137.902 251.682C137.902 251.098 137.809 250.555 137.624 250.051C137.438 249.547 137.152 249.14 136.766 248.83C136.379 248.519 135.887 248.364 135.288 248.364C134.69 248.364 134.197 248.519 133.811 248.83C133.425 249.14 133.139 249.547 132.953 250.051C132.768 250.555 132.675 251.098 132.675 251.682C132.675 252.265 132.768 252.807 132.953 253.307C133.139 253.807 133.425 254.21 133.811 254.517C134.197 254.824 134.69 254.977 135.288 254.977ZM142.631 244.364V256H141.29V244.364H142.631ZM149.768 256V244.364H151.109V248.659H151.223C151.321 248.508 151.458 248.314 151.632 248.08C151.81 247.841 152.064 247.629 152.393 247.443C152.727 247.254 153.178 247.159 153.746 247.159C154.481 247.159 155.128 247.343 155.689 247.71C156.25 248.078 156.687 248.598 157.001 249.273C157.316 249.947 157.473 250.742 157.473 251.659C157.473 252.583 157.316 253.384 157.001 254.062C156.687 254.737 156.251 255.259 155.695 255.631C155.138 255.998 154.496 256.182 153.768 256.182C153.208 256.182 152.759 256.089 152.422 255.903C152.085 255.714 151.825 255.5 151.643 255.261C151.462 255.019 151.321 254.818 151.223 254.659H151.064V256H149.768ZM151.087 251.636C151.087 252.295 151.183 252.877 151.376 253.381C151.57 253.881 151.852 254.273 152.223 254.557C152.594 254.837 153.049 254.977 153.587 254.977C154.147 254.977 154.615 254.83 154.99 254.534C155.369 254.235 155.653 253.833 155.842 253.33C156.036 252.822 156.132 252.258 156.132 251.636C156.132 251.023 156.037 250.47 155.848 249.977C155.662 249.481 155.38 249.089 155.001 248.801C154.626 248.509 154.155 248.364 153.587 248.364C153.041 248.364 152.583 248.502 152.212 248.778C151.84 249.051 151.56 249.434 151.371 249.926C151.181 250.415 151.087 250.985 151.087 251.636ZM160.865 244.364V256H159.524V244.364H160.865ZM166.866 256.182C166.079 256.182 165.387 255.994 164.793 255.619C164.202 255.244 163.74 254.72 163.406 254.045C163.077 253.371 162.912 252.583 162.912 251.682C162.912 250.773 163.077 249.979 163.406 249.301C163.74 248.623 164.202 248.097 164.793 247.722C165.387 247.347 166.079 247.159 166.866 247.159C167.654 247.159 168.344 247.347 168.935 247.722C169.529 248.097 169.991 248.623 170.321 249.301C170.654 249.979 170.821 250.773 170.821 251.682C170.821 252.583 170.654 253.371 170.321 254.045C169.991 254.72 169.529 255.244 168.935 255.619C168.344 255.994 167.654 256.182 166.866 256.182ZM166.866 254.977C167.465 254.977 167.957 254.824 168.344 254.517C168.73 254.21 169.016 253.807 169.202 253.307C169.387 252.807 169.48 252.265 169.48 251.682C169.48 251.098 169.387 250.555 169.202 250.051C169.016 249.547 168.73 249.14 168.344 248.83C167.957 248.519 167.465 248.364 166.866 248.364C166.268 248.364 165.776 248.519 165.389 248.83C165.003 249.14 164.717 249.547 164.531 250.051C164.346 250.555 164.253 251.098 164.253 251.682C164.253 252.265 164.346 252.807 164.531 253.307C164.717 253.807 165.003 254.21 165.389 254.517C165.776 254.824 166.268 254.977 166.866 254.977ZM176.413 256.182C175.595 256.182 174.891 255.989 174.3 255.602C173.709 255.216 173.254 254.684 172.936 254.006C172.618 253.328 172.459 252.553 172.459 251.682C172.459 250.795 172.622 250.013 172.947 249.335C173.277 248.653 173.735 248.121 174.322 247.739C174.913 247.352 175.603 247.159 176.391 247.159C177.004 247.159 177.557 247.273 178.05 247.5C178.542 247.727 178.946 248.045 179.26 248.455C179.574 248.864 179.769 249.341 179.845 249.886H178.504C178.402 249.489 178.175 249.136 177.822 248.83C177.474 248.519 177.004 248.364 176.413 248.364C175.891 248.364 175.432 248.5 175.038 248.773C174.648 249.042 174.343 249.422 174.124 249.915C173.908 250.403 173.8 250.977 173.8 251.636C173.8 252.311 173.906 252.898 174.118 253.398C174.334 253.898 174.637 254.286 175.027 254.562C175.421 254.839 175.883 254.977 176.413 254.977C176.762 254.977 177.078 254.917 177.362 254.795C177.646 254.674 177.887 254.5 178.084 254.273C178.281 254.045 178.421 253.773 178.504 253.455H179.845C179.769 253.97 179.582 254.434 179.283 254.847C178.987 255.256 178.595 255.581 178.107 255.824C177.622 256.062 177.057 256.182 176.413 256.182ZM183.055 252.818L183.033 251.159H183.305L187.124 247.273H188.783L184.714 251.386H184.601L183.055 252.818ZM181.805 256V244.364H183.146V256H181.805ZM187.351 256L183.942 251.682L184.896 250.75L189.055 256H187.351ZM196.69 249.227L195.486 249.568C195.41 249.367 195.298 249.172 195.151 248.983C195.007 248.79 194.81 248.631 194.56 248.506C194.31 248.381 193.99 248.318 193.599 248.318C193.065 248.318 192.62 248.441 192.264 248.688C191.912 248.93 191.736 249.239 191.736 249.614C191.736 249.947 191.857 250.21 192.099 250.403C192.342 250.597 192.721 250.758 193.236 250.886L194.531 251.205C195.312 251.394 195.893 251.684 196.276 252.074C196.658 252.46 196.849 252.958 196.849 253.568C196.849 254.068 196.705 254.515 196.418 254.909C196.134 255.303 195.736 255.614 195.224 255.841C194.713 256.068 194.118 256.182 193.44 256.182C192.55 256.182 191.813 255.989 191.23 255.602C190.647 255.216 190.277 254.652 190.122 253.909L191.395 253.591C191.516 254.061 191.745 254.413 192.082 254.648C192.423 254.883 192.868 255 193.418 255C194.043 255 194.539 254.867 194.906 254.602C195.277 254.333 195.463 254.011 195.463 253.636C195.463 253.333 195.357 253.08 195.145 252.875C194.933 252.667 194.607 252.511 194.168 252.409L192.713 252.068C191.914 251.879 191.327 251.585 190.952 251.188C190.58 250.786 190.395 250.284 190.395 249.682C190.395 249.189 190.533 248.754 190.81 248.375C191.09 247.996 191.471 247.699 191.952 247.483C192.437 247.267 192.986 247.159 193.599 247.159C194.463 247.159 195.141 247.348 195.634 247.727C196.13 248.106 196.482 248.606 196.69 249.227ZM4.20455 275L1.54545 266.273H2.95455L4.84091 272.955H4.93182L6.79545 266.273H8.22727L10.0682 272.932H10.1591L12.0455 266.273H13.4545L10.7955 275H9.47727L7.56818 268.295H7.43182L5.52273 275H4.20455ZM15.2273 275V266.273H16.5682V275H15.2273ZM15.9091 264.818C15.6477 264.818 15.4223 264.729 15.233 264.551C15.0473 264.373 14.9545 264.159 14.9545 263.909C14.9545 263.659 15.0473 263.445 15.233 263.267C15.4223 263.089 15.6477 263 15.9091 263C16.1705 263 16.3939 263.089 16.5795 263.267C16.7689 263.445 16.8636 263.659 16.8636 263.909C16.8636 264.159 16.7689 264.373 16.5795 264.551C16.3939 264.729 16.1705 264.818 15.9091 264.818ZM22.8196 266.273V267.409H18.2969V266.273H22.8196ZM19.6151 264.182H20.956V272.5C20.956 272.879 21.0109 273.163 21.1207 273.352C21.2344 273.538 21.3783 273.663 21.5526 273.727C21.7306 273.788 21.9181 273.818 22.1151 273.818C22.2628 273.818 22.384 273.811 22.4787 273.795C22.5734 273.777 22.6491 273.761 22.706 273.75L22.9787 274.955C22.8878 274.989 22.7609 275.023 22.598 275.057C22.4351 275.095 22.2287 275.114 21.9787 275.114C21.5999 275.114 21.2287 275.032 20.8651 274.869C20.5052 274.706 20.206 274.458 19.9673 274.125C19.7325 273.792 19.6151 273.371 19.6151 272.864V264.182ZM26.3651 269.75V275H25.0241V263.364H26.3651V267.636H26.4787C26.6832 267.186 26.9901 266.828 27.3991 266.562C27.812 266.294 28.3613 266.159 29.0469 266.159C29.6416 266.159 30.1624 266.278 30.6094 266.517C31.0563 266.752 31.4029 267.114 31.6491 267.602C31.8991 268.087 32.0241 268.705 32.0241 269.455V275H30.6832V269.545C30.6832 268.852 30.5033 268.316 30.1435 267.938C29.7874 267.555 29.2931 267.364 28.6605 267.364C28.2211 267.364 27.8272 267.456 27.4787 267.642C27.134 267.828 26.8613 268.098 26.6605 268.455C26.4635 268.811 26.3651 269.242 26.3651 269.75ZM34.4773 275V266.273H35.8182V275H34.4773ZM35.1591 264.818C34.8977 264.818 34.6723 264.729 34.483 264.551C34.2973 264.373 34.2045 264.159 34.2045 263.909C34.2045 263.659 34.2973 263.445 34.483 263.267C34.6723 263.089 34.8977 263 35.1591 263C35.4205 263 35.6439 263.089 35.8295 263.267C36.0189 263.445 36.1136 263.659 36.1136 263.909C36.1136 264.159 36.0189 264.373 35.8295 264.551C35.6439 264.729 35.4205 264.818 35.1591 264.818ZM39.6151 269.75V275H38.2741V266.273H39.5696V267.636H39.6832C39.8878 267.193 40.1984 266.837 40.6151 266.568C41.0317 266.295 41.5696 266.159 42.2287 266.159C42.8196 266.159 43.3366 266.28 43.7798 266.523C44.223 266.761 44.5677 267.125 44.8139 267.614C45.0601 268.098 45.1832 268.712 45.1832 269.455V275H43.8423V269.545C43.8423 268.86 43.6643 268.326 43.3082 267.943C42.9522 267.557 42.4635 267.364 41.8423 267.364C41.4143 267.364 41.0317 267.456 40.6946 267.642C40.3613 267.828 40.098 268.098 39.9048 268.455C39.7116 268.811 39.6151 269.242 39.6151 269.75ZM55.929 266.273V267.409H51.4062V266.273H55.929ZM52.7244 264.182H54.0653V272.5C54.0653 272.879 54.1203 273.163 54.2301 273.352C54.3438 273.538 54.4877 273.663 54.6619 273.727C54.84 273.788 55.0275 273.818 55.2244 273.818C55.3722 273.818 55.4934 273.811 55.5881 273.795C55.6828 273.777 55.7585 273.761 55.8153 273.75L56.0881 274.955C55.9972 274.989 55.8703 275.023 55.7074 275.057C55.5445 275.095 55.3381 275.114 55.0881 275.114C54.7093 275.114 54.3381 275.032 53.9744 274.869C53.6146 274.706 53.3153 274.458 53.0767 274.125C52.8419 273.792 52.7244 273.371 52.7244 272.864V264.182ZM59.4744 269.75V275H58.1335V263.364H59.4744V267.636H59.5881C59.7926 267.186 60.0994 266.828 60.5085 266.562C60.9214 266.294 61.4706 266.159 62.1562 266.159C62.7509 266.159 63.2718 266.278 63.7188 266.517C64.1657 266.752 64.5123 267.114 64.7585 267.602C65.0085 268.087 65.1335 268.705 65.1335 269.455V275H63.7926V269.545C63.7926 268.852 63.6127 268.316 63.2528 267.938C62.8968 267.555 62.4025 267.364 61.7699 267.364C61.3305 267.364 60.9366 267.456 60.5881 267.642C60.2434 267.828 59.9706 268.098 59.7699 268.455C59.5729 268.811 59.4744 269.242 59.4744 269.75ZM71.2457 275.182C70.4048 275.182 69.6795 274.996 69.0696 274.625C68.4635 274.25 67.9957 273.727 67.6662 273.057C67.3404 272.383 67.1776 271.598 67.1776 270.705C67.1776 269.811 67.3404 269.023 67.6662 268.341C67.9957 267.655 68.4541 267.121 69.0412 266.739C69.6321 266.352 70.3215 266.159 71.1094 266.159C71.5639 266.159 72.0128 266.235 72.456 266.386C72.8991 266.538 73.3026 266.784 73.6662 267.125C74.0298 267.462 74.3196 267.909 74.5355 268.466C74.7514 269.023 74.8594 269.708 74.8594 270.523V271.091H68.1321V269.932H73.4957C73.4957 269.439 73.3973 269 73.2003 268.614C73.0071 268.227 72.7306 267.922 72.3707 267.699C72.0147 267.475 71.5942 267.364 71.1094 267.364C70.5753 267.364 70.1132 267.496 69.723 267.761C69.3366 268.023 69.0393 268.364 68.831 268.784C68.6226 269.205 68.5185 269.655 68.5185 270.136V270.909C68.5185 271.568 68.6321 272.127 68.8594 272.585C69.0904 273.04 69.4105 273.386 69.8196 273.625C70.2287 273.86 70.7041 273.977 71.2457 273.977C71.598 273.977 71.9162 273.928 72.2003 273.83C72.4882 273.727 72.7363 273.576 72.9446 273.375C73.1529 273.17 73.3139 272.917 73.4276 272.614L74.723 272.977C74.5866 273.417 74.3575 273.803 74.0355 274.136C73.7135 274.466 73.3158 274.723 72.8423 274.909C72.3688 275.091 71.8366 275.182 71.2457 275.182ZM85.0582 275.182C84.2173 275.182 83.492 274.996 82.8821 274.625C82.276 274.25 81.8082 273.727 81.4787 273.057C81.1529 272.383 80.9901 271.598 80.9901 270.705C80.9901 269.811 81.1529 269.023 81.4787 268.341C81.8082 267.655 82.2666 267.121 82.8537 266.739C83.4446 266.352 84.134 266.159 84.9219 266.159C85.3764 266.159 85.8253 266.235 86.2685 266.386C86.7116 266.538 87.1151 266.784 87.4787 267.125C87.8423 267.462 88.1321 267.909 88.348 268.466C88.5639 269.023 88.6719 269.708 88.6719 270.523V271.091H81.9446V269.932H87.3082C87.3082 269.439 87.2098 269 87.0128 268.614C86.8196 268.227 86.5431 267.922 86.1832 267.699C85.8272 267.475 85.4067 267.364 84.9219 267.364C84.3878 267.364 83.9257 267.496 83.5355 267.761C83.1491 268.023 82.8518 268.364 82.6435 268.784C82.4351 269.205 82.331 269.655 82.331 270.136V270.909C82.331 271.568 82.4446 272.127 82.6719 272.585C82.9029 273.04 83.223 273.386 83.6321 273.625C84.0412 273.86 84.5166 273.977 85.0582 273.977C85.4105 273.977 85.7287 273.928 86.0128 273.83C86.3007 273.727 86.5488 273.576 86.7571 273.375C86.9654 273.17 87.1264 272.917 87.2401 272.614L88.5355 272.977C88.3991 273.417 88.17 273.803 87.848 274.136C87.526 274.466 87.1283 274.723 86.6548 274.909C86.1813 275.091 85.6491 275.182 85.0582 275.182ZM94.0071 275.182C93.2798 275.182 92.6378 274.998 92.081 274.631C91.5241 274.259 91.0885 273.737 90.7741 273.062C90.4598 272.384 90.3026 271.583 90.3026 270.659C90.3026 269.742 90.4598 268.947 90.7741 268.273C91.0885 267.598 91.526 267.078 92.0866 266.71C92.6473 266.343 93.295 266.159 94.0298 266.159C94.598 266.159 95.0469 266.254 95.3764 266.443C95.7098 266.629 95.9635 266.841 96.1378 267.08C96.3158 267.314 96.4541 267.508 96.5526 267.659H96.6662V263.364H98.0071V275H96.7116V273.659H96.5526C96.4541 273.818 96.3139 274.019 96.1321 274.261C95.9503 274.5 95.6908 274.714 95.3537 274.903C95.0166 275.089 94.5677 275.182 94.0071 275.182ZM94.1889 273.977C94.7268 273.977 95.1813 273.837 95.5526 273.557C95.9238 273.273 96.206 272.881 96.3991 272.381C96.5923 271.877 96.6889 271.295 96.6889 270.636C96.6889 269.985 96.5942 269.415 96.4048 268.926C96.2154 268.434 95.9351 268.051 95.5639 267.778C95.1927 267.502 94.7344 267.364 94.1889 267.364C93.6207 267.364 93.1473 267.509 92.7685 267.801C92.3935 268.089 92.1113 268.481 91.9219 268.977C91.7363 269.47 91.6435 270.023 91.6435 270.636C91.6435 271.258 91.7382 271.822 91.9276 272.33C92.1207 272.833 92.4048 273.235 92.7798 273.534C93.1586 273.83 93.6283 273.977 94.1889 273.977ZM100.649 275V266.273H101.99V275H100.649ZM101.331 264.818C101.07 264.818 100.844 264.729 100.655 264.551C100.469 264.373 100.376 264.159 100.376 263.909C100.376 263.659 100.469 263.445 100.655 263.267C100.844 263.089 101.07 263 101.331 263C101.592 263 101.816 263.089 102.001 263.267C102.191 263.445 102.286 263.659 102.286 263.909C102.286 264.159 102.191 264.373 102.001 264.551C101.816 264.729 101.592 264.818 101.331 264.818ZM108.241 266.273V267.409H103.719V266.273H108.241ZM105.037 264.182H106.378V272.5C106.378 272.879 106.433 273.163 106.543 273.352C106.656 273.538 106.8 273.663 106.974 273.727C107.152 273.788 107.34 273.818 107.537 273.818C107.685 273.818 107.806 273.811 107.901 273.795C107.995 273.777 108.071 273.761 108.128 273.75L108.401 274.955C108.31 274.989 108.183 275.023 108.02 275.057C107.857 275.095 107.651 275.114 107.401 275.114C107.022 275.114 106.651 275.032 106.287 274.869C105.927 274.706 105.628 274.458 105.389 274.125C105.154 273.792 105.037 273.371 105.037 272.864V264.182ZM113.71 275.182C112.922 275.182 112.231 274.994 111.636 274.619C111.045 274.244 110.583 273.72 110.25 273.045C109.92 272.371 109.756 271.583 109.756 270.682C109.756 269.773 109.92 268.979 110.25 268.301C110.583 267.623 111.045 267.097 111.636 266.722C112.231 266.347 112.922 266.159 113.71 266.159C114.498 266.159 115.188 266.347 115.778 266.722C116.373 267.097 116.835 267.623 117.165 268.301C117.498 268.979 117.665 269.773 117.665 270.682C117.665 271.583 117.498 272.371 117.165 273.045C116.835 273.72 116.373 274.244 115.778 274.619C115.188 274.994 114.498 275.182 113.71 275.182ZM113.71 273.977C114.309 273.977 114.801 273.824 115.188 273.517C115.574 273.21 115.86 272.807 116.045 272.307C116.231 271.807 116.324 271.265 116.324 270.682C116.324 270.098 116.231 269.555 116.045 269.051C115.86 268.547 115.574 268.14 115.188 267.83C114.801 267.519 114.309 267.364 113.71 267.364C113.112 267.364 112.619 267.519 112.233 267.83C111.847 268.14 111.561 268.547 111.375 269.051C111.189 269.555 111.097 270.098 111.097 270.682C111.097 271.265 111.189 271.807 111.375 272.307C111.561 272.807 111.847 273.21 112.233 273.517C112.619 273.824 113.112 273.977 113.71 273.977ZM119.712 275V266.273H121.007V267.591H121.098C121.257 267.159 121.545 266.809 121.962 266.54C122.378 266.271 122.848 266.136 123.371 266.136C123.469 266.136 123.592 266.138 123.74 266.142C123.888 266.146 124 266.152 124.075 266.159V267.523C124.03 267.511 123.926 267.494 123.763 267.472C123.604 267.445 123.435 267.432 123.257 267.432C122.833 267.432 122.454 267.521 122.121 267.699C121.791 267.873 121.53 268.116 121.337 268.426C121.147 268.733 121.053 269.083 121.053 269.477V275H119.712Z" fill="#CF5B23"/>
<defs>
<filter id="filter0_i_44_613" x="0" y="-3" width="288.402" height="228" filterUnits="userSpaceOnUse" color-interpolation-filters="sRGB">
<feFlood flood-opacity="0" result="BackgroundImageFix"/>
<feBlend mode="normal" in="SourceGraphic" in2="BackgroundImageFix" result="shape"/>
<feColorMatrix in="SourceAlpha" type="matrix" values="0 0 0 0 0 0 0 0 0 0 0 0 0 0 0 0 0 0 127 0" result="hardAlpha"/>
<feOffset dy="-3"/>
<feGaussianBlur stdDeviation="3"/>
<feComposite in2="hardAlpha" operator="arithmetic" k2="-1" k3="1"/>
<feColorMatrix type="matrix" values="0 0 0 0 0.378472 0 0 0 0 0.431458 0 0 0 0 0.454167 0 0 0 0.25 0"/>
<feBlend mode="normal" in2="shape" result="effect1_innerShadow_44_613"/>
</filter>
<filter id="filter1_i_44_613" x="91.9243" y="148.773" width="145.447" height="76.2268" filterUnits="userSpaceOnUse" color-interpolation-filters="sRGB">
<feFlood flood-opacity="0" result="BackgroundImageFix"/>
<feBlend mode="normal" in="SourceGraphic" in2="BackgroundImageFix" result="shape"/>
<feColorMatrix in="SourceAlpha" type="matrix" values="0 0 0 0 0 0 0 0 0 0 0 0 0 0 0 0 0 0 127 0" result="hardAlpha"/>
<feOffset dy="-2"/>
<feGaussianBlur stdDeviation="3"/>
<feComposite in2="hardAlpha" operator="arithmetic" k2="-1" k3="1"/>
<feColorMatrix type="matrix" values="0 0 0 0 0.904167 0 0 0 0 0.636495 0 0 0 0 0.350365 0 0 0 0.5 0"/>
<feBlend mode="normal" in2="shape" result="effect1_innerShadow_44_613"/>
</filter>
<filter id="filter2_i_44_613" x="91.9241" y="34.3403" width="145.447" height="107.155" filterUnits="userSpaceOnUse" color-interpolation-filters="sRGB">
<feFlood flood-opacity="0" result="BackgroundImageFix"/>
<feBlend mode="normal" in="SourceGraphic" in2="BackgroundImageFix" result="shape"/>
<feColorMatrix in="SourceAlpha" type="matrix" values="0 0 0 0 0 0 0 0 0 0 0 0 0 0 0 0 0 0 127 0" result="hardAlpha"/>
<feOffset dy="-2"/>
<feGaussianBlur stdDeviation="3"/>
<feComposite in2="hardAlpha" operator="arithmetic" k2="-1" k3="1"/>
<feColorMatrix type="matrix" values="0 0 0 0 0.904167 0 0 0 0 0.636495 0 0 0 0 0.350365 0 0 0 0.5 0"/>
<feBlend mode="normal" in2="shape" result="effect1_innerShadow_44_613"/>
</filter>
</defs>
</svg>
