<svg width="417" height="375" viewBox="0 0 417 375" fill="none" xmlns="http://www.w3.org/2000/svg">
<g opacity="0.9">
<rect x="18" y="82" width="258" height="258" rx="3" fill="white" stroke="#DDE7F0" stroke-width="2"/>
<path d="M55.0378 194.371C55.2425 194.556 55.5587 194.54 55.744 194.335L58.7634 190.999C58.9487 190.794 58.9329 190.478 58.7282 190.293C58.5234 190.107 58.2072 190.123 58.0219 190.328L55.338 193.294L52.3721 190.61C52.1674 190.425 51.8512 190.44 51.6659 190.645C51.4806 190.85 51.4964 191.166 51.7011 191.351L55.0378 194.371ZM108.249 33.4386C108.215 33.1645 107.965 32.9699 107.691 33.0038L103.225 33.5564C102.951 33.5903 102.756 33.8399 102.79 34.114C102.824 34.3881 103.074 34.5827 103.348 34.5488L107.318 34.0576L107.809 38.0273C107.843 38.3014 108.092 38.4961 108.366 38.4622C108.64 38.4282 108.835 38.1786 108.801 37.9045L108.249 33.4386ZM107.358 33.1925C77.1474 71.9352 51.048 117.375 54.8739 194.025L55.8727 193.975C52.0624 117.641 78.0291 72.4308 108.147 33.8075L107.358 33.1925Z" fill="#FFC180"/>
<path d="M230.104 144.805C230.272 145.024 230.586 145.065 230.805 144.896C231.024 144.727 231.064 144.413 230.896 144.195L230.104 144.805ZM230.896 144.195C198.053 101.58 205.596 52.4729 219.337 0.628096L218.371 0.371904C204.63 52.2166 196.939 101.774 230.104 144.805L230.896 144.195Z" fill="#FFC180"/>
<rect x="298" y="82" width="118" height="118" rx="3" fill="white" stroke="#DDE7F0" stroke-width="2"/>
<rect x="298" y="222" width="118" height="118" rx="3" fill="white" stroke="#DDE7F0" stroke-width="2"/>
<circle cx="109" cy="139" r="8" fill="#FFC180"/>
<circle cx="143" cy="162" r="8" fill="#FFC180"/>
<circle opacity="0.8" cx="150" cy="169" r="8" fill="#FFC180"/>
<circle opacity="0.6" cx="161" cy="176" r="8" fill="#FFC180"/>
<circle opacity="0.4" cx="173" cy="178" r="8" fill="#FFC180"/>
<circle opacity="0.2" cx="194" cy="175" r="8" fill="#FFC180"/>
<circle cx="170" cy="128" r="8" fill="#FFC180"/>
<circle cx="215" cy="227" r="8" fill="#FFC180"/>
<circle opacity="0.8" cx="221" cy="236" r="8" fill="#FFC180"/>
<circle opacity="0.6" cx="223" cy="248" r="8" fill="#FFC180"/>
<circle opacity="0.4" cx="221" cy="261" r="8" fill="#FFC180"/>
<circle opacity="0.2" cx="210" cy="278" r="8" fill="#FFC180"/>
<circle cx="125" cy="211" r="8" fill="#FFC180"/>
<circle cx="171" cy="258" r="8" fill="#FFC180"/>
<circle cx="124" cy="290" r="8" fill="#FFC180"/>
<circle cx="56" cy="207" r="8" fill="#FFC180"/>
<circle cx="240" cy="158" r="8" fill="#FFC180"/>
<circle cx="394.431" cy="293.606" r="3.79831" transform="rotate(-150 394.431 293.606)" fill="#FFC180"/>
<circle cx="385.894" cy="279.906" r="3.79831" transform="rotate(-150 385.894 279.906)" fill="#FFC180"/>
<circle cx="368.395" cy="295.021" r="3.79831" transform="rotate(-150 368.395 295.021)" fill="#FFC180"/>
<circle cx="373.137" cy="257.787" r="3.79831" transform="rotate(-150 373.137 257.787)" fill="#FFC180"/>
<circle opacity="0.6" cx="373.137" cy="262.189" r="3.79831" transform="rotate(-150 373.137 262.189)" fill="#FFC180"/>
<circle opacity="0.4" cx="373.137" cy="268.189" r="3.79831" transform="rotate(-150 373.137 268.189)" fill="#FFC180"/>
<circle opacity="0.2" cx="373.137" cy="277.189" r="3.79831" transform="rotate(-150 373.137 277.189)" fill="#FFC180"/>
<circle cx="339.908" cy="313.141" r="3.79831" transform="rotate(-150 339.908 313.141)" fill="#FFC180"/>
<circle cx="338.009" cy="281.805" r="3.79831" transform="rotate(-150 338.009 281.805)" fill="#FFC180"/>
<circle cx="343.082" cy="262.364" r="3.79831" transform="rotate(-150 343.082 262.364)" fill="#FFC180"/>
<circle cx="320.429" cy="271.215" r="3.79831" transform="rotate(-150 320.429 271.215)" fill="#FFC180"/>
<circle cx="333.723" cy="248.189" r="3.79831" transform="rotate(-150 333.723 248.189)" fill="#FFC180"/>
<circle cx="319.816" cy="139.115" r="3.81609" fill="#FFC180"/>
<circle cx="344.621" cy="120.988" r="3.81609" fill="#FFC180"/>
<circle cx="346.529" cy="141.023" r="3.81609" fill="#FFC180"/>
<circle cx="359.885" cy="141.023" r="3.81609" fill="#FFC180"/>
<circle cx="359.885" cy="154.379" r="3.81609" fill="#FFC180"/>
<circle cx="395.184" cy="103.816" r="3.81609" fill="#FFC180"/>
<circle opacity="0.6" cx="392.816" cy="111.816" r="3.81609" fill="#FFC180"/>
<circle opacity="0.4" cx="384.816" cy="117.816" r="3.81609" fill="#FFC180"/>
<circle opacity="0.2" cx="369.816" cy="119.816" r="3.81609" fill="#FFC180"/>
<circle cx="395.184" cy="158.195" r="3.81609" fill="#FFC180"/>
<circle cx="395.184" cy="145.793" r="3.81609" fill="#FFC180"/>
<circle cx="379.92" cy="179.184" r="3.81609" fill="#FFC180"/>
<rect x="65" y="355" width="211" height="5" rx="2.5" fill="#DDE7F0"/>
<mask id="path-48-inside-1_244_5290" fill="white">
<rect x="190" y="347" width="11" height="21" rx="1"/>
</mask>
<rect x="190" y="347" width="11" height="21" rx="1" fill="white" stroke="#DDE7F0" stroke-width="4" mask="url(#path-48-inside-1_244_5290)"/>
<rect x="17" y="339" width="36" height="36" rx="2" fill="#DDE7F0"/>
<path d="M44.6445 356.152C45.2708 356.544 45.2708 357.456 44.6445 357.848L29.5303 367.301C28.8642 367.718 28 367.239 28 366.453L28 347.547C28 346.761 28.8642 346.282 29.5303 346.699L44.6445 356.152Z" fill="white"/>
<g filter="url(#filter0_f_244_5290)">
<rect x="6" y="11" width="196" height="53" fill="white"/>
</g>
<path d="M20.8182 22.3636V34H19.4091V22.3636H20.8182ZM23.4616 34V25.2727H24.7571V26.6364H24.8707C25.0526 26.1705 25.3461 25.8087 25.7514 25.5511C26.1567 25.2898 26.6435 25.1591 27.2116 25.1591C27.7874 25.1591 28.2666 25.2898 28.6491 25.5511C29.0355 25.8087 29.3366 26.1705 29.5526 26.6364H29.6435C29.867 26.1856 30.2022 25.8277 30.6491 25.5625C31.0961 25.2936 31.6321 25.1591 32.2571 25.1591C33.0374 25.1591 33.6757 25.4034 34.1719 25.892C34.6681 26.3769 34.9162 27.1326 34.9162 28.1591V34H33.5753V28.1591C33.5753 27.5152 33.3991 27.0549 33.0469 26.7784C32.6946 26.5019 32.2798 26.3636 31.8026 26.3636C31.1889 26.3636 30.7135 26.5492 30.3764 26.9205C30.0393 27.2879 29.8707 27.7538 29.8707 28.3182V34H28.5071V28.0227C28.5071 27.5265 28.3461 27.1269 28.0241 26.8239C27.7022 26.517 27.2874 26.3636 26.7798 26.3636C26.4313 26.3636 26.1056 26.4564 25.8026 26.642C25.5033 26.8277 25.2609 27.0852 25.0753 27.4148C24.8935 27.7405 24.8026 28.1174 24.8026 28.5455V34H23.4616ZM37.3679 37.2727V25.2727H38.6634V26.6591H38.8224C38.9209 26.5076 39.0573 26.3144 39.2315 26.0795C39.4096 25.8409 39.6634 25.6288 39.9929 25.4432C40.3262 25.2538 40.777 25.1591 41.3452 25.1591C42.08 25.1591 42.7277 25.3428 43.2884 25.7102C43.849 26.0777 44.2865 26.5985 44.6009 27.2727C44.9152 27.947 45.0724 28.7424 45.0724 29.6591C45.0724 30.5833 44.9152 31.3845 44.6009 32.0625C44.2865 32.7367 43.8509 33.2595 43.294 33.6307C42.7372 33.9981 42.0952 34.1818 41.3679 34.1818C40.8073 34.1818 40.3584 34.089 40.0213 33.9034C39.6842 33.714 39.4247 33.5 39.2429 33.2614C39.0611 33.0189 38.9209 32.8182 38.8224 32.6591H38.7088V37.2727H37.3679ZM38.6861 29.6364C38.6861 30.2955 38.7827 30.8769 38.9759 31.3807C39.169 31.8807 39.4512 32.2727 39.8224 32.5568C40.1937 32.8371 40.6482 32.9773 41.1861 32.9773C41.7467 32.9773 42.2145 32.8295 42.5895 32.5341C42.9683 32.2348 43.2524 31.8333 43.4418 31.3295C43.6349 30.822 43.7315 30.2576 43.7315 29.6364C43.7315 29.0227 43.6368 28.4697 43.4474 27.9773C43.2618 27.4811 42.9796 27.089 42.6009 26.8011C42.2259 26.5095 41.7543 26.3636 41.1861 26.3636C40.6406 26.3636 40.1823 26.5019 39.8111 26.7784C39.4399 27.0511 39.1596 27.4337 38.9702 27.9261C38.7808 28.4148 38.6861 28.9848 38.6861 29.6364ZM50.6634 34.1818C49.8755 34.1818 49.1842 33.9943 48.5895 33.6193C47.9986 33.2443 47.5365 32.7197 47.2031 32.0455C46.8736 31.3712 46.7088 30.5833 46.7088 29.6818C46.7088 28.7727 46.8736 27.9792 47.2031 27.3011C47.5365 26.6231 47.9986 26.0966 48.5895 25.7216C49.1842 25.3466 49.8755 25.1591 50.6634 25.1591C51.4512 25.1591 52.1406 25.3466 52.7315 25.7216C53.3262 26.0966 53.7884 26.6231 54.1179 27.3011C54.4512 27.9792 54.6179 28.7727 54.6179 29.6818C54.6179 30.5833 54.4512 31.3712 54.1179 32.0455C53.7884 32.7197 53.3262 33.2443 52.7315 33.6193C52.1406 33.9943 51.4512 34.1818 50.6634 34.1818ZM50.6634 32.9773C51.2618 32.9773 51.7543 32.8239 52.1406 32.517C52.527 32.2102 52.813 31.8068 52.9986 31.3068C53.1842 30.8068 53.277 30.2652 53.277 29.6818C53.277 29.0985 53.1842 28.5549 52.9986 28.0511C52.813 27.5473 52.527 27.1402 52.1406 26.8295C51.7543 26.5189 51.2618 26.3636 50.6634 26.3636C50.0649 26.3636 49.5724 26.5189 49.1861 26.8295C48.7997 27.1402 48.5137 27.5473 48.3281 28.0511C48.1425 28.5549 48.0497 29.0985 48.0497 29.6818C48.0497 30.2652 48.1425 30.8068 48.3281 31.3068C48.5137 31.8068 48.7997 32.2102 49.1861 32.517C49.5724 32.8239 50.0649 32.9773 50.6634 32.9773ZM56.6648 34V25.2727H57.9602V26.5909H58.0511C58.2102 26.1591 58.4981 25.8087 58.9148 25.5398C59.3314 25.2708 59.8011 25.1364 60.3239 25.1364C60.4223 25.1364 60.5455 25.1383 60.6932 25.142C60.8409 25.1458 60.9527 25.1515 61.0284 25.1591V26.5227C60.983 26.5114 60.8788 26.4943 60.7159 26.4716C60.5568 26.4451 60.3883 26.4318 60.2102 26.4318C59.786 26.4318 59.4072 26.5208 59.0739 26.6989C58.7443 26.8731 58.483 27.1155 58.2898 27.4261C58.1004 27.733 58.0057 28.0833 58.0057 28.4773V34H56.6648ZM66.9602 25.2727V26.4091H62.4375V25.2727H66.9602ZM63.7557 23.1818H65.0966V31.5C65.0966 31.8788 65.1515 32.1629 65.2614 32.3523C65.375 32.5379 65.5189 32.6629 65.6932 32.7273C65.8712 32.7879 66.0587 32.8182 66.2557 32.8182C66.4034 32.8182 66.5246 32.8106 66.6193 32.7955C66.714 32.7765 66.7898 32.7614 66.8466 32.75L67.1193 33.9545C67.0284 33.9886 66.9015 34.0227 66.7386 34.0568C66.5758 34.0947 66.3693 34.1136 66.1193 34.1136C65.7405 34.1136 65.3693 34.0322 65.0057 33.8693C64.6458 33.7064 64.3466 33.4583 64.108 33.125C63.8731 32.7917 63.7557 32.3712 63.7557 31.8636V23.1818ZM79.6591 27.2273L78.4545 27.5682C78.3788 27.3674 78.267 27.1723 78.1193 26.983C77.9754 26.7898 77.7784 26.6307 77.5284 26.5057C77.2784 26.3807 76.9583 26.3182 76.5682 26.3182C76.0341 26.3182 75.589 26.4413 75.233 26.6875C74.8807 26.9299 74.7045 27.2386 74.7045 27.6136C74.7045 27.947 74.8258 28.2102 75.0682 28.4034C75.3106 28.5966 75.6894 28.7576 76.2045 28.8864L77.5 29.2045C78.2803 29.3939 78.8617 29.6837 79.2443 30.0739C79.6269 30.4602 79.8182 30.9583 79.8182 31.5682C79.8182 32.0682 79.6742 32.5152 79.3864 32.9091C79.1023 33.303 78.7045 33.6136 78.1932 33.8409C77.6818 34.0682 77.0871 34.1818 76.4091 34.1818C75.5189 34.1818 74.7822 33.9886 74.1989 33.6023C73.6155 33.2159 73.2462 32.6515 73.0909 31.9091L74.3636 31.5909C74.4848 32.0606 74.714 32.4129 75.0511 32.6477C75.392 32.8826 75.8371 33 76.3864 33C77.0114 33 77.5076 32.8674 77.875 32.6023C78.2462 32.3333 78.4318 32.0114 78.4318 31.6364C78.4318 31.3333 78.3258 31.0795 78.1136 30.875C77.9015 30.6667 77.5758 30.5114 77.1364 30.4091L75.6818 30.0682C74.8826 29.8788 74.2955 29.5852 73.9205 29.1875C73.5492 28.786 73.3636 28.2841 73.3636 27.6818C73.3636 27.1894 73.5019 26.7538 73.7784 26.375C74.0587 25.9962 74.4394 25.6989 74.9205 25.483C75.4053 25.267 75.9545 25.1591 76.5682 25.1591C77.4318 25.1591 78.1098 25.3485 78.6023 25.7273C79.0985 26.1061 79.4508 26.6061 79.6591 27.2273ZM85.6321 25.2727V26.4091H81.1094V25.2727H85.6321ZM82.4276 23.1818H83.7685V31.5C83.7685 31.8788 83.8234 32.1629 83.9332 32.3523C84.0469 32.5379 84.1908 32.6629 84.3651 32.7273C84.5431 32.7879 84.7306 32.8182 84.9276 32.8182C85.0753 32.8182 85.1965 32.8106 85.2912 32.7955C85.3859 32.7765 85.4616 32.7614 85.5185 32.75L85.7912 33.9545C85.7003 33.9886 85.5734 34.0227 85.4105 34.0568C85.2476 34.0947 85.0412 34.1136 84.7912 34.1136C84.4124 34.1136 84.0412 34.0322 83.6776 33.8693C83.3177 33.7064 83.0185 33.4583 82.7798 33.125C82.545 32.7917 82.4276 32.3712 82.4276 31.8636V23.1818ZM87.6491 34V25.2727H88.9446V26.5909H89.0355C89.1946 26.1591 89.4825 25.8087 89.8991 25.5398C90.3158 25.2708 90.7855 25.1364 91.3082 25.1364C91.4067 25.1364 91.5298 25.1383 91.6776 25.142C91.8253 25.1458 91.937 25.1515 92.0128 25.1591V26.5227C91.9673 26.5114 91.8632 26.4943 91.7003 26.4716C91.5412 26.4451 91.3726 26.4318 91.1946 26.4318C90.7704 26.4318 90.3916 26.5208 90.0582 26.6989C89.7287 26.8731 89.4673 27.1155 89.2741 27.4261C89.0848 27.733 88.9901 28.0833 88.9901 28.4773V34H87.6491ZM99.1023 30.4318V25.2727H100.443V34H99.1023V32.5227H99.0114C98.8068 32.9659 98.4886 33.3428 98.0568 33.6534C97.625 33.9602 97.0795 34.1136 96.4205 34.1136C95.875 34.1136 95.3902 33.9943 94.9659 33.7557C94.5417 33.5133 94.2083 33.1496 93.9659 32.6648C93.7235 32.1761 93.6023 31.5606 93.6023 30.8182V25.2727H94.9432V30.7273C94.9432 31.3636 95.1212 31.8712 95.4773 32.25C95.8371 32.6288 96.2955 32.8182 96.8523 32.8182C97.1856 32.8182 97.5246 32.733 97.8693 32.5625C98.2178 32.392 98.5095 32.1307 98.7443 31.7784C98.983 31.4261 99.1023 30.9773 99.1023 30.4318ZM106.445 34.1818C105.626 34.1818 104.922 33.9886 104.331 33.6023C103.74 33.2159 103.286 32.6837 102.967 32.0057C102.649 31.3277 102.49 30.553 102.49 29.6818C102.49 28.7955 102.653 28.0133 102.979 27.3352C103.308 26.6534 103.767 26.1212 104.354 25.7386C104.945 25.3523 105.634 25.1591 106.422 25.1591C107.036 25.1591 107.589 25.2727 108.081 25.5C108.573 25.7273 108.977 26.0455 109.291 26.4545C109.606 26.8636 109.801 27.3409 109.876 27.8864H108.536C108.433 27.4886 108.206 27.1364 107.854 26.8295C107.505 26.5189 107.036 26.3636 106.445 26.3636C105.922 26.3636 105.464 26.5 105.07 26.7727C104.679 27.0417 104.375 27.4223 104.155 27.9148C103.939 28.4034 103.831 28.9773 103.831 29.6364C103.831 30.3106 103.937 30.8977 104.149 31.3977C104.365 31.8977 104.668 32.286 105.058 32.5625C105.452 32.839 105.914 32.9773 106.445 32.9773C106.793 32.9773 107.109 32.9167 107.393 32.7955C107.678 32.6742 107.918 32.5 108.115 32.2727C108.312 32.0455 108.452 31.7727 108.536 31.4545H109.876C109.801 31.9697 109.613 32.4337 109.314 32.8466C109.018 33.2557 108.626 33.5814 108.138 33.8239C107.653 34.0625 107.089 34.1818 106.445 34.1818ZM115.632 25.2727V26.4091H111.109V25.2727H115.632ZM112.428 23.1818H113.768V31.5C113.768 31.8788 113.823 32.1629 113.933 32.3523C114.047 32.5379 114.191 32.6629 114.365 32.7273C114.543 32.7879 114.731 32.8182 114.928 32.8182C115.075 32.8182 115.196 32.8106 115.291 32.7955C115.386 32.7765 115.462 32.7614 115.518 32.75L115.791 33.9545C115.7 33.9886 115.573 34.0227 115.411 34.0568C115.248 34.0947 115.041 34.1136 114.791 34.1136C114.412 34.1136 114.041 34.0322 113.678 33.8693C113.318 33.7064 113.018 33.4583 112.78 33.125C112.545 32.7917 112.428 32.3712 112.428 31.8636V23.1818ZM123.149 30.4318V25.2727H124.49V34H123.149V32.5227H123.058C122.854 32.9659 122.536 33.3428 122.104 33.6534C121.672 33.9602 121.126 34.1136 120.467 34.1136C119.922 34.1136 119.437 33.9943 119.013 33.7557C118.589 33.5133 118.255 33.1496 118.013 32.6648C117.77 32.1761 117.649 31.5606 117.649 30.8182V25.2727H118.99V30.7273C118.99 31.3636 119.168 31.8712 119.524 32.25C119.884 32.6288 120.342 32.8182 120.899 32.8182C121.232 32.8182 121.571 32.733 121.916 32.5625C122.265 32.392 122.556 32.1307 122.791 31.7784C123.03 31.4261 123.149 30.9773 123.149 30.4318ZM126.946 34V25.2727H128.241V26.5909H128.332C128.491 26.1591 128.779 25.8087 129.196 25.5398C129.613 25.2708 130.082 25.1364 130.605 25.1364C130.704 25.1364 130.827 25.1383 130.974 25.142C131.122 25.1458 131.234 25.1515 131.31 25.1591V26.5227C131.264 26.5114 131.16 26.4943 130.997 26.4716C130.838 26.4451 130.67 26.4318 130.491 26.4318C130.067 26.4318 129.688 26.5208 129.355 26.6989C129.026 26.8731 128.764 27.1155 128.571 27.4261C128.382 27.733 128.287 28.0833 128.287 28.4773V34H126.946ZM136.293 34.1818C135.452 34.1818 134.726 33.9962 134.116 33.625C133.51 33.25 133.043 32.7273 132.713 32.0568C132.387 31.3826 132.224 30.5985 132.224 29.7045C132.224 28.8106 132.387 28.0227 132.713 27.3409C133.043 26.6553 133.501 26.1212 134.088 25.7386C134.679 25.3523 135.368 25.1591 136.156 25.1591C136.611 25.1591 137.06 25.2348 137.503 25.3864C137.946 25.5379 138.349 25.7841 138.713 26.125C139.077 26.4621 139.366 26.9091 139.582 27.4659C139.798 28.0227 139.906 28.7083 139.906 29.5227V30.0909H133.179V28.9318H138.543C138.543 28.4394 138.444 28 138.247 27.6136C138.054 27.2273 137.777 26.9223 137.418 26.6989C137.062 26.4754 136.641 26.3636 136.156 26.3636C135.622 26.3636 135.16 26.4962 134.77 26.7614C134.384 27.0227 134.086 27.3636 133.878 27.7841C133.67 28.2045 133.565 28.6553 133.565 29.1364V29.9091C133.565 30.5682 133.679 31.1269 133.906 31.5852C134.137 32.0398 134.457 32.3864 134.866 32.625C135.276 32.8598 135.751 32.9773 136.293 32.9773C136.645 32.9773 136.963 32.928 137.247 32.8295C137.535 32.7273 137.783 32.5758 137.991 32.375C138.2 32.1705 138.361 31.9167 138.474 31.6136L139.77 31.9773C139.634 32.4167 139.404 32.803 139.082 33.1364C138.76 33.4659 138.363 33.7235 137.889 33.9091C137.416 34.0909 136.884 34.1818 136.293 34.1818ZM145.241 34.1818C144.514 34.1818 143.872 33.9981 143.315 33.6307C142.759 33.2595 142.323 32.7367 142.009 32.0625C141.694 31.3845 141.537 30.5833 141.537 29.6591C141.537 28.7424 141.694 27.947 142.009 27.2727C142.323 26.5985 142.76 26.0777 143.321 25.7102C143.882 25.3428 144.529 25.1591 145.264 25.1591C145.832 25.1591 146.281 25.2538 146.611 25.4432C146.944 25.6288 147.198 25.8409 147.372 26.0795C147.55 26.3144 147.688 26.5076 147.787 26.6591H147.901V22.3636H149.241V34H147.946V32.6591H147.787C147.688 32.8182 147.548 33.0189 147.366 33.2614C147.185 33.5 146.925 33.714 146.588 33.9034C146.251 34.089 145.802 34.1818 145.241 34.1818ZM145.423 32.9773C145.961 32.9773 146.416 32.8371 146.787 32.5568C147.158 32.2727 147.44 31.8807 147.634 31.3807C147.827 30.8769 147.923 30.2955 147.923 29.6364C147.923 28.9848 147.829 28.4148 147.639 27.9261C147.45 27.4337 147.17 27.0511 146.798 26.7784C146.427 26.5019 145.969 26.3636 145.423 26.3636C144.855 26.3636 144.382 26.5095 144.003 26.8011C143.628 27.089 143.346 27.4811 143.156 27.9773C142.971 28.4697 142.878 29.0227 142.878 29.6364C142.878 30.2576 142.973 30.822 143.162 31.3295C143.355 31.8333 143.639 32.2348 144.014 32.5341C144.393 32.8295 144.863 32.9773 145.423 32.9773ZM159.679 34.1818C158.952 34.1818 158.31 33.9981 157.753 33.6307C157.196 33.2595 156.76 32.7367 156.446 32.0625C156.132 31.3845 155.974 30.5833 155.974 29.6591C155.974 28.7424 156.132 27.947 156.446 27.2727C156.76 26.5985 157.198 26.0777 157.759 25.7102C158.319 25.3428 158.967 25.1591 159.702 25.1591C160.27 25.1591 160.719 25.2538 161.048 25.4432C161.382 25.6288 161.635 25.8409 161.81 26.0795C161.988 26.3144 162.126 26.5076 162.224 26.6591H162.338V22.3636H163.679V34H162.384V32.6591H162.224C162.126 32.8182 161.986 33.0189 161.804 33.2614C161.622 33.5 161.363 33.714 161.026 33.9034C160.688 34.089 160.24 34.1818 159.679 34.1818ZM159.861 32.9773C160.399 32.9773 160.853 32.8371 161.224 32.5568C161.596 32.2727 161.878 31.8807 162.071 31.3807C162.264 30.8769 162.361 30.2955 162.361 29.6364C162.361 28.9848 162.266 28.4148 162.077 27.9261C161.887 27.4337 161.607 27.0511 161.236 26.7784C160.865 26.5019 160.406 26.3636 159.861 26.3636C159.293 26.3636 158.819 26.5095 158.44 26.8011C158.065 27.089 157.783 27.4811 157.594 27.9773C157.408 28.4697 157.315 29.0227 157.315 29.6364C157.315 30.2576 157.41 30.822 157.599 31.3295C157.793 31.8333 158.077 32.2348 158.452 32.5341C158.83 32.8295 159.3 32.9773 159.861 32.9773ZM168.889 34.2045C168.336 34.2045 167.834 34.1004 167.384 33.892C166.933 33.6799 166.575 33.375 166.31 32.9773C166.045 32.5758 165.912 32.0909 165.912 31.5227C165.912 31.0227 166.01 30.6174 166.207 30.3068C166.404 29.9924 166.668 29.7462 166.997 29.5682C167.327 29.3902 167.69 29.2576 168.088 29.1705C168.49 29.0795 168.893 29.0076 169.298 28.9545C169.829 28.8864 170.259 28.8352 170.588 28.8011C170.921 28.7633 171.164 28.7008 171.315 28.6136C171.471 28.5265 171.548 28.375 171.548 28.1591V28.1136C171.548 27.553 171.395 27.1174 171.088 26.8068C170.785 26.4962 170.325 26.3409 169.707 26.3409C169.067 26.3409 168.565 26.4811 168.202 26.7614C167.838 27.0417 167.582 27.3409 167.435 27.6591L166.162 27.2045C166.389 26.6742 166.692 26.2614 167.071 25.9659C167.454 25.6667 167.87 25.4583 168.321 25.3409C168.776 25.2197 169.223 25.1591 169.662 25.1591C169.942 25.1591 170.264 25.1932 170.628 25.2614C170.995 25.3258 171.349 25.4602 171.69 25.6648C172.035 25.8693 172.321 26.178 172.548 26.5909C172.776 27.0038 172.889 27.5568 172.889 28.25V34H171.548V32.8182H171.48C171.389 33.0076 171.238 33.2102 171.026 33.4261C170.813 33.642 170.531 33.8258 170.179 33.9773C169.827 34.1288 169.397 34.2045 168.889 34.2045ZM169.094 33C169.624 33 170.071 32.8958 170.435 32.6875C170.802 32.4792 171.079 32.2102 171.264 31.8807C171.454 31.5511 171.548 31.2045 171.548 30.8409V29.6136C171.491 29.6818 171.366 29.7443 171.173 29.8011C170.984 29.8542 170.764 29.9015 170.514 29.9432C170.268 29.9811 170.027 30.0152 169.793 30.0455C169.562 30.072 169.374 30.0947 169.23 30.1136C168.882 30.1591 168.556 30.233 168.253 30.3352C167.954 30.4337 167.711 30.5833 167.526 30.7841C167.344 30.9811 167.253 31.25 167.253 31.5909C167.253 32.0568 167.425 32.4091 167.77 32.6477C168.118 32.8826 168.56 33 169.094 33ZM179.132 25.2727V26.4091H174.609V25.2727H179.132ZM175.928 23.1818H177.268V31.5C177.268 31.8788 177.323 32.1629 177.433 32.3523C177.547 32.5379 177.691 32.6629 177.865 32.7273C178.043 32.7879 178.231 32.8182 178.428 32.8182C178.575 32.8182 178.696 32.8106 178.791 32.7955C178.886 32.7765 178.962 32.7614 179.018 32.75L179.291 33.9545C179.2 33.9886 179.073 34.0227 178.911 34.0568C178.748 34.0947 178.541 34.1136 178.291 34.1136C177.912 34.1136 177.541 34.0322 177.178 33.8693C176.818 33.7064 176.518 33.4583 176.28 33.125C176.045 32.7917 175.928 32.3712 175.928 31.8636V23.1818ZM183.717 34.2045C183.164 34.2045 182.662 34.1004 182.212 33.892C181.761 33.6799 181.403 33.375 181.138 32.9773C180.873 32.5758 180.74 32.0909 180.74 31.5227C180.74 31.0227 180.839 30.6174 181.036 30.3068C181.232 29.9924 181.496 29.7462 181.825 29.5682C182.155 29.3902 182.518 29.2576 182.916 29.1705C183.318 29.0795 183.721 29.0076 184.126 28.9545C184.657 28.8864 185.087 28.8352 185.416 28.8011C185.75 28.7633 185.992 28.7008 186.143 28.6136C186.299 28.5265 186.376 28.375 186.376 28.1591V28.1136C186.376 27.553 186.223 27.1174 185.916 26.8068C185.613 26.4962 185.153 26.3409 184.536 26.3409C183.895 26.3409 183.393 26.4811 183.03 26.7614C182.666 27.0417 182.411 27.3409 182.263 27.6591L180.99 27.2045C181.217 26.6742 181.52 26.2614 181.899 25.9659C182.282 25.6667 182.698 25.4583 183.149 25.3409C183.604 25.2197 184.051 25.1591 184.49 25.1591C184.77 25.1591 185.092 25.1932 185.456 25.2614C185.823 25.3258 186.178 25.4602 186.518 25.6648C186.863 25.8693 187.149 26.178 187.376 26.5909C187.604 27.0038 187.717 27.5568 187.717 28.25V34H186.376V32.8182H186.308C186.217 33.0076 186.066 33.2102 185.854 33.4261C185.642 33.642 185.359 33.8258 185.007 33.9773C184.655 34.1288 184.225 34.2045 183.717 34.2045ZM183.922 33C184.452 33 184.899 32.8958 185.263 32.6875C185.63 32.4792 185.907 32.2102 186.092 31.8807C186.282 31.5511 186.376 31.2045 186.376 30.8409V29.6136C186.32 29.6818 186.195 29.7443 186.001 29.8011C185.812 29.8542 185.592 29.9015 185.342 29.9432C185.096 29.9811 184.856 30.0152 184.621 30.0455C184.39 30.072 184.202 30.0947 184.058 30.1136C183.71 30.1591 183.384 30.233 183.081 30.3352C182.782 30.4337 182.539 30.5833 182.354 30.7841C182.172 30.9811 182.081 31.25 182.081 31.5909C182.081 32.0568 182.253 32.4091 182.598 32.6477C182.946 32.8826 183.388 33 183.922 33ZM23.0227 44.2727V45.4091H18.5V44.2727H23.0227ZM19.8182 42.1818H21.1591V50.5C21.1591 50.8788 21.214 51.1629 21.3239 51.3523C21.4375 51.5379 21.5814 51.6629 21.7557 51.7273C21.9337 51.7879 22.1212 51.8182 22.3182 51.8182C22.4659 51.8182 22.5871 51.8106 22.6818 51.7955C22.7765 51.7765 22.8523 51.7614 22.9091 51.75L23.1818 52.9545C23.0909 52.9886 22.964 53.0227 22.8011 53.0568C22.6383 53.0947 22.4318 53.1136 22.1818 53.1136C21.803 53.1136 21.4318 53.0322 21.0682 52.8693C20.7083 52.7064 20.4091 52.4583 20.1705 52.125C19.9356 51.7917 19.8182 51.3712 19.8182 50.8636V42.1818ZM28.4915 53.1818C27.7036 53.1818 27.0123 52.9943 26.4176 52.6193C25.8267 52.2443 25.3646 51.7197 25.0312 51.0455C24.7017 50.3712 24.5369 49.5833 24.5369 48.6818C24.5369 47.7727 24.7017 46.9792 25.0312 46.3011C25.3646 45.6231 25.8267 45.0966 26.4176 44.7216C27.0123 44.3466 27.7036 44.1591 28.4915 44.1591C29.2794 44.1591 29.9688 44.3466 30.5597 44.7216C31.1544 45.0966 31.6165 45.6231 31.946 46.3011C32.2794 46.9792 32.446 47.7727 32.446 48.6818C32.446 49.5833 32.2794 50.3712 31.946 51.0455C31.6165 51.7197 31.1544 52.2443 30.5597 52.6193C29.9688 52.9943 29.2794 53.1818 28.4915 53.1818ZM28.4915 51.9773C29.09 51.9773 29.5824 51.8239 29.9688 51.517C30.3551 51.2102 30.6411 50.8068 30.8267 50.3068C31.0123 49.8068 31.1051 49.2652 31.1051 48.6818C31.1051 48.0985 31.0123 47.5549 30.8267 47.0511C30.6411 46.5473 30.3551 46.1402 29.9688 45.8295C29.5824 45.5189 29.09 45.3636 28.4915 45.3636C27.893 45.3636 27.4006 45.5189 27.0142 45.8295C26.6278 46.1402 26.3419 46.5473 26.1562 47.0511C25.9706 47.5549 25.8778 48.0985 25.8778 48.6818C25.8778 49.2652 25.9706 49.8068 26.1562 50.3068C26.3419 50.8068 26.6278 51.2102 27.0142 51.517C27.4006 51.8239 27.893 51.9773 28.4915 51.9773ZM38.9929 53V44.2727H40.2884V45.5909H40.3793C40.5384 45.1591 40.8262 44.8087 41.2429 44.5398C41.6596 44.2708 42.1293 44.1364 42.652 44.1364C42.7505 44.1364 42.8736 44.1383 43.0213 44.142C43.169 44.1458 43.2808 44.1515 43.3565 44.1591V45.5227C43.3111 45.5114 43.2069 45.4943 43.044 45.4716C42.8849 45.4451 42.7164 45.4318 42.5384 45.4318C42.1141 45.4318 41.7353 45.5208 41.402 45.6989C41.0724 45.8731 40.8111 46.1155 40.6179 46.4261C40.4285 46.733 40.3338 47.0833 40.3338 47.4773V53H38.9929ZM50.446 49.4318V44.2727H51.7869V53H50.446V51.5227H50.3551C50.1506 51.9659 49.8324 52.3428 49.4006 52.6534C48.9688 52.9602 48.4233 53.1136 47.7642 53.1136C47.2188 53.1136 46.7339 52.9943 46.3097 52.7557C45.8854 52.5133 45.5521 52.1496 45.3097 51.6648C45.0672 51.1761 44.946 50.5606 44.946 49.8182V44.2727H46.2869V49.7273C46.2869 50.3636 46.465 50.8712 46.821 51.25C47.1809 51.6288 47.6392 51.8182 48.196 51.8182C48.5294 51.8182 48.8684 51.733 49.2131 51.5625C49.5616 51.392 49.8532 51.1307 50.0881 50.7784C50.3267 50.4261 50.446 49.9773 50.446 49.4318ZM55.5838 47.75V53H54.2429V44.2727H55.5384V45.6364H55.652C55.8565 45.1932 56.1671 44.8371 56.5838 44.5682C57.0005 44.2955 57.5384 44.1591 58.1974 44.1591C58.7884 44.1591 59.3054 44.2803 59.7486 44.5227C60.1918 44.7614 60.5365 45.125 60.7827 45.6136C61.0289 46.0985 61.152 46.7121 61.152 47.4545V53H59.8111V47.5455C59.8111 46.8598 59.633 46.3258 59.277 45.9432C58.9209 45.5568 58.4323 45.3636 57.8111 45.3636C57.383 45.3636 57.0005 45.4564 56.6634 45.642C56.33 45.8277 56.0668 46.0985 55.8736 46.4545C55.6804 46.8106 55.5838 47.2424 55.5838 47.75ZM74.2841 46.2273L73.0795 46.5682C73.0038 46.3674 72.892 46.1723 72.7443 45.983C72.6004 45.7898 72.4034 45.6307 72.1534 45.5057C71.9034 45.3807 71.5833 45.3182 71.1932 45.3182C70.6591 45.3182 70.214 45.4413 69.858 45.6875C69.5057 45.9299 69.3295 46.2386 69.3295 46.6136C69.3295 46.947 69.4508 47.2102 69.6932 47.4034C69.9356 47.5966 70.3144 47.7576 70.8295 47.8864L72.125 48.2045C72.9053 48.3939 73.4867 48.6837 73.8693 49.0739C74.2519 49.4602 74.4432 49.9583 74.4432 50.5682C74.4432 51.0682 74.2992 51.5152 74.0114 51.9091C73.7273 52.303 73.3295 52.6136 72.8182 52.8409C72.3068 53.0682 71.7121 53.1818 71.0341 53.1818C70.1439 53.1818 69.4072 52.9886 68.8239 52.6023C68.2405 52.2159 67.8712 51.6515 67.7159 50.9091L68.9886 50.5909C69.1098 51.0606 69.339 51.4129 69.6761 51.6477C70.017 51.8826 70.4621 52 71.0114 52C71.6364 52 72.1326 51.8674 72.5 51.6023C72.8712 51.3333 73.0568 51.0114 73.0568 50.6364C73.0568 50.3333 72.9508 50.0795 72.7386 49.875C72.5265 49.6667 72.2008 49.5114 71.7614 49.4091L70.3068 49.0682C69.5076 48.8788 68.9205 48.5852 68.5455 48.1875C68.1742 47.786 67.9886 47.2841 67.9886 46.6818C67.9886 46.1894 68.1269 45.7538 68.4034 45.375C68.6837 44.9962 69.0644 44.6989 69.5455 44.483C70.0303 44.267 70.5795 44.1591 71.1932 44.1591C72.0568 44.1591 72.7348 44.3485 73.2273 44.7273C73.7235 45.1061 74.0758 45.6061 74.2841 46.2273ZM76.4616 53V44.2727H77.8026V53H76.4616ZM77.1435 42.8182C76.8821 42.8182 76.6567 42.7292 76.4673 42.5511C76.2817 42.3731 76.1889 42.1591 76.1889 41.9091C76.1889 41.6591 76.2817 41.4451 76.4673 41.267C76.6567 41.089 76.8821 41 77.1435 41C77.4048 41 77.6283 41.089 77.8139 41.267C78.0033 41.4451 78.098 41.6591 78.098 41.9091C78.098 42.1591 78.0033 42.3731 77.8139 42.5511C77.6283 42.7292 77.4048 42.8182 77.1435 42.8182ZM80.2585 53V44.2727H81.554V45.6364H81.6676C81.8494 45.1705 82.143 44.8087 82.5483 44.5511C82.9536 44.2898 83.4403 44.1591 84.0085 44.1591C84.5843 44.1591 85.0634 44.2898 85.446 44.5511C85.8324 44.8087 86.1335 45.1705 86.3494 45.6364H86.4403C86.6638 45.1856 86.9991 44.8277 87.446 44.5625C87.893 44.2936 88.429 44.1591 89.054 44.1591C89.8343 44.1591 90.4725 44.4034 90.9688 44.892C91.465 45.3769 91.7131 46.1326 91.7131 47.1591V53H90.3722V47.1591C90.3722 46.5152 90.196 46.0549 89.8438 45.7784C89.4915 45.5019 89.0767 45.3636 88.5994 45.3636C87.9858 45.3636 87.5104 45.5492 87.1733 45.9205C86.8362 46.2879 86.6676 46.7538 86.6676 47.3182V53H85.304V47.0227C85.304 46.5265 85.143 46.1269 84.821 45.8239C84.4991 45.517 84.0843 45.3636 83.5767 45.3636C83.2282 45.3636 82.9025 45.4564 82.5994 45.642C82.3002 45.8277 82.0578 46.0852 81.8722 46.4148C81.6903 46.7405 81.5994 47.1174 81.5994 47.5455V53H80.2585ZM99.6648 49.4318V44.2727H101.006V53H99.6648V51.5227H99.5739C99.3693 51.9659 99.0511 52.3428 98.6193 52.6534C98.1875 52.9602 97.642 53.1136 96.983 53.1136C96.4375 53.1136 95.9527 52.9943 95.5284 52.7557C95.1042 52.5133 94.7708 52.1496 94.5284 51.6648C94.286 51.1761 94.1648 50.5606 94.1648 49.8182V44.2727H95.5057V49.7273C95.5057 50.3636 95.6837 50.8712 96.0398 51.25C96.3996 51.6288 96.858 51.8182 97.4148 51.8182C97.7481 51.8182 98.0871 51.733 98.4318 51.5625C98.7803 51.392 99.072 51.1307 99.3068 50.7784C99.5455 50.4261 99.6648 49.9773 99.6648 49.4318ZM104.803 41.3636V53H103.462V41.3636H104.803ZM109.827 53.2045C109.274 53.2045 108.772 53.1004 108.321 52.892C107.87 52.6799 107.512 52.375 107.247 51.9773C106.982 51.5758 106.849 51.0909 106.849 50.5227C106.849 50.0227 106.948 49.6174 107.145 49.3068C107.342 48.9924 107.605 48.7462 107.935 48.5682C108.264 48.3902 108.628 48.2576 109.026 48.1705C109.427 48.0795 109.83 48.0076 110.236 47.9545C110.766 47.8864 111.196 47.8352 111.526 47.8011C111.859 47.7633 112.101 47.7008 112.253 47.6136C112.408 47.5265 112.486 47.375 112.486 47.1591V47.1136C112.486 46.553 112.332 46.1174 112.026 45.8068C111.723 45.4962 111.262 45.3409 110.645 45.3409C110.005 45.3409 109.503 45.4811 109.139 45.7614C108.776 46.0417 108.52 46.3409 108.372 46.6591L107.099 46.2045C107.327 45.6742 107.63 45.2614 108.009 44.9659C108.391 44.6667 108.808 44.4583 109.259 44.3409C109.713 44.2197 110.16 44.1591 110.599 44.1591C110.88 44.1591 111.202 44.1932 111.565 44.2614C111.933 44.3258 112.287 44.4602 112.628 44.6648C112.973 44.8693 113.259 45.178 113.486 45.5909C113.713 46.0038 113.827 46.5568 113.827 47.25V53H112.486V51.8182H112.418C112.327 52.0076 112.175 52.2102 111.963 52.4261C111.751 52.642 111.469 52.8258 111.116 52.9773C110.764 53.1288 110.334 53.2045 109.827 53.2045ZM110.031 52C110.562 52 111.009 51.8958 111.372 51.6875C111.74 51.4792 112.016 51.2102 112.202 50.8807C112.391 50.5511 112.486 50.2045 112.486 49.8409V48.6136C112.429 48.6818 112.304 48.7443 112.111 48.8011C111.921 48.8542 111.702 48.9015 111.452 48.9432C111.205 48.9811 110.965 49.0152 110.73 49.0455C110.499 49.072 110.312 49.0947 110.168 49.1136C109.819 49.1591 109.493 49.233 109.19 49.3352C108.891 49.4337 108.649 49.5833 108.463 49.7841C108.281 49.9811 108.19 50.25 108.19 50.5909C108.19 51.0568 108.363 51.4091 108.707 51.6477C109.056 51.8826 109.497 52 110.031 52ZM120.07 44.2727V45.4091H115.547V44.2727H120.07ZM116.865 42.1818H118.206V50.5C118.206 50.8788 118.261 51.1629 118.371 51.3523C118.484 51.5379 118.628 51.6629 118.803 51.7273C118.981 51.7879 119.168 51.8182 119.365 51.8182C119.513 51.8182 119.634 51.8106 119.729 51.7955C119.823 51.7765 119.899 51.7614 119.956 51.75L120.229 52.9545C120.138 52.9886 120.011 53.0227 119.848 53.0568C119.685 53.0947 119.479 53.1136 119.229 53.1136C118.85 53.1136 118.479 53.0322 118.115 52.8693C117.755 52.7064 117.456 52.4583 117.217 52.125C116.982 51.7917 116.865 51.3712 116.865 50.8636V42.1818ZM122.087 53V44.2727H123.428V53H122.087ZM122.768 42.8182C122.507 42.8182 122.282 42.7292 122.092 42.5511C121.907 42.3731 121.814 42.1591 121.814 41.9091C121.814 41.6591 121.907 41.4451 122.092 41.267C122.282 41.089 122.507 41 122.768 41C123.03 41 123.253 41.089 123.439 41.267C123.628 41.4451 123.723 41.6591 123.723 41.9091C123.723 42.1591 123.628 42.3731 123.439 42.5511C123.253 42.7292 123.03 42.8182 122.768 42.8182ZM129.429 53.1818C128.641 53.1818 127.95 52.9943 127.355 52.6193C126.764 52.2443 126.302 51.7197 125.969 51.0455C125.639 50.3712 125.474 49.5833 125.474 48.6818C125.474 47.7727 125.639 46.9792 125.969 46.3011C126.302 45.6231 126.764 45.0966 127.355 44.7216C127.95 44.3466 128.641 44.1591 129.429 44.1591C130.217 44.1591 130.906 44.3466 131.497 44.7216C132.092 45.0966 132.554 45.6231 132.884 46.3011C133.217 46.9792 133.384 47.7727 133.384 48.6818C133.384 49.5833 133.217 50.3712 132.884 51.0455C132.554 51.7197 132.092 52.2443 131.497 52.6193C130.906 52.9943 130.217 53.1818 129.429 53.1818ZM129.429 51.9773C130.027 51.9773 130.52 51.8239 130.906 51.517C131.293 51.2102 131.579 50.8068 131.764 50.3068C131.95 49.8068 132.043 49.2652 132.043 48.6818C132.043 48.0985 131.95 47.5549 131.764 47.0511C131.579 46.5473 131.293 46.1402 130.906 45.8295C130.52 45.5189 130.027 45.3636 129.429 45.3636C128.83 45.3636 128.338 45.5189 127.952 45.8295C127.565 46.1402 127.279 46.5473 127.094 47.0511C126.908 47.5549 126.815 48.0985 126.815 48.6818C126.815 49.2652 126.908 49.8068 127.094 50.3068C127.279 50.8068 127.565 51.2102 127.952 51.517C128.338 51.8239 128.83 51.9773 129.429 51.9773ZM136.771 47.75V53H135.43V44.2727H136.726V45.6364H136.839C137.044 45.1932 137.355 44.8371 137.771 44.5682C138.188 44.2955 138.726 44.1591 139.385 44.1591C139.976 44.1591 140.493 44.2803 140.936 44.5227C141.379 44.7614 141.724 45.125 141.97 45.6136C142.216 46.0985 142.339 46.7121 142.339 47.4545V53H140.999V47.5455C140.999 46.8598 140.821 46.3258 140.464 45.9432C140.108 45.5568 139.62 45.3636 138.999 45.3636C138.571 45.3636 138.188 45.4564 137.851 45.642C137.518 45.8277 137.254 46.0985 137.061 46.4545C136.868 46.8106 136.771 47.2424 136.771 47.75ZM150.972 46.2273L149.767 46.5682C149.691 46.3674 149.58 46.1723 149.432 45.983C149.288 45.7898 149.091 45.6307 148.841 45.5057C148.591 45.3807 148.271 45.3182 147.881 45.3182C147.347 45.3182 146.902 45.4413 146.545 45.6875C146.193 45.9299 146.017 46.2386 146.017 46.6136C146.017 46.947 146.138 47.2102 146.381 47.4034C146.623 47.5966 147.002 47.7576 147.517 47.8864L148.812 48.2045C149.593 48.3939 150.174 48.6837 150.557 49.0739C150.939 49.4602 151.131 49.9583 151.131 50.5682C151.131 51.0682 150.987 51.5152 150.699 51.9091C150.415 52.303 150.017 52.6136 149.506 52.8409C148.994 53.0682 148.4 53.1818 147.722 53.1818C146.831 53.1818 146.095 52.9886 145.511 52.6023C144.928 52.2159 144.559 51.6515 144.403 50.9091L145.676 50.5909C145.797 51.0606 146.027 51.4129 146.364 51.6477C146.705 51.8826 147.15 52 147.699 52C148.324 52 148.82 51.8674 149.188 51.6023C149.559 51.3333 149.744 51.0114 149.744 50.6364C149.744 50.3333 149.638 50.0795 149.426 49.875C149.214 49.6667 148.888 49.5114 148.449 49.4091L146.994 49.0682C146.195 48.8788 145.608 48.5852 145.233 48.1875C144.862 47.786 144.676 47.2841 144.676 46.6818C144.676 46.1894 144.814 45.7538 145.091 45.375C145.371 44.9962 145.752 44.6989 146.233 44.483C146.718 44.267 147.267 44.1591 147.881 44.1591C148.744 44.1591 149.422 44.3485 149.915 44.7273C150.411 45.1061 150.763 45.6061 150.972 46.2273Z" fill="#CF5B23"/>
</g>
<defs>
<filter id="filter0_f_244_5290" x="0" y="5" width="208" height="65" filterUnits="userSpaceOnUse" color-interpolation-filters="sRGB">
<feFlood flood-opacity="0" result="BackgroundImageFix"/>
<feBlend mode="normal" in="SourceGraphic" in2="BackgroundImageFix" result="shape"/>
<feGaussianBlur stdDeviation="3" result="effect1_foregroundBlur_244_5290"/>
</filter>
</defs>
</svg>
