<svg width="288" height="303" viewBox="0 0 288 303" fill="none" xmlns="http://www.w3.org/2000/svg">
<rect x="1" y="1" width="184.599" height="184.599" rx="3" fill="white" stroke="#DDE7F0" stroke-width="2"/>
<rect x="201.952" y="1" width="84.1224" height="84.1224" rx="3" fill="white" stroke="#DDE7F0" stroke-width="2"/>
<rect x="201.952" y="101.476" width="84.1224" height="84.1224" rx="3" fill="white" stroke="#DDE7F0" stroke-width="2"/>
<circle cx="66.0271" cy="41.6258" r="5.7415" fill="#FFC180"/>
<circle cx="90.4285" cy="58.1326" r="5.7415" fill="#FFC180"/>
<circle opacity="0.8" cx="95.4524" cy="63.1565" r="5.7415" fill="#FFC180"/>
<circle opacity="0.6" cx="103.347" cy="68.1802" r="5.7415" fill="#FFC180"/>
<circle opacity="0.4" cx="111.959" cy="69.6158" r="5.7415" fill="#FFC180"/>
<circle opacity="0.2" cx="127.031" cy="67.4624" r="5.7415" fill="#FFC180"/>
<circle cx="109.806" cy="33.7312" r="5.7415" fill="#FFC180"/>
<circle cx="142.102" cy="104.782" r="5.7415" fill="#FFC180"/>
<circle opacity="0.8" cx="146.408" cy="111.241" r="5.7415" fill="#FFC180"/>
<circle opacity="0.6" cx="147.843" cy="119.854" r="5.7415" fill="#FFC180"/>
<circle opacity="0.4" cx="146.408" cy="129.184" r="5.7415" fill="#FFC180"/>
<circle opacity="0.2" cx="138.513" cy="141.384" r="5.7415" fill="#FFC180"/>
<circle cx="77.5103" cy="93.2994" r="5.7415" fill="#FFC180"/>
<circle cx="110.524" cy="127.031" r="5.7415" fill="#FFC180"/>
<circle cx="76.7925" cy="149.997" r="5.7415" fill="#FFC180"/>
<circle cx="27.9898" cy="90.4285" r="5.7415" fill="#FFC180"/>
<circle cx="160.044" cy="55.262" r="5.7415" fill="#FFC180"/>
<circle cx="270.878" cy="152.585" r="2.726" transform="rotate(-150 270.878 152.585)" fill="#FFC180"/>
<circle cx="264.751" cy="142.752" r="2.726" transform="rotate(-150 264.751 142.752)" fill="#FFC180"/>
<circle cx="252.192" cy="153.6" r="2.726" transform="rotate(-150 252.192 153.6)" fill="#FFC180"/>
<circle cx="255.595" cy="126.878" r="2.726" transform="rotate(-150 255.595 126.878)" fill="#FFC180"/>
<circle opacity="0.6" cx="255.595" cy="130.036" r="2.726" transform="rotate(-150 255.595 130.036)" fill="#FFC180"/>
<circle opacity="0.4" cx="255.595" cy="134.343" r="2.726" transform="rotate(-150 255.595 134.343)" fill="#FFC180"/>
<circle opacity="0.2" cx="255.595" cy="140.802" r="2.726" transform="rotate(-150 255.595 140.802)" fill="#FFC180"/>
<circle cx="231.747" cy="166.604" r="2.726" transform="rotate(-150 231.747 166.604)" fill="#FFC180"/>
<circle cx="230.384" cy="144.115" r="2.726" transform="rotate(-150 230.384 144.115)" fill="#FFC180"/>
<circle cx="234.025" cy="130.162" r="2.726" transform="rotate(-150 234.025 130.162)" fill="#FFC180"/>
<circle cx="217.767" cy="136.514" r="2.726" transform="rotate(-150 217.767 136.514)" fill="#FFC180"/>
<circle cx="227.308" cy="119.989" r="2.726" transform="rotate(-150 227.308 119.989)" fill="#FFC180"/>
<circle cx="217.327" cy="41.708" r="2.73876" fill="#FFC180"/>
<circle cx="235.129" cy="28.699" r="2.73876" fill="#FFC180"/>
<circle cx="236.498" cy="43.0774" r="2.73876" fill="#FFC180"/>
<circle cx="246.084" cy="43.0774" r="2.73876" fill="#FFC180"/>
<circle cx="246.084" cy="52.6633" r="2.73876" fill="#FFC180"/>
<circle cx="271.418" cy="16.3747" r="2.73876" fill="#FFC180"/>
<circle opacity="0.6" cx="269.718" cy="22.116" r="2.73876" fill="#FFC180"/>
<circle opacity="0.4" cx="263.977" cy="26.4224" r="2.73876" fill="#FFC180"/>
<circle opacity="0.2" cx="253.211" cy="27.8577" r="2.73876" fill="#FFC180"/>
<circle cx="271.417" cy="55.4018" r="2.73876" fill="#FFC180"/>
<circle cx="271.417" cy="46.501" r="2.73876" fill="#FFC180"/>
<circle cx="260.463" cy="70.4653" r="2.73876" fill="#FFC180"/>
<rect x="34.449" y="196.646" width="151.432" height="3.58844" rx="1.79422" fill="#DDE7F0"/>
<mask id="path-46-inside-1_44_615" fill="white">
<rect x="124.16" y="190.905" width="7.89456" height="15.0714" rx="1"/>
</mask>
<rect x="124.16" y="190.905" width="7.89456" height="15.0714" rx="1" fill="white" stroke="#DDE7F0" stroke-width="4" mask="url(#path-46-inside-1_44_615)"/>
<rect y="185.163" width="25.8367" height="25.8367" rx="2" fill="#DDE7F0"/>
<path d="M18.6104 197.648C19.2466 198.038 19.2466 198.962 18.6104 199.352L9.52289 204.927C8.85658 205.336 8 204.856 8 204.075L8 192.925C8 192.144 8.85658 191.664 9.52289 192.073L18.6104 197.648Z" fill="white"/>
<path d="M2.81818 230.364V242H1.40909V230.364H2.81818ZM5.46165 242V233.273H6.7571V234.636H6.87074C7.05256 234.17 7.34612 233.809 7.75142 233.551C8.15672 233.29 8.64347 233.159 9.21165 233.159C9.78741 233.159 10.2666 233.29 10.6491 233.551C11.0355 233.809 11.3366 234.17 11.5526 234.636H11.6435C11.867 234.186 12.2022 233.828 12.6491 233.562C13.0961 233.294 13.6321 233.159 14.2571 233.159C15.0374 233.159 15.6757 233.403 16.1719 233.892C16.6681 234.377 16.9162 235.133 16.9162 236.159V242H15.5753V236.159C15.5753 235.515 15.3991 235.055 15.0469 234.778C14.6946 234.502 14.2798 234.364 13.8026 234.364C13.1889 234.364 12.7135 234.549 12.3764 234.92C12.0393 235.288 11.8707 235.754 11.8707 236.318V242H10.5071V236.023C10.5071 235.527 10.3461 235.127 10.0241 234.824C9.70218 234.517 9.28741 234.364 8.77983 234.364C8.43134 234.364 8.10559 234.456 7.80256 234.642C7.50331 234.828 7.26089 235.085 7.07528 235.415C6.89347 235.741 6.80256 236.117 6.80256 236.545V242H5.46165ZM19.3679 245.273V233.273H20.6634V234.659H20.8224C20.9209 234.508 21.0573 234.314 21.2315 234.08C21.4096 233.841 21.6634 233.629 21.9929 233.443C22.3262 233.254 22.777 233.159 23.3452 233.159C24.08 233.159 24.7277 233.343 25.2884 233.71C25.849 234.078 26.2865 234.598 26.6009 235.273C26.9152 235.947 27.0724 236.742 27.0724 237.659C27.0724 238.583 26.9152 239.384 26.6009 240.062C26.2865 240.737 25.8509 241.259 25.294 241.631C24.7372 241.998 24.0952 242.182 23.3679 242.182C22.8073 242.182 22.3584 242.089 22.0213 241.903C21.6842 241.714 21.4247 241.5 21.2429 241.261C21.0611 241.019 20.9209 240.818 20.8224 240.659H20.7088V245.273H19.3679ZM20.6861 237.636C20.6861 238.295 20.7827 238.877 20.9759 239.381C21.169 239.881 21.4512 240.273 21.8224 240.557C22.1937 240.837 22.6482 240.977 23.1861 240.977C23.7467 240.977 24.2145 240.83 24.5895 240.534C24.9683 240.235 25.2524 239.833 25.4418 239.33C25.6349 238.822 25.7315 238.258 25.7315 237.636C25.7315 237.023 25.6368 236.47 25.4474 235.977C25.2618 235.481 24.9796 235.089 24.6009 234.801C24.2259 234.509 23.7543 234.364 23.1861 234.364C22.6406 234.364 22.1823 234.502 21.8111 234.778C21.4399 235.051 21.1596 235.434 20.9702 235.926C20.7808 236.415 20.6861 236.985 20.6861 237.636ZM32.6634 242.182C31.8755 242.182 31.1842 241.994 30.5895 241.619C29.9986 241.244 29.5365 240.72 29.2031 240.045C28.8736 239.371 28.7088 238.583 28.7088 237.682C28.7088 236.773 28.8736 235.979 29.2031 235.301C29.5365 234.623 29.9986 234.097 30.5895 233.722C31.1842 233.347 31.8755 233.159 32.6634 233.159C33.4512 233.159 34.1406 233.347 34.7315 233.722C35.3262 234.097 35.7884 234.623 36.1179 235.301C36.4512 235.979 36.6179 236.773 36.6179 237.682C36.6179 238.583 36.4512 239.371 36.1179 240.045C35.7884 240.72 35.3262 241.244 34.7315 241.619C34.1406 241.994 33.4512 242.182 32.6634 242.182ZM32.6634 240.977C33.2618 240.977 33.7543 240.824 34.1406 240.517C34.527 240.21 34.813 239.807 34.9986 239.307C35.1842 238.807 35.277 238.265 35.277 237.682C35.277 237.098 35.1842 236.555 34.9986 236.051C34.813 235.547 34.527 235.14 34.1406 234.83C33.7543 234.519 33.2618 234.364 32.6634 234.364C32.0649 234.364 31.5724 234.519 31.1861 234.83C30.7997 235.14 30.5137 235.547 30.3281 236.051C30.1425 236.555 30.0497 237.098 30.0497 237.682C30.0497 238.265 30.1425 238.807 30.3281 239.307C30.5137 239.807 30.7997 240.21 31.1861 240.517C31.5724 240.824 32.0649 240.977 32.6634 240.977ZM38.6648 242V233.273H39.9602V234.591H40.0511C40.2102 234.159 40.4981 233.809 40.9148 233.54C41.3314 233.271 41.8011 233.136 42.3239 233.136C42.4223 233.136 42.5455 233.138 42.6932 233.142C42.8409 233.146 42.9527 233.152 43.0284 233.159V234.523C42.983 234.511 42.8788 234.494 42.7159 234.472C42.5568 234.445 42.3883 234.432 42.2102 234.432C41.786 234.432 41.4072 234.521 41.0739 234.699C40.7443 234.873 40.483 235.116 40.2898 235.426C40.1004 235.733 40.0057 236.083 40.0057 236.477V242H38.6648ZM48.9602 233.273V234.409H44.4375V233.273H48.9602ZM45.7557 231.182H47.0966V239.5C47.0966 239.879 47.1515 240.163 47.2614 240.352C47.375 240.538 47.5189 240.663 47.6932 240.727C47.8712 240.788 48.0587 240.818 48.2557 240.818C48.4034 240.818 48.5246 240.811 48.6193 240.795C48.714 240.777 48.7898 240.761 48.8466 240.75L49.1193 241.955C49.0284 241.989 48.9015 242.023 48.7386 242.057C48.5758 242.095 48.3693 242.114 48.1193 242.114C47.7405 242.114 47.3693 242.032 47.0057 241.869C46.6458 241.706 46.3466 241.458 46.108 241.125C45.8731 240.792 45.7557 240.371 45.7557 239.864V231.182ZM61.6591 235.227L60.4545 235.568C60.3788 235.367 60.267 235.172 60.1193 234.983C59.9754 234.79 59.7784 234.631 59.5284 234.506C59.2784 234.381 58.9583 234.318 58.5682 234.318C58.0341 234.318 57.589 234.441 57.233 234.688C56.8807 234.93 56.7045 235.239 56.7045 235.614C56.7045 235.947 56.8258 236.21 57.0682 236.403C57.3106 236.597 57.6894 236.758 58.2045 236.886L59.5 237.205C60.2803 237.394 60.8617 237.684 61.2443 238.074C61.6269 238.46 61.8182 238.958 61.8182 239.568C61.8182 240.068 61.6742 240.515 61.3864 240.909C61.1023 241.303 60.7045 241.614 60.1932 241.841C59.6818 242.068 59.0871 242.182 58.4091 242.182C57.5189 242.182 56.7822 241.989 56.1989 241.602C55.6155 241.216 55.2462 240.652 55.0909 239.909L56.3636 239.591C56.4848 240.061 56.714 240.413 57.0511 240.648C57.392 240.883 57.8371 241 58.3864 241C59.0114 241 59.5076 240.867 59.875 240.602C60.2462 240.333 60.4318 240.011 60.4318 239.636C60.4318 239.333 60.3258 239.08 60.1136 238.875C59.9015 238.667 59.5758 238.511 59.1364 238.409L57.6818 238.068C56.8826 237.879 56.2955 237.585 55.9205 237.188C55.5492 236.786 55.3636 236.284 55.3636 235.682C55.3636 235.189 55.5019 234.754 55.7784 234.375C56.0587 233.996 56.4394 233.699 56.9205 233.483C57.4053 233.267 57.9545 233.159 58.5682 233.159C59.4318 233.159 60.1098 233.348 60.6023 233.727C61.0985 234.106 61.4508 234.606 61.6591 235.227ZM67.6321 233.273V234.409H63.1094V233.273H67.6321ZM64.4276 231.182H65.7685V239.5C65.7685 239.879 65.8234 240.163 65.9332 240.352C66.0469 240.538 66.1908 240.663 66.3651 240.727C66.5431 240.788 66.7306 240.818 66.9276 240.818C67.0753 240.818 67.1965 240.811 67.2912 240.795C67.3859 240.777 67.4616 240.761 67.5185 240.75L67.7912 241.955C67.7003 241.989 67.5734 242.023 67.4105 242.057C67.2476 242.095 67.0412 242.114 66.7912 242.114C66.4124 242.114 66.0412 242.032 65.6776 241.869C65.3177 241.706 65.0185 241.458 64.7798 241.125C64.545 240.792 64.4276 240.371 64.4276 239.864V231.182ZM69.6491 242V233.273H70.9446V234.591H71.0355C71.1946 234.159 71.4825 233.809 71.8991 233.54C72.3158 233.271 72.7855 233.136 73.3082 233.136C73.4067 233.136 73.5298 233.138 73.6776 233.142C73.8253 233.146 73.937 233.152 74.0128 233.159V234.523C73.9673 234.511 73.8632 234.494 73.7003 234.472C73.5412 234.445 73.3726 234.432 73.1946 234.432C72.7704 234.432 72.3916 234.521 72.0582 234.699C71.7287 234.873 71.4673 235.116 71.2741 235.426C71.0848 235.733 70.9901 236.083 70.9901 236.477V242H69.6491ZM81.1023 238.432V233.273H82.4432V242H81.1023V240.523H81.0114C80.8068 240.966 80.4886 241.343 80.0568 241.653C79.625 241.96 79.0795 242.114 78.4205 242.114C77.875 242.114 77.3902 241.994 76.9659 241.756C76.5417 241.513 76.2083 241.15 75.9659 240.665C75.7235 240.176 75.6023 239.561 75.6023 238.818V233.273H76.9432V238.727C76.9432 239.364 77.1212 239.871 77.4773 240.25C77.8371 240.629 78.2955 240.818 78.8523 240.818C79.1856 240.818 79.5246 240.733 79.8693 240.562C80.2178 240.392 80.5095 240.131 80.7443 239.778C80.983 239.426 81.1023 238.977 81.1023 238.432ZM88.4446 242.182C87.6264 242.182 86.9219 241.989 86.331 241.602C85.7401 241.216 85.2855 240.684 84.9673 240.006C84.6491 239.328 84.4901 238.553 84.4901 237.682C84.4901 236.795 84.6529 236.013 84.9787 235.335C85.3082 234.653 85.7666 234.121 86.3537 233.739C86.9446 233.352 87.634 233.159 88.4219 233.159C89.0355 233.159 89.5885 233.273 90.081 233.5C90.5734 233.727 90.9768 234.045 91.2912 234.455C91.6056 234.864 91.8007 235.341 91.8764 235.886H90.5355C90.4332 235.489 90.206 235.136 89.8537 234.83C89.5052 234.519 89.0355 234.364 88.4446 234.364C87.9219 234.364 87.4635 234.5 87.0696 234.773C86.6795 235.042 86.3745 235.422 86.1548 235.915C85.9389 236.403 85.831 236.977 85.831 237.636C85.831 238.311 85.937 238.898 86.1491 239.398C86.3651 239.898 86.6681 240.286 87.0582 240.562C87.4522 240.839 87.9143 240.977 88.4446 240.977C88.7931 240.977 89.1094 240.917 89.3935 240.795C89.6776 240.674 89.9181 240.5 90.1151 240.273C90.312 240.045 90.4522 239.773 90.5355 239.455H91.8764C91.8007 239.97 91.6132 240.434 91.3139 240.847C91.0185 241.256 90.6264 241.581 90.1378 241.824C89.6529 242.062 89.0885 242.182 88.4446 242.182ZM97.6321 233.273V234.409H93.1094V233.273H97.6321ZM94.4276 231.182H95.7685V239.5C95.7685 239.879 95.8234 240.163 95.9332 240.352C96.0469 240.538 96.1908 240.663 96.3651 240.727C96.5431 240.788 96.7306 240.818 96.9276 240.818C97.0753 240.818 97.1965 240.811 97.2912 240.795C97.3859 240.777 97.4616 240.761 97.5185 240.75L97.7912 241.955C97.7003 241.989 97.5734 242.023 97.4105 242.057C97.2476 242.095 97.0412 242.114 96.7912 242.114C96.4124 242.114 96.0412 242.032 95.6776 241.869C95.3177 241.706 95.0185 241.458 94.7798 241.125C94.545 240.792 94.4276 240.371 94.4276 239.864V231.182ZM105.149 238.432V233.273H106.49V242H105.149V240.523H105.058C104.854 240.966 104.536 241.343 104.104 241.653C103.672 241.96 103.126 242.114 102.467 242.114C101.922 242.114 101.437 241.994 101.013 241.756C100.589 241.513 100.255 241.15 100.013 240.665C99.7704 240.176 99.6491 239.561 99.6491 238.818V233.273H100.99V238.727C100.99 239.364 101.168 239.871 101.524 240.25C101.884 240.629 102.342 240.818 102.899 240.818C103.232 240.818 103.571 240.733 103.916 240.562C104.265 240.392 104.556 240.131 104.791 239.778C105.03 239.426 105.149 238.977 105.149 238.432ZM108.946 242V233.273H110.241V234.591H110.332C110.491 234.159 110.779 233.809 111.196 233.54C111.613 233.271 112.082 233.136 112.605 233.136C112.704 233.136 112.827 233.138 112.974 233.142C113.122 233.146 113.234 233.152 113.31 233.159V234.523C113.264 234.511 113.16 234.494 112.997 234.472C112.838 234.445 112.67 234.432 112.491 234.432C112.067 234.432 111.688 234.521 111.355 234.699C111.026 234.873 110.764 235.116 110.571 235.426C110.382 235.733 110.287 236.083 110.287 236.477V242H108.946ZM118.293 242.182C117.452 242.182 116.726 241.996 116.116 241.625C115.51 241.25 115.043 240.727 114.713 240.057C114.387 239.383 114.224 238.598 114.224 237.705C114.224 236.811 114.387 236.023 114.713 235.341C115.043 234.655 115.501 234.121 116.088 233.739C116.679 233.352 117.368 233.159 118.156 233.159C118.611 233.159 119.06 233.235 119.503 233.386C119.946 233.538 120.349 233.784 120.713 234.125C121.077 234.462 121.366 234.909 121.582 235.466C121.798 236.023 121.906 236.708 121.906 237.523V238.091H115.179V236.932H120.543C120.543 236.439 120.444 236 120.247 235.614C120.054 235.227 119.777 234.922 119.418 234.699C119.062 234.475 118.641 234.364 118.156 234.364C117.622 234.364 117.16 234.496 116.77 234.761C116.384 235.023 116.086 235.364 115.878 235.784C115.67 236.205 115.565 236.655 115.565 237.136V237.909C115.565 238.568 115.679 239.127 115.906 239.585C116.137 240.04 116.457 240.386 116.866 240.625C117.276 240.86 117.751 240.977 118.293 240.977C118.645 240.977 118.963 240.928 119.247 240.83C119.535 240.727 119.783 240.576 119.991 240.375C120.2 240.17 120.361 239.917 120.474 239.614L121.77 239.977C121.634 240.417 121.404 240.803 121.082 241.136C120.76 241.466 120.363 241.723 119.889 241.909C119.416 242.091 118.884 242.182 118.293 242.182ZM127.241 242.182C126.514 242.182 125.872 241.998 125.315 241.631C124.759 241.259 124.323 240.737 124.009 240.062C123.694 239.384 123.537 238.583 123.537 237.659C123.537 236.742 123.694 235.947 124.009 235.273C124.323 234.598 124.76 234.078 125.321 233.71C125.882 233.343 126.529 233.159 127.264 233.159C127.832 233.159 128.281 233.254 128.611 233.443C128.944 233.629 129.198 233.841 129.372 234.08C129.55 234.314 129.688 234.508 129.787 234.659H129.901V230.364H131.241V242H129.946V240.659H129.787C129.688 240.818 129.548 241.019 129.366 241.261C129.185 241.5 128.925 241.714 128.588 241.903C128.251 242.089 127.802 242.182 127.241 242.182ZM127.423 240.977C127.961 240.977 128.416 240.837 128.787 240.557C129.158 240.273 129.44 239.881 129.634 239.381C129.827 238.877 129.923 238.295 129.923 237.636C129.923 236.985 129.829 236.415 129.639 235.926C129.45 235.434 129.17 235.051 128.798 234.778C128.427 234.502 127.969 234.364 127.423 234.364C126.855 234.364 126.382 234.509 126.003 234.801C125.628 235.089 125.346 235.481 125.156 235.977C124.971 236.47 124.878 237.023 124.878 237.636C124.878 238.258 124.973 238.822 125.162 239.33C125.355 239.833 125.639 240.235 126.014 240.534C126.393 240.83 126.863 240.977 127.423 240.977ZM141.679 242.182C140.952 242.182 140.31 241.998 139.753 241.631C139.196 241.259 138.76 240.737 138.446 240.062C138.132 239.384 137.974 238.583 137.974 237.659C137.974 236.742 138.132 235.947 138.446 235.273C138.76 234.598 139.198 234.078 139.759 233.71C140.319 233.343 140.967 233.159 141.702 233.159C142.27 233.159 142.719 233.254 143.048 233.443C143.382 233.629 143.635 233.841 143.81 234.08C143.988 234.314 144.126 234.508 144.224 234.659H144.338V230.364H145.679V242H144.384V240.659H144.224C144.126 240.818 143.986 241.019 143.804 241.261C143.622 241.5 143.363 241.714 143.026 241.903C142.688 242.089 142.24 242.182 141.679 242.182ZM141.861 240.977C142.399 240.977 142.853 240.837 143.224 240.557C143.596 240.273 143.878 239.881 144.071 239.381C144.264 238.877 144.361 238.295 144.361 237.636C144.361 236.985 144.266 236.415 144.077 235.926C143.887 235.434 143.607 235.051 143.236 234.778C142.865 234.502 142.406 234.364 141.861 234.364C141.293 234.364 140.819 234.509 140.44 234.801C140.065 235.089 139.783 235.481 139.594 235.977C139.408 236.47 139.315 237.023 139.315 237.636C139.315 238.258 139.41 238.822 139.599 239.33C139.793 239.833 140.077 240.235 140.452 240.534C140.83 240.83 141.3 240.977 141.861 240.977ZM150.889 242.205C150.336 242.205 149.834 242.1 149.384 241.892C148.933 241.68 148.575 241.375 148.31 240.977C148.045 240.576 147.912 240.091 147.912 239.523C147.912 239.023 148.01 238.617 148.207 238.307C148.404 237.992 148.668 237.746 148.997 237.568C149.327 237.39 149.69 237.258 150.088 237.17C150.49 237.08 150.893 237.008 151.298 236.955C151.829 236.886 152.259 236.835 152.588 236.801C152.921 236.763 153.164 236.701 153.315 236.614C153.471 236.527 153.548 236.375 153.548 236.159V236.114C153.548 235.553 153.395 235.117 153.088 234.807C152.785 234.496 152.325 234.341 151.707 234.341C151.067 234.341 150.565 234.481 150.202 234.761C149.838 235.042 149.582 235.341 149.435 235.659L148.162 235.205C148.389 234.674 148.692 234.261 149.071 233.966C149.454 233.667 149.87 233.458 150.321 233.341C150.776 233.22 151.223 233.159 151.662 233.159C151.942 233.159 152.264 233.193 152.628 233.261C152.995 233.326 153.349 233.46 153.69 233.665C154.035 233.869 154.321 234.178 154.548 234.591C154.776 235.004 154.889 235.557 154.889 236.25V242H153.548V240.818H153.48C153.389 241.008 153.238 241.21 153.026 241.426C152.813 241.642 152.531 241.826 152.179 241.977C151.827 242.129 151.397 242.205 150.889 242.205ZM151.094 241C151.624 241 152.071 240.896 152.435 240.688C152.802 240.479 153.079 240.21 153.264 239.881C153.454 239.551 153.548 239.205 153.548 238.841V237.614C153.491 237.682 153.366 237.744 153.173 237.801C152.984 237.854 152.764 237.902 152.514 237.943C152.268 237.981 152.027 238.015 151.793 238.045C151.562 238.072 151.374 238.095 151.23 238.114C150.882 238.159 150.556 238.233 150.253 238.335C149.954 238.434 149.711 238.583 149.526 238.784C149.344 238.981 149.253 239.25 149.253 239.591C149.253 240.057 149.425 240.409 149.77 240.648C150.118 240.883 150.56 241 151.094 241ZM161.132 233.273V234.409H156.609V233.273H161.132ZM157.928 231.182H159.268V239.5C159.268 239.879 159.323 240.163 159.433 240.352C159.547 240.538 159.691 240.663 159.865 240.727C160.043 240.788 160.231 240.818 160.428 240.818C160.575 240.818 160.696 240.811 160.791 240.795C160.886 240.777 160.962 240.761 161.018 240.75L161.291 241.955C161.2 241.989 161.073 242.023 160.911 242.057C160.748 242.095 160.541 242.114 160.291 242.114C159.912 242.114 159.541 242.032 159.178 241.869C158.818 241.706 158.518 241.458 158.28 241.125C158.045 240.792 157.928 240.371 157.928 239.864V231.182ZM165.717 242.205C165.164 242.205 164.662 242.1 164.212 241.892C163.761 241.68 163.403 241.375 163.138 240.977C162.873 240.576 162.74 240.091 162.74 239.523C162.74 239.023 162.839 238.617 163.036 238.307C163.232 237.992 163.496 237.746 163.825 237.568C164.155 237.39 164.518 237.258 164.916 237.17C165.318 237.08 165.721 237.008 166.126 236.955C166.657 236.886 167.087 236.835 167.416 236.801C167.75 236.763 167.992 236.701 168.143 236.614C168.299 236.527 168.376 236.375 168.376 236.159V236.114C168.376 235.553 168.223 235.117 167.916 234.807C167.613 234.496 167.153 234.341 166.536 234.341C165.895 234.341 165.393 234.481 165.03 234.761C164.666 235.042 164.411 235.341 164.263 235.659L162.99 235.205C163.217 234.674 163.52 234.261 163.899 233.966C164.282 233.667 164.698 233.458 165.149 233.341C165.604 233.22 166.051 233.159 166.49 233.159C166.77 233.159 167.092 233.193 167.456 233.261C167.823 233.326 168.178 233.46 168.518 233.665C168.863 233.869 169.149 234.178 169.376 234.591C169.604 235.004 169.717 235.557 169.717 236.25V242H168.376V240.818H168.308C168.217 241.008 168.066 241.21 167.854 241.426C167.642 241.642 167.359 241.826 167.007 241.977C166.655 242.129 166.225 242.205 165.717 242.205ZM165.922 241C166.452 241 166.899 240.896 167.263 240.688C167.63 240.479 167.907 240.21 168.092 239.881C168.282 239.551 168.376 239.205 168.376 238.841V237.614C168.32 237.682 168.195 237.744 168.001 237.801C167.812 237.854 167.592 237.902 167.342 237.943C167.096 237.981 166.856 238.015 166.621 238.045C166.39 238.072 166.202 238.095 166.058 238.114C165.71 238.159 165.384 238.233 165.081 238.335C164.782 238.434 164.539 238.583 164.354 238.784C164.172 238.981 164.081 239.25 164.081 239.591C164.081 240.057 164.253 240.409 164.598 240.648C164.946 240.883 165.388 241 165.922 241ZM180.46 233.273V234.409H175.938V233.273H180.46ZM177.256 231.182H178.597V239.5C178.597 239.879 178.652 240.163 178.761 240.352C178.875 240.538 179.019 240.663 179.193 240.727C179.371 240.788 179.559 240.818 179.756 240.818C179.903 240.818 180.025 240.811 180.119 240.795C180.214 240.777 180.29 240.761 180.347 240.75L180.619 241.955C180.528 241.989 180.402 242.023 180.239 242.057C180.076 242.095 179.869 242.114 179.619 242.114C179.241 242.114 178.869 242.032 178.506 241.869C178.146 241.706 177.847 241.458 177.608 241.125C177.373 240.792 177.256 240.371 177.256 239.864V231.182ZM185.929 242.182C185.141 242.182 184.45 241.994 183.855 241.619C183.264 241.244 182.802 240.72 182.469 240.045C182.139 239.371 181.974 238.583 181.974 237.682C181.974 236.773 182.139 235.979 182.469 235.301C182.802 234.623 183.264 234.097 183.855 233.722C184.45 233.347 185.141 233.159 185.929 233.159C186.717 233.159 187.406 233.347 187.997 233.722C188.592 234.097 189.054 234.623 189.384 235.301C189.717 235.979 189.884 236.773 189.884 237.682C189.884 238.583 189.717 239.371 189.384 240.045C189.054 240.72 188.592 241.244 187.997 241.619C187.406 241.994 186.717 242.182 185.929 242.182ZM185.929 240.977C186.527 240.977 187.02 240.824 187.406 240.517C187.793 240.21 188.079 239.807 188.264 239.307C188.45 238.807 188.543 238.265 188.543 237.682C188.543 237.098 188.45 236.555 188.264 236.051C188.079 235.547 187.793 235.14 187.406 234.83C187.02 234.519 186.527 234.364 185.929 234.364C185.33 234.364 184.838 234.519 184.452 234.83C184.065 235.14 183.779 235.547 183.594 236.051C183.408 236.555 183.315 237.098 183.315 237.682C183.315 238.265 183.408 238.807 183.594 239.307C183.779 239.807 184.065 240.21 184.452 240.517C184.838 240.824 185.33 240.977 185.929 240.977ZM1.22727 261V252.273H2.52273V253.591H2.61364C2.77273 253.159 3.06061 252.809 3.47727 252.54C3.89394 252.271 4.36364 252.136 4.88636 252.136C4.98485 252.136 5.10795 252.138 5.25568 252.142C5.40341 252.146 5.51515 252.152 5.59091 252.159V253.523C5.54545 253.511 5.44129 253.494 5.27841 253.472C5.11932 253.445 4.95076 253.432 4.77273 253.432C4.34849 253.432 3.9697 253.521 3.63636 253.699C3.30682 253.873 3.04545 254.116 2.85227 254.426C2.66288 254.733 2.56818 255.083 2.56818 255.477V261H1.22727ZM12.6804 257.432V252.273H14.0213V261H12.6804V259.523H12.5895C12.3849 259.966 12.0668 260.343 11.6349 260.653C11.2031 260.96 10.6577 261.114 9.99858 261.114C9.45312 261.114 8.96828 260.994 8.54403 260.756C8.11979 260.513 7.78646 260.15 7.54403 259.665C7.30161 259.176 7.1804 258.561 7.1804 257.818V252.273H8.52131V257.727C8.52131 258.364 8.69934 258.871 9.0554 259.25C9.41525 259.629 9.87358 259.818 10.4304 259.818C10.7637 259.818 11.1027 259.733 11.4474 259.562C11.7959 259.392 12.0876 259.131 12.3224 258.778C12.5611 258.426 12.6804 257.977 12.6804 257.432ZM17.8182 255.75V261H16.4773V252.273H17.7727V253.636H17.8864C18.0909 253.193 18.4015 252.837 18.8182 252.568C19.2348 252.295 19.7727 252.159 20.4318 252.159C21.0227 252.159 21.5398 252.28 21.983 252.523C22.4261 252.761 22.7708 253.125 23.017 253.614C23.2633 254.098 23.3864 254.712 23.3864 255.455V261H22.0455V255.545C22.0455 254.86 21.8674 254.326 21.5114 253.943C21.1553 253.557 20.6667 253.364 20.0455 253.364C19.6174 253.364 19.2348 253.456 18.8977 253.642C18.5644 253.828 18.3011 254.098 18.108 254.455C17.9148 254.811 17.8182 255.242 17.8182 255.75ZM36.5185 254.227L35.3139 254.568C35.2382 254.367 35.1264 254.172 34.9787 253.983C34.8348 253.79 34.6378 253.631 34.3878 253.506C34.1378 253.381 33.8177 253.318 33.4276 253.318C32.8935 253.318 32.4484 253.441 32.0923 253.688C31.7401 253.93 31.5639 254.239 31.5639 254.614C31.5639 254.947 31.6851 255.21 31.9276 255.403C32.17 255.597 32.5488 255.758 33.0639 255.886L34.3594 256.205C35.1397 256.394 35.7211 256.684 36.1037 257.074C36.4863 257.46 36.6776 257.958 36.6776 258.568C36.6776 259.068 36.5336 259.515 36.2457 259.909C35.9616 260.303 35.5639 260.614 35.0526 260.841C34.5412 261.068 33.9465 261.182 33.2685 261.182C32.3783 261.182 31.6416 260.989 31.0582 260.602C30.4749 260.216 30.1056 259.652 29.9503 258.909L31.223 258.591C31.3442 259.061 31.5734 259.413 31.9105 259.648C32.2514 259.883 32.6965 260 33.2457 260C33.8707 260 34.367 259.867 34.7344 259.602C35.1056 259.333 35.2912 259.011 35.2912 258.636C35.2912 258.333 35.1851 258.08 34.973 257.875C34.7609 257.667 34.4351 257.511 33.9957 257.409L32.5412 257.068C31.742 256.879 31.1548 256.585 30.7798 256.188C30.4086 255.786 30.223 255.284 30.223 254.682C30.223 254.189 30.3613 253.754 30.6378 253.375C30.9181 252.996 31.2988 252.699 31.7798 252.483C32.2647 252.267 32.8139 252.159 33.4276 252.159C34.2912 252.159 34.9692 252.348 35.4616 252.727C35.9579 253.106 36.3101 253.606 36.5185 254.227ZM38.696 261V252.273H40.0369V261H38.696ZM39.3778 250.818C39.1165 250.818 38.8911 250.729 38.7017 250.551C38.5161 250.373 38.4233 250.159 38.4233 249.909C38.4233 249.659 38.5161 249.445 38.7017 249.267C38.8911 249.089 39.1165 249 39.3778 249C39.6392 249 39.8627 249.089 40.0483 249.267C40.2377 249.445 40.3324 249.659 40.3324 249.909C40.3324 250.159 40.2377 250.373 40.0483 250.551C39.8627 250.729 39.6392 250.818 39.3778 250.818ZM42.4929 261V252.273H43.7884V253.636H43.902C44.0838 253.17 44.3774 252.809 44.7827 252.551C45.188 252.29 45.6747 252.159 46.2429 252.159C46.8187 252.159 47.2978 252.29 47.6804 252.551C48.0668 252.809 48.3679 253.17 48.5838 253.636H48.6747C48.8982 253.186 49.2334 252.828 49.6804 252.562C50.1274 252.294 50.6634 252.159 51.2884 252.159C52.0687 252.159 52.7069 252.403 53.2031 252.892C53.6993 253.377 53.9474 254.133 53.9474 255.159V261H52.6065V255.159C52.6065 254.515 52.4304 254.055 52.0781 253.778C51.7259 253.502 51.3111 253.364 50.8338 253.364C50.2202 253.364 49.7448 253.549 49.4077 253.92C49.0705 254.288 48.902 254.754 48.902 255.318V261H47.5384V255.023C47.5384 254.527 47.3774 254.127 47.0554 253.824C46.7334 253.517 46.3187 253.364 45.8111 253.364C45.4626 253.364 45.1368 253.456 44.8338 253.642C44.5346 253.828 44.2921 254.085 44.1065 254.415C43.9247 254.741 43.8338 255.117 43.8338 255.545V261H42.4929ZM61.8991 257.432V252.273H63.2401V261H61.8991V259.523H61.8082C61.6037 259.966 61.2855 260.343 60.8537 260.653C60.4219 260.96 59.8764 261.114 59.2173 261.114C58.6719 261.114 58.187 260.994 57.7628 260.756C57.3385 260.513 57.0052 260.15 56.7628 259.665C56.5204 259.176 56.3991 258.561 56.3991 257.818V252.273H57.7401V257.727C57.7401 258.364 57.9181 258.871 58.2741 259.25C58.634 259.629 59.0923 259.818 59.6491 259.818C59.9825 259.818 60.3215 259.733 60.6662 259.562C61.0147 259.392 61.3063 259.131 61.5412 258.778C61.7798 258.426 61.8991 257.977 61.8991 257.432ZM67.0369 249.364V261H65.696V249.364H67.0369ZM72.0611 261.205C71.508 261.205 71.0062 261.1 70.5554 260.892C70.1046 260.68 69.7467 260.375 69.4815 259.977C69.2164 259.576 69.0838 259.091 69.0838 258.523C69.0838 258.023 69.1823 257.617 69.3793 257.307C69.5762 256.992 69.8395 256.746 70.169 256.568C70.4986 256.39 70.8622 256.258 71.2599 256.17C71.6615 256.08 72.0649 256.008 72.4702 255.955C73.0005 255.886 73.4304 255.835 73.7599 255.801C74.0933 255.763 74.3357 255.701 74.4872 255.614C74.6425 255.527 74.7202 255.375 74.7202 255.159V255.114C74.7202 254.553 74.5668 254.117 74.2599 253.807C73.9569 253.496 73.4967 253.341 72.8793 253.341C72.2391 253.341 71.7372 253.481 71.3736 253.761C71.0099 254.042 70.7543 254.341 70.6065 254.659L69.3338 254.205C69.5611 253.674 69.8641 253.261 70.2429 252.966C70.6255 252.667 71.0421 252.458 71.4929 252.341C71.9474 252.22 72.3944 252.159 72.8338 252.159C73.1141 252.159 73.4361 252.193 73.7997 252.261C74.1671 252.326 74.5213 252.46 74.8622 252.665C75.2069 252.869 75.4929 253.178 75.7202 253.591C75.9474 254.004 76.0611 254.557 76.0611 255.25V261H74.7202V259.818H74.652C74.5611 260.008 74.4096 260.21 74.1974 260.426C73.9853 260.642 73.7031 260.826 73.3509 260.977C72.9986 261.129 72.5687 261.205 72.0611 261.205ZM72.2656 260C72.7959 260 73.2429 259.896 73.6065 259.688C73.974 259.479 74.2505 259.21 74.4361 258.881C74.6255 258.551 74.7202 258.205 74.7202 257.841V256.614C74.6634 256.682 74.5384 256.744 74.3452 256.801C74.1558 256.854 73.9361 256.902 73.6861 256.943C73.4399 256.981 73.1993 257.015 72.9645 257.045C72.7334 257.072 72.5459 257.095 72.402 257.114C72.0535 257.159 71.7277 257.233 71.4247 257.335C71.1255 257.434 70.883 257.583 70.6974 257.784C70.5156 257.981 70.4247 258.25 70.4247 258.591C70.4247 259.057 70.5971 259.409 70.9418 259.648C71.2902 259.883 71.7315 260 72.2656 260ZM82.304 252.273V253.409H77.7812V252.273H82.304ZM79.0994 250.182H80.4403V258.5C80.4403 258.879 80.4953 259.163 80.6051 259.352C80.7188 259.538 80.8627 259.663 81.0369 259.727C81.215 259.788 81.4025 259.818 81.5994 259.818C81.7472 259.818 81.8684 259.811 81.9631 259.795C82.0578 259.777 82.1335 259.761 82.1903 259.75L82.4631 260.955C82.3722 260.989 82.2453 261.023 82.0824 261.057C81.9195 261.095 81.7131 261.114 81.4631 261.114C81.0843 261.114 80.7131 261.032 80.3494 260.869C79.9896 260.706 79.6903 260.458 79.4517 260.125C79.2169 259.792 79.0994 259.371 79.0994 258.864V250.182ZM84.321 261V252.273H85.6619V261H84.321ZM85.0028 250.818C84.7415 250.818 84.5161 250.729 84.3267 250.551C84.1411 250.373 84.0483 250.159 84.0483 249.909C84.0483 249.659 84.1411 249.445 84.3267 249.267C84.5161 249.089 84.7415 249 85.0028 249C85.2642 249 85.4877 249.089 85.6733 249.267C85.8627 249.445 85.9574 249.659 85.9574 249.909C85.9574 250.159 85.8627 250.373 85.6733 250.551C85.4877 250.729 85.2642 250.818 85.0028 250.818ZM91.6634 261.182C90.8755 261.182 90.1842 260.994 89.5895 260.619C88.9986 260.244 88.5365 259.72 88.2031 259.045C87.8736 258.371 87.7088 257.583 87.7088 256.682C87.7088 255.773 87.8736 254.979 88.2031 254.301C88.5365 253.623 88.9986 253.097 89.5895 252.722C90.1842 252.347 90.8755 252.159 91.6634 252.159C92.4512 252.159 93.1406 252.347 93.7315 252.722C94.3262 253.097 94.7884 253.623 95.1179 254.301C95.4512 254.979 95.6179 255.773 95.6179 256.682C95.6179 257.583 95.4512 258.371 95.1179 259.045C94.7884 259.72 94.3262 260.244 93.7315 260.619C93.1406 260.994 92.4512 261.182 91.6634 261.182ZM91.6634 259.977C92.2618 259.977 92.7543 259.824 93.1406 259.517C93.527 259.21 93.813 258.807 93.9986 258.307C94.1842 257.807 94.277 257.265 94.277 256.682C94.277 256.098 94.1842 255.555 93.9986 255.051C93.813 254.547 93.527 254.14 93.1406 253.83C92.7543 253.519 92.2618 253.364 91.6634 253.364C91.0649 253.364 90.5724 253.519 90.1861 253.83C89.7997 254.14 89.5137 254.547 89.3281 255.051C89.1425 255.555 89.0497 256.098 89.0497 256.682C89.0497 257.265 89.1425 257.807 89.3281 258.307C89.5137 258.807 89.7997 259.21 90.1861 259.517C90.5724 259.824 91.0649 259.977 91.6634 259.977ZM99.0057 255.75V261H97.6648V252.273H98.9602V253.636H99.0739C99.2784 253.193 99.589 252.837 100.006 252.568C100.422 252.295 100.96 252.159 101.619 252.159C102.21 252.159 102.727 252.28 103.17 252.523C103.614 252.761 103.958 253.125 104.205 253.614C104.451 254.098 104.574 254.712 104.574 255.455V261H103.233V255.545C103.233 254.86 103.055 254.326 102.699 253.943C102.343 253.557 101.854 253.364 101.233 253.364C100.805 253.364 100.422 253.456 100.085 253.642C99.7519 253.828 99.4886 254.098 99.2955 254.455C99.1023 254.811 99.0057 255.242 99.0057 255.75ZM113.206 254.227L112.001 254.568C111.926 254.367 111.814 254.172 111.666 253.983C111.522 253.79 111.325 253.631 111.075 253.506C110.825 253.381 110.505 253.318 110.115 253.318C109.581 253.318 109.136 253.441 108.78 253.688C108.428 253.93 108.251 254.239 108.251 254.614C108.251 254.947 108.373 255.21 108.615 255.403C108.857 255.597 109.236 255.758 109.751 255.886L111.047 256.205C111.827 256.394 112.409 256.684 112.791 257.074C113.174 257.46 113.365 257.958 113.365 258.568C113.365 259.068 113.221 259.515 112.933 259.909C112.649 260.303 112.251 260.614 111.74 260.841C111.229 261.068 110.634 261.182 109.956 261.182C109.066 261.182 108.329 260.989 107.746 260.602C107.162 260.216 106.793 259.652 106.638 258.909L107.911 258.591C108.032 259.061 108.261 259.413 108.598 259.648C108.939 259.883 109.384 260 109.933 260C110.558 260 111.054 259.867 111.422 259.602C111.793 259.333 111.979 259.011 111.979 258.636C111.979 258.333 111.873 258.08 111.661 257.875C111.448 257.667 111.123 257.511 110.683 257.409L109.229 257.068C108.429 256.879 107.842 256.585 107.467 256.188C107.096 255.786 106.911 255.284 106.911 254.682C106.911 254.189 107.049 253.754 107.325 253.375C107.606 252.996 107.986 252.699 108.467 252.483C108.952 252.267 109.501 252.159 110.115 252.159C110.979 252.159 111.657 252.348 112.149 252.727C112.645 253.106 112.998 253.606 113.206 254.227ZM120.361 256.091C120.361 254.659 120.546 253.343 120.918 252.142C121.293 250.937 121.827 249.83 122.52 248.818H123.702C123.429 249.193 123.173 249.655 122.935 250.205C122.7 250.75 122.493 251.35 122.315 252.006C122.137 252.657 121.997 253.331 121.895 254.028C121.796 254.725 121.747 255.413 121.747 256.091C121.747 256.992 121.834 257.907 122.009 258.835C122.183 259.763 122.418 260.625 122.713 261.42C123.009 262.216 123.338 262.864 123.702 263.364H122.52C121.827 262.352 121.293 261.246 120.918 260.045C120.546 258.841 120.361 257.523 120.361 256.091ZM128.249 261.205C127.696 261.205 127.194 261.1 126.743 260.892C126.292 260.68 125.934 260.375 125.669 259.977C125.404 259.576 125.271 259.091 125.271 258.523C125.271 258.023 125.37 257.617 125.567 257.307C125.764 256.992 126.027 256.746 126.357 256.568C126.686 256.39 127.05 256.258 127.447 256.17C127.849 256.08 128.252 256.008 128.658 255.955C129.188 255.886 129.618 255.835 129.947 255.801C130.281 255.763 130.523 255.701 130.675 255.614C130.83 255.527 130.908 255.375 130.908 255.159V255.114C130.908 254.553 130.754 254.117 130.447 253.807C130.144 253.496 129.684 253.341 129.067 253.341C128.427 253.341 127.925 253.481 127.561 253.761C127.197 254.042 126.942 254.341 126.794 254.659L125.521 254.205C125.749 253.674 126.052 253.261 126.43 252.966C126.813 252.667 127.23 252.458 127.68 252.341C128.135 252.22 128.582 252.159 129.021 252.159C129.302 252.159 129.624 252.193 129.987 252.261C130.355 252.326 130.709 252.46 131.05 252.665C131.394 252.869 131.68 253.178 131.908 253.591C132.135 254.004 132.249 254.557 132.249 255.25V261H130.908V259.818H130.839C130.749 260.008 130.597 260.21 130.385 260.426C130.173 260.642 129.891 260.826 129.538 260.977C129.186 261.129 128.756 261.205 128.249 261.205ZM128.453 260C128.983 260 129.43 259.896 129.794 259.688C130.161 259.479 130.438 259.21 130.624 258.881C130.813 258.551 130.908 258.205 130.908 257.841V256.614C130.851 256.682 130.726 256.744 130.533 256.801C130.343 256.854 130.124 256.902 129.874 256.943C129.627 256.981 129.387 257.015 129.152 257.045C128.921 257.072 128.733 257.095 128.589 257.114C128.241 257.159 127.915 257.233 127.612 257.335C127.313 257.434 127.071 257.583 126.885 257.784C126.703 257.981 126.612 258.25 126.612 258.591C126.612 259.057 126.785 259.409 127.129 259.648C127.478 259.883 127.919 260 128.453 260ZM136.037 255.75V261H134.696V252.273H135.991V253.636H136.105C136.31 253.193 136.62 252.837 137.037 252.568C137.454 252.295 137.991 252.159 138.651 252.159C139.241 252.159 139.759 252.28 140.202 252.523C140.645 252.761 140.99 253.125 141.236 253.614C141.482 254.098 141.605 254.712 141.605 255.455V261H140.264V255.545C140.264 254.86 140.086 254.326 139.73 253.943C139.374 253.557 138.885 253.364 138.264 253.364C137.836 253.364 137.454 253.456 137.116 253.642C136.783 253.828 136.52 254.098 136.327 254.455C136.134 254.811 136.037 255.242 136.037 255.75ZM147.351 261.182C146.624 261.182 145.982 260.998 145.425 260.631C144.868 260.259 144.432 259.737 144.118 259.062C143.804 258.384 143.646 257.583 143.646 256.659C143.646 255.742 143.804 254.947 144.118 254.273C144.432 253.598 144.87 253.078 145.43 252.71C145.991 252.343 146.639 252.159 147.374 252.159C147.942 252.159 148.391 252.254 148.72 252.443C149.054 252.629 149.307 252.841 149.482 253.08C149.66 253.314 149.798 253.508 149.896 253.659H150.01V249.364H151.351V261H150.055V259.659H149.896C149.798 259.818 149.658 260.019 149.476 260.261C149.294 260.5 149.035 260.714 148.697 260.903C148.36 261.089 147.911 261.182 147.351 261.182ZM147.533 259.977C148.071 259.977 148.525 259.837 148.896 259.557C149.268 259.273 149.55 258.881 149.743 258.381C149.936 257.877 150.033 257.295 150.033 256.636C150.033 255.985 149.938 255.415 149.749 254.926C149.559 254.434 149.279 254.051 148.908 253.778C148.536 253.502 148.078 253.364 147.533 253.364C146.964 253.364 146.491 253.509 146.112 253.801C145.737 254.089 145.455 254.481 145.266 254.977C145.08 255.47 144.987 256.023 144.987 256.636C144.987 257.258 145.082 257.822 145.271 258.33C145.464 258.833 145.749 259.235 146.124 259.534C146.502 259.83 146.972 259.977 147.533 259.977ZM162.152 261.182C161.311 261.182 160.586 260.996 159.976 260.625C159.37 260.25 158.902 259.727 158.572 259.057C158.247 258.383 158.084 257.598 158.084 256.705C158.084 255.811 158.247 255.023 158.572 254.341C158.902 253.655 159.36 253.121 159.947 252.739C160.538 252.352 161.228 252.159 162.016 252.159C162.47 252.159 162.919 252.235 163.362 252.386C163.805 252.538 164.209 252.784 164.572 253.125C164.936 253.462 165.226 253.909 165.442 254.466C165.658 255.023 165.766 255.708 165.766 256.523V257.091H159.038V255.932H164.402C164.402 255.439 164.304 255 164.107 254.614C163.913 254.227 163.637 253.922 163.277 253.699C162.921 253.475 162.5 253.364 162.016 253.364C161.482 253.364 161.019 253.496 160.629 253.761C160.243 254.023 159.946 254.364 159.737 254.784C159.529 255.205 159.425 255.655 159.425 256.136V256.909C159.425 257.568 159.538 258.127 159.766 258.585C159.997 259.04 160.317 259.386 160.726 259.625C161.135 259.86 161.61 259.977 162.152 259.977C162.504 259.977 162.822 259.928 163.107 259.83C163.394 259.727 163.643 259.576 163.851 259.375C164.059 259.17 164.22 258.917 164.334 258.614L165.629 258.977C165.493 259.417 165.264 259.803 164.942 260.136C164.62 260.466 164.222 260.723 163.749 260.909C163.275 261.091 162.743 261.182 162.152 261.182ZM168.571 252.273L170.662 255.841L172.753 252.273H174.298L171.48 256.636L174.298 261H172.753L170.662 257.614L168.571 261H167.026L169.798 256.636L167.026 252.273H168.571ZM176.212 264.273V252.273H177.507V253.659H177.666C177.765 253.508 177.901 253.314 178.075 253.08C178.253 252.841 178.507 252.629 178.837 252.443C179.17 252.254 179.621 252.159 180.189 252.159C180.924 252.159 181.571 252.343 182.132 252.71C182.693 253.078 183.13 253.598 183.445 254.273C183.759 254.947 183.916 255.742 183.916 256.659C183.916 257.583 183.759 258.384 183.445 259.062C183.13 259.737 182.695 260.259 182.138 260.631C181.581 260.998 180.939 261.182 180.212 261.182C179.651 261.182 179.202 261.089 178.865 260.903C178.528 260.714 178.268 260.5 178.087 260.261C177.905 260.019 177.765 259.818 177.666 259.659H177.553V264.273H176.212ZM177.53 256.636C177.53 257.295 177.626 257.877 177.82 258.381C178.013 258.881 178.295 259.273 178.666 259.557C179.037 259.837 179.492 259.977 180.03 259.977C180.59 259.977 181.058 259.83 181.433 259.534C181.812 259.235 182.096 258.833 182.286 258.33C182.479 257.822 182.575 257.258 182.575 256.636C182.575 256.023 182.481 255.47 182.291 254.977C182.106 254.481 181.823 254.089 181.445 253.801C181.07 253.509 180.598 253.364 180.03 253.364C179.484 253.364 179.026 253.502 178.655 253.778C178.284 254.051 178.003 254.434 177.814 254.926C177.625 255.415 177.53 255.985 177.53 256.636ZM189.507 261.182C188.719 261.182 188.028 260.994 187.433 260.619C186.842 260.244 186.38 259.72 186.047 259.045C185.717 258.371 185.553 257.583 185.553 256.682C185.553 255.773 185.717 254.979 186.047 254.301C186.38 253.623 186.842 253.097 187.433 252.722C188.028 252.347 188.719 252.159 189.507 252.159C190.295 252.159 190.984 252.347 191.575 252.722C192.17 253.097 192.632 253.623 192.962 254.301C193.295 254.979 193.462 255.773 193.462 256.682C193.462 257.583 193.295 258.371 192.962 259.045C192.632 259.72 192.17 260.244 191.575 260.619C190.984 260.994 190.295 261.182 189.507 261.182ZM189.507 259.977C190.106 259.977 190.598 259.824 190.984 259.517C191.371 259.21 191.657 258.807 191.842 258.307C192.028 257.807 192.121 257.265 192.121 256.682C192.121 256.098 192.028 255.555 191.842 255.051C191.657 254.547 191.371 254.14 190.984 253.83C190.598 253.519 190.106 253.364 189.507 253.364C188.909 253.364 188.416 253.519 188.03 253.83C187.643 254.14 187.357 254.547 187.172 255.051C186.986 255.555 186.893 256.098 186.893 256.682C186.893 257.265 186.986 257.807 187.172 258.307C187.357 258.807 187.643 259.21 188.03 259.517C188.416 259.824 188.909 259.977 189.507 259.977ZM195.509 261V252.273H196.804V253.591H196.895C197.054 253.159 197.342 252.809 197.759 252.54C198.175 252.271 198.645 252.136 199.168 252.136C199.266 252.136 199.389 252.138 199.537 252.142C199.685 252.146 199.796 252.152 199.872 252.159V253.523C199.827 253.511 199.723 253.494 199.56 253.472C199.401 253.445 199.232 253.432 199.054 253.432C198.63 253.432 198.251 253.521 197.918 253.699C197.588 253.873 197.327 254.116 197.134 254.426C196.944 254.733 196.849 255.083 196.849 255.477V261H195.509ZM205.804 252.273V253.409H201.281V252.273H205.804ZM202.599 250.182H203.94V258.5C203.94 258.879 203.995 259.163 204.105 259.352C204.219 259.538 204.363 259.663 204.537 259.727C204.715 259.788 204.902 259.818 205.099 259.818C205.247 259.818 205.368 259.811 205.463 259.795C205.558 259.777 205.634 259.761 205.69 259.75L205.963 260.955C205.872 260.989 205.745 261.023 205.582 261.057C205.42 261.095 205.213 261.114 204.963 261.114C204.584 261.114 204.213 261.032 203.849 260.869C203.49 260.706 203.19 260.458 202.952 260.125C202.717 259.792 202.599 259.371 202.599 258.864V250.182ZM1.22727 280V271.273H2.56818V280H1.22727ZM1.90909 269.818C1.64773 269.818 1.42235 269.729 1.23295 269.551C1.04735 269.373 0.954545 269.159 0.954545 268.909C0.954545 268.659 1.04735 268.445 1.23295 268.267C1.42235 268.089 1.64773 268 1.90909 268C2.17045 268 2.39394 268.089 2.57955 268.267C2.76894 268.445 2.86364 268.659 2.86364 268.909C2.86364 269.159 2.76894 269.373 2.57955 269.551C2.39394 269.729 2.17045 269.818 1.90909 269.818ZM6.36506 274.75V280H5.02415V271.273H6.3196V272.636H6.43324C6.63778 272.193 6.94839 271.837 7.36506 271.568C7.78172 271.295 8.3196 271.159 8.97869 271.159C9.5696 271.159 10.0866 271.28 10.5298 271.523C10.973 271.761 11.3177 272.125 11.5639 272.614C11.8101 273.098 11.9332 273.712 11.9332 274.455V280H10.5923V274.545C10.5923 273.86 10.4143 273.326 10.0582 272.943C9.70218 272.557 9.21354 272.364 8.59233 272.364C8.1643 272.364 7.78172 272.456 7.4446 272.642C7.11127 272.828 6.84801 273.098 6.65483 273.455C6.46165 273.811 6.36506 274.242 6.36506 274.75ZM20.5653 273.227L19.3608 273.568C19.285 273.367 19.1733 273.172 19.0256 272.983C18.8816 272.79 18.6847 272.631 18.4347 272.506C18.1847 272.381 17.8646 272.318 17.4744 272.318C16.9403 272.318 16.4953 272.441 16.1392 272.688C15.7869 272.93 15.6108 273.239 15.6108 273.614C15.6108 273.947 15.732 274.21 15.9744 274.403C16.2169 274.597 16.5956 274.758 17.1108 274.886L18.4062 275.205C19.1866 275.394 19.768 275.684 20.1506 276.074C20.5331 276.46 20.7244 276.958 20.7244 277.568C20.7244 278.068 20.5805 278.515 20.2926 278.909C20.0085 279.303 19.6108 279.614 19.0994 279.841C18.5881 280.068 17.9934 280.182 17.3153 280.182C16.4252 280.182 15.6884 279.989 15.1051 279.602C14.5218 279.216 14.1525 278.652 13.9972 277.909L15.2699 277.591C15.3911 278.061 15.6203 278.413 15.9574 278.648C16.2983 278.883 16.7434 279 17.2926 279C17.9176 279 18.4138 278.867 18.7812 278.602C19.1525 278.333 19.3381 278.011 19.3381 277.636C19.3381 277.333 19.232 277.08 19.0199 276.875C18.8078 276.667 18.482 276.511 18.0426 276.409L16.5881 276.068C15.7888 275.879 15.2017 275.585 14.8267 275.188C14.4555 274.786 14.2699 274.284 14.2699 273.682C14.2699 273.189 14.4081 272.754 14.6847 272.375C14.965 271.996 15.3456 271.699 15.8267 271.483C16.3116 271.267 16.8608 271.159 17.4744 271.159C18.3381 271.159 19.0161 271.348 19.5085 271.727C20.0047 272.106 20.357 272.606 20.5653 273.227ZM22.7429 280V271.273H24.0838V280H22.7429ZM23.4247 269.818C23.1634 269.818 22.938 269.729 22.7486 269.551C22.563 269.373 22.4702 269.159 22.4702 268.909C22.4702 268.659 22.563 268.445 22.7486 268.267C22.938 268.089 23.1634 268 23.4247 268C23.6861 268 23.9096 268.089 24.0952 268.267C24.2846 268.445 24.3793 268.659 24.3793 268.909C24.3793 269.159 24.2846 269.373 24.0952 269.551C23.9096 269.729 23.6861 269.818 23.4247 269.818ZM30.0625 283.455C29.4148 283.455 28.858 283.371 28.392 283.205C27.9261 283.042 27.5379 282.826 27.2273 282.557C26.9205 282.292 26.6761 282.008 26.4943 281.705L27.5625 280.955C27.6837 281.114 27.8371 281.295 28.0227 281.5C28.2083 281.708 28.4621 281.888 28.7841 282.04C29.1098 282.195 29.536 282.273 30.0625 282.273C30.767 282.273 31.3485 282.102 31.8068 281.761C32.2652 281.42 32.4943 280.886 32.4943 280.159V278.386H32.3807C32.2822 278.545 32.142 278.742 31.9602 278.977C31.7822 279.208 31.5246 279.415 31.1875 279.597C30.8542 279.775 30.4034 279.864 29.8352 279.864C29.1307 279.864 28.4981 279.697 27.9375 279.364C27.3807 279.03 26.9394 278.545 26.6136 277.909C26.2917 277.273 26.1307 276.5 26.1307 275.591C26.1307 274.697 26.2879 273.919 26.6023 273.256C26.9167 272.589 27.3542 272.074 27.9148 271.71C28.4754 271.343 29.1231 271.159 29.858 271.159C30.4261 271.159 30.8769 271.254 31.2102 271.443C31.5473 271.629 31.8049 271.841 31.983 272.08C32.1648 272.314 32.3049 272.508 32.4034 272.659H32.5398V271.273H33.8352V280.25C33.8352 281 33.6648 281.61 33.3239 282.08C32.9867 282.553 32.5322 282.9 31.9602 283.119C31.392 283.343 30.7595 283.455 30.0625 283.455ZM30.017 278.659C30.5549 278.659 31.0095 278.536 31.3807 278.29C31.7519 278.044 32.0341 277.689 32.2273 277.227C32.4205 276.765 32.517 276.212 32.517 275.568C32.517 274.939 32.4223 274.384 32.233 273.903C32.0436 273.422 31.7633 273.045 31.392 272.773C31.0208 272.5 30.5625 272.364 30.017 272.364C29.4489 272.364 28.9754 272.508 28.5966 272.795C28.2216 273.083 27.9394 273.47 27.75 273.955C27.5644 274.439 27.4716 274.977 27.4716 275.568C27.4716 276.174 27.5663 276.71 27.7557 277.176C27.9489 277.638 28.233 278.002 28.608 278.267C28.9867 278.528 29.4564 278.659 30.017 278.659ZM37.6307 274.75V280H36.2898V268.364H37.6307V272.636H37.7443C37.9489 272.186 38.2557 271.828 38.6648 271.562C39.0777 271.294 39.6269 271.159 40.3125 271.159C40.9072 271.159 41.428 271.278 41.875 271.517C42.322 271.752 42.6686 272.114 42.9148 272.602C43.1648 273.087 43.2898 273.705 43.2898 274.455V280H41.9489V274.545C41.9489 273.852 41.7689 273.316 41.4091 272.938C41.053 272.555 40.5587 272.364 39.9261 272.364C39.4867 272.364 39.0928 272.456 38.7443 272.642C38.3996 272.828 38.1269 273.098 37.9261 273.455C37.7292 273.811 37.6307 274.242 37.6307 274.75ZM49.5384 271.273V272.409H45.0156V271.273H49.5384ZM46.3338 269.182H47.6747V277.5C47.6747 277.879 47.7296 278.163 47.8395 278.352C47.9531 278.538 48.0971 278.663 48.2713 278.727C48.4493 278.788 48.6368 278.818 48.8338 278.818C48.9815 278.818 49.1027 278.811 49.1974 278.795C49.2921 278.777 49.3679 278.761 49.4247 278.75L49.6974 279.955C49.6065 279.989 49.4796 280.023 49.3168 280.057C49.1539 280.095 48.9474 280.114 48.6974 280.114C48.3187 280.114 47.9474 280.032 47.5838 279.869C47.224 279.706 46.9247 279.458 46.6861 279.125C46.4512 278.792 46.3338 278.371 46.3338 277.864V269.182ZM57.581 273.227L56.3764 273.568C56.3007 273.367 56.1889 273.172 56.0412 272.983C55.8973 272.79 55.7003 272.631 55.4503 272.506C55.2003 272.381 54.8802 272.318 54.4901 272.318C53.956 272.318 53.5109 272.441 53.1548 272.688C52.8026 272.93 52.6264 273.239 52.6264 273.614C52.6264 273.947 52.7476 274.21 52.9901 274.403C53.2325 274.597 53.6113 274.758 54.1264 274.886L55.4219 275.205C56.2022 275.394 56.7836 275.684 57.1662 276.074C57.5488 276.46 57.7401 276.958 57.7401 277.568C57.7401 278.068 57.5961 278.515 57.3082 278.909C57.0241 279.303 56.6264 279.614 56.1151 279.841C55.6037 280.068 55.009 280.182 54.331 280.182C53.4408 280.182 52.7041 279.989 52.1207 279.602C51.5374 279.216 51.1681 278.652 51.0128 277.909L52.2855 277.591C52.4067 278.061 52.6359 278.413 52.973 278.648C53.3139 278.883 53.759 279 54.3082 279C54.9332 279 55.4295 278.867 55.7969 278.602C56.1681 278.333 56.3537 278.011 56.3537 277.636C56.3537 277.333 56.2476 277.08 56.0355 276.875C55.8234 276.667 55.4976 276.511 55.0582 276.409L53.6037 276.068C52.8045 275.879 52.2173 275.585 51.8423 275.188C51.4711 274.786 51.2855 274.284 51.2855 273.682C51.2855 273.189 51.4238 272.754 51.7003 272.375C51.9806 271.996 52.3613 271.699 52.8423 271.483C53.3272 271.267 53.8764 271.159 54.4901 271.159C55.3537 271.159 56.0317 271.348 56.5241 271.727C57.0204 272.106 57.3726 272.606 57.581 273.227ZM64.4403 280V268.364H65.7812V272.659H65.8949C65.9934 272.508 66.1297 272.314 66.304 272.08C66.482 271.841 66.7358 271.629 67.0653 271.443C67.3987 271.254 67.8494 271.159 68.4176 271.159C69.1525 271.159 69.8002 271.343 70.3608 271.71C70.9214 272.078 71.3589 272.598 71.6733 273.273C71.9877 273.947 72.1449 274.742 72.1449 275.659C72.1449 276.583 71.9877 277.384 71.6733 278.062C71.3589 278.737 70.9233 279.259 70.3665 279.631C69.8097 279.998 69.1676 280.182 68.4403 280.182C67.8797 280.182 67.4309 280.089 67.0938 279.903C66.7566 279.714 66.4972 279.5 66.3153 279.261C66.1335 279.019 65.9934 278.818 65.8949 278.659H65.7358V280H64.4403ZM65.7585 275.636C65.7585 276.295 65.8551 276.877 66.0483 277.381C66.2415 277.881 66.5237 278.273 66.8949 278.557C67.2661 278.837 67.7206 278.977 68.2585 278.977C68.8191 278.977 69.2869 278.83 69.6619 278.534C70.0407 278.235 70.3248 277.833 70.5142 277.33C70.7074 276.822 70.804 276.258 70.804 275.636C70.804 275.023 70.7093 274.47 70.5199 273.977C70.3343 273.481 70.0521 273.089 69.6733 272.801C69.2983 272.509 68.8267 272.364 68.2585 272.364C67.7131 272.364 67.2547 272.502 66.8835 272.778C66.5123 273.051 66.232 273.434 66.0426 273.926C65.8532 274.415 65.7585 274.985 65.7585 275.636ZM76.7642 280.205C76.2112 280.205 75.7093 280.1 75.2585 279.892C74.8078 279.68 74.4498 279.375 74.1847 278.977C73.9195 278.576 73.7869 278.091 73.7869 277.523C73.7869 277.023 73.8854 276.617 74.0824 276.307C74.2794 275.992 74.5426 275.746 74.8722 275.568C75.2017 275.39 75.5653 275.258 75.9631 275.17C76.3646 275.08 76.768 275.008 77.1733 274.955C77.7036 274.886 78.1335 274.835 78.4631 274.801C78.7964 274.763 79.0388 274.701 79.1903 274.614C79.3456 274.527 79.4233 274.375 79.4233 274.159V274.114C79.4233 273.553 79.2699 273.117 78.9631 272.807C78.66 272.496 78.1998 272.341 77.5824 272.341C76.9422 272.341 76.4403 272.481 76.0767 272.761C75.7131 273.042 75.4574 273.341 75.3097 273.659L74.0369 273.205C74.2642 272.674 74.5672 272.261 74.946 271.966C75.3286 271.667 75.7453 271.458 76.196 271.341C76.6506 271.22 77.0975 271.159 77.5369 271.159C77.8172 271.159 78.1392 271.193 78.5028 271.261C78.8703 271.326 79.2244 271.46 79.5653 271.665C79.91 271.869 80.196 272.178 80.4233 272.591C80.6506 273.004 80.7642 273.557 80.7642 274.25V280H79.4233V278.818H79.3551C79.2642 279.008 79.1127 279.21 78.9006 279.426C78.6884 279.642 78.4063 279.826 78.054 279.977C77.7017 280.129 77.2718 280.205 76.7642 280.205ZM76.9688 279C77.4991 279 77.946 278.896 78.3097 278.688C78.6771 278.479 78.9536 278.21 79.1392 277.881C79.3286 277.551 79.4233 277.205 79.4233 276.841V275.614C79.3665 275.682 79.2415 275.744 79.0483 275.801C78.8589 275.854 78.6392 275.902 78.3892 275.943C78.143 275.981 77.9025 276.015 77.6676 276.045C77.4366 276.072 77.2491 276.095 77.1051 276.114C76.7566 276.159 76.4309 276.233 76.1278 276.335C75.8286 276.434 75.5862 276.583 75.4006 276.784C75.2188 276.981 75.1278 277.25 75.1278 277.591C75.1278 278.057 75.3002 278.409 75.6449 278.648C75.9934 278.883 76.4347 279 76.9688 279ZM86.7571 280.182C85.9389 280.182 85.2344 279.989 84.6435 279.602C84.0526 279.216 83.598 278.684 83.2798 278.006C82.9616 277.328 82.8026 276.553 82.8026 275.682C82.8026 274.795 82.9654 274.013 83.2912 273.335C83.6207 272.653 84.0791 272.121 84.6662 271.739C85.2571 271.352 85.9465 271.159 86.7344 271.159C87.348 271.159 87.901 271.273 88.3935 271.5C88.8859 271.727 89.2893 272.045 89.6037 272.455C89.9181 272.864 90.1132 273.341 90.1889 273.886H88.848C88.7457 273.489 88.5185 273.136 88.1662 272.83C87.8177 272.519 87.348 272.364 86.7571 272.364C86.2344 272.364 85.776 272.5 85.3821 272.773C84.992 273.042 84.687 273.422 84.4673 273.915C84.2514 274.403 84.1435 274.977 84.1435 275.636C84.1435 276.311 84.2495 276.898 84.4616 277.398C84.6776 277.898 84.9806 278.286 85.3707 278.562C85.7647 278.839 86.2268 278.977 86.7571 278.977C87.1056 278.977 87.4219 278.917 87.706 278.795C87.9901 278.674 88.2306 278.5 88.4276 278.273C88.6245 278.045 88.7647 277.773 88.848 277.455H90.1889C90.1132 277.97 89.9257 278.434 89.6264 278.847C89.331 279.256 88.9389 279.581 88.4503 279.824C87.9654 280.062 87.401 280.182 86.7571 280.182ZM93.3991 276.818L93.3764 275.159H93.6491L97.4673 271.273H99.1264L95.0582 275.386H94.9446L93.3991 276.818ZM92.1491 280V268.364H93.4901V280H92.1491ZM97.6946 280L94.2855 275.682L95.2401 274.75L99.3991 280H97.6946ZM108.898 280.182C108.11 280.182 107.419 279.994 106.824 279.619C106.233 279.244 105.771 278.72 105.438 278.045C105.108 277.371 104.943 276.583 104.943 275.682C104.943 274.773 105.108 273.979 105.438 273.301C105.771 272.623 106.233 272.097 106.824 271.722C107.419 271.347 108.11 271.159 108.898 271.159C109.686 271.159 110.375 271.347 110.966 271.722C111.561 272.097 112.023 272.623 112.352 273.301C112.686 273.979 112.852 274.773 112.852 275.682C112.852 276.583 112.686 277.371 112.352 278.045C112.023 278.72 111.561 279.244 110.966 279.619C110.375 279.994 109.686 280.182 108.898 280.182ZM108.898 278.977C109.496 278.977 109.989 278.824 110.375 278.517C110.761 278.21 111.047 277.807 111.233 277.307C111.419 276.807 111.511 276.265 111.511 275.682C111.511 275.098 111.419 274.555 111.233 274.051C111.047 273.547 110.761 273.14 110.375 272.83C109.989 272.519 109.496 272.364 108.898 272.364C108.299 272.364 107.807 272.519 107.42 272.83C107.034 273.14 106.748 273.547 106.562 274.051C106.377 274.555 106.284 275.098 106.284 275.682C106.284 276.265 106.377 276.807 106.562 277.307C106.748 277.807 107.034 278.21 107.42 278.517C107.807 278.824 108.299 278.977 108.898 278.977ZM120.399 276.432V271.273H121.74V280H120.399V278.523H120.308C120.104 278.966 119.786 279.343 119.354 279.653C118.922 279.96 118.376 280.114 117.717 280.114C117.172 280.114 116.687 279.994 116.263 279.756C115.839 279.513 115.505 279.15 115.263 278.665C115.02 278.176 114.899 277.561 114.899 276.818V271.273H116.24V276.727C116.24 277.364 116.418 277.871 116.774 278.25C117.134 278.629 117.592 278.818 118.149 278.818C118.482 278.818 118.821 278.733 119.166 278.562C119.515 278.392 119.806 278.131 120.041 277.778C120.28 277.426 120.399 276.977 120.399 276.432ZM127.991 271.273V272.409H123.469V271.273H127.991ZM124.787 269.182H126.128V277.5C126.128 277.879 126.183 278.163 126.293 278.352C126.406 278.538 126.55 278.663 126.724 278.727C126.902 278.788 127.09 278.818 127.287 278.818C127.435 278.818 127.556 278.811 127.651 278.795C127.745 278.777 127.821 278.761 127.878 278.75L128.151 279.955C128.06 279.989 127.933 280.023 127.77 280.057C127.607 280.095 127.401 280.114 127.151 280.114C126.772 280.114 126.401 280.032 126.037 279.869C125.677 279.706 125.378 279.458 125.139 279.125C124.904 278.792 124.787 278.371 124.787 277.864V269.182ZM134.509 280V271.273H135.849V280H134.509ZM135.19 269.818C134.929 269.818 134.704 269.729 134.514 269.551C134.329 269.373 134.236 269.159 134.236 268.909C134.236 268.659 134.329 268.445 134.514 268.267C134.704 268.089 134.929 268 135.19 268C135.452 268 135.675 268.089 135.861 268.267C136.05 268.445 136.145 268.659 136.145 268.909C136.145 269.159 136.05 269.373 135.861 269.551C135.675 269.729 135.452 269.818 135.19 269.818ZM139.646 274.75V280H138.305V271.273H139.601V272.636H139.714C139.919 272.193 140.23 271.837 140.646 271.568C141.063 271.295 141.601 271.159 142.26 271.159C142.851 271.159 143.368 271.28 143.811 271.523C144.254 271.761 144.599 272.125 144.845 272.614C145.091 273.098 145.214 273.712 145.214 274.455V280H143.874V274.545C143.874 273.86 143.696 273.326 143.339 272.943C142.983 272.557 142.495 272.364 141.874 272.364C141.446 272.364 141.063 272.456 140.726 272.642C140.393 272.828 140.129 273.098 139.936 273.455C139.743 273.811 139.646 274.242 139.646 274.75ZM151.46 271.273V272.409H146.938V271.273H151.46ZM148.256 269.182H149.597V277.5C149.597 277.879 149.652 278.163 149.761 278.352C149.875 278.538 150.019 278.663 150.193 278.727C150.371 278.788 150.559 278.818 150.756 278.818C150.903 278.818 151.025 278.811 151.119 278.795C151.214 278.777 151.29 278.761 151.347 278.75L151.619 279.955C151.528 279.989 151.402 280.023 151.239 280.057C151.076 280.095 150.869 280.114 150.619 280.114C150.241 280.114 149.869 280.032 149.506 279.869C149.146 279.706 148.847 279.458 148.608 279.125C148.373 278.792 148.256 278.371 148.256 277.864V269.182ZM156.929 280.182C156.141 280.182 155.45 279.994 154.855 279.619C154.264 279.244 153.802 278.72 153.469 278.045C153.139 277.371 152.974 276.583 152.974 275.682C152.974 274.773 153.139 273.979 153.469 273.301C153.802 272.623 154.264 272.097 154.855 271.722C155.45 271.347 156.141 271.159 156.929 271.159C157.717 271.159 158.406 271.347 158.997 271.722C159.592 272.097 160.054 272.623 160.384 273.301C160.717 273.979 160.884 274.773 160.884 275.682C160.884 276.583 160.717 277.371 160.384 278.045C160.054 278.72 159.592 279.244 158.997 279.619C158.406 279.994 157.717 280.182 156.929 280.182ZM156.929 278.977C157.527 278.977 158.02 278.824 158.406 278.517C158.793 278.21 159.079 277.807 159.264 277.307C159.45 276.807 159.543 276.265 159.543 275.682C159.543 275.098 159.45 274.555 159.264 274.051C159.079 273.547 158.793 273.14 158.406 272.83C158.02 272.519 157.527 272.364 156.929 272.364C156.33 272.364 155.838 272.519 155.452 272.83C155.065 273.14 154.779 273.547 154.594 274.051C154.408 274.555 154.315 275.098 154.315 275.682C154.315 276.265 154.408 276.807 154.594 277.307C154.779 277.807 155.065 278.21 155.452 278.517C155.838 278.824 156.33 278.977 156.929 278.977ZM1.40909 299V287.364H2.81818V292.545H9.02273V287.364H10.4318V299H9.02273V293.795H2.81818V299H1.40909ZM13.7301 299H12.2528L16.5256 287.364H17.9801L22.2528 299H20.7756L17.2983 289.205H17.2074L13.7301 299ZM14.2756 294.455H20.2301V295.705H14.2756V294.455ZM30.429 290.273C30.3608 289.697 30.0843 289.25 29.5994 288.932C29.1146 288.614 28.5199 288.455 27.8153 288.455C27.3002 288.455 26.8494 288.538 26.4631 288.705C26.0805 288.871 25.7813 289.1 25.5653 289.392C25.3532 289.684 25.2472 290.015 25.2472 290.386C25.2472 290.697 25.321 290.964 25.4688 291.188C25.6203 291.407 25.8134 291.591 26.0483 291.739C26.2831 291.883 26.5294 292.002 26.7869 292.097C27.0445 292.187 27.2812 292.261 27.4972 292.318L28.679 292.636C28.982 292.716 29.3191 292.826 29.6903 292.966C30.0653 293.106 30.4233 293.297 30.7642 293.54C31.1089 293.778 31.393 294.085 31.6165 294.46C31.84 294.835 31.9517 295.295 31.9517 295.841C31.9517 296.47 31.7869 297.038 31.4574 297.545C31.1316 298.053 30.6544 298.456 30.0256 298.756C29.4006 299.055 28.6411 299.205 27.7472 299.205C26.9138 299.205 26.1922 299.07 25.5824 298.801C24.9763 298.532 24.4991 298.157 24.1506 297.676C23.8059 297.195 23.6108 296.636 23.5653 296H25.0199C25.0578 296.439 25.2055 296.803 25.4631 297.091C25.7244 297.375 26.054 297.587 26.4517 297.727C26.8532 297.864 27.285 297.932 27.7472 297.932C28.285 297.932 28.768 297.845 29.196 297.67C29.6241 297.492 29.9631 297.246 30.2131 296.932C30.4631 296.614 30.5881 296.242 30.5881 295.818C30.5881 295.432 30.4801 295.117 30.2642 294.875C30.0483 294.633 29.7642 294.436 29.4119 294.284C29.0597 294.133 28.679 294 28.2699 293.886L26.8381 293.477C25.929 293.216 25.2093 292.843 24.679 292.358C24.1487 291.873 23.8835 291.239 23.8835 290.455C23.8835 289.803 24.0597 289.235 24.4119 288.75C24.768 288.261 25.2453 287.883 25.8438 287.614C26.446 287.341 27.1184 287.205 27.8608 287.205C28.6108 287.205 29.2775 287.339 29.8608 287.608C30.4441 287.873 30.9063 288.237 31.2472 288.699C31.5919 289.161 31.7737 289.686 31.7926 290.273H30.429ZM34.2685 299V287.364H35.6776V292.545H41.8821V287.364H43.2912V299H41.8821V293.795H35.6776V299H34.2685ZM48.794 293.182C48.794 294.614 48.6065 295.932 48.2315 297.136C47.8603 298.337 47.3281 299.443 46.6349 300.455H45.4531C45.7259 300.08 45.9796 299.617 46.2145 299.068C46.4531 298.523 46.6615 297.924 46.8395 297.273C47.0175 296.617 47.1558 295.941 47.2543 295.244C47.3565 294.544 47.4077 293.856 47.4077 293.182C47.4077 292.28 47.3205 291.366 47.1463 290.438C46.9721 289.509 46.7372 288.648 46.4418 287.852C46.1463 287.057 45.8168 286.409 45.4531 285.909H46.6349C47.3281 286.92 47.8603 288.028 48.2315 289.233C48.6065 290.434 48.794 291.75 48.794 293.182Z" fill="#CF5B23"/>
</svg>
