<svg width="24" height="24" viewBox="0 0 24 24" fill="none" xmlns="http://www.w3.org/2000/svg">
<path fill-rule="evenodd" clip-rule="evenodd" d="M6.75 6.75H5.25V17.25H6.75V12.75H9.75V17.25H11.25V6.75H9.75V11.25H6.75V6.75ZM14.25 17.25H18.75V15.75H14.25L17.8713 11.8713C18.4142 11.3285 18.75 10.5784 18.75 9.75C18.75 8.09318 17.4068 6.75 15.75 6.75C14.0932 6.75 12.75 8.09318 12.75 9.75H14.25C14.25 8.92155 14.9215 8.25 15.75 8.25C16.5785 8.25 17.25 8.92155 17.25 9.75C17.25 10.1641 17.0821 10.5391 16.8106 10.8106L13.153 14.727C12.903 14.995 12.75 15.3546 12.75 15.75C12.75 16.5785 13.4215 17.25 14.25 17.25Z" fill="black"/>
</svg>
