<svg width="24" height="24" viewBox="0 0 24 24" fill="none" xmlns="http://www.w3.org/2000/svg">
<path fill-rule="evenodd" clip-rule="evenodd" d="M6.75 6.75H5.25V17.25H6.75V12.75H9.75V17.25H11.25V6.75H9.75V11.25H6.75V6.75ZM18 6.75H14.25C13.4215 6.75 12.75 7.42155 12.75 8.25V11.25C12.75 12.0785 13.4215 12.75 14.25 12.75H15.75C16.5785 12.75 17.25 13.4215 17.25 14.25C17.25 15.0785 16.5785 15.75 15.75 15.75H14.25V15H12.75V15.75C12.75 16.5785 13.4215 17.25 14.25 17.25H15.75C17.4068 17.25 18.75 15.9068 18.75 14.25C18.75 12.5932 17.4068 11.25 15.75 11.25H14.25V8.25H18V6.75Z" fill="black"/>
</svg>
