<svg width="24" height="24" viewBox="0 0 24 24" fill="none" xmlns="http://www.w3.org/2000/svg">
<path fill-rule="evenodd" clip-rule="evenodd" d="M5.25 6.75H6.75V11.25H9.75V6.75H11.25V17.25H9.75V12.75H6.75V17.25H5.25V6.75ZM14.25 6.75H17.25C18.0785 6.75 18.75 7.42155 18.75 8.25V9H17.25V8.25H14.25V11.25H17.25C18.0785 11.25 18.75 11.9215 18.75 12.75V15.75C18.75 16.5785 18.0785 17.25 17.25 17.25H14.25C13.4215 17.25 12.75 16.5785 12.75 15.75V8.25C12.75 7.42155 13.4215 6.75 14.25 6.75ZM14.25 15.75V12.75H17.25V15.75H14.25Z" fill="black"/>
</svg>
