<svg xmlns="http://www.w3.org/2000/svg" viewBox="0 0 1280 720" role="img" aria-label="Placeholder screenshot for the Build step">
  <defs>
    <linearGradient id="bg3" x1="0" y1="0" x2="1" y2="1">
      <stop offset="0" stop-color="#f3f4f6" />
      <stop offset="1" stop-color="#e5e7eb" />
    </linearGradient>
  </defs>
  <rect width="1280" height="720" fill="url(#bg3)" />
  <rect x="0" y="0" width="1280" height="56" fill="#ffffff" />
  <rect x="540" y="14" width="200" height="28" rx="14" fill="#e5e7eb" />
  <circle cx="380" cy="320" r="46" fill="#ffffff" stroke="#1f2937" stroke-width="3" />
  <rect x="540" y="294" width="52" height="52" fill="#1f2937" />
  <circle cx="720" cy="320" r="46" fill="#ffffff" stroke="#1f2937" stroke-width="3" />
  <defs>
    <marker id="a3" viewBox="0 0 10 10" refX="9" refY="5" markerWidth="6" markerHeight="6" orient="auto">
      <path d="M0,0 L10,5 L0,10 z" fill="#1f2937" />
    </marker>
  </defs>
  <line x1="426" y1="320" x2="540" y2="320" stroke="#1f2937" stroke-width="3" marker-end="url(#a3)" />
  <line x1="592" y1="320" x2="674" y2="320" stroke="#1f2937" stroke-width="3" marker-end="url(#a3)" />
  <rect x="880" y="60" width="380" height="640" rx="12" fill="#ffffff" />
  <rect x="900" y="84" width="180" height="14" rx="3" fill="#1f2937" />
  <rect x="900" y="120" width="340" height="64" rx="10" fill="#eef2ff" />
  <rect x="916" y="136" width="220" height="10" rx="3" fill="#6366f1" />
  <rect x="916" y="156" width="280" height="10" rx="3" fill="#6366f1" opacity="0.6" />
  <rect x="900" y="200" width="340" height="64" rx="10" fill="#f3f4f6" />
  <rect x="916" y="216" width="180" height="10" rx="3" fill="#374151" />
  <rect x="916" y="236" width="260" height="10" rx="3" fill="#9ca3af" />
  <rect x="900" y="280" width="340" height="64" rx="10" fill="#eef2ff" />
  <rect x="916" y="296" width="240" height="10" rx="3" fill="#6366f1" />
  <rect x="916" y="316" width="200" height="10" rx="3" fill="#6366f1" opacity="0.6" />
  <rect x="900" y="640" width="340" height="44" rx="10" fill="#f9fafb" stroke="#e5e7eb" stroke-width="1" />
  <rect x="916" y="654" width="120" height="14" rx="3" fill="#9ca3af" />
  <text x="540" y="700" text-anchor="middle" font-family="Inter, system-ui, sans-serif" font-size="18" fill="#6b7280">Placeholder screenshot · Step 3: Build with the AI assistant</text>
</svg>
