<svg xmlns="http://www.w3.org/2000/svg" xmlns:xlink="http://www.w3.org/1999/xlink" width="1577"
    height="358">
    <defs>
        <linearGradient id="a" x1="50%" x2="50%" y1="100%" y2="0%">
            <stop offset="0%" stop-color="#FFF" />
            <stop offset="100%" stop-color="#BFC5D5" />
        </linearGradient>
        <linearGradient id="b" x1="50%" x2="50%" y1=".137%" y2="100%">
            <stop offset="0%" stop-color="#FFF" />
            <stop offset="100%" stop-color="#D2D7DD" />
        </linearGradient>
        <linearGradient id="c" x1="5.856%" x2="95.926%" y1="50%" y2="50%">
            <stop offset="0%" stop-color="#FFF" />
            <stop offset="100%" stop-color="#D4DAE6" />
        </linearGradient>
        <linearGradient id="d" x1="8.803%" x2="100%" y1="50%" y2="50%">
            <stop offset="0%" stop-color="#DDE3EB" />
            <stop offset="100%" stop-color="#FFF" />
        </linearGradient>
        <path id="e"
            d="M497.719 54.79h67.958v91.779h87.224V54.79h67.959V300h-67.959v-93.18h-87.224V300h-67.958z" />
        <path id="f"
            d="m935.988 203.317-27.324-69.71-27.673 69.71h54.997ZM876.437 53.04h65.506L1046.333 300H973.47l-17.866-43.787h-94.58L843.507 300h-71.46L876.436 53.039Z" />
        <path id="g"
            d="M1193.852 304.204c-21.952 0-42.795-3.387-62.528-10.16-19.734-6.772-37.19-16.93-52.37-30.475l37.832-45.189c24.521 19.617 51.027 29.425 79.518 29.425 9.108 0 16.056-1.46 20.843-4.378 4.788-2.92 7.181-7.065 7.181-12.436v-.7c0-2.57-.583-4.847-1.751-6.832-1.168-1.985-3.328-3.911-6.48-5.78-3.153-1.868-7.357-3.678-12.611-5.43-5.255-1.75-12.086-3.56-20.493-5.429-13.078-3.036-25.222-6.364-36.431-9.983-11.21-3.62-20.96-8.29-29.25-14.012-8.29-5.722-14.83-12.845-19.617-21.369-4.788-8.524-7.181-19.09-7.181-31.702v-.7c0-11.444 2.16-21.952 6.48-31.527s10.626-17.866 18.917-24.872c8.29-7.006 18.273-12.435 29.95-16.289 11.677-3.853 24.871-5.78 39.584-5.78 21.018 0 39.759 2.744 56.223 8.232 16.464 5.489 31.352 13.604 44.663 24.346l-33.979 47.991c-11.21-7.94-22.71-13.953-34.504-18.04-11.794-4.087-23.178-6.13-34.154-6.13-8.174 0-14.304 1.518-18.391 4.554-4.087 3.036-6.13 6.772-6.13 11.21v.7c0 2.802.642 5.254 1.926 7.356 1.285 2.102 3.503 4.029 6.656 5.78 3.153 1.752 7.473 3.503 12.961 5.255 5.488 1.751 12.436 3.56 20.843 5.43 14.012 3.035 26.681 6.597 38.007 10.683 11.327 4.087 20.96 9.05 28.9 14.888 7.94 5.838 14.012 12.903 18.216 21.193 4.203 8.29 6.305 18.157 6.305 29.6v.701c0 12.611-2.394 23.82-7.181 33.629-4.787 9.808-11.501 18.157-20.142 25.046-8.641 6.89-19.033 12.144-31.177 15.764-12.144 3.62-25.689 5.43-40.635 5.43Z" />
        <path id="h"
            d="M1353.283 54.79h67.958v91.779h87.224V54.79h67.959V300h-67.959v-93.18h-87.224V300h-67.958z" />
    </defs>
    <g fill="none" fill-rule="nonzero">
        <path fill="url(#a)" d="M200.52 357.646h99.582V-.002H200.52z" opacity=".886" />
        <path fill="url(#b)" d="M57.546 357.646h99.575V-.002H57.546z" opacity=".898" />
        <path fill="url(#c)" d="M0 153.289h357.649V53.707H0z" opacity=".881" />
        <path fill="url(#d)" d="M0 298.821h357.649v-99.575H0z" opacity=".856" />
        <use xlink:href="#e" fill="#000" />
        <use xlink:href="#e" fill="#ECEFF3" />
        <use xlink:href="#f" fill="#000" />
        <use xlink:href="#f" fill="#ECEFF3" />
        <use xlink:href="#g" fill="#000" />
        <use xlink:href="#g" fill="#ECEFF3" />
        <use xlink:href="#h" fill="#000" />
        <use xlink:href="#h" fill="#ECEFF3" />
    </g>
</svg>
