<svg class="hash-letters black" style="height:calc(1.5rem);margin-left:calc(1.5rem*0.5);width:auto" width="151" height="34" viewBox="0 0 151 34" xmlns="http://www.w3.org/2000/svg">
    <title>HASH</title>
    <g id="Wireframes" fill="none" fill-rule="evenodd">
        <g id="hash.ai" transform="translate(-158 -99)" fill="rgba(0, 0, 0, 0.85)">
            <g id="Group" transform="translate(94 95)">
                <path d="M64 4.564h9.232v12.303h11.85V4.564h9.231v32.872h-9.232V24.945h-11.85v12.491H64V4.564zm61.025 19.911l-3.712-9.345-3.76 9.345h7.472zm-8.09-20.146h8.899l14.18 33.107h-9.898l-2.427-5.87h-12.848l-2.38 5.87h-9.707l14.18-33.107zM161.542 38c-2.982 0-5.814-.454-8.495-1.362-2.68-.908-5.052-2.27-7.114-4.086l5.14-6.058c3.33 2.63 6.931 3.945 10.802 3.945 1.237 0 2.181-.195 2.831-.587.65-.391.976-.947.976-1.667v-.094c0-.344-.08-.65-.238-.916-.159-.266-.452-.524-.88-.774-.429-.25-1-.494-1.714-.728-.713-.235-1.641-.478-2.783-.728a61.743 61.743 0 0 1-4.95-1.339c-1.522-.485-2.847-1.111-3.973-1.878a8.556 8.556 0 0 1-2.665-2.865c-.65-1.142-.975-2.56-.975-4.25v-.094c0-1.534.293-2.943.88-4.226a9.386 9.386 0 0 1 2.57-3.334c1.126-.94 2.482-1.668 4.068-2.184C156.61 4.258 158.401 4 160.4 4c2.855 0 5.4.368 7.637 1.104a19.372 19.372 0 0 1 6.068 3.263l-4.616 6.434c-1.523-1.064-3.085-1.87-4.688-2.418-1.602-.548-3.148-.822-4.64-.822-1.11 0-1.942.203-2.498.61-.555.407-.832.908-.832 1.503v.094c0 .376.087.704.261.986.175.282.476.54.905.775.428.235 1.015.47 1.76.704.746.235 1.69.478 2.832.728 1.903.407 3.624.885 5.163 1.433 1.539.548 2.847 1.213 3.926 1.996 1.078.782 1.903 1.73 2.474 2.84.571 1.112.857 2.435.857 3.969v.094c0 1.69-.325 3.193-.976 4.508a9.7 9.7 0 0 1-2.736 3.358c-1.174.923-2.585 1.628-4.235 2.113-1.65.485-3.49.728-5.52.728zm23.145-33.436h9.232v12.303h11.85V4.564H215v32.872h-9.232V24.945h-11.85v12.491h-9.231V4.564z" id="HASH" />
            </g>
        </g>
    </g>
</svg>
