<svg width="302" height="200" fill="none" xmlns="http://www.w3.org/2000/svg"><rect x="1" y=".5" width="300" height="199" rx="3.5" fill="#fff"/><path d="M78.25 42.5h-32.5A3.75 3.75 0 0 0 42 46.25v27.5c0 2.11 1.64 3.75 3.75 3.75h32.5A3.75 3.75 0 0 0 82 73.75v-27.5c0-2.031-1.719-3.75-3.75-3.75Zm-32.5 33.75a2.468 2.468 0 0 1-2.5-2.5v-3.984l8.281-8.282a.613.613 0 0 1 .86 0l6.172 6.172-8.594 8.594H45.75Zm35-2.5c0 1.406-1.172 2.5-2.5 2.5H51.687l19.844-19.766a.613.613 0 0 1 .86 0l8.359 8.282v8.984Zm0-10.703-7.5-7.422a1.711 1.711 0 0 0-2.578 0L59.5 66.797l-6.25-6.25c-.781-.703-1.953-.703-2.656 0l-7.344 7.5V46.25c0-1.328 1.094-2.5 2.5-2.5h32.5c1.328 0 2.5 1.172 2.5 2.5v16.797ZM52 48.125c-2.422 0-4.375 2.031-4.375 4.375A4.368 4.368 0 0 0 52 56.875c2.344 0 4.375-1.953 4.375-4.375 0-2.344-2.031-4.375-4.375-4.375Zm0 7.5c-1.797 0-3.125-1.328-3.125-3.125 0-1.719 1.328-3.125 3.125-3.125a3.134 3.134 0 0 1 3.125 3.125c0 1.797-1.406 3.125-3.125 3.125Z" fill="#C1CFDE"/><path d="M105.666 44.818h1.541v6.697c0 .712-.167 1.344-.502 1.894a3.502 3.502 0 0 1-1.412 1.293c-.606.311-1.317.467-2.132.467-.813 0-1.522-.156-2.128-.467a3.508 3.508 0 0 1-1.412-1.293c-.335-.55-.502-1.181-.502-1.894v-6.697h1.536v6.573c0 .46.101.87.303 1.228.206.358.496.64.87.845.375.202.819.303 1.333.303.517 0 .962-.101 1.337-.303.378-.206.666-.487.865-.845.202-.358.303-.768.303-1.228v-6.573Zm3.656 13.046v-10.5h1.451v1.238h.125c.086-.16.21-.343.372-.552.163-.21.388-.391.677-.547.288-.16.669-.239 1.143-.239.616 0 1.167.156 1.651.467.483.312.863.761 1.138 1.348.278.587.418 1.292.418 2.118 0 .825-.138 1.533-.413 2.123-.275.586-.653 1.039-1.133 1.357a2.938 2.938 0 0 1-1.646.472c-.464 0-.844-.078-1.139-.233a2.165 2.165 0 0 1-.686-.547 4.146 4.146 0 0 1-.382-.557h-.09v4.052h-1.486Zm1.456-6.682c0 .537.078 1.007.234 1.412.156.404.381.72.676.95.295.225.656.337 1.084.337.444 0 .815-.117 1.113-.353a2.19 2.19 0 0 0 .677-.97c.155-.407.233-.866.233-1.376 0-.504-.076-.956-.228-1.357a2.082 2.082 0 0 0-.677-.95c-.298-.232-.671-.348-1.118-.348-.431 0-.796.111-1.094.333-.295.222-.519.532-.671.93-.153.398-.229.861-.229 1.392Zm8.671-6.364V55h-1.487V44.818h1.487Zm5.216 10.336c-.716 0-1.341-.164-1.874-.492a3.316 3.316 0 0 1-1.243-1.377c-.295-.59-.443-1.28-.443-2.068 0-.792.148-1.485.443-2.078a3.31 3.31 0 0 1 1.243-1.383c.533-.328 1.158-.492 1.874-.492.716 0 1.341.164 1.874.492a3.31 3.31 0 0 1 1.243 1.383c.295.593.443 1.285.443 2.078 0 .788-.148 1.478-.443 2.068a3.316 3.316 0 0 1-1.243 1.377c-.533.328-1.158.492-1.874.492Zm.005-1.248c.464 0 .849-.122 1.154-.368.304-.245.53-.571.676-.98.149-.407.223-.856.223-1.346 0-.488-.074-.935-.223-1.343a2.195 2.195 0 0 0-.676-.989c-.305-.249-.69-.373-1.154-.373-.467 0-.855.124-1.163.373a2.22 2.22 0 0 0-.681.99 3.956 3.956 0 0 0-.219 1.342c0 .49.073.94.219 1.347.149.408.376.734.681.98.308.245.696.367 1.163.367Zm7.436 1.263c-.484 0-.921-.09-1.312-.268a2.214 2.214 0 0 1-.93-.79c-.225-.346-.338-.768-.338-1.269 0-.43.083-.785.249-1.064.165-.278.389-.498.671-.66.282-.163.596-.286.944-.369a9.396 9.396 0 0 1 1.064-.189l1.114-.129c.285-.036.492-.094.621-.174.13-.08.194-.209.194-.388v-.035c0-.434-.122-.77-.368-1.009-.242-.238-.603-.358-1.083-.358-.501 0-.895.111-1.184.333-.285.22-.482.463-.591.731l-1.397-.318c.165-.464.407-.839.726-1.123a2.94 2.94 0 0 1 1.108-.627 4.331 4.331 0 0 1 1.318-.199c.305 0 .628.037.969.11.345.07.666.198.965.387.301.19.548.46.74.81.193.349.289.801.289 1.358V55h-1.452v-1.044h-.06c-.096.192-.24.381-.432.567-.192.185-.439.34-.741.462-.301.123-.663.184-1.084.184Zm.324-1.193c.41 0 .762-.081 1.053-.244.295-.162.519-.374.672-.636.155-.265.233-.549.233-.85v-.985c-.053.053-.155.103-.308.15-.149.043-.32.08-.512.114-.192.03-.379.058-.562.084l-.457.06a3.687 3.687 0 0 0-.791.184c-.235.086-.424.21-.566.373-.14.159-.209.371-.209.636 0 .368.136.646.407.835.272.186.619.279 1.04.279Zm8.283 1.173a2.958 2.958 0 0 1-1.65-.472c-.481-.318-.859-.77-1.134-1.357-.271-.59-.407-1.298-.407-2.123 0-.826.137-1.532.412-2.118.279-.587.66-1.036 1.144-1.348a2.973 2.973 0 0 1 1.645-.467c.474 0 .855.08 1.144.239.291.156.517.338.676.547.162.209.288.393.378.552h.089v-3.784h1.487V55h-1.452v-1.188h-.124c-.09.162-.219.348-.388.557a2.154 2.154 0 0 1-.686.547c-.292.155-.67.233-1.134.233Zm.329-1.268c.427 0 .788-.112 1.083-.338.299-.228.524-.545.676-.95.156-.404.234-.874.234-1.411 0-.53-.076-.995-.229-1.392-.152-.398-.376-.708-.671-.93-.295-.222-.659-.333-1.093-.333-.448 0-.821.116-1.119.348a2.125 2.125 0 0 0-.676.95 3.876 3.876 0 0 0-.224 1.357c0 .51.076.97.229 1.377.152.408.378.73.676.97.302.235.673.352 1.114.352Zm11.504 1.288c-.484 0-.922-.09-1.313-.268a2.206 2.206 0 0 1-.929-.79c-.226-.346-.338-.768-.338-1.269 0-.43.082-.785.248-1.064.166-.278.39-.498.671-.66a3.51 3.51 0 0 1 .945-.369 9.396 9.396 0 0 1 1.064-.189l1.113-.129c.285-.036.493-.094.622-.174.129-.08.194-.209.194-.388v-.035c0-.434-.123-.77-.368-1.009-.242-.238-.603-.358-1.084-.358-.5 0-.895.111-1.183.333-.285.22-.482.463-.592.731l-1.397-.318c.166-.464.408-.839.726-1.123a2.945 2.945 0 0 1 1.109-.627 4.325 4.325 0 0 1 1.317-.199c.305 0 .628.037.97.11.344.07.666.198.964.387.302.19.549.46.741.81.192.349.288.801.288 1.358V55h-1.451v-1.044h-.06a2.1 2.1 0 0 1-.433.567c-.192.185-.439.34-.74.462-.302.123-.663.184-1.084.184Zm.323-1.193c.411 0 .762-.081 1.054-.244.295-.162.519-.374.671-.636a1.65 1.65 0 0 0 .234-.85v-.985c-.053.053-.156.103-.308.15-.15.043-.32.08-.513.114-.192.03-.379.058-.561.084l-.458.06a3.678 3.678 0 0 0-.79.184c-.236.086-.424.21-.567.373-.139.159-.209.371-.209.636 0 .368.136.646.408.835.272.186.618.279 1.039.279Zm12.765-6.612v1.193h-4.316v-1.193h4.316ZM162.501 55v-8.521c0-.478.105-.874.314-1.188.208-.319.485-.556.83-.711a2.65 2.65 0 0 1 1.123-.24 3.4 3.4 0 0 1 .766.075c.212.047.37.09.472.13l-.348 1.203a6.888 6.888 0 0 0-.268-.07 1.526 1.526 0 0 0-.398-.044c-.361 0-.62.089-.775.268-.153.179-.229.438-.229.776V55h-1.487Zm4.666 0v-7.636h1.487V55h-1.487Zm.751-8.815a.943.943 0 0 1-.666-.258.838.838 0 0 1-.274-.627c0-.245.091-.454.274-.626a.933.933 0 0 1 .666-.264c.258 0 .479.088.661.264a.823.823 0 0 1 .279.626c0 .242-.093.451-.279.627a.927.927 0 0 1-.661.258Zm4.222-1.367V55h-1.486V44.818h1.486Zm5.291 10.336c-.752 0-1.4-.16-1.944-.482a3.273 3.273 0 0 1-1.253-1.367c-.291-.59-.437-1.281-.437-2.074 0-.782.146-1.471.437-2.068a3.398 3.398 0 0 1 1.233-1.397c.531-.334 1.15-.502 1.86-.502.431 0 .848.072 1.253.214a3.03 3.03 0 0 1 1.088.671c.322.305.575.701.761 1.188.186.484.278 1.073.278 1.765v.527h-6.07v-1.113h4.614c0-.392-.08-.738-.239-1.04a1.805 1.805 0 0 0-.671-.72 1.875 1.875 0 0 0-1.004-.264 1.94 1.94 0 0 0-1.094.308 2.071 2.071 0 0 0-.716.796 2.293 2.293 0 0 0-.249 1.059v.87c0 .51.09.944.269 1.302.182.358.436.632.761.82.324.186.704.28 1.138.28.282 0 .539-.04.771-.12.232-.083.432-.206.601-.368.169-.163.298-.363.388-.602l1.407.254a2.549 2.549 0 0 1-.607 1.089 2.939 2.939 0 0 1-1.088.72c-.435.17-.93.254-1.487.254Z" fill="#6F59EC"/><path d="M102.216 75.154c-.716 0-1.341-.164-1.874-.492a3.317 3.317 0 0 1-1.243-1.377c-.295-.59-.443-1.28-.443-2.068 0-.793.148-1.485.443-2.079a3.31 3.31 0 0 1 1.243-1.382c.533-.328 1.158-.492 1.874-.492.716 0 1.341.164 1.874.492a3.31 3.31 0 0 1 1.243 1.382c.295.594.443 1.286.443 2.079 0 .788-.148 1.478-.443 2.068a3.316 3.316 0 0 1-1.243 1.377c-.533.328-1.158.492-1.874.492Zm.005-1.248c.464 0 .848-.122 1.153-.368.305-.245.531-.571.676-.98.15-.407.224-.856.224-1.346a3.86 3.86 0 0 0-.224-1.343 2.18 2.18 0 0 0-.676-.989c-.305-.249-.689-.373-1.153-.373-.467 0-.855.124-1.163.373a2.23 2.23 0 0 0-.682.99 3.98 3.98 0 0 0-.218 1.342c0 .49.073.94.218 1.347.15.408.377.734.682.98.308.245.696.367 1.163.367ZM107.435 75v-7.636h1.437v1.213h.079c.139-.411.385-.734.736-.97a2.107 2.107 0 0 1 1.203-.358 6.372 6.372 0 0 1 .631.035v1.422a2.61 2.61 0 0 0-.318-.055 3.031 3.031 0 0 0-.457-.034c-.351 0-.665.074-.94.223a1.666 1.666 0 0 0-.885 1.497V75h-1.486Zm11.937.15a2.96 2.96 0 0 1-1.651-.473c-.481-.318-.858-.77-1.133-1.357-.272-.59-.408-1.298-.408-2.123 0-.826.137-1.532.413-2.118.278-.587.659-1.036 1.143-1.347a2.974 2.974 0 0 1 1.646-.468c.474 0 .855.08 1.143.239.292.156.517.338.676.547.163.209.289.392.378.552h.09v-3.784h1.486V75h-1.452v-1.188h-.124a3.9 3.9 0 0 1-.388.557 2.143 2.143 0 0 1-.686.546c-.292.156-.669.234-1.133.234Zm.328-1.269c.427 0 .789-.112 1.084-.338.298-.228.523-.545.676-.95.155-.404.233-.874.233-1.411 0-.53-.076-.995-.228-1.392-.153-.398-.377-.708-.671-.93-.295-.222-.66-.333-1.094-.333-.448 0-.821.116-1.119.348a2.125 2.125 0 0 0-.676.95 3.876 3.876 0 0 0-.224 1.357c0 .51.077.97.229 1.377.152.408.378.73.676.97.302.235.673.352 1.114.352ZM125.277 75v-7.636h1.436v1.213h.08c.139-.411.384-.734.736-.97a2.103 2.103 0 0 1 1.203-.358 6.372 6.372 0 0 1 .631.035v1.422a2.61 2.61 0 0 0-.318-.055 3.031 3.031 0 0 0-.457-.034 1.94 1.94 0 0 0-.94.223 1.66 1.66 0 0 0-.885 1.497V75h-1.486Zm7.527.169c-.484 0-.922-.09-1.313-.268a2.214 2.214 0 0 1-.93-.79c-.225-.346-.338-.768-.338-1.269 0-.43.083-.785.249-1.064.166-.278.389-.498.671-.66a3.51 3.51 0 0 1 .945-.369 9.357 9.357 0 0 1 1.064-.189l1.113-.129c.285-.036.492-.094.622-.174.129-.08.194-.209.194-.388v-.034c0-.435-.123-.771-.368-1.01-.242-.238-.604-.358-1.084-.358-.501 0-.895.111-1.183.333-.285.22-.483.463-.592.731l-1.397-.318c.166-.464.408-.838.726-1.123a2.937 2.937 0 0 1 1.109-.627 4.32 4.32 0 0 1 1.317-.199c.305 0 .628.037.969.11.345.07.667.198.965.387.302.19.549.46.741.81.192.349.288.801.288 1.358V75h-1.452v-1.044h-.059a2.12 2.12 0 0 1-.433.567c-.192.185-.439.34-.741.462-.301.123-.662.184-1.083.184Zm.323-1.193c.411 0 .762-.081 1.054-.244.295-.162.518-.374.671-.636a1.65 1.65 0 0 0 .234-.85v-.985c-.053.053-.156.103-.309.15a4.752 4.752 0 0 1-.512.114c-.192.03-.379.058-.562.084l-.457.06a3.678 3.678 0 0 0-.79.184 1.35 1.35 0 0 0-.567.373c-.139.159-.209.371-.209.636 0 .368.136.647.408.835.271.186.618.279 1.039.279Zm8.627 4.047c-.607 0-1.129-.08-1.566-.239-.435-.159-.789-.37-1.064-.631a2.655 2.655 0 0 1-.617-.86l1.278-.527c.089.145.209.3.358.462.152.166.358.307.616.423.262.116.599.174 1.01.174.563 0 1.029-.138 1.397-.413.368-.272.552-.706.552-1.303v-1.501h-.095a3.364 3.364 0 0 1-.388.542 2.086 2.086 0 0 1-.686.517c-.291.146-.671.219-1.138.219a3.18 3.18 0 0 1-1.631-.423c-.481-.285-.862-.704-1.143-1.258-.279-.557-.418-1.241-.418-2.053 0-.812.137-1.508.413-2.088.278-.58.659-1.024 1.143-1.332a2.974 2.974 0 0 1 1.646-.468c.474 0 .856.08 1.148.239.292.156.519.338.681.547.166.209.294.392.383.552h.109v-1.238h1.457v7.805c0 .656-.152 1.195-.457 1.616-.305.42-.718.732-1.238.934-.517.203-1.101.304-1.75.304Zm-.015-4.37c.427 0 .789-.1 1.084-.299.298-.202.523-.49.676-.865.156-.377.233-.83.233-1.357 0-.514-.076-.966-.228-1.357-.153-.391-.376-.696-.671-.915-.295-.222-.66-.333-1.094-.333-.448 0-.82.116-1.119.348-.298.229-.523.54-.676.935a3.718 3.718 0 0 0-.224 1.322c0 .5.077.94.229 1.318.153.377.378.672.676.885.302.212.673.318 1.114.318Zm11.381 1.516c-.484 0-.921-.09-1.312-.268a2.208 2.208 0 0 1-.93-.79c-.226-.346-.338-.768-.338-1.269 0-.43.083-.785.248-1.064.166-.278.39-.498.672-.66a3.49 3.49 0 0 1 .944-.369 9.396 9.396 0 0 1 1.064-.189l1.114-.129c.285-.036.492-.094.621-.174.129-.08.194-.209.194-.388v-.034c0-.435-.123-.771-.368-1.01-.242-.238-.603-.358-1.084-.358-.5 0-.895.111-1.183.333-.285.22-.482.463-.592.731l-1.397-.318c.166-.464.408-.838.726-1.123a2.945 2.945 0 0 1 1.109-.627 4.33 4.33 0 0 1 1.317-.199c.305 0 .629.037.97.11.345.07.666.198.964.387.302.19.549.46.741.81.192.349.288.801.288 1.358V75h-1.451v-1.044h-.06c-.096.192-.24.381-.432.567-.193.185-.44.34-.741.462-.302.123-.663.184-1.084.184Zm.323-1.193c.411 0 .762-.081 1.054-.244.295-.162.519-.374.671-.636a1.65 1.65 0 0 0 .234-.85v-.985c-.053.053-.156.103-.308.15-.149.043-.32.08-.512.114-.193.03-.38.058-.562.084l-.458.06a3.692 3.692 0 0 0-.79.184c-.235.086-.424.21-.567.373-.139.159-.209.371-.209.636 0 .368.136.647.408.835.272.186.618.279 1.039.279Zm6.912-3.51V75h-1.487v-7.636h1.427v1.242h.095c.175-.404.45-.729.825-.974.378-.245.853-.368 1.427-.368.52 0 .976.11 1.367.328a2.2 2.2 0 0 1 .91.965c.215.427.323.956.323 1.586V75h-1.486v-4.678c0-.554-.145-.986-.433-1.298-.288-.315-.684-.472-1.188-.472a1.86 1.86 0 0 0-.92.224c-.265.149-.476.368-.631.656-.153.285-.229.63-.229 1.034Zm9.739 4.683a2.958 2.958 0 0 1-1.65-.472c-.481-.318-.859-.77-1.134-1.357-.272-.59-.407-1.298-.407-2.123 0-.826.137-1.532.412-2.118.279-.587.66-1.036 1.144-1.347a2.973 2.973 0 0 1 1.645-.468c.474 0 .855.08 1.144.239.291.156.517.338.676.547.162.209.288.392.378.552h.089v-3.784h1.487V75h-1.452v-1.188h-.124c-.09.162-.219.348-.388.557a2.165 2.165 0 0 1-.686.546c-.292.156-.67.234-1.134.234Zm.328-1.268c.428 0 .789-.112 1.084-.338.299-.228.524-.545.676-.95.156-.404.234-.874.234-1.411 0-.53-.076-.995-.229-1.392-.152-.398-.376-.708-.671-.93-.295-.222-.659-.333-1.094-.333-.447 0-.82.116-1.118.348a2.125 2.125 0 0 0-.676.95 3.876 3.876 0 0 0-.224 1.357c0 .51.076.97.229 1.377.152.408.377.73.676.97.301.235.673.352 1.113.352Zm12.141 1.268a2.962 2.962 0 0 1-1.651-.472c-.48-.318-.858-.77-1.133-1.357-.272-.59-.408-1.298-.408-2.123 0-.826.138-1.532.413-2.118.278-.587.659-1.036 1.143-1.347a2.976 2.976 0 0 1 1.646-.468c.474 0 .855.08 1.143.239.292.156.517.338.677.547.162.209.288.392.377.552h.09v-3.784h1.486V75h-1.451v-1.188h-.125a3.883 3.883 0 0 1-.387.557 2.165 2.165 0 0 1-.686.546c-.292.156-.67.234-1.134.234Zm.328-1.268c.428 0 .789-.112 1.084-.338.298-.228.524-.545.676-.95.156-.404.234-.874.234-1.411 0-.53-.076-.995-.229-1.392-.152-.398-.376-.708-.671-.93-.295-.222-.66-.333-1.094-.333-.447 0-.82.116-1.118.348a2.127 2.127 0 0 0-.677.95 3.876 3.876 0 0 0-.223 1.357c0 .51.076.97.228 1.377.153.408.378.73.677.97.301.235.672.352 1.113.352ZM188.468 75v-7.636h1.437v1.213h.079c.14-.411.385-.734.736-.97a2.107 2.107 0 0 1 1.203-.358 6.372 6.372 0 0 1 .632.035v1.422a2.688 2.688 0 0 0-.318-.055 3.044 3.044 0 0 0-.458-.034c-.351 0-.664.074-.94.223a1.666 1.666 0 0 0-.884 1.497V75h-1.487Zm8.316.154c-.716 0-1.34-.164-1.874-.492a3.316 3.316 0 0 1-1.243-1.377c-.295-.59-.442-1.28-.442-2.068 0-.793.147-1.485.442-2.079a3.31 3.31 0 0 1 1.243-1.382c.534-.328 1.158-.492 1.874-.492.716 0 1.341.164 1.875.492.533.329.947.79 1.242 1.382.295.594.443 1.286.443 2.079 0 .788-.148 1.478-.443 2.068a3.32 3.32 0 0 1-1.242 1.377c-.534.328-1.159.492-1.875.492Zm.005-1.248c.464 0 .849-.122 1.154-.368.305-.245.53-.571.676-.98.149-.407.224-.856.224-1.346 0-.488-.075-.935-.224-1.343a2.187 2.187 0 0 0-.676-.989c-.305-.249-.69-.373-1.154-.373-.467 0-.855.124-1.163.373a2.22 2.22 0 0 0-.681.99 3.956 3.956 0 0 0-.219 1.342c0 .49.073.94.219 1.347.149.408.376.734.681.98.308.245.696.367 1.163.367Zm5.214 3.958v-10.5h1.452v1.238h.124c.086-.16.211-.344.373-.552.162-.21.388-.391.676-.547.289-.16.67-.239 1.144-.239.616 0 1.166.156 1.65.468.484.311.864.76 1.139 1.347.278.587.417 1.292.417 2.118 0 .825-.137 1.533-.412 2.123-.275.586-.653 1.039-1.134 1.357a2.933 2.933 0 0 1-1.645.472c-.464 0-.844-.078-1.139-.234a2.154 2.154 0 0 1-.686-.546 4.164 4.164 0 0 1-.383-.557h-.089v4.052h-1.487Zm1.457-6.682c0 .537.078 1.007.234 1.412.155.404.381.72.676.95.295.225.656.337 1.083.337.445 0 .816-.117 1.114-.353.298-.238.524-.561.676-.97.156-.407.234-.866.234-1.376 0-.504-.076-.956-.229-1.357a2.073 2.073 0 0 0-.676-.95c-.298-.232-.671-.348-1.119-.348-.43 0-.795.111-1.093.333-.295.222-.519.532-.671.93-.153.397-.229.861-.229 1.392Z" fill="#37434F"/><path d="M99.039 101v-9.454h3.37c.735 0 1.345.133 1.828.401a2.61 2.61 0 0 1 1.085 1.099c.24.461.36.982.36 1.56 0 .582-.122 1.105-.365 1.57-.24.461-.603.828-1.089 1.099-.484.267-1.091.401-1.824.401h-2.317v-1.21h2.188c.465 0 .842-.08 1.131-.24.289-.163.502-.384.637-.664s.203-.599.203-.956-.068-.674-.203-.95a1.452 1.452 0 0 0-.642-.652c-.289-.157-.671-.235-1.145-.235h-1.791V101h-1.426Zm15.946-9.454V101h-1.311l-4.806-6.934h-.087V101h-1.427v-9.454h1.32l4.811 6.943h.088v-6.944h1.412Zm8.479 2.986a2.871 2.871 0 0 0-.36-.752 2.288 2.288 0 0 0-1.237-.937 2.835 2.835 0 0 0-.863-.125 2.61 2.61 0 0 0-1.44.41c-.428.275-.767.677-1.016 1.206-.246.526-.369 1.17-.369 1.934 0 .766.124 1.414.374 1.944.249.529.59.93 1.024 1.204.434.275.928.411 1.482.411.514 0 .962-.104 1.344-.314.384-.209.681-.504.891-.886.212-.385.318-.837.318-1.357l.37.07h-2.706v-1.178h3.717v1.076c0 .794-.17 1.483-.508 2.068a3.462 3.462 0 0 1-1.394 1.348c-.591.317-1.268.475-2.032.475-.855 0-1.606-.197-2.253-.591-.643-.394-1.144-.952-1.505-1.675-.36-.727-.54-1.588-.54-2.586 0-.754.105-1.43.314-2.03.21-.601.503-1.11.882-1.529a3.852 3.852 0 0 1 1.343-.965 4.206 4.206 0 0 1 1.695-.337c.511 0 .986.076 1.426.226.443.151.837.365 1.182.642.348.277.636.606.863.988.228.379.382.799.462 1.26h-1.464Zm5.024 5.175-.069.504a8.183 8.183 0 0 1-.235 1.154c-.108.403-.22.777-.337 1.122a31 31 0 0 1-.282.821h-.979c.04-.191.096-.449.167-.775.07-.323.14-.685.207-1.085.068-.4.119-.808.153-1.224l.046-.517h1.329Zm9.023-8.161h1.422v6.703c0 .606-.12 1.125-.36 1.555-.237.431-.571.761-1.002.988-.431.225-.935.337-1.514.337a3.421 3.421 0 0 1-1.436-.291 2.354 2.354 0 0 1-1.001-.844c-.244-.373-.365-.825-.365-1.358h1.417c0 .262.06.488.18.679.123.19.291.34.503.448.216.104.462.157.739.157.302 0 .557-.063.766-.19.213-.129.374-.318.485-.567.111-.25.166-.554.166-.914v-6.703Zm3.498 9.454v-9.454h3.37c.736 0 1.345.133 1.829.401.483.268.844.634 1.084 1.099.24.461.361.982.361 1.56 0 .582-.122 1.105-.365 1.57-.24.461-.603.828-1.09 1.099-.483.267-1.091.401-1.823.401h-2.318v-1.21h2.189c.464 0 .841-.08 1.131-.24.289-.163.501-.384.637-.664.135-.28.203-.599.203-.956s-.068-.674-.203-.95a1.462 1.462 0 0 0-.642-.652c-.289-.157-.671-.235-1.145-.235h-1.791V101h-1.427Zm14.714-6.468a2.871 2.871 0 0 0-.36-.752 2.292 2.292 0 0 0-1.237-.937 2.84 2.84 0 0 0-.863-.125c-.533 0-1.013.137-1.441.41-.427.275-.766.677-1.015 1.206-.246.526-.37 1.17-.37 1.934 0 .766.125 1.414.374 1.944.25.529.591.93 1.025 1.204.434.275.928.411 1.482.411.514 0 .962-.104 1.343-.314.385-.209.682-.504.891-.886.213-.385.319-.837.319-1.357l.369.07h-2.705v-1.178h3.716v1.076c0 .794-.169 1.483-.507 2.068a3.464 3.464 0 0 1-1.395 1.348c-.591.317-1.268.475-2.031.475-.855 0-1.606-.197-2.253-.591-.643-.394-1.145-.952-1.505-1.675-.36-.727-.54-1.588-.54-2.586 0-.754.105-1.43.314-2.03.209-.601.503-1.11.882-1.529a3.842 3.842 0 0 1 1.343-.965 4.205 4.205 0 0 1 1.694-.337c.511 0 .987.076 1.427.226.443.151.837.365 1.182.642a3.633 3.633 0 0 1 1.325 2.248h-1.464Zm5.024 5.175-.069.504a8.052 8.052 0 0 1-.236 1.154c-.107.403-.22.777-.337 1.122-.113.344-.207.618-.281.821h-.979l.166-.775c.071-.323.14-.685.208-1.085.068-.4.119-.808.152-1.224l.047-.517h1.329Zm11.747-5.175a2.871 2.871 0 0 0-.36-.752 2.31 2.31 0 0 0-.531-.573 2.227 2.227 0 0 0-.707-.364 2.835 2.835 0 0 0-.863-.125c-.532 0-1.012.137-1.44.41-.428.275-.766.677-1.016 1.206-.246.526-.369 1.17-.369 1.934 0 .766.125 1.414.374 1.944.249.529.591.93 1.025 1.204.434.275.928.411 1.482.411.514 0 .961-.104 1.343-.314.385-.209.682-.504.891-.886.212-.385.319-.837.319-1.357l.369.07h-2.705v-1.178h3.716v1.076c0 .794-.169 1.483-.508 2.068a3.455 3.455 0 0 1-1.394 1.348c-.591.317-1.268.475-2.031.475-.856 0-1.607-.197-2.253-.591-.643-.394-1.145-.952-1.505-1.675-.36-.727-.54-1.588-.54-2.586 0-.754.104-1.43.314-2.03.209-.601.503-1.11.881-1.529.382-.422.83-.743 1.344-.965a4.205 4.205 0 0 1 1.694-.337c.511 0 .986.076 1.426.226.444.151.838.365 1.182.642a3.637 3.637 0 0 1 1.325 2.248h-1.463Zm4.765-2.986V101h-1.426v-9.454h1.426Zm2.078 9.454v-9.454h5.862v1.227h-4.436v2.881h4.016v1.224h-4.016V101h-1.426Zm15.438-2.94v-4.15h1.385V101h-1.357v-1.228h-.074a2.208 2.208 0 0 1-.785.946c-.357.25-.801.374-1.334.374-.455 0-.859-.1-1.209-.3a2.106 2.106 0 0 1-.822-.9c-.197-.397-.296-.888-.296-1.473v-4.51h1.381v4.344c0 .483.134.868.401 1.154.268.287.616.43 1.044.43.258 0 .515-.065.771-.194.258-.13.472-.325.641-.587.173-.261.257-.593.254-.997Zm3.24 5.599v-9.75h1.348v1.15h.115c.08-.148.196-.319.346-.513.151-.194.361-.363.628-.508.268-.147.622-.221 1.062-.221a2.77 2.77 0 0 1 1.533.434c.449.289.802.706 1.057 1.25.258.545.388 1.201.388 1.967 0 .767-.128 1.424-.383 1.972-.256.544-.607.964-1.053 1.26a2.728 2.728 0 0 1-1.528.438c-.431 0-.783-.072-1.057-.216a2.004 2.004 0 0 1-.637-.508 3.873 3.873 0 0 1-.356-.517h-.083v3.762h-1.38Zm1.352-6.205c0 .5.073.936.217 1.312.145.375.354.669.628.881.274.21.61.314 1.007.314.412 0 .757-.109 1.034-.328.277-.221.486-.521.628-.9.144-.378.217-.805.217-1.279 0-.467-.071-.887-.213-1.26a1.927 1.927 0 0 0-.628-.882c-.277-.215-.623-.323-1.038-.323-.4 0-.739.103-1.016.31a1.894 1.894 0 0 0-.623.863c-.142.37-.213.8-.213 1.292Zm13.422-3.545v1.108h-3.874v-1.108h3.874Zm-2.835-1.699h1.381v6.708c0 .268.04.47.12.605.08.132.183.223.309.272.129.046.269.07.42.07.111 0 .208-.008.291-.024.083-.015.148-.027.194-.037l.249 1.141c-.08.03-.194.061-.342.092a2.683 2.683 0 0 1-.554.055 2.421 2.421 0 0 1-1.015-.194 1.74 1.74 0 0 1-.762-.627c-.194-.284-.291-.639-.291-1.067V92.21Zm7.272 8.933c-.664 0-1.245-.152-1.74-.457a3.08 3.08 0 0 1-1.154-1.279c-.274-.547-.411-1.188-.411-1.92 0-.736.137-1.379.411-1.93.274-.55.658-.978 1.154-1.283.495-.305 1.076-.457 1.74-.457.665 0 1.245.152 1.741.457.495.305.88.732 1.154 1.283.274.551.411 1.194.411 1.93 0 .732-.137 1.373-.411 1.92a3.087 3.087 0 0 1-1.154 1.279c-.496.305-1.076.457-1.741.457Zm.005-1.159c.431 0 .788-.113 1.071-.341.283-.228.492-.531.628-.91.138-.378.208-.795.208-1.25 0-.453-.07-.869-.208-1.247a2.037 2.037 0 0 0-.628-.919c-.283-.23-.64-.346-1.071-.346-.434 0-.794.115-1.08.346a2.07 2.07 0 0 0-.633.919 3.687 3.687 0 0 0-.203 1.246c0 .456.068.873.203 1.251.139.379.35.682.633.91.286.228.646.341 1.08.341Zm11.85-8.438V101h-1.431v-8.023h-.055l-2.262 1.477v-1.367l2.359-1.541h1.389Zm5.849 9.611c-.729-.003-1.352-.195-1.869-.577-.517-.382-.913-.937-1.187-1.667s-.41-1.608-.41-2.636c0-1.025.136-1.9.41-2.626.277-.727.674-1.28 1.191-1.662.521-.382 1.142-.573 1.865-.573.724 0 1.344.193 1.861.577.517.382.912.936 1.186 1.662.277.723.416 1.597.416 2.622 0 1.031-.137 1.912-.411 2.641-.274.726-.669 1.282-1.186 1.667-.518.381-1.139.572-1.866.572Zm0-1.233c.641 0 1.141-.312 1.501-.937.363-.624.545-1.528.545-2.71 0-.784-.084-1.448-.25-1.99-.163-.544-.398-.957-.706-1.237a1.547 1.547 0 0 0-1.09-.424c-.637 0-1.137.314-1.5.941-.363.628-.546 1.532-.549 2.71 0 .788.081 1.454.244 2 .167.54.402.952.707 1.232.304.277.671.415 1.098.415Zm5.23-8.379h1.731l3.01 7.35h.111l3.01-7.35h1.731V101h-1.357v-6.842h-.088l-2.788 6.828h-1.127l-2.788-6.832h-.088V101h-1.357v-9.454ZM251.827 101v-9.454h3.462c.671 0 1.227.11 1.667.332.44.218.769.515.988.89.218.373.327.793.327 1.261 0 .394-.072.726-.217.997a1.78 1.78 0 0 1-.581.647c-.24.16-.505.277-.794.35v.093c.314.015.62.117.918.305.302.184.551.447.748.789.197.342.296.757.296 1.246 0 .483-.114.918-.342 1.302-.225.382-.572.685-1.043.91-.471.221-1.073.332-1.805.332h-3.624Zm1.426-1.223h2.059c.683 0 1.173-.133 1.468-.397.296-.265.443-.596.443-.993 0-.299-.075-.572-.226-.822a1.617 1.617 0 0 0-.646-.595c-.277-.148-.606-.222-.988-.222h-2.11v3.029Zm0-4.141h1.912c.32 0 .607-.062.863-.185.258-.123.463-.295.614-.517a1.37 1.37 0 0 0 .231-.794c0-.39-.137-.719-.411-.983-.274-.265-.694-.397-1.261-.397h-1.948v2.876Z" fill="#91A5BA"/><rect x="17" y="16.5" width="268" height="113" rx="3.5" stroke="#C1CFDE" stroke-dasharray="6 6"/><g filter="url(#a)"><path d="M16.5 148a6 6 0 0 1 6-6h175v42h-175a6 6 0 0 1-6-6v-30Z" fill="#fff"/><path d="M33.733 168v-10.182h6.145v1.094h-4.912v3.44h4.594v1.094h-4.594v3.46h4.991V168h-6.224Zm9.381-4.594V168h-1.173v-7.636h1.134v1.193h.099c.179-.388.45-.7.815-.935.365-.238.836-.358 1.412-.358.517 0 .97.106 1.357.318.388.209.69.527.905.955.216.424.324.961.324 1.611V168h-1.174v-4.773c0-.6-.156-1.067-.467-1.402-.312-.338-.74-.507-1.283-.507-.374 0-.71.081-1.004.244a1.738 1.738 0 0 0-.691.711c-.17.311-.254.689-.254 1.133Zm10.338-3.042v.994h-3.958v-.994h3.958Zm-2.804-1.83h1.173v7.278c0 .332.048.581.144.746.1.163.225.272.378.328.156.053.32.08.492.08.13 0 .235-.007.318-.02l.2-.04.238 1.054c-.08.03-.19.06-.333.09a2.466 2.466 0 0 1-.542.049c-.332 0-.657-.071-.975-.213a1.938 1.938 0 0 1-.785-.652c-.206-.291-.309-.659-.309-1.103v-7.597Zm7.688 9.625c-.736 0-1.37-.162-1.904-.487a3.273 3.273 0 0 1-1.228-1.372c-.285-.59-.428-1.276-.428-2.059 0-.782.143-1.471.428-2.068.288-.6.69-1.067 1.203-1.402.517-.338 1.12-.507 1.81-.507.398 0 .79.066 1.178.199.388.133.74.348 1.059.646.318.295.572.686.76 1.174.19.487.284 1.087.284 1.799v.498h-5.886v-1.015h4.693a2.5 2.5 0 0 0-.259-1.153 1.943 1.943 0 0 0-.725-.8c-.312-.196-.68-.294-1.104-.294-.468 0-.872.116-1.213.348a2.291 2.291 0 0 0-.78.895 2.628 2.628 0 0 0-.274 1.183v.676c0 .577.1 1.066.298 1.467.202.398.482.701.84.91.358.205.774.308 1.248.308.308 0 .587-.043.835-.129a1.79 1.79 0 0 0 .652-.398c.182-.179.323-.401.422-.666l1.134.318c-.12.385-.32.723-.602 1.014-.282.289-.63.514-1.044.676-.414.16-.88.239-1.397.239Zm4.947-.159v-7.636h1.133v1.153h.08c.14-.378.391-.684.756-.92a2.227 2.227 0 0 1 1.233-.353c.086 0 .193.002.323.005.129.004.227.009.293.015v1.193a3.65 3.65 0 0 0-.273-.044 2.606 2.606 0 0 0-.443-.035c-.371 0-.703.078-.994.234a1.758 1.758 0 0 0-.686.636 1.714 1.714 0 0 0-.249.92V168h-1.173Zm9.146 0v-7.636h1.174V168h-1.174Zm.597-8.909a.833.833 0 0 1-.592-.234.751.751 0 0 1-.243-.562c0-.218.08-.406.243-.561a.833.833 0 0 1 .592-.234c.229 0 .424.078.587.234a.742.742 0 0 1 .248.561.744.744 0 0 1-.248.562.817.817 0 0 1-.587.234ZM75.752 168v-7.636h1.133v1.193h.1a1.92 1.92 0 0 1 .77-.95c.355-.228.78-.343 1.278-.343.504 0 .923.115 1.258.343.338.226.601.542.79.95h.08c.195-.395.489-.708.88-.94.39-.235.86-.353 1.407-.353.682 0 1.24.214 1.675.642.434.424.651 1.085.651 1.983V168h-1.173v-5.111c0-.563-.154-.966-.462-1.208a1.711 1.711 0 0 0-1.09-.363c-.536 0-.952.163-1.247.487-.295.322-.442.73-.442 1.223V168h-1.194v-5.23c0-.434-.14-.784-.422-1.049-.282-.269-.645-.403-1.089-.403-.305 0-.59.081-.855.244a1.84 1.84 0 0 0-.636.676c-.16.285-.24.615-.24.989V168h-1.172Zm14.415.179c-.484 0-.923-.091-1.318-.273a2.265 2.265 0 0 1-.94-.801c-.231-.351-.347-.775-.347-1.273 0-.437.086-.792.258-1.064.173-.275.403-.49.691-.646.288-.156.607-.272.955-.348a12.03 12.03 0 0 1 1.059-.189c.464-.059.84-.104 1.128-.134.292-.033.504-.088.637-.164.135-.076.203-.209.203-.398v-.04c0-.49-.134-.871-.402-1.143-.265-.272-.668-.408-1.208-.408-.56 0-1 .123-1.318.368-.318.245-.542.507-.671.786l-1.114-.398c.2-.464.464-.825.796-1.084.335-.262.7-.444 1.094-.547a4.543 4.543 0 0 1 1.173-.159c.245 0 .527.03.845.09.322.056.631.174.93.353.301.179.552.449.75.81.2.361.299.845.299 1.452V168h-1.174v-1.034h-.06c-.079.166-.211.343-.397.532-.186.189-.433.35-.74.482-.309.133-.685.199-1.13.199Zm.179-1.054c.464 0 .855-.091 1.173-.273a1.87 1.87 0 0 0 .726-.706c.166-.289.248-.592.248-.91v-1.074c-.05.06-.159.114-.328.164a5.521 5.521 0 0 1-.576.124c-.216.033-.426.063-.632.09-.202.023-.366.043-.492.059-.305.04-.59.105-.855.194a1.47 1.47 0 0 0-.636.393c-.16.172-.24.408-.24.706 0 .408.152.716.453.925.305.205.691.308 1.159.308Zm8.545 3.898c-.567 0-1.054-.073-1.462-.219a3.098 3.098 0 0 1-1.02-.567 3.085 3.085 0 0 1-.64-.746l.934-.656c.106.139.24.299.403.477.162.183.384.34.666.473.285.136.658.204 1.119.204.616 0 1.125-.15 1.526-.448.401-.298.601-.765.601-1.402v-1.551h-.099a6.255 6.255 0 0 1-.368.517 2.09 2.09 0 0 1-.676.542c-.292.156-.686.234-1.183.234-.617 0-1.17-.146-1.66-.438-.488-.291-.874-.716-1.16-1.273-.28-.556-.422-1.233-.422-2.028 0-.782.138-1.463.413-2.043.275-.584.658-1.034 1.148-1.353.49-.321 1.058-.482 1.7-.482.498 0 .892.083 1.184.249.295.162.52.348.676.557.159.205.282.374.368.507h.119v-1.213h1.134v7.855c0 .656-.149 1.19-.448 1.601a2.544 2.544 0 0 1-1.193.909 4.491 4.491 0 0 1-1.66.294Zm-.04-4.196c.47 0 .868-.108 1.193-.323.325-.216.572-.526.741-.93.169-.404.253-.888.253-1.452 0-.55-.083-1.036-.248-1.457a2.192 2.192 0 0 0-.736-.989c-.325-.239-.726-.358-1.203-.358-.497 0-.912.126-1.243.378-.328.252-.575.59-.74 1.014a3.92 3.92 0 0 0-.244 1.412c0 .53.082.999.248 1.407.17.404.418.723.746.955.331.228.742.343 1.233.343Zm8.69 1.332c-.736 0-1.37-.162-1.904-.487a3.273 3.273 0 0 1-1.228-1.372c-.285-.59-.427-1.276-.427-2.059 0-.782.142-1.471.427-2.068.288-.6.689-1.067 1.203-1.402.517-.338 1.12-.507 1.81-.507.398 0 .79.066 1.178.199.388.133.741.348 1.059.646.318.295.572.686.761 1.174.189.487.283 1.087.283 1.799v.498h-5.886v-1.015h4.693c0-.431-.086-.815-.259-1.153a1.948 1.948 0 0 0-.725-.8c-.312-.196-.68-.294-1.104-.294-.467 0-.872.116-1.213.348a2.298 2.298 0 0 0-.781.895 2.632 2.632 0 0 0-.273 1.183v.676c0 .577.099 1.066.298 1.467.202.398.482.701.84.91.358.205.774.308 1.248.308.308 0 .587-.043.835-.129.252-.09.469-.222.652-.398.182-.179.323-.401.422-.666l1.134.318a2.51 2.51 0 0 1-.602 1.014 2.905 2.905 0 0 1-1.044.676c-.414.16-.88.239-1.397.239Zm15.725-10.341h1.233v6.742c0 .696-.164 1.317-.492 1.864a3.448 3.448 0 0 1-1.377 1.288c-.593.311-1.289.467-2.088.467-.799 0-1.495-.156-2.088-.467a3.481 3.481 0 0 1-1.382-1.288c-.325-.547-.487-1.168-.487-1.864v-6.742h1.232v6.642c0 .497.11.94.329 1.328.218.384.53.687.934.909.408.219.895.329 1.462.329s1.054-.11 1.462-.329c.407-.222.719-.525.934-.909.219-.388.328-.831.328-1.328v-6.642ZM126.961 168v-10.182h3.441c.795 0 1.448.136 1.959.408.51.268.888.638 1.133 1.109.245.47.368 1.005.368 1.605 0 .6-.123 1.132-.368 1.596-.245.464-.621.829-1.128 1.094-.508.262-1.155.393-1.944.393h-2.784v-1.114h2.744c.543 0 .981-.079 1.312-.239.335-.159.577-.384.726-.676.153-.295.229-.646.229-1.054 0-.407-.076-.764-.229-1.069a1.562 1.562 0 0 0-.731-.706c-.334-.169-.777-.253-1.327-.253h-2.168V168h-1.233Zm4.793-4.574L134.26 168h-1.432l-2.466-4.574h1.392Zm4.163 4.574v-10.182h1.233v9.088h4.732V168h-5.965Z" fill="#64778C"/><path d="M197.5 142h1v-1h-1v1Zm0 42v1h1v-1h-1Zm-175-41h175v-2h-175v2Zm174-1v42h2v-42h-2Zm1 41h-175v2h175v-2Zm-180-5v-30h-2v30h2Zm5 5a5 5 0 0 1-5-5h-2a7 7 0 0 0 7 7v-2Zm0-42a7 7 0 0 0-7 7h2a5 5 0 0 1 5-5v-2Z" fill="#DDE7F0"/></g><path d="M197.5 142h84a4 4 0 0 1 4 4v34a4 4 0 0 1-4 4h-84v-42Z" fill="#6F59EC"/><path d="M219.002 168v-10.182h6.622v1.546h-4.777v2.765h4.434v1.546h-4.434v2.779h4.817V168h-6.662Zm8.425 0v-7.636h1.72v1.297h.089c.159-.437.423-.779.791-1.024.368-.249.807-.373 1.317-.373.517 0 .953.126 1.308.378.358.249.61.588.755 1.019h.08c.169-.424.454-.762.855-1.014.405-.255.883-.383 1.437-.383.703 0 1.276.222 1.72.666.444.445.666 1.092.666 1.944V168h-1.804v-4.847c0-.474-.126-.821-.378-1.039a1.35 1.35 0 0 0-.925-.333c-.434 0-.774.135-1.019.407-.242.269-.363.618-.363 1.049V168h-1.765v-4.922c0-.394-.119-.709-.358-.944-.235-.236-.543-.353-.925-.353-.258 0-.493.066-.706.198-.212.13-.381.314-.507.552a1.727 1.727 0 0 0-.189.826V168h-1.799Zm12.644 0v-10.182h1.799v3.808h.075c.093-.185.224-.382.393-.591.169-.212.397-.393.686-.542.288-.153.656-.229 1.103-.229.59 0 1.122.151 1.596.453.478.298.855.74 1.134 1.327.282.583.422 1.299.422 2.148 0 .838-.137 1.551-.412 2.138-.275.586-.65 1.034-1.124 1.342a2.892 2.892 0 0 1-1.611.462c-.437 0-.8-.073-1.088-.219a2.18 2.18 0 0 1-.696-.527 3.362 3.362 0 0 1-.403-.591h-.104V168h-1.77Zm1.765-3.818c0 .494.069.926.208 1.297.143.372.347.662.612.87.268.206.593.309.974.309.398 0 .731-.106 1-.319a1.96 1.96 0 0 0 .606-.879 3.66 3.66 0 0 0 .209-1.278 3.63 3.63 0 0 0-.204-1.263 1.9 1.9 0 0 0-.606-.865c-.269-.209-.604-.313-1.005-.313-.384 0-.711.101-.979.303-.269.202-.472.486-.612.85-.135.365-.203.794-.203 1.288Zm10.354 3.967c-.765 0-1.427-.159-1.984-.477a3.238 3.238 0 0 1-1.277-1.362c-.298-.59-.448-1.285-.448-2.083 0-.786.15-1.475.448-2.069a3.382 3.382 0 0 1 1.263-1.392c.54-.334 1.175-.502 1.904-.502.47 0 .914.076 1.332.229.421.149.792.381 1.114.696.325.315.58.716.765 1.203.186.484.279 1.061.279 1.73v.552h-6.259v-1.213h4.534a1.944 1.944 0 0 0-.224-.92 1.627 1.627 0 0 0-.612-.641 1.715 1.715 0 0 0-.904-.234c-.368 0-.691.09-.97.269a1.844 1.844 0 0 0-.651.696 1.992 1.992 0 0 0-.234.939v1.059c0 .444.081.826.244 1.144.162.315.389.557.681.726.292.165.633.248 1.024.248.262 0 .499-.036.711-.109.212-.076.396-.187.552-.333.156-.146.273-.327.353-.542l1.68.189a2.618 2.618 0 0 1-.606 1.163 2.967 2.967 0 0 1-1.134.766c-.461.179-.988.268-1.581.268Zm7.752-.015c-.6 0-1.137-.154-1.611-.462-.474-.308-.848-.756-1.123-1.342-.275-.587-.413-1.3-.413-2.138 0-.849.139-1.565.418-2.148.281-.587.661-1.029 1.138-1.327a2.922 2.922 0 0 1 1.596-.453c.448 0 .815.076 1.104.229.288.149.517.33.686.542.169.209.3.406.393.591h.074v-3.808h1.805V168h-1.77v-1.203h-.109a3.063 3.063 0 0 1-.403.591 2.203 2.203 0 0 1-.696.527c-.288.146-.651.219-1.089.219Zm.502-1.476c.381 0 .706-.103.975-.309.268-.208.472-.498.611-.87.139-.371.209-.803.209-1.297 0-.494-.07-.923-.209-1.288-.136-.364-.338-.648-.606-.85-.266-.202-.592-.303-.98-.303-.401 0-.736.104-1.004.313a1.902 1.902 0 0 0-.607.865 3.653 3.653 0 0 0-.203 1.263c0 .477.068.903.203 1.278.14.371.343.664.612.879.272.213.605.319.999.319Z" fill="#fff"/><rect x="1" y=".5" width="300" height="199" rx="3.5" stroke="#EBF2F7"/><defs><filter id="a" x="14.5" y="141" width="185" height="46" filterUnits="userSpaceOnUse" color-interpolation-filters="sRGB"><feFlood flood-opacity="0" result="BackgroundImageFix"/><feColorMatrix in="SourceAlpha" values="0 0 0 0 0 0 0 0 0 0 0 0 0 0 0 0 0 0 127 0" result="hardAlpha"/><feOffset dy="1"/><feGaussianBlur stdDeviation="1"/><feColorMatrix values="0 0 0 0 0 0 0 0 0 0 0 0 0 0 0 0 0 0 0.05 0"/><feBlend in2="BackgroundImageFix" result="effect1_dropShadow_2245_17669"/><feBlend in="SourceGraphic" in2="effect1_dropShadow_2245_17669" result="shape"/></filter></defs></svg>