<svg width="14" height="15" viewBox="0 0 14 15" fill="none" xmlns="http://www.w3.org/2000/svg">
<path d="M7 0.25C3.11719 0.25 0 3.39453 0 7.25C0 11.1328 3.11719 14.25 7 14.25C10.8555 14.25 14 11.1328 14 7.25C14 3.39453 10.8555 0.25 7 0.25ZM7 12.9375C3.85547 12.9375 1.3125 10.3945 1.3125 7.25C1.3125 4.13281 3.85547 1.5625 7 1.5625C10.1172 1.5625 12.6875 4.13281 12.6875 7.25C12.6875 10.3945 10.1172 12.9375 7 12.9375ZM8.09375 9.4375H7.65625V7.03125C7.65625 6.67578 7.35547 6.375 7 6.375H6.125C5.74219 6.375 5.46875 6.67578 5.46875 7.03125C5.46875 7.41406 5.74219 7.6875 6.125 7.6875H6.34375V9.4375H5.90625C5.52344 9.4375 5.25 9.73828 5.25 10.0938C5.25 10.4766 5.52344 10.75 5.90625 10.75H8.09375C8.44922 10.75 8.75 10.4766 8.75 10.0938C8.75 9.73828 8.44922 9.4375 8.09375 9.4375ZM7 5.5C7.46484 5.5 7.875 5.11719 7.875 4.625C7.875 4.16016 7.46484 3.75 7 3.75C6.50781 3.75 6.125 4.16016 6.125 4.625C6.125 5.11719 6.50781 5.5 7 5.5Z" fill="currentColor"/>
</svg>
