<svg width="15" height="12" viewBox="0 0 15 12" fill="none" xmlns="http://www.w3.org/2000/svg">
<path d="M9.53125 0.5C9.94141 0.5 10.3516 0.773438 10.5156 1.15625C10.6797 1.56641 10.625 2.00391 10.3242 2.33203L7.5625 5.42188V10.125C7.5625 10.4805 7.37109 10.7812 7.07031 10.918C6.76953 11.0547 6.41406 11.0273 6.14062 10.8359L4.39062 9.52344C4.17188 9.35938 4.0625 9.11328 4.0625 8.8125V5.42188L1.27344 2.33203C0.972656 2.00391 0.917969 1.56641 1.08203 1.15625C1.24609 0.773438 1.65625 0.5 2.06641 0.5H9.53125ZM14.125 9.25C14.5898 9.25 15 9.66016 15 10.125C15 10.6172 14.5898 11 14.125 11H10.625C10.1328 11 9.75 10.6172 9.75 10.125C9.75 9.66016 10.1328 9.25 10.625 9.25H14.125ZM9.75 5.75C9.75 5.28516 10.1328 4.875 10.625 4.875H14.125C14.5898 4.875 15 5.28516 15 5.75C15 6.24219 14.5898 6.625 14.125 6.625H10.625C10.1328 6.625 9.75 6.24219 9.75 5.75ZM14.125 0.5C14.5898 0.5 15 0.910156 15 1.375C15 1.86719 14.5898 2.25 14.125 2.25H12.375C11.8828 2.25 11.5 1.86719 11.5 1.375C11.5 0.910156 11.8828 0.5 12.375 0.5H14.125Z" fill="currentColor"/>
</svg>
