<svg width="25" height="24" viewBox="0 0 25 24" fill="none" xmlns="http://www.w3.org/2000/svg">
<path fill-rule="evenodd" clip-rule="evenodd" d="M12.7639 4.68518C8.62288 4.68518 5.26468 8.04301 5.26468 12.1856C5.26468 15.499 7.41343 18.3101 10.3937 19.3019C10.7689 19.3707 10.9057 19.1392 10.9057 18.9404C10.9057 18.7624 10.8992 18.2907 10.8955 17.6648C8.8094 18.1181 8.36923 16.6595 8.36923 16.6595C8.02798 15.7931 7.53635 15.5624 7.53635 15.5624C6.85535 15.097 7.58788 15.1064 7.58788 15.1064C8.34065 15.1595 8.73665 15.8794 8.73665 15.8794C9.40565 17.0255 10.4922 16.6946 10.9195 16.5026C10.9876 16.0178 11.1814 15.6874 11.3956 15.4999C9.73025 15.3106 7.9793 14.6672 7.9793 11.7932C7.9793 10.9744 8.27158 10.3049 8.75135 9.78061C8.67403 9.59086 8.41663 8.82833 8.825 7.79573C8.825 7.79573 9.4544 7.59406 10.8873 8.56456C11.4853 8.39821 12.1272 8.31503 12.7648 8.31211C13.402 8.31503 14.0434 8.39821 14.6425 8.56456C16.0744 7.59406 16.7028 7.79573 16.7028 7.79573C17.1121 8.82833 16.8547 9.59086 16.7779 9.78061C17.2585 10.3049 17.5486 10.9744 17.5486 11.7932C17.5486 14.6744 15.7948 15.3083 14.1244 15.494C14.3934 15.7256 14.6332 16.1833 14.6332 16.883C14.6332 17.8856 14.624 18.6945 14.624 18.9404C14.624 19.141 14.7594 19.3743 15.1397 19.301C18.1177 18.3074 20.2646 15.4981 20.2646 12.1856C20.2646 8.04301 16.9063 4.68518 12.7639 4.68518Z" fill="black"/>
</svg>
