<svg width="166" height="30" viewBox="0 0 166 30" fill="none" xmlns="http://www.w3.org/2000/svg">
<path d="M41.9495 0.895523H49.7518V11.4537H59.7662V0.895523H67.5686V29.1045H59.7662V18.3851H49.7518V29.1045H41.9495V0.895523Z" fill="black" fill-opacity="0.95"/>
<path fill-rule="evenodd" clip-rule="evenodd" d="M93.028 0.895523H85.4919L73.4824 29.1998H81.7037L83.7187 24.1813H94.5997L96.655 29.1998H105.037L93.028 0.895523ZM89.1995 10.1296L92.3429 18.119H86.0158L89.1995 10.1296Z" fill="black" fill-opacity="0.95"/>
<path d="M122.039 29.1045C119.504 29.1045 117.097 28.7278 114.817 27.9746C112.538 27.2213 110.522 26.0914 108.769 24.5848L113.138 19.5586C115.971 21.7406 119.032 22.8315 122.323 22.8315C123.374 22.8315 124.177 22.6691 124.73 22.3445C125.283 22.0198 125.559 21.5587 125.559 20.9613V20.8834C125.559 20.5976 125.492 20.3444 125.357 20.1236C125.222 19.9028 124.973 19.6885 124.608 19.4807C124.244 19.2729 123.759 19.0716 123.152 18.8768C122.545 18.682 121.756 18.4807 120.785 18.2729C119.275 17.9352 117.872 17.565 116.577 17.1624C115.283 16.7598 114.157 16.2403 113.199 15.6039C112.242 14.9675 111.486 14.1753 110.933 13.2272C110.381 12.2791 110.104 11.1037 110.104 9.70108V9.62316C110.104 8.35037 110.354 7.1815 110.853 6.11652C111.352 5.05153 112.08 4.12943 113.037 3.35017C113.995 2.57091 115.148 1.967 116.497 1.53841C117.845 1.10982 119.369 0.895523 121.068 0.895523C123.496 0.895523 125.66 1.20073 127.562 1.81115C129.463 2.42156 131.183 3.32419 132.72 4.51905L128.796 9.85693C127.501 8.97377 126.173 8.30492 124.811 7.85036C123.449 7.39579 122.134 7.16851 120.866 7.16851C119.922 7.16851 119.214 7.33735 118.742 7.67502C118.27 8.0127 118.034 8.4283 118.034 8.92183V8.99975C118.034 9.31146 118.108 9.58419 118.256 9.81797C118.405 10.0517 118.661 10.266 119.025 10.4609C119.389 10.6557 119.888 10.8505 120.522 11.0453C121.156 11.2401 121.958 11.4414 122.929 11.6492C124.548 11.9869 126.011 12.383 127.319 12.8376C128.627 13.2921 129.74 13.8441 130.657 14.4935C131.574 15.1429 132.275 15.9286 132.761 16.8507C133.246 17.7728 133.489 18.8703 133.489 20.1431V20.221C133.489 21.6237 133.213 22.8705 132.66 23.9614C132.107 25.0524 131.331 25.981 130.333 26.7472C129.335 27.5135 128.135 28.0979 126.733 28.5006C125.33 28.9032 123.766 29.1045 122.039 29.1045Z" fill="black" fill-opacity="0.95"/>
<path d="M140.381 0.895523H148.183V11.4537H158.198V0.895523H166V29.1045H158.198V18.3851H148.183V29.1045H140.381V0.895523Z" fill="black" fill-opacity="0.95"/>
<g opacity="0.9">
<path opacity="0.886277" d="M16.8837 30H25.2684V0H16.8837V30Z" fill="url(#paint0_linear)"/>
<path opacity="0.898345" d="M4.84534 30H13.2294V0H4.84534V30Z" fill="url(#paint1_linear)"/>
<path opacity="0.881278" d="M0 12.8582H30.1137V4.50517H0V12.8582Z" fill="url(#paint2_linear)"/>
<path opacity="0.855632" d="M0 25.0656H30.1137V16.7132H0V25.0656Z" fill="url(#paint3_linear)"/>
</g>
<defs>
<linearGradient id="paint0_linear" x1="25.2684" y1="30" x2="25.2684" y2="0" gradientUnits="userSpaceOnUse">
<stop stop-color="#00BBFF"/>
<stop offset="1" stop-color="#0046FF"/>
</linearGradient>
<linearGradient id="paint1_linear" x1="4.84534" y1="0" x2="4.84534" y2="30" gradientUnits="userSpaceOnUse">
<stop stop-color="#00B8FF"/>
<stop offset="1" stop-color="#0010FF"/>
</linearGradient>
<linearGradient id="paint2_linear" x1="1.76358" y1="12.4435" x2="28.8869" y2="12.4435" gradientUnits="userSpaceOnUse">
<stop stop-color="#00AFFF"/>
<stop offset="1" stop-color="#5424FF"/>
</linearGradient>
<linearGradient id="paint3_linear" x1="2.65096" y1="24.698" x2="30.1137" y2="24.698" gradientUnits="userSpaceOnUse">
<stop stop-color="#6D2BF6"/>
<stop offset="1" stop-color="#0080FF"/>
</linearGradient>
</defs>
</svg>
