<svg width="30" height="32" viewBox="0 0 30 32" fill="none" xmlns="http://www.w3.org/2000/svg">
<path d="M21.3574 14.1562C21.1523 14.5664 20.7012 14.8125 20.25 14.8125H12.375C11.8828 14.8125 11.4316 14.5664 11.2266 14.1562C10.9805 13.7461 10.9805 13.2539 11.2266 12.8438L15.1641 6.28125C15.4102 5.87109 15.8203 5.625 16.3125 5.625C16.7637 5.625 17.1738 5.87109 17.4199 6.28125L21.3574 12.8438C21.6035 13.2539 21.6035 13.7461 21.3574 14.1562ZM16.3125 8.25L13.5234 12.8438H19.0605L16.3125 8.25ZM23.8594 16.7812C24.7617 16.7812 25.5 17.5195 25.5 18.4219V24.3281C25.5 25.2715 24.7617 25.9688 23.8594 25.9688H17.9531C17.0098 25.9688 16.3125 25.2715 16.3125 24.3281V18.4219C16.3125 17.5195 17.0098 16.7812 17.9531 16.7812H23.8594ZM23.5312 18.75H18.2812V24H23.5312V18.75ZM15 21.375C15 24.2871 12.6211 26.625 9.75 26.625C6.83789 26.625 4.5 24.2871 4.5 21.375C4.5 18.5039 6.83789 16.125 9.75 16.125C12.6211 16.125 15 18.5039 15 21.375ZM9.75 18.0938C7.9043 18.0938 6.46875 19.5703 6.46875 21.375C6.46875 23.2207 7.9043 24.6562 9.75 24.6562C11.5547 24.6562 13.0312 23.2207 13.0312 21.375C13.0312 19.5703 11.5547 18.0938 9.75 18.0938Z" fill="currentColor"/>
</svg>
