<svg width="308" height="240" viewBox="0 0 308 240" fill="none" xmlns="http://www.w3.org/2000/svg">
<rect width="308" height="240" rx="6" fill="white"/>
<path d="M280 20.5H28C26.067 20.5 24.5 22.067 24.5 24V163C24.5 164.933 26.067 166.5 28 166.5H280C281.933 166.5 283.5 164.933 283.5 163V24C283.5 22.067 281.933 20.5 280 20.5Z" fill="#37434F"/>
<path d="M181 91.7681C182.333 92.5381 182.333 94.4621 181 95.2321L142 117.75C140.667 118.52 139 117.557 139 116.018V70.9831C139 69.4431 140.667 68.4811 142 69.2511L181 91.7681Z" fill="#F2F5FA"/>
<path d="M238.201 152.157C237.472 152.154 236.848 151.962 236.331 151.58C235.814 151.198 235.419 150.643 235.145 149.913C234.871 149.184 234.734 148.305 234.734 147.277C234.734 146.252 234.871 145.377 235.145 144.651C235.422 143.924 235.819 143.37 236.336 142.989C236.856 142.607 237.478 142.416 238.201 142.416C238.924 142.416 239.544 142.609 240.061 142.993C240.578 143.375 240.974 143.929 241.248 144.655C241.525 145.378 241.663 146.252 241.663 147.277C241.663 148.308 241.526 149.189 241.252 149.918C240.979 150.644 240.583 151.2 240.066 151.585C239.549 151.966 238.927 152.157 238.201 152.157ZM238.201 150.924C238.841 150.924 239.341 150.612 239.701 149.987C240.065 149.362 240.246 148.459 240.246 147.277C240.246 146.493 240.163 145.829 239.997 145.288C239.834 144.743 239.598 144.33 239.29 144.05C238.997 143.771 238.606 143.619 238.201 143.626C237.564 143.626 237.064 143.94 236.701 144.567C236.337 145.195 236.154 146.099 236.151 147.277C236.151 148.065 236.233 148.732 236.396 149.276C236.562 149.818 236.798 150.229 237.102 150.509C237.407 150.786 237.773 150.924 238.201 150.924V150.924ZM246.602 152.129C246.177 152.122 245.755 152.044 245.355 151.898C244.934 151.74 244.555 151.488 244.247 151.16C243.915 150.815 243.649 150.352 243.449 149.77C243.252 149.189 243.153 148.462 243.153 147.591C243.153 146.766 243.235 146.034 243.398 145.394C243.564 144.754 243.803 144.214 244.114 143.773C244.424 143.33 244.8 142.993 245.24 142.762C245.699 142.527 246.208 142.408 246.722 142.416C247.285 142.416 247.785 142.527 248.222 142.749C248.659 142.97 249.013 143.276 249.284 143.667C249.558 144.058 249.732 144.503 249.806 145.001H248.398C248.315 144.628 248.116 144.291 247.83 144.037C247.547 143.787 247.177 143.663 246.722 143.663C246.029 143.663 245.489 143.964 245.101 144.567C244.717 145.171 244.523 146.009 244.52 147.083H244.589C244.752 146.816 244.952 146.588 245.189 146.4C245.688 146.012 246.303 145.802 246.934 145.805C247.482 145.805 247.978 145.939 248.421 146.206C248.867 146.471 249.222 146.837 249.487 147.305C249.752 147.773 249.884 148.308 249.884 148.912C249.884 149.515 249.747 150.061 249.473 150.55C249.202 151.04 248.821 151.428 248.328 151.714C247.836 151.997 247.26 152.135 246.602 152.129V152.129ZM246.597 150.929C246.96 150.929 247.285 150.84 247.571 150.661C247.858 150.483 248.084 150.243 248.25 149.941C248.416 149.639 248.499 149.302 248.499 148.93C248.499 148.567 248.418 148.236 248.255 147.938C248.101 147.646 247.872 147.4 247.59 147.227C247.31 147.051 246.99 146.963 246.63 146.963C246.373 146.961 246.118 147.012 245.882 147.114C245.646 147.216 245.434 147.366 245.258 147.554C245.083 147.74 244.942 147.955 244.843 148.191C244.744 148.429 244.694 148.685 244.695 148.944C244.695 149.298 244.777 149.626 244.94 149.927C245.101 150.224 245.335 150.475 245.619 150.657C245.908 150.838 246.234 150.929 246.597 150.929V150.929ZM252.494 150.827C252.373 150.829 252.253 150.806 252.142 150.76C252.03 150.714 251.928 150.646 251.843 150.56C251.755 150.475 251.686 150.373 251.639 150.26C251.592 150.147 251.569 150.026 251.57 149.904C251.57 149.652 251.661 149.436 251.843 149.258C251.927 149.17 252.029 149.101 252.141 149.054C252.253 149.007 252.373 148.983 252.494 148.985C252.746 148.985 252.963 149.076 253.145 149.258C253.233 149.341 253.302 149.441 253.349 149.552C253.396 149.664 253.419 149.783 253.417 149.904C253.419 150.068 253.374 150.23 253.288 150.37C253.207 150.507 253.093 150.622 252.955 150.703C252.816 150.786 252.657 150.829 252.494 150.827V150.827ZM252.494 146.091C252.373 146.093 252.253 146.07 252.141 146.024C252.029 145.978 251.928 145.909 251.843 145.823C251.755 145.738 251.686 145.636 251.639 145.524C251.592 145.411 251.569 145.29 251.57 145.168C251.57 144.915 251.661 144.7 251.843 144.521C251.928 144.433 252.029 144.364 252.141 144.317C252.253 144.271 252.373 144.247 252.494 144.249C252.746 144.249 252.963 144.34 253.145 144.521C253.233 144.604 253.302 144.705 253.349 144.816C253.396 144.927 253.419 145.047 253.417 145.168C253.419 145.332 253.374 145.494 253.288 145.634C253.207 145.771 253.092 145.885 252.955 145.966C252.816 146.049 252.657 146.093 252.494 146.091V146.091ZM258.539 152.129C257.905 152.129 257.339 152.02 256.84 151.801C256.345 151.583 255.952 151.28 255.663 150.892C255.376 150.497 255.215 150.023 255.201 149.535H256.651C256.669 149.815 256.763 150.058 256.932 150.264C257.105 150.467 257.329 150.624 257.606 150.735C257.883 150.846 258.191 150.901 258.53 150.901C258.902 150.901 259.231 150.837 259.518 150.707C259.79 150.592 260.024 150.405 260.196 150.167C260.359 149.933 260.441 149.664 260.441 149.359C260.447 149.062 260.362 148.771 260.196 148.524C260.022 148.268 259.776 148.069 259.49 147.951C259.182 147.813 258.81 147.744 258.373 147.744H257.574V146.58H258.373C258.724 146.58 259.031 146.517 259.296 146.391C259.564 146.265 259.773 146.089 259.924 145.865C260.075 145.637 260.15 145.371 260.15 145.066C260.15 144.774 260.084 144.52 259.952 144.304C259.821 144.084 259.628 143.906 259.398 143.792C259.137 143.663 258.849 143.6 258.557 143.607C258.25 143.607 257.962 143.664 257.694 143.778C257.429 143.889 257.214 144.049 257.048 144.258C256.88 144.469 256.786 144.731 256.78 145.001H255.4C255.415 144.491 255.566 144.041 255.852 143.653C256.151 143.258 256.545 142.945 256.997 142.744C257.471 142.525 257.997 142.416 258.576 142.416C259.182 142.416 259.705 142.535 260.145 142.772C260.589 143.006 260.93 143.318 261.17 143.709C261.413 144.1 261.533 144.527 261.53 144.992C261.533 145.522 261.386 145.971 261.087 146.34C260.788 146.713 260.371 146.974 259.905 147.083V147.157C260.533 147.253 261.019 147.502 261.364 147.905C261.712 148.308 261.884 148.808 261.881 149.406C261.884 149.926 261.74 150.392 261.447 150.804C261.145 151.227 260.736 151.564 260.261 151.778C259.759 152.012 259.185 152.129 258.539 152.129V152.129ZM263.428 150.153V148.999L267.513 142.545H268.423V144.244H267.846L264.923 148.87V148.944H270.523V150.153H263.428V150.153ZM267.91 152V149.803L267.92 149.276V142.545H269.272V152H267.91Z" fill="#91A5BA"/>
<path d="M280 20.5H28C26.067 20.5 24.5 22.067 24.5 24V163C24.5 164.933 26.067 166.5 28 166.5H280C281.933 166.5 283.5 164.933 283.5 163V24C283.5 22.067 281.933 20.5 280 20.5Z" stroke="#4D5C6C"/>
<path d="M27.2552 183.091V194H24.9482V183.091H27.2552ZM31.3792 189.27V194H29.1092V185.818H31.2722V187.262H31.3682C31.5492 186.786 31.8532 186.409 32.2792 186.132C32.7052 185.852 33.2222 185.712 33.8292 185.712C34.3972 185.712 34.8932 185.836 35.3152 186.085C35.7382 186.333 36.0662 186.688 36.3012 187.15C36.5352 187.608 36.6522 188.155 36.6522 188.79V194H34.3832V189.195C34.3872 188.695 34.2592 188.304 34.0002 188.023C33.7402 187.739 33.3832 187.597 32.9292 187.597C32.6232 187.597 32.3542 187.663 32.1192 187.794C31.8859 187.929 31.6971 188.129 31.5762 188.37C31.4482 188.618 31.3822 188.918 31.3792 189.27ZM42.7932 185.818V187.523H37.8652V185.818H42.7932ZM38.9842 183.858H41.2542V191.486C41.2542 191.695 41.2852 191.859 41.3492 191.976C41.4078 192.084 41.5017 192.169 41.6152 192.216C41.7332 192.262 41.8682 192.285 42.0202 192.285C42.1272 192.285 42.2332 192.276 42.3402 192.258C42.4219 192.242 42.5036 192.226 42.5852 192.21L42.9422 193.899C42.7838 193.946 42.6237 193.986 42.4622 194.021C42.2562 194.071 42.0062 194.101 41.7122 194.112C41.1642 194.133 40.6852 194.06 40.2732 193.893C39.882 193.74 39.5486 193.468 39.3202 193.116C39.0922 192.764 38.9802 192.32 38.9842 191.784V183.858V183.858ZM44.2712 194V185.818H46.4712V187.246H46.5562C46.7062 186.738 46.9562 186.354 47.3072 186.095C47.6574 185.833 48.0848 185.694 48.5222 185.701C48.6352 185.701 48.7582 185.708 48.8892 185.722C49.0202 185.737 49.1362 185.756 49.2352 185.781V187.794C49.0903 187.755 48.9425 187.726 48.7932 187.709C48.6219 187.685 48.4492 187.673 48.2762 187.672C47.9432 187.672 47.6442 187.745 47.3822 187.89C47.1222 188.032 46.9162 188.231 46.7642 188.487C46.6142 188.743 46.5402 189.037 46.5402 189.371V194H44.2702H44.2712ZM53.7242 194.16C52.8972 194.16 52.1812 193.984 51.5782 193.632C50.9827 193.282 50.5003 192.768 50.1882 192.152C49.8612 191.516 49.6982 190.779 49.6982 189.941C49.6982 189.096 49.8612 188.357 50.1882 187.725C50.4983 187.107 50.9812 186.593 51.5782 186.244C52.1812 185.889 52.8972 185.712 53.7242 185.712C54.5522 185.712 55.2652 185.889 55.8662 186.244C56.4655 186.591 56.9504 187.106 57.2612 187.725C57.5882 188.357 57.7512 189.096 57.7512 189.941C57.7512 190.779 57.5882 191.516 57.2612 192.152C56.9483 192.769 56.464 193.283 55.8662 193.632C55.2662 193.984 54.5522 194.16 53.7242 194.16V194.16ZM53.7352 192.402C54.1112 192.402 54.4252 192.295 54.6782 192.082C54.9302 191.866 55.1202 191.571 55.2482 191.198C55.3792 190.825 55.4452 190.401 55.4452 189.925C55.4452 189.449 55.3792 189.025 55.2482 188.652C55.1202 188.279 54.9302 187.984 54.6782 187.768C54.4262 187.551 54.1112 187.443 53.7352 187.443C53.3552 187.443 53.0352 187.551 52.7762 187.768C52.5202 187.984 52.3272 188.279 52.1962 188.652C52.0624 189.063 51.9975 189.493 52.0042 189.925C52.0042 190.401 52.0682 190.825 52.1962 191.198C52.3272 191.571 52.5202 191.866 52.7762 192.082C53.0362 192.295 53.3552 192.402 53.7352 192.402ZM62.2422 194.133C61.6202 194.133 61.0572 193.973 60.5532 193.654C60.0532 193.331 59.6552 192.857 59.3602 192.232C59.0692 191.603 58.9232 190.832 58.9232 189.92C58.9232 188.982 59.0742 188.203 59.3762 187.581C59.6782 186.956 60.0792 186.489 60.5802 186.18C61.0767 185.87 61.651 185.708 62.2362 185.712C62.6952 185.712 63.0762 185.79 63.3822 185.946C63.6912 186.099 63.9392 186.29 64.1272 186.521C64.3192 186.749 64.4652 186.972 64.5642 187.192H64.6342V183.091H66.8972V194H64.6602V192.69H64.5642C64.4454 192.935 64.2929 193.163 64.1112 193.366C63.9202 193.586 63.6692 193.769 63.3612 193.915C63.0552 194.06 62.6822 194.133 62.2412 194.133H62.2422ZM62.9612 192.327C63.3272 192.327 63.6362 192.228 63.8882 192.029C64.1432 191.827 64.3382 191.544 64.4742 191.182C64.6122 190.82 64.6812 190.396 64.6812 189.909C64.6812 189.423 64.6142 189 64.4792 188.641C64.3442 188.283 64.1492 188.006 63.8932 187.81C63.6372 187.615 63.3272 187.517 62.9612 187.517C62.5882 187.517 62.2742 187.619 62.0182 187.821C61.7622 188.023 61.5682 188.304 61.4382 188.663C61.2996 189.063 61.2326 189.485 61.2402 189.909C61.2402 190.385 61.3062 190.806 61.4372 191.172C61.5722 191.534 61.7662 191.818 62.0182 192.024C62.2742 192.226 62.5882 192.327 62.9612 192.327V192.327ZM74.0102 190.516V185.818H76.2792V194H74.1002V192.514H74.0152C73.8365 192.986 73.5144 193.39 73.0942 193.67C72.6672 193.961 72.1472 194.107 71.5332 194.107C70.9862 194.107 70.5052 193.982 70.0892 193.734C69.6701 193.481 69.3322 193.113 69.1152 192.674C68.8842 192.216 68.7662 191.667 68.7632 191.028V185.818H71.0332V190.623C71.0362 191.106 71.1652 191.488 71.4212 191.768C71.6772 192.049 72.0192 192.189 72.4492 192.189C72.7222 192.189 72.9792 192.127 73.2162 192.002C73.457 191.872 73.6562 191.676 73.7912 191.438C73.9412 191.189 74.0132 190.882 74.0102 190.516V190.516ZM81.7902 194.16C80.9532 194.16 80.2322 193.982 79.6282 193.627C79.033 193.273 78.5521 192.756 78.2432 192.136C77.9232 191.5 77.7632 190.768 77.7632 189.941C77.7632 189.103 77.9252 188.368 78.2492 187.736C78.5599 187.117 79.0425 186.601 79.6392 186.25C80.2392 185.891 80.9532 185.712 81.7802 185.712C82.4942 185.712 83.1192 185.841 83.6552 186.1C84.1912 186.36 84.6152 186.724 84.9282 187.192C85.2412 187.661 85.4132 188.212 85.4452 188.844H83.3032C83.2432 188.435 83.0832 188.107 82.8242 187.858C82.5682 187.606 82.2332 187.48 81.8172 187.48C81.4871 187.473 81.1638 187.575 80.8962 187.768C80.6362 187.956 80.4342 188.231 80.2892 188.593C80.1432 188.956 80.0702 189.394 80.0702 189.909C80.0702 190.431 80.1412 190.875 80.2832 191.241C80.4292 191.607 80.6332 191.885 80.8962 192.077C81.1592 192.269 81.4662 192.365 81.8172 192.365C82.0772 192.365 82.3092 192.311 82.5152 192.205C82.7252 192.098 82.8972 191.944 83.0322 191.741C83.1702 191.536 83.2612 191.289 83.3042 191.001H85.4442C85.4092 191.626 85.2392 192.176 84.9342 192.652C84.6322 193.125 84.2142 193.494 83.6822 193.76C83.1492 194.027 82.5192 194.16 81.7912 194.16H81.7902ZM86.8982 194V185.818H89.1672V194H86.8972H86.8982ZM88.0382 184.763C87.7002 184.763 87.4112 184.652 87.1692 184.428C87.0558 184.325 86.9655 184.199 86.9042 184.059C86.8428 183.918 86.8118 183.766 86.8132 183.613C86.8132 183.3 86.9312 183.032 87.1692 182.809C87.4022 182.585 87.7148 182.462 88.0382 182.468C88.3752 182.468 88.6632 182.581 88.9012 182.809C89.1422 183.032 89.2632 183.3 89.2632 183.613C89.2632 183.929 89.1422 184.201 88.9012 184.428C88.6692 184.649 88.3589 184.77 88.0382 184.763V184.763ZM93.2542 189.27V194H90.9842V185.818H93.1472V187.262H93.2432C93.4242 186.786 93.7282 186.409 94.1542 186.132C94.5802 185.852 95.0972 185.712 95.7042 185.712C96.2722 185.712 96.7682 185.836 97.1902 186.085C97.6132 186.333 97.9412 186.688 98.1762 187.15C98.4102 187.608 98.5272 188.155 98.5272 188.79V194H96.2582V189.195C96.2622 188.695 96.1342 188.304 95.8752 188.023C95.6152 187.739 95.2582 187.597 94.8042 187.597C94.4992 187.597 94.2292 187.663 93.9942 187.794C93.7609 187.929 93.5721 188.129 93.4512 188.37C93.3232 188.618 93.2572 188.918 93.2542 189.27V189.27ZM104.002 197.239C103.267 197.239 102.636 197.137 102.111 196.935C101.589 196.736 101.173 196.464 100.864 196.12C100.564 195.793 100.357 195.392 100.262 194.959L102.362 194.676C102.425 194.84 102.526 194.993 102.665 195.135C102.803 195.277 102.986 195.39 103.213 195.475C103.444 195.564 103.725 195.609 104.055 195.609C104.549 195.609 104.955 195.488 105.275 195.246C105.598 195.009 105.76 194.609 105.76 194.048V192.551H105.664C105.547 192.812 105.379 193.047 105.171 193.242C104.962 193.438 104.717 193.59 104.449 193.691C104.137 193.819 103.764 193.883 103.331 193.883C102.744 193.89 102.166 193.743 101.653 193.457C101.152 193.169 100.753 192.73 100.454 192.141C100.159 191.548 100.012 190.799 100.012 189.893C100.012 188.966 100.163 188.192 100.465 187.571C100.767 186.949 101.168 186.484 101.669 186.175C102.167 185.868 102.741 185.708 103.325 185.712C103.783 185.712 104.167 185.79 104.475 185.946C104.785 186.099 105.033 186.29 105.222 186.521C105.413 186.749 105.561 186.972 105.664 187.192H105.749V185.818H108.002V194.08C108.002 194.776 107.832 195.358 107.491 195.827C107.15 196.296 106.678 196.647 106.074 196.882C105.474 197.12 104.783 197.239 104.002 197.239V197.239ZM104.05 192.178C104.415 192.178 104.724 192.088 104.977 191.907C105.232 191.722 105.427 191.459 105.562 191.118C105.701 190.774 105.77 190.362 105.77 189.882C105.77 189.403 105.703 188.988 105.568 188.636C105.433 188.281 105.238 188.006 104.982 187.81C104.726 187.615 104.415 187.517 104.05 187.517C103.677 187.517 103.363 187.619 103.107 187.821C102.851 188.02 102.657 188.297 102.527 188.652C102.389 189.047 102.322 189.463 102.329 189.882C102.329 190.355 102.395 190.763 102.526 191.108C102.661 191.449 102.855 191.713 103.106 191.901C103.363 192.086 103.676 192.178 104.05 192.178V192.178ZM117.632 185.818V187.523H112.704V185.818H117.632ZM113.822 183.858H116.092V191.486C116.092 191.695 116.124 191.859 116.188 191.976C116.247 192.084 116.341 192.169 116.454 192.216C116.572 192.262 116.706 192.285 116.859 192.285C116.966 192.285 117.072 192.276 117.179 192.258L117.424 192.21L117.781 193.899C117.623 193.946 117.463 193.986 117.301 194.021C117.095 194.071 116.845 194.101 116.551 194.112C116.003 194.133 115.524 194.06 115.111 193.893C114.72 193.74 114.387 193.468 114.158 193.116C113.931 192.764 113.819 192.32 113.823 191.784V183.858H113.822ZM121.555 189.27V194H119.285V183.091H121.491V187.262H121.587C121.771 186.779 122.07 186.401 122.481 186.127C122.893 185.85 123.411 185.712 124.032 185.712C124.6 185.712 125.095 185.836 125.518 186.085C125.944 186.33 126.274 186.683 126.508 187.145C126.746 187.603 126.864 188.151 126.86 188.79V194H124.591V189.195C124.594 188.691 124.467 188.299 124.207 188.018C123.952 187.738 123.593 187.597 123.131 187.597C122.822 187.597 122.549 187.663 122.311 187.794C122.075 187.928 121.882 188.128 121.757 188.37C121.626 188.618 121.558 188.918 121.555 189.27V189.27ZM132.374 194.16C131.533 194.16 130.808 193.989 130.201 193.648C129.603 193.309 129.118 192.802 128.806 192.189C128.479 191.557 128.316 190.809 128.316 189.946C128.316 189.105 128.479 188.366 128.806 187.73C129.115 187.113 129.593 186.598 130.185 186.244C130.782 185.889 131.481 185.712 132.284 185.712C132.824 185.712 133.326 185.799 133.791 185.973C134.26 186.143 134.669 186.401 135.017 186.745C135.368 187.089 135.642 187.523 135.837 188.045C136.032 188.563 136.13 189.17 136.13 189.866V190.49H129.221V189.083H133.994C134 188.78 133.927 188.481 133.781 188.215C133.643 187.967 133.438 187.762 133.189 187.624C132.925 187.474 132.625 187.399 132.321 187.406C131.977 187.406 131.671 187.485 131.405 187.645C131.146 187.797 130.933 188.016 130.787 188.279C130.637 188.548 130.558 188.85 130.558 189.158V190.495C130.558 190.9 130.633 191.25 130.782 191.544C130.934 191.839 131.149 192.066 131.426 192.226C131.703 192.386 132.032 192.466 132.412 192.466C132.664 192.466 132.895 192.43 133.104 192.359C133.314 192.288 133.493 192.182 133.642 192.04C133.794 191.894 133.911 191.716 133.983 191.518L136.082 191.656C135.983 192.146 135.757 192.601 135.427 192.977C135.1 193.35 134.677 193.641 134.159 193.851C133.644 194.057 133.049 194.16 132.374 194.16V194.16ZM141.125 194V183.091H145.493C146.295 183.091 146.965 183.21 147.501 183.448C148.037 183.686 148.44 184.016 148.71 184.439C148.98 184.858 149.115 185.341 149.115 185.887C149.115 186.314 149.03 186.688 148.859 187.011C148.689 187.331 148.454 187.594 148.156 187.8C147.85 188.007 147.506 188.154 147.144 188.231V188.338C147.566 188.358 147.975 188.484 148.335 188.705C148.694 188.925 148.992 189.233 149.2 189.6C149.427 189.987 149.541 190.449 149.541 190.985C149.55 191.532 149.4 192.071 149.11 192.535C148.826 192.986 148.405 193.343 147.847 193.606C147.29 193.869 146.603 194 145.786 194H141.125V194ZM143.431 192.114H145.312C145.954 192.114 146.423 191.992 146.718 191.747C147.013 191.498 147.16 191.168 147.16 190.756C147.166 190.474 147.09 190.197 146.942 189.957C146.79 189.72 146.574 189.532 146.318 189.414C146.052 189.282 145.734 189.217 145.365 189.217H143.431V192.114V192.114ZM143.431 187.656H145.141C145.457 187.656 145.738 187.601 145.983 187.491C146.231 187.377 146.427 187.217 146.569 187.011C146.714 186.805 146.787 186.559 146.787 186.271C146.787 185.877 146.647 185.559 146.366 185.317C146.089 185.076 145.695 184.955 145.184 184.955H143.431V187.656V187.656ZM153.268 183.091V194H150.999V183.091H153.268V183.091ZM158.783 194.16C157.956 194.16 157.24 193.984 156.636 193.632C156.041 193.282 155.558 192.768 155.246 192.152C154.919 191.516 154.756 190.779 154.756 189.941C154.756 189.096 154.919 188.357 155.246 187.725C155.556 187.107 156.039 186.593 156.636 186.244C157.24 185.889 157.956 185.712 158.783 185.712C159.61 185.712 160.324 185.889 160.924 186.244C161.524 186.591 162.009 187.106 162.32 187.725C162.647 188.357 162.81 189.096 162.81 189.941C162.81 190.779 162.647 191.516 162.32 192.152C162.007 192.769 161.522 193.283 160.924 193.632C160.324 193.984 159.61 194.16 158.783 194.16ZM158.794 192.402C159.17 192.402 159.484 192.295 159.736 192.082C159.989 191.866 160.179 191.571 160.306 191.198C160.438 190.825 160.503 190.401 160.503 189.925C160.503 189.449 160.438 189.025 160.306 188.652C160.179 188.279 159.989 187.984 159.736 187.768C159.484 187.551 159.17 187.443 158.794 187.443C158.414 187.443 158.094 187.551 157.835 187.768C157.579 187.984 157.386 188.279 157.254 188.652C157.12 189.063 157.055 189.493 157.062 189.925C157.062 190.401 157.126 190.825 157.254 191.198C157.386 191.571 157.579 191.866 157.835 192.082C158.094 192.295 158.414 192.402 158.794 192.402ZM167.982 194.16C167.144 194.16 166.423 193.982 165.82 193.627C165.225 193.274 164.744 192.756 164.435 192.136C164.115 191.5 163.955 190.768 163.955 189.941C163.955 189.103 164.117 188.368 164.44 187.736C164.751 187.117 165.234 186.601 165.83 186.25C166.43 185.891 167.144 185.712 167.972 185.712C168.685 185.712 169.31 185.841 169.847 186.1C170.383 186.36 170.807 186.724 171.12 187.192C171.432 187.661 171.604 188.212 171.636 188.844H169.495C169.435 188.435 169.275 188.107 169.016 187.858C168.76 187.606 168.424 187.48 168.009 187.48C167.657 187.48 167.35 187.576 167.087 187.768C166.828 187.956 166.626 188.231 166.48 188.593C166.334 188.956 166.262 189.394 166.262 189.909C166.262 190.431 166.333 190.875 166.475 191.241C166.62 191.607 166.824 191.885 167.087 192.077C167.35 192.269 167.657 192.365 168.009 192.365C168.268 192.365 168.501 192.311 168.707 192.205C168.917 192.098 169.095 191.938 169.223 191.741C169.362 191.536 169.452 191.289 169.495 191.001H171.636C171.601 191.626 171.43 192.176 171.125 192.652C170.818 193.13 170.385 193.513 169.873 193.76C169.34 194.027 168.71 194.16 167.982 194.16V194.16ZM175.145 191.646L175.151 188.924H175.481L178.102 185.818H180.706L177.185 189.93H176.647L175.145 191.646V191.646ZM173.089 194V183.091H175.358V194H173.089ZM178.203 194L175.795 190.436L177.308 188.833L180.861 194H178.203V194ZM185.334 194V183.091H189.638C190.465 183.091 191.17 183.249 191.753 183.565C192.316 183.858 192.78 184.313 193.084 184.87C193.393 185.424 193.548 186.063 193.548 186.788C193.548 187.512 193.391 188.151 193.079 188.705C192.764 189.261 192.292 189.712 191.721 190C191.131 190.309 190.417 190.463 189.579 190.463H186.836V188.615H189.206C189.65 188.615 190.016 188.538 190.304 188.386C190.595 188.229 190.812 188.015 190.954 187.741C191.099 187.464 191.172 187.146 191.172 186.788C191.172 186.425 191.099 186.109 190.954 185.839C190.81 185.564 190.583 185.343 190.304 185.206C190.013 185.053 189.643 184.977 189.196 184.977H187.64V194H185.334ZM195.003 194V185.818H197.203V187.246H197.288C197.438 186.738 197.688 186.354 198.039 186.095C198.389 185.833 198.817 185.694 199.254 185.701C199.368 185.701 199.49 185.708 199.621 185.722C199.753 185.737 199.868 185.756 199.968 185.781V187.794C199.823 187.755 199.676 187.726 199.526 187.709C199.355 187.685 199.182 187.673 199.009 187.672C198.675 187.672 198.377 187.745 198.114 187.89C197.858 188.029 197.644 188.236 197.496 188.487C197.347 188.743 197.272 189.037 197.272 189.371V194H195.003ZM204.457 194.16C203.629 194.16 202.914 193.984 202.31 193.632C201.715 193.282 201.232 192.768 200.92 192.152C200.593 191.516 200.43 190.779 200.43 189.941C200.43 189.096 200.593 188.357 200.92 187.725C201.23 187.107 201.713 186.593 202.31 186.244C202.914 185.889 203.629 185.712 204.457 185.712C205.284 185.712 205.998 185.889 206.598 186.244C207.198 186.591 207.683 187.106 207.994 187.725C208.32 188.357 208.484 189.096 208.484 189.941C208.484 190.779 208.32 191.516 207.994 192.152C207.681 192.769 207.196 193.283 206.598 193.632C205.998 193.984 205.284 194.16 204.457 194.16ZM204.467 192.402C204.844 192.402 205.158 192.295 205.41 192.082C205.662 191.866 205.852 191.571 205.98 191.198C206.112 190.825 206.177 190.401 206.177 189.925C206.177 189.449 206.112 189.025 205.98 188.652C205.852 188.279 205.662 187.984 205.41 187.768C205.158 187.551 204.844 187.443 204.467 187.443C204.087 187.443 203.768 187.551 203.509 187.768C203.253 187.984 203.059 188.279 202.928 188.652C202.794 189.063 202.729 189.493 202.736 189.925C202.736 190.401 202.8 190.825 202.928 191.198C203.059 191.571 203.253 191.866 203.509 192.082C203.768 192.295 204.087 192.402 204.467 192.402ZM214.311 185.818V187.523H209.384V185.818H214.311ZM210.503 183.858H212.772V191.486C212.772 191.695 212.804 191.859 212.868 191.976C212.927 192.084 213.021 192.169 213.134 192.216C213.251 192.262 213.386 192.285 213.539 192.285C213.645 192.285 213.752 192.276 213.858 192.258L214.103 192.21L214.46 193.899C214.302 193.946 214.142 193.986 213.981 194.021C213.775 194.071 213.525 194.101 213.23 194.112C212.683 194.133 212.204 194.06 211.792 193.893C211.401 193.741 211.067 193.469 210.838 193.116C210.611 192.764 210.499 192.32 210.503 191.784V183.858V183.858ZM219.398 194.16C218.571 194.16 217.855 193.984 217.252 193.632C216.656 193.282 216.173 192.768 215.861 192.152C215.535 191.516 215.371 190.779 215.371 189.941C215.371 189.096 215.535 188.357 215.861 187.725C216.171 187.107 216.655 186.592 217.252 186.244C217.855 185.889 218.571 185.712 219.398 185.712C220.226 185.712 220.939 185.889 221.54 186.244C222.139 186.592 222.624 187.106 222.935 187.725C223.262 188.357 223.425 189.096 223.425 189.941C223.425 190.779 223.262 191.516 222.935 192.152C222.622 192.769 222.138 193.283 221.54 193.632C220.939 193.984 220.226 194.16 219.398 194.16ZM219.409 192.402C219.785 192.402 220.1 192.295 220.352 192.082C220.604 191.866 220.794 191.571 220.922 191.198C221.053 190.825 221.119 190.401 221.119 189.925C221.119 189.449 221.053 189.025 220.922 188.652C220.794 188.279 220.604 187.984 220.352 187.768C220.1 187.551 219.785 187.443 219.409 187.443C219.029 187.443 218.709 187.551 218.45 187.768C218.194 187.984 218.001 188.279 217.869 188.652C217.736 189.063 217.672 189.493 217.678 189.925C217.678 190.401 217.742 190.825 217.869 191.198C218.001 191.571 218.194 191.866 218.45 192.082C218.709 192.295 219.029 192.402 219.409 192.402ZM228.597 194.16C227.759 194.16 227.038 193.982 226.435 193.627C225.84 193.273 225.359 192.756 225.05 192.136C224.73 191.5 224.57 190.768 224.57 189.941C224.57 189.103 224.732 188.368 225.055 187.736C225.366 187.117 225.849 186.601 226.445 186.25C227.046 185.891 227.759 185.712 228.587 185.712C229.301 185.712 229.926 185.841 230.462 186.1C230.998 186.36 231.422 186.724 231.735 187.192C232.047 187.661 232.22 188.212 232.252 188.844H230.11C230.05 188.435 229.89 188.107 229.631 187.858C229.375 187.606 229.04 187.48 228.624 187.48C228.272 187.48 227.965 187.576 227.703 187.768C227.443 187.956 227.241 188.231 227.095 188.593C226.95 188.956 226.877 189.394 226.877 189.909C226.877 190.431 226.948 190.875 227.09 191.241C227.236 191.607 227.44 191.885 227.703 192.077C227.965 192.269 228.272 192.365 228.624 192.365C228.883 192.365 229.116 192.311 229.322 192.205C229.531 192.098 229.704 191.944 229.839 191.741C229.977 191.536 230.068 191.289 230.11 191.001H232.252C232.216 191.626 232.046 192.176 231.74 192.652C231.433 193.13 231 193.513 230.488 193.76C229.956 194.027 229.325 194.16 228.597 194.16V194.16ZM237.401 194.16C236.574 194.16 235.858 193.984 235.254 193.632C234.659 193.282 234.176 192.768 233.864 192.152C233.537 191.516 233.374 190.779 233.374 189.941C233.374 189.096 233.537 188.357 233.864 187.725C234.174 187.107 234.657 186.593 235.254 186.244C235.858 185.889 236.574 185.712 237.401 185.712C238.229 185.712 238.942 185.889 239.542 186.244C240.142 186.591 240.627 187.106 240.938 187.725C241.265 188.357 241.428 189.096 241.428 189.941C241.428 190.779 241.265 191.516 240.938 192.152C240.625 192.769 240.14 193.283 239.542 193.632C238.942 193.984 238.229 194.16 237.401 194.16ZM237.412 192.402C237.788 192.402 238.102 192.295 238.355 192.082C238.607 191.866 238.797 191.571 238.925 191.198C239.056 190.825 239.122 190.401 239.122 189.925C239.122 189.449 239.056 189.025 238.925 188.652C238.797 188.279 238.607 187.984 238.355 187.768C238.102 187.551 237.788 187.443 237.412 187.443C237.032 187.443 236.712 187.551 236.453 187.768C236.197 187.984 236.004 188.279 235.872 188.652C235.739 189.063 235.674 189.493 235.681 189.925C235.681 190.401 235.744 190.825 235.872 191.198C236.004 191.571 236.197 191.866 236.453 192.082C236.712 192.295 237.032 192.402 237.412 192.402ZM245.173 183.091V194H242.904V183.091H245.173V183.091Z" fill="#4D5C6C"/>
<path d="M30.6197 217.571C29.6657 217.571 28.8197 217.441 28.0807 217.179C27.3447 216.92 26.7247 216.539 26.2207 216.034C25.7036 215.513 25.3106 214.882 25.0707 214.188C24.8087 213.458 24.6787 212.626 24.6787 211.69C24.6787 210.779 24.8107 209.96 25.0757 209.234C25.321 208.539 25.7148 207.905 26.2297 207.378C26.7527 206.854 27.3847 206.452 28.0807 206.201C28.8067 205.93 29.6317 205.795 30.5547 205.795C31.4387 205.795 32.2167 205.933 32.8907 206.21C33.5647 206.487 34.1307 206.867 34.5907 207.35C35.0507 207.834 35.3997 208.388 35.6337 209.012C35.8667 209.637 35.9837 210.297 35.9837 210.993C35.9837 211.479 35.9537 211.955 35.8917 212.419C35.8381 212.852 35.723 213.275 35.5497 213.675C35.3867 214.047 35.1497 214.346 34.8397 214.571C34.5317 214.792 34.1317 214.908 33.6397 214.917C33.3821 214.926 33.1247 214.895 32.8767 214.825C32.644 214.761 32.4294 214.644 32.2497 214.483C32.0773 214.323 31.9662 214.107 31.9357 213.874H31.8797C31.8057 214.055 31.6827 214.224 31.5107 214.381C31.3174 214.547 31.093 214.672 30.8507 214.751C30.5524 214.844 30.2396 214.882 29.9277 214.862C29.5632 214.852 29.2054 214.762 28.8797 214.598C28.5681 214.438 28.2954 214.211 28.0807 213.934C27.853 213.632 27.6825 213.29 27.5777 212.927C27.4561 212.507 27.3968 212.072 27.4017 211.635C27.4017 211.179 27.4687 210.771 27.6007 210.411C27.7327 210.048 27.9127 209.736 28.1407 209.474C28.3629 209.216 28.6324 209.003 28.9347 208.846C29.23 208.693 29.5505 208.594 29.8807 208.555C30.2047 208.518 30.5007 208.528 30.7717 208.583C31.0427 208.638 31.2677 208.723 31.4457 208.837C31.6277 208.951 31.7417 209.076 31.7877 209.211H31.8477V208.694H32.9837V212.978C32.9837 213.221 33.0467 213.427 33.1727 213.597C33.3027 213.766 33.4847 213.85 33.7227 213.85C34.0027 213.85 34.2207 213.747 34.3777 213.541C34.5377 213.335 34.6497 213.018 34.7147 212.59C34.7827 212.162 34.8157 211.615 34.8157 210.947C34.8157 210.479 34.7527 210.039 34.6267 209.626C34.3912 208.815 33.8842 208.109 33.1907 207.627C32.8407 207.384 32.4407 207.197 31.9907 207.064C31.5088 206.927 31.0097 206.86 30.5087 206.866C29.7737 206.866 29.1187 206.98 28.5467 207.207C27.9958 207.417 27.4999 207.751 27.0967 208.181C26.7067 208.606 26.4097 209.116 26.2067 209.71C26.0067 210.3 25.9067 210.964 25.9067 211.699C25.9067 212.466 26.0097 213.146 26.2157 213.74C26.4217 214.331 26.7257 214.829 27.1297 215.235C27.5327 215.642 28.0317 215.949 28.6257 216.159C29.2197 216.371 29.9037 216.477 30.6797 216.477C31.0247 216.477 31.3627 216.446 31.6957 216.385C32.0277 216.326 32.3237 216.259 32.5817 216.182C32.8437 216.108 33.0387 216.048 33.1677 216.002L33.4907 217.013C33.3007 217.102 33.0467 217.19 32.7297 217.276C32.3926 217.367 32.0503 217.438 31.7047 217.488C31.3457 217.543 30.983 217.571 30.6197 217.571V217.571ZM30.1947 213.73C30.5947 213.73 30.9167 213.65 31.1597 213.49C31.4057 213.33 31.5827 213.092 31.6907 212.775C31.8007 212.455 31.8567 212.055 31.8567 211.575C31.8537 211.107 31.7937 210.734 31.6767 210.457C31.5805 210.197 31.3894 209.982 31.1417 209.857C30.9017 209.734 30.5917 209.673 30.2137 209.673C29.8657 209.673 29.5687 209.757 29.3227 209.926C29.0797 210.096 28.8927 210.325 28.7637 210.614C28.6377 210.904 28.5737 211.225 28.5697 211.579C28.5727 211.952 28.6257 212.302 28.7267 212.632C28.8317 212.958 29.0007 213.223 29.2347 213.426C29.4717 213.629 29.7917 213.73 30.1947 213.73ZM37.6197 215V205.545H38.9997V209.059H39.0827C39.1627 208.911 39.2787 208.74 39.4287 208.546C39.5797 208.352 39.7887 208.183 40.0567 208.038C40.3247 207.891 40.6787 207.817 41.1187 207.817C41.6917 207.817 42.2017 207.961 42.6517 208.251C43.1017 208.54 43.4527 208.957 43.7087 209.502C43.9667 210.047 44.0967 210.702 44.0967 211.468C44.0967 212.235 43.9687 212.892 43.7127 213.44C43.4577 213.984 43.1067 214.404 42.6607 214.7C42.2061 214.994 41.6742 215.147 41.1327 215.138C40.7017 215.138 40.3497 215.066 40.0757 214.922C39.8308 214.798 39.614 214.625 39.4387 214.414C39.3063 214.251 39.1873 214.079 39.0827 213.897H38.9677V215H37.6197ZM38.9717 211.455C38.9717 211.953 39.0447 212.39 39.1887 212.766C39.3337 213.141 39.5427 213.435 39.8167 213.647C40.0907 213.857 40.4267 213.961 40.8237 213.961C41.2357 213.961 41.5807 213.852 41.8577 213.634C42.1347 213.412 42.3437 213.112 42.4847 212.733C42.6297 212.355 42.7027 211.929 42.7027 211.455C42.7027 210.987 42.6317 210.567 42.4897 210.194C42.3686 209.846 42.1507 209.54 41.8617 209.312C41.5847 209.097 41.2387 208.989 40.8237 208.989C40.4237 208.989 40.0847 209.092 39.8077 209.299C39.5221 209.521 39.3059 209.821 39.1847 210.162C39.0427 210.531 38.9717 210.962 38.9717 211.455ZM47.0267 205.545V215H45.6467V205.545H47.0267V205.545ZM51.8707 215.143C51.2057 215.143 50.6257 214.991 50.1307 214.686C49.632 214.378 49.2313 213.934 48.9757 213.407C48.7017 212.859 48.5657 212.219 48.5657 211.487C48.5657 210.751 48.7017 210.108 48.9757 209.557C49.2298 209.028 49.6303 208.582 50.1297 208.274C50.6257 207.969 51.2057 207.817 51.8697 207.817C52.5357 207.817 53.1157 207.969 53.6107 208.274C54.1067 208.578 54.4907 209.006 54.7647 209.557C55.0387 210.108 55.1757 210.751 55.1757 211.487C55.1757 212.219 55.0387 212.859 54.7657 213.407C54.5101 213.934 54.1094 214.378 53.6107 214.686C53.1157 214.991 52.5357 215.143 51.8707 215.143ZM51.8747 213.984C52.3057 213.984 52.6627 213.871 52.9467 213.643C53.2297 213.415 53.4387 213.112 53.5737 212.733C53.7127 212.355 53.7817 211.938 53.7817 211.482C53.7864 211.058 53.7159 210.636 53.5737 210.236C53.4541 209.877 53.2366 209.559 52.9457 209.317C52.6627 209.086 52.3057 208.971 51.8757 208.971C51.4417 208.971 51.0807 209.086 50.7957 209.317C50.5043 209.559 50.2853 209.877 50.1627 210.236C50.0237 210.636 49.955 211.058 49.9597 211.482C49.9597 211.938 50.0267 212.355 50.1627 212.733C50.3007 213.112 50.5117 213.415 50.7947 213.643C51.0807 213.871 51.4407 213.984 51.8747 213.984V213.984ZM59.7037 215.143C59.0167 215.143 58.4267 214.988 57.9307 214.677C57.4365 214.361 57.0425 213.911 56.7947 213.38C56.5307 212.829 56.3977 212.198 56.3977 211.487C56.3977 210.767 56.5337 210.131 56.8047 209.58C57.0747 209.026 57.4567 208.594 57.9497 208.283C58.4417 207.972 59.0217 207.817 59.6897 207.817C60.2287 207.817 60.7087 207.917 61.1297 208.117C61.5517 208.314 61.8917 208.591 62.1497 208.948C62.4117 209.305 62.5677 209.722 62.6167 210.199H61.2727C61.199 209.866 61.0215 209.565 60.7657 209.34C60.5037 209.1 60.1527 208.98 59.7127 208.98C59.3277 208.98 58.9907 209.082 58.7027 209.285C58.4157 209.485 58.1927 209.771 58.0327 210.143C57.8727 210.513 57.7927 210.95 57.7927 211.455C57.7927 211.972 57.8707 212.418 58.0277 212.793C58.1847 213.169 58.4067 213.46 58.6927 213.666C58.9827 213.872 59.3227 213.975 59.7127 213.975C59.9747 213.975 60.2117 213.927 60.4237 213.832C60.6387 213.734 60.8187 213.594 60.9637 213.412C61.1117 213.23 61.2147 213.012 61.2737 212.756H62.6167C62.5667 213.215 62.4177 213.624 62.1687 213.984C61.9187 214.344 61.5857 214.628 61.1667 214.834C60.7517 215.04 60.2637 215.143 59.7037 215.143V215.143ZM65.3617 212.595L65.3527 210.91H65.5927L68.4187 207.909H70.0707L66.8487 211.325H66.6317L65.3617 212.595ZM64.0927 215V205.545H65.4727V215H64.0927ZM68.5707 215L66.0307 211.63L66.9827 210.665L70.2647 215H68.5707V215ZM72.7097 205.545V215H71.3297V205.545H72.7097ZM77.5527 215.143C76.8887 215.143 76.3087 214.991 75.8127 214.686C75.3143 214.378 74.914 213.934 74.6587 213.407C74.3847 212.859 74.2477 212.219 74.2477 211.487C74.2477 210.751 74.3847 210.108 74.6577 209.557C74.9121 209.028 75.3129 208.582 75.8127 208.274C76.3077 207.969 76.8887 207.817 77.5527 207.817C78.2177 207.817 78.7977 207.969 79.2927 208.274C79.7887 208.578 80.1737 209.006 80.4477 209.557C80.7217 210.108 80.8577 210.751 80.8577 211.487C80.8577 212.219 80.7217 212.859 80.4477 213.407C80.1924 213.934 79.7921 214.378 79.2937 214.686C78.7977 214.991 78.2177 215.143 77.5537 215.143H77.5527ZM77.5577 213.984C77.9877 213.984 78.3457 213.871 78.6287 213.643C78.9117 213.415 79.1207 213.112 79.2567 212.733C79.3947 212.355 79.4647 211.938 79.4647 211.482C79.4694 211.058 79.3989 210.636 79.2567 210.236C79.1371 209.877 78.9196 209.559 78.6287 209.317C78.3457 209.086 77.9887 208.971 77.5587 208.971C77.1237 208.971 76.7637 209.086 76.4777 209.317C76.1863 209.559 75.9673 209.877 75.8447 210.236C75.7057 210.636 75.637 211.058 75.6417 211.482C75.6417 211.938 75.7097 212.355 75.8447 212.733C75.9837 213.112 76.1947 213.415 76.4777 213.643C76.7637 213.871 77.1237 213.984 77.5577 213.984V213.984ZM88.2237 207.909L85.6537 215H84.1757L81.5997 207.909H83.0817L84.8767 213.366H84.9507L86.7417 207.909H88.2237V207.909ZM92.3367 215.143C91.6367 215.143 91.0367 214.994 90.5307 214.695C90.0286 214.393 89.6246 213.952 89.3677 213.426C89.0977 212.878 88.9617 212.236 88.9617 211.501C88.9617 210.774 89.0967 210.134 89.3677 209.58C89.621 209.049 90.0176 208.6 90.5127 208.283C91.0047 207.972 91.5807 207.817 92.2397 207.817C92.6397 207.817 93.0277 207.883 93.4027 208.015C93.7777 208.148 94.1147 208.355 94.4137 208.638C94.7127 208.922 94.9477 209.289 95.1197 209.742C95.2927 210.191 95.3787 210.737 95.3787 211.381V211.87H89.7417V210.836H94.0257C94.0257 210.473 93.9517 210.151 93.8047 209.871C93.6628 209.594 93.4468 209.363 93.1807 209.202C92.8992 209.034 92.5762 208.949 92.2487 208.957C91.8891 208.949 91.5352 209.048 91.2327 209.243C90.9501 209.427 90.7207 209.682 90.5677 209.982C90.4134 210.286 90.3345 210.624 90.3377 210.965V211.773C90.3377 212.247 90.4207 212.65 90.5867 212.983C90.7567 213.315 90.9917 213.569 91.2927 213.744C91.5947 213.917 91.9467 214.003 92.3497 214.003C92.6117 214.003 92.8497 213.966 93.0657 213.892C93.2767 213.821 93.469 213.703 93.6281 213.547C93.7872 213.391 93.9091 213.201 93.9847 212.992L95.2907 213.227C95.1898 213.605 94.9963 213.953 94.7277 214.238C94.4597 214.525 94.1227 214.748 93.7167 214.908C93.2753 215.071 92.8073 215.151 92.3367 215.143V215.143ZM96.9097 215V207.909H98.2447V209.036H98.3177C98.4477 208.654 98.6747 208.354 99.0017 208.135C99.3318 207.914 99.7213 207.798 100.119 207.803C100.314 207.804 100.51 207.815 100.705 207.835V209.156C100.608 209.132 100.509 209.115 100.41 209.105C100.269 209.083 100.127 209.072 99.9847 209.072C99.6587 209.072 99.3677 209.142 99.1117 209.28C98.8602 209.414 98.6505 209.614 98.5057 209.859C98.3608 210.105 98.2864 210.385 98.2907 210.67V215H96.9107H96.9097ZM107.856 212.304C107.484 212.304 107.144 212.213 106.836 212.032C106.532 211.851 106.278 211.597 106.097 211.293C105.915 210.984 105.821 210.631 105.825 210.273C105.825 209.897 105.915 209.557 106.097 209.252C106.282 208.945 106.528 208.7 106.836 208.518C107.144 208.334 107.497 208.238 107.856 208.241C108.232 208.241 108.572 208.334 108.876 208.518C109.184 208.7 109.429 208.945 109.61 209.252C109.795 209.557 109.887 209.897 109.887 210.273C109.887 210.645 109.795 210.985 109.61 211.293C109.432 211.597 109.179 211.852 108.876 212.032C108.567 212.214 108.214 212.308 107.856 212.304V212.304ZM119.23 205.545V215H117.799V206.977H117.743L115.481 208.454V207.087L117.841 205.545H119.23ZM125.246 215V207.909H126.571V209.063H126.659C126.807 208.672 127.048 208.368 127.384 208.149C127.719 207.928 128.121 207.817 128.589 207.817C129.063 207.817 129.46 207.928 129.78 208.149C130.103 208.371 130.341 208.675 130.495 209.063H130.569C130.738 208.685 131.02 208.369 131.377 208.158C131.746 207.931 132.186 207.817 132.697 207.817C133.34 207.817 133.865 208.018 134.271 208.422C134.681 208.825 134.885 209.433 134.885 210.245V215H133.505V210.374C133.505 209.894 133.374 209.546 133.113 209.331C132.849 209.115 132.517 209 132.176 209.008C131.726 209.008 131.377 209.146 131.128 209.423C130.878 209.697 130.754 210.05 130.754 210.48V215H129.378V210.287C129.378 209.902 129.258 209.593 129.018 209.359C128.778 209.125 128.465 209.008 128.081 209.008C127.819 209.008 127.578 209.077 127.356 209.216C127.133 209.356 126.95 209.551 126.825 209.783C126.689 210.043 126.621 210.334 126.627 210.628V215H125.246V215ZM139.722 215.143C139.058 215.143 138.477 214.991 137.982 214.686C137.483 214.378 137.083 213.934 136.828 213.407C136.554 212.859 136.417 212.219 136.417 211.487C136.417 210.751 136.554 210.108 136.828 209.557C137.082 209.028 137.482 208.582 137.982 208.274C138.477 207.969 139.058 207.817 139.722 207.817C140.387 207.817 140.967 207.969 141.463 208.274C141.958 208.578 142.343 209.006 142.617 209.557C142.891 210.108 143.028 210.751 143.028 211.487C143.028 212.219 142.891 212.859 142.617 213.407C142.361 213.934 141.961 214.378 141.463 214.686C140.967 214.991 140.387 215.143 139.722 215.143ZM139.727 213.984C140.158 213.984 140.515 213.871 140.798 213.643C141.081 213.415 141.29 213.112 141.426 212.733C141.564 212.355 141.634 211.938 141.634 211.482C141.634 211.03 141.564 210.614 141.426 210.236C141.306 209.877 141.088 209.559 140.798 209.317C140.515 209.086 140.158 208.971 139.727 208.971C139.293 208.971 138.933 209.086 138.647 209.317C138.356 209.56 138.137 209.877 138.014 210.236C137.875 210.636 137.806 211.058 137.811 211.482C137.811 211.938 137.879 212.355 138.014 212.733C138.153 213.112 138.364 213.415 138.647 213.643C138.933 213.871 139.293 213.984 139.727 213.984ZM145.949 210.79V215H144.569V207.909H145.893V209.063H145.981C146.141 208.692 146.408 208.376 146.748 208.158C147.098 207.931 147.54 207.817 148.072 207.817C148.556 207.817 148.979 207.918 149.342 208.121C149.705 208.321 149.987 208.62 150.187 209.017C150.387 209.414 150.487 209.905 150.487 210.49V215H149.107V210.656C149.107 210.142 148.973 209.74 148.705 209.451C148.437 209.159 148.069 209.012 147.602 209.012C147.281 209.012 146.997 209.082 146.748 209.22C146.497 209.363 146.294 209.574 146.161 209.83C146.02 210.094 145.949 210.414 145.949 210.79V210.79ZM155.648 207.909V209.017H151.775V207.909H155.648ZM152.814 206.21H154.194V212.918C154.194 213.186 154.234 213.387 154.314 213.523C154.394 213.655 154.497 213.746 154.623 213.795C154.752 213.841 154.893 213.864 155.043 213.864C155.154 213.864 155.251 213.857 155.334 213.841C155.417 213.826 155.482 213.814 155.528 213.804L155.777 214.945C155.489 215.044 155.186 215.094 154.882 215.092C154.533 215.101 154.186 215.035 153.866 214.898C153.557 214.767 153.292 214.549 153.104 214.271C152.911 213.987 152.814 213.632 152.814 213.204V206.21V206.21ZM158.708 210.79V215H157.327V205.545H158.689V209.063H158.777C158.943 208.682 159.197 208.378 159.539 208.154C159.88 207.929 160.326 207.817 160.877 207.817C161.364 207.817 161.788 207.917 162.152 208.117C162.518 208.317 162.801 208.615 163.001 209.012C163.204 209.406 163.306 209.899 163.306 210.49V215H161.925V210.656C161.925 210.136 161.791 209.733 161.524 209.446C161.256 209.157 160.884 209.012 160.407 209.012C160.08 209.012 159.788 209.082 159.529 209.22C159.272 209.36 159.062 209.572 158.925 209.83C158.78 210.094 158.708 210.414 158.708 210.79V210.79ZM170.652 215.157C170.202 215.157 169.796 215.074 169.433 214.908C169.082 214.749 168.783 214.495 168.57 214.174C168.36 213.854 168.256 213.461 168.256 212.996C168.256 212.596 168.333 212.267 168.487 212.009C168.64 211.75 168.848 211.545 169.11 211.395C169.371 211.244 169.664 211.13 169.987 211.053C170.312 210.975 170.642 210.916 170.975 210.877L172.009 210.757C172.274 210.724 172.466 210.67 172.586 210.596C172.706 210.522 172.766 210.402 172.766 210.236V210.203C172.766 209.8 172.652 209.488 172.424 209.266C172.2 209.045 171.864 208.934 171.418 208.934C170.953 208.934 170.587 209.037 170.319 209.243C170.055 209.446 169.871 209.673 169.77 209.922L168.473 209.626C168.627 209.196 168.851 208.848 169.147 208.583C169.443 208.316 169.794 208.117 170.176 208.001C170.572 207.877 170.985 207.815 171.4 207.817C171.683 207.817 171.983 207.851 172.3 207.918C172.62 207.983 172.918 208.103 173.195 208.278C173.475 208.454 173.705 208.705 173.883 209.031C174.062 209.354 174.151 209.774 174.151 210.291V215H172.803V214.031H172.748C172.644 214.227 172.508 214.405 172.346 214.557C172.146 214.742 171.912 214.888 171.658 214.986C171.378 215.1 171.042 215.157 170.652 215.157V215.157ZM170.952 214.049C171.333 214.049 171.66 213.974 171.93 213.823C172.204 213.672 172.412 213.475 172.554 213.232C172.698 212.986 172.771 212.723 172.771 212.442V211.528C172.721 211.578 172.626 211.624 172.484 211.667C172.346 211.707 172.187 211.742 172.009 211.773L171.487 211.852L171.062 211.907C170.812 211.937 170.565 211.994 170.328 212.078C170.11 212.158 169.935 212.273 169.802 212.424C169.673 212.572 169.608 212.769 169.608 213.015C169.608 213.357 169.734 213.615 169.987 213.79C170.239 213.963 170.561 214.049 170.952 214.049V214.049ZM178.962 217.807C178.399 217.807 177.915 217.733 177.508 217.585C177.142 217.46 176.805 217.26 176.52 216.999C176.277 216.774 176.083 216.502 175.948 216.2L177.134 215.711C177.217 215.846 177.328 215.989 177.467 216.14C177.608 216.294 177.799 216.425 178.039 216.533C178.282 216.64 178.595 216.694 178.976 216.694C179.499 216.694 179.932 216.567 180.274 216.311C180.615 216.059 180.786 215.656 180.786 215.102V213.707H180.698C180.595 213.886 180.474 214.055 180.338 214.211C180.16 214.413 179.944 214.576 179.701 214.691C179.43 214.826 179.078 214.894 178.644 214.894C178.084 214.894 177.579 214.763 177.13 214.501C176.683 214.237 176.33 213.847 176.068 213.333C175.809 212.816 175.68 212.181 175.68 211.427C175.68 210.673 175.808 210.027 176.063 209.488C176.322 208.949 176.676 208.537 177.125 208.251C177.574 207.961 178.084 207.817 178.653 207.817C179.093 207.817 179.449 207.891 179.72 208.038C179.99 208.183 180.201 208.352 180.352 208.546C180.506 208.74 180.624 208.911 180.707 209.059H180.809V207.909H182.162V215.157C182.162 215.766 182.02 216.266 181.737 216.657C181.454 217.048 181.071 217.337 180.587 217.525C180.107 217.713 179.566 217.807 178.962 217.807V217.807ZM178.949 213.749C179.346 213.749 179.681 213.657 179.955 213.472C180.232 213.284 180.441 213.016 180.583 212.669C180.727 212.318 180.8 211.898 180.8 211.408C180.8 210.931 180.729 210.511 180.587 210.148C180.465 209.811 180.249 209.516 179.964 209.299C179.69 209.092 179.352 208.989 178.949 208.989C178.533 208.989 178.187 209.097 177.91 209.312C177.624 209.537 177.406 209.838 177.282 210.18C177.139 210.573 177.068 210.989 177.074 211.408C177.074 211.873 177.145 212.281 177.287 212.632C177.428 212.983 177.638 213.257 177.915 213.453C178.195 213.65 178.539 213.749 178.949 213.749V213.749ZM187 215.143C186.335 215.143 185.755 214.991 185.259 214.686C184.76 214.378 184.36 213.934 184.105 213.407C183.831 212.859 183.694 212.219 183.694 211.487C183.694 210.751 183.831 210.108 184.105 209.557C184.359 209.028 184.759 208.583 185.259 208.274C185.755 207.969 186.335 207.817 187 207.817C187.665 207.817 188.245 207.969 188.74 208.274C189.236 208.578 189.62 209.006 189.894 209.557C190.168 210.108 190.305 210.751 190.305 211.487C190.305 212.219 190.168 212.859 189.894 213.407C189.639 213.934 189.238 214.378 188.74 214.686C188.245 214.991 187.665 215.143 187 215.143ZM187.004 213.984C187.435 213.984 187.792 213.871 188.075 213.643C188.359 213.415 188.568 213.112 188.703 212.733C188.846 212.332 188.916 211.908 188.911 211.482C188.911 211.03 188.842 210.614 188.703 210.236C188.584 209.877 188.366 209.558 188.075 209.317C187.792 209.086 187.435 208.971 187.004 208.971C186.57 208.971 186.21 209.086 185.924 209.317C185.633 209.559 185.414 209.877 185.292 210.236C185.152 210.636 185.084 211.058 185.089 211.482C185.089 211.938 185.156 212.355 185.292 212.733C185.43 213.112 185.641 213.415 185.924 213.643C186.21 213.871 186.57 213.984 187.004 213.984Z" fill="#91A5BA"/>
</svg>
