<svg width="297" height="231" viewBox="0 0 297 231" fill="none" xmlns="http://www.w3.org/2000/svg">
<rect x="0.310547" width="295.83" height="230.517" rx="5.76293" fill="white"/>
<g clip-path="url(#clip0_638_2467)">
<path d="M269.247 19.6899H27.2035C25.3469 19.6899 23.8418 21.195 23.8418 23.0517V156.56C23.8418 158.416 25.3469 159.921 27.2035 159.921H269.247C271.103 159.921 272.608 158.416 272.608 156.56V23.0517C272.608 21.195 271.103 19.6899 269.247 19.6899Z" fill="#37434F"/>
<path d="M174.159 88.1426C175.439 88.8821 175.439 90.7301 174.159 91.4697L136.7 113.098C135.419 113.838 133.818 112.913 133.818 111.434V68.1788C133.818 66.6997 135.419 65.7757 136.7 66.5152L174.159 88.1426Z" fill="#F2F5FA"/>
<path d="M229.1 146.145C228.399 146.142 227.8 145.958 227.303 145.591C226.807 145.224 226.427 144.691 226.164 143.99C225.901 143.289 225.77 142.445 225.77 141.458C225.77 140.473 225.901 139.633 226.164 138.936C226.43 138.237 226.812 137.705 227.308 137.339C227.808 136.972 228.405 136.789 229.1 136.789C229.794 136.789 230.389 136.974 230.886 137.343C231.383 137.71 231.763 138.242 232.026 138.939C232.292 139.634 232.425 140.473 232.425 141.458C232.425 142.448 232.293 143.294 232.03 143.994C231.768 144.692 231.387 145.226 230.891 145.596C230.394 145.962 229.797 146.145 229.1 146.145ZM229.1 144.961C229.714 144.961 230.195 144.661 230.54 144.061C230.89 143.46 231.064 142.593 231.064 141.458C231.064 140.705 230.984 140.067 230.825 139.547C230.668 139.024 230.441 138.627 230.146 138.358C229.864 138.091 229.488 137.944 229.1 137.951C228.488 137.951 228.007 138.253 227.659 138.855C227.309 139.458 227.133 140.326 227.131 141.458C227.131 142.215 227.209 142.855 227.366 143.378C227.525 143.898 227.752 144.293 228.044 144.562C228.337 144.828 228.688 144.961 229.1 144.961V144.961ZM237.169 146.118C236.76 146.112 236.355 146.037 235.971 145.896C235.566 145.745 235.202 145.502 234.907 145.187C234.588 144.856 234.332 144.411 234.14 143.852C233.951 143.294 233.856 142.596 233.856 141.759C233.856 140.967 233.935 140.264 234.091 139.649C234.251 139.035 234.48 138.516 234.779 138.092C235.077 137.667 235.438 137.343 235.86 137.121C236.301 136.896 236.789 136.782 237.284 136.789C237.825 136.789 238.305 136.896 238.725 137.109C239.144 137.321 239.484 137.615 239.745 137.99C240.008 138.366 240.175 138.793 240.246 139.272H238.894C238.813 138.914 238.623 138.59 238.348 138.346C238.076 138.106 237.721 137.987 237.284 137.987C236.618 137.987 236.1 138.276 235.727 138.855C235.358 139.435 235.172 140.24 235.169 141.271H235.235C235.392 141.015 235.584 140.796 235.811 140.615C236.29 140.243 236.881 140.041 237.488 140.044C238.014 140.044 238.49 140.173 238.916 140.429C239.344 140.684 239.685 141.035 239.94 141.485C240.194 141.934 240.321 142.448 240.321 143.028C240.321 143.607 240.189 144.132 239.926 144.602C239.666 145.072 239.3 145.445 238.826 145.72C238.354 145.991 237.801 146.124 237.169 146.118V146.118ZM237.164 144.966C237.512 144.966 237.825 144.88 238.099 144.708C238.375 144.537 238.592 144.307 238.752 144.017C238.911 143.726 238.991 143.403 238.991 143.046C238.991 142.697 238.913 142.379 238.756 142.093C238.608 141.812 238.388 141.576 238.118 141.41C237.849 141.241 237.541 141.156 237.196 141.156C236.949 141.154 236.704 141.204 236.477 141.302C236.25 141.399 236.046 141.543 235.878 141.724C235.709 141.902 235.574 142.11 235.479 142.336C235.384 142.565 235.336 142.811 235.337 143.059C235.337 143.399 235.416 143.714 235.572 144.003C235.727 144.288 235.951 144.529 236.224 144.704C236.502 144.878 236.815 144.966 237.164 144.966V144.966ZM242.828 144.868C242.712 144.869 242.596 144.847 242.489 144.803C242.381 144.759 242.284 144.694 242.203 144.611C242.118 144.53 242.051 144.432 242.006 144.323C241.961 144.215 241.939 144.098 241.94 143.981C241.94 143.739 242.028 143.532 242.203 143.361C242.283 143.276 242.38 143.21 242.488 143.164C242.595 143.119 242.711 143.097 242.828 143.098C243.07 143.098 243.278 143.186 243.453 143.361C243.537 143.44 243.604 143.537 243.649 143.643C243.694 143.75 243.716 143.865 243.714 143.981C243.716 144.139 243.673 144.294 243.59 144.429C243.512 144.56 243.402 144.67 243.271 144.748C243.137 144.828 242.984 144.87 242.828 144.868V144.868ZM242.828 140.319C242.712 140.32 242.596 140.299 242.489 140.254C242.381 140.21 242.284 140.144 242.203 140.061C242.118 139.98 242.051 139.882 242.006 139.774C241.961 139.666 241.939 139.549 241.94 139.432C241.94 139.189 242.028 138.983 242.203 138.811C242.283 138.727 242.381 138.66 242.488 138.615C242.596 138.57 242.711 138.548 242.828 138.549C243.07 138.549 243.278 138.637 243.453 138.811C243.537 138.891 243.604 138.987 243.649 139.094C243.694 139.201 243.716 139.316 243.714 139.432C243.716 139.59 243.673 139.745 243.59 139.88C243.512 140.011 243.402 140.121 243.271 140.199C243.137 140.279 242.984 140.32 242.828 140.319V140.319ZM248.634 146.118C248.025 146.118 247.481 146.013 247.002 145.803C246.527 145.594 246.149 145.303 245.872 144.93C245.595 144.55 245.441 144.096 245.428 143.627H246.821C246.838 143.896 246.928 144.129 247.09 144.327C247.257 144.522 247.472 144.673 247.738 144.779C248.004 144.886 248.3 144.939 248.625 144.939C248.983 144.939 249.299 144.877 249.574 144.752C249.835 144.642 250.06 144.463 250.225 144.234C250.382 144.009 250.461 143.751 250.461 143.458C250.466 143.172 250.384 142.893 250.225 142.656C250.058 142.41 249.822 142.219 249.547 142.105C249.252 141.973 248.894 141.906 248.475 141.906H247.707V140.788H248.475C248.812 140.788 249.107 140.728 249.361 140.607C249.618 140.486 249.819 140.317 249.964 140.102C250.109 139.883 250.181 139.627 250.181 139.334C250.181 139.054 250.118 138.81 249.991 138.602C249.865 138.391 249.68 138.22 249.459 138.111C249.208 137.987 248.931 137.926 248.651 137.933C248.356 137.933 248.08 137.988 247.822 138.097C247.568 138.204 247.361 138.357 247.202 138.558C247.04 138.761 246.95 139.012 246.944 139.272H245.619C245.633 138.782 245.778 138.35 246.053 137.977C246.34 137.598 246.718 137.297 247.153 137.104C247.608 136.894 248.113 136.789 248.67 136.789C249.252 136.789 249.754 136.903 250.177 137.131C250.603 137.356 250.93 137.655 251.161 138.031C251.394 138.406 251.51 138.816 251.507 139.263C251.51 139.772 251.368 140.203 251.081 140.558C250.793 140.916 250.394 141.167 249.946 141.271V141.343C250.549 141.435 251.016 141.674 251.347 142.061C251.682 142.448 251.847 142.928 251.844 143.503C251.847 144.002 251.708 144.45 251.427 144.845C251.137 145.252 250.744 145.575 250.288 145.781C249.806 146.006 249.254 146.118 248.634 146.118V146.118ZM253.33 144.22V143.112L257.253 136.913H258.127V138.545H257.573L254.766 142.988V143.059H260.144V144.22H253.33V144.22ZM257.635 145.994V143.884L257.644 143.378V136.913H258.943V145.994H257.635Z" fill="#91A5BA"/>
<path d="M269.247 19.6899H27.2035C25.3469 19.6899 23.8418 21.195 23.8418 23.0517V156.56C23.8418 158.416 25.3469 159.921 27.2035 159.921H269.247C271.103 159.921 272.608 158.416 272.608 156.56V23.0517C272.608 21.195 271.103 19.6899 269.247 19.6899Z" stroke="#4D5C6C" stroke-width="0.960488"/>
<path d="M26.4883 175.857V186.335H24.2725V175.857H26.4883ZM30.4494 181.792V186.335H28.2691V178.477H30.3466V179.864H30.4388C30.6126 179.406 30.9046 179.044 31.3138 178.778C31.723 178.509 32.2195 178.375 32.8026 178.375C33.3481 178.375 33.8245 178.494 34.2298 178.733C34.6361 178.971 34.9512 179.312 35.1769 179.756C35.4016 180.196 35.514 180.721 35.514 181.331V186.335H33.3347V181.72C33.3385 181.24 33.2156 180.864 32.9668 180.594C32.7171 180.322 32.3742 180.185 31.9381 180.185C31.6442 180.185 31.3858 180.249 31.1601 180.375C30.936 180.504 30.7547 180.696 30.6386 180.928C30.5156 181.166 30.4522 181.454 30.4494 181.792ZM41.4124 178.477V180.114H36.6791V178.477H41.4124ZM37.7539 176.594H39.9342V183.921C39.9342 184.121 39.964 184.279 40.0254 184.391C40.0816 184.495 40.1718 184.577 40.2809 184.622C40.3943 184.666 40.5239 184.688 40.6699 184.688C40.7727 184.688 40.8745 184.679 40.9773 184.662C41.0557 184.647 41.1341 184.631 41.2126 184.616L41.5555 186.238C41.4033 186.283 41.2495 186.322 41.0945 186.356C40.8966 186.404 40.6565 186.432 40.3741 186.443C39.8477 186.463 39.3877 186.393 38.9919 186.233C38.6162 186.086 38.296 185.825 38.0766 185.486C37.8576 185.148 37.75 184.722 37.7539 184.207V176.594V176.594ZM42.832 186.335V178.477H44.9451V179.848H45.0267C45.1708 179.36 45.4109 178.991 45.748 178.743C46.0843 178.491 46.4948 178.358 46.915 178.364C47.0236 178.364 47.1417 178.371 47.2675 178.384C47.3933 178.399 47.5048 178.417 47.5998 178.441V180.375C47.4606 180.337 47.3187 180.309 47.1753 180.293C47.0107 180.27 46.8449 180.258 46.6787 180.257C46.3589 180.257 46.0717 180.327 45.8201 180.467C45.5703 180.603 45.3725 180.794 45.2265 181.04C45.0824 181.286 45.0113 181.568 45.0113 181.889V186.335H42.831H42.832ZM51.9115 186.489C51.1172 186.489 50.4294 186.32 49.8503 185.982C49.2783 185.646 48.8149 185.152 48.5152 184.56C48.2011 183.949 48.0446 183.242 48.0446 182.437C48.0446 181.625 48.2011 180.915 48.5152 180.308C48.813 179.715 49.2768 179.221 49.8503 178.886C50.4294 178.545 51.1172 178.375 51.9115 178.375C52.7068 178.375 53.3916 178.545 53.9688 178.886C54.5444 179.219 55.0101 179.714 55.3087 180.308C55.6228 180.915 55.7794 181.625 55.7794 182.437C55.7794 183.242 55.6228 183.949 55.3087 184.56C55.0082 185.153 54.543 185.647 53.9688 185.982C53.3926 186.32 52.7068 186.489 51.9115 186.489V186.489ZM51.922 184.8C52.2832 184.8 52.5848 184.698 52.8278 184.493C53.0698 184.286 53.2523 184.002 53.3753 183.644C53.5011 183.286 53.5645 182.879 53.5645 182.421C53.5645 181.964 53.5011 181.557 53.3753 181.199C53.2523 180.84 53.0698 180.557 52.8278 180.35C52.5857 180.141 52.2832 180.037 51.922 180.037C51.5571 180.037 51.2497 180.141 51.0009 180.35C50.755 180.557 50.5697 180.84 50.4439 181.199C50.3153 181.593 50.253 182.006 50.2594 182.421C50.2594 182.879 50.3209 183.286 50.4439 183.644C50.5697 184.002 50.755 184.286 51.0009 184.493C51.2507 184.698 51.5571 184.8 51.922 184.8ZM60.0929 186.463C59.4955 186.463 58.9547 186.309 58.4707 186.003C57.9904 185.693 57.6081 185.238 57.3248 184.637C57.0453 184.033 56.9051 183.293 56.9051 182.417C56.9051 181.516 57.0501 180.767 57.3402 180.17C57.6302 179.57 58.0154 179.121 58.4966 178.824C58.9735 178.527 59.5251 178.371 60.0872 178.375C60.528 178.375 60.894 178.45 61.1879 178.6C61.4847 178.747 61.7229 178.93 61.9034 179.152C62.0879 179.371 62.2281 179.585 62.3232 179.796H62.3904V175.857H64.564V186.335H62.4154V185.077H62.3232C62.209 185.313 62.0626 185.531 61.8881 185.726C61.7046 185.938 61.4635 186.113 61.1677 186.254C60.8738 186.393 60.5155 186.463 60.092 186.463H60.0929ZM60.7835 184.728C61.135 184.728 61.4318 184.633 61.6739 184.442C61.9188 184.248 62.1061 183.976 62.2367 183.629C62.3693 183.281 62.4355 182.874 62.4355 182.406C62.4355 181.939 62.3712 181.533 62.2415 181.188C62.1119 180.844 61.9246 180.578 61.6787 180.39C61.4328 180.203 61.135 180.108 60.7835 180.108C60.4252 180.108 60.1237 180.206 59.8778 180.4C59.6319 180.595 59.4455 180.864 59.3207 181.209C59.1876 181.594 59.1232 181.999 59.1305 182.406C59.1305 182.863 59.1939 183.268 59.3197 183.619C59.4494 183.967 59.6357 184.24 59.8778 184.437C60.1237 184.631 60.4252 184.728 60.7835 184.728V184.728ZM71.3959 182.989V178.477H73.5753V186.335H71.4824V184.908H71.4007C71.2291 185.361 70.9197 185.75 70.5161 186.018C70.106 186.298 69.6066 186.438 69.0168 186.438C68.4914 186.438 68.0294 186.318 67.6299 186.08C67.2273 185.837 66.9027 185.483 66.6944 185.062C66.4725 184.622 66.3591 184.095 66.3563 183.481V178.477H68.5366V183.092C68.5395 183.556 68.6634 183.923 68.9092 184.192C69.1551 184.461 69.4836 184.596 69.8966 184.596C70.1588 184.596 70.4057 184.536 70.6333 184.416C70.8646 184.291 71.0559 184.103 71.1856 183.875C71.3297 183.635 71.3988 183.341 71.3959 182.989V182.989ZM78.8685 186.489C78.0646 186.489 77.3721 186.318 76.792 185.977C76.2202 185.637 75.7584 185.14 75.4617 184.545C75.1543 183.934 75.0007 183.231 75.0007 182.437C75.0007 181.632 75.1563 180.926 75.4675 180.319C75.7658 179.724 76.2294 179.229 76.8025 178.892C77.3788 178.547 78.0646 178.375 78.8589 178.375C79.5447 178.375 80.145 178.499 80.6599 178.747C81.1747 178.997 81.5819 179.347 81.8826 179.796C82.1832 180.247 82.3484 180.776 82.3791 181.383H80.3218C80.2641 180.99 80.1105 180.675 79.8617 180.436C79.6158 180.194 79.294 180.073 78.8945 180.073C78.5774 180.067 78.2669 180.164 78.0099 180.35C77.7601 180.53 77.5661 180.794 77.4269 181.142C77.2866 181.491 77.2165 181.911 77.2165 182.406C77.2165 182.907 77.2847 183.334 77.4211 183.685C77.5613 184.037 77.7573 184.304 78.0099 184.488C78.2625 184.673 78.5573 184.765 78.8945 184.765C79.1442 184.765 79.367 184.713 79.5649 184.611C79.7666 184.508 79.9318 184.361 80.0615 184.166C80.194 183.969 80.2814 183.731 80.3227 183.455H82.3782C82.3446 184.055 82.1813 184.583 81.8883 185.041C81.5983 185.495 81.1968 185.849 80.6858 186.105C80.1738 186.361 79.5687 186.489 78.8695 186.489H78.8685ZM83.7747 186.335V178.477H85.9541V186.335H83.7738H83.7747ZM84.8697 177.463C84.545 177.463 84.2675 177.357 84.035 177.142C83.9261 177.043 83.8393 176.922 83.7804 176.787C83.7215 176.652 83.6917 176.506 83.6931 176.359C83.6931 176.058 83.8064 175.801 84.035 175.587C84.2588 175.371 84.559 175.253 84.8697 175.259C85.1934 175.259 85.47 175.368 85.6986 175.587C85.9301 175.801 86.0463 176.058 86.0463 176.359C86.0463 176.662 85.9301 176.924 85.6986 177.142C85.4757 177.354 85.1777 177.47 84.8697 177.463V177.463ZM89.8796 181.792V186.335H87.6993V178.477H89.7768V179.864H89.869C90.0429 179.406 90.3349 179.044 90.744 178.778C91.1532 178.509 91.6498 178.375 92.2328 178.375C92.7783 178.375 93.2547 178.494 93.6601 178.733C94.0664 178.971 94.3814 179.312 94.6071 179.756C94.8319 180.196 94.9442 180.721 94.9442 181.331V186.335H92.7649V181.72C92.7687 181.24 92.6458 180.864 92.397 180.594C92.1473 180.322 91.8044 180.185 91.3683 180.185C91.0754 180.185 90.8161 180.249 90.5904 180.375C90.3662 180.504 90.1849 180.696 90.0688 180.928C89.9459 181.166 89.8825 181.454 89.8796 181.792V181.792ZM100.203 189.446C99.497 189.446 98.8909 189.348 98.3866 189.154C97.8853 188.963 97.4857 188.702 97.1889 188.372C96.9009 188.058 96.7014 187.673 96.6107 187.256L98.6277 186.985C98.6882 187.142 98.7852 187.289 98.9187 187.425C99.0513 187.562 99.2271 187.67 99.4451 187.752C99.667 187.838 99.9369 187.881 100.254 187.881C100.728 187.881 101.118 187.765 101.426 187.532C101.736 187.304 101.891 186.92 101.891 186.381V184.944H101.799C101.686 185.194 101.525 185.42 101.325 185.608C101.125 185.795 100.889 185.942 100.632 186.039C100.333 186.161 99.9743 186.223 99.5584 186.223C98.9947 186.23 98.439 186.089 97.9467 185.814C97.4655 185.537 97.0823 185.116 96.7951 184.55C96.5118 183.98 96.3706 183.261 96.3706 182.391C96.3706 181.5 96.5156 180.757 96.8057 180.16C97.0957 179.563 97.4809 179.116 97.9621 178.82C98.44 178.525 98.9912 178.371 99.5527 178.375C99.9926 178.375 100.361 178.45 100.657 178.6C100.955 178.747 101.193 178.93 101.375 179.152C101.558 179.371 101.7 179.585 101.799 179.796H101.881V178.477H104.045V186.412C104.045 187.081 103.882 187.64 103.554 188.09C103.227 188.541 102.773 188.878 102.193 189.103C101.617 189.332 100.953 189.446 100.203 189.446V189.446ZM100.249 184.585C100.6 184.585 100.896 184.499 101.139 184.325C101.384 184.147 101.572 183.895 101.701 183.567C101.835 183.237 101.901 182.841 101.901 182.38C101.901 181.92 101.837 181.521 101.707 181.183C101.577 180.842 101.39 180.578 101.144 180.39C100.898 180.203 100.6 180.108 100.249 180.108C99.8908 180.108 99.5892 180.206 99.3433 180.4C99.0974 180.592 98.9111 180.858 98.7862 181.199C98.6533 181.578 98.5889 181.978 98.596 182.38C98.596 182.834 98.6594 183.226 98.7852 183.558C98.9149 183.885 99.1012 184.139 99.3423 184.319C99.5892 184.497 99.8898 184.585 100.249 184.585V184.585ZM113.294 178.477V180.114H108.561V178.477H113.294ZM109.635 176.594H111.815V183.921C111.815 184.121 111.846 184.279 111.907 184.391C111.964 184.495 112.054 184.577 112.163 184.622C112.276 184.666 112.405 184.688 112.552 184.688C112.655 184.688 112.757 184.679 112.859 184.662L113.095 184.616L113.437 186.238C113.285 186.283 113.132 186.322 112.976 186.356C112.779 186.404 112.538 186.432 112.256 186.443C111.73 186.463 111.27 186.393 110.873 186.233C110.497 186.086 110.177 185.825 109.958 185.486C109.74 185.148 109.632 184.722 109.636 184.207V176.594H109.635ZM117.062 181.792V186.335H114.882V175.857H117.001V179.864H117.093C117.27 179.4 117.557 179.037 117.952 178.773C118.348 178.507 118.845 178.375 119.442 178.375C119.987 178.375 120.463 178.494 120.869 178.733C121.278 178.968 121.595 179.307 121.82 179.751C122.048 180.191 122.162 180.717 122.158 181.331V186.335H119.978V181.72C119.981 181.236 119.859 180.86 119.61 180.59C119.365 180.321 119.02 180.185 118.576 180.185C118.279 180.185 118.017 180.249 117.789 180.375C117.561 180.504 117.376 180.696 117.256 180.928C117.131 181.166 117.065 181.454 117.062 181.792V181.792ZM127.454 186.489C126.646 186.489 125.95 186.325 125.367 185.997C124.792 185.672 124.326 185.185 124.027 184.596C123.713 183.989 123.556 183.27 123.556 182.442C123.556 181.634 123.713 180.924 124.027 180.313C124.323 179.721 124.783 179.226 125.351 178.886C125.925 178.545 126.596 178.375 127.367 178.375C127.886 178.375 128.368 178.458 128.815 178.626C129.265 178.789 129.658 179.037 129.992 179.367C130.33 179.697 130.593 180.114 130.78 180.616C130.967 181.113 131.061 181.696 131.061 182.365V182.964H124.425V181.613H129.01C129.015 181.322 128.945 181.034 128.805 180.779C128.673 180.54 128.476 180.344 128.237 180.211C127.983 180.067 127.695 179.995 127.403 180.002C127.073 180.002 126.779 180.078 126.523 180.231C126.274 180.378 126.069 180.588 125.93 180.84C125.785 181.098 125.71 181.389 125.71 181.685V182.969C125.71 183.358 125.782 183.694 125.925 183.976C126.071 184.26 126.277 184.478 126.543 184.631C126.809 184.785 127.125 184.862 127.49 184.862C127.732 184.862 127.954 184.827 128.155 184.759C128.357 184.691 128.529 184.589 128.672 184.453C128.818 184.313 128.93 184.141 128.999 183.951L131.015 184.084C130.92 184.555 130.703 184.992 130.386 185.353C130.072 185.711 129.666 185.991 129.168 186.192C128.674 186.39 128.102 186.489 127.454 186.489V186.489ZM135.859 186.335V175.857H140.055C140.825 175.857 141.468 175.972 141.983 176.2C142.498 176.429 142.885 176.746 143.144 177.152C143.404 177.555 143.533 178.018 143.533 178.543C143.533 178.953 143.452 179.312 143.288 179.622C143.124 179.93 142.899 180.182 142.612 180.38C142.318 180.579 141.988 180.72 141.64 180.794V180.897C142.045 180.916 142.438 181.037 142.784 181.249C143.129 181.461 143.415 181.757 143.615 182.109C143.833 182.481 143.943 182.925 143.943 183.439C143.951 183.965 143.807 184.482 143.529 184.928C143.256 185.361 142.851 185.704 142.316 185.957C141.781 186.21 141.121 186.335 140.336 186.335H135.859V186.335ZM138.074 184.524H139.881C140.497 184.524 140.948 184.407 141.231 184.171C141.514 183.932 141.656 183.615 141.656 183.22C141.661 182.949 141.588 182.683 141.446 182.452C141.3 182.225 141.092 182.044 140.847 181.931C140.591 181.804 140.286 181.741 139.932 181.741H138.074V184.524V184.524ZM138.074 180.242H139.716C140.02 180.242 140.29 180.189 140.525 180.084C140.763 179.974 140.952 179.82 141.088 179.622C141.227 179.425 141.297 179.188 141.297 178.912C141.297 178.533 141.163 178.228 140.893 177.995C140.627 177.764 140.249 177.648 139.758 177.648H138.074V180.242V180.242ZM147.522 175.857V186.335H145.343V175.857H147.522V175.857ZM152.819 186.489C152.025 186.489 151.337 186.32 150.757 185.982C150.185 185.646 149.722 185.152 149.422 184.56C149.108 183.949 148.952 183.242 148.952 182.437C148.952 181.625 149.108 180.915 149.422 180.308C149.72 179.715 150.184 179.221 150.757 178.886C151.337 178.545 152.025 178.375 152.819 178.375C153.614 178.375 154.3 178.545 154.876 178.886C155.452 179.219 155.918 179.714 156.217 180.308C156.531 180.915 156.687 181.625 156.687 182.437C156.687 183.242 156.531 183.949 156.217 184.56C155.916 185.153 155.45 185.647 154.876 185.982C154.3 186.32 153.614 186.489 152.819 186.489ZM152.83 184.8C153.191 184.8 153.493 184.698 153.735 184.493C153.978 184.286 154.16 184.002 154.282 183.644C154.409 183.286 154.471 182.879 154.471 182.421C154.471 181.964 154.409 181.557 154.282 181.199C154.16 180.84 153.978 180.557 153.735 180.35C153.493 180.141 153.191 180.037 152.83 180.037C152.465 180.037 152.158 180.141 151.909 180.35C151.663 180.557 151.478 180.84 151.351 181.199C151.222 181.593 151.16 182.006 151.166 182.421C151.166 182.879 151.228 183.286 151.351 183.644C151.478 184.002 151.663 184.286 151.909 184.493C152.158 184.698 152.465 184.8 152.83 184.8ZM161.655 186.489C160.85 186.489 160.158 186.318 159.578 185.977C159.006 185.638 158.545 185.14 158.248 184.545C157.941 183.934 157.787 183.231 157.787 182.437C157.787 181.632 157.943 180.926 158.253 180.319C158.551 179.725 159.015 179.229 159.588 178.892C160.164 178.547 160.85 178.375 161.645 178.375C162.33 178.375 162.931 178.499 163.446 178.747C163.961 178.997 164.368 179.347 164.669 179.796C164.969 180.247 165.134 180.776 165.165 181.383H163.108C163.051 180.99 162.897 180.675 162.648 180.436C162.402 180.194 162.08 180.073 161.681 180.073C161.343 180.073 161.048 180.165 160.795 180.35C160.547 180.53 160.353 180.794 160.212 181.142C160.072 181.491 160.003 181.911 160.003 182.406C160.003 182.907 160.071 183.334 160.208 183.685C160.347 184.037 160.543 184.304 160.795 184.488C161.048 184.673 161.343 184.765 161.681 184.765C161.93 184.765 162.153 184.713 162.351 184.611C162.553 184.508 162.723 184.355 162.847 184.166C162.98 183.969 163.067 183.731 163.108 183.455H165.165C165.131 184.055 164.967 184.583 164.674 185.041C164.379 185.499 163.963 185.868 163.471 186.105C162.959 186.361 162.354 186.489 161.655 186.489V186.489ZM168.535 184.074L168.541 181.46H168.858L171.375 178.477H173.876L170.494 182.426H169.978L168.535 184.074V184.074ZM166.56 186.335V175.857H168.74V186.335H166.56ZM171.472 186.335L169.159 182.912L170.612 181.372L174.025 186.335H171.472V186.335ZM178.321 186.335V175.857H182.455C183.25 175.857 183.927 176.009 184.487 176.313C185.028 176.594 185.473 177.031 185.765 177.566C186.062 178.098 186.211 178.712 186.211 179.408C186.211 180.104 186.06 180.717 185.76 181.25C185.458 181.784 185.004 182.217 184.456 182.493C183.889 182.79 183.204 182.938 182.399 182.938H179.764V181.163H182.04C182.467 181.163 182.818 181.089 183.095 180.943C183.375 180.792 183.583 180.587 183.719 180.324C183.859 180.058 183.929 179.752 183.929 179.408C183.929 179.06 183.859 178.756 183.719 178.497C183.581 178.233 183.362 178.02 183.095 177.889C182.815 177.742 182.46 177.669 182.031 177.669H180.536V186.335H178.321ZM187.608 186.335V178.477H189.721V179.848H189.803C189.947 179.36 190.187 178.991 190.524 178.743C190.861 178.491 191.271 178.358 191.691 178.364C191.801 178.364 191.918 178.371 192.044 178.384C192.171 178.399 192.281 178.417 192.377 178.441V180.375C192.238 180.337 192.096 180.309 191.953 180.293C191.788 180.27 191.622 180.258 191.456 180.257C191.135 180.257 190.849 180.327 190.596 180.467C190.35 180.601 190.145 180.799 190.003 181.04C189.86 181.286 189.788 181.568 189.788 181.889V186.335H187.608ZM196.689 186.489C195.894 186.489 195.207 186.32 194.627 185.982C194.055 185.646 193.591 185.152 193.292 184.56C192.977 183.949 192.821 183.242 192.821 182.437C192.821 181.625 192.977 180.915 193.292 180.308C193.589 179.715 194.053 179.221 194.627 178.886C195.207 178.545 195.894 178.375 196.689 178.375C197.483 178.375 198.169 178.545 198.745 178.886C199.321 179.219 199.787 179.714 200.086 180.308C200.399 180.915 200.557 181.625 200.557 182.437C200.557 183.242 200.399 183.949 200.086 184.56C199.785 185.153 199.32 185.647 198.745 185.982C198.169 186.32 197.483 186.489 196.689 186.489ZM196.698 184.8C197.06 184.8 197.362 184.698 197.604 184.493C197.846 184.286 198.029 184.002 198.152 183.644C198.278 183.286 198.341 182.879 198.341 182.421C198.341 181.964 198.278 181.557 198.152 181.199C198.029 180.84 197.846 180.557 197.604 180.35C197.362 180.141 197.06 180.037 196.698 180.037C196.333 180.037 196.027 180.141 195.778 180.35C195.532 180.557 195.346 180.84 195.22 181.199C195.092 181.593 195.029 182.006 195.036 182.421C195.036 182.879 195.097 183.286 195.22 183.644C195.346 184.002 195.532 184.286 195.778 184.493C196.027 184.698 196.333 184.8 196.698 184.8ZM206.153 178.477V180.114H201.421V178.477H206.153ZM202.496 176.594H204.675V183.921C204.675 184.121 204.706 184.279 204.767 184.391C204.824 184.495 204.914 184.577 205.023 184.622C205.135 184.666 205.265 184.688 205.412 184.688C205.514 184.688 205.617 184.679 205.718 184.662L205.954 184.616L206.297 186.238C206.145 186.283 205.991 186.322 205.836 186.356C205.639 186.404 205.398 186.432 205.115 186.443C204.59 186.463 204.13 186.393 203.734 186.233C203.358 186.086 203.037 185.825 202.818 185.486C202.6 185.148 202.492 184.722 202.496 184.207V176.594V176.594ZM211.039 186.489C210.245 186.489 209.557 186.32 208.978 185.982C208.406 185.646 207.942 185.152 207.642 184.56C207.329 183.949 207.172 183.242 207.172 182.437C207.172 181.625 207.329 180.915 207.642 180.308C207.94 179.715 208.404 179.22 208.978 178.886C209.557 178.545 210.245 178.375 211.039 178.375C211.835 178.375 212.52 178.545 213.097 178.886C213.672 179.22 214.138 179.714 214.437 180.308C214.751 180.915 214.907 181.625 214.907 182.437C214.907 183.242 214.751 183.949 214.437 184.56C214.136 185.153 213.671 185.647 213.097 185.982C212.52 186.32 211.835 186.489 211.039 186.489ZM211.05 184.8C211.411 184.8 211.714 184.698 211.956 184.493C212.198 184.286 212.38 184.002 212.503 183.644C212.629 183.286 212.692 182.879 212.692 182.421C212.692 181.964 212.629 181.557 212.503 181.199C212.38 180.84 212.198 180.557 211.956 180.35C211.714 180.141 211.411 180.037 211.05 180.037C210.685 180.037 210.378 180.141 210.129 180.35C209.883 180.557 209.698 180.84 209.571 181.199C209.443 181.593 209.381 182.006 209.387 182.421C209.387 182.879 209.449 183.286 209.571 183.644C209.698 184.002 209.883 184.286 210.129 184.493C210.378 184.698 210.685 184.8 211.05 184.8ZM219.875 186.489C219.07 186.489 218.378 186.318 217.798 185.977C217.227 185.637 216.765 185.14 216.468 184.545C216.161 183.934 216.007 183.231 216.007 182.437C216.007 181.632 216.163 180.926 216.473 180.319C216.771 179.725 217.235 179.229 217.808 178.892C218.385 178.547 219.07 178.375 219.865 178.375C220.551 178.375 221.151 178.499 221.666 178.747C222.181 178.997 222.588 179.347 222.889 179.796C223.189 180.247 223.355 180.776 223.386 181.383H221.328C221.271 180.99 221.117 180.675 220.868 180.436C220.622 180.194 220.3 180.073 219.901 180.073C219.563 180.073 219.268 180.165 219.016 180.35C218.767 180.53 218.573 180.794 218.432 181.142C218.293 181.491 218.223 181.911 218.223 182.406C218.223 182.907 218.291 183.334 218.428 183.685C218.568 184.037 218.764 184.304 219.016 184.488C219.268 184.673 219.563 184.765 219.901 184.765C220.15 184.765 220.373 184.713 220.571 184.611C220.772 184.508 220.938 184.361 221.068 184.166C221.2 183.969 221.288 183.731 221.328 183.455H223.386C223.351 184.055 223.188 184.583 222.894 185.041C222.599 185.499 222.183 185.868 221.691 186.105C221.18 186.361 220.574 186.489 219.875 186.489V186.489ZM228.331 186.489C227.537 186.489 226.849 186.32 226.269 185.982C225.697 185.646 225.234 185.152 224.934 184.56C224.62 183.949 224.463 183.242 224.463 182.437C224.463 181.625 224.62 180.915 224.934 180.308C225.232 179.715 225.696 179.221 226.269 178.886C226.849 178.545 227.537 178.375 228.331 178.375C229.126 178.375 229.811 178.545 230.388 178.886C230.963 179.219 231.429 179.714 231.728 180.308C232.042 180.915 232.199 181.625 232.199 182.437C232.199 183.242 232.042 183.949 231.728 184.56C231.428 185.153 230.962 185.647 230.388 185.982C229.811 186.32 229.126 186.489 228.331 186.489ZM228.342 184.8C228.703 184.8 229.004 184.698 229.247 184.493C229.489 184.286 229.672 184.002 229.795 183.644C229.921 183.286 229.984 182.879 229.984 182.421C229.984 181.964 229.921 181.557 229.795 181.199C229.672 180.84 229.489 180.557 229.247 180.35C229.004 180.141 228.703 180.037 228.342 180.037C227.977 180.037 227.669 180.141 227.421 180.35C227.175 180.557 226.989 180.84 226.863 181.199C226.734 181.593 226.672 182.006 226.679 182.421C226.679 182.879 226.74 183.286 226.863 183.644C226.989 184.002 227.175 184.286 227.421 184.493C227.669 184.698 227.977 184.8 228.342 184.8ZM235.796 175.857V186.335H233.617V175.857H235.796V175.857Z" fill="#4D5C6C"/>
<path d="M29.7209 208.975C28.8046 208.975 27.992 208.85 27.2822 208.598C26.5753 208.349 25.9798 207.983 25.4957 207.498C24.9991 206.998 24.6215 206.392 24.3912 205.725C24.1395 205.024 24.0146 204.225 24.0146 203.326C24.0146 202.451 24.1414 201.664 24.396 200.967C24.6316 200.299 25.0098 199.691 25.5044 199.184C26.0067 198.682 26.6137 198.296 27.2822 198.054C27.9795 197.794 28.7719 197.664 29.6585 197.664C30.5076 197.664 31.2548 197.797 31.9022 198.063C32.5495 198.329 33.0932 198.694 33.535 199.158C33.9768 199.622 34.312 200.154 34.5368 200.754C34.7606 201.354 34.873 201.988 34.873 202.657C34.873 203.123 34.8442 203.581 34.7846 204.026C34.7331 204.442 34.6225 204.848 34.4561 205.233C34.2996 205.59 34.0719 205.877 33.7742 206.093C33.4783 206.305 33.0941 206.417 32.6216 206.426C32.3742 206.435 32.1269 206.405 31.8887 206.337C31.6652 206.276 31.4591 206.163 31.2865 206.009C31.1209 205.855 31.0142 205.648 30.9849 205.424H30.9311C30.86 205.598 30.7419 205.76 30.5767 205.911C30.391 206.07 30.1755 206.191 29.9428 206.266C29.6563 206.356 29.3558 206.392 29.0563 206.373C28.7062 206.363 28.3625 206.276 28.0497 206.119C27.7504 205.965 27.4884 205.747 27.2822 205.481C27.0635 205.191 26.8997 204.863 26.7991 204.514C26.6823 204.111 26.6254 203.693 26.6301 203.273C26.6301 202.835 26.6944 202.443 26.8212 202.098C26.948 201.749 27.1209 201.449 27.3399 201.198C27.5533 200.95 27.8121 200.745 28.1025 200.594C28.3861 200.447 28.6939 200.353 29.0111 200.315C29.3223 200.279 29.6066 200.289 29.8669 200.342C30.1272 200.395 30.3433 200.476 30.5143 200.586C30.6891 200.695 30.7986 200.815 30.8428 200.945H30.9004V200.448H31.9915V204.563C31.9915 204.797 32.052 204.994 32.173 205.158C32.2979 205.32 32.4727 205.401 32.7013 205.401C32.9702 205.401 33.1796 205.302 33.3304 205.104C33.4841 204.906 33.5917 204.602 33.6541 204.19C33.7194 203.779 33.7511 203.254 33.7511 202.612C33.7511 202.163 33.6906 201.74 33.5696 201.344C33.3433 200.564 32.8564 199.887 32.1903 199.424C31.8542 199.19 31.47 199.011 31.0377 198.883C30.5749 198.751 30.0955 198.687 29.6143 198.693C28.9083 198.693 28.2792 198.802 27.7298 199.02C27.2006 199.222 26.7244 199.542 26.3371 199.956C25.9625 200.364 25.6773 200.854 25.4823 201.424C25.2902 201.991 25.1941 202.629 25.1941 203.335C25.1941 204.071 25.2931 204.725 25.4909 205.295C25.6888 205.863 25.9808 206.341 26.3688 206.731C26.7559 207.122 27.2352 207.417 27.8057 207.618C28.3762 207.822 29.0332 207.924 29.7785 207.924C30.1099 207.924 30.4346 207.894 30.7544 207.836C31.0733 207.779 31.3576 207.715 31.6054 207.641C31.857 207.569 32.0443 207.512 32.1682 207.468L32.4785 208.439C32.296 208.524 32.052 208.609 31.7475 208.691C31.4237 208.779 31.095 208.847 30.763 208.895C30.4182 208.948 30.0698 208.975 29.7209 208.975V208.975ZM29.3127 205.285C29.6969 205.285 30.0062 205.209 30.2396 205.055C30.4759 204.901 30.6459 204.673 30.7496 204.368C30.8552 204.061 30.909 203.677 30.909 203.216C30.9062 202.766 30.8485 202.408 30.7361 202.142C30.6437 201.892 30.4601 201.686 30.2223 201.565C29.9918 201.447 29.694 201.389 29.331 201.389C28.9967 201.389 28.7114 201.469 28.4752 201.632C28.2418 201.795 28.0621 202.015 27.9382 202.293C27.8172 202.571 27.7558 202.879 27.7519 203.219C27.7548 203.578 27.8057 203.914 27.9027 204.231C28.0036 204.544 28.1659 204.798 28.3906 204.993C28.6183 205.188 28.9256 205.285 29.3127 205.285ZM36.4443 206.505V197.424H37.7698V200.799H37.8495C37.9264 200.657 38.0378 200.493 38.1819 200.306C38.3269 200.12 38.5276 199.958 38.785 199.818C39.0424 199.677 39.3825 199.606 39.8051 199.606C40.3554 199.606 40.8453 199.744 41.2775 200.023C41.7097 200.3 42.0469 200.701 42.2927 201.224C42.5405 201.748 42.6654 202.377 42.6654 203.113C42.6654 203.85 42.5425 204.481 42.2966 205.007C42.0517 205.529 41.7145 205.933 41.2862 206.217C40.8495 206.5 40.3386 206.646 39.8185 206.638C39.4046 206.638 39.0665 206.569 38.8033 206.43C38.5681 206.311 38.3598 206.145 38.1915 205.942C38.0643 205.786 37.95 205.62 37.8495 205.446H37.7391V206.505H36.4443ZM37.7429 203.1C37.7429 203.579 37.813 203.998 37.9513 204.36C38.0906 204.72 38.2913 205.002 38.5545 205.206C38.8177 205.407 39.1404 205.507 39.5217 205.507C39.9175 205.507 40.2488 205.403 40.5149 205.193C40.7809 204.98 40.9817 204.692 41.1171 204.328C41.2564 203.965 41.3265 203.556 41.3265 203.1C41.3265 202.651 41.2583 202.247 41.1219 201.889C41.0056 201.555 40.7963 201.261 40.5187 201.042C40.2527 200.835 39.9203 200.732 39.5217 200.732C39.1375 200.732 38.8119 200.831 38.5459 201.029C38.2715 201.243 38.0639 201.531 37.9475 201.858C37.8111 202.213 37.7429 202.627 37.7429 203.1ZM45.4796 197.424V206.505H44.1542V197.424H45.4796V197.424ZM50.1322 206.643C49.4935 206.643 48.9364 206.497 48.461 206.204C47.982 205.908 47.5971 205.482 47.3516 204.975C47.0885 204.449 46.9578 203.834 46.9578 203.131C46.9578 202.424 47.0885 201.807 47.3516 201.277C47.5957 200.769 47.9803 200.341 48.46 200.045C48.9364 199.752 49.4935 199.606 50.1313 199.606C50.771 199.606 51.3281 199.752 51.8035 200.045C52.2799 200.337 52.6487 200.748 52.9119 201.277C53.1751 201.807 53.3067 202.424 53.3067 203.131C53.3067 203.834 53.1751 204.449 52.9129 204.975C52.6673 205.482 52.2825 205.908 51.8035 206.204C51.3281 206.497 50.771 206.643 50.1322 206.643ZM50.1361 205.529C50.5501 205.529 50.893 205.421 51.1657 205.202C51.4376 204.983 51.6383 204.692 51.768 204.328C51.9015 203.965 51.9677 203.564 51.9677 203.126C51.9722 202.719 51.9046 202.314 51.768 201.929C51.6531 201.585 51.4441 201.279 51.1648 201.047C50.893 200.825 50.5501 200.714 50.1371 200.714C49.7202 200.714 49.3735 200.825 49.0997 201.047C48.8198 201.28 48.6095 201.585 48.4917 201.929C48.3582 202.314 48.2922 202.719 48.2968 203.126C48.2968 203.564 48.3611 203.965 48.4917 204.328C48.6243 204.692 48.8269 204.983 49.0988 205.202C49.3735 205.421 49.7192 205.529 50.1361 205.529V205.529ZM57.6558 206.643C56.9959 206.643 56.4292 206.494 55.9528 206.195C55.4781 205.892 55.0997 205.46 54.8617 204.949C54.6081 204.42 54.4804 203.814 54.4804 203.131C54.4804 202.44 54.611 201.829 54.8713 201.299C55.1306 200.767 55.4975 200.352 55.9711 200.054C56.4436 199.755 57.0007 199.606 57.6423 199.606C58.16 199.606 58.621 199.702 59.0254 199.894C59.4307 200.083 59.7573 200.349 60.0051 200.692C60.2568 201.035 60.4066 201.436 60.4537 201.894H59.1628C59.092 201.574 58.9215 201.285 58.6758 201.069C58.4241 200.838 58.087 200.723 57.6644 200.723C57.2946 200.723 56.9709 200.821 56.6943 201.016C56.4186 201.208 56.2045 201.483 56.0508 201.84C55.8971 202.196 55.8203 202.615 55.8203 203.1C55.8203 203.597 55.8952 204.025 56.046 204.385C56.1968 204.747 56.41 205.026 56.6847 205.224C56.9632 205.422 57.2898 205.521 57.6644 205.521C57.916 205.521 58.1437 205.475 58.3473 205.383C58.5538 205.289 58.7267 205.155 58.866 204.98C59.0081 204.805 59.1071 204.596 59.1637 204.35H60.4537C60.4056 204.791 60.2625 205.184 60.0234 205.529C59.7832 205.875 59.4634 206.148 59.0609 206.346C58.6623 206.544 58.1936 206.643 57.6558 206.643V206.643ZM63.0902 204.195L63.0816 202.577H63.3121L66.0264 199.694H67.6131L64.5184 202.975H64.31L63.0902 204.195ZM61.8713 206.505V197.424H63.1968V206.505H61.8713ZM66.1724 206.505L63.7328 203.268L64.6472 202.342L67.7995 206.505H66.1724V206.505ZM70.1479 197.424V206.505H68.8224V197.424H70.1479ZM74.7995 206.643C74.1618 206.643 73.6047 206.497 73.1283 206.204C72.6496 205.908 72.2651 205.482 72.0199 204.975C71.7567 204.449 71.6251 203.834 71.6251 203.131C71.6251 202.424 71.7567 201.807 72.0189 201.277C72.2632 200.769 72.6482 200.341 73.1283 200.045C73.6037 199.752 74.1618 199.606 74.7995 199.606C75.4382 199.606 75.9953 199.752 76.4708 200.045C76.9472 200.337 77.317 200.748 77.5801 201.277C77.8433 201.807 77.9739 202.424 77.9739 203.131C77.9739 203.834 77.8433 204.449 77.5801 204.975C77.3349 205.482 76.9504 205.908 76.4717 206.204C75.9953 206.497 75.4382 206.643 74.8005 206.643H74.7995ZM74.8043 205.529C75.2173 205.529 75.5612 205.421 75.833 205.202C76.1048 204.983 76.3056 204.692 76.4362 204.328C76.5687 203.965 76.636 203.564 76.636 203.126C76.6404 202.719 76.5728 202.314 76.4362 201.929C76.3213 201.585 76.1124 201.279 75.833 201.047C75.5612 200.825 75.2183 200.714 74.8053 200.714C74.3875 200.714 74.0417 200.825 73.767 201.047C73.4871 201.28 73.2767 201.585 73.159 201.929C73.0254 202.314 72.9595 202.719 72.964 203.126C72.964 203.564 73.0293 203.965 73.159 204.328C73.2925 204.692 73.4952 204.983 73.767 205.202C74.0417 205.421 74.3875 205.529 74.8043 205.529V205.529ZM85.0489 199.694L82.5804 206.505H81.1608L78.6866 199.694H80.1101L81.8341 204.936H81.9052L83.6254 199.694H85.0489V199.694ZM88.9994 206.643C88.327 206.643 87.7507 206.499 87.2647 206.212C86.7824 205.923 86.3944 205.499 86.1477 204.993C85.8883 204.467 85.7577 203.85 85.7577 203.145C85.7577 202.446 85.8874 201.832 86.1477 201.299C86.391 200.79 86.7719 200.358 87.2474 200.054C87.72 199.755 88.2732 199.606 88.9062 199.606C89.2904 199.606 89.6631 199.669 90.0233 199.796C90.3834 199.924 90.7071 200.123 90.9943 200.395C91.2815 200.667 91.5072 201.02 91.6724 201.455C91.8386 201.886 91.9212 202.411 91.9212 203.029V203.499H86.5069V202.506H90.6216C90.6216 202.157 90.5506 201.848 90.4094 201.579C90.2731 201.313 90.0656 201.091 89.81 200.936C89.5397 200.775 89.2294 200.694 88.9149 200.701C88.5694 200.693 88.2295 200.789 87.939 200.976C87.6675 201.152 87.4472 201.397 87.3003 201.686C87.152 201.978 87.0763 202.302 87.0794 202.63V203.406C87.0794 203.861 87.1591 204.248 87.3185 204.568C87.4818 204.887 87.7075 205.131 87.9966 205.299C88.2867 205.465 88.6248 205.548 89.0119 205.548C89.2635 205.548 89.4921 205.512 89.6996 205.441C89.9023 205.373 90.0869 205.259 90.2397 205.11C90.3926 204.96 90.5097 204.778 90.5823 204.577L91.8367 204.802C91.7397 205.166 91.5539 205.5 91.2959 205.773C91.0385 206.049 90.7148 206.263 90.3249 206.417C89.9009 206.574 89.4514 206.65 88.9994 206.643V206.643ZM93.3917 206.505V199.694H94.6739V200.777H94.7441C94.8689 200.41 95.0869 200.122 95.401 199.911C95.7181 199.699 96.0922 199.588 96.4739 199.593C96.6619 199.594 96.8497 199.604 97.0367 199.623V200.892C96.9435 200.87 96.8488 200.853 96.7534 200.843C96.6184 200.822 96.4819 200.812 96.3452 200.811C96.0321 200.811 95.7526 200.879 95.5067 201.011C95.2651 201.14 95.0637 201.332 94.9246 201.568C94.7855 201.803 94.714 202.073 94.7181 202.346V206.505H93.3927H93.3917ZM103.905 203.916C103.548 203.916 103.221 203.828 102.925 203.655C102.633 203.481 102.389 203.237 102.216 202.945C102.041 202.648 101.951 202.309 101.954 201.965C101.954 201.604 102.041 201.277 102.216 200.984C102.393 200.689 102.63 200.454 102.925 200.279C103.221 200.102 103.56 200.01 103.905 200.013C104.266 200.013 104.593 200.103 104.885 200.279C105.181 200.454 105.416 200.689 105.59 200.984C105.768 201.277 105.856 201.604 105.856 201.965C105.856 202.322 105.768 202.649 105.59 202.945C105.419 203.237 105.176 203.481 104.885 203.655C104.588 203.83 104.25 203.92 103.905 203.916V203.916ZM114.83 197.424V206.505H113.455V198.799H113.402L111.229 200.218V198.905L113.496 197.424H114.83ZM120.608 206.505V199.694H121.881V200.803H121.965C122.107 200.427 122.339 200.135 122.662 199.925C122.983 199.713 123.369 199.606 123.819 199.606C124.274 199.606 124.656 199.713 124.963 199.925C125.273 200.138 125.502 200.43 125.65 200.803H125.721C125.883 200.44 126.154 200.136 126.497 199.934C126.851 199.716 127.274 199.606 127.765 199.606C128.382 199.606 128.887 199.799 129.277 200.187C129.67 200.574 129.866 201.158 129.866 201.938V206.505H128.541V202.062C128.541 201.601 128.415 201.267 128.164 201.06C127.911 200.853 127.592 200.743 127.264 200.75C126.832 200.75 126.497 200.883 126.258 201.149C126.018 201.412 125.898 201.751 125.898 202.164V206.505H124.577V201.978C124.577 201.609 124.462 201.312 124.231 201.087C124.001 200.862 123.7 200.75 123.331 200.75C123.079 200.75 122.848 200.816 122.635 200.95C122.42 201.084 122.245 201.272 122.125 201.494C121.994 201.745 121.929 202.024 121.935 202.306V206.505H120.608V206.505ZM134.512 206.643C133.874 206.643 133.316 206.497 132.841 206.204C132.362 205.908 131.978 205.482 131.732 204.975C131.469 204.449 131.338 203.834 131.338 203.131C131.338 202.424 131.469 201.807 131.732 201.277C131.976 200.769 132.361 200.341 132.841 200.045C133.316 199.752 133.874 199.606 134.512 199.606C135.151 199.606 135.708 199.752 136.184 200.045C136.66 200.337 137.03 200.748 137.293 201.277C137.556 201.807 137.687 202.424 137.687 203.131C137.687 203.834 137.556 204.449 137.293 204.975C137.047 205.482 136.663 205.908 136.184 206.204C135.708 206.497 135.151 206.643 134.512 206.643ZM134.517 205.529C134.931 205.529 135.274 205.421 135.546 205.202C135.817 204.983 136.018 204.692 136.149 204.328C136.281 203.965 136.349 203.564 136.349 203.126C136.349 202.692 136.281 202.293 136.149 201.929C136.034 201.585 135.825 201.279 135.546 201.047C135.274 200.825 134.931 200.714 134.517 200.714C134.1 200.714 133.754 200.825 133.48 201.047C133.2 201.28 132.99 201.585 132.872 201.929C132.738 202.314 132.672 202.719 132.677 203.126C132.677 203.564 132.742 203.965 132.872 204.328C133.005 204.692 133.208 204.983 133.48 205.202C133.754 205.421 134.1 205.529 134.517 205.529ZM140.493 202.462V206.505H139.168V199.694H140.439V200.803H140.524C140.677 200.446 140.934 200.144 141.261 199.934C141.597 199.716 142.021 199.606 142.532 199.606C142.997 199.606 143.403 199.703 143.752 199.898C144.101 200.09 144.372 200.377 144.564 200.759C144.756 201.14 144.852 201.612 144.852 202.173V206.505H143.526V202.333C143.526 201.839 143.398 201.453 143.14 201.176C142.883 200.895 142.529 200.754 142.081 200.754C141.772 200.754 141.5 200.821 141.261 200.954C141.02 201.091 140.824 201.294 140.697 201.54C140.561 201.793 140.493 202.1 140.493 202.462V202.462ZM149.809 199.694V200.759H146.089V199.694H149.809ZM147.087 198.063H148.412V204.506C148.412 204.763 148.451 204.956 148.528 205.087C148.604 205.213 148.703 205.301 148.824 205.348C148.948 205.392 149.084 205.414 149.228 205.414C149.334 205.414 149.428 205.407 149.507 205.392C149.587 205.378 149.649 205.366 149.694 205.357L149.933 206.452C149.656 206.548 149.366 206.595 149.073 206.594C148.738 206.602 148.405 206.539 148.097 206.407C147.8 206.281 147.546 206.072 147.365 205.805C147.18 205.532 147.087 205.191 147.087 204.78V198.063V198.063ZM152.748 202.462V206.505H151.422V197.424H152.73V200.803H152.814C152.974 200.437 153.218 200.145 153.546 199.93C153.874 199.714 154.302 199.606 154.831 199.606C155.299 199.606 155.706 199.702 156.056 199.894C156.407 200.086 156.679 200.373 156.871 200.754C157.066 201.132 157.164 201.606 157.164 202.173V206.505H155.838V202.333C155.838 201.833 155.709 201.446 155.453 201.171C155.195 200.893 154.838 200.754 154.38 200.754C154.066 200.754 153.785 200.821 153.537 200.954C153.29 201.088 153.088 201.292 152.956 201.54C152.817 201.793 152.748 202.1 152.748 202.462V202.462ZM164.22 206.656C163.788 206.656 163.398 206.576 163.049 206.417C162.712 206.264 162.425 206.02 162.22 205.712C162.019 205.405 161.919 205.027 161.919 204.58C161.919 204.196 161.993 203.88 162.141 203.632C162.288 203.384 162.487 203.187 162.739 203.043C162.99 202.898 163.271 202.788 163.581 202.714C163.894 202.64 164.211 202.583 164.53 202.545L165.523 202.43C165.778 202.398 165.962 202.346 166.078 202.275C166.193 202.204 166.251 202.089 166.251 201.929V201.898C166.251 201.511 166.141 201.211 165.922 200.998C165.707 200.786 165.384 200.679 164.956 200.679C164.509 200.679 164.158 200.778 163.9 200.976C163.647 201.171 163.47 201.389 163.373 201.628L162.127 201.344C162.275 200.931 162.49 200.596 162.774 200.342C163.059 200.085 163.396 199.895 163.763 199.783C164.143 199.664 164.54 199.604 164.938 199.606C165.21 199.606 165.498 199.639 165.803 199.703C166.11 199.766 166.397 199.881 166.663 200.049C166.931 200.218 167.152 200.459 167.323 200.772C167.495 201.082 167.581 201.486 167.581 201.982V206.505H166.286V205.575H166.233C166.133 205.763 166.003 205.934 165.847 206.08C165.655 206.258 165.431 206.398 165.186 206.492C164.917 206.601 164.595 206.656 164.22 206.656V206.656ZM164.508 205.592C164.874 205.592 165.188 205.52 165.448 205.375C165.711 205.23 165.91 205.04 166.047 204.807C166.185 204.571 166.255 204.318 166.255 204.048V203.17C166.207 203.218 166.116 203.263 165.98 203.304C165.847 203.342 165.694 203.376 165.523 203.406L165.022 203.482L164.614 203.534C164.374 203.563 164.137 203.618 163.909 203.699C163.699 203.776 163.531 203.886 163.404 204.031C163.28 204.173 163.217 204.362 163.217 204.599C163.217 204.927 163.338 205.175 163.581 205.343C163.823 205.509 164.133 205.592 164.508 205.592V205.592ZM172.202 209.201C171.661 209.201 171.196 209.13 170.805 208.988C170.453 208.868 170.13 208.676 169.856 208.425C169.623 208.209 169.436 207.948 169.307 207.658L170.446 207.188C170.526 207.318 170.632 207.455 170.766 207.6C170.901 207.748 171.085 207.874 171.315 207.978C171.549 208.08 171.849 208.132 172.215 208.132C172.717 208.132 173.133 208.01 173.462 207.764C173.789 207.522 173.954 207.135 173.954 206.603V205.263H173.869C173.77 205.436 173.654 205.598 173.523 205.747C173.353 205.941 173.145 206.098 172.911 206.208C172.651 206.338 172.313 206.403 171.896 206.403C171.358 206.403 170.873 206.278 170.442 206.026C170.013 205.772 169.674 205.398 169.422 204.904C169.173 204.408 169.049 203.798 169.049 203.073C169.049 202.349 169.172 201.729 169.417 201.211C169.666 200.693 170.006 200.298 170.437 200.023C170.869 199.744 171.358 199.606 171.905 199.606C172.328 199.606 172.669 199.677 172.93 199.818C173.189 199.958 173.392 200.12 173.537 200.306C173.685 200.493 173.798 200.657 173.878 200.799H173.976V199.694H175.275V206.656C175.275 207.241 175.139 207.721 174.867 208.097C174.595 208.472 174.227 208.75 173.762 208.93C173.301 209.111 172.782 209.201 172.202 209.201V209.201ZM172.189 205.304C172.571 205.304 172.892 205.215 173.155 205.038C173.422 204.857 173.622 204.6 173.759 204.266C173.897 203.929 173.967 203.526 173.967 203.055C173.967 202.597 173.899 202.194 173.762 201.845C173.645 201.521 173.438 201.238 173.164 201.029C172.901 200.831 172.576 200.732 172.189 200.732C171.79 200.732 171.457 200.835 171.191 201.042C170.917 201.258 170.708 201.547 170.588 201.876C170.451 202.254 170.383 202.653 170.388 203.055C170.388 203.502 170.456 203.894 170.593 204.231C170.728 204.568 170.93 204.831 171.196 205.019C171.465 205.209 171.795 205.304 172.189 205.304V205.304ZM179.922 206.643C179.283 206.643 178.726 206.497 178.25 206.204C177.771 205.908 177.387 205.482 177.141 204.975C176.878 204.449 176.747 203.834 176.747 203.131C176.747 202.424 176.878 201.807 177.141 201.277C177.386 200.769 177.77 200.342 178.25 200.045C178.726 199.752 179.283 199.606 179.922 199.606C180.561 199.606 181.118 199.752 181.593 200.045C182.07 200.337 182.439 200.748 182.702 201.277C182.965 201.807 183.096 202.424 183.096 203.131C183.096 203.834 182.965 204.449 182.702 204.975C182.457 205.482 182.072 205.908 181.593 206.204C181.118 206.497 180.561 206.643 179.922 206.643ZM179.926 205.529C180.34 205.529 180.683 205.421 180.955 205.202C181.227 204.983 181.428 204.692 181.558 204.328C181.695 203.942 181.763 203.535 181.758 203.126C181.758 202.692 181.691 202.293 181.558 201.929C181.443 201.585 181.234 201.279 180.955 201.047C180.683 200.825 180.34 200.714 179.926 200.714C179.509 200.714 179.163 200.825 178.889 201.047C178.609 201.28 178.399 201.585 178.282 201.929C178.148 202.314 178.082 202.719 178.087 203.126C178.087 203.564 178.151 203.965 178.282 204.328C178.414 204.692 178.617 204.983 178.889 205.202C179.163 205.421 179.509 205.529 179.926 205.529Z" fill="#91A5BA"/>
</g>
<defs>
<clipPath id="clip0_638_2467">
<rect width="249.727" height="192.098" fill="white" transform="translate(23.3623 19.21)"/>
</clipPath>
</defs>
</svg>
