<svg width="260" height="200" fill="none" xmlns="http://www.w3.org/2000/svg"><rect x=".5" y=".5" width="259" height="146" rx="3.5" fill="#37434F"/><path d="M157 71.768c1.333.77 1.333 2.694 0 3.464L118 97.75c-1.333.77-3-.193-3-1.732V50.983c0-1.54 1.667-2.502 3-1.732l39 22.517Z" fill="#F2F5FA"/><path d="M218.201 134.157c-.729-.003-1.353-.195-1.87-.577-.517-.382-.912-.937-1.186-1.667-.274-.729-.411-1.608-.411-2.636 0-1.025.137-1.9.411-2.626.277-.727.674-1.281 1.191-1.662.52-.382 1.142-.573 1.865-.573.723 0 1.343.193 1.86.577.517.382.913.936 1.187 1.662.277.723.415 1.597.415 2.622 0 1.031-.137 1.912-.411 2.641-.273.726-.669 1.282-1.186 1.667-.517.381-1.139.572-1.865.572Zm0-1.233c.64 0 1.14-.312 1.5-.937.364-.625.545-1.528.545-2.71 0-.784-.083-1.448-.249-1.989-.163-.545-.399-.958-.707-1.238a1.543 1.543 0 0 0-1.089-.424c-.637 0-1.137.314-1.5.941-.364.628-.547 1.532-.55 2.71 0 .788.082 1.455.245 1.999.166.542.402.953.706 1.233.305.277.671.415 1.099.415Zm8.401 1.205a3.807 3.807 0 0 1-1.247-.231 2.926 2.926 0 0 1-1.108-.738c-.332-.345-.598-.808-.798-1.39-.197-.581-.296-1.308-.296-2.179 0-.825.082-1.557.245-2.197.166-.64.405-1.18.716-1.621.31-.443.686-.78 1.126-1.011a3.15 3.15 0 0 1 1.482-.346c.563 0 1.063.111 1.5.333.437.221.791.527 1.062.918.274.391.448.836.522 1.334h-1.408a1.821 1.821 0 0 0-.568-.964c-.283-.25-.653-.374-1.108-.374-.693 0-1.233.301-1.621.904-.384.604-.578 1.442-.581 2.516h.069c.163-.267.363-.495.6-.683a2.822 2.822 0 0 1 1.745-.595c.548 0 1.044.134 1.487.401.446.265.801.631 1.066 1.099.265.468.397 1.003.397 1.607 0 .603-.137 1.149-.411 1.638-.271.49-.652.878-1.145 1.164-.492.283-1.068.421-1.726.415Zm-.005-1.2c.363 0 .688-.089.974-.268.287-.178.513-.418.679-.72.166-.302.249-.639.249-1.011 0-.363-.081-.694-.244-.992a1.85 1.85 0 0 0-.665-.711c-.28-.176-.6-.264-.96-.264a1.855 1.855 0 0 0-1.372.591 2.13 2.13 0 0 0-.415.637 1.933 1.933 0 0 0-.148.753c0 .354.082.682.245.983a2 2 0 0 0 .679.73c.289.181.615.272.978.272Zm5.897-.102a.895.895 0 0 1-.651-.267.893.893 0 0 1-.273-.656c0-.252.091-.468.273-.646a.886.886 0 0 1 .651-.273c.252 0 .469.091.651.273a.874.874 0 0 1 .272.646.88.88 0 0 1-.129.466.948.948 0 0 1-.333.333.878.878 0 0 1-.461.124Zm0-4.736a.892.892 0 0 1-.651-.268.891.891 0 0 1-.273-.655c0-.253.091-.468.273-.647a.888.888 0 0 1 .651-.272c.252 0 .469.091.651.272a.876.876 0 0 1 .272.647.882.882 0 0 1-.129.466.954.954 0 0 1-.333.332.878.878 0 0 1-.461.125Zm6.045 6.038c-.634 0-1.2-.109-1.699-.328-.495-.218-.888-.521-1.177-.909a2.42 2.42 0 0 1-.462-1.357h1.45c.018.28.112.523.281.729.173.203.397.36.674.471.277.111.585.166.924.166.372 0 .701-.064.988-.194a1.61 1.61 0 0 0 .678-.54c.163-.234.245-.503.245-.808a1.45 1.45 0 0 0-.245-.835 1.597 1.597 0 0 0-.706-.573c-.308-.138-.68-.207-1.117-.207h-.799v-1.164h.799c.351 0 .658-.063.923-.189.268-.126.477-.302.628-.526.151-.228.226-.494.226-.799 0-.292-.066-.546-.198-.762a1.34 1.34 0 0 0-.554-.512 1.802 1.802 0 0 0-.841-.185c-.307 0-.595.057-.863.171-.265.111-.48.271-.646.48a1.234 1.234 0 0 0-.268.743h-1.38c.015-.51.166-.96.452-1.348a2.925 2.925 0 0 1 1.145-.909c.474-.219 1-.328 1.579-.328.606 0 1.129.119 1.569.356.444.234.785.546 1.025.937.243.391.363.818.36 1.283.003.53-.144.979-.443 1.348a2.14 2.14 0 0 1-1.182.743v.074c.628.096 1.114.345 1.459.748.348.403.52.903.517 1.501.003.52-.141.986-.434 1.398a2.95 2.95 0 0 1-1.186.974c-.502.234-1.076.351-1.722.351Zm4.889-1.976v-1.154l4.085-6.454h.91v1.699h-.577l-2.923 4.626v.074h5.6v1.209h-7.095ZM247.91 134v-2.197l.01-.527v-6.731h1.352V134h-1.362Z" fill="#91A5BA"/><rect x=".5" y=".5" width="259" height="146" rx="3.5" stroke="#4D5C6C"/><path d="M3.255 163.091V174H.948v-10.909h2.307Zm4.124 6.179V174h-2.27v-8.182h2.163v1.444h.096c.181-.476.485-.853.911-1.13.426-.28.943-.42 1.55-.42.568 0 1.064.124 1.486.373.423.248.751.603.986 1.065.234.458.351 1.005.351 1.64V174h-2.269v-4.805c.004-.5-.124-.891-.383-1.172-.26-.284-.617-.426-1.071-.426-.306 0-.575.066-.81.197a1.38 1.38 0 0 0-.543.576c-.128.248-.194.548-.197.9Zm11.414-3.452v1.705h-4.928v-1.705h4.928Zm-3.809-1.96h2.27v7.628c0 .209.031.373.095.49a.536.536 0 0 0 .266.24c.118.046.253.069.405.069.107 0 .213-.009.32-.027a83.7 83.7 0 0 1 .245-.048l.357 1.689a6.624 6.624 0 0 1-.48.122c-.206.05-.456.08-.75.091-.548.021-1.027-.052-1.439-.219a2.004 2.004 0 0 1-.953-.777c-.228-.352-.34-.796-.336-1.332v-7.926ZM20.271 174v-8.182h2.2v1.428h.085c.15-.508.4-.892.751-1.151a1.973 1.973 0 0 1 1.215-.394c.113 0 .236.007.367.021.131.015.247.034.346.059v2.013a2.983 2.983 0 0 0-.442-.085 3.943 3.943 0 0 0-.517-.037c-.333 0-.632.073-.894.218-.26.142-.466.341-.618.597-.15.256-.224.55-.224.884V174h-2.27Zm9.453.16c-.827 0-1.543-.176-2.146-.528a3.606 3.606 0 0 1-1.39-1.48c-.327-.636-.49-1.373-.49-2.211 0-.845.163-1.584.49-2.216a3.567 3.567 0 0 1 1.39-1.481c.603-.355 1.319-.532 2.146-.532.828 0 1.541.177 2.142.532a3.557 3.557 0 0 1 1.395 1.481c.327.632.49 1.371.49 2.216 0 .838-.163 1.575-.49 2.211a3.596 3.596 0 0 1-1.395 1.48c-.6.352-1.314.528-2.142.528Zm.011-1.758c.376 0 .69-.107.943-.32.252-.216.442-.511.57-.884.131-.373.197-.797.197-1.273 0-.476-.066-.9-.197-1.273-.128-.373-.318-.668-.57-.884-.252-.217-.567-.325-.943-.325-.38 0-.7.108-.959.325-.256.216-.449.511-.58.884a3.913 3.913 0 0 0-.192 1.273c0 .476.064.9.192 1.273.131.373.324.668.58.884.26.213.579.32.959.32Zm8.507 1.731c-.622 0-1.185-.16-1.689-.479-.5-.323-.898-.797-1.193-1.422-.291-.629-.437-1.4-.437-2.312 0-.938.151-1.717.453-2.339.302-.625.703-1.092 1.204-1.401a3.088 3.088 0 0 1 1.656-.468c.459 0 .84.078 1.146.234.309.153.557.344.745.575.192.228.338.451.437.671h.07v-4.101h2.263V174H40.66v-1.31h-.096a2.933 2.933 0 0 1-.453.676c-.191.22-.442.403-.75.549-.306.145-.679.218-1.12.218Zm.719-1.806c.366 0 .675-.099.927-.298.255-.202.45-.485.586-.847.138-.362.207-.786.207-1.273 0-.486-.067-.909-.202-1.268-.135-.358-.33-.635-.586-.831-.256-.195-.566-.293-.932-.293-.373 0-.687.102-.943.304-.256.202-.45.483-.58.842a3.611 3.611 0 0 0-.198 1.246c0 .476.066.897.197 1.263.135.362.329.646.581.852.256.202.57.303.943.303Zm11.049-1.811v-4.698h2.269V174H50.1v-1.486h-.085a2.417 2.417 0 0 1-.921 1.156c-.427.291-.947.437-1.561.437-.547 0-1.028-.125-1.444-.373a2.567 2.567 0 0 1-.974-1.06c-.231-.458-.349-1.007-.352-1.646v-5.21h2.27v4.805c.003.483.132.865.388 1.145.256.281.598.421 1.028.421.273 0 .53-.062.767-.187a1.46 1.46 0 0 0 .575-.564c.15-.249.222-.556.219-.922Zm7.78 3.644c-.837 0-1.558-.178-2.162-.533a3.605 3.605 0 0 1-1.385-1.491c-.32-.636-.48-1.368-.48-2.195 0-.838.162-1.573.486-2.205a3.597 3.597 0 0 1 1.39-1.486c.6-.359 1.314-.538 2.141-.538.714 0 1.339.129 1.875.388.536.26.96.624 1.273 1.092.313.469.485 1.02.517 1.652h-2.142c-.06-.409-.22-.737-.479-.986-.256-.252-.591-.378-1.007-.378a1.52 1.52 0 0 0-.921.288c-.26.188-.462.463-.607.825-.146.363-.219.801-.219 1.316 0 .522.071.966.213 1.332.146.366.35.644.613.836.263.192.57.288.921.288.26 0 .492-.054.698-.16.21-.107.382-.261.517-.464.138-.205.229-.452.272-.74h2.14c-.035.625-.205 1.175-.51 1.651-.302.473-.72.842-1.252 1.108-.533.267-1.163.4-1.891.4Zm5.108-.16v-8.182h2.269V174h-2.27Zm1.14-9.237c-.338 0-.627-.111-.869-.335a1.088 1.088 0 0 1-.356-.815c0-.313.118-.581.356-.804a1.22 1.22 0 0 1 .869-.341c.337 0 .625.113.863.341.241.223.362.491.362.804 0 .316-.121.588-.362.815a1.213 1.213 0 0 1-.863.335Zm5.216 4.507V174h-2.27v-8.182h2.163v1.444h.096c.181-.476.485-.853.911-1.13.426-.28.943-.42 1.55-.42.568 0 1.064.124 1.486.373.423.248.751.603.986 1.065.234.458.351 1.005.351 1.64V174h-2.269v-4.805c.004-.5-.124-.891-.383-1.172-.26-.284-.617-.426-1.071-.426-.305 0-.575.066-.81.197a1.38 1.38 0 0 0-.543.576c-.128.248-.194.548-.197.9Zm10.748 7.969c-.735 0-1.366-.102-1.891-.304-.522-.199-.938-.471-1.247-.815a2.507 2.507 0 0 1-.602-1.161l2.1-.283c.063.164.164.317.303.459.138.142.321.255.548.34.231.089.512.134.842.134.494 0 .9-.121 1.22-.363.323-.237.485-.637.485-1.198v-1.497h-.096a2.17 2.17 0 0 1-1.215 1.14c-.312.128-.685.192-1.118.192a3.36 3.36 0 0 1-1.678-.426c-.501-.288-.9-.727-1.199-1.316-.295-.593-.442-1.342-.442-2.248 0-.927.151-1.701.453-2.322.302-.622.703-1.087 1.204-1.396a3.11 3.11 0 0 1 1.656-.463c.458 0 .842.078 1.15.234.31.153.558.344.747.575.191.228.339.451.442.671h.085v-1.374h2.253v8.262c0 .696-.17 1.278-.511 1.747-.341.469-.813.82-1.417 1.055-.6.238-1.291.357-2.072.357Zm.048-5.061c.365 0 .674-.09.927-.271.255-.185.45-.448.585-.789.139-.344.208-.756.208-1.236 0-.479-.067-.894-.202-1.246-.135-.355-.33-.63-.586-.826-.256-.195-.567-.293-.932-.293-.373 0-.687.102-.943.304-.256.199-.45.476-.58.831a3.533 3.533 0 0 0-.198 1.23c0 .473.066.881.197 1.226.135.341.329.605.58.793.257.185.57.277.944.277Zm13.582-6.36v1.705h-4.928v-1.705h4.928Zm-3.81-1.96h2.27v7.628c0 .209.032.373.096.49a.536.536 0 0 0 .266.24c.118.046.252.069.405.069.107 0 .213-.009.32-.027l.245-.048.357 1.689a6.597 6.597 0 0 1-.48.122c-.206.05-.456.08-.75.091-.548.021-1.027-.052-1.44-.219a2.004 2.004 0 0 1-.953-.777c-.227-.352-.339-.796-.335-1.332v-7.926Zm7.733 5.412V174h-2.27v-10.909h2.206v4.171h.096c.184-.483.483-.861.894-1.135.412-.277.93-.415 1.551-.415.568 0 1.063.124 1.486.373.426.245.756.598.99 1.06.238.458.356 1.006.352 1.645V174h-2.269v-4.805c.003-.504-.124-.896-.384-1.177-.255-.28-.614-.421-1.076-.421-.309 0-.582.066-.82.197a1.404 1.404 0 0 0-.554.576c-.131.248-.199.548-.202.9Zm10.819 4.89c-.841 0-1.566-.171-2.173-.512a3.494 3.494 0 0 1-1.395-1.459c-.327-.632-.49-1.38-.49-2.243 0-.841.163-1.58.49-2.216a3.62 3.62 0 0 1 1.379-1.486c.597-.355 1.296-.532 2.099-.532.54 0 1.042.087 1.507.261.469.17.878.428 1.226.772.351.344.625.778.82 1.3.195.518.293 1.125.293 1.821v.624h-6.909v-1.407h4.773a1.74 1.74 0 0 0-.213-.868 1.522 1.522 0 0 0-.592-.591 1.68 1.68 0 0 0-.868-.218c-.344 0-.65.079-.916.239a1.68 1.68 0 0 0-.618.634 1.798 1.798 0 0 0-.229.879v1.337c0 .405.075.755.224 1.049.152.295.367.522.644.682.277.16.606.24.986.24.252 0 .483-.036.692-.107.21-.071.389-.177.538-.319a1.39 1.39 0 0 0 .341-.522l2.099.138a2.867 2.867 0 0 1-.655 1.321c-.327.373-.75.664-1.268.874-.515.206-1.11.309-1.785.309Zm8.751-.16v-10.909h4.368c.802 0 1.472.119 2.008.357s.939.568 1.209.991c.27.419.405.902.405 1.448 0 .427-.085.801-.256 1.124-.17.32-.405.583-.703.789a2.886 2.886 0 0 1-1.012.431v.107a2.5 2.5 0 0 1 2.056 1.262c.227.387.341.849.341 1.385a2.84 2.84 0 0 1-.431 1.55c-.284.451-.705.808-1.263 1.071-.557.263-1.244.394-2.061.394h-4.661Zm2.306-1.886h1.881c.642 0 1.111-.122 1.406-.367.295-.249.442-.579.442-.991a1.47 1.47 0 0 0-.218-.799 1.483 1.483 0 0 0-.624-.543c-.266-.132-.584-.197-.953-.197h-1.934v2.897Zm0-4.458h1.71c.316 0 .597-.055.842-.165.248-.114.444-.274.586-.48.145-.206.218-.452.218-.74 0-.394-.14-.712-.421-.954-.277-.241-.671-.362-1.182-.362h-1.753v2.701Zm9.837-4.565V174h-2.269v-10.909h2.269Zm5.515 11.069c-.827 0-1.543-.176-2.147-.528a3.609 3.609 0 0 1-1.39-1.48c-.327-.636-.49-1.373-.49-2.211 0-.845.163-1.584.49-2.216a3.569 3.569 0 0 1 1.39-1.481c.604-.355 1.32-.532 2.147-.532.827 0 1.541.177 2.141.532a3.558 3.558 0 0 1 1.396 1.481c.327.632.49 1.371.49 2.216 0 .838-.163 1.575-.49 2.211a3.597 3.597 0 0 1-1.396 1.48c-.6.352-1.314.528-2.141.528Zm.011-1.758c.376 0 .69-.107.942-.32.253-.216.443-.511.57-.884.132-.373.197-.797.197-1.273 0-.476-.065-.9-.197-1.273-.127-.373-.317-.668-.57-.884-.252-.217-.566-.325-.942-.325-.38 0-.7.108-.959.325-.256.216-.449.511-.581.884a3.91 3.91 0 0 0-.192 1.273c0 .476.064.9.192 1.273.132.373.325.668.581.884.259.213.579.32.959.32Zm9.188 1.758c-.838 0-1.559-.178-2.162-.533a3.6 3.6 0 0 1-1.385-1.491c-.32-.636-.48-1.368-.48-2.195 0-.838.162-1.573.485-2.205a3.6 3.6 0 0 1 1.39-1.486c.6-.359 1.314-.538 2.142-.538.713 0 1.338.129 1.875.388.536.26.96.624 1.273 1.092.312.469.484 1.02.516 1.652h-2.141c-.06-.409-.22-.737-.479-.986-.256-.252-.592-.378-1.007-.378-.352 0-.659.096-.922.288-.259.188-.461.463-.607.825-.146.363-.218.801-.218 1.316 0 .522.071.966.213 1.332.145.366.349.644.612.836.263.192.57.288.922.288.259 0 .492-.054.698-.16a1.35 1.35 0 0 0 .516-.464c.139-.205.229-.452.272-.74h2.141c-.035.625-.206 1.175-.511 1.651a3.081 3.081 0 0 1-1.252 1.108c-.533.267-1.163.4-1.891.4Zm7.163-2.514.006-2.722h.33l2.621-3.106h2.604l-3.521 4.112h-.538l-1.502 1.716ZM149.089 174v-10.909h2.269V174h-2.269Zm5.114 0-2.408-3.564 1.513-1.603 3.553 5.167h-2.658Zm7.131 0v-10.909h4.304c.827 0 1.532.158 2.115.474a3.203 3.203 0 0 1 1.331 1.305c.309.554.464 1.193.464 1.918 0 .724-.157 1.363-.469 1.917a3.237 3.237 0 0 1-1.358 1.295c-.59.309-1.304.463-2.142.463h-2.743v-1.848h2.37c.444 0 .81-.077 1.098-.229.291-.157.508-.371.65-.645.145-.277.218-.595.218-.953 0-.363-.073-.679-.218-.949a1.46 1.46 0 0 0-.65-.633c-.291-.153-.661-.229-1.108-.229h-1.556V174h-2.306Zm9.669 0v-8.182h2.2v1.428h.085c.15-.508.4-.892.751-1.151a1.975 1.975 0 0 1 1.215-.394c.114 0 .236.007.367.021.132.015.247.034.347.059v2.013a2.998 2.998 0 0 0-.442-.085 3.96 3.96 0 0 0-.517-.037c-.334 0-.632.073-.895.218a1.61 1.61 0 0 0-.618.597c-.149.256-.224.55-.224.884V174h-2.269Zm9.454.16c-.828 0-1.543-.176-2.147-.528a3.609 3.609 0 0 1-1.39-1.48c-.327-.636-.49-1.373-.49-2.211 0-.845.163-1.584.49-2.216a3.569 3.569 0 0 1 1.39-1.481c.604-.355 1.319-.532 2.147-.532.827 0 1.541.177 2.141.532a3.558 3.558 0 0 1 1.396 1.481c.326.632.49 1.371.49 2.216 0 .838-.164 1.575-.49 2.211a3.597 3.597 0 0 1-1.396 1.48c-.6.352-1.314.528-2.141.528Zm.01-1.758c.377 0 .691-.107.943-.32.252-.216.442-.511.57-.884.132-.373.197-.797.197-1.273 0-.476-.065-.9-.197-1.273-.128-.373-.318-.668-.57-.884-.252-.217-.566-.325-.943-.325-.38 0-.699.108-.958.325-.256.216-.45.511-.581.884a3.91 3.91 0 0 0-.192 1.273c0 .476.064.9.192 1.273.131.373.325.668.581.884.259.213.578.32.958.32Zm9.844-6.584v1.705h-4.927v-1.705h4.927Zm-3.808-1.96h2.269v7.628c0 .209.032.373.096.49a.534.534 0 0 0 .266.24c.117.046.252.069.405.069.106 0 .213-.009.319-.027l.245-.048.357 1.689a6.495 6.495 0 0 1-.479.122c-.206.05-.456.08-.751.091-.547.021-1.026-.052-1.438-.219a2.001 2.001 0 0 1-.954-.777c-.227-.352-.339-.796-.335-1.332v-7.926Zm8.895 10.302c-.827 0-1.543-.176-2.146-.528a3.605 3.605 0 0 1-1.391-1.48c-.326-.636-.49-1.373-.49-2.211 0-.845.164-1.584.49-2.216a3.565 3.565 0 0 1 1.391-1.481c.603-.355 1.319-.532 2.146-.532.828 0 1.541.177 2.142.532a3.562 3.562 0 0 1 1.395 1.481c.327.632.49 1.371.49 2.216 0 .838-.163 1.575-.49 2.211a3.601 3.601 0 0 1-1.395 1.48c-.601.352-1.314.528-2.142.528Zm.011-1.758c.376 0 .691-.107.943-.32.252-.216.442-.511.57-.884.131-.373.197-.797.197-1.273 0-.476-.066-.9-.197-1.273-.128-.373-.318-.668-.57-.884-.252-.217-.567-.325-.943-.325-.38 0-.7.108-.959.325-.256.216-.449.511-.581.884a3.938 3.938 0 0 0-.191 1.273c0 .476.064.9.191 1.273.132.373.325.668.581.884.259.213.579.32.959.32Zm9.188 1.758c-.838 0-1.559-.178-2.162-.533a3.606 3.606 0 0 1-1.385-1.491c-.32-.636-.48-1.368-.48-2.195 0-.838.162-1.573.485-2.205a3.6 3.6 0 0 1 1.39-1.486c.601-.359 1.314-.538 2.142-.538.714 0 1.339.129 1.875.388.536.26.96.624 1.273 1.092.312.469.485 1.02.517 1.652h-2.142c-.06-.409-.22-.737-.479-.986-.256-.252-.591-.378-1.007-.378-.352 0-.659.096-.921.288-.26.188-.462.463-.608.825-.145.363-.218.801-.218 1.316 0 .522.071.966.213 1.332.146.366.35.644.613.836.262.192.569.288.921.288.259 0 .492-.054.698-.16.209-.107.382-.261.517-.464.138-.205.229-.452.271-.74h2.142c-.036.625-.206 1.175-.512 1.651a3.081 3.081 0 0 1-1.252 1.108c-.532.267-1.163.4-1.891.4Zm8.804 0c-.827 0-1.543-.176-2.147-.528a3.609 3.609 0 0 1-1.39-1.48c-.327-.636-.49-1.373-.49-2.211 0-.845.163-1.584.49-2.216a3.569 3.569 0 0 1 1.39-1.481c.604-.355 1.32-.532 2.147-.532.828 0 1.541.177 2.141.532a3.558 3.558 0 0 1 1.396 1.481c.327.632.49 1.371.49 2.216 0 .838-.163 1.575-.49 2.211a3.597 3.597 0 0 1-1.396 1.48c-.6.352-1.313.528-2.141.528Zm.011-1.758c.376 0 .69-.107.943-.32.252-.216.442-.511.57-.884.131-.373.197-.797.197-1.273 0-.476-.066-.9-.197-1.273-.128-.373-.318-.668-.57-.884-.253-.217-.567-.325-.943-.325-.38 0-.7.108-.959.325-.256.216-.449.511-.581.884a3.911 3.911 0 0 0-.191 1.273c0 .476.063.9.191 1.273.132.373.325.668.581.884.259.213.579.32.959.32Zm7.761-9.311V174h-2.269v-10.909h2.269Z" fill="#4D5C6C"/><path d="M6.62 197.571c-.954 0-1.8-.13-2.539-.392-.736-.259-1.356-.64-1.86-1.145a4.889 4.889 0 0 1-1.15-1.846c-.262-.73-.392-1.562-.392-2.498 0-.911.132-1.73.397-2.456a5.074 5.074 0 0 1 1.154-1.856 5.036 5.036 0 0 1 1.851-1.177c.726-.271 1.551-.406 2.474-.406.884 0 1.662.138 2.336.415.674.277 1.24.657 1.7 1.14.46.484.809 1.038 1.043 1.662.233.625.35 1.285.35 1.981 0 .486-.03.962-.092 1.426a4.578 4.578 0 0 1-.342 1.256c-.163.372-.4.671-.71.896-.308.221-.708.337-1.2.346a2.46 2.46 0 0 1-.763-.092 1.557 1.557 0 0 1-.627-.342 1.01 1.01 0 0 1-.314-.609H7.88c-.074.181-.197.35-.369.507a1.925 1.925 0 0 1-.66.37 2.551 2.551 0 0 1-.923.111 2.485 2.485 0 0 1-1.048-.264 2.4 2.4 0 0 1-.799-.664 3.098 3.098 0 0 1-.503-1.007 4.463 4.463 0 0 1-.176-1.292c0-.456.067-.864.199-1.224.132-.363.312-.675.54-.937a2.67 2.67 0 0 1 .794-.628 2.77 2.77 0 0 1 .946-.291c.324-.037.62-.027.891.028s.496.14.674.254c.182.114.296.239.342.374h.06v-.517h1.136v4.284c0 .243.063.449.189.619.13.169.312.253.55.253.28 0 .498-.103.655-.309.16-.206.272-.523.337-.951.068-.428.101-.975.101-1.643 0-.468-.063-.908-.189-1.321a3.687 3.687 0 0 0-1.436-1.999c-.35-.243-.75-.43-1.2-.563a5.212 5.212 0 0 0-1.482-.198c-.735 0-1.39.114-1.962.341a3.889 3.889 0 0 0-1.45.974c-.39.425-.687.935-.89 1.529-.2.59-.3 1.254-.3 1.989 0 .767.103 1.447.309 2.041.206.591.51 1.089.914 1.495.403.407.902.714 1.496.924.594.212 1.278.318 2.054.318.345 0 .683-.031 1.016-.092.332-.059.628-.126.886-.203.262-.074.457-.134.586-.18l.323 1.011c-.19.089-.444.177-.761.263a8.778 8.778 0 0 1-1.025.212 7.167 7.167 0 0 1-1.085.083Zm-.425-3.841c.4 0 .722-.08.965-.24.246-.16.423-.398.531-.715.11-.32.166-.72.166-1.2-.003-.468-.063-.841-.18-1.118a1.1 1.1 0 0 0-.535-.6c-.24-.123-.55-.184-.928-.184-.348 0-.645.084-.891.253-.243.17-.43.399-.559.688-.126.29-.19.611-.194.965.003.373.056.723.157 1.053.105.326.274.591.508.794.237.203.557.304.96.304ZM13.62 195v-9.455H15v3.514h.083c.08-.148.196-.319.346-.513.151-.194.36-.363.628-.508.268-.147.622-.221 1.062-.221.573 0 1.083.144 1.533.434.45.289.801.706 1.057 1.251.258.545.388 1.2.388 1.966 0 .767-.128 1.424-.384 1.972-.255.544-.606.964-1.052 1.26a2.728 2.728 0 0 1-1.528.438c-.431 0-.783-.072-1.057-.216a2.004 2.004 0 0 1-.637-.508 3.901 3.901 0 0 1-.356-.517h-.115V195H13.62Zm1.352-3.545c0 .498.073.935.217 1.311.145.375.354.669.628.881.274.21.61.314 1.007.314.412 0 .757-.109 1.034-.327.277-.222.486-.522.627-.901.145-.378.218-.804.218-1.278 0-.468-.071-.888-.213-1.261a1.934 1.934 0 0 0-.628-.882c-.277-.215-.623-.323-1.038-.323-.4 0-.739.103-1.016.31a1.9 1.9 0 0 0-.623.863c-.142.369-.213.8-.213 1.293Zm8.055-5.91V195h-1.38v-9.455h1.38Zm4.844 9.598c-.665 0-1.245-.152-1.74-.457a3.083 3.083 0 0 1-1.155-1.279c-.274-.548-.41-1.188-.41-1.92 0-.736.136-1.379.41-1.93a3.07 3.07 0 0 1 1.154-1.283c.496-.305 1.076-.457 1.74-.457.666 0 1.246.152 1.741.457.496.304.88.732 1.154 1.283.274.551.411 1.194.411 1.93 0 .732-.137 1.372-.41 1.92a3.084 3.084 0 0 1-1.155 1.279c-.495.305-1.075.457-1.74.457Zm.004-1.159c.431 0 .788-.113 1.072-.341.283-.228.492-.531.627-.91.139-.378.208-.795.208-1.251a3.6 3.6 0 0 0-.208-1.246 2.03 2.03 0 0 0-.628-.919c-.283-.231-.64-.346-1.07-.346-.434 0-.795.115-1.08.346a2.063 2.063 0 0 0-.633.919 3.674 3.674 0 0 0-.203 1.246c0 .456.067.873.203 1.251.138.379.349.682.632.91.286.228.646.341 1.08.341Zm7.829 1.159c-.687 0-1.277-.155-1.773-.466a3.086 3.086 0 0 1-1.136-1.297c-.264-.551-.397-1.182-.397-1.893 0-.72.136-1.356.407-1.907.27-.554.652-.986 1.145-1.297.492-.311 1.072-.466 1.74-.466.539 0 1.019.1 1.44.3.422.197.762.474 1.02.831.262.357.418.774.467 1.251h-1.344a1.608 1.608 0 0 0-.507-.859c-.262-.24-.613-.36-1.053-.36-.385 0-.722.102-1.01.305-.287.2-.51.486-.67.858-.16.37-.24.807-.24 1.312 0 .517.078.963.235 1.338.157.376.379.667.665.873.29.206.63.309 1.02.309.262 0 .499-.048.711-.143.215-.098.395-.238.54-.42.148-.182.251-.4.31-.656h1.343c-.05.459-.199.868-.448 1.228-.25.36-.583.644-1.002.85-.415.206-.903.309-1.463.309Zm5.658-2.548-.009-1.685h.24l2.826-3.001h1.652l-3.222 3.416h-.217l-1.27 1.27ZM40.093 195v-9.455h1.38V195h-1.38Zm4.478 0-2.54-3.37.952-.965L46.265 195h-1.694Zm4.139-9.455V195h-1.38v-9.455h1.38Zm4.843 9.598c-.664 0-1.244-.152-1.74-.457a3.083 3.083 0 0 1-1.154-1.279c-.274-.548-.411-1.188-.411-1.92 0-.736.137-1.379.41-1.93a3.07 3.07 0 0 1 1.155-1.283c.495-.305 1.076-.457 1.74-.457.665 0 1.245.152 1.74.457.496.304.881.732 1.155 1.283.274.551.41 1.194.41 1.93 0 .732-.136 1.372-.41 1.92a3.083 3.083 0 0 1-1.154 1.279c-.496.305-1.076.457-1.74.457Zm.005-1.159c.43 0 .788-.113 1.071-.341.283-.228.492-.531.628-.91.138-.378.208-.795.208-1.251a3.6 3.6 0 0 0-.208-1.246 2.03 2.03 0 0 0-.628-.919c-.283-.231-.64-.346-1.07-.346-.435 0-.795.115-1.081.346a2.063 2.063 0 0 0-.633.919 3.674 3.674 0 0 0-.203 1.246c0 .456.068.873.203 1.251.139.379.35.682.633.91.286.228.646.341 1.08.341Zm10.666-6.075L61.654 195h-1.478l-2.576-7.091h1.482l1.795 5.457h.074l1.791-5.457h1.482Zm4.113 7.234c-.7 0-1.3-.149-1.806-.448a3.031 3.031 0 0 1-1.163-1.269c-.27-.548-.406-1.19-.406-1.925 0-.727.135-1.367.406-1.921a3.154 3.154 0 0 1 1.145-1.297c.492-.311 1.068-.466 1.727-.466.4 0 .788.066 1.163.198.375.133.712.34 1.011.623.299.284.534.651.706 1.104.173.449.259.995.259 1.639v.489h-5.637v-1.034h4.284c0-.363-.074-.685-.221-.965a1.675 1.675 0 0 0-.624-.669 1.743 1.743 0 0 0-.932-.245 1.8 1.8 0 0 0-1.016.286 1.922 1.922 0 0 0-.665.739 2.13 2.13 0 0 0-.23.983v.808c0 .474.083.877.249 1.21.17.332.405.586.706.761.302.173.654.259 1.057.259.262 0 .5-.037.716-.111a1.48 1.48 0 0 0 .919-.9l1.306.235a2.362 2.362 0 0 1-.563 1.011c-.268.287-.605.51-1.011.67a3.783 3.783 0 0 1-1.38.235ZM72.91 195v-7.091h1.335v1.127h.073c.13-.382.357-.682.684-.901a1.96 1.96 0 0 1 1.117-.332 6.053 6.053 0 0 1 .586.032v1.321a2.257 2.257 0 0 0-.295-.051 2.76 2.76 0 0 0-.425-.033c-.326 0-.617.07-.873.208a1.548 1.548 0 0 0-.821 1.39V195h-1.38Zm10.946-2.696c-.372 0-.712-.091-1.02-.272a2.124 2.124 0 0 1-.739-.739 1.971 1.971 0 0 1-.272-1.02c0-.376.09-.716.272-1.021.185-.307.431-.552.739-.734a1.951 1.951 0 0 1 1.02-.277c.376 0 .716.093 1.02.277.308.182.553.427.734.734.185.305.277.645.277 1.021 0 .372-.092.712-.277 1.02a2.085 2.085 0 0 1-.734.739 1.96 1.96 0 0 1-1.02.272Zm11.374-6.759V195h-1.431v-8.023h-.056l-2.262 1.477v-1.367l2.36-1.542h1.389Zm6.016 9.455v-7.091h1.325v1.154h.088c.148-.391.389-.695.725-.914.335-.221.737-.332 1.205-.332.474 0 .871.111 1.191.332.323.222.561.526.715.914h.074a2 2 0 0 1 .808-.905c.369-.227.809-.341 1.32-.341.643 0 1.168.201 1.574.605.41.403.614 1.011.614 1.823V195h-1.38v-4.626c0-.48-.131-.828-.392-1.043a1.43 1.43 0 0 0-.937-.323c-.45 0-.799.138-1.048.415-.25.274-.374.627-.374 1.057V195h-1.376v-4.713c0-.385-.12-.694-.36-.928-.24-.234-.553-.351-.937-.351-.262 0-.503.069-.725.208a1.521 1.521 0 0 0-.531.567 1.746 1.746 0 0 0-.198.845V195h-1.381Zm14.476.143c-.664 0-1.245-.152-1.74-.457a3.08 3.08 0 0 1-1.154-1.279c-.274-.548-.411-1.188-.411-1.92 0-.736.137-1.379.411-1.93a3.067 3.067 0 0 1 1.154-1.283c.495-.305 1.076-.457 1.74-.457.665 0 1.245.152 1.741.457.495.304.88.732 1.154 1.283.274.551.411 1.194.411 1.93 0 .732-.137 1.372-.411 1.92a3.087 3.087 0 0 1-1.154 1.279c-.496.305-1.076.457-1.741.457Zm.005-1.159c.431 0 .788-.113 1.071-.341.283-.228.492-.531.628-.91.138-.378.208-.795.208-1.251 0-.452-.07-.868-.208-1.246a2.037 2.037 0 0 0-.628-.919c-.283-.231-.64-.346-1.071-.346-.434 0-.794.115-1.08.346a2.069 2.069 0 0 0-.633.919 3.684 3.684 0 0 0-.203 1.246c0 .456.068.873.203 1.251.139.379.35.682.633.91.286.228.646.341 1.08.341Zm6.222-3.194V195h-1.38v-7.091h1.324v1.154h.088a2.03 2.03 0 0 1 .767-.905c.35-.227.792-.341 1.324-.341.484 0 .907.101 1.27.304.363.2.645.499.845.896.2.397.3.888.3 1.473V195h-1.38v-4.344c0-.514-.134-.916-.402-1.205-.268-.292-.636-.439-1.103-.439-.321 0-.605.07-.854.208a1.496 1.496 0 0 0-.587.61c-.141.264-.212.584-.212.96Zm9.699-2.881v1.108h-3.873v-1.108h3.873Zm-2.834-1.699h1.38v6.708c0 .268.04.469.12.605.08.132.183.223.309.272.129.046.27.069.42.069.111 0 .208-.007.291-.023.083-.015.148-.027.194-.037l.249 1.141a2.698 2.698 0 0 1-.895.147 2.426 2.426 0 0 1-1.016-.194 1.74 1.74 0 0 1-.762-.627c-.193-.284-.29-.639-.29-1.067v-6.994Zm5.894 4.58V195h-1.381v-9.455h1.362v3.518h.088c.166-.381.42-.685.762-.909.341-.225.787-.337 1.338-.337.487 0 .911.1 1.275.3.366.2.649.498.849.895.203.394.305.887.305 1.478V195h-1.381v-4.344c0-.52-.134-.923-.401-1.21-.268-.289-.64-.434-1.117-.434-.327 0-.619.07-.878.208a1.498 1.498 0 0 0-.604.61c-.145.264-.217.584-.217.96Zm11.944 4.367c-.45 0-.856-.083-1.219-.249a2.057 2.057 0 0 1-.863-.734c-.21-.32-.314-.713-.314-1.178 0-.4.077-.729.231-.987.153-.259.361-.464.623-.614.261-.151.554-.265.877-.342a8.68 8.68 0 0 1 .988-.176l1.034-.12c.265-.033.457-.087.577-.161.12-.074.18-.194.18-.36v-.033c0-.403-.114-.715-.342-.937-.224-.221-.56-.332-1.006-.332-.465 0-.831.103-1.099.309-.264.203-.448.43-.549.679l-1.297-.296c.154-.43.378-.778.674-1.043a2.723 2.723 0 0 1 1.029-.582 4.026 4.026 0 0 1 1.224-.184c.283 0 .583.034.9.101.32.065.618.185.895.36.28.176.51.427.688.753.179.323.268.743.268 1.26V195h-1.348v-.969h-.055a2.01 2.01 0 0 1-.402.526 2.148 2.148 0 0 1-.688.429c-.28.114-.616.171-1.006.171Zm.3-1.108c.381 0 .708-.075.978-.226.274-.151.482-.348.624-.591.144-.246.217-.509.217-.79v-.914c-.05.05-.145.096-.287.139-.138.04-.297.075-.475.106l-.522.079-.425.055a3.448 3.448 0 0 0-.734.171c-.218.08-.393.195-.526.346-.129.148-.194.345-.194.591 0 .342.126.6.379.775.252.173.574.259.965.259Zm8.01 3.758c-.563 0-1.047-.074-1.454-.222a2.814 2.814 0 0 1-.988-.586 2.457 2.457 0 0 1-.572-.799l1.186-.489c.083.135.194.278.333.429.141.154.332.285.572.393.243.107.556.161.937.161.523 0 .956-.127 1.298-.383.341-.252.512-.655.512-1.209v-1.395h-.088a3.145 3.145 0 0 1-.36.504 1.963 1.963 0 0 1-.637.48c-.271.135-.623.203-1.057.203-.56 0-1.065-.131-1.514-.393-.447-.264-.8-.654-1.062-1.168-.259-.517-.388-1.152-.388-1.906s.128-1.4.383-1.939c.259-.539.613-.951 1.062-1.237.449-.29.959-.434 1.528-.434.44 0 .796.074 1.067.221.27.145.481.314.632.508.154.194.272.365.355.513h.102v-1.15h1.353v7.248c0 .609-.142 1.109-.425 1.5-.283.391-.666.68-1.15.868-.48.188-1.021.282-1.625.282Zm-.013-4.058c.397 0 .732-.092 1.006-.277.277-.188.486-.456.628-.803.144-.351.217-.771.217-1.261 0-.477-.071-.897-.213-1.26a1.867 1.867 0 0 0-.623-.849c-.274-.207-.612-.31-1.015-.31-.416 0-.762.108-1.039.323a1.958 1.958 0 0 0-.628.868 3.465 3.465 0 0 0-.208 1.228c0 .465.071.873.213 1.224.141.351.351.625.628.821.28.197.624.296 1.034.296Zm8.051 1.394c-.665 0-1.245-.152-1.741-.457a3.087 3.087 0 0 1-1.154-1.279c-.274-.548-.411-1.188-.411-1.92 0-.736.137-1.379.411-1.93a3.074 3.074 0 0 1 1.154-1.283c.496-.305 1.076-.457 1.741-.457s1.245.152 1.74.457c.496.304.88.732 1.154 1.283.274.551.411 1.194.411 1.93 0 .732-.137 1.372-.411 1.92a3.08 3.08 0 0 1-1.154 1.279c-.495.305-1.075.457-1.74.457Zm.004-1.159c.431 0 .788-.113 1.071-.341.284-.228.493-.531.628-.91a3.6 3.6 0 0 0 .208-1.251c0-.452-.069-.868-.208-1.246a2.021 2.021 0 0 0-.628-.919c-.283-.231-.64-.346-1.071-.346-.434 0-.794.115-1.08.346a2.06 2.06 0 0 0-.632.919 3.66 3.66 0 0 0-.203 1.246c0 .456.067.873.203 1.251.138.379.349.682.632.91.286.228.646.341 1.08.341Z" fill="#91A5BA"/></svg>