<svg width="175" height="175" viewBox="0 0 175 175" fill="none" xmlns="http://www.w3.org/2000/svg">
<path fill-rule="evenodd" clip-rule="evenodd" d="M87.5 143.75H143.75V87.5H87.5V31.25H31.25V87.5H87.5V143.75ZM150 0H25C10.9375 0 0 11.3281 0 25V150C0 164.062 10.9375 175 25 175H150C163.672 175 175 164.062 175 150V25C175 11.3281 163.672 0 150 0ZM156.25 150C156.25 153.516 153.125 156.25 150 156.25H25C21.4844 156.25 18.75 153.516 18.75 150V25C18.75 21.875 21.4844 18.75 25 18.75H150C153.125 18.75 156.25 21.875 156.25 25V150ZM65 43.0625C65 41.5 65.5 41 67 41C68.5 41 69 41.5 69 43.0625V71.9375C69 71.9584 68.9997 71.9793 68.9992 72H71C71.5523 72 72 72.4477 72 73V75H76C76.5523 75 77 75.4477 77 76V78C77 78.5523 76.5523 79 76 79H58C57.4477 79 57 78.5523 57 78V76C57 75.4477 57.4477 75 58 75H62V73C62 72.4477 62.4477 72 63 72H65.0009C65.0003 71.9793 65 71.9584 65 71.9375V63.6875L41.9375 54.793C41.375 54.5996 41 54.0195 41 53.375C41 52.7949 41.375 52.2148 41.9375 52.0215L65 43.0625ZM120.976 132H114.352V105.12L107.2 107.76V101.904L115.504 98.4H120.976V132Z" fill="black"/>
</svg>
