<svg xmlns="http://www.w3.org/2000/svg" viewBox="0 0 640 640"><!--! Font Awesome Pro 7.2.0 by @fontawesome - https://fontawesome.com License - https://fontawesome.com/license (Commercial License) Copyright 2026 Fonticons, Inc. --><path fill="currentColor" d="M171.3 100.7C165.1 94.5 154.9 94.5 148.7 100.7L52.7 196.7C46.5 202.9 46.5 213.1 52.7 219.3C58.9 225.5 69.1 225.5 75.3 219.3L144 150.6L144 528C144 536.8 151.2 544 160 544C168.8 544 176 536.8 176 528L176 150.6L244.7 219.3C250.9 225.5 261.1 225.5 267.3 219.3C273.5 213.1 273.5 202.9 267.3 196.7L171.3 100.7zM336 544L400 544C408.8 544 416 536.8 416 528C416 519.2 408.8 512 400 512L336 512C327.2 512 320 519.2 320 528C320 536.8 327.2 544 336 544zM336 408L464 408C472.8 408 480 400.8 480 392C480 383.2 472.8 376 464 376L336 376C327.2 376 320 383.2 320 392C320 400.8 327.2 408 336 408zM336 264L528 264C536.8 264 544 256.8 544 248C544 239.2 536.8 232 528 232L336 232C327.2 232 320 239.2 320 248C320 256.8 327.2 264 336 264zM336 128L592 128C600.8 128 608 120.8 608 112C608 103.2 600.8 96 592 96L336 96C327.2 96 320 103.2 320 112C320 120.8 327.2 128 336 128z"/></svg>