<svg xmlns="http://www.w3.org/2000/svg" viewBox="0 0 640 640"><!--! Font Awesome Pro 7.2.0 by @fontawesome - https://fontawesome.com License - https://fontawesome.com/license (Commercial License) Copyright 2026 Fonticons, Inc. --><path fill="currentColor" d="M544 320C544 196.3 443.7 96 320 96C196.3 96 96 196.3 96 320C96 443.7 196.3 544 320 544C443.7 544 544 443.7 544 320zM64 320C64 178.6 178.6 64 320 64C461.4 64 576 178.6 576 320C576 461.4 461.4 576 320 576C178.6 576 64 461.4 64 320zM320 448C390.7 448 448 390.7 448 320C448 249.3 390.7 192 320 192C249.3 192 192 249.3 192 320C192 390.7 249.3 448 320 448zM320 160C408.4 160 480 231.6 480 320C480 408.4 408.4 480 320 480C231.6 480 160 408.4 160 320C160 231.6 231.6 160 320 160zM320 352C337.7 352 352 337.7 352 320C352 302.3 337.7 288 320 288C302.3 288 288 302.3 288 320C288 337.7 302.3 352 320 352zM320 256C355.3 256 384 284.7 384 320C384 355.3 355.3 384 320 384C284.7 384 256 355.3 256 320C256 284.7 284.7 256 320 256z"/></svg>