<svg xmlns="http://www.w3.org/2000/svg" viewBox="0 0 640 640"><!--! Font Awesome Pro 7.2.0 by @fontawesome - https://fontawesome.com License - https://fontawesome.com/license (Commercial License) Copyright 2026 Fonticons, Inc. --><path fill="currentColor" d="M440.2 185.7L440.2 185.7C447.2 189.7 455.4 192 464 192C466.6 192 469.2 191.8 471.6 191.4L471.6 191.4C494.5 187.7 512 167.9 512 144C512 117.5 490.5 96 464 96C437.5 96 416 117.5 416 144C416 144.7 416 145.3 416 146L416 146C416.5 157.4 420.9 167.7 427.9 175.7L427.9 175.7C431.4 179.7 435.5 183.1 440.1 185.7zM434.3 218.3C419.1 212.2 406.1 201.5 397.2 188L222.7 257.7C223.5 262.3 224 267.1 224 272C224 286.4 220.2 299.9 213.5 311.6L351.5 432.4C364.5 422.5 380.7 416.4 398.2 416.1L434.2 218.4zM429.8 421.7C459.2 433.5 480 462.3 480 496C480 540.2 444.2 576 400 576C355.8 576 320 540.2 320 496C320 481.6 323.8 468.1 330.5 456.4L192.5 335.6C179 345.9 162.2 352 144 352C99.8 352 64 316.2 64 272C64 227.8 99.8 192 144 192C171.9 192 196.5 206.3 210.8 228L385.3 158.3C384.5 153.7 384 148.9 384 144C384 99.8 419.8 64 464 64C508.2 64 544 99.8 544 144C544 187.6 509.1 223.1 465.7 224L429.7 421.7zM183.8 298.8C184.5 297.8 185.1 296.8 185.7 295.7C189.7 288.7 192 280.6 192 271.9C192 245.4 170.5 223.9 144 223.9C117.5 223.9 96 245.4 96 271.9C96 298.4 117.5 319.9 144 319.9C152.5 319.9 160.6 317.7 167.5 313.7L167.5 313.7C174 310 179.6 304.9 183.8 298.7zM355.4 478.2C353.2 483.7 352 489.7 352 496C352 522.5 373.5 544 400 544C426.5 544 448 522.5 448 496C448 469.5 426.5 448 400 448C386 448 373.4 454 364.7 463.5C362 466.4 359.7 469.6 357.8 473.1C356.9 474.7 356.1 476.5 355.4 478.2L355.4 478.2z"/></svg>