<svg xmlns="http://www.w3.org/2000/svg" viewBox="0 0 640 640"><!--! Font Awesome Pro 7.2.0 by @fontawesome - https://fontawesome.com License - https://fontawesome.com/license (Commercial License) Copyright 2026 Fonticons, Inc. --><path fill="currentColor" d="M240 128C248.8 128 256 135.2 256 144L256 240C256 248.8 248.8 256 240 256L144 256C135.2 256 128 248.8 128 240L128 144C128 135.2 135.2 128 144 128L240 128zM208 288L240 288C266.5 288 288 266.5 288 240L288 144C288 117.5 266.5 96 240 96L144 96C117.5 96 96 117.5 96 144L96 240C96 266.5 117.5 288 144 288L176 288L176 384C176 428.2 211.8 464 256 464L352 464L352 496C352 522.5 373.5 544 400 544L496 544C522.5 544 544 522.5 544 496L544 400C544 373.5 522.5 352 496 352L400 352C373.5 352 352 373.5 352 400L352 432L256 432C229.5 432 208 410.5 208 384L208 288zM384 432L384 400C384 391.2 391.2 384 400 384L496 384C504.8 384 512 391.2 512 400L512 496C512 504.8 504.8 512 496 512L400 512C391.2 512 384 504.8 384 496L384 432z"/></svg>