<svg xmlns="http://www.w3.org/2000/svg" viewBox="0 0 640 640"><!--! Font Awesome Pro 7.2.0 by @fontawesome - https://fontawesome.com License - https://fontawesome.com/license (Commercial License) Copyright 2026 Fonticons, Inc. --><path fill="currentColor" d="M0 297.5C0 221.5 61.5 160 137.5 160C176.7 160 214.1 176.8 240.2 206.1L320 295.9L399.8 206.1C425.9 176.8 463.3 160 502.5 160C578.5 160 640 221.5 640 297.5L640 342.6C640 418.5 578.5 480.1 502.5 480.1C463.2 480.1 425.8 463.3 399.8 434L320 344.2L240.2 434C214.1 463.2 176.7 480 137.5 480C61.5 480 0 418.5 0 342.5L0 297.4zM298.6 320L216.3 227.4C196.3 204.9 167.6 192 137.5 192C79.2 192 32 239.2 32 297.5L32 342.6C32 400.8 79.2 448.1 137.5 448.1C167.6 448.1 196.3 435.2 216.3 412.7L298.6 320zM341.4 320L423.7 412.6C443.7 435.1 472.4 448 502.5 448C560.7 448 608 400.8 608 342.5L608 297.4C608 239.2 560.8 191.9 502.5 191.9C472.4 191.9 443.7 204.8 423.7 227.3L341.4 320z"/></svg>