<svg xmlns="http://www.w3.org/2000/svg" viewBox="0 0 640 640"><!--! Font Awesome Pro 7.2.0 by @fontawesome - https://fontawesome.com License - https://fontawesome.com/license (Commercial License) Copyright 2026 Fonticons, Inc. --><path fill="currentColor" d="M272 96C369.2 96 448 174.8 448 272C448 369.2 369.2 448 272 448C174.8 448 96 369.2 96 272C96 174.8 174.8 96 272 96zM272 480C323.7 480 371 461.2 407.3 430L548.7 571.3C554.9 577.5 565.1 577.5 571.3 571.3C577.5 565.1 577.5 554.9 571.3 548.7L430 407.3C461.2 371 480 323.7 480 272C480 157.1 386.9 64 272 64C157.1 64 64 157.1 64 272C64 386.9 157.1 480 272 480zM192 256C183.2 256 176 263.2 176 272C176 280.8 183.2 288 192 288L352 288C360.8 288 368 280.8 368 272C368 263.2 360.8 256 352 256L192 256z"/></svg>