<svg xmlns="http://www.w3.org/2000/svg" viewBox="0 0 640 640"><!--! Font Awesome Pro 7.2.0 by @fontawesome - https://fontawesome.com License - https://fontawesome.com/license (Commercial License) Copyright 2026 Fonticons, Inc. --><path fill="currentColor" d="M512 48C520.8 48 528 55.2 528 64L528 112L576 112C584.8 112 592 119.2 592 128C592 136.8 584.8 144 576 144L528 144L528 192C528 200.8 520.8 208 512 208C503.2 208 496 200.8 496 192L496 144L448 144C439.2 144 432 136.8 432 128C432 119.2 439.2 112 448 112L496 112L496 64C496 55.2 503.2 48 512 48zM224 128C230.2 128 235.9 131.6 238.5 137.3L291.6 252.3L406.6 305.4C412.3 308 415.9 313.7 415.9 319.9C415.9 326.1 412.3 331.8 406.6 334.4L291.6 387.5L238.5 502.5C235.9 508.2 230.2 511.8 224 511.8C217.8 511.8 212.1 508.2 209.5 502.5L156.4 387.5L41.4 334.4C35.6 331.9 32 326.2 32 320C32 313.8 35.6 308.1 41.3 305.5L156.3 252.4L209.4 137.4C212 131.7 217.7 128.1 223.9 128.1zM224 182.2L182.9 271.1C181.3 274.6 178.5 277.3 175.1 278.9L86.2 320L175.1 361.1C178.6 362.7 181.3 365.5 182.9 368.9L224 457.8L265.1 368.9C266.7 365.5 269.5 362.7 272.9 361.1L361.8 320L272.9 278.9C269.4 277.3 266.7 274.5 265.1 271.1L224 182.2zM496 448L496 496L544 496C552.8 496 560 503.2 560 512C560 520.8 552.8 528 544 528L496 528L496 576C496 584.8 488.8 592 480 592C471.2 592 464 584.8 464 576L464 528L416 528C407.2 528 400 520.8 400 512C400 503.2 407.2 496 416 496L464 496L464 448C464 439.2 471.2 432 480 432C488.8 432 496 439.2 496 448z"/></svg>