<svg xmlns="http://www.w3.org/2000/svg" viewBox="0 0 640 640"><!--! Font Awesome Pro 7.2.0 by @fontawesome - https://fontawesome.com License - https://fontawesome.com/license (Commercial License) Copyright 2026 Fonticons, Inc. --><path fill="currentColor" d="M68.7 155.3C62.5 149.1 62.5 138.9 68.7 132.7C74.9 126.5 85.1 126.5 91.3 132.7L267.3 308.7C273.5 314.9 273.5 325.1 267.3 331.3L91.3 507.3C85.1 513.5 74.9 513.5 68.7 507.3C62.5 501.1 62.5 490.9 68.7 484.7L233.4 320L68.7 155.3zM560 480C568.8 480 576 487.2 576 496C576 504.8 568.8 512 560 512L272 512C263.2 512 256 504.8 256 496C256 487.2 263.2 480 272 480L560 480z"/></svg>