<svg xmlns="http://www.w3.org/2000/svg" viewBox="0 0 640 640"><!--! Font Awesome Pro 7.2.0 by @fontawesome - https://fontawesome.com License - https://fontawesome.com/license (Commercial License) Copyright 2026 Fonticons, Inc. --><path fill="currentColor" d="M320 64C269.3 64 225.6 93.4 204.8 136.1C203.2 136 201.6 136 200 136C124.9 136 64 196.9 64 272C64 347.1 124.9 408 200 408C210.8 408 221.2 406.7 231.3 404.4C251.8 430.9 283.9 448 320 448C356.1 448 388.2 430.9 408.7 404.4C418.8 406.8 429.2 408 440 408C515.1 408 576 347.1 576 272C576 196.9 515.1 136 440 136C438.4 136 436.8 136 435.2 136.1C414.5 93.4 370.7 64 320 64zM230 158.5C243.6 122 278.8 96 320 96C361.2 96 396.4 122 410 158.5C412.6 165.5 419.6 169.7 427 168.8C431.3 168.3 435.6 168 440 168C497.4 168 544 214.6 544 272C544 329.4 497.4 376 440 376C428.5 376 417.4 374.1 407.1 370.7C400 368.3 392.3 371.2 388.4 377.6C374.3 400.7 349 416.1 320 416.1C291 416.1 265.7 400.7 251.6 377.6C247.7 371.2 240 368.4 232.9 370.7C222.6 374.1 211.5 376 200 376C142.6 376 96 329.4 96 272C96 214.6 142.6 168 200 168C204.4 168 208.8 168.3 213 168.8C220.4 169.7 227.4 165.5 230 158.5zM208 480C216.8 480 224 487.2 224 496C224 504.8 216.8 512 208 512C199.2 512 192 504.8 192 496C192 487.2 199.2 480 208 480zM208 544C234.5 544 256 522.5 256 496C256 469.5 234.5 448 208 448C181.5 448 160 469.5 160 496C160 522.5 181.5 544 208 544zM120 544C120 530.7 109.3 520 96 520C82.7 520 72 530.7 72 544C72 557.3 82.7 568 96 568C109.3 568 120 557.3 120 544z"/></svg>