<svg width="300" height="300" viewBox="0 0 300 300" fill="none" xmlns="http://www.w3.org/2000/svg">
<path d="M97.375 94.5C135.672 94.5 167.25 121.039 167.25 153.625C167.25 186.547 135.672 212.75 97.375 212.75C90.9922 212.75 84.9453 212.078 78.8984 210.734C68.8203 217.117 54.0391 223.5 35.5625 223.5C32.2031 223.5 29.1797 221.82 28.1719 218.461C26.8281 215.438 27.1641 212.078 29.5156 209.391C29.8516 209.391 37.2422 201.328 42.6172 190.578C33.2109 180.5 27.5 167.734 27.5 153.625C27.5 121.039 58.7422 94.5 97.375 94.5ZM82.5937 194.945C87.6328 196.289 92.3359 196.625 97.375 196.625C126.937 196.625 151.125 177.477 151.125 153.625C151.125 130.109 126.937 110.625 97.375 110.625C67.4766 110.625 43.625 130.109 43.625 153.625C43.625 165.719 49.3359 174.453 54.375 179.492L62.4375 187.891L57.0625 198.305C55.7187 200.32 54.375 202.672 53.0312 205.023C59.0781 203.344 64.7891 200.656 70.5 196.961L76.2109 193.602L82.5937 194.945ZM175.648 137.836C212.938 139.18 242.5 165.047 242.5 196.625C242.5 210.734 236.453 223.5 227.047 233.578C232.422 244.328 239.812 252.391 240.148 252.391C242.5 255.078 242.836 258.438 241.492 261.461C240.484 264.82 237.461 266.5 234.102 266.5C215.625 266.5 200.844 260.117 190.766 253.734C184.719 255.078 178.672 255.75 172.625 255.75C145.078 255.75 121.227 242.312 109.805 222.828C115.516 222.156 121.227 220.812 126.266 218.797C135.672 231.562 152.805 239.625 172.625 239.625C177.328 239.625 182.031 239.289 187.07 237.945L193.453 236.602L199.164 239.961C204.875 243.656 210.586 246.344 216.633 248.023C215.289 245.672 213.945 243.32 212.602 241.305L207.227 230.891L215.289 222.492C220.328 217.453 226.375 208.719 226.375 196.625C226.375 174.453 204.875 156.312 177.664 153.961L178 153.625C178 148.25 176.992 142.875 175.648 137.836Z" fill="black"/>
<path d="M214.467 150.295C210.864 150.301 207.341 149.412 204.201 147.737L227.283 134.394L227.292 134.389L227.301 134.384C228.408 133.733 229.326 132.806 229.967 131.694C230.607 130.581 230.947 129.321 230.954 128.038L230.954 128.03V128.022V95.8927L236.342 99.0143L236.342 128.383C236.342 128.384 236.342 128.385 236.342 128.386C236.315 140.421 226.627 150.175 214.642 150.295L214.467 150.295ZM160.695 118.74L183.788 132.076C183.792 132.078 183.795 132.08 183.799 132.082C184.912 132.734 186.178 133.077 187.468 133.077C188.758 133.077 190.024 132.734 191.137 132.082C191.141 132.08 191.144 132.078 191.148 132.076L218.959 116.02V122.251L193.496 136.959C183.031 142.996 169.66 139.408 163.612 128.934L163.611 128.932C161.804 125.807 160.813 122.303 160.695 118.74ZM164.663 104.057C154.694 98.2682 150.974 85.8094 155.89 75.5665L156.647 74.2585C158.479 71.0916 161.063 68.4582 164.14 66.5729V93.2666C164.127 94.5553 164.458 95.8244 165.098 96.9431C165.741 98.0651 166.672 98.995 167.795 99.6358C167.798 99.6376 167.801 99.6393 167.804 99.6411L195.47 115.625L190.084 118.745L164.667 104.06C164.666 104.059 164.664 104.058 164.663 104.057ZM256.878 119.179C255.288 121.279 253.341 123.064 251.138 124.46V97.8191V97.7735L251.137 97.728C251.098 96.4501 250.728 95.204 250.063 94.112C249.403 93.0283 248.475 92.1353 247.372 91.5163L219.588 75.3587L224.956 72.2543L250.379 86.9669L250.381 86.9677C253.974 89.0445 256.904 92.1025 258.828 95.7853C260.752 99.468 261.591 103.623 261.245 107.766C260.9 111.908 259.385 115.867 256.878 119.179ZM223.958 58.8899C223.954 58.892 223.951 58.8941 223.947 58.8963L196.162 74.9499V68.7048L221.547 54.0381C225.149 51.9596 229.268 50.9515 233.421 51.1315C237.575 51.3114 241.591 52.672 245.001 55.0545C248.412 57.437 251.075 60.7432 252.678 64.5867C253.709 67.0571 254.275 69.6837 254.36 72.3353L231.333 58.8963C231.331 58.8955 231.33 58.8948 231.329 58.8941C230.21 58.2376 228.937 57.8913 227.64 57.8913C226.345 57.8913 225.075 58.2361 223.958 58.8899ZM184.088 63.0264L184.066 95.0915L178.674 91.9808L178.674 62.6651C178.674 62.6642 178.674 62.6633 178.674 62.6624C178.68 58.4982 179.869 54.422 182.103 50.9103C184.336 47.3979 187.522 44.5954 191.287 42.8301C195.051 41.0648 199.239 40.4093 203.362 40.94C205.986 41.2778 208.515 42.0876 210.832 43.3184L187.76 56.6559L187.75 56.6611L187.741 56.6664C186.634 57.3168 185.716 58.2439 185.076 59.3564L187.543 60.7765L185.076 59.3565C184.435 60.469 184.095 61.7288 184.088 63.0122L184.088 63.0193L184.088 63.0264ZM271.135 124.109C278.725 110.901 277.313 94.4247 267.745 82.7247C268.973 78.333 269.362 73.7432 268.885 69.1974C268.349 64.0846 266.731 59.145 264.138 54.7078C256.529 41.4559 241.522 34.4036 226.576 36.8861C222.482 32.7349 217.45 29.617 211.894 27.8033C205.794 25.8118 199.278 25.4627 193.001 26.7913C186.723 28.1199 180.906 31.0792 176.132 35.3716C171.786 39.2802 168.444 44.1688 166.378 49.622C161.964 50.7504 157.797 52.7063 154.102 55.3913C149.945 58.4112 146.48 62.2839 143.936 66.7507C136.256 79.9837 137.66 96.5468 147.295 108.275C146.063 112.664 145.67 117.251 146.142 121.795C146.673 126.908 148.288 131.85 150.879 136.289C158.494 149.543 173.506 156.595 188.456 154.113C191.637 157.372 195.408 160.004 199.574 161.864C204.263 163.958 209.345 165.027 214.48 164.999C229.778 165.009 243.393 155.477 248.701 141.242C253.11 140.111 257.272 138.156 260.965 135.473C265.123 132.452 268.59 128.578 271.135 124.109ZM196.139 88.9056L207.536 82.3273L218.959 88.9088V102.066L207.584 108.644L196.16 102.061L196.139 88.9056Z" fill="black" stroke="white" stroke-width="6"/>
</svg>
