<svg width="17" height="18" viewBox="0 0 17 18" fill="none" xmlns="http://www.w3.org/2000/svg">
    <path d="M7.93555 0.324219C8.30078 0.191406 8.66602 0.191406 9.03125 0.324219L15.9375 2.84766C16.5684 3.08008 17 3.67773 17 4.3418V12.9414C17 13.6055 16.5684 14.2031 15.9375 14.4355L9.03125 16.959C8.66602 17.0918 8.30078 17.0918 7.93555 16.959L1.0293 14.4355C0.398438 14.2031 0 13.6055 0 12.9414V4.3418C0 3.67773 0.398438 3.08008 1.0293 2.84766L7.93555 0.324219ZM8.66602 1.32031C8.5332 1.25391 8.43359 1.25391 8.30078 1.32031L1.46094 3.81055L8.5 6.56641L15.5059 3.81055L8.66602 1.32031ZM1.39453 13.4395L7.96875 15.8633V7.49609L1.0625 4.80664V12.9414C1.0625 13.1738 1.19531 13.373 1.39453 13.4395ZM9.03125 15.8633L15.5723 13.4395C15.7715 13.373 15.9375 13.1738 15.9375 12.9414V4.80664L9.03125 7.49609V15.8633Z" fill="#0E1114"/>
</svg>
