<svg xmlns="http://www.w3.org/2000/svg" viewBox="0 0 640 640"><!--! Font Awesome Pro 7.2.0 by @fontawesome - https://fontawesome.com License - https://fontawesome.com/license (Commercial License) Copyright 2026 Fonticons, Inc. --><path fill="currentColor" d="M566.6 118.6C579.1 106.1 579.1 85.8 566.6 73.3C554.1 60.8 533.8 60.8 521.3 73.3L400 194.7L400 144C400 126.3 385.7 112 368 112C350.3 112 336 126.3 336 144L336 272C336 289.7 350.3 304 368 304L496 304C513.7 304 528 289.7 528 272C528 254.3 513.7 240 496 240L445.3 240L566.7 118.6zM144 336C126.3 336 112 350.3 112 368C112 385.7 126.3 400 144 400L194.7 400L73.3 521.4C60.8 533.9 60.8 554.2 73.3 566.7C85.8 579.2 106.1 579.2 118.6 566.7L240 445.3L240 496C240 513.7 254.3 528 272 528C289.7 528 304 513.7 304 496L304 368C304 350.3 289.7 336 272 336L144 336z"/></svg>