<svg xmlns="http://www.w3.org/2000/svg" viewBox="0 0 640 640"><!--! Font Awesome Pro 7.2.0 by @fontawesome - https://fontawesome.com License - https://fontawesome.com/license (Commercial License) Copyright 2026 Fonticons, Inc. --><path fill="currentColor" d="M416 64C398.3 64 384 78.3 384 96C384 113.7 398.3 128 416 128L466.7 128L361.3 233.4C348.8 245.9 348.8 266.2 361.3 278.7C373.8 291.2 394.1 291.2 406.6 278.7L512 173.3L512 224C512 241.7 526.3 256 544 256C561.7 256 576 241.7 576 224L576 96C576 78.3 561.7 64 544 64L416 64zM278.6 361.4C266.1 348.9 245.8 348.9 233.3 361.4L128 466.7L128 416C128 398.3 113.7 384 96 384C78.3 384 64 398.3 64 416L64 544C64 561.7 78.3 576 96 576L224 576C241.7 576 256 561.7 256 544C256 526.3 241.7 512 224 512L173.3 512L278.7 406.6C291.2 394.1 291.2 373.8 278.7 361.3z"/></svg>