<svg xmlns="http://www.w3.org/2000/svg" viewBox="0 0 640 640"><!--! Font Awesome Pro 7.2.0 by @fontawesome - https://fontawesome.com License - https://fontawesome.com/license (Commercial License) Copyright 2026 Fonticons, Inc. --><path fill="currentColor" d="M208 224C208 229.4 208.4 234.8 209.1 240C251.2 240.3 289.8 255.3 320 280.2C350.2 255.3 388.8 240.2 430.9 240C431.6 234.8 432 229.4 432 224C432 162.1 381.9 112 320 112C258.1 112 208 162.1 208 224zM146.1 251.2C144.7 242.3 144 233.3 144 224C144 126.8 222.8 48 320 48C417.2 48 496 126.8 496 224C496 233.2 495.3 242.3 493.9 251.2C560.6 276.3 608 340.6 608 416C608 513.2 529.2 592 432 592C389.5 592 350.4 576.9 320 551.8C289.6 576.9 250.5 592 208 592C110.8 592 32 513.2 32 416C32 340.6 79.4 276.3 146.1 251.2zM381.9 388.8C383.3 397.7 384 406.7 384 416C384 447.5 375.7 477.2 361.2 502.8C380.5 518.6 405.2 528 432 528C493.9 528 544 477.9 544 416C544 368.5 514.4 327.9 472.7 311.6C452.5 346.8 420.4 374.3 381.9 388.8zM258.1 388.8C219.6 374.3 187.6 346.8 167.3 311.6C125.6 327.9 96 368.5 96 416C96 477.9 146.1 528 208 528C234.9 528 259.5 518.5 278.8 502.8C264.3 477.2 256 447.6 256 416C256 406.7 256.7 397.7 258.1 388.8z"/></svg>