<svg xmlns="http://www.w3.org/2000/svg" viewBox="0 0 640 640"><!--! Font Awesome Pro 7.2.0 by @fontawesome - https://fontawesome.com License - https://fontawesome.com/license (Commercial License) Copyright 2026 Fonticons, Inc. --><path fill="currentColor" d="M128 128C128 92.7 156.7 64 192 64L341.5 64C358.5 64 374.8 70.7 386.8 82.7L493.3 189.3C505.3 201.3 512 217.6 512 234.6L512 512C512 547.3 483.3 576 448 576L192 576C156.7 576 128 547.3 128 512L128 128zM336 122.5L336 216C336 229.3 346.7 240 360 240L453.5 240L336 122.5zM232 292C212.1 292 196 308.1 196 328L196 472C196 491.9 212.1 508 232 508L408 508C427.9 508 444 491.9 444 472L444 328C444 308.1 427.9 292 408 292L232 292zM236 468L236 420L300 420L300 468L236 468zM340 468L340 420L404 420L404 468L340 468zM340 380L340 332L404 332L404 380L340 380zM300 332L300 380L236 380L236 332L300 332z"/></svg>