<svg width="174" height="174" viewBox="0 0 174 174" fill="none" xmlns="http://www.w3.org/2000/svg">
<path d="M49.5 99.125C44.0859 99.125 40.2188 95.2578 40.2188 89.8438V46.5312C40.2188 41.5039 44.0859 37.25 49.5 37.25C54.5273 37.25 58.7812 41.5039 58.7812 46.5312V89.8438C58.7812 95.2578 54.5273 99.125 49.5 99.125ZM114.469 46.5312C114.469 41.5039 118.336 37.25 123.75 37.25C128.777 37.25 133.031 41.5039 133.031 46.5312V114.594C133.031 120.008 128.777 123.875 123.75 123.875C118.336 123.875 114.469 120.008 114.469 114.594V46.5312ZM86.625 86.75C81.2109 86.75 77.3438 82.8828 77.3438 77.4688V46.5312C77.3438 41.5039 81.2109 37.25 86.625 37.25C91.6523 37.25 95.9062 41.5039 95.9062 46.5312V77.4688C95.9062 82.8828 91.6523 86.75 86.625 86.75ZM0 24.875C0 11.3398 10.8281 0.125 24.75 0.125H148.5C162.035 0.125 173.25 11.3398 173.25 24.875V148.625C173.25 162.547 162.035 173.375 148.5 173.375H24.75C10.8281 173.375 0 162.547 0 148.625V24.875ZM24.75 154.812H148.5C151.594 154.812 154.688 152.105 154.688 148.625V24.875C154.688 21.7812 151.594 18.6875 148.5 18.6875H24.75C21.2695 18.6875 18.5625 21.7812 18.5625 24.875V148.625C18.5625 152.105 21.2695 154.812 24.75 154.812Z" fill="black"/>
</svg>
