<svg width="600" height="400" viewBox="0 0 600 400" fill="none" xmlns="http://www.w3.org/2000/svg">
<rect x="0.5" y="0.5" width="599" height="399" fill="white"/>
<path d="M203.822 73.196V70.5455H217.748V73.196H212.353V88H209.217V73.196H203.822ZM223.381 80.3295V88H220.296V70.5455H223.313V77.1335H223.467C223.773 76.3949 224.248 75.8125 224.89 75.3864C225.538 74.9545 226.362 74.7386 227.362 74.7386C228.271 74.7386 229.063 74.929 229.739 75.3097C230.415 75.6903 230.938 76.2472 231.308 76.9801C231.683 77.7131 231.87 78.608 231.87 79.6648V88H228.785V80.142C228.785 79.2614 228.558 78.5767 228.103 78.0881C227.654 77.5937 227.023 77.3466 226.211 77.3466C225.665 77.3466 225.177 77.4659 224.745 77.7045C224.319 77.9375 223.984 78.2756 223.739 78.7188C223.501 79.1619 223.381 79.6989 223.381 80.3295ZM240.81 88.2557C239.498 88.2557 238.364 87.983 237.41 87.4375C236.461 86.8864 235.731 86.108 235.219 85.1023C234.708 84.0909 234.452 82.9006 234.452 81.5312C234.452 80.1847 234.708 79.0028 235.219 77.9858C235.737 76.9631 236.458 76.1676 237.384 75.5994C238.31 75.0256 239.398 74.7386 240.648 74.7386C241.455 74.7386 242.217 74.8693 242.933 75.1307C243.654 75.3864 244.29 75.7841 244.842 76.3239C245.398 76.8636 245.836 77.5511 246.154 78.3864C246.472 79.2159 246.631 80.2045 246.631 81.3523V82.2983H235.901V80.2188H243.674C243.668 79.6278 243.54 79.1023 243.29 78.642C243.04 78.1761 242.691 77.8097 242.242 77.5426C241.799 77.2756 241.282 77.142 240.691 77.142C240.06 77.142 239.506 77.2955 239.029 77.6023C238.552 77.9034 238.18 78.3011 237.913 78.7955C237.651 79.2841 237.518 79.821 237.512 80.4062V82.2216C237.512 82.983 237.651 83.6364 237.93 84.1818C238.208 84.7216 238.597 85.1364 239.097 85.4261C239.597 85.7102 240.183 85.8523 240.853 85.8523C241.302 85.8523 241.708 85.7898 242.072 85.6648C242.435 85.5341 242.751 85.3438 243.018 85.0938C243.285 84.8438 243.487 84.5341 243.623 84.1648L246.504 84.4886C246.322 85.25 245.975 85.9148 245.464 86.483C244.958 87.0455 244.31 87.483 243.521 87.7955C242.731 88.1023 241.827 88.2557 240.81 88.2557ZM255.331 88V70.5455H262.013C263.274 70.5455 264.322 70.7443 265.158 71.142C265.999 71.5341 266.626 72.071 267.041 72.7528C267.462 73.4347 267.672 74.2074 267.672 75.071C267.672 75.7812 267.536 76.3892 267.263 76.8949C266.99 77.3949 266.624 77.8011 266.163 78.1136C265.703 78.4261 265.189 78.6506 264.621 78.7869V78.9574C265.24 78.9915 265.834 79.1818 266.402 79.5284C266.976 79.8693 267.445 80.3523 267.808 80.9773C268.172 81.6023 268.354 82.358 268.354 83.2443C268.354 84.1477 268.135 84.9602 267.697 85.6818C267.26 86.3977 266.601 86.9631 265.72 87.3778C264.839 87.7926 263.732 88 262.396 88H255.331ZM258.493 85.358H261.893C263.041 85.358 263.868 85.1392 264.374 84.7017C264.885 84.2585 265.141 83.6903 265.141 82.9972C265.141 82.4801 265.013 82.0142 264.757 81.5994C264.501 81.179 264.138 80.8494 263.666 80.6108C263.195 80.3665 262.632 80.2443 261.979 80.2443H258.493V85.358ZM258.493 77.9688H261.621C262.166 77.9688 262.658 77.8693 263.095 77.6705C263.533 77.4659 263.876 77.179 264.126 76.8097C264.382 76.4347 264.51 75.9915 264.51 75.4801C264.51 74.804 264.271 74.2472 263.794 73.8097C263.322 73.3722 262.621 73.1534 261.689 73.1534H258.493V77.9688ZM276.763 88.2557C275.451 88.2557 274.317 87.983 273.363 87.4375C272.414 86.8864 271.684 86.108 271.173 85.1023C270.661 84.0909 270.406 82.9006 270.406 81.5312C270.406 80.1847 270.661 79.0028 271.173 77.9858C271.69 76.9631 272.411 76.1676 273.337 75.5994C274.263 75.0256 275.352 74.7386 276.602 74.7386C277.408 74.7386 278.17 74.8693 278.886 75.1307C279.607 75.3864 280.244 75.7841 280.795 76.3239C281.352 76.8636 281.789 77.5511 282.107 78.3864C282.425 79.2159 282.585 80.2045 282.585 81.3523V82.2983H271.854V80.2188H279.627C279.621 79.6278 279.494 79.1023 279.244 78.642C278.994 78.1761 278.644 77.8097 278.195 77.5426C277.752 77.2756 277.235 77.142 276.644 77.142C276.013 77.142 275.46 77.2955 274.982 77.6023C274.505 77.9034 274.133 78.3011 273.866 78.7955C273.604 79.2841 273.471 79.821 273.465 80.4062V82.2216C273.465 82.983 273.604 83.6364 273.883 84.1818C274.161 84.7216 274.55 85.1364 275.05 85.4261C275.55 85.7102 276.136 85.8523 276.806 85.8523C277.255 85.8523 277.661 85.7898 278.025 85.6648C278.388 85.5341 278.704 85.3438 278.971 85.0938C279.238 84.8438 279.44 84.5341 279.576 84.1648L282.457 84.4886C282.275 85.25 281.928 85.9148 281.417 86.483C280.911 87.0455 280.263 87.483 279.474 87.7955C278.684 88.1023 277.781 88.2557 276.763 88.2557ZM291.732 74.9091V77.2955H284.206V74.9091H291.732ZM286.064 71.7727H289.149V84.0625C289.149 84.4773 289.212 84.7955 289.337 85.017C289.467 85.233 289.638 85.3807 289.848 85.4602C290.058 85.5398 290.291 85.5795 290.547 85.5795C290.74 85.5795 290.916 85.5653 291.075 85.5369C291.24 85.5085 291.365 85.483 291.45 85.4602L291.97 87.8722C291.805 87.929 291.57 87.9915 291.263 88.0597C290.962 88.1278 290.592 88.1676 290.155 88.179C289.382 88.2017 288.686 88.0852 288.067 87.8295C287.447 87.5682 286.956 87.1648 286.592 86.6193C286.234 86.0739 286.058 85.392 286.064 84.5739V71.7727ZM298.079 88.2642C297.249 88.2642 296.502 88.1165 295.837 87.821C295.178 87.5199 294.656 87.0767 294.269 86.4915C293.888 85.9062 293.698 85.1847 293.698 84.3267C293.698 83.5881 293.835 82.9773 294.107 82.4943C294.38 82.0114 294.752 81.625 295.224 81.3352C295.695 81.0455 296.227 80.8267 296.817 80.679C297.414 80.5256 298.031 80.4148 298.667 80.3466C299.434 80.267 300.056 80.196 300.533 80.1335C301.011 80.0653 301.357 79.9631 301.573 79.8267C301.795 79.6847 301.906 79.4659 301.906 79.1705V79.1193C301.906 78.4773 301.715 77.9801 301.335 77.6278C300.954 77.2756 300.406 77.0994 299.69 77.0994C298.934 77.0994 298.335 77.2642 297.891 77.5938C297.454 77.9233 297.158 78.3125 297.005 78.7614L294.124 78.3523C294.352 77.5568 294.727 76.892 295.249 76.358C295.772 75.8182 296.411 75.4148 297.167 75.1477C297.923 74.875 298.758 74.7386 299.673 74.7386C300.303 74.7386 300.931 74.8125 301.556 74.9602C302.181 75.108 302.752 75.3523 303.269 75.6932C303.786 76.0284 304.201 76.4858 304.513 77.0653C304.832 77.6449 304.991 78.3693 304.991 79.2386V88H302.025V86.2017H301.923C301.735 86.5653 301.471 86.9062 301.13 87.2244C300.795 87.5369 300.371 87.7898 299.86 87.983C299.354 88.1705 298.761 88.2642 298.079 88.2642ZM298.88 85.9972C299.499 85.9972 300.036 85.875 300.491 85.6307C300.945 85.3807 301.295 85.0511 301.539 84.642C301.789 84.233 301.914 83.7869 301.914 83.304V81.7614C301.817 81.8409 301.653 81.9148 301.42 81.983C301.192 82.0511 300.937 82.1108 300.653 82.1619C300.369 82.2131 300.087 82.2585 299.809 82.2983C299.531 82.3381 299.289 82.3722 299.085 82.4006C298.624 82.4631 298.212 82.5653 297.849 82.7074C297.485 82.8494 297.198 83.0483 296.988 83.304C296.778 83.554 296.673 83.8778 296.673 84.2756C296.673 84.8438 296.88 85.2727 297.295 85.5625C297.71 85.8523 298.238 85.9972 298.88 85.9972ZM314.183 88V70.5455H317.344V85.3494H325.032V88H314.183ZM331.407 88.2642C330.577 88.2642 329.83 88.1165 329.165 87.821C328.506 87.5199 327.984 87.0767 327.597 86.4915C327.217 85.9062 327.026 85.1847 327.026 84.3267C327.026 83.5881 327.163 82.9773 327.435 82.4943C327.708 82.0114 328.08 81.625 328.552 81.3352C329.023 81.0455 329.555 80.8267 330.146 80.679C330.742 80.5256 331.359 80.4148 331.995 80.3466C332.762 80.267 333.384 80.196 333.862 80.1335C334.339 80.0653 334.685 79.9631 334.901 79.8267C335.123 79.6847 335.234 79.4659 335.234 79.1705V79.1193C335.234 78.4773 335.043 77.9801 334.663 77.6278C334.282 77.2756 333.734 77.0994 333.018 77.0994C332.262 77.0994 331.663 77.2642 331.219 77.5938C330.782 77.9233 330.487 78.3125 330.333 78.7614L327.452 78.3523C327.68 77.5568 328.055 76.892 328.577 76.358C329.1 75.8182 329.739 75.4148 330.495 75.1477C331.251 74.875 332.086 74.7386 333.001 74.7386C333.631 74.7386 334.259 74.8125 334.884 74.9602C335.509 75.108 336.08 75.3523 336.597 75.6932C337.114 76.0284 337.529 76.4858 337.842 77.0653C338.16 77.6449 338.319 78.3693 338.319 79.2386V88H335.353V86.2017H335.251C335.063 86.5653 334.799 86.9062 334.458 87.2244C334.123 87.5369 333.7 87.7898 333.188 87.983C332.683 88.1705 332.089 88.2642 331.407 88.2642ZM332.208 85.9972C332.827 85.9972 333.364 85.875 333.819 85.6307C334.273 85.3807 334.623 85.0511 334.867 84.642C335.117 84.233 335.242 83.7869 335.242 83.304V81.7614C335.146 81.8409 334.981 81.9148 334.748 81.983C334.521 82.0511 334.265 82.1108 333.981 82.1619C333.697 82.2131 333.415 82.2585 333.137 82.2983C332.859 82.3381 332.617 82.3722 332.413 82.4006C331.952 82.4631 331.54 82.5653 331.177 82.7074C330.813 82.8494 330.526 83.0483 330.316 83.304C330.106 83.554 330.001 83.8778 330.001 84.2756C330.001 84.8438 330.208 85.2727 330.623 85.5625C331.038 85.8523 331.566 85.9972 332.208 85.9972ZM349.765 82.4943V74.9091H352.85V88H349.859V85.6733H349.722C349.427 86.4062 348.941 87.0057 348.265 87.4716C347.594 87.9375 346.768 88.1705 345.785 88.1705C344.927 88.1705 344.168 87.9801 343.509 87.5994C342.856 87.2131 342.344 86.6534 341.975 85.9205C341.606 85.1818 341.421 84.2898 341.421 83.2443V74.9091H344.506V82.767C344.506 83.5966 344.734 84.2557 345.188 84.7443C345.643 85.233 346.239 85.4773 346.978 85.4773C347.433 85.4773 347.873 85.3665 348.299 85.1449C348.725 84.9233 349.075 84.5938 349.347 84.1562C349.626 83.7131 349.765 83.1591 349.765 82.4943ZM359.108 80.3295V88H356.023V74.9091H358.972V77.1335H359.125C359.426 76.4006 359.906 75.8182 360.565 75.3864C361.23 74.9545 362.051 74.7386 363.028 74.7386C363.932 74.7386 364.719 74.9318 365.389 75.3182C366.065 75.7045 366.588 76.2642 366.957 76.9972C367.332 77.7301 367.517 78.6193 367.511 79.6648V88H364.426V80.142C364.426 79.267 364.199 78.5824 363.744 78.0881C363.295 77.5937 362.673 77.3466 361.878 77.3466C361.338 77.3466 360.858 77.4659 360.438 77.7045C360.023 77.9375 359.696 78.2756 359.457 78.7188C359.224 79.1619 359.108 79.6989 359.108 80.3295ZM376.358 88.2557C375.051 88.2557 373.929 87.9688 372.991 87.3949C372.06 86.821 371.341 86.0284 370.835 85.017C370.335 84 370.085 82.8295 370.085 81.5057C370.085 80.1761 370.341 79.0028 370.852 77.9858C371.364 76.9631 372.085 76.1676 373.017 75.5994C373.955 75.0256 375.063 74.7386 376.341 74.7386C377.403 74.7386 378.344 74.9347 379.162 75.3267C379.986 75.7131 380.642 76.2614 381.131 76.9716C381.619 77.6761 381.898 78.5 381.966 79.4432H379.017C378.898 78.8125 378.614 78.2869 378.165 77.8665C377.722 77.4403 377.128 77.2273 376.384 77.2273C375.753 77.2273 375.199 77.3977 374.722 77.7386C374.244 78.0739 373.872 78.5568 373.605 79.1875C373.344 79.8182 373.213 80.5739 373.213 81.4545C373.213 82.3466 373.344 83.1136 373.605 83.7557C373.866 84.392 374.233 84.8835 374.705 85.2301C375.182 85.571 375.741 85.7415 376.384 85.7415C376.838 85.7415 377.244 85.6562 377.602 85.4858C377.966 85.3097 378.27 85.0568 378.514 84.7273C378.759 84.3977 378.926 83.9972 379.017 83.5256H381.966C381.892 84.4517 381.619 85.2727 381.148 85.9886C380.676 86.6989 380.034 87.2557 379.222 87.6591C378.409 88.0568 377.455 88.2557 376.358 88.2557ZM387.585 80.3295V88H384.499V70.5455H387.516V77.1335H387.67C387.977 76.3949 388.451 75.8125 389.093 75.3864C389.741 74.9545 390.565 74.7386 391.565 74.7386C392.474 74.7386 393.266 74.929 393.942 75.3097C394.619 75.6903 395.141 76.2472 395.511 76.9801C395.886 77.7131 396.073 78.608 396.073 79.6648V88H392.988V80.142C392.988 79.2614 392.761 78.5767 392.306 78.0881C391.857 77.5937 391.227 77.3466 390.414 77.3466C389.869 77.3466 389.38 77.4659 388.948 77.7045C388.522 77.9375 388.187 78.2756 387.942 78.7188C387.704 79.1619 387.585 79.6989 387.585 80.3295Z" fill="#37434F"/>
<g filter="url(#filter0_ddd_702_2451)">
<rect x="217.091" y="112.253" width="168.436" height="168.994" rx="5.5" fill="white"/>
<path d="M289.458 160.455V207H281.026V168.659H280.754L269.867 175.614V167.886L281.435 160.455H289.458ZM299.996 207V200.909L316.155 185.068C317.701 183.508 318.989 182.121 320.019 180.909C321.049 179.697 321.822 178.523 322.337 177.386C322.852 176.25 323.11 175.038 323.11 173.75C323.11 172.28 322.777 171.023 322.11 169.977C321.443 168.917 320.527 168.098 319.36 167.523C318.193 166.947 316.868 166.659 315.383 166.659C313.852 166.659 312.512 166.977 311.36 167.614C310.208 168.235 309.315 169.121 308.678 170.273C308.057 171.424 307.746 172.795 307.746 174.386H299.724C299.724 171.432 300.398 168.864 301.746 166.682C303.095 164.5 304.951 162.811 307.315 161.614C309.693 160.417 312.421 159.818 315.496 159.818C318.618 159.818 321.36 160.402 323.724 161.568C326.087 162.735 327.921 164.333 329.224 166.364C330.542 168.394 331.201 170.712 331.201 173.318C331.201 175.061 330.868 176.773 330.201 178.455C329.534 180.136 328.36 182 326.678 184.045C325.012 186.091 322.671 188.568 319.655 191.477L311.633 199.636V199.955H331.905V207H299.996Z" fill="#37434F"/>
<path d="M286.491 238H283.195V227.818H286.595C287.593 227.818 288.45 228.022 289.166 228.43C289.881 228.834 290.43 229.416 290.811 230.175C291.196 230.93 291.388 231.837 291.388 232.894C291.388 233.955 291.194 234.866 290.806 235.629C290.422 236.391 289.865 236.978 289.136 237.388C288.407 237.796 287.525 238 286.491 238ZM284.731 236.658H286.406C287.182 236.658 287.827 236.512 288.34 236.22C288.854 235.925 289.238 235.499 289.494 234.942C289.749 234.382 289.877 233.7 289.877 232.894C289.877 232.095 289.749 231.418 289.494 230.861C289.242 230.304 288.866 229.881 288.365 229.593C287.865 229.305 287.243 229.161 286.501 229.161H284.731V236.658ZM293.932 238H292.302L295.966 227.818H297.741L301.405 238H299.774L296.896 229.668H296.816L293.932 238ZM294.206 234.013H299.496V235.305H294.206V234.013ZM301.331 227.818H303.076L305.735 232.447H305.845L308.505 227.818H310.25L306.556 234.003V238H305.024V234.003L301.331 227.818ZM317.533 230.493C317.48 230.022 317.262 229.658 316.877 229.399C316.493 229.137 316.009 229.006 315.425 229.006C315.008 229.006 314.646 229.073 314.342 229.205C314.037 229.335 313.8 229.513 313.631 229.742C313.465 229.968 313.382 230.224 313.382 230.513C313.382 230.755 313.438 230.964 313.551 231.139C313.667 231.315 313.818 231.462 314.003 231.582C314.192 231.698 314.395 231.795 314.61 231.875C314.825 231.951 315.033 232.014 315.231 232.064L316.226 232.322C316.551 232.402 316.884 232.51 317.225 232.646C317.566 232.781 317.883 232.96 318.175 233.183C318.466 233.405 318.702 233.68 318.881 234.008C319.063 234.336 319.154 234.729 319.154 235.186C319.154 235.763 319.005 236.275 318.707 236.722C318.412 237.17 317.982 237.523 317.419 237.781C316.859 238.04 316.181 238.169 315.386 238.169C314.623 238.169 313.964 238.048 313.407 237.806C312.85 237.564 312.414 237.221 312.099 236.777C311.784 236.33 311.61 235.799 311.577 235.186H313.119C313.148 235.554 313.268 235.861 313.476 236.106C313.689 236.348 313.959 236.528 314.287 236.648C314.618 236.764 314.981 236.822 315.376 236.822C315.81 236.822 316.196 236.754 316.534 236.618C316.875 236.479 317.144 236.286 317.339 236.041C317.535 235.793 317.633 235.503 317.633 235.171C317.633 234.87 317.547 234.623 317.374 234.43C317.205 234.238 316.975 234.079 316.683 233.953C316.395 233.827 316.068 233.716 315.704 233.62L314.501 233.292C313.685 233.07 313.039 232.743 312.562 232.312C312.088 231.882 311.851 231.312 311.851 230.602C311.851 230.016 312.01 229.504 312.328 229.066C312.646 228.629 313.077 228.289 313.621 228.047C314.164 227.802 314.777 227.679 315.46 227.679C316.15 227.679 316.758 227.8 317.285 228.042C317.815 228.284 318.233 228.617 318.538 229.041C318.842 229.462 319.002 229.946 319.015 230.493H317.533Z" fill="#64778C"/>
<rect x="217.091" y="112.253" width="168.436" height="168.994" rx="5.5" stroke="#DDE7F0"/>
</g>
<rect x="217.091" y="295.001" width="158" height="39" rx="5.5" fill="white"/>
<path d="M237.722 310.319H238.954V317.597C238.954 318.247 238.835 318.799 238.597 319.253C238.358 319.707 238.021 320.052 237.587 320.287C237.153 320.522 236.641 320.64 236.051 320.64C235.494 320.64 234.999 320.539 234.565 320.337C234.13 320.131 233.789 319.84 233.54 319.462C233.292 319.084 233.168 318.635 233.168 318.114H234.381C234.381 318.403 234.452 318.655 234.594 318.87C234.74 319.082 234.939 319.248 235.191 319.367C235.443 319.487 235.73 319.546 236.051 319.546C236.406 319.546 236.707 319.472 236.956 319.322C237.204 319.173 237.393 318.955 237.523 318.666C237.655 318.375 237.722 318.018 237.722 317.597V310.319ZM246.079 317.379V312.864H247.252V320.501H246.079V319.208H245.999C245.82 319.596 245.542 319.926 245.164 320.197C244.786 320.466 244.309 320.6 243.732 320.6C243.255 320.6 242.831 320.496 242.459 320.287C242.088 320.075 241.797 319.757 241.584 319.332C241.372 318.905 241.266 318.366 241.266 317.717V312.864H242.44V317.637C242.44 318.194 242.595 318.638 242.907 318.969C243.222 319.301 243.623 319.467 244.11 319.467C244.402 319.467 244.698 319.392 245 319.243C245.305 319.094 245.56 318.865 245.766 318.557C245.974 318.249 246.079 317.856 246.079 317.379ZM250.574 315.907V320.501H249.401V312.864H250.535V314.058H250.634C250.813 313.67 251.085 313.358 251.449 313.123C251.814 312.884 252.285 312.765 252.861 312.765C253.378 312.765 253.831 312.871 254.218 313.083C254.606 313.292 254.908 313.61 255.123 314.038C255.339 314.462 255.446 314.999 255.446 315.648V320.501H254.273V315.728C254.273 315.128 254.117 314.661 253.806 314.326C253.494 313.988 253.067 313.819 252.523 313.819C252.149 313.819 251.814 313.9 251.519 314.063C251.227 314.225 250.997 314.462 250.828 314.773C250.659 315.085 250.574 315.463 250.574 315.907ZM261.508 320.501V319.606L264.869 315.927C265.263 315.496 265.588 315.121 265.843 314.803C266.099 314.482 266.287 314.18 266.41 313.898C266.536 313.613 266.599 313.315 266.599 313.004C266.599 312.646 266.513 312.336 266.34 312.074C266.171 311.812 265.939 311.61 265.644 311.467C265.349 311.325 265.018 311.254 264.65 311.254C264.259 311.254 263.918 311.335 263.626 311.497C263.338 311.656 263.114 311.88 262.955 312.168C262.799 312.457 262.721 312.795 262.721 313.183H261.548C261.548 312.586 261.685 312.062 261.96 311.612C262.236 311.161 262.61 310.809 263.084 310.558C263.561 310.306 264.097 310.18 264.69 310.18C265.286 310.18 265.815 310.306 266.276 310.558C266.737 310.809 267.098 311.149 267.36 311.577C267.621 312.004 267.752 312.48 267.752 313.004C267.752 313.378 267.684 313.744 267.549 314.102C267.416 314.457 267.184 314.853 266.853 315.291C266.524 315.725 266.069 316.255 265.485 316.881L263.198 319.327V319.407H267.931V320.501H261.508ZM273.425 320.64C272.769 320.64 272.184 320.527 271.67 320.302C271.16 320.076 270.754 319.763 270.452 319.362C270.154 318.958 269.991 318.489 269.965 317.955H271.218C271.244 318.283 271.357 318.567 271.556 318.805C271.755 319.041 272.015 319.223 272.336 319.352C272.658 319.482 273.014 319.546 273.405 319.546C273.843 319.546 274.23 319.47 274.568 319.317C274.907 319.165 275.172 318.953 275.364 318.681C275.556 318.409 275.652 318.094 275.652 317.737C275.652 317.362 275.559 317.032 275.374 316.747C275.188 316.459 274.916 316.233 274.559 316.071C274.201 315.909 273.763 315.827 273.246 315.827H272.431V314.734H273.246C273.65 314.734 274.005 314.661 274.31 314.515C274.618 314.369 274.858 314.164 275.031 313.898C275.206 313.633 275.294 313.322 275.294 312.964C275.294 312.619 275.218 312.319 275.066 312.064C274.913 311.809 274.698 311.61 274.419 311.467C274.144 311.325 273.819 311.254 273.445 311.254C273.094 311.254 272.762 311.318 272.451 311.447C272.142 311.573 271.89 311.757 271.695 311.999C271.499 312.238 271.393 312.526 271.377 312.864H270.184C270.203 312.331 270.364 311.863 270.666 311.462C270.967 311.058 271.362 310.743 271.849 310.518C272.34 310.292 272.878 310.18 273.465 310.18C274.094 310.18 274.635 310.307 275.085 310.563C275.536 310.814 275.883 311.148 276.125 311.562C276.367 311.976 276.487 312.424 276.487 312.904C276.487 313.478 276.337 313.966 276.035 314.371C275.737 314.775 275.331 315.055 274.817 315.211V315.291C275.46 315.397 275.962 315.67 276.323 316.111C276.685 316.548 276.865 317.09 276.865 317.737C276.865 318.29 276.715 318.787 276.413 319.228C276.115 319.666 275.707 320.01 275.19 320.262C274.673 320.514 274.085 320.64 273.425 320.64ZM278.919 320.501V312.864H280.052V314.018H280.132C280.271 313.64 280.523 313.333 280.887 313.098C281.252 312.863 281.663 312.745 282.12 312.745C282.206 312.745 282.314 312.747 282.443 312.75C282.573 312.753 282.67 312.758 282.737 312.765V313.958C282.697 313.948 282.606 313.933 282.463 313.913C282.324 313.89 282.177 313.879 282.021 313.879C281.65 313.879 281.318 313.956 281.027 314.112C280.738 314.265 280.509 314.477 280.34 314.749C280.175 315.017 280.092 315.324 280.092 315.668V320.501H278.919ZM286.779 320.66C286.142 320.66 285.581 320.499 285.093 320.178C284.606 319.853 284.225 319.395 283.95 318.805C283.675 318.212 283.537 317.511 283.537 316.702C283.537 315.9 283.675 315.204 283.95 314.614C284.225 314.024 284.608 313.569 285.098 313.247C285.589 312.926 286.156 312.765 286.799 312.765C287.296 312.765 287.688 312.848 287.977 313.014C288.268 313.176 288.491 313.362 288.643 313.57C288.799 313.776 288.92 313.945 289.006 314.077H289.105V310.319H290.279V320.501H289.145V319.327H289.006C288.92 319.467 288.797 319.642 288.638 319.854C288.479 320.063 288.252 320.25 287.957 320.416C287.662 320.579 287.269 320.66 286.779 320.66ZM286.938 319.606C287.408 319.606 287.806 319.483 288.131 319.238C288.456 318.989 288.703 318.646 288.872 318.209C289.041 317.768 289.125 317.259 289.125 316.683C289.125 316.112 289.042 315.614 288.877 315.186C288.711 314.755 288.466 314.42 288.141 314.182C287.816 313.94 287.415 313.819 286.938 313.819C286.441 313.819 286.026 313.947 285.695 314.202C285.367 314.454 285.12 314.797 284.954 315.231C284.792 315.662 284.71 316.146 284.71 316.683C284.71 317.226 284.793 317.72 284.959 318.164C285.128 318.605 285.377 318.956 285.705 319.218C286.036 319.477 286.447 319.606 286.938 319.606ZM294.34 319.109L294.261 319.646C294.205 320.023 294.118 320.428 294.002 320.859C293.89 321.29 293.772 321.696 293.649 322.077C293.527 322.458 293.426 322.761 293.346 322.987H292.451C292.494 322.774 292.551 322.494 292.62 322.146C292.69 321.798 292.759 321.409 292.829 320.978C292.902 320.55 292.962 320.113 293.008 319.666L293.068 319.109H294.34ZM300.432 320.501V319.606L303.793 315.927C304.187 315.496 304.512 315.121 304.767 314.803C305.022 314.482 305.211 314.18 305.334 313.898C305.46 313.613 305.523 313.315 305.523 313.004C305.523 312.646 305.437 312.336 305.264 312.074C305.095 311.812 304.863 311.61 304.568 311.467C304.273 311.325 303.942 311.254 303.574 311.254C303.183 311.254 302.841 311.335 302.55 311.497C302.261 311.656 302.038 311.88 301.879 312.168C301.723 312.457 301.645 312.795 301.645 313.183H300.472C300.472 312.586 300.609 312.062 300.884 311.612C301.159 311.161 301.534 310.809 302.008 310.558C302.485 310.306 303.02 310.18 303.614 310.18C304.21 310.18 304.739 310.306 305.2 310.558C305.66 310.809 306.022 311.149 306.283 311.577C306.545 312.004 306.676 312.48 306.676 313.004C306.676 313.378 306.608 313.744 306.472 314.102C306.34 314.457 306.108 314.853 305.776 315.291C305.448 315.725 304.993 316.255 304.409 316.881L302.122 319.327V319.407H306.855V320.501H300.432ZM312.229 320.64C311.48 320.64 310.842 320.436 310.315 320.028C309.788 319.617 309.386 319.023 309.107 318.244C308.829 317.461 308.69 316.517 308.69 315.41C308.69 314.309 308.829 313.37 309.107 312.591C309.389 311.809 309.793 311.212 310.32 310.801C310.851 310.387 311.487 310.18 312.229 310.18C312.972 310.18 313.607 310.387 314.134 310.801C314.664 311.212 315.068 311.809 315.347 312.591C315.628 313.37 315.769 314.309 315.769 315.41C315.769 316.517 315.63 317.461 315.352 318.244C315.073 319.023 314.671 319.617 314.144 320.028C313.617 320.436 312.979 320.64 312.229 320.64ZM312.229 319.546C312.972 319.546 313.549 319.188 313.96 318.472C314.371 317.756 314.576 316.736 314.576 315.41C314.576 314.528 314.482 313.777 314.293 313.158C314.107 312.538 313.839 312.066 313.487 311.741C313.139 311.416 312.72 311.254 312.229 311.254C311.494 311.254 310.919 311.616 310.504 312.342C310.09 313.065 309.883 314.087 309.883 315.41C309.883 316.291 309.976 317.041 310.161 317.657C310.347 318.273 310.614 318.742 310.962 319.064C311.313 319.385 311.736 319.546 312.229 319.546ZM317.658 320.501V319.606L321.019 315.927C321.414 315.496 321.738 315.121 321.994 314.803C322.249 314.482 322.438 314.18 322.56 313.898C322.686 313.613 322.749 313.315 322.749 313.004C322.749 312.646 322.663 312.336 322.491 312.074C322.322 311.812 322.09 311.61 321.795 311.467C321.5 311.325 321.168 311.254 320.801 311.254C320.409 311.254 320.068 311.335 319.776 311.497C319.488 311.656 319.264 311.88 319.105 312.168C318.949 312.457 318.872 312.795 318.872 313.183H317.698C317.698 312.586 317.836 312.062 318.111 311.612C318.386 311.161 318.761 310.809 319.234 310.558C319.712 310.306 320.247 310.18 320.84 310.18C321.437 310.18 321.966 310.306 322.426 310.558C322.887 310.809 323.248 311.149 323.51 311.577C323.772 312.004 323.903 312.48 323.903 313.004C323.903 313.378 323.835 313.744 323.699 314.102C323.566 314.457 323.334 314.853 323.003 315.291C322.675 315.725 322.219 316.255 321.636 316.881L319.349 319.327V319.407H324.082V320.501H317.658ZM326.135 320.501V319.606L329.496 315.927C329.89 315.496 330.215 315.121 330.47 314.803C330.725 314.482 330.914 314.18 331.037 313.898C331.163 313.613 331.226 313.315 331.226 313.004C331.226 312.646 331.14 312.336 330.967 312.074C330.798 311.812 330.566 311.61 330.271 311.467C329.976 311.325 329.645 311.254 329.277 311.254C328.886 311.254 328.545 311.335 328.253 311.497C327.965 311.656 327.741 311.88 327.582 312.168C327.426 312.457 327.348 312.795 327.348 313.183H326.175C326.175 312.586 326.312 312.062 326.587 311.612C326.863 311.161 327.237 310.809 327.711 310.558C328.188 310.306 328.724 310.18 329.317 310.18C329.913 310.18 330.442 310.306 330.903 310.558C331.363 310.809 331.725 311.149 331.987 311.577C332.248 312.004 332.379 312.48 332.379 313.004C332.379 313.378 332.311 313.744 332.176 314.102C332.043 314.457 331.811 314.853 331.479 315.291C331.151 315.725 330.696 316.255 330.112 316.881L327.825 319.327V319.407H332.558V320.501H326.135Z" fill="#64778C"/>
<path d="M349.341 308.501H353.841V307.251C353.841 306.844 354.153 306.501 354.591 306.501C354.997 306.501 355.341 306.844 355.341 307.251V308.501H356.591C357.685 308.501 358.591 309.407 358.591 310.501V320.501C358.591 321.626 357.685 322.501 356.591 322.501H346.591C345.466 322.501 344.591 321.626 344.591 320.501V310.501C344.591 309.407 345.466 308.501 346.591 308.501H347.841V307.251C347.841 306.844 348.153 306.501 348.591 306.501C348.997 306.501 349.341 306.844 349.341 307.251V308.501ZM346.091 320.501C346.091 320.782 346.31 321.001 346.591 321.001H356.591C356.841 321.001 357.091 320.782 357.091 320.501V312.501H346.091V320.501Z" fill="#C1CFDE"/>
<rect x="217.091" y="295.001" width="158" height="39" rx="5.5" stroke="#EBF2F7"/>
<rect x="0.5" y="0.5" width="599" height="399" stroke="#C1CFDE"/>
<defs>
<filter id="filter0_ddd_702_2451" x="205.591" y="104.753" width="191.436" height="191.994" filterUnits="userSpaceOnUse" color-interpolation-filters="sRGB">
<feFlood flood-opacity="0" result="BackgroundImageFix"/>
<feColorMatrix in="SourceAlpha" type="matrix" values="0 0 0 0 0 0 0 0 0 0 0 0 0 0 0 0 0 0 127 0" result="hardAlpha"/>
<feOffset dy="0.5"/>
<feGaussianBlur stdDeviation="0.5"/>
<feColorMatrix type="matrix" values="0 0 0 0 0.152941 0 0 0 0 0.196078 0 0 0 0 0.337255 0 0 0 0.15 0"/>
<feBlend mode="normal" in2="BackgroundImageFix" result="effect1_dropShadow_702_2451"/>
<feColorMatrix in="SourceAlpha" type="matrix" values="0 0 0 0 0 0 0 0 0 0 0 0 0 0 0 0 0 0 127 0" result="hardAlpha"/>
<feOffset dy="2.59259"/>
<feGaussianBlur stdDeviation="3.22106"/>
<feColorMatrix type="matrix" values="0 0 0 0 0.152941 0 0 0 0 0.196078 0 0 0 0 0.337255 0 0 0 0.08 0"/>
<feBlend mode="normal" in2="effect1_dropShadow_702_2451" result="effect2_dropShadow_702_2451"/>
<feColorMatrix in="SourceAlpha" type="matrix" values="0 0 0 0 0 0 0 0 0 0 0 0 0 0 0 0 0 0 127 0" result="hardAlpha"/>
<feOffset dy="4"/>
<feGaussianBlur stdDeviation="5.5"/>
<feColorMatrix type="matrix" values="0 0 0 0 0.152941 0 0 0 0 0.196078 0 0 0 0 0.337255 0 0 0 0.04 0"/>
<feBlend mode="normal" in2="effect2_dropShadow_702_2451" result="effect3_dropShadow_702_2451"/>
<feBlend mode="normal" in="SourceGraphic" in2="effect3_dropShadow_702_2451" result="shape"/>
</filter>
</defs>
</svg>
