<svg width="452" height="336" viewBox="0 0 452 336" fill="none" xmlns="http://www.w3.org/2000/svg">
<rect width="452" height="335.456" rx="6" fill="white"/>
<path d="M129.875 42.6505V40H143.801V42.6505H138.406V57.4545H135.27V42.6505H129.875ZM149.434 49.784V57.4545H146.349V40H149.366V46.588H149.52C149.826 45.8494 150.301 45.267 150.943 44.8409C151.591 44.409 152.415 44.1931 153.415 44.1931C154.324 44.1931 155.116 44.3835 155.792 44.7642C156.468 45.1448 156.991 45.7017 157.361 46.4346C157.736 47.1676 157.923 48.0625 157.923 49.1193V57.4545H154.838V49.5965C154.838 48.7159 154.611 48.0312 154.156 47.5426C153.707 47.0482 153.076 46.8011 152.264 46.8011C151.718 46.8011 151.23 46.9204 150.798 47.159C150.372 47.392 150.037 47.7301 149.792 48.1733C149.554 48.6164 149.434 49.1534 149.434 49.784ZM166.863 57.7102C165.551 57.7102 164.417 57.4375 163.463 56.892C162.514 56.3409 161.784 55.5625 161.272 54.5568C160.761 53.5454 160.505 52.3551 160.505 50.9857C160.505 49.6392 160.761 48.4573 161.272 47.4403C161.79 46.4176 162.511 45.6221 163.437 45.0539C164.363 44.4801 165.451 44.1931 166.701 44.1931C167.508 44.1931 168.27 44.3238 168.986 44.5852C169.707 44.8409 170.343 45.2386 170.895 45.7784C171.451 46.3181 171.889 47.0056 172.207 47.8409C172.525 48.6704 172.684 49.659 172.684 50.8068V51.7528H161.954V49.6733H169.727C169.721 49.0823 169.593 48.5568 169.343 48.0965C169.093 47.6306 168.744 47.2642 168.295 46.9971C167.852 46.7301 167.335 46.5965 166.744 46.5965C166.113 46.5965 165.559 46.75 165.082 47.0568C164.605 47.3579 164.233 47.7556 163.966 48.25C163.704 48.7386 163.571 49.2755 163.565 49.8607V51.6761C163.565 52.4375 163.704 53.0909 163.983 53.6363C164.261 54.1761 164.65 54.5909 165.15 54.8806C165.65 55.1647 166.236 55.3068 166.906 55.3068C167.355 55.3068 167.761 55.2443 168.125 55.1193C168.488 54.9886 168.804 54.7983 169.071 54.5483C169.338 54.2983 169.54 53.9886 169.676 53.6193L172.557 53.9431C172.375 54.7045 172.028 55.3693 171.517 55.9375C171.011 56.5 170.363 56.9375 169.574 57.25C168.784 57.5568 167.88 57.7102 166.863 57.7102ZM181.384 57.4545V40H188.066C189.327 40 190.375 40.1988 191.211 40.5965C192.052 40.9886 192.679 41.5255 193.094 42.2073C193.515 42.8892 193.725 43.6619 193.725 44.5255C193.725 45.2357 193.589 45.8437 193.316 46.3494C193.043 46.8494 192.677 47.2556 192.216 47.5681C191.756 47.8806 191.242 48.1051 190.674 48.2414V48.4119C191.293 48.446 191.887 48.6363 192.455 48.9829C193.029 49.3238 193.498 49.8068 193.861 50.4318C194.225 51.0568 194.407 51.8125 194.407 52.6988C194.407 53.6022 194.188 54.4147 193.75 55.1363C193.313 55.8522 192.654 56.4176 191.773 56.8323C190.892 57.2471 189.785 57.4545 188.449 57.4545H181.384ZM184.546 54.8125H187.946C189.094 54.8125 189.921 54.5937 190.427 54.1562C190.938 53.713 191.194 53.1448 191.194 52.4517C191.194 51.9346 191.066 51.4687 190.81 51.0539C190.554 50.6335 190.191 50.3039 189.719 50.0653C189.248 49.821 188.685 49.6988 188.032 49.6988H184.546V54.8125ZM184.546 47.4233H187.674C188.219 47.4233 188.711 47.3238 189.148 47.125C189.586 46.9204 189.929 46.6335 190.179 46.2642C190.435 45.8892 190.563 45.446 190.563 44.9346C190.563 44.2585 190.324 43.7017 189.847 43.2642C189.375 42.8267 188.674 42.6079 187.742 42.6079H184.546V47.4233ZM202.816 57.7102C201.504 57.7102 200.37 57.4375 199.416 56.892C198.467 56.3409 197.737 55.5625 197.226 54.5568C196.714 53.5454 196.459 52.3551 196.459 50.9857C196.459 49.6392 196.714 48.4573 197.226 47.4403C197.743 46.4176 198.464 45.6221 199.39 45.0539C200.316 44.4801 201.405 44.1931 202.655 44.1931C203.461 44.1931 204.223 44.3238 204.939 44.5852C205.66 44.8409 206.297 45.2386 206.848 45.7784C207.405 46.3181 207.842 47.0056 208.16 47.8409C208.478 48.6704 208.638 49.659 208.638 50.8068V51.7528H197.907V49.6733H205.68C205.674 49.0823 205.547 48.5568 205.297 48.0965C205.047 47.6306 204.697 47.2642 204.248 46.9971C203.805 46.7301 203.288 46.5965 202.697 46.5965C202.066 46.5965 201.513 46.75 201.035 47.0568C200.558 47.3579 200.186 47.7556 199.919 48.25C199.657 48.7386 199.524 49.2755 199.518 49.8607V51.6761C199.518 52.4375 199.657 53.0909 199.936 53.6363C200.214 54.1761 200.603 54.5909 201.103 54.8806C201.603 55.1647 202.189 55.3068 202.859 55.3068C203.308 55.3068 203.714 55.2443 204.078 55.1193C204.441 54.9886 204.757 54.7983 205.024 54.5483C205.291 54.2983 205.493 53.9886 205.629 53.6193L208.51 53.9431C208.328 54.7045 207.981 55.3693 207.47 55.9375C206.964 56.5 206.316 56.9375 205.527 57.25C204.737 57.5568 203.834 57.7102 202.816 57.7102ZM217.785 44.3636V46.75H210.259V44.3636H217.785ZM212.117 41.2272H215.202V53.517C215.202 53.9318 215.265 54.25 215.39 54.4715C215.52 54.6875 215.691 54.8352 215.901 54.9147C216.111 54.9943 216.344 55.034 216.6 55.034C216.793 55.034 216.969 55.0198 217.128 54.9914C217.293 54.963 217.418 54.9375 217.503 54.9147L218.023 57.3267C217.858 57.3835 217.623 57.446 217.316 57.5142C217.015 57.5823 216.645 57.6221 216.208 57.6335C215.435 57.6562 214.739 57.5397 214.12 57.284C213.5 57.0227 213.009 56.6193 212.645 56.0738C212.287 55.5284 212.111 54.8465 212.117 54.0284V41.2272ZM224.132 57.7187C223.302 57.7187 222.555 57.571 221.89 57.2755C221.231 56.9744 220.709 56.5312 220.322 55.946C219.941 55.3607 219.751 54.6392 219.751 53.7812C219.751 53.0426 219.888 52.4318 220.16 51.9488C220.433 51.4659 220.805 51.0795 221.277 50.7897C221.748 50.5 222.28 50.2812 222.87 50.1335C223.467 49.9801 224.084 49.8693 224.72 49.8011C225.487 49.7215 226.109 49.6505 226.586 49.588C227.064 49.5198 227.41 49.4176 227.626 49.2812C227.848 49.1392 227.959 48.9204 227.959 48.625V48.5738C227.959 47.9318 227.768 47.4346 227.388 47.0823C227.007 46.7301 226.459 46.5539 225.743 46.5539C224.987 46.5539 224.388 46.7187 223.944 47.0483C223.507 47.3778 223.211 47.767 223.058 48.2159L220.177 47.8068C220.405 47.0113 220.78 46.3465 221.302 45.8125C221.825 45.2727 222.464 44.8693 223.22 44.6022C223.976 44.3295 224.811 44.1931 225.726 44.1931C226.356 44.1931 226.984 44.267 227.609 44.4147C228.234 44.5625 228.805 44.8068 229.322 45.1477C229.839 45.4829 230.254 45.9403 230.566 46.5198C230.885 47.0994 231.044 47.8238 231.044 48.6931V57.4545H228.078V55.6562H227.976C227.788 56.0198 227.524 56.3607 227.183 56.6789C226.848 56.9914 226.424 57.2443 225.913 57.4375C225.407 57.625 224.814 57.7187 224.132 57.7187ZM224.933 55.4517C225.552 55.4517 226.089 55.3295 226.544 55.0852C226.998 54.8352 227.348 54.5056 227.592 54.0965C227.842 53.6875 227.967 53.2414 227.967 52.7585V51.2159C227.87 51.2954 227.706 51.3693 227.473 51.4375C227.245 51.5056 226.99 51.5653 226.706 51.6164C226.422 51.6676 226.14 51.713 225.862 51.7528C225.584 51.7926 225.342 51.8267 225.138 51.8551C224.677 51.9176 224.265 52.0198 223.902 52.1619C223.538 52.3039 223.251 52.5028 223.041 52.7585C222.831 53.0085 222.726 53.3323 222.726 53.7301C222.726 54.2983 222.933 54.7272 223.348 55.017C223.763 55.3068 224.291 55.4517 224.933 55.4517ZM240.236 57.4545V40H243.397V54.8039H251.085V57.4545H240.236ZM257.46 57.7187C256.63 57.7187 255.883 57.571 255.218 57.2755C254.559 56.9744 254.037 56.5312 253.65 55.946C253.27 55.3607 253.079 54.6392 253.079 53.7812C253.079 53.0426 253.216 52.4318 253.488 51.9488C253.761 51.4659 254.133 51.0795 254.605 50.7897C255.076 50.5 255.608 50.2812 256.199 50.1335C256.795 49.9801 257.412 49.8693 258.048 49.8011C258.815 49.7215 259.437 49.6505 259.915 49.588C260.392 49.5198 260.738 49.4176 260.954 49.2812C261.176 49.1392 261.287 48.9204 261.287 48.625V48.5738C261.287 47.9318 261.096 47.4346 260.716 47.0823C260.335 46.7301 259.787 46.5539 259.071 46.5539C258.315 46.5539 257.716 46.7187 257.272 47.0483C256.835 47.3778 256.54 47.767 256.386 48.2159L253.505 47.8068C253.733 47.0113 254.108 46.3465 254.63 45.8125C255.153 45.2727 255.792 44.8693 256.548 44.6022C257.304 44.3295 258.139 44.1931 259.054 44.1931C259.684 44.1931 260.312 44.267 260.937 44.4147C261.562 44.5625 262.133 44.8068 262.65 45.1477C263.167 45.4829 263.582 45.9403 263.895 46.5198C264.213 47.0994 264.372 47.8238 264.372 48.6931V57.4545H261.406V55.6562H261.304C261.116 56.0198 260.852 56.3607 260.511 56.6789C260.176 56.9914 259.753 57.2443 259.241 57.4375C258.736 57.625 258.142 57.7187 257.46 57.7187ZM258.261 55.4517C258.88 55.4517 259.417 55.3295 259.872 55.0852C260.326 54.8352 260.676 54.5056 260.92 54.0965C261.17 53.6875 261.295 53.2414 261.295 52.7585V51.2159C261.199 51.2954 261.034 51.3693 260.801 51.4375C260.574 51.5056 260.318 51.5653 260.034 51.6164C259.75 51.6676 259.468 51.713 259.19 51.7528C258.912 51.7926 258.67 51.8267 258.466 51.8551C258.005 51.9176 257.593 52.0198 257.23 52.1619C256.866 52.3039 256.579 52.5028 256.369 52.7585C256.159 53.0085 256.054 53.3323 256.054 53.7301C256.054 54.2983 256.261 54.7272 256.676 55.017C257.091 55.3068 257.619 55.4517 258.261 55.4517ZM275.818 51.9488V44.3636H278.903V57.4545H275.912V55.1278H275.775C275.48 55.8607 274.994 56.4602 274.318 56.9261C273.647 57.392 272.821 57.625 271.838 57.625C270.98 57.625 270.221 57.4346 269.562 57.0539C268.909 56.6676 268.397 56.1079 268.028 55.375C267.659 54.6363 267.474 53.7443 267.474 52.6988V44.3636H270.559V52.2215C270.559 53.0511 270.787 53.7102 271.241 54.1988C271.696 54.6875 272.292 54.9318 273.031 54.9318C273.486 54.9318 273.926 54.821 274.352 54.5994C274.778 54.3778 275.128 54.0483 275.4 53.6107C275.679 53.1676 275.818 52.6136 275.818 51.9488ZM285.161 49.784V57.4545H282.076V44.3636H285.025V46.588H285.178C285.479 45.8551 285.959 45.2727 286.618 44.8409C287.283 44.409 288.104 44.1931 289.081 44.1931C289.985 44.1931 290.772 44.3863 291.442 44.7727C292.118 45.159 292.641 45.7187 293.01 46.4517C293.385 47.1846 293.57 48.0738 293.564 49.1193V57.4545H290.479V49.5965C290.479 48.7215 290.252 48.0369 289.797 47.5426C289.348 47.0482 288.726 46.8011 287.931 46.8011C287.391 46.8011 286.911 46.9204 286.491 47.159C286.076 47.392 285.749 47.7301 285.51 48.1733C285.277 48.6164 285.161 49.1534 285.161 49.784ZM302.411 57.7102C301.104 57.7102 299.982 57.4233 299.044 56.8494C298.113 56.2755 297.394 55.4829 296.888 54.4715C296.388 53.4545 296.138 52.284 296.138 50.9602C296.138 49.6306 296.394 48.4573 296.905 47.4403C297.417 46.4176 298.138 45.6221 299.07 45.0539C300.008 44.4801 301.116 44.1931 302.394 44.1931C303.456 44.1931 304.397 44.3892 305.215 44.7812C306.039 45.1676 306.695 45.7159 307.184 46.4261C307.672 47.1306 307.951 47.9545 308.019 48.8977H305.07C304.951 48.267 304.667 47.7414 304.218 47.321C303.775 46.8948 303.181 46.6818 302.437 46.6818C301.806 46.6818 301.252 46.8522 300.775 47.1931C300.297 47.5284 299.925 48.0113 299.658 48.642C299.397 49.2727 299.266 50.0284 299.266 50.909C299.266 51.8011 299.397 52.5681 299.658 53.2102C299.919 53.8465 300.286 54.338 300.758 54.6846C301.235 55.0255 301.794 55.196 302.437 55.196C302.891 55.196 303.297 55.1107 303.655 54.9403C304.019 54.7642 304.323 54.5113 304.567 54.1818C304.812 53.8522 304.979 53.4517 305.07 52.9801H308.019C307.945 53.9062 307.672 54.7272 307.201 55.4431C306.729 56.1534 306.087 56.7102 305.275 57.1136C304.462 57.5113 303.508 57.7102 302.411 57.7102ZM313.638 49.784V57.4545H310.552V40H313.569V46.588H313.723C314.03 45.8494 314.504 45.267 315.146 44.8409C315.794 44.409 316.618 44.1931 317.618 44.1931C318.527 44.1931 319.319 44.3835 319.995 44.7642C320.672 45.1448 321.194 45.7017 321.564 46.4346C321.939 47.1676 322.126 48.0625 322.126 49.1193V57.4545H319.041V49.5965C319.041 48.7159 318.814 48.0312 318.359 47.5426C317.91 47.0482 317.28 46.8011 316.467 46.8011C315.922 46.8011 315.433 46.9204 315.001 47.159C314.575 47.392 314.24 47.7301 313.995 48.1733C313.757 48.6164 313.638 49.1534 313.638 49.784Z" fill="#37434F"/>
<g filter="url(#filter0_ddd_638_2490)">
<path d="M304.811 81.7075H147.375C144.337 81.7075 141.875 84.17 141.875 87.2075V245.202C141.875 248.239 144.337 250.702 147.375 250.702H304.811C307.849 250.702 310.311 248.239 310.311 245.202V87.2075C310.311 84.17 307.849 81.7075 304.811 81.7075Z" fill="white"/>
<path d="M214.242 129.909V176.454H205.81V138.113H205.538L194.651 145.068V137.34L206.219 129.909H214.242ZM224.78 176.454V170.363L240.939 154.522C242.485 152.962 243.773 151.575 244.803 150.363C245.833 149.151 246.606 147.977 247.121 146.84C247.636 145.704 247.894 144.492 247.894 143.204C247.894 141.734 247.561 140.477 246.894 139.431C246.227 138.371 245.311 137.552 244.144 136.977C242.977 136.401 241.652 136.113 240.167 136.113C238.636 136.113 237.296 136.431 236.144 137.068C234.992 137.689 234.099 138.575 233.462 139.727C232.841 140.878 232.53 142.249 232.53 143.84H224.508C224.508 140.886 225.182 138.318 226.53 136.136C227.879 133.954 229.735 132.265 232.099 131.068C234.477 129.871 237.205 129.272 240.28 129.272C243.402 129.272 246.144 129.856 248.508 131.022C250.871 132.189 252.705 133.787 254.008 135.818C255.326 137.848 255.985 140.166 255.985 142.772C255.985 144.515 255.652 146.227 254.985 147.909C254.318 149.59 253.144 151.454 251.462 153.499C249.796 155.545 247.455 158.022 244.439 160.931L236.417 169.09V169.409H256.689V176.454H224.78Z" fill="#37434F"/>
<path d="M211.275 207.454H207.979V197.272H211.379C212.377 197.272 213.233 197.476 213.949 197.884C214.664 198.288 215.214 198.87 215.595 199.629C215.98 200.384 216.172 201.291 216.172 202.348C216.172 203.409 215.978 204.32 215.59 205.083C215.206 205.845 214.648 206.432 213.919 206.842C213.19 207.25 212.309 207.454 211.275 207.454ZM209.514 206.112H211.19C211.966 206.112 212.611 205.966 213.124 205.674C213.638 205.379 214.021 204.953 214.277 204.396C214.532 203.836 214.661 203.154 214.661 202.348C214.661 201.549 214.532 200.872 214.277 200.315C214.025 199.758 213.649 199.335 213.148 199.047C212.648 198.759 212.027 198.615 211.285 198.615H209.514V206.112ZM218.716 207.454H217.086L220.75 197.272H222.525L226.189 207.454H224.557L221.68 199.122H221.6L218.716 207.454ZM218.99 203.467H224.28V204.759H218.99V203.467ZM226.115 197.272H227.859L230.518 201.901H230.629L233.289 197.272H235.034L231.34 203.457V207.454H229.807V203.457L226.115 197.272ZM242.316 199.947C242.263 199.476 242.046 199.112 241.661 198.853C241.277 198.591 240.792 198.46 240.208 198.46C239.791 198.46 239.43 198.527 239.126 198.659C238.821 198.789 238.584 198.967 238.415 199.196C238.249 199.422 238.165 199.678 238.165 199.967C238.165 200.209 238.222 200.418 238.335 200.593C238.451 200.769 238.601 200.916 238.786 201.036C238.975 201.152 239.178 201.249 239.393 201.329C239.608 201.405 239.816 201.468 240.014 201.518L241.01 201.776C241.335 201.856 241.668 201.964 242.009 202.1C242.35 202.235 242.666 202.414 242.958 202.637C243.249 202.859 243.486 203.134 243.665 203.462C243.847 203.79 243.938 204.183 243.938 204.64C243.938 205.217 243.789 205.729 243.491 206.176C243.196 206.624 242.766 206.977 242.203 207.235C241.643 207.494 240.964 207.623 240.169 207.623C239.406 207.623 238.748 207.502 238.191 207.26C237.634 207.018 237.198 206.675 236.883 206.231C236.568 205.784 236.394 205.253 236.361 204.64H237.902C237.931 205.008 238.052 205.315 238.26 205.56C238.473 205.802 238.742 205.982 239.07 206.102C239.401 206.218 239.765 206.276 240.16 206.276C240.594 206.276 240.98 206.208 241.318 206.072C241.659 205.933 241.927 205.74 242.122 205.495C242.318 205.247 242.417 204.957 242.417 204.625C242.417 204.324 242.331 204.077 242.158 203.884C241.989 203.692 241.759 203.533 241.467 203.407C241.179 203.281 240.852 203.17 240.488 203.074L239.285 202.746C238.469 202.524 237.823 202.197 237.346 201.766C236.872 201.336 236.635 200.766 236.635 200.056C236.635 199.47 236.794 198.958 237.112 198.52C237.43 198.083 237.861 197.743 238.405 197.501C238.948 197.256 239.56 197.133 240.243 197.133C240.933 197.133 241.542 197.254 242.069 197.496C242.599 197.738 243.017 198.071 243.322 198.495C243.626 198.916 243.786 199.4 243.799 199.947H242.316Z" fill="#64778C"/>
<path d="M304.811 81.7075H147.375C144.337 81.7075 141.875 84.17 141.875 87.2075V245.202C141.875 248.239 144.337 250.702 147.375 250.702H304.811C307.849 250.702 310.311 248.239 310.311 245.202V87.2075C310.311 84.17 307.849 81.7075 304.811 81.7075Z" stroke="#DDE7F0"/>
</g>
<path d="M299.375 264.456H152.375C149.337 264.456 146.875 266.918 146.875 269.956V297.956C146.875 300.993 149.337 303.456 152.375 303.456H299.375C302.413 303.456 304.875 300.993 304.875 297.956V269.956C304.875 266.918 302.413 264.456 299.375 264.456Z" fill="white"/>
<path d="M167.506 279.774H168.738V287.052C168.738 287.702 168.619 288.254 168.381 288.708C168.142 289.162 167.805 289.507 167.371 289.742C166.937 289.977 166.425 290.095 165.835 290.095C165.278 290.095 164.783 289.994 164.349 289.792C163.914 289.586 163.573 289.295 163.324 288.917C163.076 288.539 162.952 288.09 162.952 287.569H164.165C164.165 287.858 164.236 288.11 164.378 288.325C164.524 288.537 164.723 288.703 164.975 288.822C165.227 288.942 165.514 289.001 165.835 289.001C166.19 289.001 166.491 288.927 166.74 288.777C166.988 288.628 167.177 288.41 167.307 288.121C167.439 287.83 167.506 287.473 167.506 287.052V279.774ZM175.863 286.834V282.319H177.036V289.956H175.863V288.663H175.783C175.604 289.051 175.326 289.381 174.948 289.652C174.57 289.921 174.093 290.055 173.516 290.055C173.039 290.055 172.615 289.951 172.243 289.742C171.872 289.53 171.581 289.212 171.368 288.787C171.156 288.36 171.05 287.821 171.05 287.172V282.319H172.224V287.092C172.224 287.649 172.379 288.093 172.691 288.424C173.006 288.756 173.407 288.922 173.894 288.922C174.186 288.922 174.482 288.847 174.784 288.698C175.089 288.549 175.344 288.32 175.55 288.012C175.758 287.704 175.863 287.311 175.863 286.834ZM180.358 285.362V289.956H179.185V282.319H180.319V283.513H180.418C180.597 283.125 180.869 282.813 181.233 282.578C181.598 282.339 182.069 282.22 182.645 282.22C183.162 282.22 183.615 282.326 184.002 282.538C184.39 282.747 184.692 283.065 184.907 283.493C185.123 283.917 185.23 284.454 185.23 285.103V289.956H184.057V285.183C184.057 284.583 183.901 284.116 183.59 283.781C183.278 283.443 182.851 283.274 182.307 283.274C181.933 283.274 181.598 283.355 181.303 283.518C181.011 283.68 180.781 283.917 180.612 284.228C180.443 284.54 180.358 284.918 180.358 285.362ZM191.292 289.956V289.061L194.653 285.382C195.047 284.951 195.372 284.576 195.627 284.258C195.883 283.937 196.071 283.635 196.194 283.353C196.32 283.068 196.383 282.77 196.383 282.459C196.383 282.101 196.297 281.791 196.124 281.529C195.955 281.267 195.723 281.065 195.428 280.922C195.133 280.78 194.802 280.709 194.434 280.709C194.043 280.709 193.702 280.79 193.41 280.952C193.122 281.111 192.898 281.335 192.739 281.623C192.583 281.912 192.505 282.25 192.505 282.638H191.332C191.332 282.041 191.469 281.517 191.744 281.067C192.02 280.616 192.394 280.264 192.868 280.013C193.345 279.761 193.881 279.635 194.474 279.635C195.07 279.635 195.599 279.761 196.06 280.013C196.521 280.264 196.882 280.604 197.144 281.032C197.405 281.459 197.536 281.935 197.536 282.459C197.536 282.833 197.468 283.199 197.333 283.557C197.2 283.912 196.968 284.308 196.637 284.746C196.308 285.18 195.853 285.71 195.269 286.336L192.982 288.782V288.862H197.715V289.956H191.292ZM203.209 290.095C202.553 290.095 201.968 289.982 201.454 289.757C200.944 289.531 200.538 289.218 200.236 288.817C199.938 288.413 199.775 287.944 199.749 287.41H201.002C201.028 287.738 201.141 288.022 201.34 288.26C201.539 288.496 201.799 288.678 202.12 288.807C202.442 288.937 202.798 289.001 203.189 289.001C203.627 289.001 204.014 288.925 204.352 288.772C204.691 288.62 204.956 288.408 205.148 288.136C205.34 287.864 205.436 287.549 205.436 287.192C205.436 286.817 205.343 286.487 205.158 286.202C204.972 285.914 204.7 285.688 204.343 285.526C203.985 285.364 203.547 285.282 203.03 285.282H202.215V284.189H203.03C203.434 284.189 203.789 284.116 204.094 283.97C204.402 283.824 204.642 283.619 204.815 283.353C204.99 283.088 205.078 282.777 205.078 282.419C205.078 282.074 205.002 281.774 204.85 281.519C204.697 281.264 204.482 281.065 204.203 280.922C203.928 280.78 203.603 280.709 203.229 280.709C202.878 280.709 202.546 280.773 202.235 280.902C201.926 281.028 201.674 281.212 201.479 281.454C201.283 281.693 201.177 281.981 201.161 282.319H199.968C199.987 281.786 200.148 281.318 200.45 280.917C200.751 280.513 201.146 280.198 201.633 279.973C202.124 279.747 202.662 279.635 203.249 279.635C203.878 279.635 204.419 279.762 204.869 280.018C205.32 280.269 205.667 280.603 205.909 281.017C206.151 281.431 206.271 281.879 206.271 282.359C206.271 282.933 206.121 283.421 205.819 283.826C205.521 284.23 205.115 284.51 204.601 284.666V284.746C205.244 284.852 205.746 285.125 206.107 285.566C206.469 286.003 206.649 286.545 206.649 287.192C206.649 287.745 206.499 288.242 206.197 288.683C205.899 289.121 205.491 289.465 204.974 289.717C204.457 289.969 203.869 290.095 203.209 290.095ZM208.703 289.956V282.319H209.836V283.473H209.916C210.055 283.095 210.307 282.788 210.671 282.553C211.036 282.318 211.447 282.2 211.904 282.2C211.99 282.2 212.098 282.202 212.227 282.205C212.357 282.208 212.454 282.213 212.521 282.22V283.413C212.481 283.403 212.39 283.388 212.247 283.368C212.108 283.345 211.961 283.334 211.805 283.334C211.434 283.334 211.102 283.411 210.811 283.567C210.522 283.72 210.293 283.932 210.124 284.204C209.959 284.472 209.876 284.779 209.876 285.123V289.956H208.703ZM216.563 290.115C215.926 290.115 215.365 289.954 214.877 289.633C214.39 289.308 214.009 288.85 213.734 288.26C213.459 287.667 213.321 286.966 213.321 286.157C213.321 285.355 213.459 284.659 213.734 284.069C214.009 283.479 214.392 283.024 214.882 282.702C215.373 282.381 215.94 282.22 216.583 282.22C217.08 282.22 217.472 282.303 217.761 282.469C218.052 282.631 218.275 282.817 218.427 283.025C218.583 283.231 218.704 283.4 218.79 283.532H218.889V279.774H220.063V289.956H218.929V288.782H218.79C218.704 288.922 218.581 289.097 218.422 289.309C218.263 289.518 218.036 289.705 217.741 289.871C217.446 290.034 217.053 290.115 216.563 290.115ZM216.722 289.061C217.192 289.061 217.59 288.938 217.915 288.693C218.24 288.444 218.487 288.101 218.656 287.664C218.825 287.223 218.909 286.714 218.909 286.138C218.909 285.567 218.826 285.069 218.661 284.641C218.495 284.21 218.25 283.875 217.925 283.637C217.6 283.395 217.199 283.274 216.722 283.274C216.225 283.274 215.81 283.402 215.479 283.657C215.151 283.909 214.904 284.252 214.738 284.686C214.576 285.117 214.494 285.601 214.494 286.138C214.494 286.681 214.577 287.175 214.743 287.619C214.912 288.06 215.161 288.411 215.489 288.673C215.82 288.932 216.231 289.061 216.722 289.061ZM224.124 288.564L224.045 289.101C223.989 289.478 223.902 289.883 223.786 290.314C223.674 290.745 223.556 291.151 223.433 291.532C223.311 291.913 223.21 292.216 223.13 292.442H222.235C222.278 292.229 222.335 291.949 222.404 291.601C222.474 291.253 222.543 290.864 222.613 290.433C222.686 290.005 222.746 289.568 222.792 289.121L222.852 288.564H224.124ZM230.216 289.956V289.061L233.577 285.382C233.971 284.951 234.296 284.576 234.551 284.258C234.806 283.937 234.995 283.635 235.118 283.353C235.244 283.068 235.307 282.77 235.307 282.459C235.307 282.101 235.221 281.791 235.048 281.529C234.879 281.267 234.647 281.065 234.352 280.922C234.057 280.78 233.726 280.709 233.358 280.709C232.967 280.709 232.625 280.79 232.334 280.952C232.045 281.111 231.822 281.335 231.663 281.623C231.507 281.912 231.429 282.25 231.429 282.638H230.256C230.256 282.041 230.393 281.517 230.668 281.067C230.943 280.616 231.318 280.264 231.792 280.013C232.269 279.761 232.804 279.635 233.398 279.635C233.994 279.635 234.523 279.761 234.984 280.013C235.444 280.264 235.806 280.604 236.067 281.032C236.329 281.459 236.46 281.935 236.46 282.459C236.46 282.833 236.392 283.199 236.256 283.557C236.124 283.912 235.892 284.308 235.56 284.746C235.232 285.18 234.777 285.71 234.193 286.336L231.906 288.782V288.862H236.639V289.956H230.216ZM242.013 290.095C241.264 290.095 240.626 289.891 240.099 289.483C239.572 289.072 239.17 288.478 238.891 287.699C238.613 286.916 238.474 285.972 238.474 284.865C238.474 283.764 238.613 282.825 238.891 282.046C239.173 281.264 239.577 280.667 240.104 280.256C240.635 279.842 241.271 279.635 242.013 279.635C242.756 279.635 243.391 279.842 243.918 280.256C244.448 280.667 244.852 281.264 245.131 282.046C245.412 282.825 245.553 283.764 245.553 284.865C245.553 285.972 245.414 286.916 245.136 287.699C244.857 288.478 244.455 289.072 243.928 289.483C243.401 289.891 242.763 290.095 242.013 290.095ZM242.013 289.001C242.756 289.001 243.333 288.643 243.744 287.927C244.155 287.211 244.36 286.191 244.36 284.865C244.36 283.983 244.266 283.232 244.077 282.613C243.891 281.993 243.623 281.521 243.271 281.196C242.923 280.871 242.504 280.709 242.013 280.709C241.278 280.709 240.703 281.071 240.288 281.797C239.874 282.52 239.667 283.542 239.667 284.865C239.667 285.746 239.76 286.496 239.945 287.112C240.131 287.728 240.398 288.197 240.746 288.519C241.097 288.84 241.52 289.001 242.013 289.001ZM247.442 289.956V289.061L250.803 285.382C251.198 284.951 251.522 284.576 251.778 284.258C252.033 283.937 252.222 283.635 252.344 283.353C252.47 283.068 252.533 282.77 252.533 282.459C252.533 282.101 252.447 281.791 252.275 281.529C252.106 281.267 251.874 281.065 251.579 280.922C251.284 280.78 250.952 280.709 250.585 280.709C250.193 280.709 249.852 280.79 249.56 280.952C249.272 281.111 249.048 281.335 248.889 281.623C248.733 281.912 248.656 282.25 248.656 282.638H247.482C247.482 282.041 247.62 281.517 247.895 281.067C248.17 280.616 248.545 280.264 249.018 280.013C249.496 279.761 250.031 279.635 250.624 279.635C251.221 279.635 251.75 279.761 252.21 280.013C252.671 280.264 253.032 280.604 253.294 281.032C253.556 281.459 253.687 281.935 253.687 282.459C253.687 282.833 253.619 283.199 253.483 283.557C253.35 283.912 253.118 284.308 252.787 284.746C252.459 285.18 252.003 285.71 251.42 286.336L249.133 288.782V288.862H253.866V289.956H247.442ZM255.919 289.956V289.061L259.28 285.382C259.674 284.951 259.999 284.576 260.254 284.258C260.509 283.937 260.698 283.635 260.821 283.353C260.947 283.068 261.01 282.77 261.01 282.459C261.01 282.101 260.924 281.791 260.751 281.529C260.582 281.267 260.35 281.065 260.055 280.922C259.76 280.78 259.429 280.709 259.061 280.709C258.67 280.709 258.329 280.79 258.037 280.952C257.749 281.111 257.525 281.335 257.366 281.623C257.21 281.912 257.132 282.25 257.132 282.638H255.959C255.959 282.041 256.096 281.517 256.371 281.067C256.647 280.616 257.021 280.264 257.495 280.013C257.972 279.761 258.508 279.635 259.101 279.635C259.697 279.635 260.226 279.761 260.687 280.013C261.147 280.264 261.509 280.604 261.771 281.032C262.032 281.459 262.163 281.935 262.163 282.459C262.163 282.833 262.095 283.199 261.96 283.557C261.827 283.912 261.595 284.308 261.263 284.746C260.935 285.18 260.48 285.71 259.896 286.336L257.609 288.782V288.862H262.342V289.956H255.919Z" fill="#64778C"/>
<path d="M279.125 277.956H283.625V276.706C283.625 276.299 283.937 275.956 284.375 275.956C284.781 275.956 285.125 276.299 285.125 276.706V277.956H286.375C287.469 277.956 288.375 278.862 288.375 279.956V289.956C288.375 291.081 287.469 291.956 286.375 291.956H276.375C275.25 291.956 274.375 291.081 274.375 289.956V279.956C274.375 278.862 275.25 277.956 276.375 277.956H277.625V276.706C277.625 276.299 277.937 275.956 278.375 275.956C278.781 275.956 279.125 276.299 279.125 276.706V277.956ZM275.875 289.956C275.875 290.237 276.094 290.456 276.375 290.456H286.375C286.625 290.456 286.875 290.237 286.875 289.956V281.956H275.875V289.956Z" fill="#C1CFDE"/>
<path d="M299.375 264.456H152.375C149.337 264.456 146.875 266.918 146.875 269.956V297.956C146.875 300.993 149.337 303.456 152.375 303.456H299.375C302.413 303.456 304.875 300.993 304.875 297.956V269.956C304.875 266.918 302.413 264.456 299.375 264.456Z" stroke="#EBF2F7"/>
<defs>
<filter id="filter0_ddd_638_2490" x="130.375" y="74.2075" width="191.436" height="191.994" filterUnits="userSpaceOnUse" color-interpolation-filters="sRGB">
<feFlood flood-opacity="0" result="BackgroundImageFix"/>
<feColorMatrix in="SourceAlpha" type="matrix" values="0 0 0 0 0 0 0 0 0 0 0 0 0 0 0 0 0 0 127 0" result="hardAlpha"/>
<feOffset dy="0.5"/>
<feGaussianBlur stdDeviation="0.5"/>
<feColorMatrix type="matrix" values="0 0 0 0 0.152941 0 0 0 0 0.196078 0 0 0 0 0.337255 0 0 0 0.15 0"/>
<feBlend mode="normal" in2="BackgroundImageFix" result="effect1_dropShadow_638_2490"/>
<feColorMatrix in="SourceAlpha" type="matrix" values="0 0 0 0 0 0 0 0 0 0 0 0 0 0 0 0 0 0 127 0" result="hardAlpha"/>
<feOffset dy="2.59259"/>
<feGaussianBlur stdDeviation="3.22106"/>
<feColorMatrix type="matrix" values="0 0 0 0 0.152941 0 0 0 0 0.196078 0 0 0 0 0.337255 0 0 0 0.08 0"/>
<feBlend mode="normal" in2="effect1_dropShadow_638_2490" result="effect2_dropShadow_638_2490"/>
<feColorMatrix in="SourceAlpha" type="matrix" values="0 0 0 0 0 0 0 0 0 0 0 0 0 0 0 0 0 0 127 0" result="hardAlpha"/>
<feOffset dy="4"/>
<feGaussianBlur stdDeviation="5.5"/>
<feColorMatrix type="matrix" values="0 0 0 0 0.152941 0 0 0 0 0.196078 0 0 0 0 0.337255 0 0 0 0.04 0"/>
<feBlend mode="normal" in2="effect2_dropShadow_638_2490" result="effect3_dropShadow_638_2490"/>
<feBlend mode="normal" in="SourceGraphic" in2="effect3_dropShadow_638_2490" result="shape"/>
</filter>
</defs>
</svg>
