<svg width="300" height="200" fill="none" xmlns="http://www.w3.org/2000/svg"><rect x=".5" y=".5" width="299" height="199" rx="3.5" fill="#37434F"/><path d="M27.26 37.326c0-.273.075-.483.226-.63.152-.146.364-.22.637-.22.274 0 .484.074.63.22.147.147.22.357.22.63 0 .283-.073.498-.22.645-.146.146-.356.22-.63.22-.576 0-.864-.289-.864-.865Zm10.876-1.692 1.384.19c-.151.723-.513 1.295-1.084 1.715-.571.415-1.28.622-2.124.622-1.01 0-1.794-.308-2.351-.923-.552-.62-.828-1.504-.828-2.651 0-.747.113-1.409.337-1.985a3.053 3.053 0 0 1 1.07-1.384c.483-.352 1.064-.528 1.743-.528a3.5 3.5 0 0 1 1.955.564c.577.376.962.87 1.157 1.48l-1.325.388a1.714 1.714 0 0 0-.66-.952 1.826 1.826 0 0 0-1.098-.344c-.615 0-1.077.246-1.384.74-.303.493-.454 1.19-.454 2.094 0 .777.16 1.367.483 1.773.322.405.798.608 1.428.608.474 0 .864-.12 1.172-.36.308-.243.5-.593.579-1.047Zm6.072 2.527c-.772 0-1.419-.18-1.941-.542-.523-.361-.784-.864-.784-1.509 0-.722.352-1.27 1.055-1.64.708-.371 1.753-.557 3.134-.557.083 0 .205.003.367.007.166.005.288.008.366.008-.034-.63-.235-1.143-.6-1.538-.362-.4-.824-.6-1.385-.6-.669 0-1.365.343-2.087 1.032l-.726-.887a3.91 3.91 0 0 1 1.275-.922 3.627 3.627 0 0 1 1.501-.323c.943 0 1.717.318 2.322.953.61.634.916 1.44.916 2.417v3.852l-.066-.059V38h-1.502c.147-.21.247-.415.3-.615-.478.517-1.193.776-2.145.776Zm-1.487-2.05c0 .317.134.566.403.746.268.181.607.271 1.018.271.42 0 .835-.095 1.245-.285.415-.19.754-.464 1.018-.82v-1.026h-.689c-1.04 0-1.799.088-2.278.264-.478.17-.717.454-.717.85ZM55.2 38h-5.5v-1.025h2.168v-5.076l-1.429-.088v-.938h2.798c-.107.171-.173.352-.197.543.405-.484 1.064-.726 1.977-.726.322 0 .808.12 1.458.36l-.762 1.178c-.386-.21-.742-.314-1.07-.314-.385 0-.73.11-1.032.33a1.377 1.377 0 0 0-.572.841v3.89h2.051v.139c0 .366.037.661.11.886Zm2.622-3.765c0-1.123.274-1.994.82-2.614.552-.62 1.316-.93 2.293-.93.87 0 1.553.29 2.05.871v-3.325l1.217.073v8.804c0 .38.031.676.095.886h-1.311v-.44c-.542.4-1.175.601-1.897.601-.977 0-1.765-.359-2.366-1.077-.6-.717-.9-1.667-.9-2.849Zm3.164-2.475c-.595 0-1.072.227-1.428.68-.356.45-.535 1.053-.535 1.81 0 .806.196 1.467.586 1.985.391.517.892.776 1.502.776.932 0 1.557-.32 1.875-.96v-2.988a2.545 2.545 0 0 0-.864-.959 2.038 2.038 0 0 0-1.136-.344ZM27.26 113.326c0-.273.076-.483.227-.63.152-.146.364-.219.637-.219.274 0 .484.073.63.219.147.147.22.357.22.63 0 .283-.073.498-.22.645-.146.146-.356.219-.63.219-.576 0-.864-.288-.864-.864Zm10.877-1.692 1.384.191c-.151.722-.513 1.294-1.084 1.714-.571.415-1.28.622-2.124.622-1.01 0-1.794-.307-2.351-.923-.552-.62-.828-1.504-.828-2.651 0-.747.113-1.409.337-1.985a3.05 3.05 0 0 1 1.07-1.384c.483-.352 1.064-.528 1.743-.528a3.5 3.5 0 0 1 1.955.564c.577.376.962.87 1.157 1.48l-1.325.388a1.713 1.713 0 0 0-.66-.952 1.822 1.822 0 0 0-1.098-.344c-.615 0-1.077.246-1.384.739-.303.494-.454 1.192-.454 2.095 0 .777.16 1.367.483 1.773.322.405.798.608 1.428.608.474 0 .864-.12 1.172-.359.308-.244.5-.594.579-1.048Zm6.072 2.527c-.772 0-1.419-.181-1.941-.542-.523-.361-.784-.864-.784-1.509 0-.722.352-1.269 1.055-1.64.708-.371 1.753-.557 3.134-.557.083 0 .205.003.367.007.166.005.288.008.366.008-.034-.63-.235-1.143-.6-1.538-.362-.401-.824-.601-1.385-.601-.669 0-1.365.344-2.087 1.033l-.726-.886a3.903 3.903 0 0 1 1.275-.923 3.625 3.625 0 0 1 1.501-.323c.943 0 1.717.318 2.322.953.61.634.916 1.44.916 2.417v3.852l-.066-.058V114h-1.502c.147-.21.247-.415.3-.615-.478.517-1.193.776-2.145.776Zm-1.487-2.051c0 .318.134.567.403.747.268.181.607.271 1.018.271.42 0 .835-.095 1.245-.285a2.584 2.584 0 0 0 1.018-.821v-1.025h-.689c-1.04 0-1.799.088-2.278.264-.478.171-.717.454-.717.849ZM55.2 114h-5.5v-1.025h2.168v-5.076l-1.429-.088v-.937h2.798c-.107.17-.173.351-.197.542.405-.484 1.064-.726 1.977-.726.322 0 .808.12 1.458.359l-.762 1.18c-.386-.21-.742-.315-1.07-.315-.385 0-.73.109-1.032.329a1.38 1.38 0 0 0-.572.842v3.89h2.051v.139c0 .366.037.661.11.886Zm2.622-3.765c0-1.123.274-1.994.82-2.614.552-.621 1.316-.931 2.293-.931.87 0 1.553.291 2.05.872v-3.325l1.217.073v8.804c0 .381.031.676.095.886h-1.311v-.439c-.542.4-1.175.6-1.897.6-.977 0-1.765-.359-2.366-1.077-.6-.717-.9-1.667-.9-2.849Zm3.164-2.475c-.595 0-1.072.227-1.428.681-.356.449-.535 1.052-.535 1.809 0 .806.196 1.467.586 1.985.391.517.892.776 1.502.776.932 0 1.557-.32 1.875-.959v-2.989a2.547 2.547 0 0 0-.864-.959 2.042 2.042 0 0 0-1.136-.344Zm10.862 1.889v1.165h-4.966v-1.165h4.966ZM75.321 114c-.19-.771-.337-1.377-.44-1.816a73.208 73.208 0 0 1-.344-1.685 19.846 19.846 0 0 1-.366-3.809h1.201c0 1.661.225 3.406.674 5.237.488-1.294.818-2.407.989-3.34h1.2c.157.962.453 2.076.887 3.34.464-1.733.696-3.479.696-5.237h1.216a19.3 19.3 0 0 1-.403 3.802 37.575 37.575 0 0 1-.388 1.699 73.342 73.342 0 0 1-.484 1.809h-1.113c-.542-1.436-.894-2.539-1.055-3.311-.18.704-.566 1.807-1.157 3.311h-1.113Zm13.293 0h-5.5v-1.025h2.175v-5.076l-1.42-.088v-.937h2.6v6.101h2.05v.139c0 .381.032.676.095.886Zm-3.713-9.038c0-.274.073-.481.22-.623.146-.141.359-.212.637-.212.556 0 .835.278.835.835 0 .566-.279.85-.835.85-.572 0-.857-.284-.857-.85Zm6.313 3.025v-1.113h1.114v-2.637l1.208.073v2.564h2.966v1.113h-2.966v3.435c0 .493.125.879.374 1.157.254.274.559.41.915.41.278 0 .542-.088.791-.263.254-.176.457-.44.608-.791l1.091.49c-.268.586-.622 1.026-1.062 1.319-.439.288-.905.432-1.398.432-.684 0-1.277-.252-1.78-.755-.498-.503-.747-1.169-.747-1.999v-3.435h-1.114Zm8.138-3.75 1.208.073v3.179c.22-.244.515-.437.886-.579.371-.146.747-.22 1.128-.22.449 0 .845.103 1.187.308.346.205.62.483.82.835.205.347.357.728.454 1.143.103.415.154.852.154 1.311v2.827c0 .366.037.661.11.886h-1.384v-3.962c0-.616-.169-1.128-.506-1.538-.332-.411-.781-.616-1.347-.616-.635 0-1.136.327-1.502.982V114h-1.208v-9.763Zm13.732 5.412v1.165h-4.965v-1.165h4.965Zm5.347 4.512c-.771 0-1.418-.181-1.941-.542-.522-.361-.783-.864-.783-1.509 0-.722.351-1.269 1.054-1.64.708-.371 1.753-.557 3.135-.557.083 0 .205.003.366.007.166.005.288.008.366.008-.034-.63-.234-1.143-.6-1.538-.361-.401-.823-.601-1.384-.601-.669 0-1.365.344-2.088 1.033l-.725-.886a3.906 3.906 0 0 1 1.274-.923 3.626 3.626 0 0 1 1.502-.323c.942 0 1.716.318 2.322.953.61.634.915 1.44.915 2.417v3.852l-.066-.058V114h-1.501c.146-.21.246-.415.3-.615-.478.517-1.194.776-2.146.776Zm-1.487-2.051c0 .318.135.567.403.747.269.181.608.271 1.018.271.42 0 .835-.095 1.245-.285a2.58 2.58 0 0 0 1.018-.821v-1.025h-.688c-1.04 0-1.799.088-2.278.264-.478.171-.718.454-.718.849Zm12.935 1.89h-5.501v-1.025h2.11v-7.64l-1.421-.087v-.938h2.637v8.665h2.058v.139c0 .351.039.647.117.886Zm2.322-7.126h1.56a2.23 2.23 0 0 0-.301.629c.494-.542 1.16-.813 2-.813.977 0 1.738.313 2.285.938.552.62.828 1.494.828 2.622 0 1.182-.301 2.131-.901 2.849-.596.718-1.382 1.077-2.359 1.077a3.13 3.13 0 0 1-1.904-.615v2.878l-1.208.088v-9.653Zm1.208 2.189v2.989c.318.639.943.959 1.875.959.611 0 1.111-.256 1.502-.769.39-.517.586-1.177.586-1.977 0-.757-.179-1.36-.535-1.809-.357-.455-.833-.682-1.428-.682-.41 0-.791.113-1.143.337a2.588 2.588 0 0 0-.857.952Zm7.178-4.826 1.208.073v3.179c.22-.244.516-.437.887-.579.371-.146.747-.22 1.128-.22.449 0 .844.103 1.186.308.347.205.62.483.82.835.205.347.357.728.455 1.143.102.415.153.852.153 1.311v2.827c0 .366.037.661.11.886h-1.384v-3.962c0-.616-.169-1.128-.505-1.538-.333-.411-.782-.616-1.348-.616-.635 0-1.135.327-1.502.982V114h-1.208v-9.763Zm10.832 9.924c-.771 0-1.418-.181-1.94-.542-.523-.361-.784-.864-.784-1.509 0-.722.351-1.269 1.055-1.64.708-.371 1.752-.557 3.134-.557.083 0 .205.003.366.007.167.005.289.008.367.008-.034-.63-.235-1.143-.601-1.538-.361-.401-.823-.601-1.384-.601-.669 0-1.365.344-2.088 1.033l-.725-.886a3.899 3.899 0 0 1 1.275-.923 3.622 3.622 0 0 1 1.501-.323c.943 0 1.717.318 2.322.953.61.634.916 1.44.916 2.417v3.852l-.066-.058V114h-1.502c.147-.21.247-.415.3-.615-.478.517-1.193.776-2.146.776Zm-1.486-2.051c0 .318.134.567.402.747.269.181.608.271 1.019.271.419 0 .834-.095 1.245-.285a2.587 2.587 0 0 0 1.018-.821v-1.025h-.689c-1.04 0-1.799.088-2.278.264-.478.171-.717.454-.717.849Z" fill="#BDB4FE"/><path d="M126.224 55.96c0-.278.073-.488.22-.63.151-.146.366-.22.644-.22.567 0 .85.284.85.85 0 .566-.283.85-.85.85-.576 0-.864-.284-.864-.85Zm0-4.673c0-.273.073-.48.22-.622.151-.142.366-.213.644-.213.567 0 .85.279.85.835 0 .576-.283.864-.85.864-.576 0-.864-.288-.864-.864ZM142.894 57l-2.519-7.127h1.281l1.839 5.164 1.999-5.163h1.275L144.059 57h-1.165Zm8.525.161c-.771 0-1.418-.18-1.94-.542-.523-.361-.784-.864-.784-1.509 0-.722.351-1.27 1.055-1.64.708-.371 1.752-.557 3.134-.557.083 0 .205.003.366.007.167.005.289.008.367.008-.034-.63-.235-1.143-.601-1.538-.361-.4-.823-.6-1.384-.6-.669 0-1.365.343-2.088 1.032l-.725-.887c.371-.4.796-.708 1.275-.922a3.624 3.624 0 0 1 1.501-.323c.943 0 1.717.318 2.322.953.61.634.916 1.44.916 2.417v3.852l-.066-.059V57h-1.502c.147-.21.247-.415.3-.615-.478.517-1.193.776-2.146.776Zm-1.486-2.05c0 .317.134.566.402.746.269.181.608.271 1.019.271.419 0 .834-.095 1.245-.285.415-.19.754-.464 1.018-.82v-1.026h-.689c-1.04 0-1.799.088-2.278.264-.478.17-.717.454-.717.85ZM162.413 57h-5.5v-1.025h2.168v-5.076l-1.429-.088v-.938h2.798c-.107.171-.173.352-.198.543.406-.484 1.065-.726 1.978-.726.322 0 .808.12 1.458.36l-.762 1.178c-.386-.21-.742-.314-1.07-.314-.385 0-.73.11-1.032.33a1.38 1.38 0 0 0-.572.841v3.89h2.051v.139c0 .366.037.661.11.886Zm5.471-3.684c0 1.055.176 1.992.528 2.812.356.816.964 1.682 1.823 2.6l-.747.762c-1.054-.986-1.819-1.968-2.292-2.944-.474-.977-.711-2.053-.711-3.23 0-1.167.235-2.227.703-3.179.474-.957 1.241-1.93 2.3-2.922l.747.762c-.864.922-1.472 1.782-1.823 2.578-.352.796-.528 1.716-.528 2.76Zm11.177-.667v1.165h-4.966v-1.165h4.966Zm8.247 0v1.165h-4.966v-1.165h4.966Zm7.522 1.985 1.384.19c-.151.723-.512 1.295-1.084 1.715-.571.415-1.279.622-2.124.622-1.01 0-1.794-.308-2.351-.923-.551-.62-.827-1.504-.827-2.651 0-.747.112-1.409.337-1.985a3.044 3.044 0 0 1 1.069-1.384c.483-.352 1.064-.528 1.743-.528.728 0 1.379.188 1.956.564.576.376.962.87 1.157 1.48l-1.326.388a1.714 1.714 0 0 0-.659-.952 1.827 1.827 0 0 0-1.099-.344c-.615 0-1.076.246-1.384.74-.303.493-.454 1.19-.454 2.094 0 .777.161 1.367.483 1.773.323.405.799.608 1.429.608.473 0 .864-.12 1.171-.36.308-.243.501-.593.579-1.047Zm8.862 1.546c-.6.664-1.399.996-2.395.996s-1.792-.332-2.387-.996c-.591-.67-.887-1.575-.887-2.718 0-1.137.293-2.05.879-2.739.586-.688 1.377-1.033 2.373-1.033 1.006 0 1.812.347 2.417 1.04.606.694.909 1.61.909 2.747 0 1.133-.303 2.034-.909 2.703Zm-2.351-.052c.596 0 1.062-.23 1.399-.688.342-.464.513-1.118.513-1.963 0-.86-.173-1.533-.52-2.021-.342-.494-.816-.74-1.421-.74-.605 0-1.079.244-1.421.732-.342.484-.513 1.15-.513 2 0 .85.174 1.508.52 1.977.347.469.828.703 1.443.703ZM212.35 57h-5.501v-1.025h2.109v-7.64l-1.42-.087v-.938h2.636v8.665h2.058v.139c0 .351.039.647.118.886Zm7.837-.82c-.601.664-1.399.996-2.395.996-.997 0-1.792-.332-2.388-.996-.591-.67-.886-1.575-.886-2.718 0-1.137.293-2.05.878-2.739.586-.688 1.377-1.033 2.374-1.033 1.005 0 1.811.347 2.417 1.04.605.694.908 1.61.908 2.747 0 1.133-.303 2.034-.908 2.703Zm-2.352-.052c.596 0 1.062-.23 1.399-.688.342-.464.513-1.118.513-1.963 0-.86-.173-1.533-.52-2.021-.342-.494-.815-.74-1.421-.74-.605 0-1.079.244-1.421.732-.342.484-.512 1.15-.512 2 0 .85.173 1.508.52 1.977.346.469.827.703 1.442.703ZM228.39 57h-5.501v-1.025h2.168v-5.076l-1.428-.088v-.938h2.798c-.108.171-.174.352-.198.543.405-.484 1.064-.726 1.978-.726.322 0 .808.12 1.457.36l-.762 1.178c-.385-.21-.742-.314-1.069-.314-.386 0-.73.11-1.033.33a1.379 1.379 0 0 0-.571.841v3.89h2.051v.139c0 .366.036.661.11.886Zm8.401-4.35v1.164h-4.966v-1.165h4.966Zm3.098-2.637-.139-1.201a4.084 4.084 0 0 0 1.435-.557c.415-.264.732-.598.952-1.004h1.172v8.724h2.087v.124c0 .361.04.662.118.901h-5.537v-1.025h2.124v-6.812c-.459.454-1.197.737-2.212.85Zm11.345 3.303c0-1.045-.176-1.965-.527-2.761-.352-.796-.96-1.656-1.824-2.578l.747-.762c1.059.991 1.824 1.965 2.292 2.922.474.952.711 2.012.711 3.179 0 1.177-.237 2.253-.711 3.23-.473.977-1.237 1.958-2.292 2.944l-.747-.762c.859-.918 1.465-1.784 1.816-2.6.357-.82.535-1.757.535-2.812Zm6.995 5.295-.711-.359c.068-.102.19-.339.366-.71.176-.366.325-.71.447-1.033-.102-.136-.154-.32-.154-.549 0-.278.073-.488.22-.63.151-.146.366-.22.645-.22.312 0 .532.083.659.25.127.16.19.4.19.717a.808.808 0 0 1-.161.447 6.76 6.76 0 0 1-.754 1.252c-.332.45-.581.728-.747.835Zm-.052-7.324c0-.273.073-.48.22-.622.151-.142.366-.213.645-.213.566 0 .849.279.849.835 0 .576-.283.864-.849.864-.577 0-.865-.288-.865-.864ZM126.224 131.96c0-.278.073-.488.22-.63.151-.146.366-.22.644-.22.567 0 .85.284.85.85 0 .566-.283.85-.85.85-.576 0-.864-.284-.864-.85Zm0-4.673c0-.273.073-.481.22-.622.151-.142.366-.213.644-.213.567 0 .85.278.85.835 0 .576-.283.864-.85.864-.576 0-.864-.288-.864-.864Zm14.363-4.05 1.208.073v3.179c.22-.244.516-.437.887-.579.371-.146.747-.22 1.128-.22.449 0 .844.103 1.186.308.347.205.62.483.82.835.205.347.357.728.455 1.143.102.415.153.852.153 1.311v2.827c0 .366.037.661.11.886h-1.384v-3.962c0-.616-.169-1.128-.505-1.538-.333-.411-.782-.616-1.348-.616-.635 0-1.135.327-1.502.982V133h-1.208v-9.763Zm11.645 5.603c.918.176 1.575.42 1.971.732.395.313.593.742.593 1.289 0 .679-.261 1.236-.784 1.67-.522.43-1.211.645-2.065.645-1.275 0-2.283-.518-3.025-1.553l.798-.835c.728.864 1.472 1.296 2.234 1.296a2 2 0 0 0 1.187-.358c.337-.24.505-.523.505-.85 0-.205-.105-.366-.315-.483-.21-.122-.588-.237-1.135-.345-1.055-.21-1.814-.488-2.278-.835-.459-.351-.689-.81-.689-1.377 0-.644.254-1.162.762-1.552.513-.396 1.189-.594 2.029-.594.596 0 1.128.105 1.597.315.468.21.84.513 1.113.909l-.762.776c-.302-.322-.598-.552-.886-.689a2.26 2.26 0 0 0-.989-.205c-.493 0-.903.093-1.23.279-.322.185-.484.42-.484.703 0 .259.152.471.454.637.303.166.77.308 1.399.425Zm10.635 4.16h-5.5v-1.025h2.109v-7.64l-1.421-.087v-.938h2.637v8.665h2.058v.139c0 .351.039.647.117.886Zm5.017-3.684c0 1.055.176 1.992.528 2.812.356.816.964 1.683 1.823 2.601l-.747.761c-1.054-.986-1.819-1.968-2.292-2.944-.474-.977-.711-2.053-.711-3.23 0-1.167.235-2.227.703-3.179.474-.957 1.241-1.931 2.3-2.922l.747.762c-.864.922-1.472 1.782-1.823 2.578-.352.796-.528 1.716-.528 2.761Zm7.998 3.684-2.519-7.126h1.282l1.838 5.163 1.999-5.163h1.275l-2.71 7.126h-1.165Zm8.526.161c-.772 0-1.419-.181-1.941-.542-.523-.361-.784-.864-.784-1.509 0-.722.352-1.269 1.055-1.64.708-.371 1.753-.557 3.135-.557.083 0 .205.003.366.007.166.005.288.008.366.008-.034-.63-.234-1.143-.601-1.538-.361-.401-.822-.601-1.384-.601-.669 0-1.365.344-2.087 1.033l-.725-.886a3.906 3.906 0 0 1 1.274-.923 3.625 3.625 0 0 1 1.501-.323c.943 0 1.717.318 2.322.953.611.634.916 1.44.916 2.417v3.852l-.066-.058V133h-1.502c.147-.21.247-.415.301-.615-.479.517-1.194.776-2.146.776Zm-1.487-2.051c0 .318.134.567.403.747.268.181.608.271 1.018.271.42 0 .835-.095 1.245-.285a2.587 2.587 0 0 0 1.018-.821v-1.025h-.688c-1.041 0-1.8.088-2.278.264-.479.171-.718.454-.718.849Zm12.48 1.89h-5.5v-1.025h2.168v-5.076l-1.428-.088v-.937h2.797c-.107.17-.173.351-.197.542.405-.484 1.064-.726 1.977-.726.323 0 .808.12 1.458.359l-.762 1.18c-.386-.21-.742-.315-1.069-.315-.386 0-.73.109-1.033.329a1.377 1.377 0 0 0-.571.842v3.89h2.051v.139c0 .366.036.661.109.886Zm5.472-3.684c0 1.055.175 1.992.527 2.812.356.816.964 1.683 1.824 2.601l-.747.761c-1.055-.986-1.819-1.968-2.293-2.944-.474-.977-.71-2.053-.71-3.23 0-1.167.234-2.227.703-3.179.473-.957 1.24-1.931 2.3-2.922l.747.762c-.865.922-1.473 1.782-1.824 2.578-.352.796-.527 1.716-.527 2.761Zm11.176-.667v1.165h-4.966v-1.165h4.966Zm8.247 0v1.165h-4.965v-1.165h4.965ZM46.383 149.634l1.384.191c-.151.722-.513 1.294-1.084 1.714-.571.415-1.28.622-2.124.622-1.01 0-1.794-.307-2.351-.923-.552-.62-.828-1.504-.828-2.651 0-.747.113-1.409.337-1.985a3.049 3.049 0 0 1 1.07-1.384c.483-.352 1.064-.528 1.743-.528a3.5 3.5 0 0 1 1.955.564c.577.376.962.87 1.158 1.48l-1.326.388a1.713 1.713 0 0 0-.66-.952 1.823 1.823 0 0 0-1.098-.344c-.615 0-1.077.246-1.384.739-.303.494-.454 1.192-.454 2.095 0 .777.16 1.367.483 1.773.322.405.798.608 1.428.608.474 0 .865-.12 1.172-.359.308-.244.5-.594.579-1.048Zm8.862 1.546c-.6.664-1.399.996-2.395.996s-1.792-.332-2.388-.996c-.59-.669-.886-1.575-.886-2.718 0-1.137.293-2.05.88-2.739.585-.688 1.376-1.033 2.372-1.033 1.006 0 1.812.347 2.417 1.04.606.694.908 1.609.908 2.747 0 1.133-.302 2.034-.908 2.703Zm-2.351-.052c.596 0 1.062-.229 1.399-.688.342-.464.513-1.118.513-1.963 0-.859-.174-1.533-.52-2.021-.342-.494-.816-.74-1.421-.74-.606 0-1.08.244-1.421.732-.342.484-.513 1.15-.513 2 0 .849.174 1.509.52 1.977.347.469.828.703 1.443.703Zm11.008.872h-5.5v-1.025h2.11v-7.64l-1.422-.087v-.938h2.637v8.665h2.058v.139c0 .351.04.647.117.886Zm7.837-.82c-.6.664-1.399.996-2.395.996s-1.792-.332-2.387-.996c-.591-.669-.887-1.575-.887-2.718 0-1.137.293-2.05.88-2.739.585-.688 1.376-1.033 2.372-1.033 1.006 0 1.812.347 2.417 1.04.606.694.908 1.609.908 2.747 0 1.133-.302 2.034-.908 2.703Zm-2.35-.052c.595 0 1.061-.229 1.398-.688.342-.464.513-1.118.513-1.963 0-.859-.174-1.533-.52-2.021-.342-.494-.816-.74-1.421-.74-.606 0-1.08.244-1.421.732-.342.484-.513 1.15-.513 2 0 .849.174 1.509.52 1.977.347.469.828.703 1.443.703Zm10.553.872h-5.5v-1.025h2.168v-5.076l-1.428-.088v-.937h2.797a1.32 1.32 0 0 0-.197.542c.405-.484 1.064-.726 1.977-.726.323 0 .808.12 1.458.359l-.762 1.18c-.386-.21-.742-.315-1.07-.315-.385 0-.73.109-1.032.329a1.38 1.38 0 0 0-.571.842v3.89h2.05v.139c0 .366.037.661.11.886Zm8.401-4.351v1.165h-4.966v-1.165h4.966Zm3.098-2.636-.139-1.201a4.088 4.088 0 0 0 1.436-.557 2.71 2.71 0 0 0 .952-1.004h1.172v8.724h2.087v.124c0 .361.04.662.117.901H91.53v-1.025h2.124v-6.812c-.459.454-1.196.737-2.212.85Zm11.346 3.303c0-1.045-.176-1.965-.528-2.761-.351-.796-.959-1.656-1.823-2.578l.747-.762c1.059.991 1.823 1.965 2.292 2.922.474.952.711 2.012.711 3.179 0 1.177-.237 2.253-.711 3.23-.474.976-1.238 1.958-2.292 2.944l-.747-.761c.859-.918 1.464-1.785 1.816-2.601.356-.82.535-1.757.535-2.812Zm18.442-6.856.901.564-5.662 11.69-.901-.564 5.662-11.69Zm10.708 5.662c0-.972.144-1.843.432-2.615.293-.771.696-1.372 1.209-1.801a2.655 2.655 0 0 1 1.743-.645c.644 0 1.225.217 1.743.652.522.434.93 1.04 1.223 1.816.298.772.447 1.641.447 2.608 0 .957-.147 1.821-.44 2.592-.288.767-.693 1.37-1.215 1.81-.523.434-1.109.651-1.758.651-.65 0-1.233-.217-1.751-.651-.512-.44-.913-1.045-1.201-1.817-.288-.771-.432-1.638-.432-2.6Zm1.641 2.263 3.025-5.595c-.352-.518-.774-.777-1.268-.777-.6 0-1.093.386-1.479 1.157-.386.772-.579 1.795-.579 3.069 0 .801.1 1.516.301 2.146Zm.586 1.099c.332.4.717.6 1.157.6.615 0 1.116-.356 1.501-1.069.386-.713.579-1.638.579-2.776 0-.835-.093-1.589-.278-2.263l-2.959 5.508Zm8.554.842c0-.273.076-.483.227-.63.152-.146.364-.219.638-.219.273 0 .483.073.629.219.147.147.22.357.22.63 0 .283-.073.498-.22.645-.146.146-.356.219-.629.219-.577 0-.865-.288-.865-.864Zm7.288-4.087h-1.084l.41-4.988h4.973v1.033h-3.852l-.235 2.652c.332-.342.838-.513 1.516-.513.904 0 1.631.3 2.183.901.552.595.828 1.379.828 2.351 0 1.011-.291 1.85-.872 2.519-.576.664-1.306.996-2.19.996-.962 0-1.912-.463-2.849-1.391l.813-.799c.596.674 1.252 1.011 1.97 1.011.615 0 1.089-.202 1.421-.608.337-.405.505-.969.505-1.692 0-.712-.168-1.254-.505-1.626-.332-.376-.81-.564-1.435-.564-.367 0-.691.066-.975.198-.283.127-.49.301-.622.52Zm10.51 1.077c0-1.045-.176-1.965-.527-2.761-.352-.796-.96-1.656-1.824-2.578l.747-.762c1.06.991 1.824 1.965 2.293 2.922.473.952.71 2.012.71 3.179 0 1.177-.237 2.253-.71 3.23-.474.976-1.238 1.958-2.293 2.944l-.747-.761c.859-.918 1.465-1.785 1.816-2.601.357-.82.535-1.757.535-2.812Zm6.995 5.295-.711-.359c.069-.102.191-.339.367-.71.175-.366.324-.71.446-1.033-.102-.136-.154-.32-.154-.549 0-.278.074-.488.22-.63.152-.146.366-.22.645-.22.312 0 .532.083.659.249.127.162.19.401.19.718a.8.8 0 0 1-.161.447 6.74 6.74 0 0 1-.754 1.252c-.332.45-.581.728-.747.835Zm-.052-7.324c0-.273.074-.481.22-.622.152-.142.366-.213.645-.213.566 0 .849.278.849.835 0 .576-.283.864-.849.864-.576 0-.865-.288-.865-.864Z" fill="#D8DFE5"/><path d="M75.555 34.924v-1.15c.274 0 .51-.025.71-.073.206-.054.364-.117.477-.19a.865.865 0 0 0 .263-.286.864.864 0 0 0 .125-.315c.02-.103.03-.218.03-.345 0-.341-.089-.776-.264-1.303-.162-.464-.242-.838-.242-1.12 0-.63.232-1.104.696-1.422.464-.322 1.062-.483 1.794-.483.18 0 .347.005.498.015v.996a3.658 3.658 0 0 0-.571-.044c-.757 0-1.135.29-1.135.871 0 .24.07.589.212 1.048.17.556.256 1.044.256 1.464 0 .933-.337 1.512-1.01 1.736.239.093.437.24.593.44.156.2.264.42.322.659.064.234.095.49.095.769 0 .415-.095.898-.285 1.45a2.61 2.61 0 0 0-.183.886c0 .342.11.591.33.747.219.161.507.242.863.242l.513-.051v.974a4.515 4.515 0 0 1-.461.022c-.747 0-1.355-.173-1.824-.52-.469-.347-.703-.86-.703-1.538 0-.303.08-.662.242-1.077.175-.425.263-.813.263-1.164 0-.127-.01-.24-.03-.337a.929.929 0 0 0-.124-.323.824.824 0 0 0-.263-.3 1.419 1.419 0 0 0-.47-.198c-.2-.053-.439-.08-.717-.08ZM26.087 67.248v-.997c.152-.01.318-.014.498-.014.733 0 1.331.16 1.795.483.464.318.696.791.696 1.421 0 .283-.08.657-.242 1.12-.17.513-.256.948-.256 1.304 0 .162.017.303.05.425.035.122.103.25.206.381.102.127.266.227.49.3.225.069.508.103.85.103v1.15c-.278 0-.52.027-.725.08-.2.054-.356.12-.469.198a.851.851 0 0 0-.256.3 1.171 1.171 0 0 0-.124.323 2.3 2.3 0 0 0-.022.337c0 .366.085.754.256 1.164.161.415.242.774.242 1.077 0 .678-.235 1.191-.703 1.538-.47.347-1.077.52-1.824.52-.166 0-.32-.007-.462-.022v-.974l.513.051c.356 0 .647-.08.872-.242.23-.156.344-.405.344-.747 0-.22-.068-.515-.205-.886-.19-.552-.286-1.035-.286-1.45 0-.278.03-.535.088-.77a1.82 1.82 0 0 1 .33-.658c.156-.2.354-.347.593-.44-.674-.224-1.01-.803-1.01-1.736 0-.4.087-.888.263-1.464.151-.489.227-.838.227-1.048 0-.58-.383-.871-1.15-.871-.2 0-.393.014-.579.044Zm140.186 43.676v-1.15c.273 0 .51-.024.71-.073.205-.054.364-.118.476-.191a.852.852 0 0 0 .264-.285.868.868 0 0 0 .125-.315c.019-.103.029-.218.029-.345 0-.341-.088-.776-.264-1.303-.161-.464-.241-.838-.241-1.121 0-.63.232-1.103.695-1.421.464-.322 1.062-.483 1.795-.483.18 0 .346.005.498.014v.997a3.578 3.578 0 0 0-.571-.044c-.757 0-1.136.29-1.136.871 0 .239.071.589.213 1.048.171.556.256 1.044.256 1.464 0 .933-.337 1.512-1.011 1.736.24.093.437.239.594.44.156.2.263.42.322.659.063.234.095.491.095.769 0 .415-.095.898-.286 1.45a2.613 2.613 0 0 0-.183.886c0 .342.11.591.33.747.22.162.508.242.864.242l.513-.051v.974a4.42 4.42 0 0 1-.462.022c-.747 0-1.355-.173-1.823-.52-.469-.347-.703-.859-.703-1.538 0-.303.08-.662.241-1.077.176-.425.264-.813.264-1.164 0-.127-.01-.24-.029-.337a.929.929 0 0 0-.125-.323.812.812 0 0 0-.264-.3 1.419 1.419 0 0 0-.468-.198c-.2-.053-.44-.08-.718-.08ZM26.087 162.248v-.997c.152-.009.318-.014.498-.014.733 0 1.331.161 1.795.483.464.318.696.791.696 1.421 0 .283-.08.657-.242 1.121-.17.512-.256.947-.256 1.303 0 .162.017.303.05.425.035.122.103.249.206.381.102.127.266.227.49.3.225.069.508.103.85.103v1.15c-.278 0-.52.027-.725.08-.2.054-.356.12-.469.198a.848.848 0 0 0-.256.3 1.18 1.18 0 0 0-.124.323c-.015.097-.022.21-.022.337 0 .366.085.754.256 1.164.161.415.242.774.242 1.077 0 .679-.235 1.191-.703 1.538-.47.347-1.077.52-1.824.52-.166 0-.32-.007-.462-.022v-.974l.513.051c.356 0 .647-.08.872-.242.23-.156.344-.405.344-.747 0-.219-.068-.515-.205-.886-.19-.552-.286-1.035-.286-1.45 0-.278.03-.535.088-.769a1.82 1.82 0 0 1 .33-.659 1.36 1.36 0 0 1 .593-.44c-.674-.224-1.01-.803-1.01-1.736 0-.4.087-.888.263-1.464.151-.489.227-.838.227-1.048 0-.581-.383-.871-1.15-.871-.2 0-.393.014-.579.044Z" fill="#FEB173"/><path d="m41.556 47.237 1.216.088v3.237c.498-.581 1.182-.872 2.05-.872.977 0 1.739.313 2.286.938.547.62.82 1.494.82 2.622 0 1.182-.3 2.131-.9 2.85-.596.717-1.383 1.076-2.36 1.076a3.11 3.11 0 0 1-1.72-.49c.063.155.12.26.168.314h-1.56v-9.763Zm1.216 4.826v2.989c.317.64.942.96 1.875.96.605 0 1.104-.257 1.494-.77.396-.517.593-1.177.593-1.977 0-.757-.178-1.36-.534-1.81-.357-.453-.833-.68-1.428-.68-.41 0-.791.112-1.143.336a2.583 2.583 0 0 0-.857.953Zm9.683 5.098c-.772 0-1.419-.18-1.941-.542-.523-.361-.784-.864-.784-1.509 0-.722.352-1.27 1.055-1.64.708-.371 1.753-.557 3.134-.557.083 0 .206.003.367.007.166.005.288.008.366.008-.034-.63-.235-1.143-.6-1.538-.362-.4-.824-.6-1.385-.6-.669 0-1.365.343-2.087 1.032l-.725-.887a3.91 3.91 0 0 1 1.274-.922 3.627 3.627 0 0 1 1.501-.323c.943 0 1.717.318 2.322.953.61.634.916 1.44.916 2.417v3.852l-.066-.059V57H54.3c.147-.21.247-.415.3-.615-.478.517-1.193.776-2.145.776Zm-1.487-2.05c0 .317.134.566.403.746.268.181.607.271 1.018.271.42 0 .835-.095 1.245-.285.415-.19.754-.464 1.018-.82v-1.026h-.689c-1.04 0-1.799.088-2.278.264-.478.17-.717.454-.717.85Zm11.909-.477 1.384.19c-.151.723-.512 1.295-1.084 1.715-.571.415-1.28.622-2.124.622-1.01 0-1.794-.308-2.35-.923-.553-.62-.829-1.504-.829-2.651 0-.747.113-1.409.337-1.985a3.053 3.053 0 0 1 1.07-1.384c.483-.352 1.064-.528 1.743-.528a3.5 3.5 0 0 1 1.956.564c.576.376.961.87 1.157 1.48l-1.326.388a1.714 1.714 0 0 0-.66-.952 1.826 1.826 0 0 0-1.098-.344c-.615 0-1.076.246-1.384.74-.303.493-.454 1.19-.454 2.094 0 .777.161 1.367.483 1.773.322.405.799.608 1.428.608.474 0 .865-.12 1.172-.36.308-.243.5-.593.579-1.047Zm3.757-7.397 1.216.073v5.28l3.098-2.717h1.714l-3.603 3.253L73.05 57h-1.867l-3.07-3.01-.263.234V57h-1.216v-9.763Zm7.625 5.676c0-.986.27-1.77.813-2.351.547-.581 1.296-.872 2.248-.872.884 0 1.575.274 2.073.82v-.636h1.326c-.073.224-.11.52-.11.886v6.064c0 .718-.274 1.292-.82 1.721-.547.43-1.275.645-2.183.645-.65 0-1.265-.112-1.846-.337-.576-.22-1-.508-1.274-.864l.732-.886c.576.654 1.385.981 2.425.981 1.167 0 1.75-.42 1.75-1.26v-1.172c-.65.45-1.348.674-2.095.674-.908 0-1.643-.315-2.204-.945-.557-.634-.835-1.457-.835-2.468Zm3.135-2.175c-.577 0-1.048.21-1.414.63-.366.42-.55.94-.55 1.56 0 .64.189 1.174.565 1.604.38.43.871.644 1.472.644.39 0 .76-.093 1.106-.278.346-.19.62-.45.82-.776v-2.124a2.4 2.4 0 0 0-.857-.93 2.116 2.116 0 0 0-1.142-.33ZM88.189 57h-5.5v-1.025h2.168v-5.076l-1.428-.088v-.938h2.798c-.108.171-.174.352-.198.543.405-.484 1.064-.726 1.977-.726.323 0 .808.12 1.458.36l-.762 1.178c-.386-.21-.742-.314-1.07-.314-.385 0-.73.11-1.032.33a1.377 1.377 0 0 0-.571.841v3.89h2.05v.139c0 .366.037.661.11.886Zm8.292-.82c-.601.664-1.4.996-2.396.996s-1.791-.332-2.387-.996c-.591-.67-.886-1.575-.886-2.718 0-1.137.293-2.05.878-2.739.586-.688 1.377-1.033 2.374-1.033 1.005 0 1.811.347 2.417 1.04.605.694.908 1.61.908 2.747 0 1.133-.303 2.034-.908 2.703Zm-2.352-.052c.596 0 1.062-.23 1.4-.688.341-.464.512-1.118.512-1.963 0-.86-.173-1.533-.52-2.021-.342-.494-.815-.74-1.42-.74-.606 0-1.08.244-1.422.732-.342.484-.513 1.15-.513 2 0 .85.174 1.508.52 1.977.347.469.828.703 1.443.703Zm5.157-6.27h1.274v4.095c0 .576.173 1.08.52 1.509.347.425.774.637 1.282.637.317 0 .591-.095.82-.285.235-.191.486-.499.755-.923v-5.017h1.201v6.24c0 .366.036.661.11.886h-1.311v-.762c-.22.288-.511.518-.872.689-.361.166-.73.249-1.106.249-.508 0-.969-.159-1.384-.476a3.102 3.102 0 0 1-.952-1.267 4.436 4.436 0 0 1-.337-1.743v-3.831ZM108.932 57h-1.202v-7.127h1.568c-.117.171-.21.352-.278.543.229-.22.522-.396.878-.528a3.147 3.147 0 0 1 1.084-.198c.44 0 .828.103 1.165.308.342.205.613.481.813.828.205.346.356.73.454 1.15.103.415.154.852.154 1.31v2.828c0 .351.039.647.117.886h-1.399v-3.962c0-.61-.166-1.121-.498-1.531-.327-.415-.767-.623-1.318-.623-.65 0-1.162.33-1.538.989V57Zm6.621-3.765c0-1.123.273-1.994.82-2.614.552-.62 1.316-.93 2.293-.93.869 0 1.552.29 2.05.871v-3.325l1.216.073v8.804c0 .38.032.676.095.886h-1.311v-.44c-.542.4-1.174.601-1.897.601-.976 0-1.765-.359-2.365-1.077-.601-.717-.901-1.667-.901-2.849Zm3.164-2.475c-.596 0-1.072.227-1.428.68-.357.45-.535 1.053-.535 1.81 0 .806.195 1.467.586 1.985.39.517.891.776 1.501.776.933 0 1.558-.32 1.875-.96v-2.988a2.536 2.536 0 0 0-.864-.959 2.04 2.04 0 0 0-1.135-.344Zm-77.16 72.477 1.215.088v3.237c.498-.581 1.182-.872 2.05-.872.977 0 1.739.313 2.286.938.547.62.82 1.494.82 2.622 0 1.182-.3 2.131-.9 2.849-.596.718-1.383 1.077-2.36 1.077a3.11 3.11 0 0 1-1.72-.491c.063.156.12.261.168.315h-1.56v-9.763Zm1.215 4.826v2.989c.317.639.942.959 1.875.959.605 0 1.104-.256 1.494-.769.396-.517.593-1.177.593-1.977 0-.757-.178-1.36-.534-1.809-.357-.455-.833-.682-1.428-.682-.41 0-.791.113-1.143.337a2.587 2.587 0 0 0-.857.952Zm9.683 5.098c-.772 0-1.419-.181-1.941-.542-.523-.361-.784-.864-.784-1.509 0-.722.352-1.269 1.055-1.64.708-.371 1.753-.557 3.134-.557.083 0 .206.003.367.007.166.005.288.008.366.008-.034-.63-.235-1.143-.6-1.538-.362-.401-.824-.601-1.385-.601-.669 0-1.365.344-2.087 1.033l-.725-.886a3.903 3.903 0 0 1 1.274-.923 3.624 3.624 0 0 1 1.501-.323c.943 0 1.717.318 2.322.953.61.634.916 1.44.916 2.417v3.852l-.066-.058V133H54.3c.147-.21.247-.415.3-.615-.478.517-1.193.776-2.145.776Zm-1.487-2.051c0 .318.134.567.403.747.268.181.607.271 1.018.271.42 0 .835-.095 1.245-.285a2.585 2.585 0 0 0 1.018-.821v-1.025h-.689c-1.04 0-1.799.088-2.278.264-.478.171-.717.454-.717.849Zm11.909-.476 1.384.191c-.151.722-.512 1.294-1.084 1.714-.571.415-1.28.622-2.124.622-1.01 0-1.794-.307-2.35-.923-.553-.62-.829-1.504-.829-2.651 0-.747.113-1.409.337-1.985a3.05 3.05 0 0 1 1.07-1.384c.483-.352 1.064-.528 1.743-.528a3.5 3.5 0 0 1 1.956.564c.576.376.961.87 1.157 1.48l-1.326.388a1.713 1.713 0 0 0-.66-.952 1.823 1.823 0 0 0-1.098-.344c-.615 0-1.076.246-1.384.739-.303.494-.454 1.192-.454 2.095 0 .777.161 1.367.483 1.773.322.405.799.608 1.428.608.474 0 .865-.12 1.172-.359.308-.244.5-.594.579-1.048Zm3.757-7.397 1.216.073v5.281l3.098-2.717h1.714l-3.603 3.251L73.05 133h-1.867l-3.07-3.01-.263.234V133h-1.216v-9.763Zm7.625 5.676c0-.986.27-1.77.813-2.351.547-.581 1.296-.872 2.248-.872.884 0 1.575.274 2.073.821v-.637h1.326c-.073.224-.11.52-.11.886v6.064c0 .718-.274 1.292-.82 1.721-.547.43-1.275.645-2.183.645-.65 0-1.265-.112-1.846-.337-.576-.22-1-.508-1.274-.864l.732-.886c.576.654 1.385.981 2.425.981 1.167 0 1.75-.42 1.75-1.26v-1.172c-.65.45-1.348.674-2.095.674-.908 0-1.643-.315-2.204-.945-.557-.634-.835-1.457-.835-2.468Zm3.135-2.175c-.577 0-1.048.21-1.414.63-.366.42-.55.94-.55 1.56 0 .639.189 1.174.565 1.604.38.429.871.644 1.472.644.39 0 .76-.093 1.106-.278.346-.19.62-.449.82-.776v-2.124a2.399 2.399 0 0 0-.857-.931 2.121 2.121 0 0 0-1.142-.329ZM88.189 133h-5.5v-1.025h2.168v-5.076l-1.428-.088v-.937h2.798c-.108.17-.174.351-.198.542.405-.484 1.064-.726 1.977-.726.323 0 .808.12 1.458.359l-.762 1.18c-.386-.21-.742-.315-1.07-.315-.385 0-.73.109-1.032.329a1.379 1.379 0 0 0-.571.842v3.89h2.05v.139c0 .366.037.661.11.886Zm8.292-.82c-.601.664-1.4.996-2.396.996s-1.791-.332-2.387-.996c-.591-.669-.886-1.575-.886-2.718 0-1.137.293-2.05.878-2.739.586-.688 1.377-1.033 2.374-1.033 1.005 0 1.811.347 2.417 1.04.605.694.908 1.609.908 2.747 0 1.133-.303 2.034-.908 2.703Zm-2.352-.052c.596 0 1.062-.229 1.4-.688.341-.464.512-1.118.512-1.963 0-.859-.173-1.533-.52-2.021-.342-.494-.815-.74-1.42-.74-.606 0-1.08.244-1.422.732-.342.484-.513 1.15-.513 2 0 .849.174 1.509.52 1.977.347.469.828.703 1.443.703Zm5.157-6.269h1.274v4.094c0 .576.173 1.079.52 1.509.347.425.774.637 1.282.637.317 0 .591-.095.82-.286.235-.19.486-.498.755-.922v-5.017h1.201v6.24c0 .366.036.661.11.886h-1.311v-.762a2.33 2.33 0 0 1-.872.689c-.361.166-.73.249-1.106.249-.508 0-.969-.159-1.384-.476a3.108 3.108 0 0 1-.952-1.267 4.443 4.443 0 0 1-.337-1.744v-3.83Zm9.646 7.141h-1.202v-7.126h1.568c-.117.17-.21.351-.278.542.229-.22.522-.396.878-.528a3.145 3.145 0 0 1 1.084-.198c.44 0 .828.103 1.165.308.342.205.613.481.813.828.205.346.356.73.454 1.15.103.415.154.852.154 1.311v2.827c0 .351.039.647.117.886h-1.399v-3.962c0-.611-.166-1.121-.498-1.531-.327-.415-.767-.623-1.318-.623-.65 0-1.162.33-1.538.989V133Zm6.621-3.765c0-1.123.273-1.994.82-2.614.552-.621 1.316-.931 2.293-.931.869 0 1.552.291 2.05.872v-3.325l1.216.073v8.804c0 .381.032.676.095.886h-1.311v-.439c-.542.4-1.174.6-1.897.6-.976 0-1.765-.359-2.365-1.077-.601-.717-.901-1.667-.901-2.849Zm3.164-2.475c-.596 0-1.072.227-1.428.681-.357.449-.535 1.052-.535 1.809 0 .806.195 1.467.586 1.985.39.517.891.776 1.501.776.933 0 1.558-.32 1.875-.959v-2.989a2.538 2.538 0 0 0-.864-.959 2.043 2.043 0 0 0-1.135-.344Z" fill="#9ED9E9"/><rect x=".5" y=".5" width="299" height="199" rx="3.5" stroke="#4D5C6C"/></svg>