<svg width="313" height="230" viewBox="0 0 313 230" fill="none" xmlns="http://www.w3.org/2000/svg">
<rect x="0.155273" width="312.845" height="230" rx="3.63975" fill="white"/>
<g clip-path="url(#clip0_638_2458)">
<path d="M122.122 96.912C120.254 96.912 118.651 96.4392 117.312 95.4941C115.981 94.5408 114.956 93.1683 114.237 91.3759C113.526 89.5753 113.171 87.4085 113.171 84.875C113.178 82.3408 113.538 80.1852 114.249 78.4078C114.967 76.6227 115.992 75.2612 117.323 74.3233C118.662 73.3854 120.262 72.9165 122.122 72.9165C123.983 72.9165 125.583 73.3854 126.921 74.3233C128.261 75.2612 129.285 76.6227 129.996 78.4078C130.715 80.1927 131.074 82.3484 131.074 84.875C131.074 87.4162 130.715 89.5868 129.996 91.3868C129.285 93.1798 128.261 94.5485 126.921 95.4941C125.59 96.4392 123.991 96.912 122.122 96.912ZM122.122 93.3612C123.575 93.3612 124.721 92.6462 125.56 91.2168C126.407 89.7798 126.831 87.6654 126.831 84.875C126.831 83.0292 126.638 81.4785 126.252 80.223C125.866 78.9674 125.322 78.022 124.618 77.3867C123.915 76.7437 123.083 76.4223 122.122 76.4223C120.678 76.4223 119.536 77.1408 118.696 78.5779C117.857 80.0074 117.433 82.1063 117.425 84.875C117.418 86.728 117.603 88.2858 117.981 89.5491C118.367 90.8123 118.912 91.7651 119.615 92.4079C120.319 93.0437 121.154 93.3612 122.122 93.3612ZM142.282 96.7874C140.77 96.7874 139.416 96.5037 138.221 95.9363C137.026 95.3619 136.077 94.5753 135.373 93.5766C134.677 92.5785 134.307 91.436 134.261 90.1504H138.346C138.421 91.1031 138.834 91.8826 139.582 92.4877C140.331 93.0852 141.231 93.3836 142.282 93.3836C143.107 93.3836 143.841 93.1945 144.484 92.8162C145.126 92.4385 145.633 91.9127 146.004 91.2392C146.374 90.5663 146.556 89.7983 146.548 88.9363C146.556 88.059 146.371 87.2801 145.992 86.5989C145.615 85.9184 145.096 85.3855 144.438 84.9996C143.78 84.606 143.024 84.4098 142.169 84.4098C141.473 84.4021 140.788 84.5306 140.116 84.7951C139.442 85.0603 138.909 85.4079 138.516 85.8392L134.715 85.2149L135.929 73.2342H149.408V76.7513H139.412L138.743 82.9119H138.879C139.31 82.4051 139.919 81.9853 140.705 81.6525C141.492 81.3122 142.355 81.142 143.293 81.142C144.699 81.142 145.955 81.4748 147.059 82.1404C148.164 82.7984 149.033 83.7063 149.668 84.8635C150.304 86.0207 150.622 87.344 150.622 88.8341C150.622 90.3695 150.266 91.7389 149.555 92.9414C148.852 94.1363 147.872 95.0782 146.617 95.7663C145.369 96.4469 143.924 96.7874 142.282 96.7874ZM156.358 93.6788C155.67 93.6788 155.08 93.4366 154.589 92.9529C154.097 92.4609 153.855 91.8711 153.863 91.183C153.855 90.5018 154.097 89.9197 154.589 89.4354C155.08 88.9516 155.67 88.7095 156.358 88.7095C157.024 88.7095 157.603 88.9516 158.095 89.4354C158.594 89.9197 158.847 90.5018 158.855 91.183C158.847 91.6443 158.726 92.0641 158.491 92.4424C158.265 92.82 157.962 93.1229 157.584 93.3497C157.213 93.5689 156.805 93.6788 156.358 93.6788ZM156.358 82.1631C155.67 82.1631 155.08 81.921 154.589 81.437C154.097 80.9453 153.855 80.3554 153.863 79.6671C153.855 78.9863 154.097 78.404 154.589 77.9199C155.08 77.4283 155.67 77.1824 156.358 77.1824C157.024 77.1824 157.603 77.4283 158.095 77.9199C158.594 78.404 158.847 78.9863 158.855 79.6671C158.847 80.1209 158.726 80.5369 158.491 80.9151C158.265 81.2932 157.962 81.5958 157.584 81.8227C157.213 82.0496 156.805 82.1631 156.358 82.1631ZM170.999 96.912C169.131 96.912 167.528 96.4392 166.188 95.4941C164.857 94.5408 163.833 93.1683 163.114 91.3759C162.403 89.5753 162.048 87.4085 162.048 84.875C162.055 82.3408 162.415 80.1852 163.125 78.4078C163.844 76.6227 164.869 75.2612 166.2 74.3233C167.539 73.3854 169.139 72.9165 170.999 72.9165C172.86 72.9165 174.459 73.3854 175.799 74.3233C177.137 75.2612 178.162 76.6227 178.873 78.4078C179.592 80.1927 179.951 82.3484 179.951 84.875C179.951 87.4162 179.592 89.5868 178.873 91.3868C178.162 93.1798 177.137 94.5485 175.799 95.4941C174.467 96.4392 172.868 96.912 170.999 96.912ZM170.999 93.3612C172.452 93.3612 173.597 92.6462 174.437 91.2168C175.284 89.7798 175.707 87.6654 175.707 84.875C175.707 83.0292 175.515 81.4785 175.129 80.223C174.743 78.9674 174.199 78.022 173.495 77.3867C172.792 76.7437 171.96 76.4223 170.999 76.4223C169.555 76.4223 168.413 77.1408 167.573 78.5779C166.734 80.0074 166.31 82.1063 166.302 84.875C166.295 86.728 166.48 88.2858 166.858 89.5491C167.244 90.8123 167.788 91.7651 168.492 92.4079C169.195 93.0437 170.031 93.3612 170.999 93.3612ZM191.67 96.912C189.802 96.912 188.198 96.4392 186.859 95.4941C185.528 94.5408 184.503 93.1683 183.785 91.3759C183.074 89.5753 182.718 87.4085 182.718 84.875C182.726 82.3408 183.085 80.1852 183.796 78.4078C184.515 76.6227 185.54 75.2612 186.871 74.3233C188.21 73.3854 189.81 72.9165 191.67 72.9165C193.53 72.9165 195.13 73.3854 196.469 74.3233C197.808 75.2612 198.833 76.6227 199.544 78.4078C200.262 80.1927 200.622 82.3484 200.622 84.875C200.622 87.4162 200.262 89.5868 199.544 91.3868C198.833 93.1798 197.808 94.5485 196.469 95.4941C195.138 96.4392 193.538 96.912 191.67 96.912ZM191.67 93.3612C193.122 93.3612 194.268 92.6462 195.107 91.2168C195.955 89.7798 196.378 87.6654 196.378 84.875C196.378 83.0292 196.185 81.4785 195.8 80.223C195.414 78.9674 194.87 78.022 194.166 77.3867C193.463 76.7437 192.631 76.4223 191.67 76.4223C190.226 76.4223 189.083 77.1408 188.243 78.5779C187.404 80.0074 186.98 82.1063 186.973 84.875C186.965 86.728 187.151 88.2858 187.529 89.5491C187.914 90.8123 188.459 91.7651 189.162 92.4079C189.866 93.0437 190.702 93.3612 191.67 93.3612Z" fill="#37434F"/>
<path d="M156.578 176.342C174.223 176.342 188.527 162.038 188.527 144.393C188.527 126.748 174.223 112.444 156.578 112.444C138.933 112.444 124.629 126.748 124.629 144.393C124.629 162.038 138.933 176.342 156.578 176.342Z" fill="url(#paint0_linear_638_2458)"/>
<path d="M148.819 154.84V133.603C148.819 132.155 150.423 131.284 151.638 132.071L168.021 142.69C169.132 143.409 169.132 145.034 168.021 145.754L151.638 156.373C150.423 157.16 148.819 156.288 148.819 154.84Z" fill="white"/>
<path fill-rule="evenodd" clip-rule="evenodd" d="M60.7314 115C60.7314 62.0653 103.643 19.1533 156.578 19.1533V29.3768C109.29 29.3768 70.9551 67.7116 70.9551 115C70.9551 162.288 109.29 200.623 156.578 200.623V210.847C103.643 210.847 60.7314 167.935 60.7314 115Z" fill="url(#paint1_linear_638_2458)"/>
<path fill-rule="evenodd" clip-rule="evenodd" d="M252.426 115C252.426 62.0653 209.514 19.1533 156.579 19.1533V29.3768C203.867 29.3768 242.202 67.7116 242.202 115C242.202 162.288 203.867 200.623 156.579 200.623V210.847C209.514 210.847 252.426 167.935 252.426 115Z" fill="url(#paint2_linear_638_2458)"/>
</g>
<defs>
<linearGradient id="paint0_linear_638_2458" x1="156.578" y1="112.444" x2="156.578" y2="176.342" gradientUnits="userSpaceOnUse">
<stop stop-color="#2D7FF9"/>
<stop offset="1" stop-color="#1A6DE8"/>
</linearGradient>
<linearGradient id="paint1_linear_638_2458" x1="108.655" y1="19.1533" x2="108.655" y2="189.76" gradientUnits="userSpaceOnUse">
<stop stop-color="#116DF6" stop-opacity="0.12"/>
<stop offset="1" stop-color="#116DF6" stop-opacity="0.55"/>
</linearGradient>
<linearGradient id="paint2_linear_638_2458" x1="204.502" y1="19.1533" x2="204.502" y2="210.847" gradientUnits="userSpaceOnUse">
<stop stop-color="#116DF6"/>
<stop offset="1" stop-color="#116DF6" stop-opacity="0.55"/>
</linearGradient>
<clipPath id="clip0_638_2458">
<rect width="191.693" height="191.693" fill="white" transform="translate(60.7314 19.1533)"/>
</clipPath>
</defs>
</svg>
