<svg width="24" height="24" viewBox="0 0 24 24" fill="none" xmlns="http://www.w3.org/2000/svg">
<path fill-rule="evenodd" clip-rule="evenodd" d="M4.5 12C4.5 7.857 7.85775 4.5 12 4.5C16.1423 4.5 19.5 7.857 19.5 12C19.5 16.1423 16.1423 19.5 12 19.5C7.85775 19.5 4.5 16.1423 4.5 12ZM12 6.75C13.242 6.75 14.25 7.758 14.25 9C14.25 10.2435 13.242 11.25 12 11.25C10.758 11.25 9.75 10.2435 9.75 9C9.75 7.758 10.758 6.75 12 6.75ZM12 17.4C10.122 17.4 8.46975 16.4408 7.5015 14.9851C7.521 13.4948 10.5045 12.6751 12 12.6751C13.4955 12.6751 16.479 13.4948 16.4985 14.9851C15.5302 16.4408 13.878 17.4 12 17.4Z" fill="black"/>
</svg>
